<svg width="1528" height="315" viewBox="0 0 1528 315" fill="none" xmlns="http://www.w3.org/2000/svg">
<path d="M343.47 272.966C237.921 321.047 155.5 229 22.1123 229L22.1113 22H1506.46V220.151C1396.04 225.25 1339.96 293 1216.55 293C1093.14 293 1096.38 223.793 914.515 220.151C732.646 216.508 726.151 260.582 635.217 260.582C544.283 260.582 449.018 224.886 343.47 272.966Z" fill="#FF76B8" stroke="#FF76B8" stroke-width="43"/>
<path d="M1 230H22.1123C160.5 230 237.921 321.047 343.47 272.966C449.019 224.886 544.283 260.582 635.217 260.582C726.151 260.582 732.647 216.508 914.515 220.15C1096.38 223.793 1093.14 293 1216.55 293C1339.96 293 1396.04 225.25 1506.46 220.15H1527.5" stroke="#FFC736" stroke-width="14"/>
</svg>
