<svg width="116" height="174" viewBox="0 0 116 174" fill="none" xmlns="http://www.w3.org/2000/svg">
<g clip-path="url(#clip0_92_2281)">
<mask id="path-1-outside-1_92_2281" maskUnits="userSpaceOnUse" x="2" y="0" width="112" height="174" fill="black">
<rect fill="white" x="2" width="112" height="174"/>
<path d="M9.33267 167V7.39999H74.3127C81.7607 10.136 88.3727 14.924 94.1487 21.764C99.9247 28.604 102.813 36.888 102.813 46.616C102.813 63.792 97.1887 75.8 85.9407 82.64V83.552C99.9247 91.304 106.917 103.464 106.917 120.032C106.917 139.032 97.2647 154.688 77.9607 167H9.33267ZM40.3407 73.292H62.9127C69.6007 69.188 72.9447 62.956 72.9447 54.596C72.9447 46.236 69.8287 39.624 63.5967 34.76H40.3407V73.292ZM40.3407 140.552H63.8247C66.5607 138.576 68.9927 135.46 71.1207 131.204C73.4007 126.948 74.5407 122.692 74.5407 118.436C74.5407 114.18 73.6287 110.304 71.8047 106.808C69.9807 103.312 67.7007 100.728 64.9647 99.056H40.3407V140.552Z"/>
</mask>
<path d="M9.33267 167V7.39999H74.3127C81.7607 10.136 88.3727 14.924 94.1487 21.764C99.9247 28.604 102.813 36.888 102.813 46.616C102.813 63.792 97.1887 75.8 85.9407 82.64V83.552C99.9247 91.304 106.917 103.464 106.917 120.032C106.917 139.032 97.2647 154.688 77.9607 167H9.33267ZM40.3407 73.292H62.9127C69.6007 69.188 72.9447 62.956 72.9447 54.596C72.9447 46.236 69.8287 39.624 63.5967 34.76H40.3407V73.292ZM40.3407 140.552H63.8247C66.5607 138.576 68.9927 135.46 71.1207 131.204C73.4007 126.948 74.5407 122.692 74.5407 118.436C74.5407 114.18 73.6287 110.304 71.8047 106.808C69.9807 103.312 67.7007 100.728 64.9647 99.056H40.3407V140.552Z" fill="#FFC736"/>
<path d="M9.33267 167H2.33267V174H9.33267V167ZM9.33267 7.39999V0.399989H2.33267V7.39999H9.33267ZM74.3127 7.39999L76.7264 0.829301L75.5577 0.399989H74.3127V7.39999ZM94.1487 21.764L88.8005 26.2803L88.8005 26.2803L94.1487 21.764ZM85.9407 82.64L82.3036 76.659L78.9407 78.7041V82.64H85.9407ZM85.9407 83.552H78.9407V87.6752L82.5468 89.6742L85.9407 83.552ZM77.9607 167V174H80.0029L81.7248 172.902L77.9607 167ZM40.3407 73.292H33.3407V80.292H40.3407V73.292ZM62.9127 73.292V80.292H64.8892L66.5738 79.2583L62.9127 73.292ZM63.5967 34.76L67.9036 29.2418L66.005 27.76H63.5967V34.76ZM40.3407 34.76V27.76H33.3407V34.76H40.3407ZM40.3407 140.552H33.3407V147.552H40.3407V140.552ZM63.8247 140.552V147.552H66.0882L67.9231 146.227L63.8247 140.552ZM71.1207 131.204L64.9503 127.898L64.9038 127.985L64.8597 128.074L71.1207 131.204ZM71.8047 106.808L78.0108 103.57L78.0108 103.57L71.8047 106.808ZM64.9647 99.056L68.6148 93.083L66.9342 92.056H64.9647V99.056ZM40.3407 99.056V92.056H33.3407V99.056H40.3407ZM16.3327 167V7.39999H2.33267V167H16.3327ZM9.33267 14.4H74.3127V0.399989H9.33267V14.4ZM71.899 13.9707C78.067 16.2365 83.7055 20.2468 88.8005 26.2803L99.4969 17.2477C93.0398 9.60121 85.4544 4.03551 76.7264 0.829301L71.899 13.9707ZM88.8005 26.2803C93.4145 31.7443 95.8127 38.3872 95.8127 46.616H109.813C109.813 35.3888 106.435 25.4637 99.4969 17.2477L88.8005 26.2803ZM95.8127 46.616C95.8127 62.1942 90.8299 71.4741 82.3036 76.659L89.5777 88.6209C103.547 80.1258 109.813 65.3898 109.813 46.616H95.8127ZM78.9407 82.64V83.552H92.9407V82.64H78.9407ZM82.5468 89.6742C88.5834 93.0206 92.8285 97.1478 95.6043 101.975C98.3876 106.816 99.9167 112.749 99.9167 120.032H113.917C113.917 110.746 111.95 102.316 107.741 94.9967C103.525 87.6642 97.2819 81.8354 89.3345 77.4298L82.5468 89.6742ZM99.9167 120.032C99.9167 136.124 91.963 149.767 74.1965 161.098L81.7248 172.902C102.566 159.609 113.917 141.94 113.917 120.032H99.9167ZM77.9607 160H9.33267V174H77.9607V160ZM40.3407 80.292H62.9127V66.292H40.3407V80.292ZM66.5738 79.2583C75.4953 73.7837 79.9447 65.1975 79.9447 54.596H65.9447C65.9447 60.7145 63.7061 64.5923 59.2516 67.3257L66.5738 79.2583ZM79.9447 54.596C79.9447 44.2236 75.9453 35.5182 67.9036 29.2418L59.2898 40.2782C63.7121 43.7298 65.9447 48.2484 65.9447 54.596H79.9447ZM63.5967 27.76H40.3407V41.76H63.5967V27.76ZM33.3407 34.76V73.292H47.3407V34.76H33.3407ZM40.3407 147.552H63.8247V133.552H40.3407V147.552ZM67.9231 146.227C71.8722 143.375 74.9432 139.211 77.3817 134.334L64.8597 128.074C63.0421 131.709 61.2492 133.777 59.7262 134.877L67.9231 146.227ZM77.291 134.51C80.0416 129.375 81.5407 123.993 81.5407 118.436H67.5407C67.5407 121.391 66.7598 124.521 64.9503 127.898L77.291 134.51ZM81.5407 118.436C81.5407 113.144 80.3971 108.144 78.0108 103.57L65.5986 110.046C66.8603 112.464 67.5407 115.216 67.5407 118.436H81.5407ZM78.0108 103.57C75.7335 99.2053 72.6594 95.5547 68.6148 93.083L61.3145 105.029C62.742 105.901 64.2278 107.419 65.5986 110.046L78.0108 103.57ZM64.9647 92.056H40.3407V106.056H64.9647V92.056ZM33.3407 99.056V140.552H47.3407V99.056H33.3407Z" fill="#FF76B8" mask="url(#path-1-outside-1_92_2281)"/>
</g>
<defs>
<clipPath id="clip0_92_2281">
<rect width="116" height="174" fill="white"/>
</clipPath>
</defs>
</svg>
