<svg width="681" height="681" viewBox="0 0 681 681" fill="none" xmlns="http://www.w3.org/2000/svg">
<path d="M566.411 166.29C558.031 176.54 556.931 194.94 563.001 208.29C566.561 216.13 572.431 222.86 575.191 231.02C579.191 242.87 575.841 256.5 568.051 266.28C560.261 276.06 548.531 282.22 536.321 284.89C524.111 287.56 511.381 286.99 499.021 285.11C469.761 280.65 440.451 267.88 422.811 244.11C414.871 233.41 409.481 220.32 410.241 207.02C411.001 193.72 418.781 180.44 431.121 175.4C440.021 171.77 450.331 172.55 459.021 168.4C464.951 165.59 469.621 160.74 474.771 156.66C479.921 152.58 486.201 149.12 492.721 149.91C497.161 150.45 501.281 152.91 505.721 152.91C507.956 152.841 510.127 152.149 511.989 150.912C513.851 149.675 515.331 147.943 516.261 145.91C518.051 141.83 518.441 140.27 518.051 136.24C523.121 137.24 527.291 137.24 534.341 137.96C541.391 138.68 547.871 142.43 553.111 147.22C558.351 152.01 570.901 160.79 566.411 166.29Z" fill="#2B2C2B"/>
<path d="M562.181 162.05C553.901 172.74 551.821 186.34 554.091 199.49C555.271 206.31 558.091 212.49 561.681 218.42C565.491 224.77 570.011 231.02 570.771 238.61C572.241 253.19 563.031 266.12 550.771 273.09C536.491 281.23 519.421 281.76 503.481 279.75C475.481 276.21 446.101 264.67 428.401 241.75C419.511 230.22 413.261 214.75 417.401 200.18C419.043 194.039 422.534 188.551 427.401 184.46C433.161 179.82 440.401 178.96 447.491 177.78C456.341 176.3 463.641 173.46 470.691 167.83C476.801 162.96 483.971 154.6 492.691 156.05C496.831 156.74 500.551 158.74 504.831 158.9C508.424 159.012 511.967 158.04 515.001 156.11C521.551 151.99 524.581 143.72 524.001 136.26L516.461 142C526.841 143.92 537.351 142.6 546.281 149.25C549.481 151.64 552.531 154.46 555.501 157.13C557.124 158.487 558.627 159.982 559.991 161.6C560.531 162.174 560.973 162.833 561.301 163.55C561.581 164.43 561.561 162.77 561.251 163.23C556.951 169.66 567.331 175.66 571.591 169.23C578.411 159.03 564.671 149.3 558.081 143.57C552.881 139.04 547.421 135.11 540.731 133.1C534.041 131.09 526.601 131.69 519.651 130.41C516.131 129.76 511.761 132 512.071 136.19C512.301 139.19 512.071 142.54 509.811 144.93C507.041 147.93 503.351 146.6 499.991 145.56C491.991 143.07 484.661 143.56 477.231 147.74C470.001 151.74 464.741 158.58 457.451 162.47C450.161 166.36 441.371 166.06 433.531 168.23C419.531 172.11 409.371 183.72 405.711 197.6C401.711 212.87 406.121 229.15 414.341 242.25C430.731 268.4 460.221 283.47 489.731 289.47C519.871 295.59 559.471 294.29 576.731 264.07C581.095 256.58 583.202 247.989 582.801 239.33C582.221 230.28 578.381 222.68 573.721 215.09C569.391 208.04 565.781 201.09 565.251 192.71C564.771 185.2 565.901 176.6 570.661 170.47C572.661 167.89 573.121 164.47 570.661 162C568.601 160 564.161 159.5 562.181 162.05Z" fill="#2B2C2B"/>
<path d="M566.411 166.29C558.031 176.54 556.931 194.94 563.001 208.29C566.561 216.13 572.431 222.86 575.191 231.02C579.191 242.87 575.841 256.5 568.051 266.28C560.261 276.06 548.531 282.22 536.321 284.89C524.111 287.56 511.381 286.99 499.021 285.11C469.761 280.65 440.451 267.88 422.811 244.11C414.871 233.41 409.481 220.32 410.241 207.02C411.001 193.72 418.781 180.44 431.121 175.4C440.021 171.77 450.331 172.55 459.021 168.4C464.951 165.59 469.621 160.74 474.771 156.66C479.921 152.58 486.201 149.12 492.721 149.91C497.161 150.45 501.281 152.91 505.721 152.91C507.956 152.841 510.127 152.149 511.989 150.912C513.851 149.675 515.331 147.943 516.261 145.91C518.051 141.83 518.441 140.27 518.051 136.24C523.121 137.24 527.291 137.24 534.341 137.96C541.391 138.68 547.871 142.43 553.111 147.22C558.351 152.01 570.901 160.79 566.411 166.29Z" stroke="#FFC736" stroke-width="3.59" stroke-miterlimit="10"/>
<path d="M517.441 161.54C516.951 171.43 508.941 179.22 500.771 184.8C492.601 190.38 483.381 195.18 477.971 203.47C475.051 207.95 473.461 213.14 471.281 218.01C469.101 222.88 466.071 227.71 461.351 230.22C457.851 232.08 453.761 232.49 450.121 234.04C446.481 235.59 443.051 239.04 443.701 242.98C444.431 247.35 449.781 249.39 454.181 248.86C460.721 248.06 466.321 243.52 469.971 238.04C473.621 232.56 475.621 226.17 477.571 219.88C479.521 213.59 481.521 207.2 485.171 201.73C489.811 194.73 496.771 189.78 503.051 184.27C509.331 178.76 516.001 169.77 517.441 161.54Z" fill="white"/>
<path d="M515.951 161.54C514.271 180.54 491.491 186.07 480.261 198.16C474.261 204.63 472.511 213.01 468.341 220.54C465.691 225.32 462.271 228.61 457.011 230.32C453.491 231.47 449.751 232.05 446.701 234.32C442.621 237.32 440.291 242.94 444.151 247.12C448.011 251.3 454.491 251 459.291 249C476.081 242.22 476.891 221.6 483.651 207.45C488.321 197.68 496.911 191.87 504.651 184.78C511.291 178.71 516.971 170.78 518.881 161.89C519.281 160.01 516.401 159.21 515.991 161.09C512.301 178.3 496.251 185.36 486.071 197.94C476.241 210.1 476.921 227.37 467.071 239.39C464.419 242.816 460.81 245.377 456.701 246.75C452.611 247.94 443.951 247.26 445.251 240.81C446.711 233.53 459.761 233.66 464.801 229.64C469.841 225.62 472.341 219.28 474.801 213.41C477.969 205.1 483.627 197.971 491.001 193C502.651 184.89 517.531 177.36 518.931 161.49C519.111 159.62 516.111 159.63 515.951 161.54Z" fill="white"/>
<path d="M526.351 164.57C524.234 174.637 518.394 183.533 510.001 189.48C505.541 192.61 500.381 194.89 496.691 198.91C490.411 205.75 489.801 215.91 490.061 225.24C490.321 234.57 490.981 244.4 486.401 252.48C485.131 254.73 483.401 256.85 483.011 259.39C482.621 261.93 484.101 265.07 486.681 265.15C489.261 265.23 490.911 262.34 491.801 259.87C495.697 249.143 498.054 237.918 498.801 226.53C499.321 218.53 499.101 210.2 502.391 202.88C505.551 195.88 511.551 190.62 516.781 184.97C522.011 179.32 526.651 172.27 526.351 164.57Z" fill="white"/>
<path d="M524.91 164.18C523.079 172.701 518.514 180.391 511.91 186.08C506.1 190.99 498.48 193.61 493.91 199.94C484.12 213.53 491.59 231.13 487.35 246.11C485.82 251.5 478.87 258.11 482.41 263.94C484.95 268.16 489.64 266.74 491.92 263.12C496.03 256.59 497.46 246.92 498.74 239.44C500.16 231.14 500.12 222.8 501.03 214.44C502.36 202.31 509.32 195.14 517.25 186.62C523.02 180.42 527.75 173.28 527.81 164.56C527.81 164.162 527.652 163.781 527.371 163.499C527.09 163.218 526.708 163.06 526.31 163.06C525.913 163.06 525.531 163.218 525.25 163.499C524.969 163.781 524.81 164.162 524.81 164.56C524.7 180.69 507.86 188.19 501.43 201.38C498.52 207.38 497.94 213.95 497.59 220.48C497.278 228.657 496.274 236.792 494.59 244.8C493.797 248.313 492.85 251.783 491.75 255.21C491.23 256.84 490.82 259.14 489.8 260.53L489.3 261.59L484.47 261.23C483.82 260.17 485.47 257.02 486 255.9C488.84 249.97 491.07 245.21 491.53 238.48C492.53 224.27 487.9 206.78 501.2 196.89C507.31 192.34 513.81 189.28 518.79 183.3C523.203 178.001 526.291 171.728 527.8 165C528.22 163.1 525.34 162.29 524.91 164.18Z" fill="white"/>
<path d="M497.349 170.82C491.739 177.82 482.239 180.04 473.779 183.06C461.858 187.331 450.923 193.968 441.629 202.57C439.399 204.64 437.209 206.9 436.169 209.76C435.129 212.62 435.519 216.2 437.859 218.14C440.499 220.34 444.649 219.68 447.409 217.63C450.169 215.58 451.909 212.48 453.729 209.56C463.469 193.9 480.869 179.11 497.349 170.82Z" fill="white"/>
<path d="M496.29 169.76C490.7 176.25 482.59 178.4 474.8 181.12C467.687 183.562 460.876 186.81 454.5 190.8C447.56 195.19 427.62 207.54 435.8 218.12C438.8 222.05 444.44 221.5 448.16 218.92C453.48 215.23 456.31 207.92 460.25 202.92C470.534 190.085 483.438 179.591 498.1 172.14C499.82 171.26 498.3 168.68 496.59 169.55C485.703 175.168 475.727 182.4 467 191C462.592 195.3 458.576 199.985 455 205C451.9 209.38 445.4 223.13 438.88 216.27C429.88 206.78 460.52 190.45 467.34 187.36C477.79 182.62 490.54 181.09 498.34 171.97C499.66 170.43 497.55 168.3 496.29 169.76Z" fill="white"/>
<path d="M536.791 170.45C532.997 181.044 526.605 190.517 518.201 198C515.101 200.75 511.621 203.36 509.891 207.13C507.971 211.29 508.521 216.13 509.171 220.65C509.918 225.824 510.755 230.984 511.681 236.13C512.491 240.6 513.361 245.06 514.431 249.48C514.838 251.619 515.609 253.672 516.711 255.55C517.272 256.484 518.044 257.274 518.964 257.857C519.884 258.441 520.927 258.801 522.011 258.91C524.851 259.02 527.361 256.72 528.301 254.04C529.241 251.36 528.921 248.4 528.301 245.62C526.691 237.99 523.221 230.9 520.761 223.5C518.301 216.1 516.891 207.93 519.471 200.57C523.251 189.8 534.091 181.57 536.741 170.5" fill="white"/>
<path d="M535.351 170.05C532.689 177.329 528.792 184.095 523.831 190.05C519.701 194.96 513.951 198.54 510.191 203.71C506.431 208.88 506.881 215.01 507.731 221.01C508.921 229.39 510.311 237.77 512.121 246.01C513.171 250.8 514.121 257.23 519.121 259.58C523.461 261.58 527.891 258.88 529.561 254.72C531.941 248.82 528.931 241.24 526.921 235.72C524.181 228.16 520.691 220.72 519.841 212.67C518.001 195.24 534.001 186.29 538.241 170.85C538.334 170.471 538.276 170.071 538.078 169.734C537.881 169.398 537.561 169.151 537.185 169.047C536.809 168.943 536.407 168.99 536.064 169.177C535.722 169.364 535.466 169.677 535.351 170.05C531.751 183.28 518.411 191.66 516.841 205.72C516.021 213.09 518.061 220.38 520.561 227.24C522.001 231.19 523.641 235.06 524.971 239.05C526.371 243.24 529.151 250.42 526.421 254.53C522.501 260.42 518.261 256.05 516.771 252.18C516.011 249.914 515.423 247.594 515.011 245.24C514.111 241.11 513.341 236.96 512.621 232.79C511.101 224.05 507.091 211.79 513.521 204.32C518.081 198.99 523.871 195.02 528.181 189.32C532.431 183.678 535.821 177.437 538.241 170.8C538.911 168.99 536.021 168.21 535.351 170V170.05Z" fill="white"/>
<path d="M548.521 180C542.951 186.34 537.301 192.81 533.861 200.52C530.421 208.23 529.491 217.52 533.421 224.97C535.551 228.97 538.911 232.22 541.831 235.73C544.751 239.24 547.331 243.39 547.371 247.95C547.371 250.8 546.771 254.41 549.231 255.83C551.691 257.25 554.631 254.83 555.641 252.2C557.391 247.67 556.111 242.45 553.641 238.26C551.171 234.07 547.641 230.65 544.431 226.99C541.221 223.33 538.261 219.23 537.341 214.46C536.101 208.06 538.711 201.61 541.261 195.61C543.261 190.84 546.491 184.76 548.511 179.99" fill="white"/>
<path d="M547.461 178.92C537.711 190.03 526.601 203.55 529.911 219.46C531.621 227.68 537.841 232.35 542.411 238.9C545.411 243.22 545.411 246.82 545.841 251.78C546.011 253.78 546.471 255.78 548.331 256.99C553.261 260.08 557.331 253.59 557.831 249.48C558.671 242.84 555.001 236.84 550.911 231.97C544.291 224.09 536.631 217.47 539.121 206.13C541.121 197.18 546.181 189.06 549.821 180.73C550.581 178.98 548.001 177.45 547.231 179.22C542.581 189.87 533.461 202.65 535.901 214.84C537.031 220.48 540.731 225.06 544.451 229.25C546.985 231.869 549.325 234.67 551.451 237.63C553.771 241.16 556.981 248.04 553.801 251.89C553.134 254.557 551.467 254.517 548.801 251.77C548.801 251.103 548.801 250.457 548.801 249.83C548.531 248.76 548.801 247.33 548.701 246.22C548.282 243.524 547.297 240.948 545.811 238.66C542.141 232.66 535.971 228.42 533.581 221.66C528.091 206.15 540.061 191.83 549.581 181.03C550.851 179.59 548.741 177.46 547.461 178.91V178.92Z" fill="white"/>
<path d="M560.141 263.72C562.091 263.95 563.451 261.72 563.491 259.72C563.531 257.72 562.801 255.81 563.071 253.86C563.581 250.22 567.381 247.92 571.011 247.32C574.641 246.72 578.381 247.32 582.011 246.67C585.011 246.17 587.841 244.89 590.841 244.36C593.983 243.843 597.206 244.158 600.189 245.274C603.172 246.39 605.81 248.268 607.841 250.72C609.611 252.91 610.841 255.5 612.731 257.61C614.991 260.14 618.031 261.81 620.641 263.98C623.251 266.15 625.541 269.19 625.351 272.57C625.211 275.06 623.761 277.27 623.041 279.66C621.831 283.66 622.751 288.01 624.151 291.95C626.964 299.81 631.657 306.861 637.821 312.49C642.551 316.8 648.181 320.31 651.761 325.62C655.341 330.93 656.051 339.03 651.111 343.11C650.57 343.501 650.065 343.939 649.601 344.42C646.781 347.76 651.671 352.66 650.841 356.95C650.261 359.95 647.131 361.62 645.241 364.01C641.741 368.43 642.751 374.81 641.141 380.21C639.911 384.36 637.141 387.87 634.141 391.01C627.741 397.74 619.451 403.48 610.141 403.77C603.211 403.98 596.611 401.16 590.081 398.85C569.851 391.7 547.161 388.58 531.081 374.33C522.661 366.85 516.561 356.64 506.831 350.96C504.381 349.53 501.661 348.35 499.831 346.17C498.571 344.65 497.831 342.71 496.291 341.45C493.351 339.02 488.531 339.87 485.831 337.18C483.951 335.31 483.761 332.26 484.541 329.72C485.321 327.18 486.871 324.97 488.151 322.65C494.561 310.97 493.701 296.65 498.251 284.15C500.421 278.15 504.351 272.23 510.431 270.36C515.091 268.93 520.541 270.04 524.641 267.36C526.001 266.48 527.101 265.23 528.451 264.36C532.381 261.68 537.591 262.25 542.301 262.92C547.341 263.62 555.151 263 560.141 263.72Z" fill="#2B2C2B"/>
<path d="M560.141 269.71C563.831 269.25 566.651 267.87 568.331 264.35C569.122 262.674 569.499 260.832 569.431 258.98C569.431 256.85 568.321 255.32 570.061 253.86C572.641 251.69 579.631 253.05 582.801 252.55C587.171 251.87 591.341 249.55 595.801 250.28C599.801 250.97 602.291 253.34 604.541 256.5C606.962 260.166 609.973 263.406 613.451 266.09C617.201 268.89 620.121 270.41 618.271 275.25C616.585 279.382 616.107 283.907 616.891 288.3C618.361 296.72 623.031 304.75 628.381 311.3C633.731 317.85 641.791 321.8 646.511 328.65C648.021 330.84 649.441 334.59 648.171 337.22C646.751 340.17 643.681 341.16 642.891 344.8C642.101 348.44 644.071 350.95 644.461 354.34C644.681 356.21 644.901 355.49 643.741 356.95C642.431 358.6 640.741 359.81 639.561 361.63C634.871 369 637.411 378 631.511 385C626.511 390.87 619.571 396.71 611.671 397.71C602.921 398.82 593.821 393.71 585.671 391.11C577.851 388.64 569.901 386.57 562.101 384C554.461 381.48 546.981 378.44 540.271 373.93C533.351 369.27 528.271 362.69 522.661 356.63C520.09 353.803 517.283 351.201 514.271 348.85C511.271 346.58 507.151 345.16 504.621 342.48C502.091 339.8 500.841 336.81 497.151 335.1C495.45 334.482 493.717 333.955 491.961 333.52C490.161 332.9 490.071 333.22 490.341 331.34C490.651 329.17 492.731 326.89 493.731 324.96C494.845 322.786 495.807 320.537 496.611 318.23C498.147 313.473 499.281 308.596 500.001 303.65C501.431 295.38 502.221 283.71 509.131 277.88C512.441 275.09 516.821 275.61 520.851 274.95C523.026 274.658 525.133 273.981 527.071 272.95C529.071 271.8 530.701 269.7 532.871 268.82C536.871 267.21 542.371 269.1 546.521 269.27C551.061 269.45 555.611 269.27 560.141 269.76C567.781 270.66 567.721 258.67 560.141 257.76C555.611 257.23 551.071 257.45 546.521 257.27C541.971 257.09 537.381 256.01 532.731 256.67C530.154 256.984 527.675 257.846 525.461 259.2C523.721 260.29 522.411 262.06 520.461 262.83C516.161 264.56 511.181 263.54 506.771 265.41C487.191 273.76 491.211 300.3 484.471 316.58C481.191 324.49 473.781 333.4 481.611 341.43C484.611 344.5 488.371 343.95 491.771 345.79C493.491 346.72 494.291 348.95 495.611 350.42C497.273 352.154 499.197 353.619 501.311 354.76C509.511 359.53 515.031 366.25 521.391 373.15C527.67 380.005 535.22 385.578 543.621 389.56C552.421 393.72 561.731 396.56 571.041 399.25C580.351 401.94 589.691 405.73 599.161 408.25C603.906 409.615 608.887 409.957 613.774 409.253C618.661 408.55 623.343 406.817 627.511 404.17C635.161 399.38 643.121 391.97 646.291 383.33C647.841 379.1 647.521 374.61 648.731 370.33C649.941 366.05 654.591 364.03 656.121 359.75C657.381 356.21 656.691 352.1 655.121 348.75C654.471 347.33 655.371 346.65 654.421 347.98C654.956 347.449 655.524 346.951 656.121 346.49C657.664 344.835 658.834 342.867 659.551 340.72C662.381 332.42 658.601 323.72 652.841 317.72C645.841 310.44 637.671 305.63 632.611 296.51C629.611 291.15 627.131 285.17 629.481 279.16C631.411 274.23 631.861 269.57 629.061 264.83C626.061 259.72 620.581 257.7 616.831 253.4C613.081 249.1 611.251 244.78 606.371 241.75C595.911 235.25 585.671 240.54 574.591 241.06C569.451 241.3 564.291 242.31 560.591 246.15C558.726 248.055 557.523 250.509 557.161 253.15C557.03 254.145 557.007 255.15 557.091 256.15C557.171 256.923 557.271 257.697 557.391 258.47C557.337 260.27 558.244 260.053 560.111 257.82C552.601 258.68 552.501 270.67 560.141 269.71Z" fill="#2B2C2B"/>
<path d="M560.141 263.72C562.091 263.95 563.451 261.72 563.491 259.72C563.531 257.72 562.801 255.81 563.071 253.86C563.581 250.22 567.381 247.92 571.011 247.32C574.641 246.72 578.381 247.32 582.011 246.67C585.011 246.17 587.841 244.89 590.841 244.36C593.983 243.843 597.206 244.158 600.189 245.274C603.172 246.39 605.81 248.268 607.841 250.72C609.611 252.91 610.841 255.5 612.731 257.61C614.991 260.14 618.031 261.81 620.641 263.98C623.251 266.15 625.541 269.19 625.351 272.57C625.211 275.06 623.761 277.27 623.041 279.66C621.831 283.66 622.751 288.01 624.151 291.95C626.964 299.81 631.657 306.861 637.821 312.49C642.551 316.8 648.181 320.31 651.761 325.62C655.341 330.93 656.051 339.03 651.111 343.11C650.57 343.501 650.065 343.939 649.601 344.42C646.781 347.76 651.671 352.66 650.841 356.95C650.261 359.95 647.131 361.62 645.241 364.01C641.741 368.43 642.751 374.81 641.141 380.21C639.911 384.36 637.141 387.87 634.141 391.01C627.741 397.74 619.451 403.48 610.141 403.77C603.211 403.98 596.611 401.16 590.081 398.85C569.851 391.7 547.161 388.58 531.081 374.33C522.661 366.85 516.561 356.64 506.831 350.96C504.381 349.53 501.661 348.35 499.831 346.17C498.571 344.65 497.831 342.71 496.291 341.45C493.351 339.02 488.531 339.87 485.831 337.18C483.951 335.31 483.761 332.26 484.541 329.72C485.321 327.18 486.871 324.97 488.151 322.65C494.561 310.97 493.701 296.65 498.251 284.15C500.421 278.15 504.351 272.23 510.431 270.36C515.091 268.93 520.541 270.04 524.641 267.36C526.001 266.48 527.101 265.23 528.451 264.36C532.381 261.68 537.591 262.25 542.301 262.92C547.341 263.62 555.151 263 560.141 263.72Z" stroke="#FFC736" stroke-width="3.59" stroke-miterlimit="10"/>
<path d="M570.081 285.46C563.897 304.483 562.76 324.786 566.781 344.38C567.961 350.11 569.601 355.84 569.371 361.68C569.075 368.483 566.288 374.939 561.54 379.82C556.228 372.897 553.127 364.533 552.641 355.82C552.121 346.02 554.941 336.38 557.731 326.97L570.001 285.65" fill="white"/>
<path d="M568.63 285.06C563.774 300.156 562.002 316.075 563.42 331.87C564.94 348.05 573.23 364.98 560.49 378.76L562.84 379.06C552.57 365.19 552.95 349.57 557.38 333.56C561.81 317.55 566.74 301.87 571.43 286.04C571.98 284.19 569.09 283.4 568.54 285.24C563.34 302.78 557.28 320.31 553.1 338.13C549.58 353.13 550.89 367.92 560.25 380.56C560.369 380.754 560.529 380.918 560.72 381.042C560.911 381.165 561.127 381.244 561.353 381.273C561.578 381.302 561.807 381.279 562.023 381.208C562.239 381.137 562.436 381.018 562.6 380.86C567.204 376.046 570.075 369.836 570.76 363.21C571.47 355.47 568.86 347.94 567.55 340.41C564.487 322.162 565.859 303.446 571.55 285.84C572.13 284 569.24 283.21 568.66 285.04L568.63 285.06Z" fill="white"/>
<path d="M558.2 285.75C553.79 303.75 547.53 322.51 537.99 338.44C537.42 339.39 536.62 340.44 535.52 340.38C534.42 340.32 533.84 339.27 533.36 338.38C530.62 333.12 527.82 327.04 529.91 321.49C531 318.58 533.3 316.32 535.46 314.08C543.84 305.4 552.16 296.21 558.21 285.77" fill="white"/>
<path d="M556.761 285.36C554.478 294.852 551.64 304.201 548.261 313.36C546.431 318.23 544.401 323.02 542.111 327.7C541.084 329.807 540.004 331.887 538.871 333.94C537.421 336.56 536.361 339.4 533.871 336.18C530.471 331.73 529.611 324.18 532.611 319.54C535.151 315.54 539.261 312.31 542.431 308.86C548.853 302.031 554.55 294.554 559.431 286.55C559.614 286.208 559.657 285.807 559.552 285.434C559.446 285.06 559.199 284.742 558.864 284.546C558.528 284.35 558.13 284.293 557.753 284.385C557.375 284.477 557.048 284.712 556.841 285.04C550.051 296.49 540.841 305.4 532.171 315.31C528.991 318.93 527.171 322.82 527.761 327.71C528.221 331.47 530.211 338.11 533.121 340.71C535.241 342.63 537.301 341.71 538.881 339.71C542.601 334.82 545.161 328.38 547.591 322.78C552.601 310.938 556.615 298.699 559.591 286.19C560.051 284.32 557.171 283.52 556.701 285.39L556.761 285.36Z" fill="white"/>
<path d="M546.001 284.62C542.621 289.52 536.051 290.88 530.121 291.39C524.191 291.9 517.781 292.13 513.121 295.82C512.321 296.45 511.391 297.22 510.411 296.94C509.241 296.6 509.001 295.07 508.981 293.85C508.831 290.979 509.009 288.1 509.511 285.27C510.026 282.415 511.501 279.822 513.691 277.92C517.381 274.98 522.691 275.19 527.221 276.55C531.751 277.91 535.971 280.23 540.601 281.11C545.231 281.99 550.711 281.03 553.341 277.11C552.585 279.211 551.392 281.128 549.84 282.735C548.289 284.341 546.415 285.601 544.341 286.43" fill="white"/>
<path d="M544.941 283.56C539.451 290.56 530.111 289.4 522.221 290.71C518.941 291.25 516.571 292.71 513.551 293.71C512.665 294.83 511.635 294.887 510.461 293.88C510.461 292.727 510.461 291.577 510.461 290.43C510.581 287.54 510.841 284.59 512.271 282C517.941 271.74 530.701 280.22 538.471 282.19C544.161 283.64 550.541 283.08 554.391 278.19L551.891 276.73C551.133 278.612 550.009 280.326 548.585 281.771C547.16 283.216 545.463 284.365 543.591 285.15C541.841 285.94 543.361 288.52 545.101 287.74C547.308 286.761 549.298 285.355 550.958 283.603C552.618 281.85 553.914 279.786 554.771 277.53C555.331 276.17 553.171 274.93 552.271 276.07C544.381 286.07 530.541 273.93 520.841 274.13C511.501 274.33 507.751 282.03 507.461 290.41C507.381 292.74 506.851 297.51 510.001 298.41C511.471 298.82 512.721 297.82 513.861 297.14C516.208 295.609 518.809 294.509 521.541 293.89C530.391 292.11 540.821 293.7 547.061 285.72C548.231 284.22 546.131 282.08 544.941 283.6V283.56Z" fill="white"/>
<path d="M573.61 267.23C571.2 270.23 571.1 273.31 572.3 276.97C573.5 280.63 575.55 283.97 576.5 287.73C579.37 299.02 571.76 310.85 573.99 322.29C575.53 330.21 581.51 336.5 584.37 344.04C586.56 349.82 586.83 356.14 588.37 362.13C589.91 368.12 593.18 374.26 598.94 376.51C601.14 377.37 604.19 377.29 605.26 375.18C605.97 373.77 605.47 372.07 604.92 370.59C600.27 358.14 592.6 347.08 586.22 335.41C579.84 323.74 574.62 310.81 575.56 297.55C575.88 293.07 576.9 288.55 575.95 284.14C575.33 281.25 573.9 278.61 573.03 275.79C572.16 272.97 571.95 269.69 573.62 267.25" fill="white"/>
<path d="M572.321 266.48C567.751 273.09 571.901 279.18 574.321 285.79C577.561 294.69 573.761 303.59 572.521 312.48C571.521 319.9 572.981 326.18 576.601 332.67C578.771 336.56 581.341 340.27 582.931 344.45C584.521 348.63 585.081 353.17 585.931 357.58C587.131 364.13 589.071 371.17 594.471 375.58C597.471 378.05 604.101 380.63 606.591 375.96C607.991 373.33 606.401 370.11 605.401 367.69C603.732 363.67 601.846 359.745 599.751 355.93C595.301 347.73 590.201 339.93 585.921 331.6C581.001 322.13 577.001 311.76 576.941 301C576.941 295.87 578.291 290.74 577.681 285.63C576.991 279.87 571.821 273.8 574.901 268C575.801 266.3 573.221 264.78 572.311 266.49C569.211 272.31 572.401 277.12 574.031 282.83C576.321 290.83 573.281 299.75 574.501 308.05C576.691 322.94 584.691 336.05 592.171 348.76C594.171 352.15 596.171 355.55 597.961 359.03C598.801 360.63 599.621 362.24 600.401 363.88C601.281 365.73 603.591 369.01 603.401 371.01L602.321 373.28C601.968 375.947 600.634 376.407 598.321 374.66C597.561 374.248 596.849 373.752 596.201 373.18C594.722 371.941 593.475 370.447 592.521 368.77C590.655 365.3 589.413 361.529 588.851 357.63C587.581 350.83 586.521 344.35 583.171 338.2C579.251 331 574.571 324.68 575.051 316.04C575.491 308.32 578.621 300.96 578.561 293.18C578.478 289.563 577.672 286 576.191 282.7C574.111 277.7 571.341 273.03 574.821 268C575.921 266.41 573.321 264.91 572.231 266.49L572.321 266.48Z" fill="white"/>
<path d="M592.761 278.57C587.513 288.507 585.816 299.939 587.951 310.972C590.086 322.005 595.925 331.978 604.501 339.24C610.041 343.93 616.671 347.45 621.291 353.05C625.898 358.704 628.077 365.953 627.351 373.21C627.191 374.77 627.021 376.67 628.291 377.59C628.748 377.865 629.276 378.001 629.809 377.979C630.342 377.958 630.857 377.781 631.291 377.47C632.174 376.819 632.866 375.942 633.291 374.93C636.431 368.33 634.811 360.22 630.871 354.06C626.931 347.9 621.001 343.35 615.001 339.16C609.001 334.97 602.771 330.97 597.891 325.52C592.227 319.208 588.683 311.28 587.756 302.851C586.828 294.421 588.565 285.912 592.721 278.52" fill="white"/>
<path d="M591.461 277.81C585.94 288.273 584.235 300.333 586.638 311.917C589.041 323.501 595.403 333.886 604.631 341.29C611.381 346.73 619.331 350.9 623.321 358.99C625.253 362.932 626.174 367.293 626.001 371.68C625.911 374.03 625.161 377.11 627.421 378.78C632.251 382.35 635.551 374.28 636.151 370.92C639.081 354.51 623.981 343.58 612.291 335.46C603.291 329.2 595.151 322.28 591.291 311.65C589.443 306.367 588.729 300.754 589.196 295.176C589.663 289.599 591.3 284.182 594.001 279.28C594.911 277.58 592.321 276.07 591.411 277.77C588.171 283.661 586.362 290.232 586.131 296.951C585.9 303.671 587.253 310.35 590.081 316.45C596.611 330.33 610.171 336.45 621.361 345.84C627.841 351.28 633.491 358.59 633.451 367.45C633.451 370.39 633.451 372.79 630.601 373.77C627.751 374.75 628.941 373.23 628.981 370.91C629.035 367.422 628.459 363.953 627.281 360.67C622.511 347.39 608.561 342.67 599.951 332.57C587.301 317.69 585.321 296.57 594.061 279.32C594.931 277.6 592.351 276.09 591.471 277.81H591.461Z" fill="white"/>
<path d="M608.841 280.61C607.171 287.577 607.257 294.85 609.091 301.775C610.925 308.701 614.451 315.063 619.351 320.29C626.551 327.81 636.691 332.96 641.051 342.41C641.971 344.41 642.291 347.31 640.331 348.28C639.691 348.517 638.993 348.548 638.335 348.368C637.677 348.189 637.092 347.808 636.661 347.28C635.811 346.216 635.176 344.996 634.791 343.69C631.291 334.39 618.531 322.08 611.521 315.03C611.521 315.03 601.041 295.78 606.321 285.48L608.841 280.61Z" fill="white"/>
<path d="M607.401 280.22C605.816 286.943 605.791 293.94 607.329 300.674C608.866 307.408 611.925 313.701 616.271 319.07C621.091 324.92 627.551 328.97 632.981 334.18C634.677 335.755 636.214 337.494 637.571 339.37C638.131 340.17 638.645 341.001 639.111 341.86C640.584 343.34 640.414 344.28 638.601 344.68C636.061 346.15 636.601 343.87 635.671 341.94C634.975 340.431 634.183 338.968 633.301 337.56C629.591 331.67 624.761 326.46 619.951 321.46C616.811 318.2 613.261 315.46 611.361 311.34C608.901 306 606.761 300.12 606.361 294.21C606.061 289.34 607.941 285.62 610.111 281.39C610.991 279.68 608.411 278.16 607.521 279.88C605.971 282.88 604.141 285.88 603.581 289.23C602.761 294.14 603.851 299.33 605.301 304.01C606.367 307.838 607.874 311.529 609.791 315.01C611.861 318.45 615.521 321.18 618.301 324.08C623.181 329.17 628.211 334.52 631.671 340.71C633.471 343.94 634.861 351.01 640.061 349.83C644.271 348.83 643.421 343.9 641.991 340.98C639.101 335.06 633.821 330.75 628.821 326.67C622.351 321.38 616.501 315.93 612.941 308.19C609.077 299.669 608.145 290.107 610.291 281C610.721 279.14 607.831 278.34 607.401 280.22Z" fill="white"/>
<path d="M555.721 275.66C554.331 279.46 549.331 283.11 546.171 285.33C540.721 289.17 535.281 286.64 529.321 285.04C518.001 282 506.001 286 503.381 298.58C502.611 302.34 508.381 303.95 509.161 300.17C510.981 291.29 518.801 288.56 526.921 290.58C532.331 291.93 538.611 294.83 544.281 293.14C550.761 291.21 559.181 283.6 561.511 277.24C562.841 273.61 557.051 272.05 555.731 275.65L555.721 275.66Z" fill="#2B2C2B"/>
<path d="M622.241 610.31C623.801 602.69 621.861 594.63 618.011 587.87C611.271 576.03 599.391 568.23 588.201 560.46C550.778 534.468 516.593 504.099 486.371 470C481.371 464.33 476.441 458.57 471.451 452.88C466.701 447.47 461.881 442.13 457.051 436.8C446.831 425.49 437.771 414.62 427.551 403.31C432.53 396.601 437.086 389.587 441.191 382.31C456.758 354.457 465.949 323.496 468.101 291.66C470.101 262.36 466.391 232.77 458.151 204.58C440.481 144.23 398.771 88.0001 339.531 66.7401C284.251 40.6401 223.341 43.1501 166.531 65.6101C109.721 88.0701 62.8711 135 40.7711 192C18.6711 249 21.6311 315.24 48.9111 370C60.688 393.581 76.6078 414.852 95.9111 432.8C148.541 481.71 225.751 502.17 296.031 487.23C329.834 479.965 361.509 465.012 388.601 443.53L388.141 444C401.641 453.41 414.321 463.91 427.001 474.41L435.611 481.54C446.911 490.89 458.211 500.25 469.041 510.15C491.491 530.66 511.811 553.38 531.661 576.42C547.321 594.6 563.391 613.52 584.991 623.96C592.121 627.41 600.371 629.86 607.901 627.42C615.431 624.98 620.681 617.93 622.241 610.31Z" fill="#2B2C2B"/>
<path d="M628.67 612.08C631.85 593.51 621.67 577.69 607.67 566.42C593.16 554.73 577.26 544.85 562.67 533.23C532.07 508.84 504.92 481.23 479.28 451.76C463.76 433.92 448.087 416.207 432.26 398.62C429.88 395.98 425.26 396.13 422.83 398.62L433.3 406.7C490.17 329.37 486.83 219.7 436.37 140C414.72 105.79 384.08 77.2201 346.18 62.1401C335.05 57.7101 324.18 52.8001 312.69 49.4301C301.099 46.0898 289.237 43.7709 277.24 42.5001C253.56 39.9001 229.5 41.6201 206.24 46.5701C163.05 55.7601 122.87 76.0001 90.7603 106.36C59.9303 135.52 37.1103 173.24 26.5903 214.42C15.1103 259.34 17.4203 308 33.7003 351.42C49.6972 394.076 78.2406 430.886 115.57 457C188.57 507.8 288.06 512.13 364.94 467.54C374.836 461.743 384.31 455.253 393.29 448.12L383.86 438.69L383.4 439.16C380.21 442.44 381.24 447.16 384.75 449.63C403.41 462.72 420.75 477.63 438.23 492.23C455.722 506.61 472.414 521.936 488.23 538.14C503.5 553.97 517.84 570.62 532.23 587.22C545.05 601.98 558.68 616.69 575.79 626.54C585.33 632.03 596.79 636.87 607.97 634.17C618.58 631.61 626.16 622.4 628.61 612.05C630.61 603.71 617.74 600.15 615.76 608.51C613.71 617.18 607.16 622.81 597.99 621.35C589.19 619.95 580.77 614.42 573.69 609.28C558.89 598.54 547 584 535.13 570.21C508.02 538.8 479.58 509.41 447.66 482.85C429.28 467.56 411.07 451.91 391.48 438.16L392.83 448.63L393.29 448.16C399.43 441.84 390.44 433.56 383.86 438.73C349.78 465.55 307.64 482.05 264.33 484.82C223.986 487.4 183.689 479.087 147.66 460.75C110.017 441.41 79.0215 411.25 58.6603 374.15C37.6603 335.85 29.4503 291.26 34.0203 247.9C42.5803 166.52 100.19 96.1701 176.83 68.8301C219.83 53.4901 266.77 49.5201 310.83 62.8301C321.75 66.1001 332 70.8001 342.61 75.0001C351.41 78.5647 359.854 82.9508 367.83 88.1001C383.67 98.3832 397.801 111.084 409.71 125.74C464.71 192.33 479 293.74 439.59 371.24C434.445 381.297 428.485 390.916 421.77 400C417.24 406.16 427.07 413.42 432.24 408.08H422.83C448.83 436.96 473.44 467.33 500.62 495.15C526.387 521.451 554.582 545.257 584.83 566.25C598.52 575.77 619.18 588.92 615.83 608.57C614.38 616.93 627.22 620.53 628.67 612.08Z" fill="#2B2C2B"/>
<path d="M403.74 181.63C392.8 157.89 365.41 136.74 343.66 122.23C332.017 114.465 319.526 108.053 306.43 103.12C242.52 79.07 165.52 94.53 115.86 141.39C66.2 188.25 46.29 264.23 66.59 329.39C72.24 347.623 80.7602 364.839 91.83 380.39C117.63 416.49 157.42 442.07 200.76 451.58C244.1 461.09 290.57 454.67 330.19 434.7C376.45 411.39 413.82 368.05 423.28 317.13C432 270.49 423.59 224.71 403.74 181.63Z" fill="#F04B24"/>
<path d="M403.74 181.63C392.8 157.89 365.41 136.74 343.66 122.23C332.017 114.465 319.526 108.053 306.43 103.12C242.52 79.07 165.52 94.53 115.86 141.39C66.2 188.25 46.29 264.23 66.59 329.39C72.24 347.623 80.7602 364.839 91.83 380.39C117.63 416.49 157.42 442.07 200.76 451.58C244.1 461.09 290.57 454.67 330.19 434.7C376.45 411.39 413.82 368.05 423.28 317.13C432 270.49 423.59 224.71 403.74 181.63Z" stroke="#2B2C2B" stroke-width="17.33" stroke-miterlimit="10"/>
<path d="M403.74 181.63C392.8 157.89 365.41 136.74 343.66 122.23C332.017 114.465 319.526 108.053 306.43 103.12C242.52 79.07 165.52 94.53 115.86 141.39C66.2 188.25 46.29 264.23 66.59 329.39C72.24 347.623 80.7602 364.839 91.83 380.39C117.63 416.49 157.42 442.07 200.76 451.58C244.1 461.09 290.57 454.67 330.19 434.7C376.45 411.39 413.82 368.05 423.28 317.13C432 270.49 423.59 224.71 403.74 181.63Z" stroke="white" stroke-width="4.67" stroke-miterlimit="10"/>
<path d="M237 134.9C232 130.57 224.11 133.65 219.11 137.99C214.11 142.33 209.58 147.99 203.06 149.14C199.27 149.78 195.42 148.72 191.6 148.27C187.78 147.82 183.46 148.16 180.8 150.94C176.39 155.55 178.8 164.32 173.88 168.39C170.88 170.86 166.59 170.39 162.73 170.57C158.87 170.75 154.23 172.46 153.73 176.3C153.36 179.35 155.89 181.9 157.03 184.76C159.6 191.18 154.97 198.13 150.03 203.01C145.09 207.89 139.32 213.01 138.9 219.91C138.62 224.64 141.1 229.2 144.5 232.5C147.9 235.8 152.16 238.05 156.35 240.26C164.46 244.52 173.23 248.92 182.35 247.74C188.77 246.91 194.88 243.31 201.35 244.1C206.35 244.71 211.06 247.99 216.08 247.36C219.62 246.91 222.6 244.59 225.38 242.36L240.48 230.22C244.645 227.049 248.554 223.555 252.17 219.77C257.788 213.593 261.772 206.109 263.76 198C264.97 193 265.14 187 261.46 183.4C257.96 179.96 251.71 179.4 249.71 174.95C247.71 170.5 251.31 165.77 251.5 160.95C251.65 157.1 249.59 153.55 247.61 150.25L238.61 135.34" fill="white"/>
<path d="M237 134.9C232 130.57 224.11 133.65 219.11 137.99C214.11 142.33 209.58 147.99 203.06 149.14C199.27 149.78 195.42 148.72 191.6 148.27C187.78 147.82 183.46 148.16 180.8 150.94C176.39 155.55 178.8 164.32 173.88 168.39C170.88 170.86 166.59 170.39 162.73 170.57C158.87 170.75 154.23 172.46 153.73 176.3C153.36 179.35 155.89 181.9 157.03 184.76C159.6 191.18 154.97 198.13 150.03 203.01C145.09 207.89 139.32 213.01 138.9 219.91C138.62 224.64 141.1 229.2 144.5 232.5C147.9 235.8 152.16 238.05 156.35 240.26C164.46 244.52 173.23 248.92 182.35 247.74C188.77 246.91 194.88 243.31 201.35 244.1C206.35 244.71 211.06 247.99 216.08 247.36C219.62 246.91 222.6 244.59 225.38 242.36L240.48 230.22C244.645 227.049 248.554 223.555 252.17 219.77C257.788 213.593 261.772 206.109 263.76 198C264.97 193 265.14 187 261.46 183.4C257.96 179.96 251.71 179.4 249.71 174.95C247.71 170.5 251.31 165.77 251.5 160.95C251.65 157.1 249.59 153.55 247.61 150.25L238.61 135.34" stroke="white" stroke-width="8.66" stroke-miterlimit="10"/>
<path d="M237 134.9C232 130.57 224.11 133.65 219.11 137.99C214.11 142.33 209.58 147.99 203.06 149.14C199.27 149.78 195.42 148.72 191.6 148.27C187.78 147.82 183.46 148.16 180.8 150.94C176.39 155.55 178.8 164.32 173.88 168.39C170.88 170.86 166.59 170.39 162.73 170.57C158.87 170.75 154.23 172.46 153.73 176.3C153.36 179.35 155.89 181.9 157.03 184.76C159.6 191.18 154.97 198.13 150.03 203.01C145.09 207.89 139.32 213.01 138.9 219.91C138.62 224.64 141.1 229.2 144.5 232.5C147.9 235.8 152.16 238.05 156.35 240.26C164.46 244.52 173.23 248.92 182.35 247.74C188.77 246.91 194.88 243.31 201.35 244.1C206.35 244.71 211.06 247.99 216.08 247.36C219.62 246.91 222.6 244.59 225.38 242.36L240.48 230.22C244.645 227.049 248.554 223.555 252.17 219.77C257.788 213.593 261.772 206.109 263.76 198C264.97 193 265.14 187 261.46 183.4C257.96 179.96 251.71 179.4 249.71 174.95C247.71 170.5 251.31 165.77 251.5 160.95C251.65 157.1 249.59 153.55 247.61 150.25L238.61 135.34" stroke="#2B2C2B" stroke-width="4.67" stroke-miterlimit="10"/>
<path d="M253.321 316.9C244.321 315.3 236.081 311 227.881 306.96C219.681 302.92 211.161 299.03 202.041 298.34C192.921 297.65 183.041 300.8 177.861 308.34C173.231 315.14 172.681 324.9 165.921 329.6C163.421 331.34 160.381 332.11 157.691 333.55C155.001 334.99 152.511 337.55 152.621 340.55C152.721 343.18 154.761 345.36 157.001 346.75C159.241 348.14 161.781 349 163.931 350.53C173.981 357.64 171.241 375.08 181.151 382.38C188.221 387.58 198.391 385.12 206.481 388.52C214.221 391.78 219.671 400.25 228.041 400.96C232.851 401.37 237.421 399.02 241.681 396.74L265.561 384C271.991 380.56 278.561 377 283.501 371.69C293.001 361.48 294.951 345 288.091 332.86C281.231 320.72 266.091 313.86 252.471 316.72" fill="white"/>
<path d="M253.321 316.9C244.321 315.3 236.081 311 227.881 306.96C219.681 302.92 211.161 299.03 202.041 298.34C192.921 297.65 183.041 300.8 177.861 308.34C173.231 315.14 172.681 324.9 165.921 329.6C163.421 331.34 160.381 332.11 157.691 333.55C155.001 334.99 152.511 337.55 152.621 340.55C152.721 343.18 154.761 345.36 157.001 346.75C159.241 348.14 161.781 349 163.931 350.53C173.981 357.64 171.241 375.08 181.151 382.38C188.221 387.58 198.391 385.12 206.481 388.52C214.221 391.78 219.671 400.25 228.041 400.96C232.851 401.37 237.421 399.02 241.681 396.74L265.561 384C271.991 380.56 278.561 377 283.501 371.69C293.001 361.48 294.951 345 288.091 332.86C281.231 320.72 266.091 313.86 252.471 316.72" stroke="white" stroke-width="8.66" stroke-miterlimit="10"/>
<path d="M253.321 316.9C244.321 315.3 236.081 311 227.881 306.96C219.681 302.92 211.161 299.03 202.041 298.34C192.921 297.65 183.041 300.8 177.861 308.34C173.231 315.14 172.681 324.9 165.921 329.6C163.421 331.34 160.381 332.11 157.691 333.55C155.001 334.99 152.511 337.55 152.621 340.55C152.721 343.18 154.761 345.36 157.001 346.75C159.241 348.14 161.781 349 163.931 350.53C173.981 357.64 171.241 375.08 181.151 382.38C188.221 387.58 198.391 385.12 206.481 388.52C214.221 391.78 219.671 400.25 228.041 400.96C232.851 401.37 237.421 399.02 241.681 396.74L265.561 384C271.991 380.56 278.561 377 283.501 371.69C293.001 361.48 294.951 345 288.091 332.86C281.231 320.72 266.091 313.86 252.471 316.72" stroke="#2B2C2B" stroke-width="4.67" stroke-miterlimit="10"/>
<path d="M393.361 204.59C387.611 200.09 378.551 195.76 371.291 195.11C364.031 194.46 356.731 195.68 349.541 196.9L325.541 200.96C317.081 202.39 307.791 204.31 302.541 211.13C297.771 217.38 297.841 225.94 295.541 233.47C292.341 244.08 284.541 252.54 277.941 261.47C271.341 270.4 265.621 281.18 267.641 292.08C267.964 293.942 268.571 295.743 269.441 297.42C272.681 303.5 279.521 306.57 285.881 309.22C294.411 312.78 303.951 316.38 312.641 313.22C318.481 311.09 322.951 306.22 328.711 303.84C339.461 299.47 352.531 304.77 362.951 299.66C370.101 296.15 374.191 288.59 377.821 281.49L395.061 247.78C398.731 240.6 402.471 233.19 403.061 225.15C403.651 217.11 399.701 209.55 393.361 204.59Z" fill="white"/>
<path d="M393.361 204.59C387.611 200.09 378.551 195.76 371.291 195.11C364.031 194.46 356.731 195.68 349.541 196.9L325.541 200.96C317.081 202.39 307.791 204.31 302.541 211.13C297.771 217.38 297.841 225.94 295.541 233.47C292.341 244.08 284.541 252.54 277.941 261.47C271.341 270.4 265.621 281.18 267.641 292.08C267.964 293.942 268.571 295.743 269.441 297.42C272.681 303.5 279.521 306.57 285.881 309.22C294.411 312.78 303.951 316.38 312.641 313.22C318.481 311.09 322.951 306.22 328.711 303.84C339.461 299.47 352.531 304.77 362.951 299.66C370.101 296.15 374.191 288.59 377.821 281.49L395.061 247.78C398.731 240.6 402.471 233.19 403.061 225.15C403.651 217.11 399.701 209.55 393.361 204.59Z" stroke="white" stroke-width="8.66" stroke-miterlimit="10"/>
<path d="M393.361 204.59C387.611 200.09 378.551 195.76 371.291 195.11C364.031 194.46 356.731 195.68 349.541 196.9L325.541 200.96C317.081 202.39 307.791 204.31 302.541 211.13C297.771 217.38 297.841 225.94 295.541 233.47C292.341 244.08 284.541 252.54 277.941 261.47C271.341 270.4 265.621 281.18 267.641 292.08C267.964 293.942 268.571 295.743 269.441 297.42C272.681 303.5 279.521 306.57 285.881 309.22C294.411 312.78 303.951 316.38 312.641 313.22C318.481 311.09 322.951 306.22 328.711 303.84C339.461 299.47 352.531 304.77 362.951 299.66C370.101 296.15 374.191 288.59 377.821 281.49L395.061 247.78C398.731 240.6 402.471 233.19 403.061 225.15C403.651 217.11 399.701 209.55 393.361 204.59Z" stroke="#2B2C2B" stroke-width="4.67" stroke-miterlimit="10"/>
<path d="M232.95 180C221.85 168.85 203.14 162.89 188.95 169.71C174.76 176.53 166.84 194.06 170.75 209.3C174.66 224.54 189.75 236.01 205.51 236.02C221.27 236.03 236.23 224.79 240.97 209.79C244.31 199.28 240.73 187.82 232.95 180Z" fill="#FFC837"/>
<path d="M234.13 178.83C223.2 168.23 206.13 161.65 191.13 167.01C177.44 171.92 168.48 186.14 168.13 200.41C167.74 215.41 177.67 228.9 191.25 234.68C205.82 240.88 222.48 236.68 233.39 225.48C246.39 212.04 247.14 192.53 234.13 178.83C232.65 177.27 230.3 179.63 231.77 181.19C242.91 192.92 243 209.37 232.47 221.55C223.76 231.63 209.85 236.78 196.83 233.14C183.81 229.5 172.62 217.76 171.54 203.86C170.54 191.19 177.23 177.86 188.54 171.79C202.87 164.15 220.81 170.58 231.74 181.19C233.31 182.68 235.67 180.32 234.13 178.83Z" fill="#FFC837"/>
<path d="M366 233.93C356.92 226.59 345.72 221.39 334 221.26C322.28 221.13 310.29 226.65 304.33 236.69C300.71 243.02 299.375 250.403 300.55 257.6C301.334 262.748 303.243 267.66 306.141 271.987C309.039 276.313 312.854 279.948 317.317 282.632C321.779 285.317 326.777 286.985 331.957 287.518C337.137 288.051 342.371 287.437 347.287 285.717C352.202 283.998 356.678 281.217 360.397 277.571C364.115 273.926 366.985 269.506 368.801 264.625C370.617 259.745 371.335 254.524 370.905 249.335C370.475 244.145 368.906 239.114 366.31 234.6" fill="#FFC837"/>
<path d="M367.21 232.75C354.76 222.93 338.64 216.52 322.78 221.15C307.94 225.49 297.78 238.59 298.61 254.28C299.4 268.53 309 281.5 322.22 286.77C335.44 292.04 350.99 288.61 361.22 279.04C373.57 267.49 375.76 248.35 367.81 233.74C366.81 231.86 363.91 233.54 364.93 235.42C373.12 250.48 369.22 270.24 354.72 279.94C347.988 284.515 339.83 286.507 331.747 285.55C323.664 284.593 316.197 280.751 310.72 274.73C298.47 261.24 298.67 238.81 314.78 228.38C330.89 217.95 350.78 224 364.85 235.08C366.52 236.39 368.85 234.08 367.21 232.72V232.75Z" fill="#FFC837"/>
<path d="M243.821 328.8C236.701 321.25 227.441 317.17 217.151 315.8C206.861 314.43 195.881 317.8 188.641 325.19C181.401 332.58 178.381 344.19 181.871 353.93C184.121 360.22 188.741 365.42 193.941 369.61C205.201 378.7 221.001 383.71 234.401 378.24C239.006 376.306 243.067 373.273 246.229 369.406C249.391 365.54 251.558 360.957 252.541 356.06C254.401 346.32 250.651 336 243.821 328.8Z" fill="#FFC837"/>
<path d="M245 327.62C234.54 317 218.28 311.34 203.55 315C189.1 318.61 178.04 331.51 178.77 346.75C179.48 361.6 192.68 373.09 205.52 378.53C219.4 384.41 235.94 383.42 246.47 371.68C258.19 358.62 256.35 340.21 244.99 327.6C243.55 326 241.2 328.37 242.63 329.96C254.94 343.61 253.99 365.09 237.36 374.96C222.36 383.81 203.21 376.62 191.62 365.43C185.01 359.04 180.91 350.73 182.38 341.36C183.028 337.357 184.54 333.544 186.811 330.185C189.082 326.826 192.057 324.002 195.53 321.91C210.62 312.77 230.81 317.91 242.63 330.01C244.14 331.51 246.5 329.16 245 327.62Z" fill="#FFC837"/>
<path d="M460 431.13L442.28 451.13L426.4 469.05C424.619 470.86 423.134 472.939 422 475.21C421.441 476.351 421.156 477.607 421.166 478.877C421.177 480.148 421.483 481.398 422.06 482.53C423.98 485.77 428.59 486.53 432.06 485.15C435.53 483.77 438.24 480.92 440.77 478.15L468.03 448.15C469.76 446.25 471.57 444.15 471.84 441.6C471.893 440.269 471.624 438.946 471.057 437.741C470.489 436.536 469.639 435.486 468.58 434.68C466.459 433.096 464.095 431.867 461.58 431.04" fill="white"/>
<path d="M458.831 430C447.311 443 435.361 455.73 424.221 469.07C421.011 472.91 417.631 478.42 420.631 483.42C422.921 487.24 427.931 488.18 431.951 486.99C438.381 485.08 442.951 478.36 447.191 473.65L464.711 454.36C468.181 450.54 474.291 445.75 473.491 439.88C472.691 434.01 466.881 431.37 462.021 429.47C460.021 428.69 459.161 431.91 461.131 432.68C464.031 433.82 467.791 435.12 469.211 438.15C471.011 442 468.801 444.89 466.211 447.72C462.551 451.78 458.861 455.82 455.211 459.86L444.211 472C440.691 475.87 436.721 481.72 431.621 483.52C427.881 484.84 423.721 483.85 423.331 479.44C422.981 475.44 425.101 473.18 427.611 470.28C431.301 466 435.111 461.81 438.861 457.58L461.211 432.36C462.631 430.76 460.281 428.36 458.851 430H458.831Z" fill="#2B2C2B"/>
<path d="M165.521 272.09C185.401 268.53 206.621 270.86 225.141 262.82C228.451 261.38 232.871 259.82 235.141 262.62C235.519 263.194 235.941 263.739 236.401 264.25C237.401 265.1 238.771 265.09 240.051 265.04L250.601 264.61C250.475 265.738 249.961 266.787 249.148 267.579C248.335 268.371 247.272 268.855 246.141 268.95C244.471 269.04 242.771 268.25 241.141 268.67C237.481 269.67 237.831 274.97 235.811 278.18C233.961 281.1 230.191 282 226.811 282.62C220.097 283.833 213.357 284.907 206.591 285.84C201.82 286.654 196.973 286.929 192.141 286.66C186.491 286.16 181.061 284.28 175.691 282.41L162.001 277.64C161.311 277.4 160.521 277.06 160.331 276.35C160.291 276.02 160.334 275.686 160.457 275.376C160.579 275.067 160.776 274.794 161.031 274.58C162.04 273.511 163.34 272.76 164.771 272.42" fill="#6ABD45"/>
<path d="M393.551 307.18C391.881 308.52 388.551 310.3 388.141 312.7C388.086 313.43 388.246 314.16 388.601 314.8C388.711 315.07 389.231 315.27 389.301 315.51C389.471 316.13 388.841 317.15 388.521 317.86C387.781 319.53 386.341 321.56 387.901 323.2C389.461 324.574 391.493 325.291 393.571 325.2C394.371 325.155 395.143 324.894 395.807 324.445C396.471 323.996 397.001 323.376 397.341 322.65C397.66 321.783 397.726 320.843 397.531 319.94C397.261 318.36 396.651 317.79 397.761 316.62C399.131 315.17 400.591 314.38 400.021 311.97C399.541 309.9 397.761 308.97 395.801 308.84C393.661 308.68 393.671 312.02 395.801 312.17V313.87L395.221 314.18C395.011 314.45 394.671 314.64 394.451 314.92C393.992 315.532 393.728 316.267 393.691 317.03C393.611 317.89 394.101 318.78 394.031 319.58C394.317 320.147 394.074 320.583 393.301 320.89C392.961 321.803 392.467 322.017 391.821 321.53C391.471 321.409 391.136 321.252 390.821 321.06C390.247 320.887 390.294 320.733 390.961 320.6C391.201 318.54 393.611 316.76 392.811 314.49C392.521 313.66 391.811 313.44 391.951 312.78C392.221 311.78 395.191 310.12 395.951 309.5C397.621 308.16 395.251 305.81 393.591 307.14L393.551 307.18Z" fill="#2B2C2B"/>
<path d="M104 313.78C103.93 311.78 103 308.29 103.78 306.55C104.36 305.2 104.56 307.74 104.59 308.38C104.62 309.02 104.19 309.71 104.29 310.38C104.67 313.07 107.54 313.3 109.16 314.9C112.8 318.5 110.16 329.21 109.16 333.62C107.805 338.994 106.136 344.283 104.16 349.46C103.443 351.725 102.473 353.902 101.27 355.95C100.741 356.861 100.065 357.679 99.2696 358.37L94.4696 357.37C93.8296 356.74 93.9596 354.28 93.9096 353.37C93.6696 349.14 94.4896 344.94 92.6396 340.94C90.4396 336.2 87.0296 333.76 87.8296 327.94C88.5796 322.49 91.6696 311.83 99.1296 314.71C101.13 315.48 102 312.26 100.02 311.5C94.2996 309.29 89.4596 313.3 87.1396 318.35C84.1396 324.89 82.8496 332.35 87.1396 338.55C90.2596 343.08 90.5996 346.4 90.6196 351.8C90.6196 354.51 90.6196 357.6 92.0096 360.04C95.0896 365.6 101.01 362.22 103.79 358.18C108.48 351.42 110.89 341.44 112.66 333.54C113.91 327.96 116.24 318.03 112.75 312.99C111.91 311.78 111.3 311.76 110.17 310.99C109.594 310.942 109.06 310.667 108.685 310.227C108.311 309.787 108.125 309.217 108.17 308.64C108.428 308.179 108.582 307.667 108.62 307.14C108.19 305.06 108.14 303.99 105.92 302.99C98.7396 299.74 100.7 309.89 100.83 313.69C100.9 315.83 104.24 315.84 104.16 313.69L104 313.78Z" fill="#6ABD45"/>
<path d="M357.25 160.22C356.382 159.601 355.312 159.332 354.254 159.47C353.197 159.607 352.23 160.14 351.55 160.96C350.3 162.36 350.34 164.29 349.13 165.65C347.92 167.01 346.33 167.03 345.03 168.09C340.42 171.85 342.25 179.96 348.43 180.72C351.33 181.08 352.16 179.14 354.14 177.62C357.04 175.39 360.7 177.82 363.68 175.62C364.731 174.785 365.52 173.665 365.953 172.394C366.386 171.122 366.443 169.753 366.12 168.45C365.749 167.063 365.065 165.78 364.12 164.7C362.86 163.19 360.22 161.95 359.37 160.23C358.37 158.31 355.54 159.99 356.49 161.91C358.16 165.29 363.49 166.24 362.69 170.74C362.06 174.34 355.69 172.18 352.96 174.12C351.46 175.18 351.3 176.33 349.28 176.65C348.026 177.437 347.176 177.124 346.73 175.71C345.136 174.344 345.21 172.694 346.95 170.76C347.8 169.93 349.39 169.85 350.41 169.28C351.136 168.942 351.778 168.447 352.29 167.83C352.9 166.97 353.63 161.75 355.58 163.05C357.37 164.25 359.04 161.36 357.26 160.17L357.25 160.22Z" fill="#6ABD45"/>
<path d="M266.8 144.27C266.051 150.005 266.342 155.828 267.66 161.46C268.5 165.04 269.87 168.69 272.66 171.07C275.84 173.78 280.26 174.38 284.41 174.87C285.654 175.237 286.988 175.161 288.183 174.654C289.378 174.147 290.359 173.241 290.96 172.09C293.25 169.09 295.68 165.52 294.69 161.89C293.92 159.06 291.26 157.17 288.57 156C285.88 154.83 282.96 154.14 280.57 152.51C275.63 149.2 273.75 142.68 274.11 136.74C274.24 135.883 274.175 135.008 273.92 134.18C273.778 133.772 273.49 133.43 273.111 133.222C272.733 133.013 272.291 132.952 271.87 133.05C271.463 133.234 271.117 133.529 270.87 133.9C268.845 136.535 267.4 139.568 266.63 142.8" fill="#6ABD45"/>
<path d="M293.641 171.14C296.255 172.161 298.992 172.833 301.781 173.14C303.911 173.38 303.891 170.05 301.781 169.81C299.294 169.511 296.857 168.889 294.531 167.96C292.531 167.18 291.671 170.4 293.641 171.17V171.14Z" fill="white"/>
<path d="M330.42 349.32C325.65 351.02 325.34 355.39 326.63 359.79C328.21 365.18 330.37 370.93 334.11 375.21C340.24 382.21 354.25 384.88 361.42 378.05C367.42 372.34 376.61 360.16 368.08 352.67C357.81 343.67 342.75 358.23 333.42 348.77C331.91 347.24 329.55 349.6 331.06 351.13C335.31 355.44 341.15 355.77 346.82 354.75C350.94 354.01 355.12 352.44 359.36 352.75C366.36 353.27 369.71 358.75 366.93 365.21C365.026 369.19 362.351 372.752 359.06 375.69C355.35 379.15 349.91 378.77 345.2 377.91C340.49 377.05 337.06 374.21 334.54 370.21C333.08 367.88 326.09 354.39 331.3 352.53C333.3 351.82 332.44 348.6 330.41 349.32H330.42Z" fill="#6ABD45"/>
<path d="M365.851 371.32C368.971 372.32 371.981 370.9 374.631 369.32C376.461 368.21 374.791 365.32 372.951 366.44C371.111 367.56 368.95 368.87 366.74 368.12C364.74 367.44 363.831 370.66 365.851 371.33V371.32Z" fill="#2B2C2B"/>
</svg>
