<svg width="128" height="112" viewBox="0 0 128 112" fill="none" xmlns="http://www.w3.org/2000/svg">
<path d="M106.428 24.4506C104.889 26.3326 104.687 29.7111 105.802 32.1623C106.455 33.6018 107.533 34.8375 108.04 36.3358C108.774 38.5116 108.159 41.0142 106.729 42.8099C105.299 44.6056 103.145 45.7367 100.903 46.2269C98.6611 46.7172 96.3238 46.6125 94.0543 46.2673C88.6819 45.4484 83.3002 43.1037 80.0613 38.7392C78.6034 36.7746 77.6138 34.3711 77.7533 31.9291C77.8929 29.4871 79.3214 27.0487 81.5871 26.1233C83.2213 25.4568 85.1143 25.6 86.7099 24.838C87.7987 24.3221 88.6562 23.4316 89.6018 22.6824C90.5474 21.9333 91.7004 21.298 92.8976 21.4431C93.7128 21.5422 94.4693 21.9939 95.2845 21.9939C95.6948 21.9812 96.0934 21.8541 96.4353 21.627C96.7773 21.4 97.049 21.0819 97.2198 20.7086C97.5485 19.9595 97.6201 19.6731 97.5485 18.9331C98.4794 19.1167 99.245 19.1167 100.539 19.2489C101.834 19.3811 103.024 20.0697 103.986 20.9492C104.948 21.8287 107.252 23.4408 106.428 24.4506Z" fill="#FFC736"/>
<path d="M105.651 23.6721C104.13 25.6349 103.749 28.132 104.165 30.5465C104.382 31.7988 104.9 32.9335 105.559 34.0223C106.259 35.1882 107.088 36.3358 107.228 37.7294C107.498 40.4065 105.807 42.7806 103.556 44.0603C100.934 45.5549 97.7996 45.6522 94.8728 45.2832C89.7317 44.6332 84.3372 42.5143 81.0873 38.3059C79.4549 36.1889 78.3074 33.3484 79.0675 30.6732C79.3691 29.5456 80.0101 28.538 80.9036 27.7869C81.9612 26.9349 83.2906 26.777 84.5924 26.5603C86.2174 26.2886 87.5577 25.7671 88.8522 24.7334C89.974 23.8392 91.2905 22.3042 92.8916 22.5705C93.6518 22.6972 94.3348 23.0644 95.1207 23.0938C95.7804 23.1143 96.4311 22.9358 96.988 22.5815C98.1906 21.825 98.747 20.3065 98.6405 18.9368L97.2561 19.9907C99.1619 20.3433 101.092 20.1009 102.731 21.3219C103.319 21.7607 103.879 22.2785 104.424 22.7688C104.722 23.0178 104.998 23.2925 105.249 23.5895C105.348 23.6949 105.429 23.8159 105.489 23.9475C105.541 24.1091 105.537 23.8043 105.48 23.8888C104.69 25.0694 106.596 26.1711 107.379 24.9905C108.631 23.1176 106.108 21.3311 104.898 20.279C103.943 19.4472 102.941 18.7256 101.712 18.3566C100.484 17.9875 99.1179 18.0977 97.8418 17.8627C97.1955 17.7433 96.3931 18.1546 96.45 18.9239C96.4922 19.4748 96.45 20.0899 96.035 20.5287C95.5264 21.0795 94.8489 20.8353 94.232 20.6444C92.7631 20.1872 91.4172 20.2772 90.053 21.0447C88.7255 21.7791 87.7597 23.035 86.4212 23.7492C85.0826 24.4635 83.4687 24.4084 82.0292 24.8068C79.4586 25.5193 77.5931 27.651 76.9211 30.1995C76.1867 33.0033 76.9964 35.9924 78.5057 38.3978C81.5151 43.1992 86.9298 45.9662 92.3481 47.0679C97.8822 48.1916 105.153 47.9529 108.322 42.4042C109.124 41.0289 109.511 39.4515 109.437 37.8616C109.33 36.1999 108.625 34.8045 107.77 33.4109C106.975 32.1164 106.312 30.8403 106.214 29.3017C106.126 27.9227 106.334 26.3437 107.208 25.2181C107.575 24.7444 107.659 24.1165 107.208 23.6629C106.83 23.2957 106.014 23.2039 105.651 23.6721Z" fill="#FFC736"/>
<path d="M106.428 24.4506C104.889 26.3326 104.687 29.7111 105.802 32.1623C106.455 33.6018 107.533 34.8375 108.04 36.3358C108.774 38.5116 108.159 41.0142 106.729 42.8099C105.299 44.6056 103.145 45.7367 100.903 46.2269C98.6611 46.7172 96.3238 46.6125 94.0543 46.2673C88.6819 45.4484 83.3002 43.1037 80.0613 38.7392C78.6034 36.7746 77.6138 34.3711 77.7533 31.9291C77.8929 29.4871 79.3214 27.0487 81.5871 26.1233C83.2213 25.4568 85.1143 25.6 86.7099 24.838C87.7987 24.3221 88.6562 23.4316 89.6018 22.6824C90.5474 21.9333 91.7004 21.298 92.8976 21.4431C93.7128 21.5422 94.4693 21.9939 95.2845 21.9939C95.6948 21.9812 96.0934 21.8541 96.4353 21.627C96.7773 21.4 97.049 21.0819 97.2198 20.7086C97.5485 19.9595 97.6201 19.6731 97.5485 18.9331C98.4794 19.1167 99.245 19.1167 100.539 19.2489C101.834 19.3811 103.024 20.0697 103.986 20.9492C104.948 21.8287 107.252 23.4408 106.428 24.4506Z" stroke="#FF76B8" stroke-width="3.59" stroke-miterlimit="10"/>
<path d="M97.435 23.5786C97.345 25.3945 95.8743 26.8249 94.3742 27.8494C92.8741 28.874 91.1812 29.7553 90.1879 31.2774C89.6517 32.1 89.3598 33.053 88.9595 33.9471C88.5592 34.8413 88.0029 35.7282 87.1362 36.189C86.4936 36.5306 85.7426 36.6058 85.0743 36.8904C84.4059 37.175 83.7762 37.8085 83.8955 38.5319C84.0295 39.3343 85.0119 39.7089 85.8197 39.6115C87.0206 39.4647 88.0488 38.6311 88.719 37.6249C89.3891 36.6187 89.7564 35.4454 90.1144 34.2905C90.4725 33.1356 90.8397 31.9623 91.5099 30.9579C92.3618 29.6727 93.6397 28.7638 94.7928 27.7521C95.9459 26.7404 97.1706 25.0897 97.435 23.5786Z" fill="#FF76B8"/>
<path d="M97.1621 23.5788C96.8536 27.0674 92.6709 28.0828 90.609 30.3026C89.5073 31.4906 89.186 33.0292 88.4203 34.4118C87.9338 35.2895 87.3058 35.8936 86.34 36.2076C85.6937 36.4187 85.007 36.5252 84.447 36.942C83.6979 37.4928 83.27 38.5247 83.9788 39.2922C84.6875 40.0597 85.8773 40.0046 86.7587 39.6374C89.8415 38.3925 89.9902 34.6065 91.2314 32.0084C92.0889 30.2145 93.6661 29.1477 95.0873 27.8459C96.3064 26.7314 97.3494 25.2753 97.7001 23.643C97.7735 23.2979 97.2447 23.151 97.1694 23.4962C96.4919 26.6561 93.5449 27.9524 91.6758 30.2622C89.8709 32.4949 89.9957 35.6659 88.1872 37.8729C87.7002 38.5019 87.0375 38.9722 86.2831 39.2243C85.5321 39.4428 83.9421 39.3179 84.1808 38.1336C84.4488 36.7969 86.845 36.8208 87.7704 36.0827C88.6958 35.3446 89.1548 34.1805 89.6065 33.1027C90.1881 31.5768 91.227 30.268 92.581 29.3552C94.72 27.8661 97.4522 26.4835 97.7092 23.5696C97.7423 23.2262 97.1915 23.2281 97.1621 23.5788Z" fill="#FF76B8"/>
<path d="M99.0726 24.1348C98.6838 25.9831 97.6117 27.6165 96.0705 28.7085C95.2516 29.2832 94.3042 29.7019 93.6267 30.44C92.4736 31.6959 92.3616 33.5614 92.4093 35.2745C92.4571 36.9876 92.5783 38.7924 91.7373 40.276C91.5041 40.6892 91.1865 41.0784 91.1149 41.5448C91.0433 42.0112 91.315 42.5877 91.7887 42.6024C92.2624 42.6171 92.5654 42.0864 92.7288 41.6329C93.4442 39.6633 93.877 37.6023 94.0141 35.5113C94.1096 34.0424 94.0692 32.5129 94.6733 31.1689C95.2535 29.8836 96.3551 28.9178 97.3154 27.8804C98.2757 26.843 99.1277 25.5486 99.0726 24.1348Z" fill="#FF76B8"/>
<path d="M98.808 24.0631C98.4717 25.6277 97.6335 27.0396 96.421 28.0842C95.3543 28.9857 93.9551 29.4667 93.116 30.629C91.3185 33.1243 92.6901 36.3558 91.9115 39.1063C91.6306 40.096 90.3545 41.3097 91.0045 42.3801C91.4709 43.155 92.332 42.8942 92.7506 42.2296C93.5053 41.0306 93.7679 39.2551 94.0029 37.8816C94.2636 36.3577 94.2563 34.8264 94.4233 33.2914C94.6675 31.0642 95.9455 29.7477 97.4015 28.1833C98.461 27.0449 99.3294 25.7339 99.3405 24.1328C99.3405 24.0598 99.3114 23.9897 99.2598 23.9381C99.2081 23.8864 99.1381 23.8574 99.065 23.8574C98.992 23.8574 98.9219 23.8864 98.8703 23.9381C98.8186 23.9897 98.7896 24.0598 98.7896 24.1328C98.7694 27.0945 95.6774 28.4716 94.4968 30.8934C93.9625 31.9951 93.856 33.2014 93.7917 34.4004C93.7343 35.9017 93.55 37.3955 93.2409 38.8658C93.0952 39.5109 92.9214 40.148 92.7194 40.7772C92.624 41.0765 92.5487 41.4988 92.3614 41.754L92.2696 41.9486L91.3827 41.8825C91.2634 41.6879 91.5664 41.1095 91.6637 40.9039C92.1851 39.8151 92.5946 38.9411 92.679 37.7054C92.8626 35.0963 92.0125 31.8849 94.4546 30.069C95.5764 29.2336 96.7699 28.6717 97.6843 27.5737C98.4945 26.6008 99.0615 25.449 99.3386 24.2136C99.4157 23.8648 98.8869 23.716 98.808 24.0631Z" fill="#FF76B8"/>
<path d="M93.7493 25.2822C92.7193 26.5675 90.975 26.9751 89.4216 27.5296C87.2327 28.3139 85.2248 29.5324 83.5185 31.1119C83.109 31.492 82.7069 31.9069 82.516 32.432C82.325 32.9572 82.3966 33.6145 82.8263 33.9707C83.311 34.3747 84.073 34.2535 84.5798 33.8771C85.0865 33.5007 85.406 32.9315 85.7402 32.3953C87.5286 29.52 90.7234 26.8044 93.7493 25.2822Z" fill="#FF76B8"/>
<path d="M93.5541 25.0873C92.5277 26.2789 91.0386 26.6737 89.6083 27.1731C88.3022 27.6215 87.0516 28.2178 85.881 28.9505C84.6067 29.7565 80.9455 32.0241 82.4475 33.9667C82.9983 34.6883 84.0339 34.5873 84.7169 34.1136C85.6937 33.4361 86.2133 32.0939 86.9368 31.1759C88.825 28.8191 91.1943 26.8924 93.8865 25.5243C94.2023 25.3627 93.9232 24.889 93.6092 25.0487C91.6101 26.0803 89.7784 27.4081 88.1761 28.9872C87.3667 29.7768 86.6293 30.637 85.9728 31.5578C85.4036 32.362 84.2101 34.8866 83.013 33.6271C81.3605 31.8846 86.9863 28.8862 88.2386 28.3189C90.1573 27.4485 92.4984 27.1676 93.9305 25.4931C94.1729 25.2103 93.7855 24.8192 93.5541 25.0873Z" fill="#FF76B8"/>
<path d="M100.989 25.2144C100.292 27.1595 99.1187 28.8988 97.5757 30.2728C97.0065 30.7778 96.3675 31.257 96.0499 31.9492C95.6974 32.713 95.7983 33.6017 95.9177 34.4316C96.0548 35.3815 96.2084 36.329 96.3786 37.2739C96.5273 38.0947 96.687 38.9136 96.8835 39.7251C96.9581 40.1179 97.0997 40.4949 97.3021 40.8397C97.4051 41.0111 97.5467 41.1562 97.7157 41.2633C97.8846 41.3704 98.0762 41.4366 98.2753 41.4566C98.7967 41.4768 99.2576 41.0545 99.4302 40.5624C99.6028 40.0703 99.544 39.5268 99.4302 39.0164C99.1346 37.6155 98.4974 36.3137 98.0457 34.9549C97.5941 33.5962 97.3352 32.0961 97.8089 30.7447C98.5029 28.7672 100.493 27.2561 100.98 25.2235" fill="#FF76B8"/>
<path d="M100.724 25.1405C100.235 26.477 99.5196 27.7193 98.6088 28.8127C97.8505 29.7143 96.7947 30.3716 96.1043 31.3209C95.4139 32.2701 95.4966 33.3957 95.6526 34.4973C95.8711 36.036 96.1264 37.5747 96.4587 39.0876C96.6515 39.9671 96.8259 41.1477 97.744 41.5792C98.5408 41.9464 99.3542 41.4507 99.6609 40.6869C100.098 39.6036 99.5452 38.2118 99.1761 37.1983C98.673 35.8102 98.0322 34.4441 97.8762 32.966C97.5383 29.7657 100.476 28.1224 101.255 25.2874C101.272 25.2178 101.261 25.1443 101.225 25.0826C101.189 25.0208 101.13 24.9755 101.061 24.9564C100.992 24.9373 100.918 24.9458 100.855 24.9802C100.792 25.0146 100.745 25.0721 100.724 25.1405C100.063 27.5697 97.6136 29.1083 97.3253 31.6899C97.1748 33.0431 97.5493 34.3817 98.0084 35.6412C98.2728 36.3665 98.5739 37.0771 98.8181 37.8097C99.0751 38.579 99.5856 39.8973 99.0843 40.652C98.3646 41.7335 97.5861 40.9311 97.3125 40.2205C97.173 39.8044 97.0649 39.3785 96.9893 38.9462C96.8241 38.1879 96.6827 37.4259 96.5505 36.6603C96.2714 35.0555 95.5351 32.8044 96.7158 31.4329C97.553 30.4542 98.6161 29.7253 99.4075 28.6787C100.188 27.6427 100.81 26.4968 101.255 25.2782C101.378 24.9459 100.847 24.8027 100.724 25.1313V25.1405Z" fill="#FF76B8"/>
<path d="M103.144 26.9681C102.122 28.1322 101.084 29.3202 100.453 30.7358C99.821 32.1515 99.6502 33.8572 100.372 35.2251C100.763 35.9596 101.38 36.5563 101.916 37.2008C102.452 37.8453 102.926 38.6073 102.933 39.4445C102.933 39.9678 102.823 40.6307 103.275 40.8914C103.726 41.1521 104.266 40.7078 104.452 40.2249C104.773 39.3931 104.538 38.4347 104.084 37.6653C103.631 36.896 102.983 36.2681 102.393 35.596C101.804 34.924 101.26 34.1712 101.092 33.2954C100.864 32.1203 101.343 30.936 101.811 29.8343C102.179 28.9585 102.772 27.8421 103.142 26.9663" fill="#FF76B8"/>
<path d="M102.949 26.7695C101.159 28.8094 99.1189 31.2919 99.7267 34.2131C100.041 35.7224 101.183 36.5799 102.022 37.7825C102.573 38.5757 102.573 39.2367 102.652 40.1474C102.683 40.5147 102.767 40.8819 103.109 41.104C104.014 41.6714 104.761 40.4798 104.853 39.7251C105.007 38.5059 104.333 37.4043 103.583 36.5101C102.367 35.0632 100.961 33.8477 101.418 31.7656C101.785 30.1223 102.714 28.6313 103.382 27.1019C103.522 26.7805 103.048 26.4996 102.907 26.8246C102.053 28.7801 100.378 31.1266 100.827 33.3648C101.034 34.4004 101.713 35.2413 102.396 36.0107C102.862 36.4915 103.291 37.0058 103.682 37.5493C104.108 38.1975 104.697 39.4607 104.113 40.1676C103.991 40.6573 103.685 40.6499 103.195 40.1456C103.195 40.0232 103.195 39.9045 103.195 39.7894C103.146 39.5929 103.195 39.3304 103.177 39.1266C103.1 38.6316 102.919 38.1585 102.646 37.7385C101.972 36.6368 100.839 35.8583 100.401 34.6171C99.3925 31.7693 101.59 29.1399 103.338 27.1569C103.571 26.8925 103.184 26.5014 102.949 26.7677V26.7695Z" fill="#FF76B8"/>
<path d="M105.277 42.3394C105.635 42.3816 105.884 41.9721 105.892 41.6049C105.899 41.2377 105.765 40.887 105.815 40.529C105.908 39.8606 106.606 39.4383 107.273 39.3281C107.939 39.218 108.626 39.3281 109.292 39.2088C109.843 39.117 110.363 38.882 110.914 38.7847C111.491 38.6897 112.082 38.7476 112.63 38.9524C113.178 39.1573 113.662 39.5021 114.035 39.9524C114.36 40.3545 114.586 40.8301 114.933 41.2175C115.348 41.682 115.906 41.9887 116.385 42.3871C116.864 42.7855 117.285 43.3437 117.25 43.9643C117.224 44.4215 116.958 44.8273 116.826 45.2661C116.604 46.0006 116.773 46.7993 117.03 47.5227C117.546 48.9658 118.408 50.2606 119.54 51.2941C120.408 52.0854 121.442 52.7299 122.099 53.7049C122.756 54.6799 122.887 56.1671 121.98 56.9163C121.88 56.988 121.788 57.0685 121.703 57.1568C121.185 57.7701 122.083 58.6698 121.93 59.4574C121.824 60.0083 121.249 60.3149 120.902 60.7537C120.259 61.5653 120.445 62.7367 120.149 63.7282C119.923 64.4902 119.415 65.1347 118.864 65.7112C117.689 66.9469 116.167 68.0009 114.457 68.0541C113.185 68.0927 111.973 67.5749 110.774 67.1508C107.06 65.8379 102.893 65.2651 99.941 62.6486C98.3949 61.2752 97.2749 59.4005 95.4884 58.3576C95.0385 58.095 94.5391 57.8784 94.2031 57.4781C93.9717 57.199 93.8359 56.8428 93.5531 56.6115C93.0133 56.1653 92.1283 56.3214 91.6325 55.8274C91.2873 55.4841 91.2525 54.9241 91.3957 54.4577C91.5389 53.9913 91.8235 53.5856 92.0585 53.1596C93.2355 51.015 93.0776 48.3857 93.913 46.0905C94.3114 44.9889 95.033 43.9019 96.1494 43.5585C97.005 43.296 98.0057 43.4998 98.7585 43.0077C99.0082 42.8461 99.2102 42.6166 99.4581 42.4569C100.18 41.9648 101.136 42.0695 102.001 42.1925C102.926 42.321 104.36 42.2072 105.277 42.3394Z" fill="#FFC736"/>
<path d="M105.277 43.4393C105.954 43.3549 106.472 43.1015 106.781 42.4552C106.926 42.1474 106.995 41.8093 106.983 41.4692C106.983 41.0781 106.779 40.7972 107.098 40.5291C107.572 40.1307 108.855 40.3804 109.437 40.2886C110.24 40.1637 111.006 39.7377 111.824 39.8718C112.559 39.9985 113.016 40.4336 113.429 41.0138C113.874 41.6869 114.427 42.2818 115.065 42.7747C115.754 43.2888 116.29 43.5679 115.95 44.4565C115.641 45.2152 115.553 46.0461 115.697 46.8527C115.967 48.3987 116.824 49.8731 117.806 51.0757C118.789 52.2784 120.269 53.0036 121.135 54.2614C121.413 54.6635 121.673 55.352 121.44 55.8349C121.179 56.3766 120.616 56.5584 120.471 57.2267C120.326 57.895 120.687 58.3559 120.759 58.9783C120.799 59.3217 120.84 59.1895 120.627 59.4576C120.386 59.7605 120.076 59.9827 119.859 60.3169C118.998 61.6701 119.464 63.3226 118.381 64.6079C117.463 65.6857 116.189 66.758 114.738 66.9416C113.132 67.1454 111.461 66.2071 109.964 65.7297C108.529 65.2762 107.069 64.8961 105.637 64.4243C104.234 63.9616 102.861 63.4034 101.628 62.5753C100.358 61.7197 99.4251 60.5115 98.3951 59.3988C97.923 58.8798 97.4077 58.402 96.8546 57.9703C96.3038 57.5535 95.5473 57.2928 95.0827 56.8007C94.6182 56.3086 94.3887 55.7596 93.7112 55.4457C93.3989 55.3322 93.0808 55.2354 92.7582 55.1556C92.4277 55.0417 92.4112 55.1005 92.4608 54.7553C92.5177 54.3569 92.8996 53.9382 93.0832 53.5838C93.2878 53.1846 93.4645 52.7718 93.612 52.3482C93.894 51.4748 94.1022 50.5793 94.2345 49.6711C94.497 48.1526 94.6421 46.0099 95.9108 44.9394C96.5186 44.4272 97.3228 44.5226 98.0628 44.4015C98.4622 44.3478 98.8489 44.2235 99.2048 44.0342C99.572 43.8231 99.8713 43.4375 100.27 43.2759C101.004 42.9803 102.014 43.3273 102.776 43.3585C103.61 43.3916 104.445 43.3585 105.277 43.4485C106.68 43.6138 106.669 41.4123 105.277 41.2452C104.445 41.1479 103.611 41.1883 102.776 41.1552C101.941 41.1222 101.098 40.9239 100.244 41.045C99.771 41.1026 99.3158 41.261 98.9092 41.5096C98.5897 41.7097 98.3492 42.0347 97.9912 42.1761C97.2016 42.4937 96.2872 42.3065 95.4775 42.6498C91.8824 44.183 92.6205 49.056 91.383 52.0452C90.7807 53.4976 89.4202 55.1335 90.8578 56.6079C91.4087 57.1716 92.0991 57.0706 92.7233 57.4085C93.0392 57.5792 93.186 57.9887 93.4284 58.2586C93.7337 58.577 94.0868 58.8459 94.475 59.0555C95.9806 59.9313 96.9941 61.1652 98.1619 62.4321C99.3149 63.6908 100.701 64.714 102.244 65.4451C103.859 66.209 105.569 66.7304 107.278 67.2243C108.988 67.7182 110.703 68.4141 112.441 68.8768C113.313 69.1274 114.227 69.1902 115.124 69.061C116.022 68.9319 116.881 68.6138 117.647 68.1277C119.051 67.2482 120.513 65.8876 121.095 64.3012C121.38 63.5246 121.321 62.7001 121.543 61.9143C121.765 61.1284 122.619 60.7575 122.9 59.9717C123.131 59.3217 123.005 58.5671 122.716 57.952C122.597 57.6912 122.762 57.5664 122.588 57.8106C122.686 57.7131 122.79 57.6217 122.9 57.537C123.183 57.2331 123.398 56.8718 123.53 56.4776C124.049 54.9536 123.355 53.3562 122.298 52.2545C121.012 50.9178 119.512 50.0346 118.583 48.3601C118.032 47.376 117.577 46.278 118.008 45.1745C118.363 44.2693 118.445 43.4136 117.931 42.5433C117.38 41.6051 116.374 41.2342 115.686 40.4446C114.997 39.6551 114.661 38.8619 113.765 38.3056C111.845 37.1121 109.964 38.0834 107.93 38.1789C106.986 38.2229 106.039 38.4084 105.359 39.1134C105.017 39.4632 104.796 39.9138 104.73 40.3987C104.706 40.5813 104.701 40.766 104.717 40.9496C104.732 41.0916 104.75 41.2335 104.772 41.3755C104.762 41.706 104.929 41.6663 105.271 41.2562C103.892 41.4141 103.874 43.6156 105.277 43.4393Z" fill="#FFC736"/>
<path d="M105.277 42.3394C105.635 42.3816 105.884 41.9721 105.892 41.6049C105.899 41.2377 105.765 40.887 105.815 40.529C105.908 39.8606 106.606 39.4383 107.273 39.3281C107.939 39.218 108.626 39.3281 109.292 39.2088C109.843 39.117 110.363 38.882 110.914 38.7847C111.491 38.6897 112.082 38.7476 112.63 38.9524C113.178 39.1573 113.662 39.5021 114.035 39.9524C114.36 40.3545 114.586 40.8301 114.933 41.2175C115.348 41.682 115.906 41.9887 116.385 42.3871C116.864 42.7855 117.285 43.3437 117.25 43.9643C117.224 44.4215 116.958 44.8273 116.826 45.2661C116.604 46.0006 116.773 46.7993 117.03 47.5227C117.546 48.9658 118.408 50.2606 119.54 51.2941C120.408 52.0854 121.442 52.7299 122.099 53.7049C122.756 54.6799 122.887 56.1671 121.98 56.9163C121.88 56.988 121.788 57.0685 121.703 57.1568C121.185 57.7701 122.083 58.6698 121.93 59.4574C121.824 60.0083 121.249 60.3149 120.902 60.7537C120.259 61.5653 120.445 62.7367 120.149 63.7282C119.923 64.4902 119.415 65.1347 118.864 65.7112C117.689 66.9469 116.167 68.0009 114.457 68.0541C113.185 68.0927 111.973 67.5749 110.774 67.1508C107.06 65.8379 102.893 65.2651 99.941 62.6486C98.3949 61.2752 97.2749 59.4005 95.4884 58.3576C95.0385 58.095 94.5391 57.8784 94.2031 57.4781C93.9717 57.199 93.8359 56.8428 93.5531 56.6115C93.0133 56.1653 92.1283 56.3214 91.6325 55.8274C91.2873 55.4841 91.2525 54.9241 91.3957 54.4577C91.5389 53.9913 91.8235 53.5856 92.0585 53.1596C93.2355 51.015 93.0776 48.3857 93.913 46.0905C94.3114 44.9889 95.033 43.9019 96.1494 43.5585C97.005 43.296 98.0057 43.4998 98.7585 43.0077C99.0082 42.8461 99.2102 42.6166 99.4581 42.4569C100.18 41.9648 101.136 42.0695 102.001 42.1925C102.926 42.321 104.36 42.2072 105.277 42.3394Z" stroke="#FF76B8" stroke-width="3.59" stroke-miterlimit="10"/>
<path d="M107.1 46.3315C105.965 49.8244 105.756 53.5522 106.494 57.1499C106.711 58.202 107.012 59.2541 106.97 60.3264C106.916 61.5754 106.404 62.7609 105.532 63.6571C104.557 62.3859 103.987 60.8502 103.898 59.2504C103.803 57.451 104.32 55.681 104.833 53.9532L107.086 46.3664" fill="#FF76B8"/>
<path d="M106.835 46.2579C105.943 49.0298 105.618 51.9527 105.878 54.8528C106.157 57.8236 107.679 60.9321 105.34 63.4623L105.772 63.5174C103.886 60.9707 103.956 58.1027 104.769 55.1631C105.582 52.2234 106.488 49.3444 107.349 46.4379C107.45 46.0982 106.919 45.9531 106.818 46.291C105.863 49.5115 104.751 52.7302 103.983 56.0022C103.337 58.7563 103.577 61.4719 105.296 63.7928C105.318 63.8284 105.347 63.8586 105.382 63.8812C105.417 63.9039 105.457 63.9184 105.499 63.9237C105.54 63.929 105.582 63.9249 105.622 63.9118C105.661 63.8987 105.697 63.8768 105.727 63.8479C106.573 62.9639 107.1 61.8238 107.226 60.6071C107.356 59.186 106.877 57.8034 106.636 56.4208C106.074 53.0703 106.326 49.6338 107.371 46.4011C107.477 46.0633 106.947 45.9182 106.84 46.2542L106.835 46.2579Z" fill="#FF76B8"/>
<path d="M104.922 46.3843C104.112 49.6893 102.963 53.1338 101.211 56.0588C101.106 56.2332 100.96 56.426 100.758 56.415C100.556 56.4039 100.449 56.2112 100.361 56.0477C99.8579 55.0819 99.3437 53.9656 99.7275 52.9465C99.9276 52.4122 100.35 51.9973 100.747 51.586C102.285 49.9922 103.813 48.3048 104.924 46.3879" fill="#FF76B8"/>
<path d="M104.657 46.3126C104.238 48.0554 103.717 49.772 103.097 51.4537C102.761 52.3479 102.388 53.2274 101.968 54.0867C101.779 54.4735 101.581 54.8554 101.373 55.2324C101.106 55.7135 100.912 56.2349 100.455 55.6437C99.8303 54.8266 99.6724 53.4404 100.223 52.5884C100.69 51.854 101.444 51.2609 102.026 50.6274C103.206 49.3735 104.252 48.0007 105.148 46.5311C105.181 46.4682 105.189 46.3947 105.17 46.3261C105.151 46.2575 105.105 46.199 105.044 46.1631C104.982 46.1272 104.909 46.1166 104.84 46.1335C104.77 46.1504 104.71 46.1935 104.672 46.2538C103.425 48.3562 101.734 49.9921 100.142 51.8117C99.5586 52.4764 99.2244 53.1906 99.3328 54.0885C99.4172 54.7789 99.7826 55.9981 100.317 56.4754C100.706 56.828 101.084 56.6591 101.375 56.2918C102.058 55.394 102.528 54.2115 102.974 53.1833C103.894 51.009 104.631 48.7618 105.177 46.465C105.262 46.1216 104.733 45.9747 104.646 46.3181L104.657 46.3126Z" fill="#FF76B8"/>
<path d="M102.682 46.1771C102.061 47.0768 100.855 47.3265 99.766 47.4201C98.6771 47.5138 97.5002 47.556 96.6446 48.2335C96.4977 48.3492 96.3269 48.4906 96.147 48.4392C95.9322 48.3767 95.8881 48.0958 95.8844 47.8718C95.857 47.3447 95.8896 46.8162 95.9817 46.2964C96.0763 45.7723 96.3471 45.2961 96.7492 44.9469C97.4267 44.4071 98.4017 44.4456 99.2335 44.6953C100.065 44.945 100.84 45.371 101.69 45.5326C102.54 45.6942 103.547 45.5179 104.029 44.7982C103.891 45.184 103.671 45.536 103.387 45.831C103.102 46.1259 102.758 46.3572 102.377 46.5094" fill="#FF76B8"/>
<path d="M102.487 45.9824C101.479 47.2677 99.7638 47.0547 98.3151 47.2952C97.7128 47.3944 97.2777 47.6624 96.7232 47.846C96.5604 48.0517 96.3713 48.0621 96.1558 47.8773C96.1558 47.6655 96.1558 47.4543 96.1558 47.2438C96.1778 46.7132 96.2256 46.1715 96.4882 45.696C97.5292 43.8121 99.8721 45.3691 101.299 45.7308C102.344 45.9971 103.515 45.8943 104.222 44.9964L103.763 44.7283C103.624 45.074 103.417 45.3886 103.156 45.6539C102.894 45.9193 102.582 46.1302 102.239 46.2743C101.918 46.4194 102.197 46.8931 102.516 46.7499C102.921 46.5702 103.287 46.312 103.591 45.9902C103.896 45.6684 104.134 45.2895 104.292 44.8752C104.394 44.6255 103.998 44.3978 103.833 44.6071C102.384 46.4433 99.8427 44.2142 98.0617 44.2509C96.3468 44.2877 95.6582 45.7015 95.605 47.2401C95.5903 47.6679 95.493 48.5438 96.0714 48.709C96.3413 48.7843 96.5708 48.6007 96.7801 48.4758C97.211 48.1948 97.6885 47.9928 98.1902 47.8791C99.8152 47.5523 101.73 47.8442 102.876 46.379C103.091 46.1036 102.705 45.7106 102.487 45.9897V45.9824Z" fill="#FF76B8"/>
<path d="M107.753 42.9844C107.311 43.5352 107.293 44.1007 107.513 44.7727C107.733 45.4448 108.11 46.058 108.284 46.7484C108.811 48.8214 107.414 50.9935 107.823 53.094C108.106 54.5482 109.204 55.7031 109.729 57.0876C110.131 58.1488 110.181 59.3092 110.464 60.4091C110.746 61.5089 111.347 62.6363 112.404 63.0494C112.808 63.2073 113.368 63.1926 113.565 62.8052C113.695 62.5463 113.603 62.2342 113.502 61.9624C112.649 59.6765 111.24 57.6457 110.069 55.503C108.897 53.3602 107.939 50.9861 108.112 48.5515C108.17 47.7289 108.358 46.899 108.183 46.0892C108.069 45.5586 107.807 45.0739 107.647 44.5561C107.487 44.0383 107.449 43.4361 107.755 42.988" fill="#FF76B8"/>
<path d="M107.515 42.8463C106.676 44.06 107.438 45.1782 107.883 46.3918C108.477 48.026 107.78 49.6601 107.552 51.2924C107.368 52.6548 107.636 53.8079 108.301 54.9995C108.7 55.7138 109.171 56.395 109.463 57.1625C109.755 57.93 109.858 58.7636 110.014 59.5733C110.235 60.7759 110.591 62.0686 111.582 62.8783C112.133 63.3318 113.35 63.8055 113.808 62.9481C114.065 62.4652 113.773 61.8739 113.589 61.4296C113.283 60.6916 112.936 59.9708 112.552 59.2703C111.735 57.7647 110.798 56.3326 110.012 54.8031C109.109 53.0643 108.375 51.1602 108.364 49.1846C108.364 48.2426 108.611 47.3007 108.499 46.3625C108.373 45.3049 107.424 44.1903 107.989 43.1254C108.154 42.8133 107.681 42.5342 107.513 42.8481C106.944 43.9168 107.53 44.7999 107.829 45.8484C108.25 47.3172 107.692 48.9551 107.916 50.479C108.318 53.213 109.787 55.6201 111.16 57.9538C111.527 58.5763 111.894 59.2006 112.223 59.8395C112.377 60.1333 112.528 60.4289 112.671 60.73C112.833 61.0697 113.257 61.672 113.222 62.0392L113.024 62.456C112.959 62.9456 112.714 63.0301 112.289 62.7094C112.15 62.6338 112.019 62.5426 111.9 62.4376C111.628 62.2101 111.4 61.9359 111.224 61.6279C110.882 60.9908 110.654 60.2985 110.55 59.5825C110.317 58.3339 110.123 57.1441 109.507 56.0149C108.788 54.6929 107.928 53.5325 108.017 51.9461C108.097 50.5286 108.672 49.1772 108.661 47.7487C108.646 47.0847 108.498 46.4304 108.226 45.8245C107.844 44.9064 107.335 44.049 107.974 43.1254C108.176 42.8335 107.699 42.558 107.499 42.8481L107.515 42.8463Z" fill="#FF76B8"/>
<path d="M111.267 45.0658C110.303 46.8904 109.992 48.9893 110.384 51.0151C110.776 53.0409 111.848 54.8721 113.422 56.2055C114.44 57.0667 115.657 57.713 116.505 58.7412C117.351 59.7793 117.751 61.1103 117.618 62.4428C117.589 62.7292 117.557 63.0781 117.791 63.247C117.874 63.2976 117.971 63.3224 118.069 63.3185C118.167 63.3146 118.262 63.2821 118.341 63.225C118.504 63.1055 118.631 62.9443 118.709 62.7586C119.285 61.5468 118.988 60.0577 118.264 58.9266C117.541 57.7956 116.452 56.9602 115.35 56.1908C114.249 55.4215 113.105 54.687 112.209 53.6864C111.169 52.5274 110.518 51.0718 110.348 49.524C110.178 47.9762 110.496 46.414 111.259 45.0566" fill="#FF76B8"/>
<path d="M111.028 44.9265C110.014 46.8477 109.701 49.0619 110.142 51.1888C110.583 53.3158 111.752 55.2227 113.446 56.5821C114.685 57.5809 116.145 58.3466 116.878 59.832C117.232 60.5559 117.401 61.3566 117.37 62.162C117.353 62.5935 117.215 63.1591 117.63 63.4657C118.517 64.1212 119.123 62.6394 119.233 62.0225C119.771 59.0094 116.999 57.0026 114.852 55.5116C113.2 54.3622 111.705 53.0917 110.997 51.1399C110.657 50.1698 110.526 49.1392 110.612 48.1151C110.698 47.091 110.998 46.0965 111.494 45.1964C111.661 44.8842 111.186 44.607 111.019 44.9191C110.424 46.0008 110.092 47.2073 110.049 48.441C110.007 49.6748 110.255 50.9012 110.774 52.0212C111.973 54.5697 114.463 55.6934 116.518 57.4175C117.708 58.4164 118.745 59.7586 118.738 61.3854C118.738 61.9252 118.738 62.3659 118.214 62.5458C117.691 62.7257 117.91 62.4466 117.917 62.0207C117.927 61.3803 117.821 60.7433 117.605 60.1405C116.729 57.7021 114.168 56.8355 112.587 54.981C110.264 52.2489 109.9 48.371 111.505 45.2037C111.665 44.8879 111.191 44.6106 111.03 44.9265H111.028Z" fill="#FF76B8"/>
<path d="M114.22 45.4409C113.913 46.7202 113.929 48.0555 114.266 49.3272C114.603 50.5988 115.25 51.7669 116.15 52.7266C117.472 54.1074 119.334 55.053 120.134 56.7881C120.303 57.1553 120.362 57.6878 120.002 57.8659C119.885 57.9094 119.756 57.9151 119.636 57.8821C119.515 57.8492 119.407 57.7793 119.328 57.6823C119.172 57.4869 119.055 57.263 118.985 57.0231C118.342 55.3155 115.999 53.0553 114.712 51.7608C114.712 51.7608 112.788 48.2263 113.757 46.3351L114.22 45.4409Z" fill="#FF76B8"/>
<path d="M113.954 45.3693C113.663 46.6037 113.659 47.8884 113.941 49.1249C114.223 50.3613 114.785 51.5167 115.583 52.5026C116.468 53.5767 117.654 54.3203 118.651 55.2769C118.963 55.5662 119.245 55.8854 119.494 56.2299C119.597 56.3767 119.691 56.5294 119.777 56.6871C120.047 56.9588 120.016 57.1314 119.683 57.2049C119.217 57.4748 119.316 57.0561 119.145 56.7018C119.017 56.4247 118.872 56.156 118.71 55.8975C118.029 54.8161 117.142 53.8595 116.259 52.9414C115.682 52.3428 115.03 51.8397 114.681 51.0833C114.23 50.1028 113.837 49.0231 113.763 47.938C113.708 47.0438 114.053 46.3608 114.452 45.5841C114.613 45.2701 114.14 44.991 113.976 45.3068C113.692 45.8577 113.356 46.4085 113.253 47.0236C113.102 47.9251 113.302 48.8781 113.569 49.7374C113.765 50.4402 114.041 51.118 114.393 51.7571C114.773 52.3887 115.445 52.89 115.956 53.4225C116.852 54.357 117.775 55.3394 118.411 56.4759C118.741 57.069 118.996 58.3671 119.951 58.1505C120.724 57.9668 120.568 57.0616 120.305 56.5255C119.775 55.4385 118.805 54.6472 117.887 53.898C116.699 52.9267 115.625 51.926 114.972 50.5049C114.262 48.9403 114.091 47.1847 114.485 45.5125C114.564 45.171 114.033 45.0241 113.954 45.3693Z" fill="#FF76B8"/>
<path d="M104.467 44.5319C104.212 45.2296 103.294 45.8998 102.713 46.3074C101.713 47.0125 100.714 46.5479 99.6196 46.2542C97.5411 45.696 95.3378 46.4304 94.8567 48.7403C94.7153 49.4306 95.7748 49.7263 95.918 49.0322C96.2521 47.4017 97.688 46.9005 99.1789 47.2714C100.172 47.5192 101.325 48.0517 102.366 47.7414C103.556 47.3871 105.102 45.9898 105.53 44.822C105.774 44.1555 104.711 43.8691 104.469 44.5301L104.467 44.5319Z" fill="#FFC736"/>
<path d="M116.683 105.978C116.969 104.579 116.613 103.099 115.906 101.857C114.669 99.6835 112.487 98.2513 110.433 96.8246C103.561 92.0521 97.2845 86.4761 91.7355 80.2152C90.8174 79.1741 89.9122 78.1165 88.996 77.0717C88.1238 76.0784 87.2388 75.0979 86.352 74.1193C84.4755 72.0426 82.812 70.0468 80.9355 67.9701C81.8497 66.7382 82.6861 65.4504 83.4399 64.1143C86.2982 59.0001 87.9857 53.3153 88.3809 47.4699C88.7481 42.0901 88.0669 36.6571 86.554 31.4811C83.3095 20.4001 75.6511 10.0757 64.774 6.1721C54.624 1.37984 43.4402 1.84071 33.0093 5.96462C22.5783 10.0885 13.9761 18.7054 9.91831 29.1712C5.8605 39.6371 6.40399 51.7995 11.4129 61.854C13.5753 66.1837 16.4983 70.0894 20.0426 73.3848C29.7061 82.3652 43.8827 86.1219 56.7869 83.3788C62.9935 82.0448 68.8094 79.2992 73.7838 75.355L73.6993 75.4413C76.1781 77.1691 78.5063 79.097 80.8345 81.0249L82.4154 82.334C84.4902 84.0508 86.565 85.7694 88.5535 87.5872C92.6756 91.353 96.4065 95.5247 100.051 99.7551C102.927 103.093 105.877 106.567 109.843 108.484C111.152 109.117 112.667 109.567 114.05 109.119C115.432 108.671 116.396 107.377 116.683 105.978Z" fill="#FF76B8"/>
<path d="M117.862 106.303C118.446 102.893 116.577 99.9882 114.007 97.9189C111.342 95.7725 108.423 93.9584 105.744 91.8248C100.125 87.3465 95.1405 82.277 90.4327 76.866C87.583 73.5904 84.7052 70.338 81.7993 67.1089C81.3623 66.6242 80.514 66.6517 80.0678 67.1089L81.9902 68.5925C92.4322 54.3938 91.8189 34.2572 82.5539 19.6234C78.5787 13.342 72.9529 8.09626 65.994 5.3274C63.9504 4.51401 61.9546 3.61247 59.8449 2.9937C57.7165 2.38039 55.5385 1.95462 53.3359 1.72128C48.9879 1.24389 44.5703 1.5597 40.2995 2.46858C32.3693 4.15596 24.9918 7.87225 19.096 13.4467C13.4353 18.8008 9.24529 25.7266 7.3137 33.2877C5.20584 41.5355 5.62998 50.4701 8.61918 58.4425C11.5564 66.2746 16.7973 73.0333 23.6514 77.8281C37.055 87.1556 55.3225 87.9506 69.4386 79.7634C71.2556 78.699 72.995 77.5074 74.6439 76.1977L72.9125 74.4662L72.828 74.5525C72.2423 75.1548 72.4314 76.0214 73.0759 76.4749C76.5021 78.8784 79.6859 81.616 82.8954 84.2968C86.1071 86.937 89.1719 89.7511 92.076 92.7263C94.8797 95.6329 97.5127 98.69 100.155 101.738C102.509 104.448 105.011 107.149 108.153 108.958C109.905 109.966 112.009 110.854 114.062 110.359C116.01 109.888 117.401 108.197 117.851 106.297C118.219 104.766 115.855 104.112 115.492 105.647C115.116 107.239 113.913 108.273 112.229 108.005C110.613 107.748 109.067 106.732 107.767 105.788C105.05 103.816 102.867 101.147 100.687 98.6148C95.7096 92.8475 90.4877 87.4512 84.6269 82.5745C81.2521 79.7671 77.9085 76.8936 74.3116 74.3689L74.5595 76.2913L74.6439 76.205C75.7713 75.0446 74.1206 73.5243 72.9125 74.4736C66.655 79.398 58.9176 82.4276 50.9654 82.9362C43.5577 83.41 36.1589 81.8835 29.5435 78.5167C22.6318 74.9657 16.9407 69.428 13.2021 62.6159C9.34628 55.5836 7.83883 47.3964 8.67793 39.435C10.2496 24.4927 20.8275 11.5757 34.8995 6.55576C42.7947 3.73917 51.4134 3.01023 59.5034 5.4541C61.5084 6.0545 63.3904 6.91748 65.3385 7.68864C66.9542 8.34315 68.5046 9.14848 69.9692 10.094C72.8775 11.982 75.4722 14.314 77.6588 17.0051C87.7574 29.2317 90.3813 47.8518 83.1451 62.0816C82.2004 63.9282 81.1061 65.6943 79.8732 67.3623C79.0414 68.4933 80.8463 69.8264 81.7956 68.8459H80.0678C84.8417 74.1486 89.3604 79.7248 94.3509 84.8329C99.0819 89.6621 104.259 94.0331 109.813 97.8877C112.326 99.6356 116.12 102.05 115.505 105.658C115.239 107.193 117.596 107.854 117.862 106.303Z" fill="#FFC736"/>
<path d="M76.5612 27.2674C74.5525 22.9084 69.5234 19.0251 65.5299 16.3609C63.3921 14.9351 61.0987 13.7579 58.694 12.852C46.9594 8.43619 32.8214 11.2748 23.7032 19.8788C14.5851 28.4829 10.9294 42.4336 14.6567 54.3978C15.6941 57.7456 17.2585 60.9066 19.2911 63.7619C24.0282 70.3903 31.3341 75.0871 39.2918 76.8332C47.2495 78.5793 55.782 77.4006 63.0566 73.7338C71.5505 69.4539 78.412 61.4962 80.149 52.1467C81.7501 43.583 80.2059 35.1773 76.5612 27.2674Z" fill="#FFC736"/>
<path d="M76.5612 27.2674C74.5525 22.9084 69.5234 19.0251 65.5299 16.3609C63.3921 14.9351 61.0987 13.7579 58.694 12.852C46.9594 8.43619 32.8214 11.2748 23.7032 19.8788C14.5851 28.4829 10.9294 42.4336 14.6567 54.3978C15.6941 57.7456 17.2585 60.9066 19.2911 63.7619C24.0282 70.3903 31.3341 75.0871 39.2918 76.8332C47.2495 78.5793 55.782 77.4006 63.0566 73.7338C71.5505 69.4539 78.412 61.4962 80.149 52.1467C81.7501 43.5831 80.2059 35.1773 76.5612 27.2674Z" stroke="#FFC736" stroke-width="17.33" stroke-miterlimit="10"/>
<path d="M76.5612 27.2674C74.5525 22.9084 69.5234 19.0251 65.5299 16.3609C63.3921 14.9351 61.0987 13.7579 58.694 12.852C46.9594 8.43619 32.8214 11.2748 23.7032 19.8788C14.5851 28.4829 10.9294 42.4336 14.6567 54.3978C15.6941 57.7456 17.2585 60.9066 19.2911 63.7619C24.0282 70.3903 31.3341 75.0871 39.2918 76.8332C47.2495 78.5793 55.782 77.4006 63.0566 73.7338C71.5505 69.4539 78.412 61.4962 80.149 52.1467C81.7501 43.5831 80.2059 35.1773 76.5612 27.2674Z" stroke="#FF76B8" stroke-width="4.67" stroke-miterlimit="10"/>
<path d="M45.9479 18.6867C45.0298 17.8917 43.5811 18.4572 42.6631 19.2541C41.745 20.0509 40.9132 21.0902 39.7161 21.3013C39.0202 21.4188 38.3133 21.2242 37.6119 21.1416C36.9105 21.059 36.1173 21.1214 35.6289 21.6318C34.8192 22.4783 35.2617 24.0885 34.3583 24.8358C33.8075 25.2894 33.0198 25.2031 32.3111 25.2361C31.6023 25.2692 30.7504 25.5831 30.6586 26.2882C30.5906 26.8482 31.0552 27.3164 31.2645 27.8416C31.7364 29.0203 30.8862 30.2964 29.9792 31.1925C29.0722 32.0885 28.0127 33.0286 27.9356 34.2955C27.8842 35.164 28.3395 36.0012 28.9638 36.6072C29.5881 37.2131 30.3703 37.6262 31.1396 38.032C32.6287 38.8142 34.239 39.6221 35.9135 39.4054C37.0923 39.253 38.2142 38.592 39.4021 38.7371C40.3202 38.8491 41.185 39.4513 42.1067 39.3356C42.7567 39.253 43.3039 38.827 43.8143 38.4176L46.5868 36.1885C47.3516 35.6063 48.0692 34.9647 48.7332 34.2698C49.7647 33.1356 50.4963 31.7615 50.8613 30.2726C51.0835 29.3545 51.1147 28.2528 50.439 27.5918C49.7964 26.9602 48.6488 26.8574 48.2816 26.0403C47.9143 25.2233 48.5753 24.3548 48.6102 23.4698C48.6378 22.7629 48.2595 22.1111 47.896 21.5051L46.2435 18.7675" fill="#FF76B8"/>
<path d="M45.9479 18.6867C45.0298 17.8917 43.5811 18.4572 42.6631 19.2541C41.745 20.0509 40.9132 21.0902 39.7161 21.3013C39.0202 21.4188 38.3133 21.2242 37.6119 21.1416C36.9105 21.059 36.1173 21.1214 35.6289 21.6318C34.8192 22.4783 35.2617 24.0885 34.3583 24.8358C33.8075 25.2894 33.0198 25.2031 32.3111 25.2361C31.6023 25.2692 30.7504 25.5831 30.6586 26.2882C30.5906 26.8482 31.0552 27.3164 31.2645 27.8416C31.7364 29.0203 30.8862 30.2964 29.9792 31.1925C29.0722 32.0885 28.0127 33.0286 27.9356 34.2955C27.8842 35.164 28.3395 36.0012 28.9638 36.6072C29.5881 37.2131 30.3703 37.6262 31.1396 38.032C32.6287 38.8142 34.239 39.6221 35.9135 39.4054C37.0923 39.253 38.2142 38.592 39.4021 38.7371C40.3202 38.8491 41.185 39.4513 42.1067 39.3356C42.7567 39.253 43.3039 38.827 43.8143 38.4176L46.5868 36.1885C47.3516 35.6063 48.0692 34.9647 48.7332 34.2698C49.7647 33.1356 50.4963 31.7615 50.8613 30.2726C51.0835 29.3545 51.1147 28.2528 50.439 27.5918C49.7964 26.9602 48.6488 26.8574 48.2816 26.0403C47.9143 25.2233 48.5753 24.3548 48.6102 23.4698C48.6378 22.7629 48.2595 22.1111 47.896 21.5051L46.2435 18.7675" stroke="#FF76B8" stroke-width="8.66" stroke-miterlimit="10"/>
<path d="M45.9479 18.6867C45.0298 17.8917 43.5811 18.4572 42.6631 19.2541C41.745 20.0509 40.9132 21.0902 39.7161 21.3013C39.0202 21.4188 38.3133 21.2242 37.6119 21.1416C36.9105 21.059 36.1173 21.1214 35.6289 21.6318C34.8192 22.4783 35.2617 24.0885 34.3583 24.8358C33.8075 25.2894 33.0198 25.2031 32.3111 25.2361C31.6023 25.2692 30.7504 25.5831 30.6586 26.2882C30.5906 26.8482 31.0552 27.3164 31.2645 27.8416C31.7364 29.0203 30.8862 30.2964 29.9792 31.1925C29.0722 32.0885 28.0127 33.0286 27.9356 34.2955C27.8842 35.164 28.3395 36.0012 28.9638 36.6072C29.5881 37.2131 30.3703 37.6262 31.1396 38.032C32.6287 38.8142 34.239 39.6221 35.9135 39.4054C37.0923 39.253 38.2142 38.592 39.4021 38.7371C40.3202 38.8491 41.185 39.4513 42.1067 39.3356C42.7567 39.253 43.3039 38.827 43.8143 38.4176L46.5868 36.1885C47.3516 35.6063 48.0692 34.9647 48.7332 34.2698C49.7647 33.1356 50.4963 31.7615 50.8613 30.2726C51.0835 29.3545 51.1147 28.2528 50.439 27.5918C49.7964 26.9602 48.6488 26.8574 48.2816 26.0403C47.9143 25.2233 48.5753 24.3548 48.6102 23.4698C48.6378 22.7629 48.2595 22.1111 47.896 21.5051L46.2435 18.7675" stroke="#FFC736" stroke-width="4.67" stroke-miterlimit="10"/>
<path d="M48.9434 52.104C47.2909 51.8102 45.778 51.0207 44.2724 50.2789C42.7667 49.5371 41.2024 48.8229 39.5278 48.6962C37.8533 48.5695 36.0392 49.1479 35.0881 50.5323C34.238 51.7809 34.137 53.5729 32.8958 54.4359C32.4368 54.7554 31.8786 54.8967 31.3847 55.1611C30.8908 55.4255 30.4336 55.8956 30.4538 56.4464C30.4721 56.9293 30.8467 57.3296 31.258 57.5848C31.6693 57.84 32.1356 57.9979 32.5304 58.2789C34.3757 59.5843 33.8726 62.7865 35.6922 64.1269C36.9903 65.0817 38.8577 64.63 40.3431 65.2543C41.7642 65.8528 42.7649 67.408 44.3017 67.5384C45.1849 67.6137 46.024 67.1822 46.8062 66.7635L51.1908 64.4243C52.3714 63.7927 53.5778 63.1391 54.4848 62.1641C56.2291 60.2894 56.5872 57.2635 55.3276 55.0345C54.068 52.8054 51.2881 51.5458 48.7874 52.071" fill="#FF76B8"/>
<path d="M48.9434 52.104C47.2909 51.8102 45.778 51.0207 44.2724 50.2789C42.7667 49.5371 41.2024 48.8229 39.5278 48.6962C37.8533 48.5695 36.0392 49.1479 35.0881 50.5323C34.238 51.7809 34.137 53.5729 32.8958 54.4359C32.4368 54.7554 31.8786 54.8967 31.3847 55.1611C30.8908 55.4255 30.4336 55.8956 30.4538 56.4464C30.4721 56.9293 30.8467 57.3296 31.258 57.5848C31.6693 57.84 32.1356 57.9979 32.5304 58.2789C34.3757 59.5843 33.8726 62.7865 35.6922 64.1269C36.9903 65.0817 38.8577 64.63 40.3431 65.2543C41.7642 65.8528 42.7649 67.408 44.3017 67.5384C45.1849 67.6137 46.024 67.1822 46.8062 66.7635L51.1908 64.4243C52.3714 63.7927 53.5778 63.1391 54.4848 62.1641C56.2291 60.2894 56.5872 57.2635 55.3276 55.0345C54.068 52.8054 51.2881 51.5458 48.7874 52.071" stroke="#FF76B8" stroke-width="8.66" stroke-miterlimit="10"/>
<path d="M48.9434 52.104C47.2909 51.8102 45.778 51.0207 44.2724 50.2789C42.7667 49.5371 41.2024 48.8229 39.5278 48.6962C37.8533 48.5695 36.0392 49.1479 35.0881 50.5323C34.238 51.7809 34.137 53.5729 32.8958 54.4359C32.4368 54.7554 31.8786 54.8967 31.3847 55.1611C30.8908 55.4255 30.4336 55.8956 30.4538 56.4464C30.4721 56.9293 30.8467 57.3296 31.258 57.5848C31.6693 57.84 32.1356 57.9979 32.5304 58.2789C34.3757 59.5843 33.8726 62.7865 35.6922 64.1269C36.9903 65.0817 38.8577 64.63 40.3431 65.2543C41.7642 65.8528 42.7649 67.408 44.3017 67.5384C45.1849 67.6137 46.024 67.1822 46.8062 66.7635L51.1908 64.4243C52.3714 63.7927 53.5778 63.1391 54.4848 62.1641C56.2291 60.2894 56.5872 57.2635 55.3276 55.0345C54.068 52.8054 51.2881 51.5458 48.7874 52.071" stroke="#FFC736" stroke-width="4.67" stroke-miterlimit="10"/>
<path d="M74.6573 31.4828C73.6016 30.6566 71.938 29.8615 70.605 29.7422C69.272 29.6228 67.9316 29.8468 66.6115 30.0708L62.2048 30.8163C60.6515 31.0789 58.9457 31.4314 57.9818 32.6836C57.1059 33.8312 57.1188 35.4029 56.6965 36.7855C56.1089 38.7336 54.6767 40.287 53.4649 41.9266C52.2531 43.5663 51.2028 45.5456 51.5737 47.547C51.6331 47.8888 51.7445 48.2195 51.9042 48.5275C52.4991 49.6438 53.755 50.2075 54.9228 50.6941C56.489 51.3477 58.2406 52.0087 59.8362 51.4285C60.9085 51.0374 61.7293 50.1432 62.7869 49.7062C64.7607 48.9039 67.1605 49.877 69.0737 48.9387C70.3865 48.2943 71.1375 46.9062 71.804 45.6025L74.9695 39.413C75.6433 38.0947 76.33 36.7341 76.4383 35.2579C76.5467 33.7816 75.8214 32.3935 74.6573 31.4828Z" fill="#FF76B8"/>
<path d="M74.6573 31.4828C73.6016 30.6566 71.938 29.8615 70.605 29.7422C69.272 29.6228 67.9316 29.8468 66.6115 30.0708L62.2048 30.8163C60.6515 31.0789 58.9457 31.4314 57.9818 32.6836C57.1059 33.8312 57.1188 35.4029 56.6965 36.7855C56.1089 38.7336 54.6767 40.287 53.4649 41.9266C52.2531 43.5663 51.2028 45.5456 51.5737 47.547C51.6331 47.8888 51.7445 48.2195 51.9042 48.5275C52.4991 49.6438 53.755 50.2075 54.9228 50.6941C56.489 51.3477 58.2406 52.0087 59.8362 51.4285C60.9085 51.0374 61.7293 50.1432 62.7869 49.7062C64.7607 48.9039 67.1605 49.877 69.0737 48.9387C70.3865 48.2943 71.1375 46.9062 71.804 45.6025L74.9695 39.413C75.6433 38.0947 76.33 36.7341 76.4383 35.2579C76.5467 33.7816 75.8214 32.3935 74.6573 31.4828Z" stroke="#FF76B8" stroke-width="8.66" stroke-miterlimit="10"/>
<path d="M74.6573 31.4828C73.6016 30.6566 71.938 29.8615 70.605 29.7422C69.272 29.6228 67.9316 29.8468 66.6115 30.0708L62.2048 30.8163C60.6515 31.0789 58.9457 31.4314 57.9818 32.6836C57.1059 33.8312 57.1188 35.4029 56.6965 36.7855C56.1089 38.7336 54.6767 40.287 53.4649 41.9266C52.2531 43.5663 51.2028 45.5456 51.5737 47.547C51.6331 47.8888 51.7445 48.2195 51.9042 48.5275C52.4991 49.6438 53.755 50.2075 54.9228 50.6941C56.489 51.3477 58.2406 52.0087 59.8362 51.4285C60.9085 51.0374 61.7293 50.1432 62.7869 49.7062C64.7607 48.9039 67.1605 49.877 69.0737 48.9387C70.3865 48.2943 71.1375 46.9062 71.804 45.6025L74.9695 39.413C75.6433 38.0947 76.33 36.7341 76.4383 35.2579C76.5467 33.7816 75.8214 32.3935 74.6573 31.4828Z" stroke="#FFC736" stroke-width="4.67" stroke-miterlimit="10"/>
<path d="M45.2031 26.9681C43.165 24.9209 39.7296 23.8266 37.1242 25.0788C34.5188 26.331 33.0646 29.5497 33.7825 32.348C34.5004 35.1462 37.2711 37.2522 40.1648 37.254C43.0585 37.2559 45.8053 35.1921 46.6757 32.4379C47.2889 30.5082 46.6316 28.404 45.2031 26.9681Z" fill="#FFC736"/>
<path d="M45.4192 26.7532C43.4123 24.8069 40.2781 23.5987 37.5239 24.5829C35.0103 25.4844 33.3651 28.0954 33.3009 30.7155C33.2293 33.4697 35.0525 35.9466 37.546 37.0078C40.2212 38.1462 43.2801 37.3751 45.2833 35.3186C47.6703 32.8509 47.808 29.2686 45.4192 26.7532C45.1475 26.4667 44.716 26.9 44.9859 27.1865C47.0313 29.3402 47.0478 32.3606 45.1144 34.597C43.5152 36.4478 40.9611 37.3934 38.5705 36.7251C36.1799 36.0567 34.1253 33.9011 33.927 31.3489C33.7434 29.0226 34.9717 26.5751 37.0484 25.4605C39.6795 24.0577 42.9735 25.2384 44.9804 27.1865C45.2686 27.4601 45.702 27.0267 45.4192 26.7532Z" fill="#FFC736"/>
<path d="M69.6327 36.8697C67.9655 35.522 65.9091 34.5673 63.7571 34.5434C61.6052 34.5195 59.4037 35.533 58.3094 37.3765C57.6447 38.5388 57.3996 39.8943 57.6153 41.2158C57.7593 42.161 58.1098 43.0629 58.6419 43.8573C59.1739 44.6517 59.8745 45.3191 60.6938 45.812C61.5131 46.3049 62.431 46.6112 63.3821 46.7091C64.3332 46.807 65.2942 46.6941 66.1967 46.3785C67.0992 46.0628 67.9211 45.5521 68.6038 44.8828C69.2866 44.2134 69.8134 43.4018 70.1469 42.5058C70.4804 41.6097 70.6123 40.6511 70.5333 39.6982C70.4542 38.7454 70.1662 37.8217 69.6896 36.9928" fill="#FFC736"/>
<path d="M69.8544 36.6531C67.5685 34.85 64.6087 33.6731 61.6966 34.5232C58.9718 35.32 57.1063 37.7254 57.2587 40.6062C57.4037 43.2227 59.1664 45.6041 61.5938 46.5717C64.0211 47.5394 66.8763 46.9096 68.7546 45.1524C71.0222 43.0317 71.4243 39.5174 69.9646 36.8348C69.781 36.4897 69.2485 36.7981 69.4358 37.1433C70.9396 39.9085 70.2235 43.5366 67.5611 45.3177C66.325 46.1577 64.8273 46.5235 63.3431 46.3478C61.8589 46.172 60.488 45.4666 59.4822 44.3611C57.233 41.8842 57.2697 37.7657 60.2277 35.8507C63.1857 33.9356 66.8377 35.0465 69.4211 37.0809C69.7277 37.3214 70.1555 36.8973 69.8544 36.6476V36.6531Z" fill="#FFC736"/>
<path d="M47.1997 54.289C45.8924 52.9028 44.1921 52.1536 42.3028 51.9021C40.4134 51.6506 38.3974 52.2693 37.068 53.6262C35.7387 54.9831 35.1842 57.1148 35.825 58.9032C36.2381 60.0581 37.0864 61.0129 38.0412 61.7822C40.1086 63.4512 43.0097 64.3711 45.4701 63.3668C46.3156 63.0116 47.0613 62.4547 47.6419 61.7448C48.2225 61.0349 48.6204 60.1935 48.8008 59.2943C49.1423 57.5059 48.4538 55.611 47.1997 54.289Z" fill="#FFC736"/>
<path d="M47.4168 54.0724C45.4963 52.1225 42.5108 51.0832 39.8062 51.7552C37.153 52.4181 35.1222 54.7867 35.2563 57.5849C35.3866 60.3115 37.8103 62.4212 40.1679 63.4201C42.7164 64.4997 45.7533 64.3179 47.6868 62.1623C49.8387 59.7643 49.5008 56.3841 47.415 54.0687C47.1506 53.775 46.7191 54.2101 46.9817 54.5021C49.2419 57.0083 49.0675 60.9523 46.0141 62.7646C43.2599 64.3895 39.7437 63.0694 37.6157 61.0147C36.402 59.8415 35.6492 58.3157 35.9191 56.5952C36.038 55.8603 36.3156 55.1601 36.7326 54.5434C37.1495 53.9266 37.6959 53.4081 38.3336 53.024C41.1043 51.3458 44.8114 52.2895 46.9817 54.5112C47.2589 54.7867 47.6923 54.3552 47.4168 54.0724Z" fill="#FFC736"/>
<path d="M86.892 73.078L83.6384 76.7503L80.7227 80.0406C80.3958 80.3729 80.1231 80.7546 79.9148 81.1716C79.8122 81.3812 79.7599 81.6117 79.7618 81.8449C79.7637 82.0782 79.8198 82.3078 79.9258 82.5157C80.2783 83.1106 81.1248 83.2501 81.7619 82.9967C82.399 82.7433 82.8966 82.22 83.3612 81.7114L88.3664 76.2031C88.6841 75.8542 89.0164 75.4687 89.066 75.0005C89.0757 74.7561 89.0264 74.5131 88.9222 74.2919C88.818 74.0707 88.662 73.8779 88.4674 73.7299C88.078 73.439 87.6439 73.2133 87.1821 73.0615" fill="#FF76B8"/>
<path d="M86.6768 72.8705C84.5616 75.2574 82.3675 77.5948 80.3221 80.0442C79.7327 80.7492 79.1121 81.7609 79.6629 82.679C80.0834 83.3804 81.0033 83.553 81.7414 83.3345C82.922 82.9838 83.7611 81.7499 84.5396 80.8851L87.7565 77.3433C88.3936 76.6419 89.5155 75.7624 89.3686 74.6846C89.2217 73.6068 88.1549 73.122 87.2626 72.7732C86.8953 72.63 86.7374 73.2212 87.0992 73.3626C87.6316 73.5719 88.322 73.8106 88.5827 74.3669C88.9132 75.0738 88.5075 75.6045 88.0319 76.1241C87.3599 76.8695 86.6824 77.6113 86.0122 78.3531L83.9925 80.5822C83.3461 81.2927 82.6172 82.3669 81.6808 82.6974C80.9941 82.9397 80.2303 82.758 80.1587 81.9482C80.0944 81.2138 80.4836 80.7988 80.9445 80.2663C81.622 79.4805 82.3216 78.7112 83.0101 77.9345L87.1138 73.3038C87.3746 73.01 86.9431 72.5694 86.6805 72.8705H86.6768Z" fill="#FFC736"/>
<path d="M32.8227 43.8767C36.4729 43.223 40.3692 43.6509 43.7696 42.1746C44.3774 41.9102 45.189 41.6238 45.6058 42.1379C45.6753 42.2433 45.7526 42.3433 45.8371 42.4372C46.0207 42.5933 46.2723 42.5914 46.5073 42.5822L48.4444 42.5033C48.4213 42.7104 48.327 42.9031 48.1777 43.0484C48.0283 43.1937 47.8331 43.2827 47.6255 43.3002C47.3188 43.3167 47.0067 43.1716 46.7074 43.2488C46.0354 43.4324 46.0997 44.4055 45.7288 44.9949C45.3891 45.531 44.6969 45.6963 44.0763 45.8101C42.8436 46.0329 41.6061 46.23 40.3637 46.4014C39.4877 46.5508 38.5977 46.6013 37.7105 46.5519C36.6731 46.4601 35.6761 46.1149 34.6901 45.7716L32.1764 44.8957C32.0497 44.8517 31.9047 44.7892 31.8698 44.6589C31.8625 44.5983 31.8705 44.5369 31.8929 44.4801C31.9154 44.4234 31.9516 44.3731 31.9983 44.3339C32.1837 44.1376 32.4224 43.9997 32.685 43.9373" fill="#FF76B8"/>
<path d="M74.6908 50.3195C74.3842 50.5656 73.7728 50.8924 73.6975 51.3331C73.6875 51.4671 73.7169 51.6011 73.782 51.7186C73.8022 51.7682 73.8976 51.8049 73.9105 51.849C73.9417 51.9628 73.826 52.1501 73.7673 52.2805C73.6314 52.5871 73.367 52.9599 73.6534 53.261C73.94 53.5132 74.3131 53.6448 74.6945 53.6282C74.8414 53.6199 74.9833 53.572 75.1052 53.4895C75.2271 53.4071 75.3243 53.2932 75.3867 53.16C75.4454 53.0008 75.4575 52.8282 75.4216 52.6624C75.372 52.3723 75.26 52.2676 75.4638 52.0528C75.7154 51.7866 75.9835 51.6415 75.8788 51.199C75.7907 50.8189 75.4638 50.6482 75.104 50.6243C74.711 50.5949 74.7129 51.2082 75.104 51.2357V51.5479L74.9975 51.6048C74.9589 51.6544 74.8965 51.6893 74.8561 51.7407C74.772 51.853 74.7234 51.9879 74.7165 52.1281C74.7019 52.286 74.7918 52.4494 74.779 52.5963C74.8316 52.7003 74.7869 52.7805 74.6449 52.8368C74.5825 53.0045 74.4919 53.0437 74.3732 52.9543C74.3091 52.9322 74.2476 52.9032 74.1896 52.868C74.0843 52.8362 74.0929 52.8081 74.2153 52.7836C74.2594 52.4053 74.7019 52.0785 74.555 51.6617C74.5017 51.5093 74.3714 51.4689 74.3971 51.3477C74.4466 51.1641 74.992 50.8593 75.1315 50.7455C75.4381 50.4995 75.003 50.068 74.6982 50.3122L74.6908 50.3195Z" fill="#FFC736"/>
<path d="M21.5273 51.5313C21.5144 51.1641 21.3437 50.5233 21.4869 50.2038C21.5934 49.9559 21.6301 50.4223 21.6356 50.5398C21.6411 50.6573 21.5622 50.784 21.5805 50.9071C21.6503 51.401 22.1773 51.4432 22.4747 51.737C23.1431 52.398 22.6583 54.3644 22.4747 55.1742C22.226 56.1608 21.9195 57.132 21.5567 58.0826C21.425 58.4984 21.247 58.8981 21.026 59.2742C20.9289 59.4415 20.8048 59.5917 20.6588 59.7186L19.7775 59.5349C19.66 59.4193 19.6838 58.9676 19.6746 58.8005C19.6306 58.0238 19.7811 57.2527 19.4415 56.5182C19.0375 55.6479 18.4114 55.1999 18.5583 54.1313C18.696 53.1306 19.2634 51.1733 20.6331 51.7021C21.0003 51.8435 21.1601 51.2522 20.7965 51.1127C19.7463 50.7069 18.8576 51.4432 18.4316 52.3704C17.8808 53.5712 17.6439 54.941 18.4316 56.0794C19.0045 56.9111 19.0669 57.5207 19.0706 58.5122C19.0706 59.0098 19.0706 59.5772 19.3258 60.0252C19.8913 61.0461 20.9783 60.4255 21.4887 59.6837C22.3499 58.4425 22.7924 56.61 23.1174 55.1595C23.3469 54.1349 23.7747 52.3117 23.1339 51.3863C22.9796 51.1641 22.8676 51.1604 22.6602 51.0191C22.5544 51.0102 22.4564 50.9598 22.3876 50.879C22.3189 50.7981 22.2848 50.6934 22.2929 50.5876C22.3404 50.503 22.3686 50.4089 22.3756 50.3122C22.2966 49.9302 22.2874 49.7338 21.8798 49.5502C20.5615 48.9534 20.9214 50.8171 20.9452 51.5148C20.9581 51.9077 21.5714 51.9096 21.5567 51.5148L21.5273 51.5313Z" fill="#FF76B8"/>
<path d="M68.0261 23.336C67.8668 23.2222 67.6703 23.173 67.4761 23.1982C67.2819 23.2234 67.1045 23.3212 66.9795 23.4718C66.75 23.7289 66.7573 24.0833 66.5352 24.333C66.313 24.5827 66.0211 24.5864 65.7824 24.781C64.9359 25.4714 65.2719 26.9605 66.4066 27.1C66.9391 27.1661 67.0915 26.8099 67.4551 26.5308C67.9875 26.1214 68.6596 26.5675 69.2067 26.1636C69.3998 26.0102 69.5447 25.8046 69.6242 25.5712C69.7036 25.3377 69.7142 25.0864 69.6547 24.8471C69.5867 24.5925 69.4611 24.3569 69.2875 24.1585C69.0562 23.8813 68.5714 23.6536 68.4154 23.3378C68.2317 22.9853 67.7121 23.2937 67.8866 23.6463C68.1932 24.2669 69.1718 24.4413 69.0249 25.2676C68.9093 25.9286 67.7397 25.532 67.2384 25.8882C66.963 26.0828 66.9336 26.2939 66.5627 26.3527C66.3326 26.4971 66.1765 26.4396 66.0945 26.1801C65.802 25.9292 65.8154 25.6262 66.1349 25.2712C66.291 25.1188 66.5829 25.1041 66.7702 24.9995C66.9036 24.9374 67.0215 24.8465 67.1154 24.7333C67.2274 24.5753 67.3614 23.6169 67.7195 23.8556C68.0481 24.0759 68.3548 23.5453 68.0279 23.3268L68.0261 23.336Z" fill="#FF76B8"/>
<path d="M51.4201 20.4078C51.2826 21.4609 51.3361 22.5301 51.578 23.5641C51.7322 24.2215 51.9838 24.8916 52.496 25.3286C53.0799 25.8262 53.8915 25.9364 54.6535 26.0264C54.882 26.0938 55.1269 26.0798 55.3463 25.9867C55.5657 25.8936 55.7459 25.7272 55.8561 25.5159C56.2766 24.9651 56.7228 24.3096 56.541 23.6431C56.3996 23.1235 55.9112 22.7764 55.4173 22.5616C54.9234 22.3468 54.3872 22.2201 53.9484 21.9208C53.0414 21.3131 52.6962 20.1159 52.7623 19.0253C52.7862 18.8679 52.7743 18.7073 52.7274 18.5552C52.7013 18.4803 52.6485 18.4176 52.579 18.3793C52.5095 18.341 52.4283 18.3297 52.351 18.3477C52.2764 18.3815 52.2127 18.4356 52.1674 18.5038C51.7957 18.9876 51.5304 19.5445 51.3889 20.1379" fill="#FF76B8"/>
<path d="M56.3471 25.3414C56.8271 25.5288 57.3296 25.6523 57.8417 25.7087C58.2328 25.7527 58.2291 25.1413 57.8417 25.0972C57.3851 25.0423 56.9376 24.9281 56.5105 24.7575C56.1433 24.6143 55.9854 25.2056 56.3471 25.3469V25.3414Z" fill="#FF76B8"/>
<path d="M63.101 58.0568C62.2252 58.3689 62.1683 59.1713 62.4051 59.9792C62.6952 60.9688 63.0918 62.0246 63.7785 62.8105C64.9041 64.0957 67.4765 64.586 68.793 63.3319C69.8946 62.2835 71.582 60.0471 70.0158 58.6719C68.1301 57.0194 65.3649 59.6927 63.6518 57.9558C63.3746 57.6749 62.9413 58.1082 63.2185 58.3891C63.9989 59.1805 65.0712 59.2411 66.1122 59.0538C66.8687 58.9179 67.6362 58.6296 68.4147 58.6866C69.7 58.782 70.3151 59.7882 69.8047 60.9744C69.4551 61.7051 68.9639 62.3591 68.3596 62.8986C67.6784 63.5339 66.6796 63.4641 65.8148 63.3062C64.95 63.1483 64.3202 62.6269 63.8575 61.8924C63.5894 61.4646 62.306 58.9877 63.2626 58.6462C63.6298 58.5158 63.4719 57.9246 63.0992 58.0568H63.101Z" fill="#FF76B8"/>
<path d="M69.605 62.0964C70.1779 62.28 70.7305 62.0192 71.2171 61.7291C71.5531 61.5253 71.2465 60.9947 70.9086 61.2003C70.5708 61.406 70.1742 61.6465 69.7684 61.5088C69.4012 61.3839 69.2341 61.9752 69.605 62.0982V62.0964Z" fill="#FFC736"/>
</svg>
