<svg width="128" height="112" viewBox="0 0 128 112" fill="none" xmlns="http://www.w3.org/2000/svg">
<path d="M48.4026 18.6365C39.1083 29.257 31.5487 43.7825 33.1718 58.2891C34.757 72.4168 44.0765 84.9551 57.0295 90.7337C70.8182 96.8871 87.1837 95.304 99.5346 86.6139C110.582 78.8417 117.388 65.9687 118.74 52.641C119.487 45.273 118.54 37.6776 115.73 30.8148C113.256 24.7751 109.311 18.4386 103.12 15.7271C101.708 15.0706 100.181 14.6987 98.6252 14.6325C97.9031 14.6177 97.9052 15.7377 98.6252 15.7524C101.425 15.8135 104.414 17.2808 106.541 19.0638C109.22 21.31 111.326 24.5056 112.965 27.5581C116.452 34.0462 118.018 41.4942 117.852 48.8328C117.588 61.7205 111.989 74.583 102.221 83.0962C91.2593 92.6494 75.6706 95.7861 61.8461 91.3779C48.5689 87.1423 38.2031 76.1324 35.0327 62.5205C31.8034 48.658 37.6284 34.5219 45.8722 23.5183C46.9247 22.1121 48.0384 20.7521 49.1962 19.4301C49.6699 18.8891 48.8804 18.0933 48.4047 18.6386L48.4026 18.6365Z" fill="#FFC736"/>
<path d="M49.5119 22.6722C41.2028 32.118 35.5105 44.4921 36.5252 57.0325C37.3441 67.1372 42.6301 76.7809 50.5918 83.0627C58.5535 89.3445 69.075 92.2307 79.1566 91.0876C85.8216 90.3218 92.1896 87.9027 97.682 84.05C109.711 75.5894 116.355 60.4197 115.473 45.7362C114.858 35.5136 110.528 25.1668 102.328 19.0303" fill="#FFC736"/>
<path d="M49.1442 22.3036C40.5025 32.1852 34.4691 45.3108 36.1764 58.6785C37.8037 71.3516 46.1212 82.6183 57.6679 88.0307C70.0125 93.8219 84.7486 92.8873 96.2827 85.6118C106.714 79.0396 113.545 67.6823 115.486 55.6071C117.404 43.6877 114.61 30.3453 105.964 21.5247C104.916 20.4608 103.79 19.4758 102.596 18.5775C102.061 18.1712 101.544 19.0785 102.07 19.4785C111.724 26.7897 115.726 39.5848 114.932 51.3273C114.139 63.0699 108.64 74.5724 99.4847 82.0436C89.2515 90.3863 75.0965 92.9462 62.5729 88.8559C50.5546 84.9319 41.1383 75.0335 38.0163 62.752C34.8102 50.14 39.2394 37.0797 46.7759 26.8907C47.759 25.5624 48.8031 24.2824 49.8894 23.0404C50.3294 22.5373 49.5947 21.7963 49.1505 22.3015L49.1442 22.3036Z" fill="#FFC736"/>
<path d="M77.3031 77.3093C80.3261 79.4144 84.5659 78.5724 86.4395 75.3662C88.2583 72.2569 87.0226 68.295 83.9133 66.5877C83.2818 66.2404 82.7155 67.2087 83.347 67.554C85.93 68.9665 87.0058 72.2064 85.4795 74.7999C83.888 77.5071 80.4019 78.0924 77.8757 76.3409C77.2821 75.9199 76.7221 76.8988 77.3094 77.3072L77.3031 77.3093Z" fill="#FF76B8"/>
<path d="M82.2577 69.4173C85.2407 71.3793 82.8892 75.7327 79.5946 74.5328C78.9168 74.2844 78.6242 75.3749 79.2978 75.6127C80.2484 75.979 81.3021 75.9741 82.2491 75.5988C83.1962 75.2236 83.9674 74.5055 84.4091 73.5876C85.3038 71.6929 84.5228 69.5667 82.8239 68.4489C82.2198 68.051 81.6577 69.0215 82.2577 69.4152V69.4173Z" fill="#FF76B8"/>
<path d="M53.1381 40.5028C51.2119 36.042 45.4564 34.7578 41.7703 37.8503C38.0841 40.9428 38.6231 46.5593 42.3618 49.3318C43.4502 50.1402 44.5006 48.3129 43.4144 47.5151C42.7855 47.0393 42.2732 46.4267 41.9162 45.7236C41.5591 45.0205 41.3667 44.2454 41.3535 43.457C41.3403 42.6686 41.5067 41.8875 41.8401 41.1729C42.1734 40.4583 42.665 39.8289 43.2775 39.3323C46.0648 37.1093 49.9614 38.4103 51.3234 41.5659C51.8582 42.8058 53.6728 41.7364 53.1402 40.5133L53.1381 40.5028Z" fill="#FF76B8"/>
<path d="M76.2022 44.692C72.8887 41.2228 68.7521 38.726 63.8639 38.5366C58.8474 38.3408 53.7887 40.1302 49.6205 42.8479C42.2735 47.6414 37.2695 55.9315 38.4926 64.8763C39.0589 69.0171 40.9072 73.0316 43.966 75.9136C47.6016 79.3281 52.8582 81.1049 57.6495 82.1511C62.4408 83.1974 67.2701 83.0206 71.7709 80.9933C75.6628 79.2318 78.9522 76.3669 81.2314 72.7537C87.0796 63.4153 83.204 52.1969 76.198 44.692C75.7054 44.1637 74.9139 44.9573 75.4065 45.4836C81.2441 51.738 85.2102 60.9712 81.7219 69.3665C78.5368 77.0988 70.4194 82.1511 62.104 81.6648C59.4473 81.5112 56.8411 80.888 54.315 80.0839C51.9993 79.3492 49.7173 78.4861 47.629 77.244C44.0635 75.1013 41.4336 71.6967 40.261 67.7056C37.779 59.5376 41.1956 51.178 47.5301 45.7994C51.3888 42.5216 56.3549 40.1807 61.4241 39.7218C64.1608 39.4755 66.8975 39.7997 69.4005 40.9722C71.6972 42.0501 73.6739 43.6626 75.417 45.4857C75.9075 46.0078 76.699 45.2141 76.2022 44.692Z" fill="#FF76B8"/>
<path d="M74.6595 47.9888C72.8049 45.2205 68.8998 43.4796 65.481 42.9996C62.0623 42.5196 58.534 43.2101 55.3763 44.5048C49.6924 46.8204 44.8758 51.3213 43.1075 56.9378C41.3391 62.5543 43.0212 69.2151 47.8104 72.937C49.785 74.4674 52.1617 75.4631 54.5679 76.2589C57.6625 77.2904 60.9107 78.0462 64.1885 77.9241C71.2997 77.6546 77.9625 72.8085 80.0782 66.3668C82.1938 59.925 79.053 52.8012 74.6595 47.9888Z" fill="#FFC736"/>
<path d="M75.6393 47.4161C73.4773 44.3195 69.7449 42.5406 66.0798 41.9427C61.6106 41.2249 57.0445 42.2985 53.0447 44.3237C46.3082 47.7319 40.8348 54.5421 41.3211 62.3985C41.5485 66.0931 42.98 69.695 45.5419 72.3896C48.4891 75.4989 52.8384 77.0588 56.9098 78.1198C61.0885 79.2124 65.4883 79.465 69.6122 78.0082C73.1509 76.7737 76.2566 74.5416 78.5549 71.5812C79.8713 69.8841 80.8285 67.9369 81.3681 65.858C81.9077 63.7792 82.0185 61.6122 81.6937 59.4892C81.0053 54.8579 78.5739 50.6181 75.4751 47.1783C74.4983 46.0941 72.9005 47.6982 73.8752 48.7782C78.5191 53.9316 81.6285 61.6196 78.0623 68.2087C74.7657 74.2905 67.8229 77.444 61.0674 76.6399C57.1687 76.1767 52.8952 74.8673 49.5649 72.758C46.7638 70.9549 44.7663 68.1407 43.9883 64.9015C42.3042 58.1798 45.9588 51.6896 51.4321 47.9172C54.9583 45.4857 59.2717 43.8837 63.5915 43.97C67.2082 44.0416 71.5427 45.4605 73.6962 48.5487C74.5109 49.7465 76.475 48.6161 75.6393 47.4161Z" fill="#FF76B8"/>
<path d="M108.039 63.375C109.131 63.375 110.504 63.194 110.832 62.1519C110.901 61.8228 110.938 61.488 110.944 61.152C111.026 60.4467 111.407 59.7962 111.441 59.0889C111.474 58.3816 110.876 57.5521 110.203 57.7711C110.184 57.5342 110.236 57.297 110.35 57.0887C110.464 56.8804 110.637 56.7101 110.847 56.5985C111.076 56.4806 111.337 56.4406 111.573 56.3354C111.893 56.1952 112.149 55.9386 112.287 55.6175C112.425 55.2965 112.436 54.9349 112.318 54.6059C112.2 54.2769 111.961 54.0051 111.65 53.8455C111.339 53.6859 110.979 53.6503 110.643 53.746C111.34 52.5882 110.081 51.0999 110.432 49.7926C110.588 49.1989 111.064 48.6452 110.921 48.0495C110.777 47.4537 110.079 47.1969 109.485 47.2074C108.891 47.218 108.291 47.4032 107.693 47.3464C107.548 46.9401 107.841 46.5211 108.072 46.157C108.304 45.7928 108.46 45.2496 108.125 44.9739C107.902 44.7907 107.576 44.8328 107.298 44.7633C106.531 44.5528 105.976 43.4455 105.254 43.776C104.833 43.9676 104.588 44.6181 104.142 44.5002C103.984 44.4399 103.856 44.3217 103.782 44.1697C103.483 43.6645 103.38 43.054 103.033 42.5803C102.685 42.1066 101.906 41.8519 101.532 42.3045C101.441 42.4563 101.341 42.6025 101.233 42.7424C100.923 43.035 100.431 42.8455 100.018 42.7424C99.6055 42.6392 98.9971 42.8455 99.0939 43.2582C98.7234 42.7908 98.0413 42.7277 97.4435 42.8371C96.8456 42.9466 96.2877 43.1866 95.692 43.1845C95.2941 43.1845 94.8941 43.0708 94.5005 43.1276C93.5531 43.2645 92.9995 44.5423 93.5447 45.3275C93.2955 45.2622 93.0354 45.249 92.7808 45.2888C92.5263 45.3286 92.2826 45.4206 92.0652 45.5589C91.8479 45.6972 91.6614 45.879 91.5175 46.0927C91.3736 46.3065 91.2754 46.5477 91.229 46.8011C91.1722 47.2222 91.2564 47.7127 90.9975 48.0642C90.4922 48.7358 89.006 48.4853 88.9976 49.3273C88.9976 49.9189 89.8839 50.2031 89.9049 50.8009C89.9386 51.7609 87.9366 51.5504 87.8355 52.504C87.8124 52.7145 87.9134 52.944 87.8797 53.1629C87.7703 53.8723 86.4061 54.1102 86.6798 54.7712C86.7619 54.967 86.9766 55.0765 87.0882 55.2575C87.5513 56.0091 85.9556 56.8069 86.3093 57.6153C86.4419 57.9163 86.8272 58.1079 86.8124 58.4363C86.7977 58.7647 86.4188 58.9226 86.3198 59.2215C86.1262 59.8004 87.004 60.0994 87.6124 60.0636C88.2208 60.0278 89.1007 60.2194 88.9976 60.8236C88.9007 61.3898 88.0103 61.4067 87.7345 61.9098C87.524 62.274 87.7766 62.7666 88.1555 62.935C88.3513 63.0055 88.5603 63.0311 88.7673 63.01C88.9742 62.9888 89.1738 62.9215 89.3512 62.8129C89.4457 62.9772 89.4807 63.169 89.4505 63.3561C89.4202 63.5432 89.3264 63.7141 89.1849 63.8402C89.4687 63.7766 89.7657 63.8115 90.027 63.9392C90.267 64.0929 90.347 64.5034 90.1028 64.6507C89.9744 64.7265 89.8039 64.7097 89.6818 64.7939C89.4712 64.9433 89.5449 65.2696 89.646 65.5096L90.5954 67.8021L91.1364 69.1094C91.06 69.0663 90.9758 69.0387 90.8887 69.0281C90.8015 69.0175 90.7132 69.0242 90.6286 69.0477C90.5441 69.0713 90.465 69.1112 90.3959 69.1654C90.3268 69.2195 90.2691 69.2867 90.2259 69.3631C90.1828 69.4395 90.1552 69.5237 90.1446 69.6109C90.134 69.698 90.1407 69.7863 90.1642 69.8709C90.1878 69.9554 90.2277 70.0345 90.2819 70.1036C90.336 70.1727 90.4032 70.2305 90.4796 70.2736C90.6234 70.3278 90.7604 70.3985 90.888 70.4841C91.1785 70.7515 90.9175 71.2651 90.5575 71.4272C90.1975 71.5893 89.7744 71.5725 89.4186 71.743C89.0628 71.9135 88.825 72.4461 89.1323 72.6924C88.7365 72.5556 88.3492 72.9703 88.2566 73.3787C88.1639 73.7871 88.2292 74.2207 88.0861 74.6207C87.6356 75.8607 85.6799 75.6733 84.8441 76.6943C84.3705 77.2753 84.3768 78.0984 84.4231 78.8479C84.2538 78.9115 84.1015 79.0132 83.9779 79.1452C83.8543 79.2772 83.7628 79.4358 83.7105 79.6089C83.6582 79.782 83.6464 79.9648 83.6762 80.1431C83.7059 80.3215 83.7764 80.4905 83.8821 80.6373C84.0347 80.8031 84.2114 80.945 84.4062 81.0583L85.1704 81.5551C85.4347 81.7641 85.7531 81.8934 86.0883 81.9277C86.423 81.9277 86.7809 81.6519 86.7324 81.3193C86.3514 81.8119 86.2946 82.6266 86.7998 82.9908C87.305 83.355 88.1955 82.7108 87.8524 82.1909C88.0924 82.9761 89.2944 83.2287 89.8312 82.6119C89.8965 82.7786 89.996 82.9297 90.1234 83.0555C90.2507 83.1813 90.403 83.279 90.5704 83.3423C90.7379 83.4056 90.9167 83.433 91.0955 83.4229C91.2742 83.4128 91.4488 83.3652 91.608 83.2834C91.7316 83.485 91.9195 83.639 92.1414 83.7208C92.3633 83.8025 92.6062 83.8071 92.8311 83.7339C92.9537 83.3607 92.9647 82.9597 92.8626 82.5803C93.3179 82.7128 93.8016 82.7121 94.2564 82.5781C94.7112 82.4442 95.1181 82.1827 95.4288 81.8246C95.4719 81.7232 95.5362 81.6322 95.6173 81.5578C95.6985 81.4833 95.7946 81.427 95.8993 81.3927C96.0039 81.3584 96.1147 81.3469 96.2242 81.3589C96.3337 81.371 96.4393 81.4063 96.534 81.4625C96.9687 81.5759 97.4268 81.5613 97.8534 81.4206C98.28 81.2799 98.6569 81.0191 98.9388 80.6693C99.2207 80.3196 99.3956 79.896 99.4425 79.4492C99.4895 79.0025 99.4064 78.5517 99.2034 78.1511C100.355 77.9963 101.399 77.3906 102.104 76.4669C102.692 76.5764 103.292 76.2312 103.641 75.747C103.964 75.2424 104.173 74.6734 104.254 74.0797C104.349 73.7425 104.349 73.3854 104.254 73.0482C104.129 72.7219 103.761 72.4629 103.435 72.5829C103.856 71.9998 103.561 71.1725 103.148 70.5809C102.736 69.9894 102.199 69.4147 102.157 68.6863C102.498 68.3368 103.054 68.8189 103.233 69.2736C103.551 70.0862 103.654 70.9872 104.075 71.7472C104.496 72.5072 105.462 73.0966 106.241 72.7008C107.056 72.2798 107.11 71.1641 107.051 70.2525C107.997 70.4841 108.906 69.2273 108.39 68.4021C108.273 68.2492 108.164 68.0904 108.064 67.9263C107.559 66.8927 109.283 65.6738 108.679 64.6949C108.531 64.457 108.274 64.3097 108.1 64.0929C107.925 63.876 107.87 63.5013 108.1 63.3518" fill="#FF76B8"/>
<path d="M108.038 63.7835C108.855 63.7835 109.777 63.7162 110.476 63.2425C111.229 62.731 111.242 62.0257 111.364 61.1984C111.503 60.2511 112.092 59.3038 111.707 58.3438C111.419 57.6239 110.846 57.266 110.09 57.3733L110.608 57.767C110.64 56.8323 111.85 56.8113 112.332 56.2387C112.5 56.0416 112.623 55.8116 112.696 55.5635C112.769 55.3154 112.788 55.0549 112.753 54.7988C112.591 53.7041 111.528 53.1841 110.52 53.3504L110.983 53.9525C111.343 53.1967 111.25 52.5126 111.048 51.7168C110.899 51.1316 110.663 50.5148 110.804 49.9001C110.92 49.3948 111.265 48.978 111.32 48.4517C111.53 46.3655 108.836 46.9592 107.671 46.9318L108.08 47.3402C107.987 46.5213 108.966 45.9192 108.642 45.0519C108.379 44.3467 107.589 44.4982 107.044 44.1825C106.499 43.8667 106.135 43.2562 105.444 43.2941C104.813 43.3299 104.404 44.313 103.971 43.6878C103.569 43.0983 103.573 42.391 102.931 41.9489C102.51 41.6521 101.903 41.5279 101.436 41.8184C100.969 42.1089 101.015 42.4289 100.352 42.4036C100.049 42.391 99.8045 42.2647 99.4887 42.3278C98.9814 42.4268 98.6698 42.732 98.6467 43.2478L99.3456 42.9594C98.7961 42.4352 98.1519 42.311 97.4067 42.4183C96.8152 42.5047 96.2594 42.751 95.6552 42.7657C95.1774 42.7657 94.7163 42.6331 94.2406 42.751C93.0385 43.0499 92.5922 44.5109 93.1543 45.5234L93.6174 44.9214C93.1538 44.8022 92.6647 44.8285 92.2165 44.9969C91.7683 45.1652 91.3828 45.4674 91.1123 45.8624C90.7755 46.3718 90.8534 47.5949 90.4513 47.9338C90.1018 48.2286 89.4956 48.1907 89.1019 48.4243C88.3925 48.8454 88.4514 49.5864 88.9419 50.1611C89.1524 50.4074 89.5166 50.6726 89.304 50.98C89.1861 51.1505 88.7588 51.2263 88.5756 51.3021C88.2346 51.441 87.8556 51.5779 87.6199 51.8789C87.2641 52.3336 87.5693 52.8936 87.2325 53.3378C86.9694 53.683 86.4683 53.7841 86.2747 54.2114C86.1105 54.5756 86.2368 54.7987 86.3968 55.1229C86.5104 55.3503 86.7125 55.4071 86.6473 55.7292C86.5989 55.9734 86.2726 56.2471 86.1378 56.4555C85.9273 56.7692 85.7505 57.1249 85.82 57.5081C85.8714 57.6824 85.948 57.8484 86.0473 58.0007C86.1042 58.1249 86.2852 58.3691 86.2578 58.5165C86.2431 58.6112 86.0705 58.6849 86.0326 58.7817C85.7042 59.6238 86.0326 60.1943 86.9673 60.3921C87.4451 60.4932 89.024 60.4742 87.9714 61.1058C87.5904 61.3352 87.2283 61.6237 87.203 62.1057C87.1336 63.4215 88.6261 63.5162 89.5061 63.1309L88.904 62.8867L88.843 63.5183C88.643 63.7646 88.7419 64.2467 89.1314 64.2172C89.2753 64.1685 89.4325 64.1784 89.5692 64.2446C89.7882 64.2825 89.7685 64.3239 89.5103 64.3688C89.4935 64.4046 89.3356 64.4761 89.2998 64.5161C89.2024 64.6252 89.1338 64.7568 89.1004 64.8991C89.0669 65.0414 89.0696 65.1898 89.1082 65.3308C89.205 65.9245 89.5945 66.5644 89.824 67.1181L90.6829 69.1896L91.186 68.6864C90.6786 68.5307 90.1018 68.6233 89.8113 69.1285C89.4724 69.7222 89.8261 70.0885 90.1313 70.5348C90.1755 70.5979 90.4218 70.6505 90.426 70.6927C90.4576 70.9726 89.9903 71.0947 89.8197 71.1579C89.4871 71.2842 89.1882 71.2863 88.9166 71.5326C88.7207 71.6891 88.5914 71.9142 88.5551 72.1624C88.5187 72.4105 88.578 72.6632 88.7209 72.8694L89.0745 72.2526C88.8231 72.2295 88.5711 72.2901 88.3576 72.4248C88.1441 72.5595 87.981 72.7609 87.8935 72.9978C87.683 73.482 87.8493 74.1367 87.582 74.5872C87.3441 74.9851 86.8515 75.1577 86.4452 75.3135C84.9295 75.8945 84.0853 76.4313 83.938 78.1638C83.8853 78.7701 83.3654 78.9575 83.2264 79.5869C83.1631 79.869 83.1814 80.1633 83.2791 80.4354C83.3767 80.7075 83.5497 80.9462 83.778 81.1237C84.4811 81.7194 86.8115 83.2288 87.0683 81.3974C87.1294 80.9616 86.5841 80.6605 86.321 81.0816C85.8663 81.81 85.761 83.172 86.8368 83.4478C87.6536 83.6583 88.4872 82.8541 88.1883 82.0542L87.4409 82.3699C87.5504 82.607 87.7148 82.8145 87.9204 82.9753C88.1261 83.1361 88.3672 83.2456 88.6237 83.2945C88.8801 83.3435 89.1446 83.3307 89.3951 83.257C89.6455 83.1833 89.8748 83.051 90.0639 82.871L89.4219 82.7889C89.8534 83.7193 90.8534 84.0056 91.7586 83.6078L91.2618 83.5446C91.4464 83.7875 91.6991 83.97 91.9878 84.069C92.2764 84.1679 92.5879 84.1789 92.8827 84.1004C92.9515 84.0822 93.0143 84.0462 93.0646 83.9959C93.1149 83.9456 93.1509 83.8828 93.169 83.8141C93.2851 83.3658 93.2959 82.8968 93.2006 82.4436L92.6975 82.9467C93.0911 83.0533 93.5023 83.0784 93.9059 83.0205C94.3095 82.9626 94.697 82.8228 95.0447 82.6099C95.4384 82.3636 95.6468 81.9784 96.0973 81.871C96.5478 81.7636 97.0194 81.9573 97.4762 81.89C99.3077 81.6268 100.268 79.7174 99.5813 78.0523L99.295 78.5554C100.246 78.4095 101.134 77.9887 101.849 77.3449C102.48 76.7618 103.339 76.7808 103.916 76.0524C104.623 75.1556 105.442 71.9999 103.417 72.1894L103.771 72.8062C104.661 71.1221 102.771 70.1222 102.535 68.5959L102.348 69.0591C102.754 68.8191 103.493 71.6126 103.701 71.9726C103.873 72.2852 104.109 72.5579 104.394 72.7727C104.679 72.9875 105.006 73.1396 105.354 73.2188C107.128 73.5388 107.503 71.5894 107.44 70.2716L107.031 70.68C107.357 70.7174 107.685 70.6573 107.976 70.5074C108.267 70.3575 108.507 70.1245 108.665 69.838C109.086 69.1369 108.899 68.6254 108.554 67.9707C108.097 67.1034 108.937 66.4171 109.141 65.5856C109.218 65.3055 109.211 65.0089 109.12 64.733C109.042 64.5224 108.305 63.733 108.377 63.6488C108.716 63.2488 108.139 62.6678 107.798 63.0699C107.652 63.2191 107.561 63.4128 107.539 63.62C107.516 63.8272 107.564 64.036 107.674 64.213C107.861 64.554 108.168 64.6782 108.274 65.0719C108.402 65.5519 108.137 65.874 107.926 66.2992C107.716 66.7244 107.482 67.2234 107.566 67.737C107.617 68.0486 107.808 68.2254 107.935 68.4991C108.242 69.1664 107.848 69.9474 107.036 69.8527C106.928 69.8559 106.826 69.8999 106.75 69.9758C106.675 70.0517 106.63 70.1538 106.627 70.2611C106.671 71.1726 106.472 72.9978 105.091 72.2441C104.173 71.7431 104.053 70.5348 103.775 69.6401C103.529 68.8527 102.893 67.7791 101.941 68.3433C101.865 68.3904 101.805 68.4607 101.771 68.5441C101.738 68.6274 101.732 68.7193 101.754 68.8064C101.926 69.9201 103.665 71.2631 103.072 72.3852C102.939 72.6357 103.099 73.0315 103.425 73.002C103.752 72.9725 103.8 74.2756 103.733 74.5072C103.652 74.8514 103.509 75.178 103.312 75.4713C102.844 76.1029 102.377 75.8566 101.851 76.1534C101.449 76.3808 101.162 76.9092 100.743 77.1681C100.236 77.4729 99.674 77.674 99.0887 77.7597C98.9857 77.791 98.8986 77.8606 98.8454 77.9542C98.7921 78.0478 98.7768 78.1582 98.8024 78.2628C99.1266 79.0585 99.0845 79.9722 98.4046 80.5911C97.5899 81.33 96.9583 80.8879 96.0405 80.9363C95.6194 80.9574 95.4616 81.1279 95.1711 81.4079C94.5121 82.0394 93.8722 82.372 92.9312 82.1468C92.8619 82.1312 92.7898 82.1334 92.7216 82.1532C92.6534 82.1729 92.5913 82.2096 92.5411 82.2598C92.4909 82.3101 92.4542 82.3722 92.4344 82.4403C92.4147 82.5085 92.4125 82.5806 92.428 82.6499C92.6414 83.2113 92.4512 83.313 91.8575 82.9552C91.7924 82.8928 91.709 82.8531 91.6195 82.8417C91.5301 82.8303 91.4394 82.848 91.3607 82.892C91.2464 82.9378 91.1242 82.9605 91.0011 82.9589C90.8781 82.9573 90.7565 82.9314 90.6434 82.8827C90.5304 82.834 90.428 82.7635 90.3423 82.6751C90.2566 82.5867 90.1892 82.4823 90.1439 82.3678C90.1108 82.3157 90.0665 82.2715 90.0144 82.2384C89.9622 82.2053 89.9034 82.1841 89.8422 82.1763C89.7809 82.1684 89.7186 82.1742 89.6598 82.1931C89.601 82.212 89.5471 82.2436 89.5019 82.2857C89.0282 82.7194 88.3988 82.4857 88.1651 81.951C87.9798 81.53 87.2557 81.831 87.4178 82.2668C86.8115 82.1264 86.688 81.8682 87.0473 81.4921L86.2999 81.1763C86.2073 81.8436 84.9842 80.9553 84.8263 80.8353C84.1948 80.3595 83.5864 79.6143 84.5884 79.1659C84.6524 79.1317 84.7059 79.0807 84.743 79.0184C84.7801 78.9561 84.7994 78.8848 84.799 78.8122C84.759 77.8312 84.8263 76.9492 85.7652 76.4587C86.2662 76.1976 86.8346 76.0882 87.3399 75.8271C87.7417 75.6494 88.0817 75.3563 88.3167 74.9851C88.5714 74.5409 88.4493 72.9978 89.104 73.0567C89.1749 73.0536 89.2437 73.0325 89.3043 72.9956C89.3649 72.9587 89.4151 72.9071 89.4504 72.8456C89.4857 72.784 89.5048 72.7146 89.5061 72.6437C89.5074 72.5728 89.4907 72.5027 89.4577 72.4399C89.1861 72.0484 90.6092 71.8084 90.7355 71.7347C90.9727 71.6073 91.163 71.4074 91.2786 71.1642C91.3914 70.9489 91.4149 70.6978 91.3439 70.4653C91.2875 70.3548 91.222 70.2491 91.1481 70.1495L91.066 70.0864C90.7657 69.9937 90.7432 69.7832 90.9986 69.4548C91.2723 69.539 91.6302 69.2443 91.5018 68.9517L90.3271 66.116C90.266 65.9708 89.8682 65.255 89.9692 65.0635C90.0029 65.0024 90.4008 64.853 90.4871 64.7393C91.1186 63.8235 89.8724 63.3267 89.1651 63.3815L89.4535 64.0804C89.8155 63.6299 89.9334 63.2152 89.725 62.6552C89.7064 62.5959 89.6749 62.5415 89.6329 62.4959C89.5908 62.4502 89.5391 62.4145 89.4816 62.3911C89.424 62.3678 89.362 62.3575 89.3 62.3609C89.238 62.3643 89.1776 62.3814 89.1229 62.411C88.0549 62.2777 87.8185 62.0742 88.4135 61.8005C88.5539 61.7345 88.6865 61.6644 88.8114 61.59C88.9765 61.4952 89.1199 61.3668 89.2324 61.2132C89.3251 61.0765 89.3793 60.9174 89.3893 60.7525C89.3993 60.5877 89.3647 60.4232 89.2893 60.2764C89.0787 59.8701 88.6198 59.708 88.1946 59.6448C87.5272 59.5353 86.7336 59.8553 87.0178 58.9059C87.1357 58.5207 87.2515 58.3965 87.0978 57.9733C86.9441 57.5502 86.561 57.7628 86.7589 57.0471C86.8304 56.7881 87.1357 56.5418 87.2767 56.3166C87.4683 56.0071 87.6325 55.664 87.542 55.2892C87.4929 55.166 87.4338 55.047 87.3651 54.9335C87.1546 54.4219 87.1546 54.4682 87.5967 54.1104C87.8914 53.8704 88.1819 53.6304 88.264 53.2367C88.3461 52.8431 88.1714 52.5504 88.4746 52.2431C88.6409 52.081 88.9861 52.0326 89.1987 51.9442C89.8303 51.6789 90.4997 51.2453 90.2345 50.4495C90.1124 50.0832 89.2535 49.5569 89.5419 49.1275C89.7208 48.8622 90.5839 48.8285 90.8913 48.637C91.0806 48.519 91.2399 48.3588 91.3568 48.1688C91.4737 47.9789 91.5449 47.7644 91.5649 47.5423C91.6428 47.0223 91.5649 46.5908 91.9438 46.1529C92.1242 45.9495 92.3573 45.8 92.6174 45.7208C92.8775 45.6417 93.1544 45.636 93.4175 45.7045C93.4952 45.721 93.5759 45.7152 93.6505 45.6878C93.725 45.6603 93.7903 45.6123 93.8387 45.5494C93.8871 45.4864 93.9168 45.411 93.9242 45.3319C93.9316 45.2528 93.9165 45.1733 93.8806 45.1024C93.7401 44.8565 93.7003 44.5657 93.7693 44.2911C93.8384 44.0164 94.011 43.7791 94.2511 43.6288C94.7037 43.3678 95.3647 43.5993 95.851 43.5741C96.7857 43.5257 97.9562 42.7531 98.7856 43.5404C98.8449 43.5927 98.9177 43.6272 98.9957 43.6401C99.0737 43.6529 99.1538 43.6435 99.2267 43.613C99.2996 43.5825 99.3625 43.532 99.4081 43.4674C99.4537 43.4028 99.4802 43.3267 99.4845 43.2478C99.4845 43.0057 100.676 43.3046 100.882 43.2794C101.36 43.2204 101.388 42.9404 101.724 42.7215C103.03 41.8794 102.987 44.6035 104.017 44.8814C104.155 44.9121 104.298 44.9104 104.436 44.8764C104.573 44.8425 104.701 44.7772 104.808 44.6856C105.173 44.433 105.179 44.0688 105.84 44.2646C106.036 44.3214 106.261 44.6203 106.429 44.7403C106.588 44.8673 106.761 44.9754 106.945 45.0624C107.347 45.235 107.4 45.0814 107.577 45.5719C107.787 46.1424 107.187 46.6771 107.263 47.3423C107.266 47.4496 107.31 47.5517 107.386 47.6276C107.462 47.7035 107.564 47.7475 107.671 47.7507C108.377 47.7675 109.196 47.4602 109.876 47.6602C111.052 48.0096 110.134 49.0959 109.991 49.8243C109.749 51.0537 110.833 52.3862 110.278 53.5399C110.242 53.6107 110.227 53.6903 110.234 53.7694C110.241 53.8485 110.271 53.9239 110.32 53.9868C110.368 54.0498 110.433 54.0978 110.508 54.1252C110.582 54.1527 110.663 54.1585 110.741 54.1419C111.566 54.0051 112.25 54.8893 111.781 55.6156C111.522 56.0218 110.894 56.0618 110.518 56.3124C110.284 56.4726 110.095 56.6891 109.967 56.9419C109.839 57.1946 109.777 57.4756 109.787 57.7586C109.789 57.8207 109.806 57.8816 109.834 57.9368C109.863 57.992 109.904 58.0401 109.953 58.0778C110.003 58.1154 110.06 58.1416 110.121 58.1545C110.182 58.1674 110.244 58.1666 110.305 58.1523C110.726 58.0912 111.017 58.7585 111.025 59.0764C111.025 59.4301 110.859 59.8301 110.755 60.1711C110.631 60.5972 110.547 61.0342 110.505 61.4763C110.36 62.8152 109.179 62.9499 108.034 62.9499C107.507 62.9499 107.505 63.773 108.034 63.7688L108.038 63.7835Z" fill="#FFC736"/>
<path d="M59.3274 71.6466C59.6908 72.0112 60.1192 72.3047 60.5905 72.5118C61.6283 73.0444 62.6957 73.5833 63.8345 73.7875C64.2643 73.8577 64.6982 73.8992 65.1334 73.9117C66.1055 73.9884 67.0836 73.9124 68.0322 73.6864C68.9711 73.4275 69.8637 72.8886 70.3795 72.0634C70.6274 71.6378 70.8118 71.1782 70.9268 70.6992C71.1574 69.854 71.3096 68.9894 71.3815 68.1162C69.1143 68.7604 66.8449 69.4067 64.5313 69.8614C63.8072 70.0045 63.0767 70.1266 62.363 70.314C61.155 70.6285 59.9991 71.1171 58.9316 71.7644" fill="#FFC736"/>
<path d="M59.0397 71.935C59.9933 72.8781 61.4606 73.4928 62.7216 73.916C64.2127 74.3744 65.7887 74.4867 67.3298 74.2444C68.555 74.0675 69.7949 73.5497 70.557 72.5329C71.4643 71.3203 71.6622 69.5857 71.8011 68.1121C71.7988 68.0499 71.7827 67.989 71.754 67.9339C71.7253 67.8787 71.6847 67.8305 71.6352 67.7929C71.5857 67.7552 71.5284 67.729 71.4676 67.7162C71.4067 67.7033 71.3438 67.704 71.2833 67.7184C69.0792 68.3499 66.873 68.9815 64.6268 69.4257C62.5343 69.8467 60.5954 70.3161 58.7323 71.4066C58.2776 71.674 58.6902 72.3813 59.1534 72.114C61.0796 70.9835 63.0816 70.5877 65.2331 70.1351C67.3382 69.6909 69.4286 69.0994 71.5064 68.5078L70.9885 68.1142C70.8664 69.3773 70.6896 71.0319 69.8749 72.0676C69.0118 73.1686 67.5761 73.4802 66.2456 73.5181C65.1317 73.584 64.0149 73.4521 62.9469 73.1286C61.848 72.756 60.4607 72.1813 59.627 71.3582C59.2523 70.9877 58.6734 71.5687 59.0481 71.9371L59.0397 71.935Z" fill="#FF76B8"/>
<path d="M70.8681 69.053C69.2661 71.4676 66.8872 73.3307 63.8916 73.4149C63.3653 73.4296 63.3632 74.257 63.8916 74.2338C67.1862 74.1412 69.8071 72.1286 71.5754 69.4656C71.868 69.0256 71.1544 68.6236 70.8681 69.0446V69.053Z" fill="#FF76B8"/>
<path d="M55.2229 73.7136L54.0504 73.4546C53.897 73.428 53.7482 73.3798 53.6083 73.3115C53.3992 73.1641 53.2084 72.9924 53.0399 72.7999C52.7894 72.5705 52.4715 72.421 52.2336 72.1684C51.9521 71.8585 51.7791 71.4654 51.741 71.0485C51.7045 70.6347 51.7129 70.2183 51.7663 69.8064C51.7668 69.6799 51.8025 69.5559 51.8694 69.4485C51.9667 69.3455 52.0942 69.2761 52.2336 69.2507C52.8541 69.0738 53.4876 68.9464 54.1283 68.8696C54.3848 68.8145 54.6523 68.8417 54.8924 68.9475C55.1871 69.1138 55.3029 69.4717 55.3956 69.7896C55.605 70.4345 55.74 71.1012 55.7976 71.7768C55.8542 72.4581 55.6751 73.1381 55.2903 73.703" fill="#FF76B8"/>
<path d="M55.3321 73.3095C54.949 73.2253 54.5321 73.1748 54.1595 73.0506C53.7259 72.9074 53.4396 72.5895 53.0901 72.3096C52.6144 71.9264 52.2733 71.6443 52.1617 70.9917C52.1178 70.7543 52.1107 70.5114 52.1407 70.2718C52.2081 69.8339 52.2691 69.7286 52.6565 69.5602C53.1263 69.377 53.6258 69.2814 54.1301 69.2781C54.7448 69.3181 54.9427 69.6823 55.0942 70.2297C55.3995 71.3412 55.5995 72.4822 54.9384 73.499C54.65 73.9411 55.3595 74.3537 55.6458 73.92C56.5068 72.5938 56.2773 70.7223 55.6668 69.3287C55.0647 67.9835 53.2543 68.455 52.1175 68.8676C50.9808 69.2802 51.1155 70.9728 51.5365 71.8696C51.8418 72.5306 52.5596 73.0064 53.1049 73.4548C53.6501 73.9032 54.4269 73.96 55.1047 74.1095C55.6184 74.2231 55.8373 73.4337 55.3153 73.32L55.3321 73.3095Z" fill="#FFC736"/>
<path d="M58.7152 69.6361C58.7152 69.0214 58.071 68.6866 57.5216 68.693C56.89 68.693 56.4016 69.114 56.4374 69.7729C56.469 70.3181 56.7174 70.9034 57.2921 71.0613C57.8668 71.2191 58.3131 70.796 58.6204 70.3455C58.9278 69.895 58.2099 69.5034 57.9131 69.9245C57.8415 70.0297 57.7131 70.2571 57.5679 70.2697C57.4226 70.2823 57.3068 70.0592 57.2774 69.9287C57.2353 69.735 57.1953 69.5729 57.4121 69.5077C57.4858 69.4887 57.8963 69.4887 57.8963 69.6171C57.8963 70.1434 58.7089 70.1434 58.7152 69.6171V69.6361Z" fill="#FF76B8"/>
<path d="M59.4863 65.6404C60.0757 64.6967 60.5849 63.7052 61.0084 62.6764C61.3052 61.9564 61.562 61.2028 61.9851 60.5586C62.3788 59.9481 62.903 59.4365 63.364 58.8745C64.0799 57.9489 64.7138 56.9628 65.2587 55.9272C66.347 56.3209 67.3491 57.0451 67.9048 58.0598C68.3785 58.9229 68.5048 59.9249 68.6227 60.9017C68.6917 61.3779 68.7261 61.8584 68.7258 62.3395C68.6774 64.2679 67.5364 65.9836 66.3533 67.5098C65.886 68.114 65.3197 68.7539 64.5597 68.8255" fill="#FFC736"/>
<path d="M59.8505 65.8468C60.3703 65.0054 60.831 64.129 61.2294 63.2238C61.5894 62.3986 61.861 61.5228 62.3494 60.7629C62.8693 59.9587 63.5935 59.3019 64.1577 58.5251C64.6931 57.756 65.185 56.9576 65.6313 56.1336L65.1681 56.321C67.7428 57.3294 68.5596 60.0829 68.3154 62.6786C68.2059 63.849 67.6564 64.9353 67.0249 65.9079C66.4165 66.8447 65.6439 68.2088 64.4692 68.434C63.9514 68.533 64.1703 69.3203 64.6798 69.2235C66.006 68.973 66.827 67.6488 67.5322 66.611C68.3322 65.4342 69.0058 64.1206 69.1258 62.6807C69.2458 61.2407 69.0164 59.4745 68.4311 58.1841C67.8459 56.8936 66.6965 56.0473 65.3808 55.5337C65.2937 55.5114 65.2017 55.5175 65.1184 55.5512C65.0351 55.585 64.9647 55.6445 64.9176 55.721C64.4728 56.5458 63.9808 57.3443 63.444 58.1125C62.8777 58.8872 62.1599 59.5419 61.6357 60.3503C61.1452 61.1081 60.8715 61.986 60.5158 62.8112C60.1187 63.717 59.6579 64.5935 59.1369 65.4342C58.8611 65.8847 59.5684 66.2973 59.8442 65.8552L59.8505 65.8468Z" fill="#FF76B8"/>
<path d="M47.7597 53.8052C47.0671 54.363 46.9408 55.4156 47.2145 56.2577C47.4881 57.0997 48.0839 57.8007 48.667 58.4723C49.3638 59.2764 50.067 60.089 50.928 60.7143C51.4079 61.0637 51.93 61.3458 52.4016 61.7016C52.6292 61.8943 52.8812 62.0564 53.151 62.1837C53.4626 62.2874 53.7923 62.3254 54.1194 62.2952C54.9576 62.2599 55.7874 62.1126 56.5866 61.8574C56.6432 61.8424 56.6967 61.8174 56.7445 61.7837C56.7766 61.7491 56.8015 61.7084 56.8178 61.6641C56.8341 61.6199 56.8415 61.5728 56.8395 61.5256C56.8376 61.4785 56.8263 61.4322 56.8064 61.3894C56.7865 61.3466 56.7583 61.3082 56.7234 61.2763C56.5754 61.1536 56.3999 61.0684 56.2119 61.0279C54.6436 60.5248 53.4268 59.3038 52.2753 58.1249L47.9513 53.7041" fill="#FF76B8"/>
<path d="M47.4688 53.5209C45.5973 55.3439 47.4099 57.6701 48.7319 59.1648C49.6939 60.2574 50.7234 61.0342 51.9149 61.851C52.9822 62.5836 53.6369 62.8004 54.9547 62.632C55.5863 62.5499 57.1588 62.5099 57.2578 61.6299C57.363 60.6742 55.8115 60.4658 55.2473 60.1332C53.9969 59.3964 53.0053 58.2722 52.0033 57.2449L48.2561 53.4051C47.8877 53.0283 47.3088 53.6156 47.6772 53.984C49.2329 55.5797 50.7781 57.186 52.3485 58.7669C52.9096 59.3501 53.5141 59.8899 54.1569 60.3816C54.3821 60.5479 56.1778 61.4341 56.1462 61.5647C56.1062 61.7352 54.6221 61.8531 54.4895 61.8636C53.9235 61.9383 53.3488 61.8204 52.858 61.5289C51.9855 61.0161 51.1654 60.4189 50.4097 59.7458C49.1571 58.5817 46.2625 55.8471 48.0561 54.0998C48.4351 53.7314 47.8456 53.1525 47.4772 53.5209H47.4688Z" fill="#FFC736"/>
<path d="M55.6564 53.3756C54.8679 52.8613 53.986 52.5072 53.0607 52.3335C52.766 52.2788 52.4292 52.2557 52.2061 52.4662C52.104 52.5833 52.0318 52.7235 51.9955 52.8746C51.7975 53.4867 51.6614 54.1172 51.5892 54.7566C51.5429 55.1587 51.5324 55.5986 51.764 55.9334C51.9955 56.2681 52.3955 56.4091 52.7787 56.5354C53.1135 56.67 53.4704 56.7414 53.8312 56.7459C54.0311 56.7112 54.2355 56.7112 54.4354 56.7459C54.6207 56.8028 54.768 56.9565 54.9596 56.9859C55.0661 56.9947 55.1729 56.9742 55.2686 56.9267C55.3643 56.8792 55.4453 56.8065 55.5027 56.7165C55.615 56.5351 55.6928 56.3346 55.7322 56.1249C55.9111 55.4155 56.0858 54.6513 55.8038 53.9693" fill="#FF76B8"/>
<path d="M55.863 53.022C55.0209 52.4915 52.859 51.2579 51.9158 52.18C51.4106 52.6705 51.3306 53.6809 51.2317 54.3335C51.139 54.9461 51.0506 55.6513 51.4422 56.1861C51.8043 56.6871 52.4821 56.906 53.0547 57.0513C53.4252 57.146 53.7642 57.0786 54.1263 57.1313C54.4526 57.1776 54.722 57.3986 55.0525 57.3881C56.4398 57.346 56.4756 54.7672 56.1851 53.862C56.0251 53.363 55.2357 53.5757 55.3957 54.0725C55.5557 54.5693 55.6209 55.2198 55.3957 55.7019C55.376 56.1117 55.1199 56.3397 54.6273 56.386C54.5636 56.3484 54.4908 56.3287 54.4168 56.3292C53.6126 56.4155 52.1348 56.2429 51.9643 55.2451C51.8485 54.5672 52.1116 52.8052 52.9474 52.7189C53.7347 52.641 54.8125 53.3252 55.4462 53.7188C55.8946 53.9967 56.3072 53.2978 55.8672 53.0115L55.863 53.022Z" fill="#FFC736"/>
<path d="M53.9936 53.3253C54.2736 54.0663 54.6252 55.7399 53.8736 56.3041C53.4526 56.6178 53.8736 57.3272 54.2946 57.0115C55.442 56.1483 55.2504 54.3274 54.7894 53.1085C54.6062 52.6201 53.8147 52.8327 53.9999 53.319L53.9936 53.3253Z" fill="#FFC736"/>
<path d="M63.6507 50.4938C63.5202 51.5558 63.5393 52.6307 63.7075 53.6874C63.718 53.8065 63.7555 53.9216 63.817 54.0242C63.9012 54.1252 64.0089 54.2039 64.1306 54.2536C64.5671 54.474 65.0099 54.681 65.459 54.8747C65.88 55.0536 66.3579 55.2178 66.7537 55.0052C67.0294 54.8578 67.1873 54.5652 67.4021 54.34C67.7894 53.94 68.362 53.761 68.7536 53.3632C68.9262 53.1874 69.0567 52.9747 69.1353 52.7413C69.2139 52.5078 69.2385 52.2595 69.2073 52.0151C69.1761 51.7707 69.0899 51.5366 68.9551 51.3304C68.8204 51.1241 68.6406 50.9511 68.4294 50.8243C68.1683 50.6686 67.8673 50.5865 67.621 50.4033C67.4418 50.2352 67.2489 50.0824 67.0442 49.9465C66.7832 49.8442 66.499 49.8165 66.2232 49.8665C65.3363 49.9528 64.4591 50.1191 63.6023 50.3633C63.5796 50.3639 63.5574 50.37 63.5376 50.3811C63.5178 50.3923 63.501 50.4081 63.4888 50.4272C63.4765 50.4463 63.4691 50.4681 63.4673 50.4908C63.4654 50.5134 63.4691 50.5361 63.478 50.557L64.0043 53.4326C64.0101 53.5023 64.0373 53.5685 64.0822 53.6221C64.1255 53.6516 64.1749 53.6707 64.2268 53.678C64.2786 53.6853 64.3314 53.6806 64.3812 53.6642L67.3136 53.1484C67.3811 53.1422 67.4461 53.1199 67.5031 53.0832C67.6231 52.9906 67.6105 52.8053 67.5768 52.6621C67.3999 51.8559 67.04 51.0412 67.2168 50.2349" fill="#FF76B8"/>
<path d="M63.2399 50.4936C63.1178 51.6514 62.762 53.8724 63.922 54.6071C64.5072 54.9776 65.4103 55.4196 66.1113 55.4954C66.7555 55.567 67.0481 55.2849 67.4881 54.8639C68.4165 53.9987 69.8459 53.4492 69.5933 51.9019C69.5114 51.4061 69.2517 50.9571 68.8628 50.6388C68.5133 50.3504 68.0796 50.2178 67.7134 49.9547C67.555 49.8078 67.3806 49.6793 67.1934 49.5715C66.6229 49.3168 65.9408 49.4747 65.3493 49.5715C64.844 49.6494 63.6651 49.7042 63.2694 50.0873C62.8736 50.4704 63.141 51.0283 63.2252 51.4956C63.3389 52.1146 63.3073 53.3587 63.7199 53.8366C63.943 54.0955 64.1704 54.0723 64.4819 54.066C64.9556 54.066 65.4798 53.8913 65.9556 53.8071C66.4313 53.7229 67.0081 53.7208 67.4292 53.5482C67.766 53.4113 67.9533 53.3019 68.0123 52.8956C68.1386 52.0303 67.5113 51.1567 67.6313 50.2347C67.6986 49.7147 66.8797 49.7189 66.8123 50.2347C66.7599 50.6168 66.7692 51.0049 66.8397 51.3841C66.8945 51.6872 67.2144 52.304 67.1576 52.5924C67.2895 52.8114 67.185 52.8885 66.8439 52.824L66.1113 52.9524C65.6756 53.0282 65.084 53.2471 64.6377 53.2113C64.4314 53.4092 64.3388 53.3804 64.3598 53.125L64.2462 52.5082C64.1914 52.2135 63.8125 51.1125 63.9451 50.8641C64.1977 50.3904 66.0755 50.182 66.5029 50.2599C66.9934 50.3504 68.4565 51.243 68.6712 51.664C69.3343 52.9587 67.7997 53.3776 67.1113 54.0492L66.705 54.5271C66.4805 54.6163 66.2375 54.6489 65.9974 54.6221C65.7573 54.5953 65.5275 54.5099 65.3282 54.3734C65.0545 54.2534 64.5556 54.1187 64.3346 53.8997C63.6673 53.2387 63.9662 51.3609 64.0567 50.4936C64.1114 49.9694 63.2925 49.9736 63.2378 50.4936H63.2399Z" fill="#FFC736"/>
<path d="M75.6723 66.1226C74.6324 66.2489 73.6472 65.6784 72.7546 65.131C72.1567 64.7626 71.4915 64.31 71.3926 63.6153C71.2936 62.9206 71.7504 62.3228 72.1862 61.7986L73.7672 59.885C74.2998 59.2429 74.8366 58.5882 75.1776 57.8262L76.066 59.4703C76.4357 60.1008 76.7384 60.7683 76.9691 61.4618C77.1905 62.2371 77.2325 63.0526 77.0921 63.8466C76.9517 64.6406 76.6325 65.3923 76.1586 66.0447" fill="#FF76B8"/>
<path d="M75.6727 65.7121C74.6601 65.7626 73.7907 65.3079 72.9613 64.7753C72.6707 64.59 72.2813 64.3816 72.075 64.0953C71.4434 63.2112 72.1297 62.5186 72.6076 61.9249C73.6181 60.6618 74.8138 59.4892 75.5295 58.0304H74.8222C75.4811 59.2514 76.3442 60.5123 76.6516 61.8786C76.7929 62.5603 76.791 63.2639 76.6461 63.9448C76.5011 64.6258 76.2162 65.2691 75.8095 65.8342C75.5106 66.2699 76.22 66.6762 76.5169 66.2552C77.3689 65.0461 77.7287 63.5581 77.5231 62.0933C77.2873 60.4787 76.2958 59.0324 75.5359 57.6262C75.4977 57.5671 75.4453 57.5185 75.3835 57.4849C75.3218 57.4512 75.2525 57.4336 75.1822 57.4336C75.1118 57.4336 75.0426 57.4512 74.9808 57.4849C74.9191 57.5185 74.8667 57.5671 74.8285 57.6262C74.1738 58.9608 73.1023 60.0555 72.1655 61.2049C71.5908 61.906 70.8498 62.7017 70.995 63.6848C71.1214 64.5395 71.8729 65.0721 72.5529 65.4994C73.517 66.1057 74.5128 66.6068 75.6769 66.552C76.2011 66.5247 76.2053 65.71 75.6769 65.7331L75.6727 65.7121Z" fill="#FFC736"/>
<path d="M74.4664 65.8616C76.3358 64.5985 76.5947 62.2134 76.7084 60.1293C76.7358 59.603 75.919 59.6051 75.8895 60.1293C75.7948 61.8745 75.6432 64.0806 74.0538 65.1564C73.6201 65.449 74.0285 66.1584 74.4748 65.8637L74.4664 65.8616Z" fill="#FFC736"/>
<path d="M67.1825 58.4976C66.9236 61.6553 67.1825 65.5141 63.5827 66.8109C63.0901 66.9877 63.3027 67.7792 63.7932 67.6003C64.5502 67.3389 65.2446 66.9233 65.8327 66.3797C66.4208 65.8362 66.8898 65.1766 67.2099 64.4426C67.9762 62.6553 67.8414 60.3922 67.9951 58.4871C68.0372 57.9629 67.2204 57.965 67.1762 58.4871L67.1825 58.4976Z" fill="#FF76B8"/>
<path d="M57.5415 67.1434C57.1816 67.3496 56.7916 67.498 56.3857 67.5833C56.1824 67.6241 55.9725 67.6172 55.7723 67.5632C55.5721 67.5091 55.3872 67.4094 55.2321 67.2718C55.1058 67.1317 55.0002 66.9744 54.9184 66.8044C54.6406 66.295 54.3564 65.7519 54.3964 65.1687C54.4553 64.314 55.1858 63.6825 55.8594 63.1541C56.1113 62.9352 56.3953 62.7563 56.7015 62.6236C56.8548 62.5586 57.0208 62.5291 57.187 62.5375C57.3533 62.5459 57.5155 62.5919 57.6614 62.672C57.8114 62.776 57.9388 62.9092 58.0362 63.0636C58.5563 63.821 58.8056 64.7319 58.7435 65.6487" fill="#FFC736"/>
<path d="M57.3332 66.7834C56.9795 66.9582 56.5416 67.2045 56.1353 67.1876C55.5164 67.1666 55.3354 66.7456 55.1038 66.2824C54.6259 65.3204 54.8365 64.5983 55.588 63.9078C56.1838 63.3542 57.2574 62.5353 57.8384 63.5226C58.202 64.1682 58.3716 64.905 58.3268 65.6446C58.31 66.1708 59.1289 66.1708 59.1457 65.6446C59.1815 64.5309 58.8405 62.67 57.6363 62.2153C56.5206 61.7942 55.2575 62.9647 54.607 63.7478C53.7165 64.8172 53.906 66.1582 54.7017 67.2529C55.4975 68.3476 56.6953 68.015 57.7437 67.4929C58.2152 67.2592 57.8005 66.5519 57.3226 66.7856L57.3332 66.7834Z" fill="#FF76B8"/>
<path d="M59.1243 55.4893C57.6213 55.8535 58.3854 58.3017 59.8085 57.8597C60.3895 57.6786 60.7011 57.0176 60.7116 56.4471C60.7222 55.8282 60.1748 55.1609 59.5075 55.4324C59.0254 55.6282 59.238 56.4218 59.718 56.2218C59.9959 56.1082 59.8611 56.9755 59.5727 57.0639C59.177 57.1944 58.8591 56.3839 59.3349 56.2682C59.8464 56.144 59.6296 55.3545 59.1243 55.4787V55.4893Z" fill="#FF76B8"/>
<path d="M67.4754 48.2202C68.1448 48.0096 68.3048 48.4917 68.6627 48.9022C68.8755 49.143 69.1721 49.2935 69.4921 49.3232C70.1363 49.4117 71.012 49.2812 71.1762 48.5507C71.2983 48.0391 70.5089 47.8202 70.3868 48.3401C70.3447 48.5212 69.9658 48.5149 69.8079 48.5233C69.6934 48.5379 69.577 48.522 69.4706 48.4773C69.3641 48.4326 69.2713 48.3606 69.2016 48.2686C69.0692 48.0618 68.9177 47.868 68.749 47.6896C68.5416 47.5238 68.2956 47.413 68.0339 47.3678C67.7722 47.3225 67.5033 47.3442 67.2522 47.4307C66.7512 47.5886 66.9659 48.378 67.4627 48.2202H67.4754Z" fill="#FF76B8"/>
<path d="M72.2122 55.1146C72.1364 55.0047 72.0375 54.9126 71.9225 54.8448C71.8074 54.777 71.679 54.7352 71.5461 54.7222C71.4132 54.7091 71.2791 54.7252 71.1531 54.7694C71.027 54.8135 70.9122 54.8847 70.8165 54.9778C70.4502 55.2999 70.0397 56.0998 70.3449 56.5672C70.6502 57.0345 71.3238 57.2808 71.8185 57.0556C72.4038 56.784 72.5195 56.1377 72.549 55.5567C72.5764 55.0304 71.7575 55.0325 71.7301 55.5567C71.7133 55.9019 71.6585 56.523 71.187 56.2219L71.0733 56.1419C71.0312 56.1209 71.0361 56.1104 71.088 56.1104C71.1035 55.9966 71.1461 55.8883 71.2123 55.7946C71.2291 55.7651 71.448 55.4325 71.5133 55.5251C71.8143 55.9462 72.5238 55.5441 72.2206 55.1041L72.2122 55.1146Z" fill="#FF76B8"/>
<path d="M49.7268 65.1582C48.8553 65.2803 48.3669 65.9581 48.3164 66.8023C48.2659 67.6465 48.1059 68.7917 48.7542 69.419C49.1311 69.7874 49.71 69.2085 49.3332 68.8401C48.9563 68.4717 49.1226 67.7412 49.1226 67.2928C49.1226 66.6402 49.1542 66.0571 49.9352 65.9476C50.4552 65.8739 50.2342 65.0845 49.7247 65.1582H49.7268Z" fill="#FF76B8"/>
<path d="M73.3399 70.4276C73.6178 70.4392 73.8895 70.3426 74.0977 70.1582L74.8261 69.6214C74.9177 69.5646 74.9839 69.4749 75.0113 69.3707C75.0388 69.2666 75.0252 69.1559 74.9735 69.0614C74.9167 68.9699 74.827 68.9036 74.7229 68.8762C74.6187 68.8488 74.508 68.8623 74.4135 68.914L73.8388 69.3351C73.6978 69.4403 73.5272 69.6277 73.342 69.6045C73.2347 69.6077 73.1326 69.6517 73.0567 69.7277C72.9808 69.8036 72.9368 69.9056 72.9336 70.0129C72.9368 70.1202 72.9808 70.2223 73.0567 70.2982C73.1326 70.3741 73.2347 70.4181 73.342 70.4213L73.3399 70.4276Z" fill="#FF76B8"/>
<path d="M55.2752 50.7483C56.1468 50.8536 56.7488 51.2262 57.6562 51.102C58.5635 50.9778 59.6687 50.8452 60.4813 50.4705C61.4896 50.0073 61.4623 48.559 61.0076 47.7022C60.275 46.3191 58.8182 46.3633 57.5193 46.8117C55.8984 47.3696 55.4815 48.8285 54.8837 50.2852C54.6837 50.7715 55.4752 50.9841 55.6731 50.4957C56.1426 49.3526 56.4562 48.0559 57.7383 47.5948C58.8098 47.2075 60.1802 47.1528 60.4518 48.559C60.7234 49.9652 59.1066 49.9884 58.1635 50.1673C57.4899 50.2957 56.9425 50.3568 56.2689 50.1673C55.9427 50.0571 55.6083 49.9727 55.2689 49.9147C54.7468 49.8516 54.751 50.6705 55.2689 50.7336L55.2752 50.7483Z" fill="#FF76B8"/>
<path d="M56.0934 48.656C56.0491 49.1549 55.9755 50.8579 56.8765 50.6601C57.8385 50.4495 57.7985 49.1864 58.1522 48.5254H57.4449L57.9796 49.4538C58.0177 49.5129 58.0701 49.5615 58.1319 49.5951C58.1937 49.6288 58.2629 49.6464 58.3332 49.6464C58.4036 49.6464 58.4728 49.6288 58.5346 49.5951C58.5964 49.5615 58.6487 49.5129 58.6869 49.4538L59.67 47.4434C59.9016 46.9718 59.1942 46.5571 58.9627 47.0224L57.9796 49.0328H58.6869L58.1522 48.1044C58.114 48.0453 58.0617 47.9967 57.9999 47.9631C57.9381 47.9294 57.8689 47.9118 57.7985 47.9118C57.7282 47.9118 57.659 47.9294 57.5972 47.9631C57.5354 47.9967 57.483 48.0453 57.4449 48.1044C57.3027 48.3926 57.1993 48.6984 57.1375 49.0138C57.1061 49.1937 57.0472 49.3677 56.9628 49.5296L56.8154 49.7212C56.5965 49.8741 56.5579 49.9134 56.6996 49.839L57.0533 50.0496C56.8217 49.6727 56.8744 49.0707 56.9123 48.6538C56.9586 48.1297 56.1397 48.1318 56.0934 48.6538V48.656Z" fill="#FF76B8"/>
<path d="M80.8463 35.9744C81.3555 35.9497 81.8647 36.0211 82.3473 36.1849C82.8483 36.3512 83.0631 35.5534 82.5578 35.3955C82.0049 35.2107 81.4224 35.13 80.84 35.1576C80.3158 35.1829 80.3116 35.9997 80.84 35.9765L80.8463 35.9744Z" fill="#FFC736"/>
<path d="M79.1939 36.8736L80.878 37.3389C81.3874 37.4799 81.6043 36.6905 81.0885 36.5494L79.4044 36.0842C78.8949 35.9431 78.6781 36.7326 79.1939 36.8736Z" fill="#FFC736"/>
<path d="M86.5899 12.9969C88.8298 12.6327 91.1329 12.4833 93.3622 12.9022C95.5916 13.3211 97.7557 14.3506 99.2566 16.0599C100.758 17.7693 101.49 19.9987 102.158 22.1649C102.42 22.9541 102.623 23.762 102.764 24.5816C103.225 27.693 101.962 30.7729 100.726 33.6632C100.166 34.9726 99.5914 36.3052 98.6504 37.3746C97.7094 38.444 96.3999 39.2187 95.1347 39.9492C94.2683 40.4819 93.3568 40.9377 92.4107 41.3112C91.3559 41.657 90.2702 41.9002 89.1687 42.0375C87.1562 42.3512 85.1205 42.6691 83.0912 42.4712C81.0618 42.2733 79.0156 41.5386 77.6367 40.0397" fill="#FF76B8"/>
<path d="M86.7002 13.3927C90.519 12.7948 94.8493 12.818 97.9923 15.4031C99.3564 16.5252 100.249 18.0535 100.885 19.6787C101.504 21.2596 102.108 22.9753 102.358 24.6595C102.655 26.6846 102.182 28.7077 101.516 30.6107C100.885 32.3896 100.177 34.2421 99.2217 35.8736C98.266 37.5051 96.8218 38.5008 95.2219 39.4313C93.622 40.3618 92.0221 41.1323 90.159 41.4712C86.1445 42.2017 81.0942 43.0248 77.9302 39.7597C77.5639 39.3808 76.985 39.9702 77.3513 40.3386C80.168 43.2437 84.3509 43.1616 88.0707 42.6248C90.279 42.307 92.3652 41.9428 94.3483 40.8712C95.9608 39.9997 97.7165 39.065 98.9417 37.6693C100.272 36.1557 100.99 34.16 101.735 32.3159C102.531 30.3476 103.228 28.2803 103.272 26.1373C103.312 24.0679 102.607 22.0301 101.918 20.1039C101.325 18.4408 100.552 16.8072 99.3185 15.5168C96.0113 12.0559 90.8979 11.9128 86.4771 12.6033C85.9592 12.6854 86.1782 13.4727 86.6876 13.3927H86.7002Z" fill="#FFC736"/>
<path d="M93.7617 38.0418C94.9372 37.3537 96.2025 36.8323 97.5215 36.4924C98.0309 36.3598 97.8141 35.5703 97.311 35.7029C95.9233 36.0622 94.5922 36.612 93.3554 37.3365C92.9007 37.6018 93.3133 38.3091 93.7764 38.0439L93.7617 38.0418Z" fill="#FFC736"/>
<path d="M82.5164 40.4143C83.8475 40.4833 85.1811 40.3412 86.4677 39.9933C86.9772 39.8585 86.7604 39.067 86.2572 39.2038C85.0413 39.5289 83.7815 39.6589 82.5248 39.5891C81.9985 39.5617 82.0006 40.3806 82.5248 40.408L82.5164 40.4143Z" fill="#FFC736"/>
<path d="M96.7852 25.6549C96.7852 26.1539 96.9031 26.8191 96.7852 27.3012V27.6275C96.2084 28.259 95.9277 28.285 95.9432 27.7054C95.8253 27.0864 95.9305 27.5369 96.0863 27.0738C96.2088 26.7962 96.3033 26.5071 96.3684 26.2107C96.395 25.9517 96.395 25.6908 96.3684 25.4318L96.3221 25.0697C96.1607 24.6487 96.3558 24.4571 96.9073 24.495C96.8757 25.0213 97.6946 25.0192 97.7262 24.495C97.781 23.5435 96.7789 22.7919 95.9389 23.4424C95.4148 23.8466 95.459 24.4803 95.5053 25.0718C95.5495 25.6213 95.6695 26.1433 95.3874 26.6612C95.2421 26.9286 94.9895 27.1285 94.8548 27.4022C94.2885 28.5495 95.539 28.9874 96.4589 28.8548C98.0378 28.6274 97.6062 26.838 97.602 25.6613C97.602 25.135 96.781 25.1329 96.7831 25.6613L96.7852 25.6549Z" fill="#FFC736"/>
<path d="M103.836 31.5685C103.977 31.3917 104.279 31.3896 104.481 31.3349C104.713 31.2762 104.942 31.2059 105.167 31.1243C105.593 30.9627 106.006 30.7663 106.401 30.537C106.857 30.2739 106.445 29.5665 105.979 29.8297C105.491 30.1165 104.97 30.3433 104.428 30.5054C104.02 30.6254 103.533 30.6423 103.249 30.998C102.923 31.4064 103.5 31.9896 103.828 31.5769L103.836 31.5685Z" fill="#FFC736"/>
<path d="M103.871 29.7789C105.012 29.7368 105.766 28.9369 106.429 28.0948C106.751 27.6843 106.174 27.1012 105.85 27.5159C105.345 28.1622 104.764 28.9285 103.871 28.9621C103.347 28.9811 103.343 29.8042 103.871 29.781V29.7789Z" fill="#FFC736"/>
<path d="M92.7021 63.0741C92.6646 62.8233 92.6848 62.5673 92.761 62.3254C92.8372 62.0836 92.9676 61.8623 93.1421 61.6783C93.3526 61.4426 93.2347 60.9352 92.8537 60.9794C92.3042 61.0426 92.7547 60.6468 93.0263 60.5184C93.3632 60.3965 93.7264 60.366 94.0789 60.43C94.582 60.4826 94.5694 59.7879 94.1883 59.6258C93.3463 59.2743 94.4894 58.2069 94.5778 57.7164C94.6473 57.3396 94.4431 56.7881 94.6367 56.4386C95.0472 55.6997 95.8851 55.7102 96.5861 55.8787C96.9714 55.9713 97.3166 56.1334 97.6829 55.9186C97.9418 55.7671 97.9292 55.605 98.1039 55.4092C98.586 54.8892 99.2407 54.7292 99.8028 55.2492C100.188 55.6071 100.769 55.0387 100.382 54.6703C100.038 54.3358 99.5837 54.1384 99.1046 54.1151C98.6255 54.0919 98.1543 54.2444 97.7797 54.544C97.7461 54.5735 97.4198 54.9819 97.3945 54.9945C96.9419 55.2471 96.424 54.9608 95.963 54.9334C95.4355 54.8846 94.9076 55.0216 94.4704 55.3208C94.2633 55.4772 94.0927 55.6769 93.9706 55.9059C93.8484 56.135 93.7776 56.3879 93.7631 56.647C93.7063 57.1796 93.7842 57.4365 93.46 57.8491C93.3694 57.9649 93.2326 58.0596 93.1442 58.1838C92.54 59.0701 93.0747 60.0405 93.9589 60.411L94.0684 59.6069C93.2389 59.5206 91.8369 59.7416 91.5422 60.6994C91.2727 61.571 92.1485 61.8741 92.8368 61.7941L92.5632 61.0994C92.3149 61.3606 92.1257 61.6721 92.0084 62.0128C91.8911 62.3535 91.8484 62.7154 91.8832 63.0741C91.9274 63.5961 92.7463 63.6003 92.7021 63.0741Z" fill="#FFC736"/>
<path d="M96.1389 71.316C96.3831 70.8949 96.5235 71.0725 96.56 71.8486C96.452 72.0316 96.3591 72.2231 96.2821 72.4212C96.2453 72.4995 96.2336 72.5873 96.2486 72.6726C96.2635 72.7579 96.3044 72.8365 96.3656 72.8977C96.4268 72.9589 96.5054 72.9997 96.5906 73.0147C96.6759 73.0296 96.7637 73.0179 96.8421 72.9811C97.3403 73.0373 97.5789 73.2569 97.5578 73.64C97.5803 73.6932 97.5916 73.7504 97.5911 73.8081C97.5905 73.8658 97.5781 73.9228 97.5546 73.9755C97.5311 74.0282 97.497 74.0755 97.4545 74.1145C97.412 74.1535 97.3619 74.1833 97.3073 74.2021C97.0968 74.4505 96.3726 75.0231 95.9747 74.7979C95.8084 74.7031 95.6421 74.2316 95.4295 74.0821C95.0085 73.7895 94.3201 73.6358 94.0001 74.1305C93.9016 74.2941 93.865 74.4875 93.8969 74.6758C93.9285 74.8863 94.0169 74.9074 94.0717 75.0821C94.1706 75.4084 94.2506 76.0631 93.9791 76.3873C93.8233 76.5725 93.4822 76.6188 93.3054 76.842C93.0993 77.1164 93.0039 77.4583 93.038 77.7998C93.0549 78.3261 93.8801 78.3282 93.8569 77.7998C93.8422 77.3262 94.9095 76.8504 95.1306 76.3599C95.3032 75.9578 95.2506 75.6378 95.1516 75.2336C95.0716 74.9031 94.9411 74.8463 95.2485 75.1789C95.3558 75.2947 95.3874 75.4589 95.5411 75.5515C95.9116 75.7768 96.5284 75.5894 96.8968 75.4673C97.8694 75.1452 98.5283 74.5495 98.3704 73.4758C98.223 72.4654 97.402 71.8212 96.4273 72.2759L96.9873 72.8359C97.3031 72.1117 97.9683 71.2086 97.341 70.4423C96.7789 69.7539 96.0105 70.1771 95.56 70.7391C95.2337 71.1454 95.8105 71.7286 96.1389 71.3181V71.316Z" fill="#FFC736"/>
<path d="M49.0892 11.6856C44.3084 14.0434 39.5781 16.6117 34.6836 18.7232C32.2816 19.761 29.7239 20.3294 27.2819 21.2493C25.0724 22.1214 22.9262 23.1463 20.8591 24.3166C18.5561 25.5796 16.2804 26.8954 13.9921 28.1879C13.2363 28.609 12.6111 28.9184 12.4111 29.8026C12.2006 30.7667 12.2448 31.8804 12.2385 32.8656C12.2072 41.9255 15.6853 50.6455 21.9432 57.1969C22.3074 57.578 22.8864 56.999 22.5222 56.618C16.7429 50.5513 13.3831 42.5797 13.0763 34.2066C13.0441 33.2564 13.0532 32.3056 13.1037 31.3541C13.1395 30.6867 13.089 29.8657 13.6111 29.35C14.0152 28.95 14.8131 28.6637 15.2952 28.3858C17.3393 27.2301 19.375 26.0554 21.4359 24.927C23.5705 23.7587 25.7494 22.6556 28.0419 21.8325C30.2418 21.043 32.5216 20.4999 34.6815 19.5926C39.7339 17.4727 44.5884 14.7992 49.4976 12.3803C49.9691 12.1467 49.5565 11.4414 49.0766 11.673L49.0892 11.6856Z" fill="#FFC736"/>
<path d="M33.2822 46.616C29.866 49.2548 26.7588 52.2709 24.0195 55.6071C22.687 57.2365 21.5081 58.9985 20.0703 60.5374C18.5398 62.1731 16.641 63.3225 14.8074 64.5898C13.0843 65.7748 11.4879 67.1342 10.0434 68.6464C9.08348 69.659 7.76776 70.7347 8.76771 72.1283C9.97396 73.8125 11.5191 75.3934 12.9991 76.8376C14.5127 78.3112 16.241 79.4774 17.8683 80.8163C21.2365 83.5867 23.6238 87.7023 25.3984 91.6368C26.0679 93.123 26.451 95.4261 27.9246 96.3608C29.0024 97.0365 30.3603 96.7544 30.8718 95.5482C31.1099 94.9107 31.1459 94.2154 30.975 93.5567C30.7497 92.5041 29.8382 90.8916 30.8255 89.9779C32.4317 88.4854 34.6148 94.1335 35.1263 95.2008C36.8547 98.8196 38.5451 102.569 41.347 105.497C42.0699 106.259 42.8659 106.948 43.7238 107.554C44.2816 107.945 45.0226 108.489 45.7468 108.259C46.471 108.03 46.5194 107.31 46.7215 106.699C47.111 105.518 47.8688 104.512 48.6035 103.525C51.8721 99.1389 55.1491 94.7594 58.4346 90.3863C58.7503 89.9653 58.0409 89.5569 57.7272 89.9653L49.6603 100.744C48.4646 102.344 47.012 103.937 46.1973 105.781C46.0563 106.103 46.0057 106.508 45.8352 106.804C45.7216 107.002 45.4584 107.436 45.1405 107.436C44.9574 107.436 44.5995 107.15 44.4143 107.03C43.5499 106.455 42.7533 105.785 42.0396 105.032C39.2693 102.177 37.6041 98.5059 35.9136 94.9566C35.2716 93.6072 32.5938 86.5213 30.1371 89.4601C29.0845 90.7126 29.8213 92.2199 30.1371 93.5819C30.3855 94.6472 30.1076 96.4323 28.5498 95.7524C27.4278 95.2619 27.1288 93.7398 26.7162 92.702C25.3181 89.1448 23.3943 85.8175 21.0092 82.8309C19.8177 81.3573 18.403 80.1805 16.8999 79.0417C15.2263 77.7996 13.6672 76.4102 12.2412 74.8903C11.5528 74.1493 10.8918 73.3851 10.235 72.6167C9.94449 72.2757 9.39294 71.821 9.23926 71.3979C9.00348 70.7663 9.72134 70.1811 10.0961 69.7621C11.4889 68.2134 13.0461 66.8208 14.74 65.6087C16.4999 64.3456 18.3925 63.2614 19.9692 61.7626C21.5902 60.2216 22.8301 58.3396 24.2237 56.6028C27.0557 53.1025 30.2905 49.9483 33.8611 47.2054C34.2822 46.8833 33.6948 46.3086 33.2822 46.6265V46.616Z" fill="#FFC736"/>
<path d="M30.6165 89.0788C31.3254 87.8856 32.2659 86.8463 33.3827 86.0222C34.2858 85.3654 35.311 84.8896 36.1594 84.1549C38.0056 82.5571 38.995 79.8625 40.1297 77.7573C40.3802 77.2942 39.6729 76.8795 39.4224 77.3363C38.1761 79.652 37.1067 82.6202 34.8416 84.1128C32.869 85.4138 31.166 86.5885 29.9134 88.6557C29.6397 89.1083 30.3471 89.5188 30.6207 89.0767L30.6165 89.0788Z" fill="#FFC736"/>
<path d="M26.7971 53.4262C25.3235 49.9337 22.9362 46.9339 21.429 43.4646C20.6543 41.6815 19.7764 39.2017 20.2416 37.2312C20.5427 35.9555 22.05 35.886 23.1278 35.6103C24.1341 35.3513 25.1445 35.1008 26.1466 34.8229C29.0912 34.0358 31.8977 32.8019 34.4683 31.1642C37.0454 29.4746 39.5231 27.638 41.8889 25.6634C44.3632 23.6383 46.7638 21.5261 49.0907 19.3269C49.4738 18.9648 48.8949 18.3859 48.5117 18.748C43.9604 23.053 39.1228 27.2507 33.8199 30.6084C30.8264 32.5031 27.6581 33.6019 24.2351 34.484C23.2289 34.7429 22.2184 34.9892 21.2163 35.2671C20.57 35.4461 19.9322 35.6439 19.6248 36.2965C18.9638 37.7028 19.4248 39.8753 19.8059 41.3068C21.01 45.8203 24.2267 49.3927 26.0119 53.6451C26.2224 54.123 27.0055 53.9125 26.8013 53.4346L26.7971 53.4262Z" fill="#FFC736"/>
<path d="M73.058 10.0623C74.9459 9.49758 76.6578 8.4593 78.0311 7.04621C79.4044 5.63313 80.3933 3.89222 80.9039 1.98906C80.9183 1.92854 80.9191 1.86559 80.9062 1.80474C80.8933 1.74388 80.8671 1.68664 80.8295 1.63712C80.7918 1.58761 80.7437 1.54704 80.6885 1.51835C80.6333 1.48966 80.5724 1.47356 80.5103 1.47119C74.8029 1.71201 69.1872 2.99109 63.9385 5.24573C63.4564 5.45625 63.8733 6.15726 64.3596 5.95306C69.4791 3.76177 74.9547 2.52056 80.5187 2.2901L80.1166 1.77223C79.6451 3.53958 78.729 5.15677 77.4554 6.46974C76.1819 7.78272 74.5934 8.74774 72.8412 9.27289C72.3381 9.42235 72.5528 10.2139 73.0517 10.0623H73.058Z" fill="#FFC736"/>
<path d="M79.6947 2.40601C80.4856 3.18587 81.3206 3.91968 82.1956 4.60379C83.0924 5.30059 84.0902 5.8774 84.9555 6.61631C86.6775 8.08992 87.5995 10.2224 88.4795 12.2539C88.69 12.736 89.3931 12.3192 89.1868 11.8329C88.3237 9.8393 87.4101 7.76152 85.787 6.25423C85.0523 5.57216 84.1871 5.05429 83.3787 4.46695C82.2794 3.66242 81.2415 2.77721 80.2736 1.81867C79.8968 1.45027 79.3179 2.02918 79.6947 2.39759V2.40601Z" fill="#FFC736"/>
<path d="M90.6105 3.95313C95.5156 3.25633 100.911 1.79324 105.742 3.49842C110.298 5.10254 113.723 8.7192 116.957 12.159L117.354 11.4748L114.115 10.8054C113.247 10.6265 112.321 10.3296 111.426 10.3844C110.607 10.4349 109.86 10.7928 109.031 10.8054C107.986 10.7922 106.964 10.5079 106.062 9.98018C102.749 8.15712 101.119 4.471 98.1807 2.19112L97.6839 2.83319C98.6733 3.34264 99.7238 3.55315 100.806 3.77209C102.049 3.99179 103.228 4.4827 104.26 5.20991C106.302 6.66246 108.311 7.83924 110.761 8.47079C111.271 8.60131 111.489 7.81188 110.972 7.68136C108.445 7.03086 106.507 5.75093 104.385 4.31311C102.448 2.99739 100.115 3.18265 98.0902 2.13639C97.7028 1.94482 97.2081 2.48163 97.5891 2.78688C100.587 5.10254 102.252 8.83287 105.637 10.6959C107.008 11.4496 108.568 11.8306 110.119 11.5064C110.668 11.3906 111.184 11.1885 111.757 11.2075C112.388 11.2285 113.054 11.4285 113.681 11.559L117.129 12.2601C117.214 12.2754 117.302 12.2642 117.38 12.2279C117.459 12.1916 117.524 12.1321 117.568 12.0574C117.611 11.9826 117.631 11.8963 117.623 11.8102C117.616 11.7241 117.582 11.6423 117.527 11.5759C114.192 8.02029 110.662 4.36995 105.949 2.70478C100.983 0.946973 95.4229 2.44374 90.3832 3.15949C89.8632 3.23317 90.0843 4.0226 90.5937 3.94892L90.6105 3.95313Z" fill="#FFC736"/>
<path d="M13.1099 71.9368L15.9687 74.6945C16.3476 75.0608 16.9265 74.484 16.5476 74.1156L13.6888 71.3579C13.3099 70.9916 12.7309 71.5684 13.1099 71.9368Z" fill="#FFC736"/>
<path d="M18.3974 77.0358L20.5405 79.3957C20.8942 79.7873 21.4731 79.2062 21.1194 78.8168L18.9764 76.4674C18.6227 76.0759 18.0438 76.6569 18.3974 77.0463V77.0358Z" fill="#FFC736"/>
<path d="M23.0677 82.8919C23.7902 83.5595 24.3461 84.3872 24.6908 85.3086C24.8739 85.797 25.6654 85.5865 25.4802 85.0981C25.0925 84.0426 24.4623 83.0929 23.6403 82.3256C23.255 81.9678 22.674 82.5362 23.0614 82.9046L23.0677 82.8919Z" fill="#FFC736"/>
<path d="M34.1673 88.597C34.6066 88.7652 34.9986 89.0373 35.3098 89.3899C35.6211 89.7426 35.8423 90.1654 35.9546 90.6221C36.0851 91.1316 36.8745 90.9169 36.744 90.4116C36.591 89.8199 36.2961 89.2743 35.885 88.8221C35.4738 88.3698 34.9587 88.0245 34.3841 87.816C33.8894 87.6307 33.6768 88.4223 34.1736 88.6054L34.1673 88.597Z" fill="#FFC736"/>
<path d="M37.7883 93.8471C38.0068 94.6266 38.379 95.3545 38.883 95.9881C39.2072 96.4091 39.784 95.8197 39.4619 95.4092C39.0523 94.8806 38.7518 94.2759 38.5777 93.6303C38.4367 93.123 37.6472 93.3377 37.7883 93.8408V93.8471Z" fill="#FFC736"/>
<path d="M40.3292 99.2954C40.6711 99.9204 41.082 100.505 41.5544 101.038C41.9039 101.434 42.4807 100.853 42.1333 100.46C41.709 99.9768 41.3404 99.4479 41.0344 98.8827C40.7818 98.4196 40.0745 98.8322 40.3271 99.3038L40.3292 99.2954Z" fill="#FFC736"/>
<path d="M42.9697 103.55L44.157 104.88C44.5086 105.274 45.0854 104.693 44.736 104.301L43.5487 102.971C43.1971 102.577 42.6203 103.158 42.9697 103.55Z" fill="#FFC736"/>
<path d="M106.67 36.8905C107.39 36.8905 107.393 35.7705 106.67 35.7705C105.948 35.7705 105.948 36.8905 106.67 36.8905Z" fill="#FFC736"/>
<path d="M106.952 38.8631C107.672 38.8631 107.674 37.7432 106.952 37.7432C106.23 37.7432 106.23 38.8631 106.952 38.8631Z" fill="#FFC736"/>
<path d="M108.497 37.179C109.217 37.179 109.219 36.0591 108.497 36.0591C107.775 36.0591 107.775 37.179 108.497 37.179Z" fill="#FFC736"/>
<path d="M108.919 38.8631C109.638 38.8631 109.641 37.7432 108.919 37.7432C108.196 37.7432 108.196 38.8631 108.919 38.8631Z" fill="#FFC736"/>
<path d="M109.758 36.4691C110.478 36.4691 110.48 35.3491 109.758 35.3491C109.036 35.3491 109.036 36.4691 109.758 36.4691Z" fill="#FFC736"/>
<path d="M107.655 34.6527C108.375 34.6527 108.377 33.5327 107.655 33.5327C106.933 33.5327 106.933 34.6527 107.655 34.6527Z" fill="#FFC736"/>
<path d="M110.319 39.284C111.039 39.284 111.041 38.1641 110.319 38.1641C109.597 38.1641 109.597 39.284 110.319 39.284Z" fill="#FFC736"/>
<path d="M103.022 39.7049C103.742 39.7049 103.744 38.585 103.022 38.585C102.3 38.585 102.3 39.7049 103.022 39.7049Z" fill="#FFC736"/>
<path d="M72.0356 10.2177C75.2707 9.1995 78.7258 9.10472 82.0119 9.944C83.1697 10.2429 84.3275 10.6661 85.2601 11.4008C86.1927 12.1355 86.9211 13.1775 87.5 14.2469C89.0199 17.0552 89.8031 20.335 89.2578 23.4822C88.9694 25.1495 88.3231 26.7326 87.961 28.3851C87.5274 30.3556 87.4916 32.4312 86.7148 34.2922C85.6622 36.831 83.2855 38.6793 80.6709 39.5403C78.0563 40.4014 75.2186 40.3592 72.505 39.9087C71.4377 39.7319 70.362 39.4877 69.4252 38.9425C68.4884 38.3972 67.6968 37.5215 67.4863 36.4689" fill="#FF76B8"/>
<path d="M72.1441 10.6114C75.8597 9.48096 80.4342 9.31255 83.9919 11.0956C87.2907 12.7461 88.8695 17.4784 89.0085 20.9267C89.0906 22.9687 88.5222 24.8338 87.9559 26.7706C87.4191 28.621 87.2675 30.5156 86.857 32.3892C86.0592 36.0375 83.2172 38.5194 79.6532 39.4057C77.4765 39.9467 75.1818 39.9067 72.9756 39.5741C70.9273 39.2647 68.4538 38.6436 67.8664 36.3553C67.7359 35.8459 66.9465 36.0606 67.077 36.5659C68.0812 40.4878 73.7251 40.7762 76.9902 40.6035C80.731 40.4078 84.5814 38.8184 86.5602 35.4796C87.6928 33.5702 87.8233 31.3661 88.2001 29.2315C88.5938 27.0379 89.5221 24.9728 89.76 22.7476C90.1684 18.9415 88.8085 14.0786 85.916 11.4282C84.2551 9.90621 81.8847 9.36097 79.71 9.09572C77.0922 8.78993 74.4393 9.03371 71.921 9.81147C71.4178 9.96515 71.6326 10.7546 72.1315 10.6009L72.1441 10.6114Z" fill="#FFC736"/>
<path d="M104.846 36.619C105.566 36.619 105.568 35.499 104.846 35.499C104.124 35.499 104.124 36.619 104.846 36.619Z" fill="#FFC736"/>
<path d="M105.409 39.8377C106.129 39.8377 106.131 38.7178 105.409 38.7178C104.687 38.7178 104.687 39.8377 105.409 39.8377Z" fill="#FFC736"/>
<path d="M76.0426 103.928C74.8658 104.04 73.7943 103.318 72.786 102.699C71.4287 101.866 69.9923 101.169 68.4978 100.619C67.9546 100.419 67.382 100.236 66.8136 100.32C66.2452 100.404 65.679 100.83 65.6305 101.407C65.6361 101.541 65.6197 101.675 65.5821 101.804C65.4748 102.051 65.1611 102.11 64.8916 102.137C64.973 102.215 65.0369 102.309 65.079 102.414C65.1211 102.519 65.1406 102.631 65.136 102.744C65.1314 102.856 65.1029 102.967 65.0525 103.068C65.002 103.168 64.9307 103.257 64.8432 103.329C64.6643 103.457 64.4222 103.524 64.3317 103.729C64.3081 103.816 64.3042 103.908 64.3202 103.998C64.3362 104.087 64.3718 104.172 64.4243 104.246C64.9801 105.255 66.0347 105.901 67.1273 106.261C68.2199 106.621 69.3756 106.737 70.4956 106.958C73.2217 107.488 75.8026 108.627 78.5372 109.103C80.0702 109.337 81.618 109.459 83.1686 109.469C84.4043 109.503 85.6526 109.53 86.8631 109.276C88.3767 108.96 89.7619 108.223 91.1239 107.49C94.0312 105.928 96.9489 104.333 99.5446 102.291C102.14 100.249 104.386 97.6846 105.649 94.6279L101.439 98.1077C100.523 98.8929 99.5653 99.628 98.5699 100.31C95.4879 102.339 91.8334 103.291 88.2672 104.211C86.48 104.67 84.6211 105.133 82.8086 104.787C81.2704 104.468 79.7747 103.97 78.352 103.303C76.8784 102.651 74.5943 102.204 73.1375 102.91" fill="#FFC736"/>
<path d="M76.0412 103.52C74.5802 103.558 73.4118 102.563 72.1992 101.881C71.1542 101.293 70.0679 100.782 68.9489 100.352C68.13 100.036 67.1869 99.6891 66.3196 100.034C65.9353 100.176 65.6123 100.447 65.4059 100.801C65.1954 101.19 65.307 101.655 64.7744 101.737C64.4397 101.79 64.4207 102.213 64.5933 102.422C64.8586 102.744 63.9849 103.373 63.9134 103.725C63.8039 104.255 64.2502 104.796 64.5786 105.162C65.5828 106.28 67.0648 106.743 68.4963 107.017C70.3681 107.351 72.22 107.789 74.0434 108.329C75.757 108.857 77.4663 109.381 79.2494 109.617C82.6176 110.063 86.2743 110.249 89.4278 108.809C92.8551 107.255 96.1088 105.343 99.1347 103.106C102.038 100.925 104.558 98.207 105.983 94.8325C106.018 94.7472 106.024 94.6528 106 94.5638C105.976 94.4747 105.924 94.3959 105.851 94.3395C105.778 94.2831 105.689 94.2522 105.596 94.2515C105.504 94.2508 105.414 94.2804 105.341 94.3357C102.876 96.3735 100.471 98.6954 97.72 100.346C95.1033 101.916 92.1435 102.769 89.211 103.535C87.6258 103.956 86.0006 104.453 84.3502 104.493C82.784 104.531 81.2346 104.032 79.7904 103.47C77.58 102.609 75.2749 101.55 72.9129 102.554C72.4287 102.765 72.8455 103.466 73.3339 103.262C76.1233 102.078 79.1526 104.314 81.7924 104.979C84.7649 105.733 87.6384 104.824 90.512 104.038C93.2634 103.287 96.0254 102.388 98.4547 100.86C101.132 99.1754 103.497 96.9229 105.928 94.9146L105.286 94.4178C102.629 100.704 96.4885 104.156 90.7604 107.223C89.1184 108.101 87.4742 108.88 85.5943 109.034C83.9102 109.171 82.1545 109.063 80.4767 108.924C76.9969 108.638 73.8392 107.158 70.4351 106.52C68.751 106.205 66.1743 106.099 65.1154 104.497C64.7723 103.979 64.8733 103.895 65.2207 103.531C65.3498 103.401 65.4464 103.242 65.5028 103.068C65.5615 102.854 65.5637 102.628 65.5091 102.413C65.4545 102.198 65.3449 102.001 65.1912 101.841L65.0101 102.525C65.9196 102.384 65.8627 101.906 66.2606 101.232C66.9827 100.007 69.3826 101.371 70.3341 101.824C72.1508 102.689 73.9507 104.392 76.0559 104.335C76.5822 104.32 76.5843 103.493 76.0559 103.516L76.0412 103.52Z" fill="#FFC736"/>
<path d="M82.2358 109.307C83.2949 108.514 84.5565 108.035 85.8756 107.926C86.3977 107.884 86.4019 107.065 85.8756 107.108C84.4114 107.214 83.007 107.732 81.8232 108.6C81.4022 108.91 81.8106 109.619 82.2442 109.307H82.2358Z" fill="#FF76B8"/>
<path d="M90.791 106.257L91.5615 105.767L90.791 106.257Z" fill="#FFC736"/>
<path d="M90.9971 106.611L91.7676 106.12C91.8614 106.064 91.9292 105.974 91.956 105.868C91.9828 105.762 91.9666 105.65 91.9107 105.556C91.8549 105.462 91.7641 105.394 91.6583 105.368C91.5525 105.341 91.4403 105.357 91.3466 105.413L90.5761 105.903C90.4823 105.959 90.4145 106.05 90.3876 106.156C90.3608 106.262 90.3771 106.374 90.4329 106.468C90.4887 106.561 90.5796 106.629 90.6854 106.656C90.7912 106.683 90.9033 106.667 90.9971 106.611Z" fill="#FFC736"/>
<path d="M92.9744 105.518C93.5007 105.518 93.5028 104.699 92.9744 104.699C92.446 104.699 92.446 105.518 92.9744 105.518Z" fill="#FF76B8"/>
<path d="M63.9792 104.169C63.6462 103.909 63.4137 103.542 63.3214 103.13C63.2291 102.718 63.2828 102.287 63.4733 101.91C63.6637 101.534 63.9791 101.235 64.3656 101.065C64.752 100.895 65.1854 100.865 65.5917 100.979" fill="#FFC736"/>
<path d="M64.2667 103.88C63.1404 102.891 63.9488 101.047 65.473 101.373C65.9866 101.482 66.2056 100.695 65.6835 100.583C63.4141 100.097 61.8942 102.889 63.6815 104.457C64.0751 104.804 64.6562 104.227 64.2604 103.878L64.2667 103.88Z" fill="#FFC736"/>
<path d="M60.0234 101.952C60.9586 101.688 61.9447 101.662 62.8928 101.874L60.0234 101.952Z" fill="#FFC736"/>
<path d="M60.1332 102.346C60.999 102.112 61.9076 102.085 62.7857 102.268C63.2993 102.373 63.5204 101.586 62.9962 101.478C61.9756 101.262 60.9184 101.289 59.91 101.556C59.4006 101.691 59.6174 102.48 60.1205 102.346H60.1332Z" fill="#FFC736"/>
<path d="M108.837 18.6681C106.865 16.8345 104.444 15.7209 101.844 15.1188C100.665 14.8704 99.536 14.4249 98.5052 13.801C97.5284 13.1989 96.5768 12.5947 95.478 12.2326C94.1664 11.8011 92.6844 11.74 91.3182 11.6306C90.1645 11.5379 88.2362 11.1927 87.5099 12.3779L89.914 13.3926C90.8277 9.77593 88.1457 6.88976 85.3795 5.01197C83.948 4.03939 82.4639 3.17627 81.2976 1.87318C80.7482 1.25848 80.2177 0.770084 79.3862 0.589041C78.3904 0.378525 77.2663 0.58904 76.2726 0.730085C74.2874 0.985598 72.3317 1.43329 70.4329 2.06686C68.5025 2.71735 66.7742 3.26679 64.7154 3.32995C62.7428 3.38468 60.7745 3.2689 58.8209 3.52573C56.9733 3.77465 55.186 4.35592 53.5454 5.24143C51.9813 6.08349 50.7814 7.38026 49.6004 8.67914C48.5646 9.81803 47.4005 11.3695 48.0341 12.9884L48.6383 11.5022C45.95 13.0263 43.247 14.5251 40.4282 15.8177C37.3 17.2555 34.0601 18.3839 30.7971 19.4702C27.6268 20.5227 24.5006 21.6742 21.5345 23.2236C18.6946 24.7078 15.7516 26.5919 12.4823 26.895C11.8002 26.9561 11.1308 27.4487 11.1666 28.2107C11.4739 34.7178 12.3097 41.3869 14.1412 47.6539C15.4948 52.2853 17.9304 57.0977 22.8354 58.6828L21.9155 57.064C21.2503 60.4196 17.3915 61.8721 14.798 63.4952C12.9685 64.6322 11.2357 65.9179 9.6172 67.3392C7.97728 68.7918 7.48678 70.6064 8.60041 72.5726C9.47615 74.1178 10.8634 75.4777 12.0802 76.7556C13.297 78.0334 14.5685 79.2628 15.8232 80.5027C18.221 82.8753 20.6356 85.3088 22.3492 88.2434C23.2008 89.7131 23.826 91.3028 24.2038 92.9589C24.6248 94.7146 25.2964 96.5524 27.17 97.1692C27.5355 97.2998 27.9234 97.3563 28.3109 97.3354C28.6985 97.3145 29.0781 97.2166 29.4275 97.0475C29.7768 96.8784 30.0891 96.6415 30.3459 96.3504C30.6027 96.0594 30.7991 95.7202 30.9234 95.3525C31.374 94.0389 30.8813 92.7 31.134 91.3843C31.2497 90.8033 31.5908 90.6391 32.1529 90.9064C32.9002 91.2622 33.2496 92.2221 33.5444 92.9358C34.3165 94.8543 35.1885 96.7312 36.1569 98.5586C37.157 100.401 38.2751 102.178 39.504 103.876C40.0752 104.666 40.6682 105.438 41.2829 106.192C41.9292 106.992 42.5818 107.916 43.4575 108.487C45.4869 109.806 46.8763 108.105 48.0594 106.619C49.4235 104.908 50.74 103.161 52.0087 101.377C53.2774 99.5937 54.5068 97.7552 55.6969 95.8619C56.2169 95.0304 56.7389 94.1989 57.2168 93.3358C57.3557 93.0852 57.6968 92.3842 57.8147 92.3505C58.0252 92.2937 58.6799 92.6284 58.8672 92.6937C59.3577 92.8705 59.8503 93.0452 60.3408 93.2115C61.3822 93.5638 62.4348 93.8866 63.4986 94.1799C65.5918 94.7605 67.7213 95.2015 69.873 95.4998C74.1529 96.0901 78.4981 96.0191 82.7565 95.2893C90.6589 93.9275 98.0421 90.4418 104.115 85.2057C109.564 80.4922 113.746 74.4252 116.523 67.8002C122.43 53.7105 121.938 36.2061 112.925 23.4889C111.709 21.7656 110.342 20.1531 108.841 18.6702C107.633 17.4808 105.772 19.3396 106.98 20.5311C117.94 31.3285 120.058 48.557 115.576 62.7752C111.218 76.6019 100.568 87.7866 86.4911 91.7611C78.4746 94.0241 70.2477 93.5799 62.3386 91.1043C61.345 90.7927 60.364 90.4475 59.3914 90.0959C58.6715 89.8391 57.882 89.6012 57.1137 89.797C55.7979 90.1338 55.2885 91.4811 54.6675 92.5337C52.5478 96.1189 50.2175 99.5752 47.6889 102.885C47.0517 103.727 46.4005 104.558 45.7353 105.377C45.5374 105.624 45.2006 106.261 44.8932 106.375C45.1248 106.289 45.0722 106.558 44.8196 106.226C44.6554 106.015 44.4196 105.824 44.2385 105.617C42.934 104.122 41.7333 102.54 40.645 100.881C39.5181 99.1826 38.4986 97.4158 37.5926 95.5904C36.7716 93.9315 36.2326 92.0853 35.3001 90.4896C34.4685 89.0665 33.0033 87.9845 31.3003 88.1739C29.7004 88.355 28.7488 89.637 28.5636 91.1548C28.5026 91.7965 28.4935 92.4421 28.5362 93.0852C28.5488 93.441 28.7067 94.3673 28.3952 94.6346C27.3721 95.5146 26.6563 91.7716 26.53 91.3169C24.7301 84.8457 19.3598 80.3806 14.8317 75.7809C13.6165 74.588 12.4749 73.3226 11.4129 71.9916C10.8361 71.2422 10.2698 70.4801 10.9919 69.6633C11.6887 68.8802 12.6297 68.2276 13.4633 67.6003C16.2716 65.4951 19.7304 64.1289 22.2523 61.6637C23.3695 60.6164 24.1425 59.2547 24.469 57.7587C24.5525 57.4223 24.5035 57.0668 24.3323 56.7655C24.1611 56.4643 23.8807 56.2403 23.5491 56.1398C19.3177 54.7673 17.4968 50.0138 16.4547 46.0898C14.9074 40.2627 14.097 34.2189 13.8128 28.196L12.4907 29.5223C15.859 29.2191 18.8251 27.6403 21.7534 26.0824C24.8817 24.4506 28.1423 23.0858 31.5003 22.0027C34.818 20.8974 38.1041 19.7354 41.2934 18.2976C44.268 16.9566 47.1226 15.3798 49.9582 13.7715C50.4193 13.5084 50.7687 12.8158 50.5624 12.2853C50.2382 11.4579 51.5287 10.4433 52.036 9.91487C52.9644 8.95702 53.8001 8.05602 55.0043 7.43079C57.9873 5.8856 61.0882 6.01823 64.3427 5.95718C65.8873 5.96491 67.4261 5.76885 68.9193 5.37405C70.5445 4.9025 72.0918 4.24148 73.7465 3.84571C74.5675 3.64993 75.3948 3.48783 76.2305 3.36363C76.9421 3.25837 77.9778 2.9826 78.6894 3.14049C79.2599 3.26679 79.6998 4.04991 80.1251 4.44358C80.6568 4.92722 81.2194 5.37586 81.8092 5.78666C83.9712 7.32132 88.2047 9.36542 87.3626 12.6874C86.9963 14.1357 88.9814 14.982 89.7667 13.702C89.5726 13.8856 89.361 14.0499 89.1351 14.1925C89.1351 14.2325 89.1057 14.1589 89.2741 14.1925C89.5314 14.2067 89.7893 14.2067 90.0467 14.1925C90.7266 14.2115 91.4066 14.2704 92.0844 14.3357C93.3665 14.4599 94.257 14.4599 95.478 15.0683C96.3011 15.4788 97.0442 16.0324 97.8462 16.4787C98.7702 16.9782 99.7583 17.3487 100.783 17.5797C103.073 18.1292 105.204 18.8954 106.97 20.5269C108.216 21.6806 110.081 19.8238 108.837 18.6681Z" fill="#FFC736"/>
<path d="M70.9718 9.29611C70.1908 7.78882 68.7235 6.71941 67.1341 6.11944C65.5448 5.51947 63.8291 5.34895 62.1323 5.27738C61.0824 5.20368 60.0275 5.24745 58.9872 5.4079C56.6168 5.82893 54.5664 7.26043 52.5981 8.64773C51.9244 9.12349 51.2381 9.60978 50.735 10.2624C49.8066 11.4665 49.6172 13.0643 49.4719 14.5779C49.1604 17.5925 48.8698 20.7545 50.0403 23.548C50.4929 24.6279 51.1497 25.6132 51.636 26.6784C52.6507 28.9014 52.8844 31.3876 53.4107 33.7748C53.6212 34.7453 53.9012 35.7284 54.4864 36.5326C55.5895 38.0483 57.5831 38.6377 59.4546 38.7261C64.0712 38.9367 68.6246 36.562 71.4708 32.9201C72.1498 32.059 72.7296 31.124 73.1991 30.1329C73.8854 28.6593 74.2917 27.0931 74.6895 25.5268C75.039 24.1501 75.3885 22.7649 75.4685 21.346C75.7232 16.8915 73.3486 12.7591 71.0476 8.92561" fill="#FF76B8"/>
<path d="M71.3254 9.08768C69.7802 6.31098 66.694 5.26683 63.7005 4.97C61.9974 4.80159 60.2081 4.70475 58.5261 5.08158C56.9051 5.44577 55.4188 6.26046 54.04 7.16147C52.7769 7.98037 51.3033 8.84559 50.3812 10.0539C49.5097 11.2202 49.2655 12.6749 49.1055 14.0874C48.7413 17.2767 48.3855 20.7165 49.676 23.7522C50.3896 25.4363 51.4064 26.8994 51.9117 28.6719C52.4001 30.3813 52.6169 32.1496 53.0063 33.8822C53.3074 35.2253 53.7558 36.5557 54.8084 37.503C55.8083 38.4019 57.1388 38.8545 58.4503 39.0398C64.5068 39.8966 70.7023 35.9936 73.3863 30.6676C74.2431 28.9645 74.7105 27.1015 75.1715 25.2595C75.662 23.3038 76.0367 21.3502 75.803 19.3271C75.382 15.4558 73.3547 12.0054 71.3822 8.72559C71.1128 8.27509 70.4033 8.6856 70.6749 9.14663C72.2811 11.8286 73.9147 14.5821 74.6747 17.6472C75.4641 20.866 74.7252 23.9332 73.8495 27.0509C72.2285 32.8233 67.5508 37.5767 61.408 38.2609C58.5492 38.5767 55.1978 38.0125 54.1326 34.9579C53.2084 32.3054 53.2253 29.4256 52.118 26.8131C51.579 25.55 50.7707 24.4006 50.2823 23.108C49.697 21.5565 49.5581 19.885 49.5918 18.2388C49.6192 16.9104 49.7476 15.58 49.897 14.2579C50.0886 12.5738 50.4107 10.9655 51.7496 9.79712C54.4105 7.48145 57.7471 5.60997 61.3364 5.6647C64.7384 5.71733 68.7845 6.22888 70.6117 9.50871C70.8686 9.96974 71.5759 9.55713 71.3191 9.08768H71.3254Z" fill="#FFC736"/>
<path d="M58.1027 67.0237C59.2205 65.9248 60.5173 65.9375 61.8414 66.7079C62.9012 67.3267 63.676 68.3366 63.9992 69.5204C64.1445 70.0257 64.9339 69.8109 64.7886 69.3099C64.5749 68.5251 64.1902 67.7972 63.6621 67.1785C63.134 66.5598 62.4756 66.0655 61.7341 65.7312C60.1341 65.0238 58.7616 65.2238 57.5238 66.4385C57.1469 66.809 57.7343 67.3879 58.1027 67.0174V67.0237Z" fill="#FF76B8"/>
<path d="M64.4568 34.9346C65.1305 34.751 65.7473 34.4008 66.2502 33.9163C66.7531 33.4318 67.126 32.8286 67.3345 32.1621C67.4945 31.659 66.703 31.4443 66.5451 31.9516C66.3757 32.4839 66.0746 32.9648 65.6698 33.3497C65.265 33.7347 64.7696 34.0112 64.2294 34.1536C63.7221 34.2925 63.9368 35.082 64.4399 34.943L64.4568 34.9346Z" fill="#FFC736"/>
<path d="M52.6155 26.0784C52.8373 25.6041 53.0808 25.1409 53.346 24.689C53.6134 24.2343 52.9061 23.8217 52.6387 24.268C52.3714 24.7143 52.1314 25.1838 51.9082 25.6574C51.6851 26.1311 52.3924 26.5479 52.6155 26.0784Z" fill="#FFC736"/>
<path d="M53.8165 26.7115C54.0698 26.2272 54.3582 25.7622 54.6796 25.32C54.989 24.899 54.2796 24.478 53.9722 24.899C53.6509 25.3411 53.3624 25.8062 53.1091 26.2905C52.8649 26.7558 53.5723 27.1705 53.8165 26.7115Z" fill="#FFC736"/>
<path d="M54.8551 27.11C55.0987 26.3641 55.4698 25.6661 55.9519 25.047C56.2739 24.6365 55.6971 24.0533 55.3729 24.468C54.7991 25.194 54.3567 26.0148 54.0656 26.8932C53.8993 27.3942 54.6972 27.6089 54.8551 27.1037V27.11Z" fill="#FFC736"/>
<path d="M56.2166 23.7667C56.7429 23.7667 56.745 22.9478 56.2166 22.9478C55.6882 22.9478 55.6882 23.7667 56.2166 23.7667Z" fill="#FFC736"/>
<path d="M66.2241 9.55474C66.1843 9.32362 66.0612 9.11508 65.8781 8.96848C65.6951 8.82188 65.4647 8.74736 65.2305 8.759C64.6094 8.77163 64.1779 9.33581 63.9 9.82841C62.7822 11.7841 65.3504 12.2093 65.8767 13.6177C66.0873 14.1713 66.2704 14.6955 66.8472 14.9545C67.0704 15.0735 67.3298 15.1058 67.5754 15.0452C67.821 14.9846 68.0355 14.8353 68.1777 14.6261C69.0197 13.4009 68.4155 11.2936 67.6366 10.2242C67.2156 9.64737 66.2451 10.2052 66.6704 10.7905C67.0932 11.3378 67.3484 11.9958 67.4051 12.6851C67.447 13.0279 67.4168 13.3756 67.3167 13.7061C67.0851 14.2577 67.0493 13.5335 66.9083 13.1756C66.7531 12.721 66.4782 12.3167 66.1125 12.0051C65.902 11.8199 65.622 11.7062 65.4073 11.5231C65.027 11.3154 64.8473 10.9427 64.8684 10.4052C64.9979 10.2464 65.0926 10.062 65.1463 9.8642C65.2726 10.5736 66.3525 10.2726 66.2262 9.56737L66.2241 9.55474Z" fill="#FFC736"/>
<path d="M70.0709 38.006C72.4644 38.3492 74.9569 38.5386 77.3147 37.8776C79.8409 37.1682 81.525 35.4083 83.1165 33.4294C83.4449 33.0231 82.8681 32.44 82.5376 32.8505C81.0324 34.7114 79.4767 36.4166 77.0979 37.0882C74.8896 37.7197 72.5318 37.5387 70.2877 37.2166C69.7719 37.1429 69.5509 37.9323 70.0772 38.006H70.0709Z" fill="#FFC736"/>
<path d="M82.4754 35.9956C82.0862 35.746 81.7148 35.4695 81.3639 35.1683C80.966 34.8273 80.385 35.402 80.785 35.7472C81.1877 36.0942 81.6139 36.4128 82.0607 36.7009C82.5049 36.9872 82.9154 36.2798 82.4817 35.9935L82.4754 35.9956Z" fill="#FFC736"/>
<path d="M81.5754 36.9915C81.0418 36.8099 80.5536 36.5155 80.1439 36.1284C79.7818 35.7431 79.205 36.322 79.565 36.7073C80.0576 37.2315 80.706 37.5115 81.3586 37.7809C81.4632 37.8066 81.5736 37.7912 81.6672 37.7379C81.7608 37.6847 81.8304 37.5976 81.8617 37.4946C81.8874 37.39 81.872 37.2796 81.8188 37.186C81.7655 37.0925 81.6784 37.0228 81.5754 36.9915Z" fill="#FFC736"/>
</svg>
