<svg width="681" height="681" viewBox="0 0 681 681" fill="none" xmlns="http://www.w3.org/2000/svg">
<path d="M271.349 145.29C227.199 195.74 191.289 264.74 198.999 333.65C206.529 400.76 250.799 460.32 312.329 487.77C377.829 517 455.569 509.48 514.239 468.2C566.719 431.28 599.049 370.13 605.469 306.82C609.019 271.82 604.519 235.74 591.169 203.14C579.419 174.45 560.679 144.35 531.269 131.47C524.563 128.351 517.308 126.584 509.919 126.27C506.489 126.2 506.499 131.52 509.919 131.59C523.219 131.88 537.419 138.85 547.519 147.32C560.249 157.99 570.249 173.17 578.039 187.67C594.599 218.49 602.039 253.87 601.249 288.73C599.999 349.95 573.399 411.05 526.999 451.49C474.929 496.87 400.879 511.77 335.209 490.83C272.139 470.71 222.899 418.41 207.839 353.75C192.499 287.9 220.169 220.75 259.329 168.48C264.329 161.8 269.619 155.34 275.119 149.06C277.369 146.49 273.619 142.71 271.359 145.3L271.349 145.29Z" fill="#2B2C2B"/>
<path d="M276.621 164.46C237.151 209.33 210.111 268.11 214.931 327.68C218.821 375.68 243.931 421.49 281.751 451.33C319.571 481.17 369.551 494.88 417.441 489.45C449.101 485.813 479.351 474.321 505.441 456.02C562.581 415.83 594.141 343.77 589.951 274.02C587.031 225.46 566.461 176.31 527.511 147.16" fill="#2B2C2B"/>
<path d="M274.871 162.71C233.821 209.65 205.161 272 213.271 335.5C221.001 395.7 260.511 449.22 315.361 474.93C374.001 502.44 444.001 498 498.791 463.44C548.341 432.22 580.791 378.27 590.011 320.91C599.121 264.29 585.851 200.91 544.781 159.01C539.799 153.956 534.451 149.277 528.781 145.01C526.241 143.08 523.781 147.39 526.281 149.29C572.141 184.02 591.151 244.8 587.381 300.58C583.611 356.36 557.491 411 514.001 446.49C465.391 486.12 398.151 498.28 338.661 478.85C281.571 460.21 236.841 413.19 222.011 354.85C206.781 294.94 227.821 232.9 263.621 184.5C268.291 178.19 273.251 172.11 278.411 166.21C280.501 163.82 277.011 160.3 274.901 162.7L274.871 162.71Z" fill="#2B2C2B"/>
<path d="M408.629 424C422.989 434 443.129 430 452.029 414.77C460.669 400 454.799 381.18 440.029 373.07C437.029 371.42 434.339 376.02 437.339 377.66C449.609 384.37 454.719 399.76 447.469 412.08C439.909 424.94 423.349 427.72 411.349 419.4C408.529 417.4 405.869 422.05 408.659 423.99L408.629 424Z" fill="#FFC736"/>
<path d="M432.171 386.51C446.341 395.83 435.171 416.51 419.521 410.81C416.301 409.63 414.911 414.81 418.111 415.94C422.626 417.68 427.631 417.656 432.13 415.874C436.629 414.091 440.292 410.681 442.391 406.32C446.641 397.32 442.931 387.22 434.861 381.91C431.991 380.02 429.321 384.63 432.171 386.5V386.51Z" fill="white"/>
<path d="M293.839 249.16C284.689 227.97 257.349 221.87 239.839 236.56C222.329 251.25 224.889 277.93 242.649 291.1C247.819 294.94 252.809 286.26 247.649 282.47C244.662 280.21 242.228 277.3 240.532 273.96C238.836 270.62 237.922 266.938 237.859 263.193C237.797 259.448 238.587 255.738 240.171 252.343C241.754 248.948 244.089 245.959 246.999 243.6C260.239 233.04 278.749 239.22 285.219 254.21C287.759 260.1 296.379 255.02 293.849 249.21L293.839 249.16Z" fill="#FFC736"/>
<path d="M403.401 269.06C387.661 252.58 368.011 240.72 344.791 239.82C320.961 238.89 296.931 247.39 277.131 260.3C242.231 283.07 218.461 322.45 224.271 364.94C226.961 384.61 235.741 403.68 250.271 417.37C267.541 433.59 292.511 442.03 315.271 447C338.031 451.97 360.971 451.13 382.351 441.5C400.838 433.132 416.464 419.523 427.291 402.36C455.071 358 436.661 304.71 403.381 269.06C401.041 266.55 397.281 270.32 399.621 272.82C427.351 302.53 446.191 346.39 429.621 386.27C414.491 423 375.931 447 336.431 444.69C323.811 443.96 311.431 441 299.431 437.18C288.431 433.69 277.591 429.59 267.671 423.69C250.734 413.511 238.241 397.339 232.671 378.38C220.881 339.58 237.111 299.87 267.201 274.32C285.531 258.75 309.121 247.63 333.201 245.45C346.201 244.28 359.201 245.82 371.091 251.39C382.001 256.51 391.391 264.17 399.671 272.83C402.001 275.31 405.761 271.54 403.401 269.06Z" fill="#FFC736"/>
<path d="M396.08 284.72C387.27 271.57 368.72 263.3 352.48 261.02C336.24 258.74 319.48 262.02 304.48 268.17C277.48 279.17 254.6 300.55 246.2 327.23C237.8 353.91 245.79 385.55 268.54 403.23C277.92 410.5 289.21 415.23 300.64 419.01C315.34 423.91 330.77 427.5 346.34 426.92C380.12 425.64 411.77 402.62 421.82 372.02C431.87 341.42 416.95 307.58 396.08 284.72Z" fill="#F04B24"/>
<path d="M400.729 282C390.459 267.29 372.729 258.84 355.319 256C334.089 252.59 312.399 257.69 293.399 267.31C261.399 283.5 235.399 315.85 237.709 353.17C238.789 370.72 245.589 387.83 257.759 400.63C271.759 415.4 292.419 422.81 311.759 427.85C331.609 433.04 352.509 434.24 372.099 427.32C388.909 421.455 403.662 410.852 414.579 396.79C420.832 388.728 425.379 379.479 427.942 369.603C430.506 359.728 431.032 349.435 429.489 339.35C426.219 317.35 414.669 297.21 399.949 280.87C395.309 275.72 387.719 283.34 392.349 288.47C414.409 312.95 429.179 349.47 412.239 380.77C396.579 409.66 363.599 424.64 331.509 420.82C312.989 418.62 292.689 412.4 276.869 402.38C263.563 393.815 254.075 380.447 250.379 365.06C242.379 333.13 259.739 302.3 285.739 284.38C302.489 272.83 322.979 265.22 343.499 265.63C360.679 265.97 381.269 272.71 391.499 287.38C395.369 293.07 404.699 287.7 400.729 282Z" fill="#6ABD45"/>
<path d="M554.628 357.81C559.818 357.81 566.338 356.95 567.898 352C568.223 350.437 568.4 348.847 568.428 347.25C568.818 343.9 570.628 340.81 570.788 337.45C570.948 334.09 568.108 330.15 564.908 331.19C564.821 330.065 565.064 328.938 565.608 327.949C566.151 326.959 566.972 326.15 567.968 325.62C569.058 325.06 570.298 324.87 571.418 324.37C572.94 323.704 574.151 322.485 574.808 320.96C575.465 319.435 575.517 317.717 574.956 316.155C574.394 314.592 573.26 313.301 571.783 312.543C570.306 311.784 568.595 311.615 566.998 312.07C570.308 306.57 564.328 299.5 565.998 293.29C566.738 290.47 568.998 287.84 568.318 285.01C567.638 282.18 564.318 280.96 561.498 281.01C558.678 281.06 555.828 281.94 552.988 281.67C552.298 279.74 553.688 277.75 554.788 276.02C555.888 274.29 556.628 271.71 555.038 270.4C553.978 269.53 552.428 269.73 551.108 269.4C547.468 268.4 544.828 263.14 541.398 264.71C539.398 265.62 538.238 268.71 536.118 268.15C535.369 267.864 534.758 267.302 534.408 266.58C532.988 264.18 532.498 261.28 530.848 259.03C529.198 256.78 525.498 255.57 523.718 257.72C523.287 258.441 522.813 259.136 522.298 259.8C520.828 261.19 518.488 260.29 516.528 259.8C514.568 259.31 511.678 260.29 512.138 262.25C510.378 260.03 507.138 259.73 504.298 260.25C501.458 260.77 498.808 261.91 495.978 261.9C494.088 261.9 492.188 261.36 490.318 261.63C485.818 262.28 483.188 268.35 485.778 272.08C484.594 271.77 483.359 271.707 482.15 271.896C480.94 272.085 479.783 272.522 478.75 273.179C477.718 273.836 476.832 274.7 476.148 275.715C475.465 276.73 474.999 277.876 474.778 279.08C474.508 281.08 474.908 283.41 473.678 285.08C471.278 288.27 464.218 287.08 464.178 291.08C464.178 293.89 468.388 295.24 468.488 298.08C468.648 302.64 459.138 301.64 458.658 306.17C458.548 307.17 459.028 308.26 458.868 309.3C458.348 312.67 451.868 313.8 453.168 316.94C453.558 317.87 454.578 318.39 455.108 319.25C457.308 322.82 449.728 326.61 451.408 330.45C452.038 331.88 453.868 332.79 453.798 334.35C453.728 335.91 451.928 336.66 451.458 338.08C450.538 340.83 454.708 342.25 457.598 342.08C460.488 341.91 464.668 342.82 464.178 345.69C463.718 348.38 459.488 348.46 458.178 350.85C457.178 352.58 458.378 354.92 460.178 355.72C461.108 356.055 462.101 356.176 463.084 356.076C464.067 355.976 465.015 355.656 465.858 355.14C466.307 355.921 466.473 356.832 466.33 357.72C466.186 358.609 465.74 359.421 465.068 360.02C466.416 359.718 467.827 359.884 469.068 360.49C470.208 361.22 470.588 363.17 469.428 363.87C468.818 364.23 468.008 364.15 467.428 364.55C466.428 365.26 466.778 366.81 467.258 367.95L471.768 378.84L474.338 385.05C473.975 384.845 473.575 384.714 473.161 384.664C472.748 384.613 472.328 384.645 471.926 384.757C471.525 384.869 471.149 385.059 470.821 385.316C470.493 385.573 470.218 385.892 470.013 386.255C469.808 386.618 469.677 387.018 469.627 387.432C469.577 387.846 469.608 388.266 469.72 388.667C469.832 389.069 470.022 389.444 470.279 389.773C470.536 390.101 470.855 390.375 471.218 390.58C471.901 390.838 472.552 391.173 473.158 391.58C474.538 392.85 473.298 395.29 471.588 396.06C469.878 396.83 467.868 396.75 466.178 397.56C464.488 398.37 463.358 400.9 464.818 402.07C462.938 401.42 461.098 403.39 460.658 405.33C460.218 407.27 460.528 409.33 459.848 411.23C457.708 417.12 448.418 416.23 444.448 421.08C442.198 423.84 442.228 427.75 442.448 431.31C441.644 431.612 440.921 432.095 440.334 432.722C439.747 433.349 439.312 434.103 439.063 434.925C438.815 435.747 438.759 436.616 438.9 437.463C439.042 438.31 439.376 439.113 439.878 439.81C440.603 440.598 441.443 441.272 442.368 441.81L445.998 444.17C447.254 445.163 448.766 445.777 450.358 445.94C451.948 445.94 453.648 444.63 453.418 443.05C451.608 445.39 451.338 449.26 453.738 450.99C456.138 452.72 460.368 449.66 458.738 447.19C459.878 450.92 465.588 452.12 468.138 449.19C468.449 449.982 468.921 450.7 469.526 451.297C470.131 451.895 470.854 452.359 471.65 452.66C472.445 452.96 473.295 453.091 474.144 453.043C474.993 452.994 475.822 452.769 476.578 452.38C477.166 453.338 478.058 454.069 479.112 454.458C480.166 454.846 481.32 454.868 482.388 454.52C482.971 452.747 483.023 450.842 482.538 449.04C484.701 449.67 486.998 449.666 489.159 449.03C491.319 448.394 493.252 447.151 494.728 445.45C494.933 444.969 495.238 444.537 495.624 444.183C496.009 443.829 496.466 443.562 496.963 443.399C497.46 443.236 497.986 443.181 498.507 443.238C499.027 443.295 499.528 443.463 499.978 443.73C502.043 444.269 504.219 444.2 506.246 443.531C508.272 442.863 510.062 441.624 511.401 439.963C512.74 438.301 513.571 436.289 513.794 434.167C514.017 432.045 513.623 429.903 512.658 428C518.13 427.265 523.087 424.388 526.438 420C529.228 420.52 532.078 418.88 533.738 416.58C535.273 414.183 536.266 411.48 536.648 408.66C537.102 407.058 537.102 405.362 536.648 403.76C536.058 402.21 534.308 400.98 532.758 401.55C534.758 398.78 533.358 394.85 531.398 392.04C529.438 389.23 526.888 386.5 526.688 383.04C528.308 381.38 530.948 383.67 531.798 385.83C533.308 389.69 533.798 393.97 535.798 397.58C537.798 401.19 542.388 403.99 546.088 402.11C549.958 400.11 550.218 394.81 549.938 390.48C554.428 391.58 558.748 385.61 556.298 381.69C555.743 380.964 555.226 380.209 554.748 379.43C552.348 374.52 560.538 368.73 557.668 364.08C556.968 362.95 555.748 362.25 554.918 361.22C554.088 360.19 553.828 358.41 554.918 357.7" fill="white"/>
<path d="M554.629 359.75C558.509 359.75 562.889 359.43 566.209 357.18C569.789 354.75 569.849 351.4 570.429 347.47C571.089 342.97 573.889 338.47 572.059 333.91C570.689 330.49 567.969 328.79 564.379 329.3L566.839 331.17C566.989 326.73 572.739 326.63 575.029 323.91C575.824 322.974 576.413 321.881 576.757 320.703C577.102 319.524 577.195 318.287 577.029 317.07C576.259 311.87 571.209 309.4 566.419 310.19L568.619 313.05C570.329 309.46 569.889 306.21 568.929 302.43C568.219 299.65 567.099 296.72 567.769 293.8C568.319 291.4 569.959 289.42 570.219 286.92C571.219 277.01 558.419 279.83 552.889 279.7L554.829 281.64C554.389 277.75 559.039 274.89 557.499 270.77C556.249 267.42 552.499 268.14 549.909 266.64C547.319 265.14 545.589 262.24 542.309 262.42C539.309 262.59 537.369 267.26 535.309 264.29C533.399 261.49 533.419 258.13 530.369 256.03C528.369 254.62 525.489 254.03 523.269 255.41C521.049 256.79 521.269 258.31 518.119 258.19C516.679 258.13 515.519 257.53 514.019 257.83C511.609 258.3 510.129 259.75 510.019 262.2L513.339 260.83C510.729 258.34 507.669 257.75 504.129 258.26C501.319 258.67 498.679 259.84 495.809 259.91C493.539 259.91 491.349 259.28 489.089 259.84C483.379 261.26 481.259 268.2 483.929 273.01L486.129 270.15C483.927 269.584 481.603 269.709 479.475 270.509C477.346 271.308 475.514 272.744 474.229 274.62C472.629 277.04 472.999 282.85 471.089 284.46C469.429 285.86 466.549 285.68 464.679 286.79C461.309 288.79 461.589 292.31 463.919 295.04C464.919 296.21 466.649 297.47 465.639 298.93C465.079 299.74 463.049 300.1 462.179 300.46C460.559 301.12 458.759 301.77 457.639 303.2C455.949 305.36 457.399 308.02 455.799 310.13C454.549 311.77 452.169 312.25 451.249 314.28C450.469 316.01 451.069 317.07 451.829 318.61C452.369 319.69 453.329 319.96 453.019 321.49C452.789 322.65 451.239 323.95 450.599 324.94C449.599 326.43 448.759 328.12 449.089 329.94C449.334 330.768 449.698 331.557 450.169 332.28C450.439 332.87 451.299 334.03 451.169 334.73C451.099 335.18 450.279 335.53 450.099 335.99C448.539 339.99 450.099 342.7 454.539 343.64C456.809 344.12 464.309 344.03 459.309 347.03C457.499 348.12 455.779 349.49 455.659 351.78C455.329 358.03 462.419 358.48 466.599 356.65L463.739 355.49L463.449 358.49C462.499 359.66 462.969 361.95 464.819 361.81C465.503 361.579 466.25 361.626 466.899 361.94C467.939 362.12 467.846 362.317 466.619 362.53C466.539 362.7 465.789 363.04 465.619 363.23C465.157 363.748 464.831 364.373 464.672 365.049C464.513 365.725 464.526 366.43 464.709 367.1C465.169 369.92 467.019 372.96 468.109 375.59L472.189 385.43L474.579 383.04C472.169 382.3 469.429 382.74 468.049 385.14C466.439 387.96 468.119 389.7 469.569 391.82C469.779 392.12 470.949 392.37 470.969 392.57C471.119 393.9 468.899 394.48 468.089 394.78C466.509 395.38 465.089 395.39 463.799 396.56C462.868 397.303 462.254 398.373 462.082 399.552C461.909 400.73 462.191 401.931 462.869 402.91L464.549 399.98C463.355 399.871 462.158 400.158 461.144 400.798C460.129 401.438 459.355 402.395 458.939 403.52C457.939 405.82 458.729 408.93 457.459 411.07C456.329 412.96 453.989 413.78 452.059 414.52C444.859 417.28 440.849 419.83 440.149 428.06C439.899 430.94 437.429 431.83 436.769 434.82C436.469 436.16 436.555 437.558 437.019 438.85C437.483 440.143 438.305 441.277 439.389 442.12C442.729 444.95 453.799 452.12 455.019 443.42C455.309 441.35 452.719 439.92 451.469 441.92C449.309 445.38 448.809 451.85 453.919 453.16C457.799 454.16 461.759 450.34 460.339 446.54L456.789 448.04C457.309 449.166 458.09 450.152 459.067 450.916C460.044 451.68 461.189 452.2 462.408 452.432C463.626 452.665 464.882 452.604 466.072 452.254C467.262 451.904 468.351 451.275 469.249 450.42L466.199 450.03C468.249 454.45 472.999 455.81 477.299 453.92L474.939 453.62C475.816 454.774 477.017 455.641 478.388 456.111C479.759 456.581 481.239 456.633 482.639 456.26C482.966 456.174 483.264 456.003 483.503 455.764C483.742 455.525 483.913 455.227 483.999 454.9C484.55 452.771 484.602 450.543 484.149 448.39L481.759 450.78C483.629 451.286 485.582 451.405 487.499 451.13C489.417 450.855 491.258 450.192 492.909 449.18C494.779 448.01 495.769 446.18 497.909 445.67C500.049 445.16 502.289 446.08 504.459 445.76C513.159 444.51 517.719 435.44 514.459 427.53L513.099 429.92C517.617 429.227 521.833 427.228 525.229 424.17C528.229 421.4 532.309 421.49 535.049 418.03C538.409 413.77 542.299 398.78 532.679 399.68L534.359 402.61C538.589 394.61 529.609 389.86 528.489 382.61L527.599 384.81C529.529 383.67 533.039 396.94 534.029 398.65C534.846 400.135 535.967 401.431 537.32 402.451C538.673 403.471 540.227 404.194 541.879 404.57C550.309 406.09 552.089 396.83 551.789 390.57L549.849 392.51C551.394 392.688 552.956 392.402 554.338 391.69C555.719 390.978 556.858 389.871 557.609 388.51C559.609 385.18 558.719 382.75 557.079 379.64C554.909 375.52 558.899 372.26 559.869 368.31C560.236 366.98 560.201 365.571 559.769 364.26C559.399 363.26 555.899 359.51 556.239 359.11C557.849 357.21 555.109 354.45 553.489 356.36C552.798 357.069 552.365 357.989 552.258 358.973C552.151 359.958 552.377 360.949 552.899 361.79C553.789 363.41 555.249 364 555.749 365.87C556.359 368.15 555.099 369.68 554.099 371.7C553.099 373.72 551.989 376.09 552.389 378.53C552.629 380.01 553.539 380.85 554.139 382.15C555.599 385.32 553.729 389.03 549.869 388.58C549.36 388.595 548.875 388.804 548.514 389.165C548.154 389.526 547.944 390.01 547.929 390.52C548.139 394.85 547.189 403.52 540.629 399.94C536.269 397.56 535.699 391.82 534.379 387.57C533.209 383.83 530.189 378.73 525.669 381.41C525.306 381.634 525.023 381.968 524.863 382.364C524.703 382.76 524.673 383.196 524.779 383.61C525.599 388.9 533.859 395.28 531.039 400.61C530.409 401.8 531.169 403.68 532.719 403.54C534.269 403.4 534.499 409.59 534.179 410.69C533.795 412.325 533.117 413.877 532.179 415.27C529.959 418.27 527.739 417.1 525.239 418.51C523.329 419.59 521.969 422.1 519.979 423.33C517.571 424.778 514.9 425.733 512.119 426.14C511.63 426.289 511.216 426.62 510.963 427.064C510.71 427.509 510.637 428.033 510.759 428.53C512.299 432.31 512.099 436.65 508.869 439.59C504.999 443.1 501.999 441 497.639 441.23C495.639 441.33 494.889 442.14 493.509 443.47C490.379 446.47 487.339 448.05 482.869 446.98C482.54 446.906 482.198 446.916 481.874 447.01C481.55 447.104 481.255 447.279 481.016 447.517C480.778 447.756 480.604 448.051 480.51 448.375C480.416 448.699 480.405 449.041 480.479 449.37C481.493 452.037 480.589 452.52 477.769 450.82C477.46 450.524 477.064 450.335 476.639 450.281C476.214 450.227 475.783 450.311 475.409 450.52C474.866 450.737 474.286 450.845 473.701 450.838C473.117 450.83 472.539 450.707 472.002 450.476C471.465 450.245 470.979 449.909 470.572 449.49C470.164 449.07 469.844 448.574 469.629 448.03C469.472 447.782 469.262 447.573 469.014 447.415C468.766 447.258 468.487 447.157 468.196 447.12C467.905 447.083 467.609 447.11 467.33 447.2C467.05 447.29 466.794 447.44 466.579 447.64C464.329 449.7 461.339 448.59 460.229 446.05C459.349 444.05 455.909 445.48 456.679 447.55C453.799 446.883 453.213 445.657 454.919 443.87L451.369 442.37C450.929 445.54 445.119 441.32 444.369 440.75C441.369 438.49 438.479 434.95 443.239 432.82C443.543 432.658 443.797 432.416 443.973 432.119C444.15 431.823 444.242 431.485 444.239 431.14C444.049 426.48 444.369 422.29 448.829 419.96C451.209 418.72 453.909 418.2 456.309 416.96C458.218 416.116 459.833 414.724 460.949 412.96C462.159 410.85 461.579 403.52 464.689 403.8C465.026 403.785 465.353 403.685 465.641 403.51C465.928 403.334 466.167 403.089 466.335 402.797C466.502 402.505 466.593 402.175 466.599 401.838C466.605 401.501 466.526 401.168 466.369 400.87C465.079 399.01 471.839 397.87 472.439 397.52C473.566 396.915 474.47 395.965 475.019 394.81C475.555 393.787 475.667 392.594 475.329 391.49C475.062 390.965 474.751 390.463 474.399 389.99L474.009 389.69C472.583 389.25 472.476 388.25 473.689 386.69C474.989 387.09 476.689 385.69 476.079 384.3L470.499 370.83C470.209 370.14 468.319 366.74 468.799 365.83C468.959 365.54 470.849 364.83 471.259 364.29C474.259 359.94 468.339 357.58 464.979 357.84L466.349 361.16C468.069 359.02 468.629 357.05 467.639 354.39C467.551 354.109 467.401 353.85 467.202 353.633C467.002 353.416 466.756 353.247 466.483 353.136C466.209 353.025 465.915 352.976 465.621 352.992C465.326 353.008 465.039 353.09 464.779 353.23C459.706 352.597 458.583 351.63 461.409 350.33C462.076 350.017 462.706 349.683 463.299 349.33C464.084 348.88 464.765 348.27 465.299 347.54C465.74 346.891 465.997 346.135 466.044 345.352C466.092 344.569 465.928 343.788 465.569 343.09C464.569 341.16 462.389 340.39 460.369 340.09C457.199 339.57 453.429 341.09 454.779 336.58C455.339 334.75 455.889 334.16 455.159 332.15C454.429 330.14 452.609 331.15 453.549 327.75C453.889 326.52 455.339 325.35 456.009 324.28C456.919 322.81 457.699 321.18 457.269 319.4C457.036 318.815 456.755 318.249 456.429 317.71C455.429 315.28 455.429 315.5 457.529 313.8C458.929 312.66 460.309 311.52 460.699 309.65C461.089 307.78 460.259 306.39 461.699 304.93C462.489 304.16 464.129 303.93 465.139 303.51C468.139 302.25 471.319 300.19 470.059 296.41C469.479 294.67 465.399 292.17 466.769 290.13C467.619 288.87 471.719 288.71 473.179 287.8C474.078 287.24 474.835 286.479 475.391 285.576C475.946 284.674 476.284 283.655 476.379 282.6C476.749 280.13 476.379 278.08 478.179 276C479.036 275.034 480.143 274.324 481.379 273.948C482.614 273.572 483.93 273.545 485.179 273.87C485.548 273.948 485.932 273.921 486.286 273.791C486.64 273.66 486.95 273.432 487.18 273.133C487.41 272.834 487.551 272.476 487.586 272.1C487.622 271.725 487.55 271.347 487.379 271.01C486.712 269.842 486.523 268.461 486.851 267.156C487.179 265.851 487.999 264.724 489.139 264.01C491.289 262.77 494.429 263.87 496.739 263.75C501.179 263.52 506.739 259.85 510.679 263.59C510.961 263.838 511.307 264.003 511.677 264.064C512.048 264.125 512.428 264.08 512.775 263.935C513.121 263.79 513.42 263.55 513.636 263.243C513.853 262.937 513.979 262.575 513.999 262.2C513.999 261.05 519.659 262.47 520.639 262.35C522.909 262.07 523.039 260.74 524.639 259.7C530.839 255.7 530.639 268.64 535.529 269.96C536.185 270.106 536.866 270.098 537.519 269.937C538.171 269.775 538.777 269.465 539.289 269.03C541.019 267.83 541.049 266.1 544.189 267.03C545.119 267.3 546.189 268.72 546.989 269.29C547.744 269.893 548.566 270.407 549.439 270.82C551.349 271.64 551.599 270.91 552.439 273.24C553.439 275.95 550.589 278.49 550.949 281.65C550.964 282.16 551.174 282.645 551.534 283.005C551.895 283.366 552.38 283.575 552.889 283.59C556.239 283.67 560.129 282.21 563.359 283.16C568.949 284.82 564.589 289.98 563.909 293.44C562.759 299.28 567.909 305.61 565.269 311.09C565.099 311.427 565.027 311.805 565.062 312.18C565.097 312.556 565.238 312.914 565.468 313.213C565.698 313.512 566.008 313.74 566.362 313.871C566.717 314.001 567.1 314.029 567.469 313.95C571.389 313.3 574.639 317.5 572.409 320.95C571.179 322.88 568.199 323.07 566.409 324.26C565.3 325.021 564.4 326.05 563.794 327.25C563.187 328.451 562.893 329.786 562.939 331.13C562.951 331.425 563.027 331.714 563.163 331.977C563.3 332.239 563.492 332.467 563.728 332.646C563.963 332.825 564.235 332.949 564.524 333.011C564.813 333.072 565.112 333.068 565.399 333C567.399 332.71 568.779 335.88 568.819 337.39C568.819 339.07 568.029 340.97 567.539 342.59C566.946 344.614 566.547 346.69 566.349 348.79C565.659 355.15 560.049 355.79 554.609 355.79C552.109 355.79 552.099 359.7 554.609 359.68L554.629 359.75Z" fill="#2B2C2B"/>
<path d="M323.249 397.1C324.975 398.832 327.01 400.226 329.249 401.21C334.179 403.74 339.249 406.3 344.659 407.27C346.7 407.603 348.762 407.8 350.829 407.86C355.447 408.224 360.093 407.863 364.599 406.79C369.059 405.56 373.299 403 375.749 399.08C376.927 397.058 377.803 394.875 378.349 392.6C379.444 388.585 380.168 384.477 380.509 380.33C369.739 383.39 358.959 386.46 347.969 388.62C344.529 389.3 341.059 389.88 337.669 390.77C331.93 392.264 326.44 394.585 321.369 397.66" fill="#2B2C2B"/>
<path d="M321.879 398.47C326.409 402.95 333.379 405.87 339.369 407.88C346.452 410.058 353.939 410.591 361.259 409.44C367.079 408.6 372.969 406.14 376.589 401.31C380.899 395.55 381.839 387.31 382.499 380.31C382.488 380.015 382.411 379.726 382.275 379.463C382.139 379.201 381.946 378.973 381.711 378.794C381.476 378.615 381.204 378.491 380.915 378.429C380.626 378.368 380.327 378.372 380.039 378.44C369.569 381.44 359.089 384.44 348.419 386.55C338.479 388.55 329.269 390.78 320.419 395.96C318.259 397.23 320.219 400.59 322.419 399.32C331.569 393.95 341.079 392.07 351.299 389.92C361.299 387.81 371.229 385 381.099 382.19L378.639 380.32C378.059 386.32 377.219 394.18 373.349 399.1C369.249 404.33 362.429 405.81 356.109 405.99C350.818 406.303 345.512 405.677 340.439 404.14C335.219 402.37 328.629 399.64 324.669 395.73C322.889 393.97 320.139 396.73 321.919 398.48L321.879 398.47Z" fill="white"/>
<path d="M378.07 384.78C370.46 396.25 359.16 405.1 344.93 405.5C342.43 405.57 342.42 409.5 344.93 409.39C360.58 408.95 373.03 399.39 381.43 386.74C382.82 384.65 379.43 382.74 378.07 384.74V384.78Z" fill="white"/>
<path d="M303.749 406.92L298.179 405.69C297.451 405.563 296.744 405.334 296.079 405.01C295.086 404.31 294.18 403.494 293.379 402.58C292.189 401.49 290.679 400.78 289.549 399.58C288.212 398.108 287.39 396.241 287.209 394.26C287.036 392.295 287.076 390.317 287.329 388.36C287.332 387.759 287.501 387.17 287.819 386.66C288.281 386.17 288.887 385.841 289.549 385.72C292.497 384.88 295.506 384.275 298.549 383.91C299.768 383.648 301.038 383.778 302.179 384.28C303.579 385.07 304.129 386.77 304.569 388.28C305.564 391.343 306.205 394.511 306.479 397.72C306.748 400.956 305.897 404.186 304.069 406.87" fill="white"/>
<path d="M304.269 405C302.449 404.6 300.469 404.36 298.699 403.77C296.639 403.09 295.279 401.58 293.619 400.25C291.359 398.43 289.739 397.09 289.209 393.99C289 392.862 288.966 391.708 289.109 390.57C289.429 388.49 289.719 387.99 291.559 387.19C293.791 386.32 296.163 385.866 298.559 385.85C301.479 386.04 302.419 387.77 303.139 390.37C304.589 395.65 305.539 401.07 302.399 405.9C301.029 408 304.399 409.96 305.759 407.9C309.849 401.6 308.759 392.71 305.859 386.09C302.999 379.7 294.399 381.94 288.999 383.9C283.599 385.86 284.239 393.9 286.239 398.16C287.689 401.3 291.099 403.56 293.689 405.69C296.279 407.82 299.969 408.09 303.189 408.8C305.629 409.34 306.669 405.59 304.189 405.05L304.269 405Z" fill="#2B2C2B"/>
<path d="M320.341 387.55C320.341 384.63 317.281 383.04 314.671 383.07C311.671 383.07 309.35 385.07 309.52 388.2C309.67 390.79 310.85 393.57 313.58 394.32C316.31 395.07 318.431 393.06 319.891 390.92C321.351 388.78 317.941 386.92 316.531 388.92C316.191 389.42 315.581 390.5 314.891 390.56C314.201 390.62 313.651 389.56 313.511 388.94C313.311 388.02 313.121 387.25 314.151 386.94C314.501 386.85 316.451 386.85 316.451 387.46C316.451 389.96 320.311 389.96 320.341 387.46V387.55Z" fill="#6ABD45"/>
<path d="M324 368.57C326.8 364.087 329.218 359.377 331.23 354.49C332.64 351.07 333.86 347.49 335.87 344.43C337.74 341.53 340.23 339.1 342.42 336.43C345.821 332.033 348.832 327.349 351.42 322.43C356.59 324.3 361.35 327.74 363.99 332.56C366.24 336.66 366.84 341.42 367.4 346.06C367.728 348.322 367.891 350.604 367.89 352.89C367.66 362.05 362.24 370.2 356.62 377.45C354.4 380.32 351.71 383.36 348.1 383.7" fill="#2B2C2B"/>
<path d="M325.731 369.55C328.199 365.553 330.388 361.39 332.281 357.09C333.991 353.17 335.281 349.01 337.601 345.4C340.071 341.58 343.511 338.46 346.191 334.77C348.734 331.117 351.071 327.324 353.191 323.41L350.991 324.3C363.221 329.09 367.101 342.17 365.941 354.5C365.421 360.06 362.811 365.22 359.811 369.84C356.921 374.29 353.251 380.77 347.671 381.84C345.211 382.31 346.251 386.05 348.671 385.59C354.971 384.4 358.871 378.11 362.221 373.18C366.021 367.59 369.221 361.35 369.791 354.51C370.361 347.67 369.271 339.28 366.491 333.15C363.711 327.02 358.251 323 352.001 320.56C351.587 320.454 351.15 320.483 350.754 320.643C350.359 320.803 350.024 321.086 349.801 321.45C347.688 325.368 345.35 329.161 342.801 332.81C340.111 336.49 336.701 339.6 334.211 343.44C331.881 347.04 330.581 351.21 328.891 355.13C327.004 359.433 324.816 363.596 322.341 367.59C321.031 369.73 324.391 371.69 325.701 369.59L325.731 369.55Z" fill="white"/>
<path d="M268.289 312.35C264.999 315 264.399 320 265.699 324C266.999 328 269.829 331.33 272.599 334.52C275.909 338.34 279.249 342.2 283.339 345.17C285.619 346.83 288.099 348.17 290.339 349.86C291.42 350.776 292.617 351.546 293.899 352.15C295.379 352.643 296.945 352.823 298.499 352.68C302.481 352.512 306.422 351.813 310.219 350.6C310.488 350.529 310.742 350.41 310.969 350.25C311.121 350.086 311.24 349.893 311.317 349.682C311.395 349.472 311.43 349.248 311.42 349.024C311.411 348.8 311.358 348.58 311.263 348.377C311.168 348.174 311.034 347.991 310.869 347.84C310.166 347.257 309.332 346.852 308.439 346.66C300.989 344.27 295.209 338.47 289.739 332.87L269.199 311.87" fill="#6ABD45"/>
<path d="M266.909 311C258.019 319.66 266.629 330.71 272.909 337.81C277.479 343 282.369 346.69 288.029 350.57C293.099 354.05 296.209 355.08 302.469 354.28C305.469 353.89 312.939 353.7 313.409 349.52C313.909 344.98 306.539 343.99 303.859 342.41C297.919 338.91 293.209 333.57 288.449 328.69L270.649 310.45C268.899 308.66 266.149 311.45 267.899 313.2C275.289 320.78 282.629 328.41 290.089 335.92C292.754 338.69 295.626 341.254 298.679 343.59C299.749 344.38 308.279 348.59 308.129 349.21C307.939 350.02 300.889 350.58 300.259 350.63C297.571 350.985 294.841 350.425 292.509 349.04C288.364 346.604 284.469 343.767 280.879 340.57C274.929 335.04 261.179 322.05 269.699 313.75C271.499 312 268.699 309.25 266.949 311H266.909Z" fill="#2B2C2B"/>
<path d="M305.799 310.31C302.053 307.867 297.864 306.185 293.469 305.36C292.069 305.1 290.469 304.99 289.409 305.99C288.924 306.547 288.581 307.212 288.409 307.93C287.468 310.838 286.821 313.833 286.479 316.87C286.259 318.78 286.209 320.87 287.309 322.46C288.409 324.05 290.309 324.72 292.129 325.32C293.719 325.959 295.414 326.298 297.129 326.32C298.078 326.155 299.049 326.155 299.999 326.32C300.879 326.59 301.579 327.32 302.489 327.46C302.994 327.501 303.502 327.404 303.957 327.179C304.411 326.953 304.796 326.608 305.069 326.18C305.602 325.318 305.972 324.366 306.159 323.37C307.009 320 307.839 316.37 306.499 313.13" fill="white"/>
<path d="M306.779 308.63C302.779 306.11 292.509 300.25 288.029 304.63C285.629 306.96 285.249 311.76 284.779 314.86C284.339 317.77 283.919 321.12 285.779 323.66C287.499 326.04 290.719 327.08 293.439 327.77C295.199 328.22 296.809 327.9 298.529 328.15C300.079 328.37 301.359 329.42 302.929 329.37C309.519 329.17 309.689 316.92 308.309 312.62C307.549 310.25 303.799 311.26 304.559 313.62C305.319 315.98 305.629 319.07 304.559 321.36C304.466 323.307 303.249 324.39 300.909 324.61C300.606 324.431 300.261 324.338 299.909 324.34C296.089 324.75 289.069 323.93 288.259 319.19C287.709 315.97 288.959 307.6 292.929 307.19C296.669 306.82 301.789 310.07 304.799 311.94C306.929 313.26 308.889 309.94 306.799 308.58L306.779 308.63Z" fill="#2B2C2B"/>
<path d="M297.91 310.07C299.24 313.59 300.91 321.54 297.34 324.22C295.34 325.71 297.34 329.08 299.34 327.58C304.79 323.48 303.88 314.83 301.69 309.04C300.82 306.72 297.06 307.73 297.94 310.04L297.91 310.07Z" fill="#2B2C2B"/>
<path d="M343.78 296.62C343.16 301.664 343.251 306.771 344.05 311.79C344.1 312.356 344.277 312.903 344.57 313.39C344.97 313.87 345.481 314.244 346.06 314.48C348.133 315.527 350.236 316.51 352.37 317.43C354.37 318.28 356.64 319.06 358.52 318.05C359.83 317.35 360.58 315.96 361.6 314.89C363.44 312.99 366.16 312.14 368.02 310.25C368.84 309.415 369.46 308.405 369.833 307.296C370.206 306.187 370.323 305.007 370.175 303.846C370.027 302.686 369.617 301.573 368.977 300.594C368.337 299.614 367.483 298.792 366.48 298.19C365.24 297.45 363.81 297.06 362.64 296.19C361.789 295.391 360.872 294.666 359.9 294.02C358.66 293.534 357.31 293.403 356 293.64C351.787 294.05 347.62 294.84 343.55 296C343.442 296.003 343.336 296.032 343.242 296.085C343.148 296.138 343.069 296.213 343.011 296.303C342.952 296.394 342.917 296.498 342.908 296.605C342.9 296.713 342.917 296.821 342.96 296.92L345.46 310.58C345.487 310.911 345.616 311.225 345.83 311.48C346.035 311.62 346.27 311.711 346.516 311.746C346.763 311.78 347.014 311.758 347.25 311.68L361.18 309.23C361.5 309.201 361.809 309.094 362.08 308.92C362.65 308.48 362.59 307.6 362.43 306.92C361.59 303.09 359.88 299.22 360.72 295.39" fill="white"/>
<path d="M341.83 296.62C341.25 302.12 339.56 312.67 345.07 316.16C347.85 317.92 352.14 320.02 355.47 320.38C358.53 320.72 359.92 319.38 362.01 317.38C366.42 313.27 373.21 310.66 372.01 303.31C371.621 300.955 370.388 298.822 368.54 297.31C366.88 295.94 364.82 295.31 363.08 294.06C362.328 293.362 361.499 292.752 360.61 292.24C357.9 291.03 354.66 291.78 351.85 292.24C349.45 292.61 343.85 292.87 341.97 294.69C340.09 296.51 341.36 299.16 341.76 301.38C342.3 304.32 342.15 310.23 344.11 312.5C345.17 313.73 346.25 313.62 347.73 313.59C349.98 313.59 352.47 312.76 354.73 312.36C356.99 311.96 359.73 311.95 361.73 311.13C363.33 310.48 364.22 309.96 364.5 308.03C365.1 303.92 362.12 299.77 362.69 295.39C363.01 292.92 359.12 292.94 358.8 295.39C358.551 297.205 358.595 299.049 358.93 300.85C359.19 302.29 360.71 305.22 360.44 306.59C361.067 307.63 360.57 307.997 358.95 307.69L355.47 308.3C353.4 308.66 350.59 309.7 348.47 309.53C347.49 310.47 347.05 310.333 347.15 309.12L346.61 306.19C346.35 304.79 344.55 299.56 345.18 298.38C346.38 296.13 355.3 295.14 357.33 295.51C359.66 295.94 366.61 300.18 367.63 302.18C370.78 308.33 363.49 310.32 360.22 313.51L358.29 315.78C357.224 316.204 356.069 316.359 354.929 316.231C353.788 316.104 352.697 315.698 351.75 315.05C350.45 314.48 348.08 313.84 347.03 312.8C343.86 309.66 345.28 300.74 345.71 296.62C345.97 294.13 342.08 294.15 341.82 296.62H341.83Z" fill="#2B2C2B"/>
<path d="M400.889 370.86C395.949 371.46 391.269 368.75 387.029 366.15C384.189 364.4 381.029 362.25 380.559 358.95C380.089 355.65 382.259 352.81 384.329 350.32L391.839 341.23C394.369 338.18 396.919 335.07 398.539 331.45L402.759 339.26C404.515 342.255 405.953 345.426 407.049 348.72C408.1 352.403 408.3 356.277 407.633 360.049C406.966 363.82 405.45 367.391 403.199 370.49" fill="white"/>
<path d="M400.89 368.91C396.08 369.15 391.95 366.99 388.01 364.46C386.63 363.58 384.78 362.59 383.8 361.23C380.8 357.03 384.06 353.74 386.33 350.92C391.13 344.92 396.81 339.35 400.21 332.42H396.85C399.98 338.22 404.08 344.21 405.54 350.7C406.211 353.938 406.202 357.281 405.514 360.515C404.825 363.75 403.472 366.806 401.54 369.49C400.12 371.56 403.49 373.49 404.9 371.49C408.947 365.747 410.656 358.678 409.68 351.72C408.56 344.05 403.85 337.18 400.24 330.5C400.058 330.219 399.81 329.989 399.516 329.829C399.223 329.669 398.894 329.585 398.56 329.585C398.226 329.585 397.897 329.669 397.603 329.829C397.31 329.989 397.061 330.219 396.88 330.5C393.77 336.84 388.68 342.04 384.23 347.5C381.5 350.83 377.98 354.61 378.67 359.28C379.27 363.34 382.84 365.87 386.07 367.9C390.65 370.78 395.38 373.16 400.91 372.9C403.4 372.77 403.42 368.9 400.91 369.01L400.89 368.91Z" fill="#2B2C2B"/>
<path d="M395.159 369.62C404.039 363.62 405.269 352.29 405.809 342.39C405.939 339.89 402.059 339.9 401.919 342.39C401.469 350.68 400.749 361.16 393.199 366.27C391.139 367.66 393.079 371.03 395.199 369.63L395.159 369.62Z" fill="#2B2C2B"/>
<path d="M360.559 334.64C359.329 349.64 360.559 367.97 343.459 374.13C341.119 374.97 342.129 378.73 344.459 377.88C348.055 376.638 351.353 374.664 354.147 372.082C356.941 369.5 359.168 366.367 360.689 362.88C364.329 354.39 363.689 343.64 364.419 334.59C364.619 332.1 360.739 332.11 360.529 334.59L360.559 334.64Z" fill="white"/>
<path d="M314.759 375.71C313.049 376.69 311.197 377.395 309.269 377.8C308.303 377.994 307.306 377.961 306.355 377.704C305.404 377.447 304.526 376.974 303.789 376.32C303.189 375.655 302.687 374.907 302.299 374.1C300.979 371.68 299.629 369.1 299.819 366.33C300.099 362.27 303.569 359.27 306.769 356.76C307.965 355.72 309.314 354.87 310.769 354.24C311.497 353.931 312.285 353.791 313.075 353.831C313.865 353.871 314.636 354.089 315.329 354.47C316.041 354.964 316.646 355.597 317.109 356.33C319.58 359.928 320.764 364.255 320.469 368.61" fill="#2B2C2B"/>
<path d="M313.769 374C312.089 374.83 310.009 376 308.079 375.92C305.139 375.82 304.279 373.82 303.179 371.62C300.909 367.05 301.909 363.62 305.479 360.34C308.309 357.71 313.409 353.82 316.169 358.51C317.897 361.577 318.702 365.077 318.489 368.59C318.409 371.09 322.299 371.09 322.379 368.59C322.549 363.3 320.929 354.46 315.209 352.3C309.909 350.3 303.909 355.86 300.819 359.58C296.589 364.66 297.489 371.03 301.269 376.23C305.049 381.43 310.739 379.85 315.719 377.37C317.959 376.26 315.989 372.9 313.719 374.01L313.769 374Z" fill="white"/>
<path d="M322.28 320.35C315.14 322.08 318.77 333.71 325.53 331.61C328.29 330.75 329.77 327.61 329.82 324.9C329.87 321.96 327.27 318.79 324.1 320.08C321.81 321.01 322.82 324.78 325.1 323.83C326.42 323.29 325.78 327.41 324.41 327.83C322.53 328.45 321.02 324.6 323.28 324.05C325.71 323.46 324.68 319.71 322.28 320.3V320.35Z" fill="white"/>
<path d="M361.949 285.82C365.129 284.82 365.889 287.11 367.589 289.06C368.6 290.203 370.009 290.919 371.529 291.06C374.589 291.48 378.749 290.86 379.529 287.39C380.109 284.96 376.359 283.92 375.779 286.39C375.579 287.25 373.779 287.22 373.029 287.26C372.485 287.329 371.932 287.254 371.427 287.041C370.921 286.829 370.48 286.487 370.149 286.05C369.52 285.068 368.8 284.147 367.999 283.3C367.014 282.512 365.845 281.986 364.602 281.771C363.359 281.556 362.082 281.659 360.889 282.07C358.509 282.82 359.529 286.57 361.889 285.82H361.949Z" fill="#6ABD45"/>
<path d="M384.449 318.57C384.089 318.048 383.619 317.61 383.073 317.288C382.526 316.966 381.916 316.768 381.285 316.706C380.654 316.644 380.016 316.72 379.418 316.93C378.819 317.14 378.273 317.478 377.819 317.92C376.079 319.45 374.129 323.25 375.579 325.47C377.029 327.69 380.229 328.86 382.579 327.79C385.359 326.5 385.909 323.43 386.049 320.67C386.179 318.17 382.289 318.18 382.159 320.67C382.079 322.31 381.819 325.26 379.579 323.83L379.039 323.45C378.839 323.35 378.862 323.3 379.109 323.3C379.182 322.76 379.384 322.245 379.699 321.8C379.779 321.66 380.819 320.08 381.129 320.52C382.559 322.52 385.929 320.61 384.489 318.52L384.449 318.57Z" fill="#6ABD45"/>
<path d="M277.639 366.28C273.499 366.86 271.179 370.08 270.939 374.09C270.699 378.1 269.939 383.54 273.019 386.52C274.809 388.27 277.559 385.52 275.769 383.77C273.979 382.02 274.769 378.55 274.769 376.42C274.769 373.32 274.919 370.55 278.629 370.03C281.099 369.68 280.049 365.93 277.629 366.28H277.639Z" fill="white"/>
<path d="M389.809 391.31C391.129 391.365 392.42 390.906 393.409 390.03L396.869 387.48C397.304 387.21 397.619 386.784 397.749 386.289C397.879 385.795 397.815 385.269 397.569 384.82C397.299 384.385 396.873 384.07 396.378 383.94C395.884 383.81 395.358 383.874 394.909 384.12L392.179 386.12C391.509 386.62 390.699 387.51 389.819 387.4C389.309 387.415 388.824 387.624 388.464 387.985C388.103 388.346 387.894 388.83 387.879 389.34C387.894 389.85 388.103 390.334 388.464 390.695C388.824 391.056 389.309 391.265 389.819 391.28L389.809 391.31Z" fill="#6ABD45"/>
<path d="M303.999 297.83C308.139 298.33 310.999 300.1 315.309 299.51C319.619 298.92 324.869 298.29 328.729 296.51C333.519 294.31 333.389 287.43 331.229 283.36C327.749 276.79 320.829 277 314.659 279.13C306.959 281.78 304.979 288.71 302.139 295.63C301.189 297.94 304.949 298.95 305.889 296.63C308.119 291.2 309.609 285.04 315.699 282.85C320.789 281.01 327.299 280.75 328.589 287.43C329.879 294.11 322.199 294.22 317.719 295.07C314.519 295.68 311.919 295.97 308.719 295.07C307.169 294.547 305.581 294.145 303.969 293.87C301.489 293.57 301.509 297.46 303.969 297.76L303.999 297.83Z" fill="#6ABD45"/>
<path d="M307.879 287.89C307.669 290.26 307.319 298.35 311.599 297.41C316.169 296.41 315.979 290.41 317.659 287.27H314.299L316.839 291.68C317.02 291.961 317.269 292.192 317.563 292.351C317.856 292.511 318.185 292.595 318.519 292.595C318.853 292.595 319.182 292.511 319.475 292.351C319.769 292.192 320.018 291.961 320.199 291.68L324.869 282.13C325.969 279.89 322.609 277.92 321.509 280.13L316.839 289.68H320.199L317.659 285.27C317.478 284.989 317.229 284.759 316.935 284.599C316.642 284.439 316.313 284.355 315.979 284.355C315.645 284.355 315.316 284.439 315.023 284.599C314.729 284.759 314.48 284.989 314.299 285.27C313.623 286.639 313.133 288.092 312.839 289.59C312.69 290.445 312.41 291.271 312.009 292.04L311.309 292.95C310.269 293.677 310.086 293.863 310.759 293.51L312.439 294.51C311.339 292.72 311.589 289.86 311.769 287.88C311.989 285.39 308.099 285.4 307.879 287.88V287.89Z" fill="#6ABD45"/>
<path d="M425.469 227.65C427.888 227.532 430.307 227.872 432.599 228.65C434.979 229.44 435.999 225.65 433.599 224.9C430.973 224.022 428.206 223.639 425.439 223.77C422.949 223.89 422.929 227.77 425.439 227.66L425.469 227.65Z" fill="#2B2C2B"/>
<path d="M417.62 231.92L425.62 234.13C428.04 234.8 429.07 231.05 426.62 230.38L418.62 228.17C416.2 227.5 415.17 231.25 417.62 231.92Z" fill="#2B2C2B"/>
<path d="M452.751 118.5C463.391 116.77 474.331 116.06 484.921 118.05C495.511 120.04 505.791 124.93 512.921 133.05C520.051 141.17 523.531 151.76 526.701 162.05C527.947 165.799 528.91 169.636 529.581 173.53C531.771 188.31 525.771 202.94 519.901 216.67C517.241 222.89 514.511 229.22 510.041 234.3C505.571 239.38 499.351 243.06 493.341 246.53C489.225 249.06 484.895 251.225 480.401 253C475.39 254.642 470.233 255.798 465.001 256.45C455.441 257.94 445.771 259.45 436.131 258.51C426.491 257.57 416.771 254.08 410.221 246.96" fill="#FFC736"/>
<path d="M453.27 120.38C471.41 117.54 491.98 117.65 506.91 129.93C513.39 135.26 517.63 142.52 520.65 150.24C523.59 157.75 526.46 165.9 527.65 173.9C529.06 183.52 526.81 193.13 523.65 202.17C520.65 210.62 517.29 219.42 512.75 227.17C508.21 234.92 501.35 239.65 493.75 244.07C486.15 248.49 478.55 252.15 469.7 253.76C450.63 257.23 426.64 261.14 411.61 245.63C409.87 243.83 407.12 246.63 408.86 248.38C422.24 262.18 442.11 261.79 459.78 259.24C470.27 257.73 480.18 256 489.6 250.91C497.26 246.77 505.6 242.33 511.42 235.7C517.74 228.51 521.15 219.03 524.69 210.27C528.47 200.92 531.78 191.1 531.99 180.92C532.18 171.09 528.83 161.41 525.56 152.26C522.74 144.36 519.07 136.6 513.21 130.47C497.5 114.03 473.21 113.35 452.21 116.63C449.75 117.02 450.79 120.76 453.21 120.38H453.27Z" fill="#2B2C2B"/>
<path d="M486.82 237.47C492.404 234.202 498.414 231.725 504.68 230.11C507.1 229.48 506.07 225.73 503.68 226.36C497.088 228.067 490.765 230.678 484.89 234.12C482.73 235.38 484.69 238.74 486.89 237.48L486.82 237.47Z" fill="#2B2C2B"/>
<path d="M433.4 248.74C439.723 249.068 446.058 248.393 452.17 246.74C454.59 246.1 453.56 242.34 451.17 242.99C445.394 244.534 439.409 245.152 433.44 244.82C430.94 244.69 430.95 248.58 433.44 248.71L433.4 248.74Z" fill="#2B2C2B"/>
<path d="M501.18 178.63C501.18 181 501.74 184.16 501.18 186.45V188C498.44 191 497.107 191.123 497.18 188.37C496.62 185.43 497.12 187.57 497.86 185.37C498.442 184.051 498.891 182.678 499.2 181.27C499.326 180.04 499.326 178.8 499.2 177.57L498.98 175.85C498.213 173.85 499.14 172.94 501.76 173.12C501.61 175.62 505.5 175.61 505.65 173.12C505.91 168.6 501.15 165.03 497.16 168.12C494.67 170.04 494.88 173.05 495.1 175.86C495.31 178.47 495.88 180.95 494.54 183.41C493.85 184.68 492.65 185.63 492.01 186.93C489.32 192.38 495.26 194.46 499.63 193.83C507.13 192.75 505.08 184.25 505.06 178.66C505.06 176.16 501.16 176.15 501.17 178.66L501.18 178.63Z" fill="#2B2C2B"/>
<path d="M534.679 206.72C535.349 205.88 536.779 205.87 537.739 205.61C538.842 205.331 539.93 204.998 540.999 204.61C543.026 203.842 544.986 202.909 546.859 201.82C549.029 200.57 547.069 197.21 544.859 198.46C542.541 199.822 540.066 200.9 537.489 201.67C535.549 202.24 533.239 202.32 531.889 204.01C530.339 205.95 533.079 208.72 534.639 206.76L534.679 206.72Z" fill="#2B2C2B"/>
<path d="M534.84 198.22C540.26 198.02 543.84 194.22 546.99 190.22C548.52 188.27 545.78 185.5 544.24 187.47C541.84 190.54 539.08 194.18 534.84 194.34C532.35 194.43 532.33 198.34 534.84 198.23V198.22Z" fill="#2B2C2B"/>
<path d="M481.781 356.38C481.603 355.189 481.698 353.973 482.06 352.824C482.423 351.675 483.042 350.624 483.871 349.75C484.871 348.63 484.311 346.22 482.501 346.43C479.891 346.73 482.031 344.85 483.321 344.24C484.921 343.661 486.646 343.516 488.321 343.82C490.711 344.07 490.651 340.77 488.841 340C484.841 338.33 490.271 333.26 490.691 330.93C491.021 329.14 490.051 326.52 490.971 324.86C492.921 321.35 496.901 321.4 500.231 322.2C502.061 322.64 503.701 323.41 505.441 322.39C506.671 321.67 506.611 320.9 507.441 319.97C509.731 317.5 512.841 316.74 515.511 319.21C517.341 320.91 520.101 318.21 518.261 316.46C516.627 314.871 514.47 313.933 512.194 313.823C509.918 313.712 507.68 314.437 505.901 315.86C505.741 316 504.191 317.94 504.071 318C501.921 319.2 499.461 317.84 497.271 317.71C494.765 317.478 492.257 318.129 490.181 319.55C489.197 320.293 488.386 321.242 487.806 322.33C487.226 323.418 486.89 324.619 486.821 325.85C486.551 328.38 486.921 329.6 485.381 331.56C484.951 332.11 484.301 332.56 483.881 333.15C481.011 337.36 483.551 341.97 487.751 343.73L488.271 339.91C484.331 339.5 477.671 340.55 476.271 345.1C474.991 349.24 479.151 350.68 482.421 350.3L481.121 347C479.941 348.241 479.043 349.72 478.485 351.339C477.928 352.957 477.725 354.676 477.891 356.38C478.101 358.86 481.991 358.88 481.781 356.38Z" fill="#2B2C2B"/>
<path d="M498.11 395.53C499.27 393.53 499.937 394.373 500.11 398.06C499.597 398.93 499.156 399.839 498.79 400.78C498.615 401.152 498.56 401.569 498.631 401.974C498.702 402.379 498.896 402.753 499.186 403.044C499.477 403.334 499.851 403.528 500.256 403.599C500.661 403.67 501.078 403.615 501.45 403.44C503.817 403.707 504.95 404.75 504.85 406.57C504.957 406.823 505.011 407.094 505.008 407.368C505.005 407.642 504.946 407.913 504.835 408.163C504.723 408.414 504.561 408.639 504.359 408.824C504.157 409.009 503.919 409.151 503.66 409.24C502.66 410.42 499.22 413.14 497.33 412.07C496.54 411.62 495.75 409.38 494.74 408.67C492.74 407.28 489.47 406.55 487.95 408.9C487.482 409.677 487.308 410.596 487.46 411.49C487.61 412.49 488.03 412.59 488.29 413.42C488.76 414.97 489.14 418.08 487.85 419.62C487.11 420.5 485.49 420.72 484.65 421.78C483.671 423.084 483.218 424.708 483.38 426.33C483.46 428.83 487.38 428.84 487.27 426.33C487.2 424.08 492.27 421.82 493.32 419.49C494.14 417.58 493.89 416.06 493.42 414.14C493.04 412.57 492.42 412.3 493.88 413.88C494.39 414.43 494.54 415.21 495.27 415.65C497.03 416.72 499.96 415.83 501.71 415.25C506.33 413.72 509.46 410.89 508.71 405.79C508.01 400.99 504.11 397.93 499.48 400.09L502.14 402.75C503.64 399.31 506.8 395.02 503.82 391.38C501.15 388.11 497.5 390.12 495.36 392.79C493.81 394.72 496.55 397.49 498.11 395.54V395.53Z" fill="#2B2C2B"/>
<path d="M274.61 112.27C251.9 123.47 229.43 135.67 206.18 145.7C194.77 150.63 182.62 153.33 171.02 157.7C160.524 161.842 150.329 166.711 140.51 172.27C129.57 178.27 118.76 184.52 107.89 190.66C104.3 192.66 101.33 194.13 100.38 198.33C99.3796 202.91 99.5896 208.2 99.5596 212.88C99.4112 255.917 115.933 297.339 145.66 328.46C147.39 330.27 150.14 327.52 148.41 325.71C120.957 296.892 104.997 259.025 103.54 219.25C103.386 214.737 103.43 210.22 103.67 205.7C103.84 202.53 103.6 198.63 106.08 196.18C108 194.28 111.79 192.92 114.08 191.6C123.79 186.11 133.46 180.53 143.25 175.17C153.39 169.62 163.74 164.38 174.63 160.47C185.08 156.72 195.91 154.14 206.17 149.83C230.17 139.76 253.23 127.06 276.55 115.57C278.79 114.46 276.83 111.11 274.55 112.21L274.61 112.27Z" fill="#2B2C2B"/>
<path d="M199.529 278.2C183.301 290.735 168.541 305.062 155.529 320.91C149.199 328.65 143.599 337.02 136.769 344.33C129.499 352.1 120.479 357.56 111.769 363.58C103.584 369.209 96.0009 375.667 89.1393 382.85C84.5793 387.66 78.3293 392.77 83.0793 399.39C88.8093 407.39 96.1493 414.9 103.179 421.76C110.369 428.76 118.579 434.3 126.309 440.66C142.309 453.82 153.649 473.37 162.079 492.06C165.259 499.12 167.079 510.06 174.079 514.5C179.199 517.71 185.649 516.37 188.079 510.64C189.21 507.612 189.381 504.309 188.569 501.18C187.499 496.18 183.169 488.52 187.859 484.18C195.489 477.09 205.859 503.92 208.289 508.99C216.499 526.18 224.529 543.99 237.839 557.9C241.273 561.519 245.054 564.792 249.129 567.67C251.779 569.53 255.299 572.11 258.739 571.02C262.179 569.93 262.409 566.51 263.369 563.61C265.219 558 268.819 553.22 272.309 548.53C287.836 527.697 303.403 506.893 319.009 486.12C320.509 484.12 317.139 482.18 315.649 484.12L277.329 535.32C271.649 542.92 264.749 550.49 260.879 559.25C260.209 560.78 259.969 562.7 259.159 564.11C258.619 565.05 257.369 567.11 255.859 567.11C254.989 567.11 253.289 565.75 252.409 565.18C248.304 562.452 244.519 559.269 241.129 555.69C227.969 542.13 220.059 524.69 212.029 507.83C208.979 501.42 196.259 467.76 184.589 481.72C179.589 487.67 183.089 494.83 184.589 501.3C185.769 506.36 184.449 514.84 177.049 511.61C171.719 509.28 170.299 502.05 168.339 497.12C161.698 480.223 152.56 464.417 141.229 450.23C135.569 443.23 128.849 437.64 121.709 432.23C113.759 426.33 106.353 419.73 99.5793 412.51C96.3093 408.99 93.1693 405.36 90.0493 401.71C88.6693 400.09 86.0493 397.93 85.3193 395.92C84.1993 392.92 87.6093 390.14 89.3893 388.15C96.0058 380.793 103.403 374.178 111.449 368.42C119.809 362.42 128.799 357.27 136.289 350.15C143.989 342.83 149.879 333.89 156.499 325.64C169.952 309.013 185.318 294.029 202.279 281C204.279 279.47 201.489 276.74 199.529 278.25V278.2Z" fill="#FFC736"/>
<path d="M186.86 479.91C190.228 474.242 194.695 469.305 200 465.39C204.29 462.27 209.16 460.01 213.19 456.52C221.96 448.93 226.66 436.13 232.05 426.13C233.24 423.93 229.88 421.96 228.69 424.13C222.77 435.13 217.69 449.23 206.93 456.32C197.56 462.5 189.47 468.08 183.52 477.9C182.22 480.05 185.58 482 186.88 479.9L186.86 479.91Z" fill="#FFC736"/>
<path d="M168.72 310.55C161.72 293.96 150.38 279.71 143.22 263.23C139.54 254.76 135.37 242.98 137.58 233.62C139.01 227.56 146.17 227.23 151.29 225.92C156.07 224.69 160.87 223.5 165.63 222.18C179.618 218.441 192.949 212.579 205.16 204.8C217.402 196.774 229.172 188.05 240.41 178.67C252.164 169.05 263.567 159.017 274.62 148.57C276.44 146.85 273.69 144.1 271.87 145.82C250.25 166.27 227.27 186.21 202.08 202.16C187.86 211.16 172.81 216.38 156.55 220.57C151.77 221.8 146.97 222.97 142.21 224.29C139.14 225.14 136.11 226.08 134.65 229.18C131.51 235.86 133.7 246.18 135.51 252.98C141.23 274.42 156.51 291.39 164.99 311.59C165.99 313.86 169.71 312.86 168.74 310.59L168.72 310.55Z" fill="#FFC736"/>
<path d="M388.469 104.56C397.437 101.877 405.569 96.9452 412.092 90.2327C418.616 83.5202 423.313 75.2505 425.739 66.21C425.807 65.9225 425.811 65.6235 425.75 65.3344C425.688 65.0454 425.564 64.7734 425.385 64.5382C425.206 64.303 424.978 64.1103 424.715 63.974C424.453 63.8377 424.164 63.7612 423.869 63.75C396.757 64.894 370.082 70.9699 345.149 81.68C342.859 82.68 344.839 86.01 347.149 85.04C371.468 74.6308 397.479 68.7348 423.909 67.64L421.999 65.18C419.759 73.5753 415.407 81.2574 409.358 87.4944C403.308 93.7313 395.762 98.3154 387.439 100.81C385.049 101.52 386.069 105.28 388.439 104.56H388.469Z" fill="#2B2C2B"/>
<path d="M420 68.1898C423.756 71.8944 427.723 75.3801 431.88 78.6298C436.14 81.9398 440.879 84.6798 444.989 88.1898C453.169 95.1898 457.55 105.32 461.73 114.97C462.73 117.26 466.069 115.28 465.089 112.97C460.989 103.5 456.65 93.6298 448.94 86.4698C445.45 83.2298 441.34 80.7698 437.5 77.9798C432.278 74.1581 427.347 69.9531 422.75 65.3998C420.96 63.6498 418.21 66.3998 420 68.1498V68.1898Z" fill="#2B2C2B"/>
<path d="M471.849 75.5399C495.149 72.2299 520.779 65.2798 543.729 73.3798C565.369 80.9998 581.639 98.1798 596.999 114.52L598.889 111.27L583.499 108.09C579.379 107.24 574.979 105.83 570.729 106.09C566.839 106.33 563.289 108.03 559.349 108.09C554.389 108.027 549.53 106.676 545.249 104.17C529.509 95.5098 521.769 77.9999 507.809 67.1699L505.449 70.2199C510.149 72.6399 515.139 73.6399 520.279 74.6799C526.185 75.7235 531.788 78.0554 536.689 81.5099C546.389 88.4099 555.929 93.9999 567.569 96.9999C569.989 97.6199 571.029 93.8699 568.569 93.2499C556.569 90.1599 547.359 84.0799 537.279 77.2499C528.079 70.9999 516.999 71.8799 507.379 66.9099C505.539 65.9999 503.189 68.5499 504.999 69.9999C519.239 80.9999 527.149 98.7199 543.229 107.57C549.739 111.15 557.149 112.96 564.519 111.42C567.129 110.87 569.579 109.91 572.299 110C575.299 110.1 578.459 111.05 581.439 111.67L597.819 115C598.224 115.073 598.64 115.019 599.013 114.847C599.386 114.675 599.697 114.392 599.903 114.037C600.109 113.682 600.202 113.272 600.167 112.863C600.132 112.454 599.973 112.065 599.709 111.75C583.869 94.8599 567.099 77.5199 544.709 69.6099C521.119 61.2599 494.709 68.3698 470.769 71.7698C468.299 72.1198 469.349 75.8698 471.769 75.5198L471.849 75.5399Z" fill="#2B2C2B"/>
<path d="M103.7 398.48L117.28 411.58C119.08 413.32 121.83 410.58 120.03 408.83L106.45 395.73C104.65 393.99 101.9 396.73 103.7 398.48Z" fill="#2B2C2B"/>
<path d="M128.819 422.7L138.999 433.91C140.679 435.77 143.429 433.01 141.749 431.16L131.569 420C129.889 418.14 127.139 420.9 128.819 422.75V422.7Z" fill="#2B2C2B"/>
<path d="M151 450.52C154.433 453.691 157.073 457.623 158.71 462C159.58 464.32 163.34 463.32 162.46 461C160.619 455.986 157.625 451.475 153.72 447.83C151.89 446.13 149.13 448.83 150.97 450.58L151 450.52Z" fill="#2B2C2B"/>
<path d="M203.73 477.62C205.817 478.419 207.679 479.711 209.158 481.387C210.636 483.062 211.687 485.07 212.22 487.24C212.84 489.66 216.59 488.64 215.97 486.24C215.243 483.429 213.843 480.837 211.89 478.689C209.936 476.541 207.49 474.9 204.76 473.91C202.41 473.03 201.4 476.79 203.76 477.66L203.73 477.62Z" fill="#2B2C2B"/>
<path d="M220.929 502.56C221.967 506.263 223.735 509.721 226.129 512.73C227.669 514.73 230.409 511.93 228.879 509.98C226.934 507.469 225.506 504.597 224.679 501.53C224.009 499.12 220.259 500.14 220.929 502.53V502.56Z" fill="#2B2C2B"/>
<path d="M232.999 528.44C234.623 531.409 236.575 534.186 238.819 536.72C240.479 538.6 243.219 535.84 241.569 533.97C239.554 531.677 237.803 529.165 236.349 526.48C235.149 524.28 231.789 526.24 232.989 528.48L232.999 528.44Z" fill="#2B2C2B"/>
<path d="M245.54 548.65L251.18 554.97C252.85 556.84 255.59 554.08 253.93 552.22L248.29 545.9C246.62 544.03 243.88 546.79 245.54 548.65Z" fill="#2B2C2B"/>
<path d="M548.139 232C551.559 232 551.569 226.68 548.139 226.68C544.709 226.68 544.709 232 548.139 232Z" fill="#2B2C2B"/>
<path d="M549.469 241.37C552.889 241.37 552.899 236.05 549.469 236.05C546.039 236.05 546.039 241.37 549.469 241.37Z" fill="#2B2C2B"/>
<path d="M556.811 233.37C560.231 233.37 560.241 228.05 556.811 228.05C553.381 228.05 553.381 233.37 556.811 233.37Z" fill="#2B2C2B"/>
<path d="M558.811 241.37C562.231 241.37 562.241 236.05 558.811 236.05C555.381 236.05 555.381 241.37 558.811 241.37Z" fill="#2B2C2B"/>
<path d="M562.811 230C566.231 230 566.241 224.68 562.811 224.68C559.381 224.68 559.381 230 562.811 230Z" fill="#2B2C2B"/>
<path d="M552.811 221.37C556.231 221.37 556.241 216.05 552.811 216.05C549.381 216.05 549.381 221.37 552.811 221.37Z" fill="#2B2C2B"/>
<path d="M565.469 243.37C568.889 243.37 568.899 238.05 565.469 238.05C562.039 238.05 562.039 243.37 565.469 243.37Z" fill="#2B2C2B"/>
<path d="M530.811 245.37C534.231 245.37 534.241 240.05 530.811 240.05C527.381 240.05 527.381 245.37 530.811 245.37Z" fill="#2B2C2B"/>
<path d="M383.61 105.3C398.978 100.463 415.39 100.013 431 104C436.5 105.42 442 107.43 446.43 110.92C450.86 114.41 454.32 119.36 457.07 124.44C464.29 137.78 468.01 153.36 465.42 168.31C464.05 176.23 460.98 183.75 459.26 191.6C457.2 200.96 457.03 210.82 453.34 219.66C448.34 231.72 437.05 240.5 424.63 244.59C412.21 248.68 398.73 248.48 385.84 246.34C380.77 245.5 375.66 244.34 371.21 241.75C366.76 239.16 363 235 362 230" fill="#FFC736"/>
<path d="M384.129 107.17C401.779 101.8 423.509 101 440.409 109.47C456.079 117.31 463.579 139.79 464.239 156.17C464.629 165.87 461.929 174.73 459.239 183.93C456.689 192.72 455.969 201.72 454.019 210.62C450.229 227.95 436.729 239.74 419.799 243.95C409.459 246.52 398.559 246.33 388.079 244.75C378.349 243.28 366.599 240.33 363.809 229.46C363.189 227.04 359.439 228.06 360.059 230.46C364.829 249.09 391.639 250.46 407.149 249.64C424.919 248.71 443.209 241.16 452.609 225.3C457.989 216.23 458.609 205.76 460.399 195.62C462.269 185.2 466.679 175.39 467.809 164.82C469.749 146.74 463.289 123.64 449.549 111.05C441.659 103.82 430.399 101.23 420.069 99.9698C407.634 98.5173 395.032 99.6753 383.069 103.37C380.679 104.1 381.699 107.85 384.069 107.12L384.129 107.17Z" fill="#2B2C2B"/>
<path d="M539.469 230.71C542.889 230.71 542.899 225.39 539.469 225.39C536.039 225.39 536.039 230.71 539.469 230.71Z" fill="#2B2C2B"/>
<path d="M542.139 246C545.559 246 545.569 240.68 542.139 240.68C538.709 240.68 538.709 246 542.139 246Z" fill="#2B2C2B"/>
<path d="M402.64 550.45C397.05 550.98 391.96 547.55 387.17 544.61C380.723 540.653 373.9 537.343 366.8 534.73C364.22 533.78 361.5 532.91 358.8 533.31C356.1 533.71 353.41 535.73 353.18 538.47C353.207 539.108 353.129 539.747 352.95 540.36C352.44 541.53 350.95 541.81 349.67 541.94C350.057 542.311 350.36 542.759 350.561 543.256C350.761 543.753 350.853 544.287 350.831 544.822C350.809 545.357 350.674 545.881 350.434 546.36C350.195 546.839 349.856 547.262 349.44 547.6C348.59 548.21 347.44 548.53 347.01 549.5C346.899 549.917 346.88 550.354 346.956 550.779C347.032 551.204 347.201 551.608 347.45 551.96C350.09 556.75 355.1 559.82 360.29 561.53C365.48 563.24 370.97 563.79 376.29 564.84C389.24 567.36 401.5 572.77 414.49 575.03C421.772 576.14 429.125 576.721 436.49 576.77C442.36 576.93 448.29 577.06 454.04 575.85C461.23 574.35 467.81 570.85 474.28 567.37C488.09 559.95 501.95 552.37 514.28 542.67C526.61 532.97 537.28 520.79 543.28 506.27L523.28 522.8C518.929 526.53 514.379 530.021 509.65 533.26C495.01 542.9 477.65 547.42 460.71 551.79C452.22 553.97 443.39 556.17 434.78 554.53C427.473 553.012 420.369 550.646 413.61 547.48C406.61 544.38 395.76 542.26 388.84 545.61" fill="#F04B24"/>
<path d="M402.641 548.51C395.701 548.69 390.151 543.96 384.391 540.72C379.427 537.929 374.267 535.503 368.951 533.46C365.061 531.96 360.581 530.31 356.461 531.95C354.636 532.623 353.102 533.91 352.121 535.59C351.121 537.44 351.651 539.65 349.121 540.04C347.531 540.29 347.441 542.3 348.261 543.29C349.521 544.82 345.371 547.81 345.031 549.48C344.511 552 346.631 554.57 348.191 556.31C352.961 561.62 360.001 563.82 366.801 565.12C375.693 566.708 384.49 568.788 393.151 571.35C401.291 573.86 409.411 576.35 417.881 577.47C433.881 579.59 451.251 580.47 466.231 573.63C482.512 566.248 497.967 557.167 512.341 546.54C526.131 536.18 538.101 523.27 544.871 507.24C545.038 506.835 545.067 506.386 544.954 505.963C544.84 505.54 544.592 505.166 544.245 504.898C543.899 504.63 543.474 504.483 543.036 504.48C542.599 504.477 542.172 504.617 541.821 504.88C530.111 514.56 518.691 525.59 505.621 533.43C493.191 540.89 479.131 544.94 465.201 548.58C457.671 550.58 449.951 552.94 442.111 553.13C434.671 553.31 427.311 550.94 420.451 548.27C409.951 544.18 399.001 539.15 387.781 543.92C385.481 544.92 387.461 548.25 389.781 547.28C403.031 541.66 417.421 552.28 429.961 555.44C444.081 559.02 457.731 554.7 471.381 550.97C484.451 547.4 497.571 543.13 509.111 535.87C521.831 527.87 533.061 517.17 544.611 507.63L541.561 505.27C528.941 535.13 499.771 551.53 472.561 566.1C464.761 570.27 456.951 573.97 448.021 574.7C440.021 575.35 431.681 574.84 423.711 574.18C407.181 572.82 392.181 565.79 376.011 562.76C368.011 561.26 355.771 560.76 350.741 553.15C349.111 550.69 349.591 550.29 351.241 548.56C351.855 547.942 352.314 547.188 352.581 546.36C352.86 545.343 352.871 544.271 352.611 543.25C352.352 542.228 351.832 541.291 351.101 540.53L350.241 543.78C354.561 543.11 354.291 540.84 356.181 537.64C359.611 531.82 371.011 538.3 375.531 540.45C384.161 544.56 392.711 552.65 402.711 552.38C405.211 552.31 405.221 548.38 402.711 548.49L402.641 548.51Z" fill="#F04B24"/>
<path d="M432.061 576C437.092 572.229 443.085 569.955 449.351 569.44C451.831 569.24 451.851 565.35 449.351 565.55C442.396 566.058 435.724 568.515 430.101 572.64C428.101 574.11 430.041 577.48 432.101 576H432.061Z" fill="white"/>
<path d="M472.699 561.51L476.359 559.18Z" fill="#2B2C2B"/>
<path d="M473.68 563.19L477.34 560.86C477.785 560.595 478.107 560.163 478.235 559.661C478.362 559.158 478.285 558.625 478.02 558.18C477.754 557.734 477.323 557.412 476.821 557.285C476.318 557.157 475.785 557.235 475.34 557.5L471.68 559.83C471.234 560.095 470.912 560.527 470.785 561.029C470.657 561.532 470.735 562.064 471 562.51C471.265 562.956 471.696 563.277 472.199 563.405C472.701 563.532 473.234 563.455 473.68 563.19Z" fill="#2B2C2B"/>
<path d="M483.08 558C485.58 558 485.59 554.11 483.08 554.11C480.57 554.11 480.57 558 483.08 558Z" fill="white"/>
<path d="M345.34 551.59C343.758 550.358 342.654 548.614 342.215 546.657C341.777 544.701 342.032 542.653 342.936 540.863C343.841 539.074 345.34 537.654 347.175 536.847C349.011 536.041 351.07 535.897 353 536.44" fill="#6ABD45"/>
<path d="M346.71 550.22C341.36 545.52 345.2 536.76 352.44 538.31C354.88 538.83 355.92 535.09 353.44 534.56C342.66 532.25 335.44 545.51 343.93 552.96C345.8 554.61 348.56 551.87 346.68 550.21L346.71 550.22Z" fill="#6ABD45"/>
<path d="M326.551 541.06C330.993 539.808 335.677 539.681 340.181 540.69Z" fill="#6ABD45"/>
<path d="M327.071 542.93C331.183 541.819 335.5 541.693 339.671 542.56C342.111 543.06 343.161 539.32 340.671 538.81C335.822 537.783 330.801 537.91 326.011 539.18C323.591 539.82 324.621 543.57 327.011 542.93H327.071Z" fill="#6ABD45"/>
<path d="M558.43 145.44C549.06 136.73 537.56 131.44 525.21 128.58C519.609 127.4 514.247 125.284 509.35 122.32C504.71 119.46 500.19 116.59 494.97 114.87C488.74 112.82 481.7 112.53 475.21 112.01C469.73 111.57 460.57 109.93 457.12 115.56L468.54 120.38C472.88 103.2 460.14 89.4899 447 80.5699C440.2 75.9499 433.15 71.8499 427.61 65.6599C425 62.7399 422.48 60.4199 418.53 59.5599C413.8 58.5599 408.46 59.5599 403.74 60.2299C394.309 61.4437 385.019 63.5703 376 66.5799C366.83 69.6699 358.62 72.2799 348.84 72.5799C339.47 72.8399 330.12 72.2899 320.84 73.5099C312.063 74.6924 303.573 77.4535 295.78 81.6599C288.35 85.6599 282.65 91.8199 277.04 97.9899C272.12 103.4 266.59 110.77 269.6 118.46L272.47 111.4C259.7 118.64 246.86 125.76 233.47 131.9C218.61 138.73 203.22 144.09 187.72 149.25C172.66 154.25 157.81 159.72 143.72 167.08C130.23 174.13 116.25 183.08 100.72 184.52C97.4798 184.81 94.2998 187.15 94.4698 190.77C95.9298 221.68 99.8998 253.36 108.6 283.13C115.03 305.13 126.6 327.99 149.9 335.52L145.53 327.83C142.37 343.77 124.04 350.67 111.72 358.38C103.029 363.781 94.7982 369.888 87.1098 376.64C79.3198 383.54 76.9898 392.16 82.2798 401.5C86.4398 408.84 93.0298 415.3 98.8098 421.37C104.59 427.44 110.63 433.28 116.59 439.17C127.98 450.44 139.45 462 147.59 475.94C151.635 482.921 154.605 490.473 156.4 498.34C158.4 506.68 161.59 515.41 170.49 518.34C172.226 518.96 174.069 519.228 175.91 519.129C177.751 519.03 179.554 518.565 181.214 517.762C182.873 516.959 184.356 515.833 185.576 514.451C186.796 513.068 187.729 511.457 188.32 509.71C190.46 503.47 188.12 497.11 189.32 490.86C189.87 488.1 191.49 487.32 194.16 488.59C197.71 490.28 199.37 494.84 200.77 498.23C204.438 507.344 208.58 516.259 213.18 524.94C217.931 533.693 223.242 542.131 229.08 550.2C231.793 553.953 234.61 557.62 237.53 561.2C240.6 565 243.7 569.39 247.86 572.1C257.5 578.37 264.1 570.29 269.72 563.23C276.2 555.103 282.453 546.803 288.48 538.33C294.506 529.857 300.346 521.123 306 512.13C308.47 508.18 310.95 504.23 313.22 500.13C313.88 498.94 315.5 495.61 316.06 495.45C317.06 495.18 320.17 496.77 321.06 497.08C323.39 497.92 325.73 498.75 328.06 499.54C333.006 501.213 338.006 502.747 343.06 504.14C353.003 506.898 363.119 508.993 373.34 510.41C393.671 513.214 414.311 512.876 434.54 509.41C472.078 502.941 507.15 486.383 536 461.51C561.88 439.12 581.75 410.3 594.94 378.83C623 311.9 620.66 228.75 577.85 168.34C572.069 160.154 565.577 152.494 558.45 145.45C552.71 139.8 543.87 148.63 549.61 154.29C601.67 205.58 611.73 287.42 590.44 354.96C569.74 420.64 519.15 473.77 452.28 492.65C414.2 503.4 375.12 501.29 337.55 489.53C332.83 488.05 328.17 486.41 323.55 484.74C320.13 483.52 316.38 482.39 312.73 483.32C306.48 484.92 304.06 491.32 301.11 496.32C291.041 513.35 279.971 529.769 267.96 545.49C264.933 549.49 261.84 553.437 258.68 557.33C257.74 558.5 256.14 561.53 254.68 562.07C255.78 561.66 255.53 562.94 254.33 561.36C253.55 560.36 252.43 559.45 251.57 558.47C245.373 551.368 239.669 543.851 234.5 535.97C229.147 527.904 224.304 519.511 220 510.84C216.1 502.96 213.54 494.19 209.11 486.61C205.16 479.85 198.2 474.71 190.11 475.61C182.51 476.47 177.99 482.56 177.11 489.77C176.82 492.818 176.777 495.885 176.98 498.94C177.04 500.63 177.79 505.03 176.31 506.3C171.45 510.48 168.05 492.7 167.45 490.54C158.9 459.8 133.39 438.59 111.88 416.74C106.108 411.074 100.684 405.063 95.6398 398.74C92.8998 395.18 90.2098 391.56 93.6398 387.68C96.9498 383.96 101.42 380.86 105.38 377.88C118.72 367.88 135.15 361.39 147.13 349.68C152.437 344.705 156.108 338.237 157.66 331.13C158.056 329.532 157.824 327.843 157.01 326.412C156.197 324.981 154.865 323.917 153.29 323.44C133.19 316.92 124.54 294.34 119.59 275.7C112.24 248.02 108.39 219.31 107.04 190.7L100.76 197C116.76 195.56 130.85 188.06 144.76 180.66C159.62 172.908 175.109 166.425 191.06 161.28C206.82 156.03 222.43 150.51 237.58 143.68C251.71 137.31 265.27 129.82 278.74 122.18C280.93 120.93 282.59 117.64 281.61 115.12C280.07 111.19 286.2 106.37 288.61 103.86C293.02 99.3099 296.99 95.0299 302.71 92.0599C316.88 84.7199 331.61 85.3499 347.07 85.0599C354.407 85.0967 361.716 84.1653 368.81 82.2899C376.53 80.0499 383.88 76.9099 391.74 75.0299C395.64 74.0999 399.57 73.3299 403.54 72.7399C406.92 72.2399 411.84 70.9299 415.22 71.6799C417.93 72.2799 420.02 75.9999 422.04 77.8699C424.566 80.1674 427.238 82.2985 430.04 84.2499C440.31 91.5399 460.42 101.25 456.42 117.03C454.68 123.91 464.11 127.93 467.84 121.85C466.918 122.722 465.913 123.502 464.84 124.18C464.84 124.37 464.7 124.02 465.5 124.18C466.722 124.247 467.947 124.247 469.17 124.18C472.4 124.27 475.63 124.55 478.85 124.86C484.94 125.45 489.17 125.45 494.97 128.34C498.88 130.29 502.41 132.92 506.22 135.04C510.609 137.413 515.303 139.172 520.17 140.27C531.05 142.88 541.17 146.52 549.56 154.27C555.48 159.75 564.34 150.93 558.43 145.44Z" fill="#FFC736"/>
<path d="M378.559 100.92C374.849 93.7599 367.879 88.6799 360.329 85.8299C352.779 82.9799 344.629 82.1699 336.569 81.8299C331.582 81.4798 326.571 81.6877 321.629 82.4499C310.369 84.4499 300.629 91.2499 291.279 97.8399C288.079 100.1 284.819 102.41 282.429 105.51C278.019 111.23 277.119 118.82 276.429 126.01C274.949 140.33 273.569 155.35 279.129 168.62C281.279 173.75 284.399 178.43 286.709 183.49C291.529 194.05 292.639 205.86 295.139 217.2C296.139 221.81 297.469 226.48 300.249 230.3C305.489 237.5 314.959 240.3 323.849 240.72C345.779 241.72 367.409 230.44 380.929 213.14C384.155 209.049 386.909 204.608 389.139 199.9C392.399 192.9 394.329 185.46 396.219 178.02C397.879 171.48 399.539 164.9 399.919 158.16C401.129 137 389.849 117.37 378.919 99.1599" fill="#FFC736"/>
<path d="M380.239 99.93C372.899 86.74 358.239 81.78 344.019 80.37C335.929 79.57 327.429 79.11 319.439 80.9C311.739 82.63 304.679 86.5 298.129 90.78C292.129 94.67 285.129 98.78 280.749 104.52C276.609 110.06 275.449 116.97 274.689 123.68C272.959 138.83 271.269 155.17 277.399 169.59C280.789 177.59 285.619 184.54 288.019 192.96C290.339 201.08 291.369 209.48 293.219 217.71C294.649 224.09 296.779 230.41 301.779 234.91C306.529 239.18 312.849 241.33 319.079 242.21C347.849 246.28 377.279 227.74 390.029 202.44C394.099 194.35 396.319 185.5 398.509 176.75C400.839 167.46 402.619 158.18 401.509 148.57C399.509 130.18 389.879 113.79 380.509 98.21C379.229 96.07 375.859 98.02 377.149 100.21C384.779 112.95 392.539 126.03 396.149 140.59C399.899 155.88 396.389 170.45 392.229 185.26C384.529 212.68 362.309 235.26 333.129 238.51C319.549 240.01 303.629 237.33 298.569 222.82C294.179 210.22 294.259 196.54 288.999 184.13C286.439 178.13 282.599 172.67 280.279 166.53C277.499 159.16 276.839 151.22 276.999 143.4C277.129 137.09 277.739 130.77 278.449 124.49C279.359 116.49 280.889 108.85 287.249 103.3C299.889 92.3 315.739 83.41 332.789 83.67C348.949 83.92 368.169 86.35 376.849 101.93C378.069 104.12 381.429 102.16 380.209 99.93H380.239Z" fill="#2B2C2B"/>
<path d="M317.43 375.14C322.74 369.92 328.9 369.98 335.19 373.64C340.224 376.579 343.905 381.376 345.44 387C346.13 389.4 349.88 388.38 349.19 386C348.175 382.272 346.347 378.814 343.839 375.875C341.33 372.936 338.203 370.588 334.68 369C327.08 365.64 320.56 366.59 314.68 372.36C312.89 374.12 315.68 376.87 317.43 375.11V375.14Z" fill="white"/>
<path d="M347.61 222.71C350.81 221.838 353.74 220.175 356.129 217.873C358.518 215.571 360.289 212.706 361.28 209.54C362.04 207.15 358.28 206.13 357.53 208.54C356.725 211.069 355.295 213.353 353.372 215.182C351.449 217.01 349.096 218.324 346.53 219C344.12 219.66 345.14 223.41 347.53 222.75L347.61 222.71Z" fill="#2B2C2B"/>
<path d="M291.359 180.64C292.412 178.387 293.569 176.187 294.829 174.04C296.099 171.88 292.739 169.92 291.469 172.04C290.199 174.16 289.059 176.39 287.999 178.64C286.939 180.89 290.299 182.87 291.359 180.64Z" fill="#2B2C2B"/>
<path d="M297.071 183.65C298.274 181.349 299.644 179.14 301.171 177.04C302.641 175.04 299.271 173.04 297.811 175.04C296.284 177.14 294.914 179.349 293.711 181.65C292.551 183.86 295.911 185.83 297.071 183.65Z" fill="#2B2C2B"/>
<path d="M302 185.54C303.158 181.997 304.92 178.681 307.21 175.74C308.74 173.79 306 171.02 304.46 172.99C301.734 176.439 299.633 180.337 298.25 184.51C297.46 186.89 301.25 187.91 302 185.51V185.54Z" fill="#2B2C2B"/>
<path d="M308.47 169.66C310.97 169.66 310.98 165.77 308.47 165.77C305.96 165.77 305.96 169.66 308.47 169.66Z" fill="#2B2C2B"/>
<path d="M356 102.15C355.81 101.052 355.226 100.061 354.356 99.365C353.487 98.6686 352.392 98.3146 351.28 98.3699C348.33 98.4299 346.28 101.11 344.96 103.45C339.65 112.74 351.85 114.76 354.35 121.45C355.35 124.08 356.22 126.57 358.96 127.8C360.02 128.365 361.252 128.519 362.419 128.231C363.585 127.943 364.604 127.234 365.28 126.24C369.28 120.42 366.41 110.41 362.71 105.33C360.71 102.59 356.1 105.24 358.12 108.02C360.128 110.62 361.34 113.746 361.61 117.02C361.809 118.648 361.666 120.3 361.19 121.87C360.09 124.49 359.92 121.05 359.25 119.35C358.512 117.19 357.207 115.27 355.47 113.79C354.47 112.91 353.14 112.37 352.12 111.5C350.313 110.513 349.46 108.743 349.56 106.19C350.175 105.435 350.625 104.56 350.88 103.62C351.48 106.99 356.61 105.56 356.01 102.21L356 102.15Z" fill="#2B2C2B"/>
<path d="M374.281 237.3C385.651 238.93 397.491 239.83 408.691 236.69C420.691 233.32 428.691 224.96 436.251 215.56C437.811 213.63 435.071 210.86 433.501 212.81C426.351 221.65 418.961 229.75 407.661 232.94C397.171 235.94 385.971 235.08 375.311 233.55C372.861 233.2 371.811 236.95 374.311 237.3H374.281Z" fill="#2B2C2B"/>
<path d="M433.21 227.75C431.361 226.564 429.597 225.251 427.93 223.82C426.04 222.2 423.28 224.93 425.18 226.57C427.093 228.218 429.118 229.732 431.24 231.1C433.35 232.46 435.3 229.1 433.24 227.74L433.21 227.75Z" fill="#2B2C2B"/>
<path d="M428.931 232.48C426.396 231.617 424.077 230.219 422.131 228.38C420.411 226.55 417.671 229.3 419.381 231.13C421.721 233.62 424.801 234.95 427.901 236.23C428.397 236.352 428.922 236.279 429.366 236.026C429.811 235.773 430.142 235.359 430.291 234.87C430.413 234.373 430.339 233.849 430.087 233.404C429.834 232.96 429.42 232.629 428.931 232.48Z" fill="#2B2C2B"/>
</svg>
