<svg width="128" height="112" viewBox="0 0 128 112" fill="none" xmlns="http://www.w3.org/2000/svg">
<path d="M61.8157 39.6407C52.1694 39.5125 42.5423 40.2027 32.9664 41.3695C28.2651 41.9423 23.5979 42.6197 18.9286 43.3398C14.7316 43.9809 10.1371 44.3015 6.28835 46.2376C3.11707 47.8339 0.347536 51.1526 0.815535 54.8924C1.24293 58.2987 4.11931 60.6344 6.97646 62.1325C10.9192 64.1989 15.3705 65.4512 19.683 66.4727C24.254 67.5561 28.9062 68.2998 33.5584 68.9388C52.7366 71.5699 72.1734 71.7265 91.3915 69.4046C96.1072 68.8348 100.801 68.1174 105.474 67.2527C110.043 66.3979 114.727 65.5837 119.172 64.2096C122.658 63.1411 126.256 60.9892 127.068 57.1405C127.831 53.5204 125.258 50.8577 122.265 49.3319C118.446 47.383 114.144 46.1564 110.022 45.0174C105.541 43.7921 100.995 42.8183 96.4049 42.1004C87.2522 40.643 77.9884 40.0489 68.7331 39.7839C66.4266 39.7184 64.1194 39.6699 61.8114 39.6386C61.1233 39.6386 61.1233 40.7071 61.8114 40.7071C79.3112 40.9614 97.0759 41.9038 113.873 47.2826C115.892 47.9237 117.901 48.6267 119.869 49.4196C121.512 50.082 123.209 50.8855 124.485 52.1463C127.712 55.339 125.577 59.8395 122.134 61.8141C120.341 62.8462 118.32 63.3805 116.324 63.8613C114.157 64.3827 111.979 64.8635 109.795 65.3166C105.392 66.2283 100.963 67.0076 96.5096 67.6544C78.5284 70.2558 60.2985 70.6712 42.2174 68.8917C33.2678 68.0113 24.1578 66.8381 15.518 64.2609C11.7612 63.1411 7.59191 61.8632 4.55526 59.2668C3.3094 58.1983 2.25372 56.8285 1.9289 55.1894C1.5186 53.1144 2.3563 51.0629 3.70901 49.5093C6.46358 46.3508 10.9 45.682 14.8213 45.058C19.1893 44.3613 23.5594 43.6882 27.9424 43.0877C36.8964 41.861 45.8931 40.9507 54.9432 40.737C57.2312 40.6814 59.5199 40.67 61.8093 40.7028C62.4953 40.7178 62.4953 39.6493 61.8157 39.6407Z" fill="#FFC736"/>
<path d="M33.5098 65.2136C52.5002 67.2506 71.6457 67.3995 90.6655 65.6581C91.0929 65.6175 91.6122 65.5299 91.8109 65.1388C92.1507 64.4678 91.2532 63.8566 90.5287 63.6429C82.1112 61.132 73.2512 60.3605 64.4576 60.4994C55.6639 60.6383 36.681 62.0445 33.5098 65.2136Z" fill="#FFC736"/>
<path d="M105.074 62.0748C80.2403 67.257 54.5986 67.9515 29.5831 63.5964C27.2965 63.1989 24.6039 62.9382 22.6828 61.5021C20.1611 59.6173 20.9411 56.258 23.0503 54.3902C25.1595 52.5225 28.2453 51.7019 30.9294 50.9711C33.7776 50.2194 36.6704 49.6484 39.5906 49.2615C52.0299 47.5348 64.7429 47.2762 77.2613 48.1588C80.7375 48.4038 84.2051 48.745 87.6641 49.1824C90.9658 49.6098 94.3102 50.0158 97.5434 50.8215C100.477 51.5502 103.583 52.7042 105.737 54.9159C106.769 55.9844 107.611 57.4034 107.487 58.9335C107.371 60.3652 106.504 61.6966 105.072 62.0641C104.407 62.2351 104.689 63.2673 105.356 63.0942C107.431 62.5599 108.666 60.4571 108.562 58.3736C108.436 55.9139 106.57 53.9436 104.638 52.6358C99.5522 49.1931 92.7587 48.7315 86.835 48.0092C73.1221 46.3398 59.268 46.1714 45.5186 47.507C39.1183 48.131 32.577 48.9431 26.5315 51.2446C24.0675 52.1827 21.5822 53.5611 20.4902 56.0934C19.5649 58.2304 19.9773 60.6495 21.813 62.1582C23.6487 63.6669 26.1831 64.0601 28.4633 64.4661C31.8369 65.0673 35.224 65.5823 38.6247 66.0111C45.5393 66.8878 52.4958 67.395 59.4645 67.5305C74.8743 67.8212 90.2777 66.2484 105.36 63.1027C106.029 62.9724 105.745 61.9338 105.074 62.0748Z" fill="#FFC736"/>
<path d="M53.7833 29.4107C55.9203 31.5477 55.3283 34.8066 54.1915 37.277C52.9969 39.8713 51.2232 42.2155 50.6612 45.0684C50.1889 47.4683 50.7253 49.648 52.3302 51.4794C53.8496 53.2231 56.0528 54.5395 56.7836 56.8432C56.9973 57.4971 58.0231 57.2172 57.8137 56.559C57.1042 54.3237 55.2493 52.9517 53.6679 51.3447C52.749 50.4109 51.9583 49.3809 51.6677 48.0752C51.3001 46.419 51.7382 44.656 52.3729 43.1323C54.1509 38.8306 58.9399 33.0351 54.5398 28.6436C54.0526 28.1563 53.2961 28.9128 53.7833 29.4001V29.4107Z" fill="#FFC736"/>
<path d="M60.3738 24.4466C65.0111 27.9854 63.5942 34.6528 62.81 39.5422C62.0813 44.0748 61.8505 49.4065 65.5261 52.7915C66.0304 53.2574 66.789 52.503 66.2826 52.035C61.8569 47.9491 63.6926 41.3501 64.4277 36.2085C65.0688 31.7102 64.8422 26.5109 60.9145 23.5149C60.3674 23.0875 59.8353 24.0256 60.376 24.438L60.3738 24.4466Z" fill="#FFC736"/>
<path d="M69.0152 31.219C70.962 31.9477 71.3658 34.2557 71.0581 36.0721C70.744 37.9334 69.8764 39.6451 69.5045 41.4936C68.8143 44.9363 70.4619 47.3896 72.9771 49.5586C73.4964 50.0052 74.2593 49.253 73.7336 48.8021C72.3467 47.6054 70.8914 46.2206 70.4875 44.3593C70.0195 42.2031 71.041 40.0618 71.6608 38.0467C72.5284 35.2301 72.5797 31.422 69.2973 30.1911C68.6562 29.9496 68.3741 30.9818 69.013 31.2211L69.0152 31.219Z" fill="#FFC736"/>
<path d="M104.143 68.8234C106.707 68.3554 109.216 67.6779 111.725 66.992C114.099 66.3509 116.512 65.8166 118.875 65.1328C122.899 63.9703 127.12 61.5405 127.895 57.0422C128.652 52.6507 125.179 49.7059 121.54 48.1075C117.127 46.1713 112.432 44.7674 107.767 43.5941C98.1037 41.1601 88.1561 39.9848 78.2234 39.3907C67.9659 38.7774 57.6442 38.5573 47.3846 39.2026C37.2382 39.8437 27.1559 41.2413 17.1164 42.812C12.6095 43.5172 7.56618 43.9232 3.84355 46.8381C0.569694 49.4025 -1.12921 53.732 0.836816 57.6213C2.6789 61.2734 6.72634 62.9723 10.2737 64.4682C12.6244 65.4576 14.9751 66.447 17.3728 67.2805C18.5054 67.6737 19.6508 68.0327 20.8112 68.3361C21.2386 68.4494 21.9951 68.4857 22.3626 68.7016C22.79 68.9537 23.1875 69.5734 23.5615 69.9346C26.7456 73.0054 30.59 74.948 34.8191 76.1318C35.7743 76.399 36.7424 76.664 37.5972 77.1726C38.6443 77.7902 39.279 78.8351 40.1616 79.6472C41.7878 81.1559 43.9098 81.6709 46.0276 82.0705C56.2922 84.0241 66.7915 84.4296 77.1763 83.2736C79.4885 83.0129 81.9545 82.8462 84.1749 82.1026C85.1298 81.8002 86.0245 81.333 86.8183 80.7221C87.7629 79.9763 88.3484 78.9655 89.1391 78.0808C90.5901 76.4609 92.9044 76.3498 94.8598 75.7301C96.8967 75.0749 98.8104 74.0855 100.523 72.8024C102.229 71.5168 103.72 69.9681 104.94 68.2143C105.929 66.8039 103.615 65.4683 102.634 66.8659C100.317 70.1352 96.9145 72.4754 93.0327 73.4692C91.1692 73.9543 89.2374 74.3646 87.7586 75.6895C86.9508 76.4118 86.4294 77.3713 85.6921 78.1556C84.9914 78.8651 84.1121 79.3724 83.147 79.6237C81.0314 80.252 78.7491 80.4336 76.5629 80.6687C74.1709 80.9251 71.7718 81.0975 69.3656 81.1858C64.4208 81.3645 59.4696 81.1888 54.5499 80.6601C52.128 80.408 49.7267 80.0603 47.3461 79.6173C45.3972 79.2604 43.2431 78.9869 41.79 77.5102C41.0677 76.7772 40.4629 75.9652 39.6337 75.3412C38.775 74.7273 37.8223 74.2567 36.8129 73.9478C34.9238 73.3068 33.0091 72.905 31.2012 72.0353C29.3936 71.1713 27.7132 70.0632 26.2071 68.7422C25.4741 68.1011 24.8415 67.3659 24.1513 66.68C23.3628 65.8957 21.8006 65.8465 20.7556 65.5495C18.5061 64.8877 16.2946 64.1029 14.131 63.1988C12.1436 62.391 10.107 61.6196 8.19231 60.6473C5.23473 59.1514 1.78136 56.4866 2.81994 52.7127C3.98887 48.4857 8.64108 46.9813 12.4684 46.2547C21.6574 44.5109 31.0367 43.3057 40.3411 42.4231C49.8635 41.5213 59.3731 41.3695 68.9296 41.6474C78.2768 41.9209 87.6432 42.515 96.8771 44.0493C101.461 44.7989 105.999 45.8085 110.468 47.0732C112.674 47.7043 114.857 48.4073 117.018 49.1824C118.905 49.8619 120.828 50.5415 122.534 51.6185C123.942 52.5075 125.239 53.8196 125.335 55.5741C125.438 57.4354 124.297 59.2219 122.884 60.3481C121.237 61.6623 119.153 62.3034 117.144 62.8227C114.903 63.4018 112.657 63.9575 110.419 64.5665C108.109 65.1969 105.793 65.8017 103.433 66.2333C101.743 66.5582 102.459 69.1332 104.143 68.8234Z" fill="#FFC736"/>
<path d="M24.3047 67.7033C25.2263 69.2561 26.4524 70.6064 27.9093 71.6732C29.3661 72.7401 31.0236 73.5013 32.7821 73.9112C34.2566 74.2468 35.8081 74.3386 37.1864 74.9584C38.6267 75.6101 39.7508 76.7898 41.0159 77.7364C43.9243 79.9076 47.5679 80.8244 51.1431 81.442C56.9618 82.4338 62.8701 82.7992 68.7668 82.5318C73.3549 82.3331 77.9558 81.7647 82.3216 80.335C86.7324 78.8883 90.8097 76.5889 94.8508 74.3044C96.774 73.2167 103.315 69.695 103.785 67.5366C97.8404 69.0453 87.4397 71.3298 81.3472 71.973C62.4306 73.9689 38.5306 72.2572 24.3132 67.699" fill="#FFC736"/>
</svg>
