<svg width="681" height="681" viewBox="0 0 681 681" fill="none" xmlns="http://www.w3.org/2000/svg">
<path d="M343.999 238.82C298.859 238.22 253.809 241.45 208.999 246.91C186.999 249.59 165.159 252.76 143.309 256.13C123.669 259.13 102.169 260.63 84.1593 269.69C69.3193 277.16 56.3593 292.69 58.5493 310.19C60.5493 326.13 74.0093 337.06 87.3793 344.07C105.829 353.74 126.659 359.6 146.839 364.38C168.229 369.45 189.999 372.93 211.769 375.92C301.514 388.232 392.468 388.965 482.399 378.1C504.466 375.433 526.433 372.076 548.299 368.03C569.679 364.03 591.599 360.22 612.399 353.79C628.709 348.79 645.549 338.72 649.349 320.71C652.919 303.77 640.879 291.31 626.869 284.17C608.999 275.05 588.869 269.31 569.579 263.98C548.61 258.246 527.337 253.689 505.859 250.33C463.029 243.51 419.679 240.73 376.369 239.49C365.576 239.183 354.779 238.956 343.979 238.81C340.759 238.81 340.759 243.81 343.979 243.81C425.869 245 508.999 249.41 587.599 274.58C597.049 277.58 606.449 280.87 615.659 284.58C623.349 287.68 631.289 291.44 637.259 297.34C652.359 312.28 642.369 333.34 626.259 342.58C617.869 347.41 608.409 349.91 599.069 352.16C588.929 354.6 578.739 356.85 568.519 358.97C547.913 363.236 527.189 366.883 506.349 369.91C422.206 382.083 336.899 384.027 252.289 375.7C210.409 371.58 167.779 366.09 127.349 354.03C109.769 348.79 90.2593 342.81 76.0493 330.66C70.2193 325.66 65.2793 319.25 63.7593 311.58C61.8393 301.87 65.7593 292.27 72.0893 285C84.9793 270.22 105.739 267.09 124.089 264.17C144.529 260.91 164.979 257.76 185.489 254.95C227.389 249.21 269.489 244.95 311.839 243.95C322.546 243.69 333.256 243.636 343.969 243.79C347.179 243.86 347.179 238.86 343.999 238.82Z" fill="#2B2C2B"/>
<path d="M211.541 358.49C300.406 368.022 389.998 368.719 479.001 360.57C481.001 360.38 483.431 359.97 484.361 358.14C485.951 355 481.751 352.14 478.361 351.14C438.971 339.39 397.511 335.78 356.361 336.43C315.211 337.08 226.381 343.66 211.541 358.49Z" fill="#F04B24"/>
<path d="M546.431 343.8C430.221 368.05 310.231 371.3 193.171 350.92C182.471 349.06 169.871 347.84 160.881 341.12C149.081 332.3 152.731 316.58 162.601 307.84C172.471 299.1 186.911 295.26 199.471 291.84C212.799 288.322 226.336 285.65 240.001 283.84C298.211 275.76 357.701 274.55 416.281 278.68C432.547 279.827 448.774 281.423 464.961 283.47C480.411 285.47 496.061 287.37 511.191 291.14C524.921 294.55 539.451 299.95 549.531 310.3C554.361 315.3 558.301 321.94 557.721 329.1C557.181 335.8 553.121 342.03 546.421 343.75C543.311 344.55 544.631 349.38 547.751 348.57C557.461 346.07 563.241 336.23 562.751 326.48C562.161 314.97 553.431 305.75 544.391 299.63C520.591 283.52 488.801 281.36 461.081 277.98C396.911 270.168 332.081 269.38 267.741 275.63C237.791 278.55 207.181 282.35 178.891 293.12C167.361 297.51 155.731 303.96 150.621 315.81C146.291 325.81 148.221 337.13 156.811 344.19C165.401 351.25 177.261 353.09 187.931 354.99C203.717 357.803 219.567 360.213 235.481 362.22C267.838 366.322 300.391 368.696 333.001 369.33C405.111 370.69 477.191 363.33 547.771 348.61C550.901 348 549.571 343.14 546.431 343.8Z" fill="#FFC837"/>
<path d="M306.42 190.95C316.42 200.95 313.65 216.2 308.33 227.76C302.74 239.9 294.44 250.87 291.81 264.22C289.6 275.45 292.11 285.65 299.62 294.22C306.73 302.38 317.04 308.54 320.46 319.32C321.46 322.38 326.26 321.07 325.28 317.99C321.96 307.53 313.28 301.11 305.88 293.59C301.58 289.22 297.88 284.4 296.52 278.29C294.8 270.54 296.85 262.29 299.82 255.16C308.14 235.03 330.55 207.91 309.96 187.36C307.68 185.08 304.14 188.62 306.42 190.9V190.95Z" fill="#EEEDEE"/>
<path d="M337.251 167.72C358.951 184.28 352.321 215.48 348.651 238.36C345.241 259.57 344.161 284.52 361.361 300.36C363.721 302.54 367.271 299.01 364.901 296.82C344.191 277.7 352.781 246.82 356.221 222.76C359.221 201.71 358.161 177.38 339.781 163.36C337.221 161.36 334.731 165.75 337.261 167.68L337.251 167.72Z" fill="#EEEDEE"/>
<path d="M377.69 199.41C386.8 202.82 388.69 213.62 387.25 222.12C385.78 230.83 381.72 238.84 379.98 247.49C376.75 263.6 384.46 275.08 396.23 285.23C398.66 287.32 402.23 283.8 399.77 281.69C393.28 276.09 386.47 269.61 384.58 260.9C382.39 250.81 387.17 240.79 390.07 231.36C394.13 218.18 394.37 200.36 379.01 194.6C376.01 193.47 374.69 198.3 377.68 199.42L377.69 199.41Z" fill="#EEEDEE"/>
<path d="M542.07 375.38C554.07 373.19 565.81 370.02 577.55 366.81C588.66 363.81 599.95 361.31 611.01 358.11C629.84 352.67 649.59 341.3 653.22 320.25C656.76 299.7 640.51 285.92 623.48 278.44C602.83 269.38 580.86 262.81 559.03 257.32C513.81 245.93 467.26 240.43 420.78 237.65C372.78 234.78 324.48 233.75 276.47 236.77C228.99 239.77 181.81 246.31 134.83 253.66C113.74 256.96 90.1403 258.86 72.7203 272.5C57.4003 284.5 49.4503 304.76 58.6503 322.96C67.2703 340.05 86.2102 348 102.81 355C113.81 359.63 124.81 364.26 136.03 368.16C141.33 370 146.69 371.68 152.12 373.1C154.12 373.63 157.66 373.8 159.38 374.81C161.38 375.99 163.24 378.89 164.99 380.58C179.89 394.95 197.88 404.04 217.67 409.58C222.14 410.83 226.67 412.07 230.67 414.45C235.57 417.34 238.54 422.23 242.67 426.03C250.28 433.09 260.21 435.5 270.12 437.37C318.154 446.511 367.285 448.409 415.88 443C426.7 441.78 438.24 441 448.63 437.52C453.099 436.105 457.286 433.919 461 431.06C465.42 427.57 468.16 422.84 471.86 418.7C478.65 411.12 489.48 410.6 498.63 407.7C508.162 404.634 517.117 400.004 525.13 394C533.115 387.984 540.092 380.737 545.8 372.53C550.43 365.93 539.6 359.68 535.01 366.22C524.168 381.518 508.245 392.469 490.08 397.12C481.36 399.39 472.32 401.31 465.4 407.51C461.62 410.89 459.18 415.38 455.73 419.05C452.451 422.37 448.336 424.744 443.82 425.92C433.92 428.86 423.24 429.71 413.01 430.81C401.817 432.01 390.59 432.816 379.33 433.23C356.191 434.066 333.022 433.244 310 430.77C298.667 429.59 287.43 427.963 276.29 425.89C267.17 424.22 257.09 422.94 250.29 416.03C246.91 412.6 244.08 408.8 240.2 405.88C236.182 403.007 231.724 400.805 227 399.36C218.16 396.36 209.2 394.48 200.74 390.41C192.282 386.367 184.418 381.182 177.37 375C173.94 372 170.98 368.56 167.75 365.35C164.06 361.68 156.75 361.45 151.86 360.06C141.334 356.963 130.985 353.29 120.86 349.06C111.56 345.28 102.03 341.67 93.0703 337.12C79.2303 330.12 63.0703 317.65 67.9303 299.99C73.4003 280.21 95.1703 273.17 113.08 269.77C156.08 261.61 199.97 255.97 243.51 251.84C288.07 247.62 332.57 246.91 377.29 248.21C421.03 249.49 464.86 252.27 508.07 259.45C529.521 262.957 550.755 267.682 571.67 273.6C581.99 276.553 592.207 279.843 602.32 283.47C611.15 286.65 620.15 289.83 628.13 294.87C634.72 299.03 640.79 305.17 641.24 313.38C641.72 322.09 636.38 330.45 629.77 335.72C622.06 341.87 612.31 344.87 602.91 347.3C592.42 350.01 581.91 352.61 571.44 355.46C560.63 358.41 549.79 361.24 538.75 363.26C530.84 364.78 534.19 376.83 542.07 375.38Z" fill="#2B2C2B"/>
<path d="M168.471 370.14C172.784 377.406 178.521 383.725 185.338 388.717C192.156 393.709 199.912 397.272 208.141 399.19C215.041 400.76 222.301 401.19 228.751 404.09C235.491 407.14 240.751 412.66 246.671 417.09C260.281 427.25 277.331 431.54 294.061 434.43C321.29 439.071 348.937 440.781 376.531 439.53C398.001 438.6 419.531 435.94 439.961 429.25C460.601 422.48 479.681 411.72 498.591 401.03C507.591 395.94 538.201 379.46 540.401 369.36C512.581 376.42 463.911 387.11 435.401 390.12C346.881 399.46 235.041 391.45 168.511 370.12" fill="#2B2C2B"/>
</svg>
