<svg width="681" height="681" viewBox="0 0 681 681" fill="none" xmlns="http://www.w3.org/2000/svg">
<path d="M526.669 242.56C532.669 252.56 532.669 255.18 538.669 264.56C542.872 270.968 547.52 277.073 552.579 282.83C560.021 291.536 568 299.769 576.469 307.48C601.829 330.99 608.469 381.4 608.889 385.04C610.499 398.25 616.079 443.93 587.259 484.19C568.079 510.98 542.989 522.37 521.559 532.09C494.559 544.34 472.759 547.46 434.389 552.66C401.634 557.073 368.609 559.168 335.559 558.93C274.449 558.57 228.739 550.84 202.889 545.53C150.219 534.71 131.589 524 122.289 518C102.516 505.313 85.6501 488.587 72.7987 468.92C63.7987 455.01 47.0887 429.08 48.5887 394.59C49.3887 376.17 54.9787 361.59 58.7287 351.79C66.3787 331.79 75.3687 320.12 78.4387 316.31C85.9987 306.91 89.7887 302.21 95.3187 300C99.3187 298.41 104.429 297.53 106.579 293.24C107.949 290.52 107.299 288.05 107.139 285.92C106.289 274.46 118.699 259.32 131.919 254.39C138.919 251.79 143.919 252.82 148.809 247.63C150.967 245.215 152.513 242.317 153.319 239.18C156.409 229.42 163.409 222.38 174.149 211.59C191.029 194.59 212.629 186.68 220.889 184C250.499 174.39 256.819 184.46 280.579 173.3C297.579 165.3 296.879 158.95 314.929 152.46C330.139 147 343.479 146.91 356.599 146.83C365.879 146.77 379.989 146.78 397.139 151.34C423.059 158.23 422.999 166.77 439.939 167.11C456.879 167.45 464.039 159.11 475.419 164.86C480.899 167.61 487.259 173.58 488.419 181.19C490.239 193.6 476.589 199.99 479.419 207.66C482.249 215.33 496.809 210.32 511.519 221.74C516.809 225.88 519.999 231.52 526.669 242.56Z" stroke="#2B2C2B" stroke-width="25" stroke-miterlimit="10"/>
<path d="M109.459 288.71C86.8794 307.12 51.3294 337 45.2594 384.15C36.1994 454.57 99.9194 508.15 105.259 512.49C136.629 538.07 172.479 543.71 242.899 553.93C310.749 563.78 357.579 570.58 420.279 560.69C488.159 549.98 561.279 538.44 592.589 480.45C622.649 424.78 597.199 357.75 593.439 347.84C578.749 309.16 554.539 285.67 545.289 276.84C447.749 184.23 232.819 188.03 109.439 288.66" fill="#2B2C2B"/>
<path d="M100.999 316.58C94.2392 322.23 77.4192 336.31 68.3392 360.5C55.7192 394.13 66.2192 425.56 69.4692 434.83C82.3092 471.51 109.579 491.17 122.399 500.15C152.649 521.33 184.139 528.56 247.399 533.94C312.399 539.47 360.399 546.68 425.349 537.32C501.749 526.32 528.909 505.49 536.849 499.03C548.219 489.76 576.049 467.09 584.149 429.2C592.249 391.31 576.719 357.14 564.999 331.2C564.999 331.2 555.679 310.6 544.729 295.2C480.449 204.6 179.999 250.48 100.999 316.58Z" stroke="#F6D8E8" stroke-width="5" stroke-miterlimit="10"/>
<path d="M105.58 354.64C102.97 362.35 100.29 373.81 102.23 386.76C104.7 403.22 114.5 421.17 176.95 464.22C209.08 486.37 225.14 497.44 235.5 500.74C272.31 512.48 303.31 502.45 347.58 488.14C388.76 474.83 387.66 467.09 450.18 439.02C465.65 432.07 478.48 419.02 493.67 411.31C497.41 409.42 507.24 404.64 509.27 395.31C509.79 392.93 509.19 393.04 509.27 386.14C509.43 373.78 511.38 370.96 510.09 364.6C509.174 360.811 507.578 357.219 505.38 354C494.77 338.45 379.81 399.66 305.76 411.94C258.7 419.74 192.18 413.75 105.58 354.63" fill="#E5C060"/>
<path d="M105.58 354.64C102.97 362.35 100.29 373.81 102.23 386.76C104.7 403.22 114.5 421.17 176.95 464.22C209.08 486.37 225.14 497.44 235.5 500.74C272.31 512.48 303.31 502.45 347.58 488.14C388.76 474.83 387.66 467.09 450.18 439.02C465.65 432.07 478.48 419.02 493.67 411.31C497.41 409.42 507.24 404.64 509.27 395.31C509.79 392.93 509.19 393.04 509.27 386.14C509.43 373.78 511.38 370.96 510.09 364.6C509.174 360.811 507.578 357.219 505.38 354C494.77 338.45 379.81 399.66 305.76 411.94C258.7 419.75 192.18 413.75 105.58 354.64Z" stroke="#E5C060" stroke-width="5" stroke-miterlimit="10"/>
<path d="M533.489 301.38C541.729 304.91 552.689 316.31 550.379 326.72C549.379 331.11 546.319 334.26 543.619 336.29C546.859 344.62 545.689 349.04 544.179 351.49C540.019 358.28 530.119 355.23 522.779 363.32C518.039 368.55 520.319 371.87 516.579 376.83C510.309 385.17 499.439 381.69 478.849 384.71C462.319 387.14 442.109 390.1 430.989 404.42C426.399 410.33 425.989 414.77 419.159 420.19C413.249 424.87 407.649 426.19 397.159 428.64C375.159 433.71 364.709 430.97 356.619 437.64C354.723 439.488 352.401 440.841 349.859 441.58C344.279 443 341.399 439.81 337.469 441.58C333.539 443.35 334.939 447.25 331.279 449.46C325.369 453.04 318.279 444.96 312.129 448.33C308.399 450.33 309.939 453.87 305.369 458.47C300.289 463.59 293.369 464.32 290.169 464.66C288.569 464.83 277.969 465.8 268.769 459.03C260.999 453.31 263.079 448.58 256.939 444.39C247.269 437.78 232.499 442.99 223.719 446.08C206.229 452.24 203.359 460.08 192.719 459.08C183.369 458.2 176.859 451.32 173.009 447.26C162.669 436.34 166.369 429.81 154.429 412.35C143.979 397.07 136.809 395.73 134.719 395.46C129.189 394.75 126.989 397.35 123.459 395.46C116.069 391.46 121.589 377.88 113.889 371.81C107.809 367.02 101.059 372.87 94.1789 367.87C88.3889 363.56 85.9989 354 88.0589 347.55C92.3089 333.83 116.999 330.39 127.999 329C189.999 321 235.379 355.5 305.949 361.66C340.329 364.66 414.949 371.18 472.629 329.56C490.219 316.86 514.879 293.44 533.449 301.4" fill="#6ABD45"/>
<path d="M499.7 334C502.89 339.2 503.24 347.23 500.83 353.15C496.7 363.26 485.15 365.54 463.66 372.86C438.87 381.3 448.66 380.14 409.6 394.26C386.98 402.43 369.8 407.83 364.6 409.46C338 417.75 324.7 421.89 312.79 424.1C282.957 429.437 252.38 429.054 222.69 422.97C210.024 420.283 197.713 416.139 186 410.62C167.74 402 161.53 395 159.53 392.62C155.84 388.2 149.18 380.22 148.27 368.41C147.27 355.74 153.01 339.92 164.04 334.62C178.5 327.68 192.99 343.19 217.54 352.08C239.96 360.19 258.49 358.34 302.54 351.52C431.68 331.52 487.49 314.27 499.63 334.06" fill="#E5C060"/>
<path d="M499.7 334C502.89 339.2 503.24 347.23 500.83 353.15C496.7 363.26 485.15 365.54 463.66 372.86C438.87 381.3 448.66 380.14 409.6 394.26C386.98 402.43 369.8 407.83 364.6 409.46C338 417.75 324.7 421.89 312.79 424.1C282.957 429.437 252.38 429.054 222.69 422.97C210.024 420.283 197.713 416.139 186 410.62C167.74 402 161.53 395 159.53 392.62C155.84 388.2 149.18 380.22 148.27 368.41C147.27 355.74 153.01 339.92 164.04 334.62C178.5 327.68 192.99 343.19 217.54 352.08C239.96 360.19 258.49 358.34 302.54 351.52C431.75 331.52 487.55 314.24 499.7 334Z" stroke="#E5C060" stroke-width="5" stroke-miterlimit="10"/>
<path d="M142.119 256.33C132.119 261.74 113.389 272.86 110.019 291.24C108.579 299.14 109.129 312.92 117.339 319.39C123.069 323.91 127.659 321.03 131.419 325.59C137.119 332.49 128.499 341.43 133.669 354.31C134.319 355.92 138.089 365.31 146.059 366.7C148.069 367.014 150.124 366.873 152.072 366.289C154.021 365.704 155.814 364.689 157.319 363.32C163.549 357.5 160.699 347.62 163.509 346.99C165.859 346.46 169.989 352.81 171.959 359.38C174.629 368.28 171.489 371.51 173.649 378.53C175.649 385.11 181.649 392.83 188.849 394.3C202.129 397 210.599 377 220.389 379.65C232.289 382.92 226.829 414.46 241.229 420.19C250.759 423.98 263.399 414.19 268.819 410.05C285.149 397.46 281.949 386.42 294.719 380.2C308.229 373.63 315.469 384.2 330.199 377.38C343.529 371.21 343.009 360.03 354.979 355.38C365.299 351.38 376.978 355.38 387.078 361.01C398.368 368.84 414.078 377.14 426.499 371.71C442.229 364.84 437.669 342.57 455.219 332.29C472.368 322.29 485.659 338.29 507.589 328.35C514.486 325.084 520.552 320.296 525.331 314.346C530.11 308.396 533.477 301.439 535.178 294C538.428 278.94 532.708 267.09 525.038 251.2C518.948 238.58 513.678 227.65 502.518 223.61C492.728 220.06 485.279 224.31 482.249 219.67C479.219 215.03 485.749 209.25 486.749 193.77C487.169 187.22 487.428 183.2 485.059 179.13C479.108 169 462.738 169 459.719 169C452.891 169.052 446.159 170.605 439.999 173.55C408.249 188.94 232.089 207.55 142.109 256.33" fill="#D898C3"/>
<path d="M308.798 162.85C286.948 171.34 288.608 175.49 269.098 182.28C242.818 191.43 236.478 185.05 215.038 192.42C185.248 202.66 168.128 225.07 163.518 231.28C153.948 244.14 136.458 267.66 142.398 297.17C142.818 299.25 149.448 329.9 174.498 341.94C199.068 353.75 215.248 335.09 240.378 349.54C252.708 356.63 256.098 365.31 269.938 367.28C280.578 368.8 289.578 365.28 296.938 362.21C314.088 355.21 322.778 345.76 329.878 340.21C358.018 318.38 382.188 341.9 430.398 325.01C444.068 320.22 473.718 309.83 481.928 284.47C485.168 274.47 486.508 257.63 479.398 243.08C475.068 234.23 470.658 232.46 465.038 220.27C458.728 206.59 461.588 202.98 457.438 194.09C450.348 178.91 434.198 172.71 408.438 162.84C391.638 156.4 382.128 152.75 367.968 151.64C343.188 149.7 323.638 157.06 308.768 162.84" fill="#EEEDEE"/>
<path d="M356 182.43C336.78 186.59 313.08 191.71 301.1 213.68C291.35 231.55 291.46 256.68 303.63 271.96C308.94 278.62 325.04 284.46 356.84 296.46C373.61 302.79 381.72 305.34 385.2 313.46C389.12 322.58 382.63 328.2 387.03 341.93C388.11 345.28 391.66 356.35 401.67 360.51C402.36 360.8 412.41 364.82 418.34 359.66C423.02 355.59 422.34 348.24 421.94 343.66C420.72 330.08 413.65 328.13 411.58 315.79C409.58 303.79 414.21 293.79 415.8 290.45C420.91 279.79 426.33 278.8 433.69 269.45C435.92 266.63 449.9 247.78 447.2 225.53C444.74 205.19 426.75 192.34 423.55 190.05C399.73 173 371 179.19 356 182.43Z" fill="#FFC837"/>
<path d="M370.43 192.57C360.43 193.91 348.17 198.82 348.43 203.27C348.6 205.8 352.78 207.79 355.75 208.34C359.66 209.06 361.21 207.24 366.45 206.09C375.53 204.09 378.45 207.93 383.34 204.96C386.84 202.82 389.58 198.21 388.41 195.39C386.41 190.44 372.85 192.24 370.41 192.57" fill="#EEEDEE"/>
<path d="M542.649 424.69C545.869 424.69 545.869 419.69 542.649 419.69C539.429 419.69 539.429 424.69 542.649 424.69Z" fill="white"/>
</svg>
