<svg width="128" height="112" viewBox="0 0 128 112" fill="none" xmlns="http://www.w3.org/2000/svg">
<path d="M104.71 33.7392C105.929 35.7715 105.929 36.304 107.149 38.2103C108.003 39.5126 108.947 40.7533 109.976 41.9233C111.488 43.6926 113.11 45.3657 114.831 46.9329C119.985 51.7108 121.334 61.9555 121.419 62.6953C121.747 65.38 122.881 74.6635 117.024 82.8455C113.126 88.292 108.025 90.6047 103.671 92.5801C98.1842 95.0697 93.7538 95.7037 85.9559 96.7605C79.2992 97.6574 72.5875 98.0832 65.8708 98.0348C53.4514 97.9616 44.1619 96.3907 38.9084 95.3115C28.2084 93.1146 24.4222 90.9401 22.5302 89.7227C18.5117 87.1444 15.084 83.7452 12.4724 79.7482C10.6433 76.9234 7.24937 71.6516 7.55218 64.6422C7.71477 60.8988 8.85082 57.9357 9.61293 55.944C11.1676 51.8795 12.9947 49.5078 13.6186 48.7335C15.159 46.819 15.9293 45.8639 17.0511 45.4147C17.864 45.0916 18.9025 44.9128 19.3395 44.0409C19.6179 43.4861 19.4858 42.9861 19.4533 42.5533C19.2805 40.2243 21.8026 37.1474 24.4893 36.1434C25.9119 35.615 26.928 35.8244 27.9218 34.7696C28.3604 34.2788 28.6747 33.6899 28.8384 33.0523C29.4664 31.0688 30.889 29.6381 33.0737 27.4452C36.5042 23.9903 40.8939 22.3828 42.5726 21.8381C48.5902 19.8851 49.8746 21.9337 54.7033 19.6636C58.1582 18.0378 58.016 16.7452 61.6843 15.4283C64.7754 14.3187 67.4864 14.3004 70.1528 14.2841C72.0388 14.2719 74.9063 14.2719 78.3917 15.1986C83.6594 16.5989 83.6472 18.3345 87.0899 18.4036C90.5326 18.4727 91.9877 16.7777 94.3005 17.9463C95.4142 18.5052 96.7067 19.7185 96.9424 21.265C97.3123 23.7871 94.5383 25.0857 95.1134 26.6445C95.6885 28.2033 98.6475 27.1871 101.637 29.506C102.708 30.3473 103.367 31.5037 104.71 33.7392Z" stroke="#FFC736" stroke-width="10" stroke-miterlimit="10"/>
<path d="M20.2262 41.9212C15.6373 45.6647 8.41458 51.7311 7.17894 61.3194C5.33769 75.6308 18.2874 86.5198 19.3727 87.4018C25.75 92.6004 33.0337 93.7466 47.3451 95.8236C61.1342 97.8254 70.6514 99.2074 83.3939 97.1974C97.1891 95.0209 112.049 92.6756 118.414 80.8904C124.523 69.5766 119.351 55.9542 118.585 53.9402C115.6 46.0793 110.681 41.3054 108.8 39.5109C88.9766 20.6899 45.2966 21.4621 20.2222 41.9131" fill="#FFC736"/>
<path d="M18.5112 47.5852C17.1374 48.7335 13.7191 51.5949 11.8737 56.511C9.30899 63.3456 11.4429 69.7331 12.1034 71.617C14.7128 79.0715 20.2549 83.067 22.8603 84.892C29.008 89.1964 35.4097 90.6657 48.2639 91.7591C61.4738 92.8829 71.2288 94.3482 84.4265 92.446C99.9532 90.2105 105.475 85.9772 107.087 84.6643C109.397 82.7824 115.053 78.1732 116.699 70.4729C118.345 62.7725 115.189 55.8282 112.807 50.5564C112.807 50.5564 110.913 46.3699 108.688 43.2402C95.6244 24.8276 34.5683 34.1457 18.5112 47.5852Z" stroke="#FF9487" stroke-width="5" stroke-miterlimit="10"/>
<path d="M19.4328 55.3199C18.9024 56.8868 18.3577 59.2158 18.752 61.8477C19.254 65.1928 21.2456 68.8408 33.9373 77.5898C40.4731 82.0893 43.737 84.3431 45.8526 85.0117C53.3233 87.3915 59.6234 85.3592 68.6142 82.451C76.9832 79.746 76.7596 78.173 89.4655 72.4684C92.6095 71.056 95.2169 68.4038 98.3039 66.8369C99.064 66.4528 101.062 65.4814 101.474 63.5853C101.58 63.1016 101.458 63.1239 101.474 61.7217C101.507 59.2098 101.901 58.6366 101.641 57.3441C101.453 56.5752 101.127 55.8467 100.68 55.1939C98.5336 52.0297 75.1684 64.4713 60.1213 66.967C50.5573 68.5522 37.0385 67.3348 19.4389 55.3199" fill="#FF76B8"/>
<path d="M106.402 44.4961C108.076 45.2135 110.304 47.5303 109.834 49.6459C109.631 50.5381 109.009 51.1782 108.461 51.5908C109.119 53.2837 108.881 54.182 108.574 54.6799C107.729 56.0598 105.717 55.4399 104.225 57.0841C103.262 58.147 103.725 58.8217 102.965 59.8297C101.691 61.5246 99.4819 60.8174 95.2974 61.4311C91.938 61.925 87.8307 62.5265 85.5708 65.4368C84.638 66.6379 84.5547 67.5402 83.1666 68.6417C81.9656 69.5928 80.8275 69.8611 78.6956 70.359C74.2246 71.3894 72.1008 70.8325 70.4567 72.188C70.0713 72.5635 69.5995 72.8385 69.0829 72.9888C67.9489 73.2774 67.3636 72.6291 66.5649 72.9888C65.7662 73.3485 66.0507 74.1411 65.3069 74.5902C64.1058 75.3178 62.6649 73.6757 61.4151 74.3606C60.657 74.767 60.97 75.4865 60.0412 76.4213C59.0088 77.4618 57.6025 77.6102 56.9521 77.6793C56.627 77.7138 54.4727 77.911 52.603 76.5351C51.0239 75.3726 51.4446 74.4114 50.1988 73.5598C48.2336 72.2165 45.2319 73.2753 43.4476 73.9033C39.8951 75.1552 39.3098 76.7485 37.1475 76.5453C35.2473 76.3664 33.9243 74.9682 33.1418 74.1431C31.0404 71.9238 31.7924 70.5968 29.3658 67.0484C27.2421 63.943 25.7849 63.6707 25.3602 63.6159C24.2363 63.4716 23.7892 64 23.0718 63.6159C21.57 62.8029 22.6918 60.0431 21.1269 58.8095C19.8913 57.836 18.5195 59.0249 17.1213 58.0088C15.9304 57.143 15.4528 55.2103 15.8633 53.8893C16.727 51.101 21.7427 50.4019 23.9925 50.1133C36.5927 48.4875 45.8152 55.4989 60.1571 56.7508C67.1441 57.3605 82.309 58.6855 94.0313 50.2271C97.6061 47.6461 102.618 42.8865 106.392 44.5042" fill="#FF9487"/>
<path d="M99.5365 51.1336C100.185 52.1884 100.256 53.8224 99.7662 55.0255C98.9269 57.0801 96.5796 57.5435 92.2122 59.0311C87.1741 60.7464 89.1637 60.5106 81.2256 63.3802C76.6286 65.0406 73.1371 66.138 72.0803 66.4693C66.6744 68.1541 63.9715 68.9954 61.551 69.4446C55.488 70.5292 49.274 70.4513 43.2401 69.2149C40.672 68.6648 38.176 67.8199 35.8019 66.6969C32.0909 64.9451 30.8309 63.5225 30.4224 63.0388C29.6725 62.1405 28.319 60.5188 28.1341 58.1186C27.9308 55.5437 29.0974 52.3286 31.339 51.2515C34.2756 49.8411 37.2225 52.9932 42.2117 54.7999C46.7681 56.4481 50.534 56.0721 59.4862 54.6861C85.7332 50.6215 97.0734 47.1158 99.5406 51.1377" fill="#FF76B8"/>
<path d="M26.8626 35.3404C24.8303 36.4399 21.0238 38.6998 20.3389 42.4352C20.0463 44.0407 20.158 46.8412 21.8265 48.1581C22.991 49.0746 23.9239 48.4914 24.688 49.4161C25.8464 50.8183 24.0946 52.6352 25.1453 55.2528C25.2774 55.58 26.0435 57.4883 27.6633 57.7708C28.0718 57.8346 28.4894 57.8061 28.8855 57.6872C29.2815 57.5683 29.6458 57.3622 29.9516 57.0839C31.2157 55.9011 30.6386 53.8932 31.2096 53.7652C31.6872 53.6575 32.5265 54.948 32.9269 56.2832C33.4695 58.0919 32.8314 58.7483 33.2704 60.175C33.6768 61.5123 34.8962 63.0812 36.3594 63.3799C39.0563 63.9307 40.7776 59.8559 42.7693 60.4047C45.1877 61.0692 44.0781 67.4811 47.0025 68.6436C48.9393 69.4138 51.5081 67.4242 52.6096 66.5828C55.9304 64.0201 55.2821 61.7846 57.8773 60.5164C60.623 59.1812 62.0943 61.3293 65.0879 59.9433C67.7969 58.6894 67.6913 56.4173 70.1239 55.4723C72.2212 54.6594 74.5949 55.4723 76.6476 56.6165C78.942 58.2078 82.1347 59.8946 84.6589 58.791C87.8556 57.3948 86.9289 52.8689 90.4956 50.7797C93.981 48.7474 96.6819 51.9991 101.139 49.979C102.54 49.3151 103.773 48.342 104.744 47.1328C105.716 45.9237 106.4 44.51 106.746 42.9981C107.406 39.9375 106.244 37.5292 104.685 34.2999C103.447 31.7351 102.376 29.5138 100.108 28.6928C98.1187 27.9713 96.6046 28.8351 95.9889 27.8921C95.3731 26.9491 96.7022 25.7744 96.9054 22.6285C96.9908 21.2973 97.0436 20.4803 96.562 19.6532C95.3528 17.5802 92.0259 17.5904 91.4121 17.5924C90.0259 17.6007 88.6584 17.9136 87.4065 18.509C80.954 21.6367 45.1532 25.4188 26.8666 35.3323" fill="#FF9487"/>
<path d="M60.7396 16.3426C56.2991 18.0681 56.6364 18.9115 52.6714 20.2914C47.3306 22.1509 46.0421 20.8543 41.6849 22.3521C35.6307 24.4332 32.1514 28.9876 31.2125 30.2496C29.2676 32.8631 25.7131 37.6431 26.9203 43.6404C27.0057 44.0631 28.3531 50.292 33.4439 52.7389C38.4373 55.1391 41.7255 51.3468 46.8327 54.2835C49.3385 55.7244 50.0274 57.4884 52.8401 57.8887C55.0025 58.1977 56.8315 57.4823 58.3273 56.8584C61.8127 55.4358 63.5787 53.5153 65.0217 52.3873C70.7405 47.9509 75.6526 52.7308 85.4502 49.2983C88.2284 48.3248 94.2541 46.2132 95.9206 41.0594C96.5791 39.0271 96.8514 35.6047 95.4064 32.6477C94.5264 30.8491 93.6302 30.4894 92.4881 28.0121C91.2057 25.2319 91.7869 24.4982 90.9435 22.6915C89.5026 19.6065 86.2205 18.3465 80.9853 16.3406C77.569 15.0318 75.6383 14.29 72.7606 14.0645C67.7246 13.6702 63.7515 15.166 60.7295 16.3406" fill="#FF76B8"/>
<path d="M70.3385 20.326C66.4325 21.1715 61.6159 22.212 59.1812 26.6769C57.1998 30.3086 57.2221 35.4158 59.6954 38.5211C60.7746 39.8746 64.0466 41.0615 70.5092 43.5002C73.9174 44.7867 75.5656 45.3049 76.2728 46.9551C77.0695 48.8106 75.7505 49.9507 76.6447 52.7411C76.8642 53.4219 77.5857 55.6716 79.62 56.517C79.7602 56.576 81.8027 57.393 83.0078 56.3443C83.9589 55.5172 83.8207 54.0234 83.7394 53.0926C83.4915 50.3328 82.0547 49.9365 81.634 47.4286C81.2275 44.9899 82.1685 42.9576 82.4916 42.2788C83.5301 40.1124 84.6316 39.9112 86.1274 38.011C86.5806 37.4379 89.4217 33.607 88.875 29.0852C88.3751 24.9515 84.719 22.34 84.0687 21.8746C79.2156 18.4096 73.3788 19.6716 70.3365 20.3301" fill="#FFC736"/>
<path d="M73.2648 22.3826C71.2325 22.655 68.741 23.6528 68.7938 24.5572C68.8283 25.0714 69.6778 25.4758 70.2814 25.5876C71.0761 25.7339 71.3911 25.364 72.456 25.1303C74.3013 24.7238 74.8947 25.5042 75.8885 24.9007C76.5998 24.4657 77.1567 23.5289 76.9189 22.9558C76.5023 21.9498 73.7566 22.3176 73.2608 22.3826" fill="#FF76B8"/>
</svg>
