<svg width="681" height="681" viewBox="0 0 681 681" fill="none" xmlns="http://www.w3.org/2000/svg">
<path d="M575 309.6C574.57 293.99 566.47 277.82 552.18 271.55C544.35 268.11 535.47 267.88 526.96 268.82C511.56 270.52 495.31 276.96 487.96 290.62C489.61 276.08 488.6 260.73 481.58 247.9C469.43 225.68 442.78 216.18 418.04 210.8C359.423 198.104 298.763 198.138 240.16 210.9C224.91 214.23 209.66 218.5 196.16 226.35C182.66 234.2 166.64 246.21 163.5 261.5C157.05 292.97 163.01 325.86 168.72 357.5L137.45 370.59C123.45 376.46 109.24 382.42 97.11 391.59C84.98 400.76 74.52 413.53 72.29 428.59C62.71 493.25 149.29 552.25 332.18 552.25C439.7 552.25 560.44 499.75 561.7 453.64C562.24 433.94 551.08 411.47 539.77 395.33C545.82 380.94 554.66 367.92 562.02 354.15C569.38 340.38 575.42 325.21 575 309.6ZM462.75 400.6C452 387 516.43 277.73 542.08 292.83C595.77 324.44 485 428.66 462.74 400.58L462.75 400.6Z" fill="#2B2C2B"/>
<path d="M466.362 249.438C466.7 232.481 406.844 217.538 332.67 216.062C258.496 214.586 198.093 227.136 197.756 244.093C197.418 261.051 257.274 275.994 331.448 277.47C405.622 278.946 466.025 266.396 466.362 249.438Z" fill="#FEF4F8"/>
<mask id="mask0_61_2224" style="mask-type:luminance" maskUnits="userSpaceOnUse" x="197" y="215" width="270" height="63">
<path d="M466.362 249.438C466.7 232.481 406.844 217.538 332.67 216.062C258.496 214.586 198.093 227.136 197.756 244.093C197.418 261.051 257.274 275.994 331.448 277.47C405.622 278.946 466.025 266.396 466.362 249.438Z" fill="white"/>
</mask>
<g mask="url(#mask0_61_2224)">
<path d="M426.838 269.292C427.108 255.697 379.114 243.717 319.639 242.534C260.164 241.35 211.731 251.411 211.461 265.006C211.19 278.6 259.185 290.58 318.659 291.764C378.134 292.947 426.567 282.886 426.838 269.292Z" fill="#F04B24"/>
</g>
<path d="M168.841 368C135.561 381.73 89.8409 399.2 91.1709 442.47C91.6509 458.54 98.3609 474.85 110.171 485.93C116.911 492.27 125.061 495.77 133.481 499.32C142.814 503.253 152.288 506.823 161.901 510.03C237.901 535.39 321.521 540.14 400.441 527.72C435.001 522.3 470.001 513.54 501.191 497.26C504.041 495.77 501.521 491.45 498.671 492.94C472.901 506.39 444.371 514.4 415.951 519.94C380.734 526.674 344.909 529.71 309.061 529C269.492 528.516 230.119 523.357 191.761 513.63C172.639 508.744 153.896 502.478 135.681 494.88C127.371 491.39 119.271 487.95 112.761 481.52C106.959 475.698 102.52 468.663 99.7609 460.92C93.0709 442.41 95.7009 421.92 109.321 407.26C125.111 390.26 149.231 381.48 170.171 372.84C173.101 371.63 171.821 366.84 168.841 368.02V368Z" fill="#F6D8E8"/>
<path d="M206.38 307.33C213.23 317.39 185.1 357.96 252.03 396.11C251.15 400.82 244.53 401.2 239.89 400C209.34 392.1 190.89 356.46 185.57 325.35C184.77 320.67 184.4 315.78 185.76 311.23C187.12 306.68 190.5 302.5 195.09 301.3C199.68 300.1 203.7 303.4 206.38 307.33Z" fill="#FFC837"/>
<path d="M424 296.06C434 294.27 446.001 288.81 445.451 284.38C445.171 281.86 440.901 280.06 437.91 279.65C433.97 279.1 432.501 281 427.321 282.38C418.321 284.78 415.21 281.09 410.5 284.27C407.1 286.57 404.57 291.27 405.87 294.06C408.14 298.91 421.55 296.5 424 296.06Z" fill="#F6D8E8"/>
</svg>
