<svg width="681" height="681" viewBox="0 0 681 681" fill="none" xmlns="http://www.w3.org/2000/svg">
<path d="M570 310.1C569.57 294.49 561.47 278.32 547.18 272.05C539.35 268.61 530.47 268.38 521.96 269.32C506.56 271.02 490.31 277.46 482.96 291.12C484.61 276.58 483.6 261.23 476.58 248.4C464.43 226.18 437.78 216.68 413.04 211.3C354.423 198.605 293.763 198.639 235.16 211.4C219.91 214.73 204.66 219 191.16 226.85C177.66 234.7 161.64 246.71 158.5 262C152.05 293.47 158.01 326.36 163.72 358L132.45 371.09C118.45 376.96 104.24 382.92 92.11 392.09C79.98 401.26 69.52 414.03 67.29 429.09C57.71 493.75 144.29 552.75 327.18 552.75C434.7 552.75 555.44 500.25 556.7 454.14C557.24 434.44 546.08 411.97 534.77 395.83C540.82 381.44 549.66 368.42 557.02 354.65C564.38 340.88 570.44 325.71 570 310.1ZM457.75 401.1C447 387.5 511.45 278.23 537.1 293.33C590.79 324.94 480 429.16 457.76 401.08L457.75 401.1Z" fill="#FFC736"/>
<path d="M461.372 249.947C461.71 232.99 401.853 218.047 327.68 216.571C253.506 215.095 193.103 227.645 192.765 244.602C192.428 261.56 252.284 276.503 326.458 277.979C400.631 279.455 461.035 266.905 461.372 249.947Z" fill="#FEF4F8"/>
<mask id="mask0_61_2236" style="mask-type:luminance" maskUnits="userSpaceOnUse" x="192" y="216" width="270" height="63">
<path d="M461.372 249.947C461.71 232.99 401.853 218.047 327.68 216.571C253.506 215.095 193.103 227.645 192.765 244.602C192.428 261.56 252.284 276.503 326.458 277.979C400.631 279.455 461.035 266.905 461.372 249.947Z" fill="white"/>
</mask>
<g mask="url(#mask0_61_2236)">
<path d="M421.857 269.801C422.128 256.207 374.133 244.227 314.659 243.043C255.184 241.86 206.751 251.921 206.48 265.515C206.21 279.11 254.204 291.09 313.679 292.273C373.154 293.457 421.587 283.396 421.857 269.801Z" fill="#FF76B8"/>
</g>
<path d="M163.86 368.5C130.58 382.23 84.8605 399.7 86.1905 442.97C86.6705 459.04 93.3805 475.35 105.19 486.43C111.93 492.77 120.08 496.27 128.5 499.82C137.834 503.754 147.307 507.324 156.92 510.53C232.92 535.89 316.54 540.64 395.46 528.22C430 522.8 465 514.04 496.201 497.76C499.051 496.27 496.53 491.95 493.68 493.44C467.91 506.89 439.38 514.9 410.96 520.44C375.746 527.173 339.925 530.21 304.08 529.5C264.511 529.016 225.138 523.857 186.78 514.13C167.659 509.251 148.916 502.991 130.7 495.4C122.39 491.91 114.29 488.47 107.78 482.04C101.979 476.218 97.5391 469.183 94.7805 461.44C88.0905 442.93 90.7205 422.44 104.34 407.78C120.13 390.78 144.25 382 165.19 373.36C168.12 372.15 166.84 367.36 163.86 368.54V368.5Z" fill="#FF76B8"/>
<path d="M201.39 307.83C208.24 317.89 180.11 358.46 247.04 396.61C246.16 401.32 239.54 401.7 234.9 400.5C204.35 392.6 185.9 356.96 180.58 325.85C179.78 321.17 179.41 316.28 180.77 311.73C182.13 307.18 185.51 303 190.1 301.8C194.69 300.6 198.72 303.9 201.39 307.83Z" fill="#FF76B8"/>
<path d="M419 296.56C429 294.77 441.001 289.31 440.451 284.88C440.171 282.36 435.9 280.56 432.91 280.15C428.97 279.6 427.501 281.5 422.321 282.88C413.321 285.28 410.21 281.59 405.5 284.77C402.1 287.07 399.57 291.77 400.87 294.56C403.14 299.41 416.55 297 419 296.56Z" fill="#FF76B8"/>
</svg>
