<svg width="128" height="112" viewBox="0 0 128 112" fill="none" xmlns="http://www.w3.org/2000/svg">
<g clip-path="url(#clip0_64_3330)">
<path d="M58.3008 84.1025C58.4823 90.1409 58.666 99.1336 58.8476 105.172C58.8994 106.901 59.0356 108.833 60.3042 110.015C61.3459 110.988 62.8976 111.182 64.3132 111.12C66.0422 111.044 67.8684 110.601 69.0873 109.365C70.6412 107.787 70.8422 105.36 70.92 103.147C71.0928 98.0962 71.082 90.6012 70.8832 85.5505" fill="#FFC736"/>
<path d="M57.762 84.1027C57.8895 88.3862 57.9782 92.6718 58.0927 96.9575C58.1446 99.0956 58.1993 101.234 58.257 103.372C58.3088 105.211 58.1921 107.219 58.9334 108.946C60.4462 112.466 65.8492 112.287 68.6155 110.445C71.8984 108.254 71.4769 103.506 71.5374 100.059C71.6239 95.2242 71.6066 90.381 71.4207 85.5486C71.3948 84.8548 70.3142 84.8527 70.3401 85.5486C70.4828 89.3025 70.5152 93.063 70.4936 96.8213C70.4936 98.6367 70.4569 100.452 70.405 102.265C70.351 104.115 70.3769 106.143 69.5167 107.835C67.8116 111.187 60.8007 112.036 59.679 107.804C59.2468 106.14 59.3613 104.29 59.3159 102.581C59.2655 100.708 59.218 98.8348 59.1733 96.9618C59.0674 92.6762 58.9723 88.3927 58.8426 84.1071C58.821 83.4133 57.7404 83.4112 57.762 84.1071V84.1027Z" fill="#FFC736"/>
<path d="M89.7284 63.6706C88.1811 56.1552 87.5706 48.4772 87.9108 40.8117C87.9886 39.046 88.1269 37.2631 87.7941 35.5255C87.5987 34.3979 87.1558 33.3277 86.4974 32.3917C86.3831 31.3958 86.321 30.3945 86.3115 29.392C86.2968 28.1301 86.1942 26.8706 86.0046 25.6229C86.0284 25.6056 86.0543 25.5905 86.0781 25.571C86.4282 25.2836 86.5104 24.7822 86.5104 24.3284C86.6768 20.5182 84.8225 16.9155 82.7002 13.7385C79.158 8.44796 74.304 3.52694 68.0689 2.23455C65.6787 1.73963 63.2128 1.80231 60.7749 1.94062C55.6659 2.21942 50.1981 2.93261 46.3922 6.35161C44.7022 7.86444 43.466 9.82247 42.4092 11.8324C39.4889 17.3987 37.8052 23.5299 37.473 29.807C37.4298 30.6261 37.7518 31.752 38.5147 31.7153C38.0371 33.3708 38.5968 34.9117 39.3208 36.4224C38.3569 44.6241 38.5752 47.2564 38.3353 52.3741C38.0565 58.3411 38.2121 63.9537 37.4341 69.8797C37.3347 70.6296 37.2331 71.412 37.4665 72.1317C37.543 72.3668 37.6608 72.5863 37.8145 72.78L37.7669 73.0113L37.687 73.5667C37.3563 76.3395 37.0386 79.2636 38.1408 81.8332C38.6574 83.0456 39.4764 84.1414 39.7639 85.4273C39.9584 86.2917 39.9 87.1908 39.98 88.0726C40.06 88.9543 40.3171 89.8793 40.985 90.4607C41.2586 90.6992 41.5872 90.8663 41.9411 90.9469C42.2951 91.0275 42.6636 91.0191 43.0136 90.9226C43.3635 90.826 43.6842 90.6443 43.9468 90.3936C44.2094 90.1429 44.4058 89.8311 44.5185 89.486C44.7346 88.8139 44.7346 87.9148 45.383 87.6403C45.7136 87.502 46.0897 87.6014 46.4419 87.6706C47.4145 87.8611 48.4192 87.8077 49.366 87.515C49.6593 87.4358 49.9344 87.3008 50.1765 87.1173C50.5568 86.8061 50.76 86.322 51.1317 86.0022C51.9184 85.33 53.1114 85.6088 54.0925 85.9373C54.9916 86.2377 56.0527 86.5252 56.8545 86.0843C57.3023 86.4064 57.8213 86.6155 58.3674 86.6937C58.5251 92.5138 58.6829 99.944 58.8407 105.165C58.8925 106.894 59.0287 108.826 60.2973 110.009C61.339 110.981 62.8907 111.176 64.3063 111.113C66.0353 111.037 67.8615 110.594 69.0804 109.358C70.6343 107.78 70.8353 105.353 70.9131 103.14C71.0557 99.0147 71.073 93.2594 70.9671 88.5372L71.1119 88.5588C72.6744 88.8225 73.9517 89.9161 75.3889 90.5882C76.8261 91.2603 78.8338 91.3532 79.7113 90.0328C80.0441 89.5314 80.1673 88.8873 80.6125 88.4832C81.4056 87.7657 82.7088 88.2066 83.6857 87.77C85.3195 87.0395 85.1553 84.4158 86.6595 83.4476C87.0744 83.1796 87.578 83.0716 87.98 82.7841C88.825 82.1833 88.9827 81.0098 89.0238 79.9746C89.1812 75.9846 88.6959 71.9953 87.5866 68.1594C87.4051 67.5326 87.3705 66.6012 88.0189 66.4953C88.2077 66.489 88.3967 66.502 88.5829 66.5342C89.1794 66.558 89.6787 66.0198 89.8213 65.4406C89.9639 64.8614 89.8494 64.2541 89.7284 63.6706Z" fill="#FFC736"/>
<path d="M91.0317 63.3119C89.6755 56.6668 89.0573 49.8922 89.1882 43.1113C89.2487 40.0165 89.8041 36.658 88.6803 33.6842C88.4642 33.1094 88.0319 32.5172 87.8309 32.005C87.6299 31.4928 87.6991 30.5635 87.6796 29.9562C87.6529 28.3867 87.5287 26.8205 87.3079 25.2664L86.6877 26.7922C88.9137 25.2102 87.7337 21.0543 86.9729 18.9579C85.9464 16.1268 84.3125 13.5398 82.5122 11.1409C79.1862 6.71046 74.8833 2.6712 69.4111 1.17566C66.2731 0.311188 62.973 0.445182 59.7593 0.661301C56.8979 0.853646 54.004 1.18431 51.2788 2.1093C48.5535 3.03428 46.0746 4.49957 44.203 6.68885C42.2018 9.02942 40.7992 11.8411 39.6084 14.6636C38.1838 18.0306 37.1806 21.5606 36.6216 25.1735C36.2737 27.4492 34.964 32.7376 38.5278 33.0726L37.2311 31.3631C36.9866 32.3269 36.9578 33.3327 37.1468 34.3088C37.3132 35.1603 37.8751 36.0745 37.9399 36.8482C38.0177 37.797 37.7108 38.9208 37.6201 39.8739C37.5495 40.6202 37.4854 41.3665 37.4277 42.1129C37.2332 44.6717 37.1727 47.2327 37.0992 49.7959C36.9933 53.511 36.8637 57.2239 36.747 60.939C36.68 63.0807 36.5805 65.2224 36.3839 67.3577C36.2002 69.3481 35.4805 71.6606 36.6692 73.4587L36.533 72.417C35.8846 75.6437 35.6448 79.4387 36.9955 82.5098C37.3823 83.3894 37.9378 84.1976 38.2771 85.1032C38.5969 85.9504 38.5624 86.8084 38.6229 87.6966C38.7417 89.4428 39.2712 91.2604 41.0002 92.032C41.7455 92.3636 42.5823 92.4282 43.3696 92.2148C44.157 92.0014 44.8467 91.5232 45.3225 90.8606C45.5458 90.5521 45.72 90.2109 45.8391 89.8492C45.8974 89.6698 45.9601 88.868 46.1092 88.7686C45.7829 88.9696 47.112 89.11 47.1898 89.1143C47.6227 89.1382 48.0568 89.1216 48.4865 89.0646C49.3207 88.9631 50.1831 88.7686 50.8833 88.2801C51.4517 87.8825 51.724 87.0569 52.4112 86.9424C53.1568 86.8192 54.097 87.3876 54.8166 87.5324C55.7381 87.7364 56.7009 87.6371 57.5613 87.2493H56.1847C56.741 87.6137 57.3626 87.8669 58.0152 87.9949L57.0232 86.6981C57.1334 90.7763 57.2264 94.8523 57.3279 98.9305C57.3755 100.803 57.4259 102.677 57.4792 104.55C57.5311 106.304 57.5635 108.157 58.4172 109.736C60.2153 113.075 65.1536 112.978 68.1793 111.595C71.7647 109.944 72.1839 105.993 72.2855 102.501C72.426 97.8455 72.4195 93.1839 72.3179 88.5287L70.6084 89.8254C72.1429 90.0415 73.338 91.1026 74.7147 91.738C76.0114 92.3367 77.5394 92.6349 78.9268 92.1703C79.5845 91.9619 80.1692 91.5706 80.6126 91.0421C80.98 90.5991 81.1615 89.6914 81.6262 89.4212C82.0908 89.1511 83.0785 89.311 83.6339 89.177C84.3086 89.0148 84.9178 88.6507 85.3801 88.1332C86.2036 87.2104 86.3592 85.972 87.0227 84.9757C87.3706 84.4483 87.8871 84.3727 88.4144 84.0745C89.0238 83.7315 89.5162 83.2135 89.8279 82.5876C90.5562 81.1266 90.4352 79.2593 90.4006 77.6774C90.3549 75.7699 90.1722 73.8682 89.8538 71.9869C89.6737 70.902 89.4453 69.8272 89.1687 68.7625C89.1168 68.5658 89.0045 67.5868 88.8359 67.4377C88.6997 67.3166 88.0427 67.7035 88.4555 67.8375C88.6591 67.8692 88.8671 67.8559 89.065 67.7986C91.2262 67.3426 91.3904 65.0668 91.0338 63.2795C90.6923 61.5765 88.0881 62.2962 88.4296 63.997C88.4793 64.2477 88.6651 64.8075 88.5333 65.0495C88.4015 65.2916 88.8467 64.8853 88.4555 65.1338C88.3111 65.1407 88.1663 65.1335 88.0233 65.1122C87.6987 65.1322 87.3842 65.2323 87.1078 65.4035C86.8313 65.5747 86.6016 65.8118 86.4391 66.0934C85.7281 67.3317 86.4024 68.8273 86.705 70.0786C87.4959 73.355 87.9131 76.8561 87.6537 80.2362C87.6191 80.6879 87.5781 81.2909 87.2323 81.628C86.8217 82.0278 86.1041 82.1359 85.6395 82.5054C84.7037 83.2532 84.3428 84.3295 83.8824 85.3906C83.3486 86.6225 82.8926 86.5425 81.6326 86.6873C80.1414 86.8624 79.4023 87.6426 78.7561 88.9285C78.1445 90.1452 76.5949 89.6827 75.6073 89.1684C74.2219 88.4401 72.9101 87.4394 71.3195 87.2233C70.4852 87.1044 69.5905 87.5583 69.61 88.52C69.6878 92.0874 69.7007 95.6548 69.6489 99.2222C69.6251 100.841 69.6143 102.464 69.5127 104.081C69.4263 105.462 69.2469 107.044 68.3327 108.154C66.7032 110.136 61.499 110.782 60.533 107.858C60.0878 106.51 60.1829 104.988 60.144 103.586C60.0964 101.906 60.0525 100.225 60.0121 98.5436C59.9127 94.5886 59.822 90.6315 59.7161 86.6765C59.7009 86.1168 59.3097 85.4922 58.7241 85.3798C58.0757 85.2501 57.503 84.7315 56.8568 84.7315C56.1782 84.7315 55.8756 85.0103 55.1516 84.8438C53.8549 84.5434 52.649 83.9794 51.2917 84.4008C50.129 84.7639 49.7789 86.0325 48.6529 86.307C47.313 86.6333 45.8196 85.8142 44.5964 86.5361C43.5158 87.1693 43.7168 88.1764 43.2219 89.1295C43.1699 89.2473 43.0923 89.3521 42.9946 89.436C42.897 89.52 42.7818 89.5811 42.6575 89.6149C42.5333 89.6487 42.403 89.6542 42.2763 89.6312C42.1496 89.6082 42.0296 89.5571 41.9252 89.4818C41.4108 89.1208 41.3589 88.2477 41.3157 87.6966C41.2055 86.2875 41.1839 85.0492 40.6047 83.733C40.0017 82.365 39.1934 81.172 38.9103 79.6765C38.6618 78.3624 38.718 76.9966 38.8282 75.6718C38.8779 75.0623 38.9384 74.4507 39.014 73.8434C39.0724 73.3831 39.2453 72.8838 39.1286 72.4257C39.0292 72.0367 38.772 71.8097 38.6963 71.4013C38.662 71.0217 38.6802 70.6391 38.7504 70.2645C38.8239 69.5772 38.9254 68.8921 38.9968 68.2027C39.1696 66.5451 39.2799 64.881 39.3577 63.2169C39.5932 58.1078 39.7099 52.9858 39.8461 47.8724C39.9023 45.7501 39.9974 43.63 40.1703 41.5121C40.2978 39.9603 40.5506 38.4043 40.6349 36.8525C40.6825 35.9881 40.3194 35.4651 40.0406 34.6697C39.7078 33.847 39.6324 32.9427 39.8245 32.0763C40.0406 31.16 39.4031 30.4511 38.5278 30.3668C39.4571 30.4576 38.6466 30.6975 38.8498 30.2307C38.8601 30.0865 38.8558 29.9417 38.8368 29.7984C38.8438 29.1476 38.8929 28.4979 38.9838 27.8534C39.127 26.4154 39.3478 24.9862 39.6451 23.572C40.2 20.8872 41.0105 18.2617 42.0656 15.7313C43.9783 11.169 46.5242 6.76881 51.3587 4.92532C53.6021 4.07165 55.9988 3.67183 58.3804 3.45572C61.0473 3.21366 63.805 3.02348 66.4741 3.3282C71.179 3.87715 75.1188 6.71479 78.2309 10.1403C80.0241 12.1245 81.5952 14.2985 82.9164 16.6238C83.6736 17.9076 84.2744 19.2775 84.7059 20.7041C84.916 21.4039 85.0607 22.1216 85.1381 22.848C85.1597 23.0901 85.1727 23.3343 85.1791 23.5764C85.1791 23.7622 85.0149 24.657 85.3261 24.4408C85.0784 24.6005 84.8858 24.8327 84.7748 25.1057C84.6638 25.3788 84.6398 25.6794 84.7059 25.9666C84.9414 27.4795 84.9328 28.9923 84.9998 30.5051C85.03 31.201 84.9998 32.0677 85.1986 32.7376C85.3974 33.4076 85.9031 33.9068 86.1387 34.5487C87.2193 37.5031 86.4996 41.0647 86.4737 44.1422C86.4257 50.8196 87.0776 57.4836 88.4188 64.0251C88.7732 65.7325 91.3774 65.0106 91.0317 63.3119Z" fill="#FFC736"/>
<path d="M38.5668 31.5898C37.5683 34.6868 40.2655 37.3797 40.9765 40.2087C41.6875 43.0376 39.9932 46.8219 41.949 49.2683C42.565 50.0377 43.7752 50.7099 44.6829 50.0291C45.7333 49.2424 45.8435 46.984 45.9969 45.7694C46.1914 44.2565 46.0445 42.5471 46.816 41.1704C47.5876 39.7937 48.9772 39.2945 50.3993 40.0033C52.6966 41.1488 54.2267 44.9741 57.3324 43.2084C59.4374 42.0111 59.5994 37.1009 62.6532 37.4661C65.7956 37.8422 63.8656 42.7048 65.1472 44.4251C65.6508 45.1016 66.7724 45.5792 67.5505 45.0951C68.6505 44.41 68.0886 42.024 68.0627 40.9089C68.0324 39.664 68.3566 39.2015 69.5755 39.5149C69.9796 39.6186 70.4853 39.8996 70.9176 39.8023C71.5659 39.6554 71.4708 39.1389 71.6675 38.618C72.1495 37.3408 73.6515 37.4121 74.7623 37.6131C76.3011 37.894 77.4055 37.9048 78.7151 36.928C80.0832 35.91 83.1369 32.8974 84.6303 35.5102C85.136 36.3963 84.8616 37.572 85.3954 38.4343C86.141 39.6381 87.5803 38.8795 87.8418 37.7017C88.1444 36.3401 87.066 34.9462 86.7418 33.6754C86.3874 32.2793 86.3528 30.8226 86.3096 29.3919C86.2296 26.5002 86.0091 23.8074 84.3969 21.3177C81.5506 16.924 76.2687 14.3911 71.5767 12.472C67.9503 10.9872 64.3497 10.6998 60.4769 11.1623C56.6252 11.5934 52.807 12.2844 49.0485 13.2306C42.5023 14.9401 39.414 23.4681 39.0638 29.567" fill="#FF76B8"/>
<path d="M38.0457 31.4409C37.125 34.6827 39.511 37.1248 40.3755 40.0554C41.2399 42.986 39.5456 46.2515 41.1384 49.0286C41.7673 50.1244 43.0726 51.1444 44.3996 50.7576C45.5601 50.4161 46.0032 49.128 46.2258 48.0647C46.658 45.9598 46.2582 38.5036 50.2261 40.5222C52.1907 41.5207 53.2907 44.1962 55.7523 44.1962C58.162 44.2135 59.087 42.035 60.0055 40.211C60.468 39.2968 61.0623 38.0649 62.2272 37.9806C63.5585 37.8856 63.9562 39.0094 64.0383 40.1116C64.1939 41.9745 63.6601 44.5442 65.7154 45.5491C66.6555 46.0073 67.8766 45.8884 68.4233 44.9181C68.9701 43.9477 68.7432 42.5926 68.6395 41.512C68.6049 41.1144 68.4233 40.2023 68.8253 39.9603C69.277 39.6923 70.3381 40.412 70.9087 40.3342C71.1245 40.3097 71.3304 40.2309 71.5074 40.105C71.6843 39.9791 71.8263 39.8103 71.9201 39.6145C72.0779 39.3055 72.0606 38.9294 72.2422 38.629C72.508 38.1968 72.9986 38.0649 73.4762 38.0347C74.9199 37.9417 76.236 38.5728 77.6797 38.0822C78.8792 37.6759 79.7739 36.6969 80.7875 35.9859C81.9589 35.1646 83.7937 34.272 84.3383 36.2733C84.6495 37.4209 84.4982 39.1909 86.0089 39.5345C87.0528 39.7723 88.0404 38.9186 88.3171 37.959C88.7493 36.4246 87.7141 35.0717 87.297 33.6691C86.7286 31.7543 86.9015 29.6774 86.7718 27.7064C86.6616 26.0163 86.4066 24.3241 85.7517 22.7508C84.5177 19.7791 82.0107 17.4904 79.3676 15.7593C76.575 13.9482 73.5624 12.5014 70.403 11.4542C66.6123 10.1964 62.7416 10.298 58.832 10.8188C56.8588 11.0803 54.8921 11.3916 52.9384 11.7784C51.1727 12.1285 49.3033 12.4268 47.6349 13.1292C42.6642 15.2017 40.0707 20.8273 39.0225 25.8045C38.7677 27.0453 38.6023 28.3027 38.5276 29.5671C38.4844 30.2609 39.565 30.2587 39.6082 29.5671C39.9194 24.5964 41.6743 18.9341 45.6077 15.634C48.0563 13.5787 51.4191 13.1529 54.4686 12.6083C58.2117 11.9275 62.1235 11.2273 65.938 11.6185C69.3743 11.9708 72.5858 13.3474 75.6417 14.8905C78.4707 16.3169 81.2305 18.0869 83.2167 20.5982C85.5572 23.559 85.6566 26.9737 85.8101 30.5786C85.8814 32.1822 86.0889 33.6842 86.7243 35.1646C87.0549 35.9318 87.5715 36.8936 87.2559 37.7451C87.1306 38.0801 86.7891 38.5577 86.372 38.5188C85.7453 38.4604 85.6242 37.5614 85.5551 37.0946C85.38 35.9383 85.1444 34.7173 83.9731 34.1597C83.0719 33.7274 82.0734 34.0322 81.237 34.4644C80.2774 34.9593 79.4756 35.6833 78.6241 36.3338C77.1761 37.4403 75.9508 37.1983 74.2607 37.0124C73.2558 36.9044 72.1146 37.0232 71.4512 37.8899C71.0686 38.3956 71.1399 39.2493 70.3706 39.2233C69.7935 39.2039 69.3332 38.83 68.7151 38.9143C66.5539 39.2104 67.9673 42.6942 67.6086 44.0125C67.3471 44.9721 66.2989 44.8921 65.6894 44.2524C65.3285 43.8742 65.2572 43.3296 65.2032 42.8303C65.1059 41.8643 65.1902 40.8853 65.0908 39.9236C64.9114 38.16 63.8654 36.6234 61.8749 36.9584C59.9753 37.2783 59.2426 39.3768 58.4776 40.8788C57.9826 41.8513 57.4315 42.7871 56.2948 43.0681C55.0477 43.375 54.0579 42.4802 53.2237 41.6806C51.7303 40.2499 49.7896 38.2465 47.57 39.5994C45.1517 41.0733 45.6379 44.7041 45.2922 47.1073C45.2315 47.7167 45.0861 48.3147 44.8599 48.8838C44.3153 50.0833 43.131 49.8196 42.381 48.9422C41.3393 47.7125 41.4625 45.9165 41.5663 44.4037C41.6614 43.014 41.8321 41.5941 41.5295 40.2196C41.2356 38.8905 40.5354 37.6802 39.9432 36.4678C39.2063 34.955 38.6119 33.4249 39.0787 31.7456C39.2689 31.0757 38.2272 30.7882 38.037 31.4582L38.0457 31.4409Z" fill="#FFC736"/>
<path d="M39.6907 28.4711C39.9349 29.2449 39.4314 31.5616 38.636 31.7129C37.7932 31.875 37.4409 30.6712 37.4863 29.8132C37.8174 23.5373 39.4997 17.4068 42.4181 11.8408C43.4793 9.82875 44.7155 7.88368 46.4055 6.37085C50.2114 2.94104 55.6792 2.22785 60.7882 1.94906C63.2239 1.81723 65.6919 1.74807 68.0822 2.24298C74.3151 3.53969 79.1713 8.45639 82.7135 13.747C84.8357 16.9174 86.6879 20.518 86.5236 24.3368C86.5042 24.7885 86.4307 25.2899 86.0914 25.5795C85.51 26.0593 84.6239 25.6422 83.8891 25.8086C82.9793 26.0247 82.5254 27.075 82.5189 28.0086C82.5125 28.9423 82.8129 29.8608 82.7675 30.7944C82.7221 31.7281 82.158 32.7589 81.2287 32.8475C80.6236 32.9037 79.9601 32.5558 79.4371 32.8648C79.128 33.0485 78.9768 33.4095 78.8644 33.7509C78.3913 35.1759 78.1975 36.6787 78.2938 38.177C78.3457 38.9702 78.4775 39.772 78.3327 40.5543C78.1879 41.3367 77.6844 42.1169 76.9085 42.2984C76.0203 42.5145 75.119 41.8338 74.7473 41.0017C74.3756 40.1696 74.3713 39.2274 74.3497 38.3153C74.2763 35.0467 73.7883 31.8006 72.8973 28.6548C72.6531 27.7904 72.1042 26.753 71.2181 26.8697C70.4984 26.9648 70.1375 27.8012 70.0943 28.5252C70.0511 29.2492 70.2067 30.0099 69.9279 30.6864C69.7398 31.1007 69.4072 31.4322 68.9922 31.6188C68.5772 31.8054 68.1085 31.8343 67.6737 31.7C66.4376 31.2677 66.0485 29.6987 66.1436 28.3933C66.2387 27.088 66.6169 25.7351 66.1696 24.5032C65.7222 23.2713 63.8852 22.5063 63.1115 23.5609C62.7787 24.0148 62.7376 24.6783 62.2816 25.0068C61.7672 25.3763 61.0346 25.091 60.5397 24.6956C60.0448 24.3001 59.5974 23.7792 58.9771 23.6431C57.7107 23.3664 56.7792 24.7755 56.254 25.962C55.6014 27.397 54.953 28.8839 54.953 30.4508C54.953 31.942 55.3118 33.8828 53.974 34.5462C53.0987 34.9785 51.99 34.4295 51.4735 33.5975C50.957 32.7654 50.8813 31.7453 50.8251 30.7706L50.3194 22.9385C50.2697 22.1691 50.2027 21.3544 49.7402 20.7363C49.2777 20.1182 48.2684 19.8545 47.7368 20.4121C47.4818 20.6801 47.3953 21.0604 47.3046 21.4192C47.0603 22.2837 46.626 23.1633 45.8501 23.6214C45.0742 24.0796 43.905 23.9413 43.4728 23.146C43.3323 22.8823 43.2761 22.5668 43.0751 22.3463C42.5175 21.7347 41.4521 22.3982 41.2208 23.1935C40.9355 24.1725 41.2792 25.2142 41.2921 26.2365C41.3051 27.2587 40.7129 28.4798 39.6907 28.4711Z" fill="#FFC736"/>
<path d="M39.177 28.614C39.2602 29.1398 39.2127 29.6779 39.0387 30.1809C38.9782 30.397 38.9155 30.732 38.7621 30.8919C38.3774 31.2896 38.1504 30.8444 38.0662 30.4165C37.9127 29.619 38.0986 28.6616 38.1785 27.8641C38.2765 26.8728 38.4091 25.8866 38.5762 24.9054C39.2148 21.1524 40.3462 17.5001 41.9412 14.0433C43.4021 10.888 45.1829 7.66781 48.1503 5.69033C50.9187 3.84251 54.2643 3.09691 57.5298 2.74463C61.1368 2.3513 65.0421 2.02063 68.5951 2.9132C71.7418 3.7042 74.5448 5.47205 76.9135 7.65485C79.2942 9.90306 81.3583 12.4645 83.0491 15.2687C84.0279 16.7941 84.8127 18.4356 85.3853 20.1552C85.6699 21.0356 85.8583 21.9443 85.9473 22.8653C86.038 23.9048 86.2174 25.1561 84.8667 25.2426C84.2183 25.288 83.6867 25.1648 83.1096 25.5452C82.656 25.8692 82.3212 26.3331 82.1565 26.8656C81.627 28.4239 82.8395 30.4035 81.8777 31.7802C81.3115 32.5885 80.4967 32.0741 79.6971 32.2124C79.4468 32.253 79.2103 32.3545 79.0083 32.5079C78.8063 32.6612 78.6451 32.8618 78.5387 33.092C77.8493 34.3887 77.6958 36.176 77.7196 37.6175C77.7347 38.5382 77.9746 39.5215 77.7801 40.4271C77.6634 40.976 77.4646 41.4039 76.9329 41.6395C76.1744 41.9723 75.5606 41.4234 75.2278 40.775C74.8215 39.9711 74.8863 38.9921 74.8625 38.1146C74.8352 37.1623 74.7732 36.2121 74.6767 35.264C74.4874 33.3877 74.1645 31.5272 73.7106 29.6968C73.434 28.5859 73.1422 26.991 71.9601 26.455C70.9983 26.0228 70.0906 26.6711 69.734 27.5594C69.4898 28.1667 69.546 28.7956 69.5374 29.4353C69.5374 30.0253 69.4898 30.6607 68.9387 31.013C68.6982 31.1707 68.412 31.2441 68.1252 31.2214C67.8384 31.1987 67.5673 31.0813 67.3546 30.8876C66.0579 29.7271 66.8748 27.4621 66.9029 26.0185C66.9266 24.7823 66.5744 23.5785 65.4614 22.9128C64.6725 22.4417 63.5811 22.3207 62.8679 22.995C62.4357 23.3948 62.2887 24.5251 61.6923 24.631C60.9877 24.7563 60.16 23.5612 59.5311 23.2673C56.8361 22.0051 55.3254 26.3923 54.7765 28.1926C54.3334 29.6644 54.5409 31.0367 54.4371 32.5301C54.381 33.347 54.0438 34.339 53.0021 34.1099C51.7702 33.8376 51.4893 32.3615 51.3942 31.3155C51.2083 29.4223 51.1435 27.5097 51.0203 25.61C50.9231 24.1188 51.0938 22.2601 50.4368 20.8792C50.0046 19.952 48.8937 19.2626 47.8671 19.6819C46.5942 20.2027 46.8341 21.9835 45.9221 22.8674C45.7738 23.0171 45.597 23.1354 45.402 23.2152C45.2071 23.295 44.9981 23.3348 44.7874 23.3321C44.1067 23.3018 43.9835 22.8718 43.7177 22.3769C43.626 22.1664 43.4827 21.9826 43.3009 21.8424C43.1192 21.7022 42.9049 21.6102 42.6781 21.5751C41.5975 21.4303 40.7784 22.4633 40.6077 23.4121C40.4262 24.4343 41.4722 27.7582 39.6914 27.9225C39.0041 27.9851 38.9976 29.0679 39.6914 29.0031C40.9081 28.8907 41.6083 27.9095 41.7769 26.7489C41.8979 25.9277 41.658 25.128 41.6408 24.3111C41.6408 23.8659 41.6861 22.6621 42.3777 22.6643C42.7646 22.6643 42.9915 23.4488 43.1838 23.6844C43.9576 24.631 45.425 24.5856 46.3521 23.9135C46.8614 23.5187 47.2579 22.997 47.5019 22.4006C47.6189 22.1245 47.7214 21.8425 47.8088 21.5556C47.8563 21.4086 47.9125 21.0175 48.0249 20.9072C48.5047 20.4296 48.9931 20.7452 49.3 21.1082C49.9246 21.843 49.7841 23.2694 49.8425 24.1771L50.0586 27.4751C50.1818 29.3661 49.9916 31.657 50.7739 33.4227C51.2645 34.5314 52.4381 35.4412 53.7045 35.1927C54.9321 34.9506 55.4183 33.8095 55.5091 32.6771C55.5653 31.9812 55.4875 31.2831 55.4875 30.5872C55.4875 29.4655 55.8009 28.413 56.2115 27.3778C56.5465 26.5328 56.9074 25.5581 57.5082 24.8492C57.8021 24.5035 58.2019 24.1339 58.6904 24.1512C59.2674 24.1728 59.7126 24.7455 60.1362 25.0783C61.2341 25.9428 62.5438 25.9428 63.1878 24.605C63.3672 24.2311 63.4579 23.8119 63.8751 23.6606C64.2922 23.5093 64.7395 23.7168 65.0615 23.9632C66.0017 24.6612 65.8569 25.9752 65.738 27.0104C65.5716 28.4714 65.3511 30.1009 66.3237 31.3544C66.6643 31.8138 67.1598 32.1341 67.7185 32.2561C68.2772 32.3781 68.8612 32.2935 69.3623 32.0179C69.8453 31.7578 70.2217 31.3364 70.4256 30.8271C70.7628 29.9626 70.3305 28.9361 70.6806 28.1213C70.8319 27.7712 71.2555 27.4275 71.7158 27.5853C71.8477 27.6307 72.0249 27.9959 72.1049 28.1429C72.313 28.6059 72.4682 29.0909 72.5673 29.5887C72.8425 30.642 73.0723 31.7053 73.2568 32.7786C73.6242 34.9096 73.689 37.0254 73.8122 39.1779C73.8878 40.5892 74.3093 42.1258 75.7573 42.705C76.9978 43.2042 78.2037 42.4521 78.6727 41.2721C78.9645 40.5373 78.9472 39.7463 78.8888 38.9704C78.7693 37.8193 78.7932 36.6578 78.9601 35.5125C79.1287 34.5487 79.2238 33.1633 80.4557 33.3146C81.104 33.3924 81.6746 33.3924 82.2214 32.9926C83.4273 32.1108 83.3365 30.5548 83.1658 29.2429C83.034 28.2402 82.8071 26.5415 84.1989 26.2929C84.9488 26.1589 85.6663 26.535 86.36 26.0293C87.4752 25.2058 87.1078 23.1398 86.9328 21.99C86.3773 18.3354 84.3609 15.0288 82.2235 12.0853C80.2525 9.37083 77.9725 6.85737 75.2386 4.89069C72.3851 2.81006 68.9985 1.58447 65.4743 1.35715C61.7327 1.14041 57.9788 1.40699 54.3053 2.15031C50.936 2.82892 47.6575 4.19263 45.2586 6.7277C42.7386 9.39028 41.1069 12.9433 39.8081 16.3299C38.3916 20.0358 37.4794 23.9153 37.0958 27.8641C36.9769 29.0787 36.5749 31.0281 37.675 31.9596C38.4573 32.6209 39.324 32.1152 39.7389 31.3436C40.2014 30.4791 40.4413 29.284 40.2144 28.318C40.0523 27.6523 39.0106 27.9376 39.177 28.614Z" fill="#FFC736"/>
<path d="M67.4721 87.3357C67.5866 91.5111 67.5477 95.6887 67.4721 99.8706C67.4354 101.723 67.4375 103.588 67.2409 105.431C67.0571 107.16 66.7135 109.036 65.4881 110.342C65.0127 110.849 65.7756 111.614 66.2532 111.107C68.6737 108.526 68.4576 104.29 68.5289 101.003C68.6283 96.4516 68.6824 91.8958 68.557 87.3444C68.5376 86.6506 67.457 86.6485 67.4764 87.3444L67.4721 87.3357Z" fill="#FFC736"/>
<path d="M91.0317 63.3119C89.6755 56.6668 89.0573 49.8922 89.1882 43.1113C89.2487 40.0165 89.8041 36.658 88.6803 33.6842C88.4642 33.1094 88.0319 32.5172 87.8309 32.005C87.6299 31.4928 87.6991 30.5635 87.6796 29.9562C87.6529 28.3867 87.5287 26.8205 87.3079 25.2664L86.6877 26.7922C88.9137 25.2102 87.7337 21.0543 86.9729 18.9579C85.9464 16.1268 84.3125 13.5398 82.5122 11.1409C79.1862 6.71046 74.8833 2.6712 69.4111 1.17566C66.2731 0.311188 62.973 0.445182 59.7593 0.661301C56.8979 0.853646 54.004 1.18431 51.2788 2.1093C48.5535 3.03428 46.0746 4.49957 44.203 6.68885C42.2018 9.02942 40.7992 11.8411 39.6084 14.6636C38.1838 18.0306 37.1806 21.5606 36.6216 25.1735C36.2737 27.4492 34.964 32.7376 38.5278 33.0726L37.2311 31.3631C36.9866 32.3269 36.9578 33.3327 37.1468 34.3088C37.3132 35.1603 37.8751 36.0745 37.9399 36.8482C38.0177 37.797 37.7108 38.9208 37.6201 39.8739C37.5495 40.6202 37.4854 41.3665 37.4277 42.1129C37.2332 44.6717 37.1727 47.2327 37.0992 49.7959C36.9933 53.511 36.8637 57.2239 36.747 60.939C36.68 63.0807 36.5805 65.2224 36.3839 67.3577C36.2002 69.3481 35.4805 71.6606 36.6692 73.4587L36.533 72.417C35.8846 75.6437 35.6448 79.4387 36.9955 82.5098C37.3823 83.3894 37.9378 84.1976 38.2771 85.1032C38.5969 85.9504 38.5624 86.8084 38.6229 87.6966C38.7417 89.4428 39.2712 91.2604 41.0002 92.032C41.7455 92.3636 42.5823 92.4282 43.3696 92.2148C44.157 92.0014 44.8467 91.5232 45.3225 90.8606C45.5458 90.5521 45.72 90.2109 45.8391 89.8492C45.8974 89.6698 45.9601 88.868 46.1092 88.7686C45.7829 88.9696 47.112 89.11 47.1898 89.1143C47.6227 89.1382 48.0568 89.1216 48.4865 89.0646C49.3207 88.9631 50.1831 88.7686 50.8833 88.2801C51.4517 87.8825 51.724 87.0569 52.4112 86.9424C53.1568 86.8192 54.097 87.3876 54.8166 87.5324C55.7381 87.7364 56.7009 87.6371 57.5613 87.2493H56.1847C56.741 87.6137 57.3626 87.8669 58.0152 87.9949L57.0232 86.6981C57.1334 90.7763 57.2264 94.8523 57.3279 98.9305C57.3755 100.803 57.4259 102.677 57.4792 104.55C57.5311 106.304 57.5635 108.157 58.4172 109.736C60.2153 113.075 65.1536 112.978 68.1793 111.595C71.7647 109.944 72.1839 105.993 72.2855 102.501C72.426 97.8455 72.4195 93.1839 72.3179 88.5287L70.6084 89.8254C72.1429 90.0415 73.338 91.1026 74.7147 91.738C76.0114 92.3367 77.5394 92.6349 78.9268 92.1703C79.5845 91.9619 80.1692 91.5706 80.6126 91.0421C80.98 90.5991 81.1615 89.6914 81.6262 89.4212C82.0908 89.1511 83.0785 89.311 83.6339 89.177C84.3086 89.0148 84.9178 88.6507 85.3801 88.1332C86.2036 87.2104 86.3592 85.972 87.0227 84.9757C87.3706 84.4483 87.8871 84.3727 88.4144 84.0745C89.0238 83.7315 89.5162 83.2135 89.8279 82.5876C90.5562 81.1266 90.4352 79.2593 90.4006 77.6774C90.3549 75.7699 90.1722 73.8682 89.8538 71.9869C89.6737 70.902 89.4453 69.8272 89.1687 68.7625C89.1168 68.5658 89.0045 67.5868 88.8359 67.4377C88.6997 67.3166 88.0427 67.7035 88.4555 67.8375C88.6591 67.8692 88.8671 67.8559 89.065 67.7986C91.2262 67.3426 91.3904 65.0668 91.0338 63.2795C90.6923 61.5765 88.0881 62.2962 88.4296 63.997C88.4793 64.2477 88.6651 64.8075 88.5333 65.0495C88.4015 65.2916 88.8467 64.8853 88.4555 65.1338C88.3111 65.1407 88.1663 65.1335 88.0233 65.1122C87.6987 65.1322 87.3842 65.2323 87.1078 65.4035C86.8313 65.5747 86.6016 65.8118 86.4391 66.0934C85.7281 67.3317 86.4024 68.8273 86.705 70.0786C87.4959 73.355 87.9131 76.8561 87.6537 80.2362C87.6191 80.6879 87.5781 81.2909 87.2323 81.628C86.8217 82.0278 86.1041 82.1359 85.6395 82.5054C84.7037 83.2532 84.3428 84.3295 83.8824 85.3906C83.3486 86.6225 82.8926 86.5425 81.6326 86.6873C80.1414 86.8624 79.4023 87.6426 78.7561 88.9285C78.1445 90.1452 76.5949 89.6827 75.6073 89.1684C74.2219 88.4401 72.9101 87.4394 71.3195 87.2233C70.4852 87.1044 69.5905 87.5583 69.61 88.52C69.6878 92.0874 69.7007 95.6548 69.6489 99.2222C69.6251 100.841 69.6143 102.464 69.5127 104.081C69.4263 105.462 69.2469 107.044 68.3327 108.154C66.7032 110.136 61.499 110.782 60.533 107.858C60.0878 106.51 60.1829 104.988 60.144 103.586C60.0964 101.906 60.0525 100.225 60.0121 98.5436C59.9127 94.5886 59.822 90.6315 59.7161 86.6765C59.7009 86.1168 59.3097 85.4922 58.7241 85.3798C58.0757 85.2501 57.503 84.7315 56.8568 84.7315C56.1782 84.7315 55.8756 85.0103 55.1516 84.8438C53.8549 84.5434 52.649 83.9794 51.2917 84.4008C50.129 84.7639 49.7789 86.0325 48.6529 86.307C47.313 86.6333 45.8196 85.8142 44.5964 86.5361C43.5158 87.1693 43.7168 88.1764 43.2219 89.1295C43.1699 89.2473 43.0923 89.3521 42.9946 89.436C42.897 89.52 42.7818 89.5811 42.6575 89.6149C42.5333 89.6487 42.403 89.6542 42.2763 89.6312C42.1496 89.6082 42.0296 89.5571 41.9252 89.4818C41.4108 89.1208 41.3589 88.2477 41.3157 87.6966C41.2055 86.2875 41.1839 85.0492 40.6047 83.733C40.0017 82.365 39.1934 81.172 38.9103 79.6765C38.6618 78.3624 38.718 76.9966 38.8282 75.6718C38.8779 75.0623 38.9384 74.4507 39.014 73.8434C39.0724 73.3831 39.2453 72.8838 39.1286 72.4257C39.0292 72.0367 38.772 71.8097 38.6963 71.4013C38.662 71.0217 38.6802 70.6391 38.7504 70.2645C38.8239 69.5772 38.9254 68.8921 38.9968 68.2027C39.1696 66.5451 39.2799 64.881 39.3577 63.2169C39.5932 58.1078 39.7099 52.9858 39.8461 47.8724C39.9023 45.7501 39.9974 43.63 40.1703 41.5121C40.2978 39.9603 40.5506 38.4043 40.6349 36.8525C40.6825 35.9881 40.3194 35.4651 40.0406 34.6697C39.7078 33.847 39.6324 32.9427 39.8245 32.0763C40.0406 31.16 39.4031 30.4511 38.5278 30.3668C39.4571 30.4576 38.6466 30.6975 38.8498 30.2307C38.8601 30.0865 38.8558 29.9417 38.8368 29.7984C38.8438 29.1476 38.8929 28.4979 38.9838 27.8534C39.127 26.4154 39.3478 24.9862 39.6451 23.572C40.2 20.8872 41.0105 18.2617 42.0656 15.7313C43.9783 11.169 46.5242 6.76881 51.3587 4.92532C53.6021 4.07165 55.9988 3.67183 58.3804 3.45572C61.0473 3.21366 63.805 3.02348 66.4741 3.3282C71.179 3.87715 75.1188 6.71479 78.2309 10.1403C80.0241 12.1245 81.5952 14.2985 82.9164 16.6238C83.6736 17.9076 84.2744 19.2775 84.7059 20.7041C84.916 21.4039 85.0607 22.1216 85.1381 22.848C85.1597 23.0901 85.1727 23.3343 85.1791 23.5764C85.1791 23.7622 85.0149 24.657 85.3261 24.4408C85.0784 24.6005 84.8858 24.8327 84.7748 25.1057C84.6638 25.3788 84.6398 25.6794 84.7059 25.9666C84.9414 27.4795 84.9328 28.9923 84.9998 30.5051C85.03 31.201 84.9998 32.0677 85.1986 32.7376C85.3974 33.4076 85.9031 33.9068 86.1387 34.5487C87.2193 37.5031 86.4996 41.0647 86.4737 44.1422C86.4257 50.8196 87.0776 57.4836 88.4188 64.0251C88.7732 65.7325 91.3774 65.0106 91.0317 63.3119Z" fill="#FFC736"/>
</g>
<defs>
<clipPath id="clip0_64_3330">
<rect width="128" height="112" fill="white"/>
</clipPath>
</defs>
</svg>
