<svg width="681" height="681" viewBox="0 0 681 681" fill="none" xmlns="http://www.w3.org/2000/svg">
<path d="M314.492 460.67C315.332 488.61 316.182 530.22 317.022 558.16C317.262 566.16 317.892 575.1 323.762 580.57C328.582 585.07 335.762 585.97 342.312 585.68C350.312 585.33 358.762 583.28 364.402 577.56C371.592 570.26 372.522 559.03 372.882 548.79C373.682 525.42 373.632 490.74 372.712 467.37" fill="#FFC837"/>
<path d="M312.001 460.67C312.591 480.49 313.001 500.32 313.531 520.15C313.771 530.043 314.025 539.937 314.291 549.83C314.531 558.34 313.991 567.63 317.421 575.62C324.421 591.91 349.421 591.08 362.221 582.56C377.411 572.42 375.461 550.45 375.741 534.5C376.141 512.13 376.061 489.72 375.201 467.36C375.081 464.15 370.081 464.14 370.201 467.36C370.861 484.73 371.011 502.13 370.911 519.52C370.911 527.92 370.741 536.32 370.501 544.71C370.251 553.27 370.371 562.65 366.391 570.48C358.501 585.99 326.061 589.92 320.871 570.34C318.871 562.64 319.401 554.08 319.191 546.17C318.958 537.503 318.738 528.837 318.531 520.17C318.041 500.34 317.601 480.52 317.001 460.69C316.901 457.48 311.901 457.47 312.001 460.69V460.67Z" fill="#2B2C2B"/>
<path d="M459.91 366.13C452.751 331.356 449.926 295.829 451.5 260.36C451.86 252.19 452.5 243.94 450.96 235.9C450.056 230.683 448.007 225.731 444.96 221.4C444.431 216.792 444.144 212.159 444.1 207.52C444.032 201.681 443.557 195.853 442.68 190.08C442.79 190 442.91 189.93 443.02 189.84C444.64 188.51 445.02 186.19 445.02 184.09C445.79 166.46 437.21 149.79 427.39 135.09C411 110.61 388.54 87.84 359.69 81.86C348.63 79.57 337.22 79.86 325.94 80.5C302.3 81.79 277 85.09 259.39 100.91C251.57 107.91 245.85 116.97 240.96 126.27C227.448 152.026 219.657 180.396 218.12 209.44C217.92 213.23 219.41 218.44 222.94 218.27C220.73 225.93 223.32 233.06 226.67 240.05C222.21 278 223.22 290.18 222.11 313.86C220.82 341.47 221.54 367.44 217.94 394.86C217.48 398.33 217.01 401.95 218.09 405.28C218.444 406.368 218.989 407.384 219.7 408.28L219.48 409.35L219.11 411.92C217.58 424.75 216.11 438.28 221.21 450.17C223.6 455.78 227.39 460.85 228.72 466.8C229.62 470.8 229.35 474.96 229.72 479.04C230.09 483.12 231.28 487.4 234.37 490.09C235.637 491.194 237.157 491.967 238.795 492.34C240.433 492.713 242.137 492.674 243.757 492.227C245.376 491.781 246.86 490.94 248.075 489.78C249.29 488.62 250.199 487.177 250.72 485.58C251.72 482.47 251.72 478.31 254.72 477.04C256.25 476.4 257.99 476.86 259.62 477.18C264.12 478.062 268.769 477.814 273.15 476.46C274.507 476.094 275.78 475.469 276.9 474.62C278.66 473.18 279.6 470.94 281.32 469.46C284.96 466.35 290.48 467.64 295.02 469.16C299.18 470.55 304.09 471.88 307.8 469.84C309.872 471.331 312.274 472.298 314.8 472.66C315.53 499.59 316.26 533.97 316.99 558.13C317.23 566.13 317.86 575.07 323.73 580.54C328.55 585.04 335.73 585.94 342.28 585.65C350.28 585.3 358.73 583.25 364.37 577.53C371.56 570.23 372.49 559 372.85 548.76C373.51 529.67 373.59 503.04 373.1 481.19L373.77 481.29C381 482.51 386.91 487.57 393.56 490.68C400.21 493.79 409.5 494.22 413.56 488.11C415.1 485.79 415.67 482.81 417.73 480.94C421.4 477.62 427.43 479.66 431.95 477.64C439.51 474.26 438.75 462.12 445.71 457.64C447.63 456.4 449.96 455.9 451.82 454.57C455.73 451.79 456.46 446.36 456.65 441.57C457.378 423.108 455.133 404.649 450 386.9C449.16 384 449 379.69 452 379.2C452.874 379.171 453.749 379.231 454.61 379.38C457.37 379.49 459.68 377 460.34 374.32C461 371.64 460.47 368.83 459.91 366.13Z" fill="#FFC837"/>
<path d="M465.941 364.47C459.666 333.722 456.805 302.376 457.411 271C457.691 256.68 460.261 241.14 455.061 227.38C454.061 224.72 452.061 221.98 451.131 219.61C450.201 217.24 450.521 212.94 450.431 210.13C450.307 202.868 449.733 195.621 448.711 188.43L445.841 195.49C456.141 188.17 450.681 168.94 447.161 159.24C442.411 146.14 434.851 134.17 426.521 123.07C411.131 102.57 391.221 83.88 365.901 76.96C351.381 72.96 336.111 73.58 321.241 74.58C308.001 75.47 294.611 77 282.001 81.28C269.391 85.56 257.921 92.34 249.261 102.47C240.001 113.3 233.511 126.31 228.001 139.37C221.409 154.949 216.767 171.283 214.181 188C212.571 198.53 206.511 223 223.001 224.55L217.001 216.64C215.87 221.099 215.737 225.753 216.611 230.27C217.381 234.21 219.981 238.44 220.281 242.02C220.641 246.41 219.221 251.61 218.801 256.02C218.474 259.473 218.178 262.927 217.911 266.38C217.011 278.22 216.731 290.07 216.391 301.93C215.901 319.12 215.301 336.3 214.761 353.49C214.451 363.4 213.991 373.31 213.081 383.19C212.231 392.4 208.901 403.1 214.401 411.42L213.771 406.6C210.771 421.53 209.661 439.09 215.911 453.3C217.701 457.37 220.271 461.11 221.841 465.3C223.321 469.22 223.161 473.19 223.441 477.3C223.991 485.38 226.441 493.79 234.441 497.36C237.889 498.894 241.762 499.193 245.405 498.206C249.048 497.219 252.239 495.006 254.441 491.94C255.474 490.512 256.28 488.934 256.831 487.26C257.101 486.43 257.391 482.72 258.081 482.26C256.571 483.19 262.721 483.84 263.081 483.86C265.084 483.97 267.092 483.893 269.081 483.63C272.941 483.16 276.931 482.26 280.171 480C282.801 478.16 284.061 474.34 287.241 473.81C290.691 473.24 295.041 475.87 298.371 476.54C302.635 477.484 307.09 477.025 311.071 475.23H304.701C307.275 476.916 310.151 478.088 313.171 478.68L308.581 472.68C309.091 491.55 309.521 510.41 309.991 529.28C310.211 537.947 310.444 546.613 310.691 555.28C310.931 563.4 311.081 571.97 315.031 579.28C323.351 594.73 346.201 594.28 360.201 587.88C376.791 580.24 378.731 561.96 379.201 545.8C379.851 524.26 379.821 502.69 379.351 481.15L371.441 487.15C378.541 488.15 384.071 493.06 390.441 496C396.441 498.77 403.511 500.15 409.931 498C412.974 497.036 415.679 495.225 417.731 492.78C419.431 490.73 420.271 486.53 422.421 485.28C424.571 484.03 429.141 484.77 431.711 484.15C434.833 483.4 437.652 481.715 439.791 479.32C443.601 475.05 444.321 469.32 447.391 464.71C449.001 462.27 451.391 461.92 453.831 460.54C456.65 458.953 458.929 456.556 460.371 453.66C463.741 446.9 463.181 438.26 463.021 430.94C462.81 422.114 461.964 413.315 460.491 404.61C459.658 399.59 458.601 394.617 457.321 389.69C457.081 388.78 456.561 384.25 455.781 383.56C455.151 383 452.111 384.79 454.021 385.41C454.963 385.557 455.925 385.495 456.841 385.23C466.841 383.12 467.601 372.59 465.951 364.32C464.371 356.44 452.321 359.77 453.901 367.64C454.131 368.8 454.991 371.39 454.381 372.51C453.771 373.63 455.831 371.75 454.021 372.9C453.353 372.932 452.683 372.898 452.021 372.8C450.519 372.893 449.064 373.356 447.785 374.148C446.506 374.94 445.443 376.037 444.691 377.34C441.401 383.07 444.521 389.99 445.921 395.78C449.581 410.94 451.511 427.14 450.311 442.78C450.151 444.87 449.961 447.66 448.361 449.22C446.461 451.07 443.141 451.57 440.991 453.28C436.661 456.74 434.991 461.72 432.861 466.63C430.391 472.33 428.281 471.96 422.451 472.63C415.551 473.44 412.131 477.05 409.141 483C406.311 488.63 399.141 486.49 394.571 484.11C388.161 480.74 382.091 476.11 374.731 475.11C370.871 474.56 366.731 476.66 366.821 481.11C367.181 497.617 367.241 514.123 367.001 530.63C366.891 538.12 366.841 545.63 366.371 553.11C365.971 559.5 365.141 566.82 360.911 571.96C353.371 581.13 329.291 584.12 324.821 570.59C322.761 564.35 323.201 557.31 323.021 550.82C322.801 543.047 322.598 535.27 322.411 527.49C321.951 509.19 321.531 490.88 321.041 472.58C320.971 469.99 319.161 467.1 316.451 466.58C313.451 465.98 310.801 463.58 307.811 463.58C304.671 463.58 303.271 464.87 299.921 464.1C293.921 462.71 288.341 460.1 282.061 462.05C276.681 463.73 275.061 469.6 269.851 470.87C263.651 472.38 256.741 468.59 251.081 471.93C246.081 474.86 247.011 479.52 244.721 483.93C244.48 484.475 244.121 484.96 243.669 485.348C243.218 485.737 242.685 486.02 242.11 486.176C241.535 486.332 240.932 486.358 240.346 486.251C239.759 486.145 239.204 485.909 238.721 485.56C236.341 483.89 236.101 479.85 235.901 477.3C235.391 470.78 235.291 465.05 232.611 458.96C229.821 452.63 226.081 447.11 224.771 440.19C223.621 434.11 223.881 427.79 224.391 421.66C224.621 418.84 224.901 416.01 225.251 413.2C225.521 411.07 226.321 408.76 225.781 406.64C225.321 404.84 224.131 403.79 223.781 401.9C223.622 400.143 223.706 398.373 224.031 396.64C224.371 393.46 224.841 390.29 225.171 387.1C225.971 379.43 226.481 371.73 226.841 364.03C227.931 340.39 228.471 316.69 229.101 293.03C229.361 283.21 229.801 273.4 230.601 263.6C231.191 256.42 232.361 249.22 232.751 242.04C232.971 238.04 231.291 235.62 230.001 231.94C228.461 228.133 228.112 223.949 229.001 219.94C230.001 215.7 227.051 212.42 223.001 212.03C227.301 212.45 223.551 213.56 224.491 211.4C224.539 210.733 224.519 210.063 224.431 209.4C224.463 206.388 224.69 203.382 225.111 200.4C225.774 193.746 226.795 187.133 228.171 180.59C230.738 168.167 234.489 156.018 239.371 144.31C248.221 123.2 260.001 102.84 282.371 94.31C292.751 90.36 303.841 88.51 314.861 87.51C327.201 86.39 339.961 85.51 352.311 86.92C374.081 89.46 392.311 102.59 406.711 118.44C415.008 127.621 422.278 137.681 428.391 148.44C431.895 154.38 434.674 160.719 436.671 167.32C437.643 170.558 438.313 173.879 438.671 177.24C438.771 178.36 438.831 179.49 438.861 180.61C438.861 181.47 438.101 185.61 439.541 184.61C438.394 185.349 437.504 186.423 436.99 187.686C436.477 188.95 436.365 190.341 436.671 191.67C437.761 198.67 437.721 205.67 438.031 212.67C438.171 215.89 438.031 219.9 438.951 223C439.871 226.1 442.211 228.41 443.301 231.38C448.301 245.05 444.971 261.53 444.851 275.77C444.629 306.667 447.645 337.502 453.851 367.77C455.491 375.67 467.541 372.33 465.941 364.47Z" fill="#2B2C2B"/>
<path d="M223.18 217.69C218.56 232.02 231.04 244.48 234.33 257.57C237.62 270.66 229.78 288.17 238.83 299.49C241.68 303.05 247.28 306.16 251.48 303.01C256.34 299.37 256.85 288.92 257.56 283.3C258.46 276.3 257.78 268.39 261.35 262.02C264.92 255.65 271.35 253.34 277.93 256.62C288.56 261.92 295.64 279.62 310.01 271.45C319.75 265.91 320.5 243.19 334.63 244.88C349.17 246.62 340.24 269.12 346.17 277.08C348.5 280.21 353.69 282.42 357.29 280.18C362.38 277.01 359.78 265.97 359.66 260.81C359.52 255.05 361.02 252.91 366.66 254.36C368.53 254.84 370.87 256.14 372.87 255.69C375.87 255.01 375.43 252.62 376.34 250.21C378.57 244.3 385.52 244.63 390.66 245.56C397.78 246.86 402.89 246.91 408.95 242.39C415.28 237.68 429.41 223.74 436.32 235.83C438.66 239.93 437.39 245.37 439.86 249.36C443.31 254.93 449.97 251.42 451.18 245.97C452.58 239.67 447.59 233.22 446.09 227.34C444.45 220.88 444.29 214.14 444.09 207.52C443.72 194.14 442.7 181.68 435.24 170.16C422.07 149.83 397.63 138.11 375.92 129.23C359.14 122.36 342.48 121.03 324.56 123.17C306.738 125.165 289.071 128.362 271.68 132.74C241.39 140.65 227.1 180.11 225.48 208.33" fill="#F04B24"/>
<path d="M220.77 217C216.51 232 227.55 243.3 231.55 256.86C235.55 270.42 227.71 285.53 235.08 298.38C237.99 303.45 244.03 308.17 250.17 306.38C255.54 304.8 257.59 298.84 258.62 293.92C260.62 284.18 258.77 249.68 277.13 259.02C286.22 263.64 291.31 276.02 302.7 276.02C313.85 276.1 318.13 266.02 322.38 257.58C324.52 253.35 327.27 247.65 332.66 247.26C338.82 246.82 340.66 252.02 341.04 257.12C341.76 265.74 339.29 277.63 348.8 282.28C353.15 284.4 358.8 283.85 361.33 279.36C363.86 274.87 362.81 268.6 362.33 263.6C362.17 261.76 361.33 257.54 363.19 256.42C365.28 255.18 370.19 258.51 372.83 258.15C373.828 258.037 374.782 257.672 375.6 257.089C376.419 256.507 377.076 255.726 377.51 254.82C378.24 253.39 378.16 251.65 379 250.26C380.23 248.26 382.5 247.65 384.71 247.51C391.39 247.08 397.48 250 404.16 247.73C409.71 245.85 413.85 241.32 418.54 238.03C423.96 234.23 432.45 230.1 434.97 239.36C436.41 244.67 435.71 252.86 442.7 254.45C447.53 255.55 452.1 251.6 453.38 247.16C455.38 240.06 450.59 233.8 448.66 227.31C446.03 218.45 446.83 208.84 446.23 199.72C445.72 191.9 444.54 184.07 441.51 176.79C435.8 163.04 424.2 152.45 411.97 144.44C399.049 136.06 385.109 129.365 370.49 124.52C352.95 118.7 335.04 119.17 316.95 121.58C307.82 122.79 298.72 124.23 289.68 126.02C281.51 127.64 272.86 129.02 265.14 132.27C242.14 141.86 230.14 167.89 225.29 190.92C224.111 196.661 223.346 202.479 223 208.33C222.8 211.54 227.8 211.53 228 208.33C229.44 185.33 237.56 159.13 255.76 143.86C267.09 134.35 282.65 132.38 296.76 129.86C314.08 126.71 332.18 123.47 349.83 125.28C365.73 126.91 380.59 133.28 394.73 140.42C407.82 147.02 420.59 155.21 429.78 166.83C440.61 180.53 441.07 196.33 441.78 213.01C442.11 220.43 443.07 227.38 446.01 234.23C447.54 237.78 449.93 242.23 448.47 246.17C447.89 247.72 446.31 249.93 444.38 249.75C441.48 249.48 440.92 245.32 440.6 243.16C439.79 237.81 438.7 232.16 433.28 229.58C429.11 227.58 424.49 228.99 420.62 230.99C416.18 233.28 412.47 236.63 408.53 239.64C401.83 244.76 396.16 243.64 388.34 242.78C383.69 242.28 378.41 242.83 375.34 246.84C373.57 249.18 373.9 253.13 370.34 253.01C367.67 252.92 365.54 251.19 362.68 251.58C352.68 252.95 359.22 269.07 357.56 275.17C356.35 279.61 351.5 279.24 348.68 276.28C347.01 274.53 346.68 272.01 346.43 269.7C345.98 265.23 346.37 260.7 345.91 256.25C345.08 248.09 340.24 240.98 331.03 242.53C322.24 244.01 318.85 253.72 315.31 260.67C313.02 265.17 310.47 269.5 305.21 270.8C299.44 272.22 294.86 268.08 291 264.38C284.09 257.76 275.11 248.49 264.84 254.75C253.65 261.57 255.9 278.37 254.3 289.49C254.02 292.31 253.347 295.076 252.3 297.71C249.78 303.26 244.3 302.04 240.83 297.98C236.01 292.29 236.58 283.98 237.06 276.98C237.5 270.55 238.29 263.98 236.89 257.62C235.53 251.47 232.29 245.87 229.55 240.26C226.14 233.26 223.39 226.18 225.55 218.41C226.43 215.31 221.61 213.98 220.73 217.08L220.77 217Z" fill="#2B2C2B"/>
<path d="M228.38 203.26C229.51 206.84 227.18 217.56 223.5 218.26C219.6 219.01 217.97 213.44 218.18 209.47C219.712 180.43 227.496 152.064 241 126.31C245.91 117 251.63 108 259.45 101C277.06 85.1299 302.36 81.8299 326 80.5399C337.27 79.9299 348.69 79.6099 359.75 81.8999C388.59 87.8999 411.06 110.65 427.45 135.13C437.27 149.8 445.84 166.46 445.08 184.13C444.99 186.22 444.65 188.54 443.08 189.88C440.39 192.1 436.29 190.17 432.89 190.94C428.68 191.94 426.58 196.8 426.55 201.12C426.52 205.44 427.91 209.69 427.7 214.01C427.49 218.33 424.88 223.1 420.58 223.51C417.78 223.77 414.71 222.16 412.29 223.59C410.86 224.44 410.16 226.11 409.64 227.69C407.451 234.283 406.554 241.237 407 248.17C407.24 251.84 407.85 255.55 407.18 259.17C406.51 262.79 404.18 266.4 400.59 267.24C396.48 268.24 392.31 265.09 390.59 261.24C388.87 257.39 388.85 253.03 388.75 248.81C388.41 233.686 386.152 218.666 382.03 204.11C380.9 200.11 378.36 195.31 374.26 195.85C370.93 196.29 369.26 200.16 369.06 203.51C368.86 206.86 369.58 210.38 368.29 213.51C367.42 215.427 365.881 216.961 363.961 217.824C362.041 218.688 359.871 218.821 357.86 218.2C352.14 216.2 350.34 208.94 350.78 202.9C351.22 196.86 352.97 190.6 350.9 184.9C348.83 179.2 340.33 175.66 336.75 180.54C335.21 182.64 335.02 185.71 332.91 187.23C330.53 188.94 327.14 187.62 324.85 185.79C322.56 183.96 320.49 181.55 317.62 180.92C311.76 179.64 307.45 186.16 305.02 191.65C302 198.29 299 205.17 299 212.42C299 219.32 300.66 228.3 294.47 231.37C290.42 233.37 285.29 230.83 282.9 226.98C280.51 223.13 280.16 218.41 279.9 213.9L277.56 177.66C277.33 174.1 277.02 170.33 274.88 167.47C272.74 164.61 268.07 163.39 265.61 165.97C264.43 167.21 264.03 168.97 263.61 170.63C262.48 174.63 260.47 178.7 256.88 180.82C253.29 182.94 247.88 182.3 245.88 178.62C245.23 177.4 244.97 175.94 244.04 174.92C241.46 172.09 236.53 175.16 235.46 178.84C234.14 183.37 235.73 188.19 235.79 192.92C235.85 197.65 233.11 203.3 228.38 203.26Z" fill="#FFC837"/>
<path d="M226.001 203.92C226.386 206.352 226.166 208.842 225.361 211.17C225.081 212.17 224.791 213.72 224.081 214.46C222.301 216.3 221.251 214.24 220.861 212.26C220.151 208.57 221.011 204.14 221.381 200.45C221.834 195.863 222.447 191.3 223.221 186.76C226.175 169.394 231.411 152.495 238.791 136.5C245.551 121.9 253.791 107 267.521 97.8499C280.331 89.2999 295.811 85.8499 310.921 84.2199C327.611 82.3999 345.681 80.8699 362.121 84.9999C376.681 88.6599 389.651 96.8399 400.611 106.94C411.627 117.343 421.177 129.194 429.001 142.17C433.53 149.228 437.161 156.823 439.811 164.78C441.127 168.854 441.999 173.058 442.411 177.32C442.831 182.13 443.661 187.92 437.411 188.32C434.411 188.53 431.951 187.96 429.281 189.72C427.182 191.219 425.633 193.366 424.871 195.83C422.421 203.04 428.031 212.2 423.581 218.57C420.961 222.31 417.191 219.93 413.491 220.57C412.332 220.758 411.238 221.227 410.303 221.937C409.369 222.647 408.623 223.575 408.131 224.64C404.941 230.64 404.231 238.91 404.341 245.58C404.411 249.84 405.521 254.39 404.621 258.58C404.081 261.12 403.161 263.1 400.701 264.19C397.191 265.73 394.351 263.19 392.811 260.19C390.931 256.47 391.231 251.94 391.121 247.88C390.994 243.473 390.707 239.077 390.261 234.69C389.385 226.008 387.891 217.399 385.791 208.93C384.511 203.79 383.161 196.41 377.691 193.93C373.241 191.93 369.041 194.93 367.391 199.04C366.261 201.85 366.521 204.76 366.481 207.72C366.481 210.45 366.261 213.39 363.711 215.02C362.598 215.75 361.273 216.089 359.946 215.984C358.619 215.879 357.365 215.336 356.381 214.44C350.381 209.07 354.161 198.59 354.291 191.91C354.401 186.19 352.771 180.62 347.621 177.54C343.971 175.36 338.921 174.8 335.621 177.92C333.621 179.77 332.941 185 330.181 185.49C326.921 186.07 323.091 180.54 320.181 179.18C307.711 173.34 300.721 193.64 298.181 201.97C296.131 208.78 297.091 215.13 296.611 222.04C296.351 225.82 294.791 230.41 289.971 229.35C284.271 228.09 282.971 221.26 282.531 216.42C281.671 207.66 281.371 198.81 280.801 190.02C280.351 183.12 281.141 174.52 278.101 168.13C276.101 163.84 270.961 160.65 266.211 162.59C260.321 165 261.431 173.24 257.211 177.33C256.525 178.022 255.706 178.57 254.804 178.939C253.902 179.308 252.935 179.492 251.961 179.48C248.811 179.34 248.241 177.35 247.011 175.06C246.587 174.086 245.923 173.236 245.082 172.587C244.241 171.938 243.25 171.513 242.201 171.35C237.201 170.68 233.411 175.46 232.621 179.85C231.781 184.58 236.621 199.96 228.381 200.72C225.201 201.01 225.171 206.02 228.381 205.72C234.011 205.2 237.251 200.66 238.031 195.29C238.591 191.49 237.481 187.79 237.401 184.01C237.401 181.95 237.611 176.38 240.811 176.39C242.601 176.39 243.651 180.02 244.541 181.11C248.121 185.49 254.911 185.28 259.201 182.17C261.557 180.343 263.392 177.929 264.521 175.17C265.062 173.892 265.536 172.587 265.941 171.26C266.161 170.58 266.421 168.77 266.941 168.26C269.161 166.05 271.421 167.51 272.841 169.19C275.731 172.59 275.081 179.19 275.351 183.39L276.351 198.65C276.921 207.4 276.041 218 279.661 226.17C281.931 231.3 287.361 235.51 293.221 234.36C298.901 233.24 301.151 227.96 301.571 222.72C301.831 219.5 301.471 216.27 301.471 213.05C301.471 207.86 302.921 202.99 304.821 198.2C306.371 194.29 308.041 189.78 310.821 186.5C312.181 184.9 314.031 183.19 316.291 183.27C318.961 183.37 321.021 186.02 322.981 187.56C328.061 191.56 334.121 191.56 337.101 185.37C337.931 183.64 338.351 181.7 340.281 181C342.211 180.3 344.281 181.26 345.771 182.4C350.121 185.63 349.451 191.71 348.901 196.5C348.131 203.26 347.111 210.8 351.611 216.6C353.187 218.725 355.48 220.208 358.065 220.772C360.65 221.337 363.352 220.945 365.671 219.67C367.906 218.467 369.647 216.516 370.591 214.16C372.151 210.16 370.151 205.41 371.771 201.64C372.471 200.02 374.431 198.43 376.561 199.16C377.171 199.37 377.991 201.06 378.361 201.74C379.324 203.882 380.042 206.126 380.501 208.43C381.774 213.303 382.837 218.223 383.691 223.19C385.391 233.05 385.691 242.84 386.261 252.8C386.611 259.33 388.561 266.44 395.261 269.12C401.001 271.43 406.581 267.95 408.751 262.49C410.101 259.09 410.021 255.43 409.751 251.84C409.198 246.514 409.308 241.139 410.081 235.84C410.861 231.38 411.301 224.97 417.001 225.67C420.001 226.03 422.641 226.03 425.171 224.18C430.751 220.1 430.331 212.9 429.541 206.83C428.931 202.19 427.881 194.33 434.321 193.18C437.791 192.56 441.111 194.3 444.321 191.96C449.481 188.15 447.781 178.59 446.971 173.27C444.401 156.36 435.071 141.06 425.181 127.44C416.061 114.88 405.511 103.25 392.861 94.1499C379.657 84.5227 363.987 78.8518 347.681 77.7999C330.368 76.797 312.998 78.0305 296.001 81.4699C280.411 84.6099 265.241 90.9199 254.141 102.65C242.481 114.97 234.931 131.41 228.921 147.08C222.366 164.228 218.145 182.178 216.371 200.45C215.821 206.07 213.961 215.09 219.051 219.4C222.671 222.46 226.681 220.12 228.601 216.55C230.741 212.55 231.851 207.02 230.801 202.55C230.051 199.47 225.231 200.79 226.001 203.92Z" fill="#2B2C2B"/>
<path d="M356.92 475.63C357.45 494.95 357.27 514.28 356.92 533.63C356.75 542.2 356.76 550.83 355.85 559.36C355 567.36 353.41 576.04 347.74 582.08C345.54 584.43 349.07 587.97 351.28 585.62C362.48 573.68 361.48 554.08 361.81 538.87C362.27 517.81 362.52 496.73 361.94 475.67C361.85 472.46 356.85 472.45 356.94 475.67L356.92 475.63Z" fill="#2B2C2B"/>
<path d="M465.941 364.47C459.666 333.722 456.805 302.376 457.411 271C457.691 256.68 460.261 241.14 455.061 227.38C454.061 224.72 452.061 221.98 451.131 219.61C450.201 217.24 450.521 212.94 450.431 210.13C450.307 202.868 449.733 195.621 448.711 188.43L445.841 195.49C456.141 188.17 450.681 168.94 447.161 159.24C442.411 146.14 434.851 134.17 426.521 123.07C411.131 102.57 391.221 83.88 365.901 76.96C351.381 72.96 336.111 73.58 321.241 74.58C308.001 75.47 294.611 77 282.001 81.28C269.391 85.56 257.921 92.34 249.261 102.47C240.001 113.3 233.511 126.31 228.001 139.37C221.409 154.949 216.767 171.283 214.181 188C212.571 198.53 206.511 223 223.001 224.55L217.001 216.64C215.87 221.099 215.737 225.753 216.611 230.27C217.381 234.21 219.981 238.44 220.281 242.02C220.641 246.41 219.221 251.61 218.801 256.02C218.474 259.473 218.178 262.927 217.911 266.38C217.011 278.22 216.731 290.07 216.391 301.93C215.901 319.12 215.301 336.3 214.761 353.49C214.451 363.4 213.991 373.31 213.081 383.19C212.231 392.4 208.901 403.1 214.401 411.42L213.771 406.6C210.771 421.53 209.661 439.09 215.911 453.3C217.701 457.37 220.271 461.11 221.841 465.3C223.321 469.22 223.161 473.19 223.441 477.3C223.991 485.38 226.441 493.79 234.441 497.36C237.889 498.894 241.762 499.193 245.405 498.206C249.048 497.219 252.239 495.006 254.441 491.94C255.474 490.512 256.28 488.934 256.831 487.26C257.101 486.43 257.391 482.72 258.081 482.26C256.571 483.19 262.721 483.84 263.081 483.86C265.084 483.97 267.092 483.893 269.081 483.63C272.941 483.16 276.931 482.26 280.171 480C282.801 478.16 284.061 474.34 287.241 473.81C290.691 473.24 295.041 475.87 298.371 476.54C302.635 477.484 307.09 477.025 311.071 475.23H304.701C307.275 476.916 310.151 478.088 313.171 478.68L308.581 472.68C309.091 491.55 309.521 510.41 309.991 529.28C310.211 537.947 310.444 546.613 310.691 555.28C310.931 563.4 311.081 571.97 315.031 579.28C323.351 594.73 346.201 594.28 360.201 587.88C376.791 580.24 378.731 561.96 379.201 545.8C379.851 524.26 379.821 502.69 379.351 481.15L371.441 487.15C378.541 488.15 384.071 493.06 390.441 496C396.441 498.77 403.511 500.15 409.931 498C412.974 497.036 415.679 495.225 417.731 492.78C419.431 490.73 420.271 486.53 422.421 485.28C424.571 484.03 429.141 484.77 431.711 484.15C434.833 483.4 437.652 481.715 439.791 479.32C443.601 475.05 444.321 469.32 447.391 464.71C449.001 462.27 451.391 461.92 453.831 460.54C456.65 458.953 458.929 456.556 460.371 453.66C463.741 446.9 463.181 438.26 463.021 430.94C462.81 422.114 461.964 413.315 460.491 404.61C459.658 399.59 458.601 394.617 457.321 389.69C457.081 388.78 456.561 384.25 455.781 383.56C455.151 383 452.111 384.79 454.021 385.41C454.963 385.557 455.925 385.495 456.841 385.23C466.841 383.12 467.601 372.59 465.951 364.32C464.371 356.44 452.321 359.77 453.901 367.64C454.131 368.8 454.991 371.39 454.381 372.51C453.771 373.63 455.831 371.75 454.021 372.9C453.353 372.932 452.683 372.898 452.021 372.8C450.519 372.893 449.064 373.356 447.785 374.148C446.506 374.94 445.443 376.037 444.691 377.34C441.401 383.07 444.521 389.99 445.921 395.78C449.581 410.94 451.511 427.14 450.311 442.78C450.151 444.87 449.961 447.66 448.361 449.22C446.461 451.07 443.141 451.57 440.991 453.28C436.661 456.74 434.991 461.72 432.861 466.63C430.391 472.33 428.281 471.96 422.451 472.63C415.551 473.44 412.131 477.05 409.141 483C406.311 488.63 399.141 486.49 394.571 484.11C388.161 480.74 382.091 476.11 374.731 475.11C370.871 474.56 366.731 476.66 366.821 481.11C367.181 497.617 367.241 514.123 367.001 530.63C366.891 538.12 366.841 545.63 366.371 553.11C365.971 559.5 365.141 566.82 360.911 571.96C353.371 581.13 329.291 584.12 324.821 570.59C322.761 564.35 323.201 557.31 323.021 550.82C322.801 543.047 322.598 535.27 322.411 527.49C321.951 509.19 321.531 490.88 321.041 472.58C320.971 469.99 319.161 467.1 316.451 466.58C313.451 465.98 310.801 463.58 307.811 463.58C304.671 463.58 303.271 464.87 299.921 464.1C293.921 462.71 288.341 460.1 282.061 462.05C276.681 463.73 275.061 469.6 269.851 470.87C263.651 472.38 256.741 468.59 251.081 471.93C246.081 474.86 247.011 479.52 244.721 483.93C244.48 484.475 244.121 484.96 243.669 485.348C243.218 485.737 242.685 486.02 242.11 486.176C241.535 486.332 240.932 486.358 240.346 486.251C239.759 486.145 239.204 485.909 238.721 485.56C236.341 483.89 236.101 479.85 235.901 477.3C235.391 470.78 235.291 465.05 232.611 458.96C229.821 452.63 226.081 447.11 224.771 440.19C223.621 434.11 223.881 427.79 224.391 421.66C224.621 418.84 224.901 416.01 225.251 413.2C225.521 411.07 226.321 408.76 225.781 406.64C225.321 404.84 224.131 403.79 223.781 401.9C223.622 400.143 223.706 398.373 224.031 396.64C224.371 393.46 224.841 390.29 225.171 387.1C225.971 379.43 226.481 371.73 226.841 364.03C227.931 340.39 228.471 316.69 229.101 293.03C229.361 283.21 229.801 273.4 230.601 263.6C231.191 256.42 232.361 249.22 232.751 242.04C232.971 238.04 231.291 235.62 230.001 231.94C228.461 228.133 228.112 223.949 229.001 219.94C230.001 215.7 227.051 212.42 223.001 212.03C227.301 212.45 223.551 213.56 224.491 211.4C224.539 210.733 224.519 210.063 224.431 209.4C224.463 206.388 224.69 203.382 225.111 200.4C225.774 193.746 226.795 187.133 228.171 180.59C230.738 168.167 234.489 156.018 239.371 144.31C248.221 123.2 260.001 102.84 282.371 94.31C292.751 90.36 303.841 88.51 314.861 87.51C327.201 86.39 339.961 85.51 352.311 86.92C374.081 89.46 392.311 102.59 406.711 118.44C415.008 127.621 422.278 137.681 428.391 148.44C431.895 154.38 434.674 160.719 436.671 167.32C437.643 170.558 438.313 173.879 438.671 177.24C438.771 178.36 438.831 179.49 438.861 180.61C438.861 181.47 438.101 185.61 439.541 184.61C438.394 185.349 437.504 186.423 436.99 187.686C436.477 188.95 436.365 190.341 436.671 191.67C437.761 198.67 437.721 205.67 438.031 212.67C438.171 215.89 438.031 219.9 438.951 223C439.871 226.1 442.211 228.41 443.301 231.38C448.301 245.05 444.971 261.53 444.851 275.77C444.629 306.667 447.645 337.502 453.851 367.77C455.491 375.67 467.541 372.33 465.941 364.47Z" fill="#2B2C2B"/>
</svg>
