<svg width="128" height="112" viewBox="0 0 128 112" fill="none" xmlns="http://www.w3.org/2000/svg">
<path d="M23.6548 84.4592C22.782 86.2059 22.4383 88.1696 22.6661 90.1089C22.8938 92.0482 23.683 93.8788 24.9368 95.3757C26.1905 96.8727 27.8541 97.9709 29.7234 98.5355C31.5926 99.1 33.5861 99.1063 35.4588 98.5536C37.9946 97.8053 40.1347 96.087 41.9793 94.1947C47.9779 88.0388 51.5527 79.7452 58.0089 74.0708C64.2696 68.5703 72.7848 65.9416 78.4688 59.8382C80.4564 57.6933 82.0174 55.2076 83.812 52.9054C89.1726 46.0486 96.4767 40.968 104.77 38.3272C107.68 37.4073 110.966 36.6161 112.678 34.0923C113.76 32.505 114.005 30.4912 113.972 28.5703C113.948 27.1833 113.774 25.7391 113.018 24.5689C111.097 21.5565 106.691 21.8139 103.171 22.424" fill="#FF76B8"/>
<path d="M21.7422 83.3411C19.4948 88.0646 20.2026 94.0203 24.0944 97.7071C25.9815 99.472 28.3662 100.613 30.9245 100.976C33.4828 101.338 36.0906 100.904 38.3937 99.7329C43.2078 97.3067 46.6301 92.3925 49.6354 88.0908C52.5691 83.8916 55.3217 79.5112 59.1325 76.0198C62.8861 72.588 67.5453 70.3597 71.8518 67.731C74.0666 66.4128 76.1651 64.9084 78.1244 63.2338C80.2502 61.3749 81.9518 59.1514 83.6058 56.873C86.6373 52.6881 90.0405 48.9107 94.2969 45.9436C96.3836 44.4905 98.5942 43.2241 100.903 42.159C103.196 41.1009 105.601 40.4383 107.981 39.6257C110.543 38.751 113.036 37.5284 114.578 35.2072C116.289 32.6309 116.485 29.0489 115.932 26.0842C115.391 23.1958 113.31 21.0437 110.503 20.2501C107.929 19.5208 105.174 19.8545 102.583 20.3001C101.404 20.5027 100.744 21.9517 101.037 23.0218C101.38 24.2682 102.576 24.7711 103.758 24.5685C105.508 24.2682 107.433 24.0227 109.175 24.4803C111.037 24.9689 111.659 26.3416 111.737 28.191C111.823 30.2024 111.635 32.3831 109.998 33.763C108.568 34.9712 106.571 35.4479 104.821 35.9889C95.7459 38.7987 87.6954 44.2444 81.8899 51.7872C80.3956 53.7296 79.061 55.803 77.4499 57.6524C75.9363 59.366 74.2132 60.8825 72.3212 62.1662C68.5081 64.7877 64.3256 66.8158 60.4909 69.404C56.4657 72.1209 53.2436 75.4884 50.3575 79.3754C47.5977 83.0932 45.2074 87.0947 42.2116 90.6337C39.1135 94.3039 34.9595 98.1027 29.8189 96.189C25.6506 94.6399 23.6487 89.5923 25.5601 85.5742C26.0725 84.4946 25.858 83.1909 24.7665 82.5451C23.8132 81.9803 22.2546 82.2543 21.7374 83.3387L21.7422 83.3411Z" fill="#FFC736"/>
<path d="M103.206 21.8853L100.985 16.921C100.537 15.9225 100.077 14.9025 99.3167 14.1041C97.4268 12.0855 94.3119 12.0021 91.5426 12.0593L82.0098 12.2547" fill="#FF76B8"/>
<path d="M105.124 20.7678C104.12 18.5252 103.277 16.0562 101.98 13.9637C101.377 12.9982 100.582 12.1665 99.6453 11.5197C98.7084 10.873 97.6489 10.4249 96.5323 10.203C94.3707 9.74065 92.1638 9.83121 89.9689 9.87649L82.0184 10.0409C79.1729 10.1005 79.1586 14.5262 82.0184 14.4666L88.8345 14.326C90.7935 14.2854 92.8406 14.0876 94.7925 14.3665C96.4608 14.6048 97.6524 15.2197 98.4627 16.733C99.5351 18.7492 100.369 20.9156 101.303 22.9985C101.78 24.09 103.379 24.3498 104.333 23.7921C105.455 23.1343 105.617 21.8593 105.126 20.763L105.124 20.7678Z" fill="#FFC736"/>
<path d="M91.5866 10.9488C90.2686 9.69764 89.68 7.86971 88.6266 6.3945C86.1147 2.89593 80.6786 1.95217 77.1347 4.39974C76.3602 4.93597 75.6809 5.59135 74.9398 6.18001C73.5551 7.26437 71.9679 8.05322 70.3926 8.83253" fill="#FF76B8"/>
<path d="M93.1502 9.38295C91.501 7.71469 90.9314 5.28143 89.1487 3.66322C87.3414 2.04908 85.0574 1.06772 82.6425 0.867703C80.3668 0.641747 78.0807 1.18098 76.1459 2.40011C75.0282 3.13176 74.1035 4.11365 72.9977 4.85959C71.8025 5.62837 70.5573 6.31628 69.2703 6.9187C66.7179 8.18419 68.9581 12.0045 71.5034 10.7319C73.6821 9.68343 75.7239 8.37159 77.583 6.82575C78.8295 5.73819 80.4471 5.17252 82.0997 5.24619C83.7524 5.31986 85.3132 6.02721 86.4581 7.22137C87.888 8.80382 88.4838 10.9487 90.0138 12.5026C92.0157 14.5331 95.1473 11.4039 93.143 9.37341L93.1502 9.38295Z" fill="#FFC736"/>
<path d="M75.4771 5.68384C73.8079 4.24112 71.8274 3.20425 69.6907 2.65436C67.554 2.10447 65.319 2.05648 63.1606 2.51415C62.7188 2.59527 62.2925 2.74568 61.8975 2.95981C61.0158 3.48174 60.5463 4.47078 60.0172 5.34304C58.8117 7.33743 57.0932 8.97193 55.041 10.0761" fill="#FF76B8"/>
<path d="M77.043 4.11837C73.4253 1.02018 68.7232 -0.493166 63.9806 0.143154C62.8795 0.290914 61.757 0.486338 60.7799 1.04878C59.7504 1.63982 59.0473 2.64077 58.4539 3.63696C57.298 5.57213 55.9086 7.06879 53.9258 8.16507C51.4353 9.54972 53.666 13.3748 56.1588 11.9782C57.91 11.0167 59.4556 9.72121 60.7084 8.16507C61.371 7.33095 61.8738 6.43724 62.4553 5.54353C62.8891 4.88338 63.1512 4.74277 63.9353 4.59024C67.3981 3.87528 71.2399 4.94296 73.9138 7.22847C74.8218 8.0054 76.1517 8.11979 77.043 7.22847C77.839 6.43247 77.9558 4.87861 77.043 4.0993V4.11837Z" fill="#FFC736"/>
<path d="M58.2271 5.59349C55.4328 4.97767 52.575 4.69686 49.7143 4.75698C48.8866 4.73778 48.0617 4.85782 47.2738 5.11208C43.6394 6.46813 43.4607 11.9758 40.1504 14.0086" fill="#FF76B8"/>
<path d="M58.8154 3.46051C56.1955 2.88771 53.5249 2.57873 50.8435 2.5382C48.4603 2.51437 46.2081 2.74316 44.3445 4.36137C43.0861 5.45288 42.2877 6.98291 41.5489 8.44859C40.8912 9.74983 40.2286 11.3085 39.0346 12.0973C36.6514 13.6488 38.875 17.4834 41.2677 15.9105C42.6976 14.9762 43.7391 13.6893 44.5709 12.2093C45.3073 10.8985 45.8506 9.42809 46.7634 8.22218C47.6762 7.01627 48.9417 6.94716 50.6195 6.95431C52.98 6.96558 55.3329 7.22196 57.6404 7.71932C60.4193 8.31513 61.6061 4.04916 58.8177 3.45098L58.8154 3.46051Z" fill="#FFC736"/>
<path d="M42.3578 9.67344C39.3788 8.55094 35.9899 8.24351 33.0227 9.39222C30.0556 10.5409 27.6391 13.3484 27.4865 16.5276C27.4246 17.7907 27.7058 19.0419 27.7868 20.305C27.8678 21.5681 27.7105 22.9265 26.9122 23.9036C26.4022 24.5304 25.68 24.938 24.9746 25.3336" fill="#FF76B8"/>
<path d="M42.9453 7.54058C37.8785 5.70312 31.5892 6.06537 27.8523 10.3742C26.2103 12.2665 25.2046 14.6283 25.2713 17.1593C25.3071 18.5225 25.6955 19.8952 25.5788 21.2632C25.4787 22.4548 24.84 22.8695 23.8557 23.4224C21.3747 24.8213 23.6031 28.6464 26.0888 27.2355C28.472 25.8938 29.859 24.0468 30.0044 21.2536C30.1188 19.0587 29.1703 16.8208 30.1879 14.7284C32.3328 10.3385 37.7808 10.3504 41.768 11.797C42.8905 12.2045 44.1917 11.3394 44.4896 10.2503C44.828 9.02056 44.0725 7.9362 42.9429 7.52867L42.9453 7.54058Z" fill="#FFC736"/>
<path d="M26.3043 19.831C24.941 19.414 23.4635 19.9121 22.2242 20.6151C20.5804 21.5641 19.1684 22.8669 18.0905 24.4292C17.0125 25.9914 16.2958 27.7739 15.9921 29.6475C15.3319 33.9159 16.7904 38.7038 14.4668 42.3453" fill="#FF76B8"/>
<path d="M26.8915 17.7049C21.4339 16.3703 16.4435 21.7564 14.6203 26.3369C13.667 28.7463 13.5598 31.3417 13.6122 33.8965C13.6622 36.3774 13.8958 39.018 12.566 41.2273C11.0931 43.6724 14.9182 45.9008 16.3791 43.4603C17.6327 41.3798 18.0212 39.0133 18.0641 36.6157C18.1022 34.3922 17.7948 32.0876 18.188 29.8855C18.5189 27.9808 19.3663 26.2035 20.6379 24.7473C21.7628 23.4794 23.8553 21.5204 25.707 21.9732C28.474 22.6501 29.6537 18.3817 26.8844 17.7049H26.8915Z" fill="#FFC736"/>
<path d="M14.6843 36.1989C14.2965 35.8847 13.8448 35.659 13.3607 35.5376C12.8766 35.4161 12.3718 35.4019 11.8816 35.4959C10.0561 35.8581 8.86924 37.6169 8.11615 39.309C7.70181 40.1913 7.41072 41.1263 7.25104 42.0878C6.85066 44.8977 8.15428 47.6574 9.60804 50.0955C11.0618 52.5335 12.7444 54.9477 13.2234 57.7456C13.3473 58.4606 13.4474 59.309 14.0694 59.7022" fill="#FF76B8"/>
<path d="M15.802 34.2876C13.0756 32.3 9.59367 33.3343 7.63467 35.832C5.67566 38.3296 4.64134 41.6327 5.11322 44.7786C5.5851 47.9244 7.36775 50.6222 8.96927 53.3129C9.69853 54.5402 10.4135 55.7867 10.8163 57.1642C11.2429 58.6251 11.2286 60.2218 12.506 61.2752C13.4283 62.0355 14.7343 62.1785 15.6351 61.2752C16.4168 60.4935 16.5622 58.9087 15.6351 58.146C15.2443 57.8243 15.2062 56.3777 15.025 55.7962C14.6529 54.6536 14.1741 53.5484 13.5951 52.4954C12.4821 50.4173 11.0141 48.5059 10.1108 46.3181C9.26241 44.2638 9.18614 42.3167 10.0965 40.2719C10.7305 38.842 11.8673 36.8687 13.5617 38.1055C14.5293 38.8205 16.0284 38.27 16.5908 37.3119C17.2462 36.1918 16.7648 34.9907 15.7972 34.2829L15.802 34.2876Z" fill="#FFC736"/>
<path d="M10.3444 55.2695C9.16952 55.8677 8.45932 57.1213 8.09707 58.3892C6.74817 63.1103 9.67238 68.3772 14.0432 70.6151C16.3954 71.8186 19.1814 72.3572 21.038 74.24" fill="#FF76B8"/>
<path d="M9.22886 53.3583C4.37662 56.1705 4.93907 63.2749 7.50818 67.4193C8.7966 69.5242 10.6142 71.2548 12.7799 72.4383C14.951 73.5942 17.6583 74.0518 19.4743 75.7963C21.5287 77.772 24.6626 74.6452 22.6035 72.6671C19.572 69.7525 14.9963 69.5689 12.1864 66.3588C11.0348 65.051 10.2866 63.4377 10.032 61.7138C9.83897 60.2291 10.032 58.0103 11.4619 57.1857C13.9262 55.7558 11.7003 51.9426 9.22886 53.3726V53.3583Z" fill="#FFC736"/>
<path d="M15.6476 73.2725C14.8731 75.291 14.1009 77.5623 14.9517 79.5475C15.3306 80.434 16.0027 81.1609 16.6962 81.833C18.4227 83.5035 20.3628 84.938 22.466 86.099" fill="#FF76B8"/>
<path d="M13.5147 72.6834C12.3565 75.7387 11.6868 79.0728 13.7959 81.8874C15.7144 84.4446 18.5886 86.456 21.3484 88.0075C23.8341 89.4041 26.0695 85.5814 23.5814 84.1943C21.4241 83.0187 19.4572 81.5234 17.7473 79.7592C16.1029 78.0194 17.0323 75.834 17.7807 73.8678C18.2049 72.7501 17.304 71.4417 16.234 71.1462C14.9899 70.8054 13.9365 71.5704 13.5123 72.6929L13.5147 72.6834Z" fill="#FFC736"/>
<path d="M30.0847 91.3273C30.2301 79.3206 23.8144 68.0837 23.1495 56.0937C22.6828 47.0439 25.5012 38.1302 31.0856 30.9937" fill="#FF76B8"/>
<path d="M32.2966 91.3277C32.3443 82.9435 29.4629 75.0289 27.3347 67.0189C25.2923 59.3401 24.4963 51.6924 26.8057 43.9731C28.0302 39.8373 30.0108 35.9643 32.6469 32.5504C33.381 31.5971 33.5645 30.3387 32.6469 29.4212C31.8819 28.6562 30.2637 28.4679 29.5178 29.4212C24.3986 35.9332 21.4036 43.8607 20.9382 52.1309C20.4758 60.7391 23.3476 68.9421 25.5902 77.1213C26.8652 81.771 27.9019 86.4731 27.8757 91.3182C27.859 94.178 32.2847 94.178 32.3014 91.3182L32.2966 91.3277Z" fill="#FFC736"/>
<path d="M38.8906 23.3769C45.025 17.5571 54.2672 16.8707 62.7228 16.5037C65.0536 16.4036 67.444 16.3083 69.6604 17.0399C71.3096 17.5833 72.7776 18.5556 74.1885 19.5542C77.6466 21.9851 80.9711 24.64 84.7033 26.6252C88.4354 28.6104 92.6871 29.9045 96.8791 29.354" fill="#FF76B8"/>
<path d="M40.4554 24.9427C45.7938 19.9809 53.5464 19.1968 60.4935 18.8226C62.5383 18.713 64.6165 18.5462 66.6613 18.6987C68.7061 18.8512 70.3982 19.6687 72.0783 20.784C75.6937 23.1815 79.0278 25.9842 82.8195 28.1172C87.0664 30.5004 91.9568 32.1448 96.8805 31.5681C98.0721 31.4299 99.0945 30.6506 99.0945 29.3541C99.0945 28.2649 98.0769 27.0018 96.8805 27.1401C87.4954 28.2363 80.8104 20.8841 73.4677 16.4156C69.4806 13.9918 65.1765 14.1444 60.6818 14.3827C56.7661 14.5876 52.8171 14.9261 48.9897 15.8412C44.6689 16.8755 40.6008 18.763 37.3262 21.7993C35.2361 23.744 38.3701 26.8684 40.4554 24.9284V24.9427Z" fill="#FFC736"/>
<path d="M46.4114 59.0227C42.8008 58.9798 39.2212 61.0508 37.6912 64.3706C36.9092 66.0922 36.6545 68.0067 36.959 69.8728C37.2635 71.7389 38.1137 73.4731 39.4023 74.8568C42.1978 77.7953 46.6282 78.8511 50.4581 79.6232C54.6239 80.4597 58.9209 80.9149 62.908 82.464C66.5067 83.863 69.5667 86.3439 72.7054 88.5246C76.1134 90.8911 79.5977 92.6475 83.6802 93.5007C87.7626 94.3539 91.5615 95.3715 95.1911 97.4426C98.6444 99.4135 101.387 101.992 104.057 104.909C105.403 106.384 107.002 107.845 109.016 108.277C111.259 108.753 113.592 108.015 115.527 106.88C117.405 105.779 118.694 103.97 118.654 101.735C118.613 99.4635 117.436 97.3639 116.197 95.5384C114.984 93.7438 112.052 95.4359 113.275 97.2448C114.152 98.5412 115.244 100.105 115.27 101.742C115.296 103.334 113.802 104.101 112.493 104.602C110.906 105.221 109.462 105.195 108.096 104.125C106.867 103.172 105.918 101.871 104.855 100.746C100.034 95.6916 93.8077 92.2005 86.9809 90.7243C85.0315 90.3024 83.0486 89.9902 81.1563 89.3396C79.6282 88.7818 78.1664 88.0569 76.7974 87.178C73.9113 85.3978 71.2827 83.2362 68.3894 81.4583C65.2912 79.566 61.9237 78.3959 58.3799 77.6452C54.7479 76.8849 51.042 76.4536 47.4743 75.4002C44.0544 74.3873 40.2698 72.5594 40.1888 68.4721C40.1197 65.0069 42.9843 62.3354 46.4018 62.3735C48.5801 62.3997 48.5801 59.0155 46.4018 58.9917L46.4114 59.0227Z" fill="#FFC736"/>
<path d="M116.322 97.426C118.725 94.6996 121.847 92.1496 121.179 88.1529C120.881 86.375 120.011 84.7401 119.239 83.1315L116.575 77.5833C115.622 75.6219 112.714 77.345 113.653 79.2897L115.824 83.8178C116.465 85.1524 117.206 86.4799 117.643 87.8979C118.045 89.2063 118.012 90.2811 117.149 91.3774C116.153 92.6524 115.004 93.8273 113.929 95.0404C112.5 96.6681 114.883 99.0704 116.313 97.4236L116.322 97.426Z" fill="#FFC736"/>
<path d="M120.688 85.1313C121.403 83.3415 122.988 82.1547 123.493 80.2171C123.897 78.6244 123.825 76.948 123.286 75.3958C122.75 73.814 121.743 72.4341 120.399 71.4421C119.534 70.8153 118.529 70.465 117.604 69.9407C116.691 69.3917 115.825 68.7675 115.016 68.0746C113.348 66.7138 110.933 69.0922 112.633 70.4578C114.108 71.6846 115.717 72.7408 117.43 73.606C118.636 74.209 119.542 75.0026 120.035 76.2872C120.498 77.443 120.506 78.7311 120.059 79.893C119.399 81.4635 118.076 82.6122 117.437 84.2257C116.636 86.2514 119.906 87.1284 120.7 85.1241L120.688 85.1313Z" fill="#FFC736"/>
<path d="M119.25 72.2614C119.724 70.6055 119.858 68.8708 119.644 67.1617C119.431 65.4526 118.873 63.8044 118.006 62.3162C117.093 60.7862 116.011 59.6828 114.193 59.4016C112.21 59.0965 110.601 58.739 108.95 57.5283C107.189 56.2438 105.499 59.1775 107.243 60.4502C108.462 61.3437 109.843 61.9913 111.309 62.3567C112.041 62.5355 112.784 62.5808 113.526 62.6952C114.267 62.8096 114.51 63.0955 114.898 63.6985C115.617 64.8223 116.087 66.0868 116.276 67.4071C116.465 68.7274 116.37 70.0729 115.997 71.3534C115.404 73.453 118.666 74.3467 119.26 72.2519L119.25 72.2614Z" fill="#FFC736"/>
<path d="M113.848 59.3348C113.438 57.4853 112.854 55.6788 112.103 53.9391C111.467 52.4592 110.769 50.9458 109.334 50.0783C108.126 49.3467 106.713 49.1775 105.328 49.1036C104.022 49.0345 102.647 49.125 101.493 48.4172C99.6344 47.2733 97.9328 50.1999 99.787 51.3391C100.883 52.0135 102.082 52.2661 103.348 52.3853C104.525 52.4949 105.778 52.3662 106.922 52.7023C108.19 53.074 108.612 54.3181 109.091 55.4501C109.733 56.9972 110.233 58.5999 110.583 60.238C111.06 62.3614 114.315 61.463 113.846 59.3395L113.848 59.3348Z" fill="#FFC736"/>
<path d="M106.043 50.0403C105.71 45.9745 103.846 41.9873 99.866 40.3906C98.1331 39.6715 96.196 39.6163 94.4251 40.2357C93.3646 40.6289 92.4923 41.32 91.489 41.811C90.3593 42.3639 89.7802 42.1518 88.8078 41.4464C87.0443 40.1666 85.3522 43.1003 87.1015 44.3682C88.7697 45.5717 90.4952 45.8839 92.4184 45.0831C93.9866 44.4349 95.2783 43.1098 97.0609 43.1766C100.6 43.3219 102.404 46.9039 102.661 50.0283C102.838 52.1732 106.222 52.2018 106.043 50.0283V50.0403Z" fill="#FFC736"/>
<path d="M93.829 41.6416C93.0092 37.5901 87.5969 35.7551 83.9649 36.0172C81.8748 36.1697 80.0278 36.9419 78.1594 37.8356C76.4363 38.6602 74.7633 39.5039 72.7995 39.2989C71.8844 39.1988 71.117 40.1473 71.1074 40.991C71.1074 41.9872 71.8939 42.583 72.7995 42.6831C76.3171 43.0668 79.034 40.7765 82.2108 39.7684C83.7221 39.2858 85.3412 39.2544 86.87 39.6778C88.3 40.0711 90.2447 40.9433 90.5664 42.5377C90.9978 44.6707 94.2604 43.7675 93.829 41.6392V41.6416Z" fill="#FFC736"/>
<path d="M78.7714 39.64C79.8725 33.7106 71.9935 32.7287 68.2209 35.1834C66.2548 36.4703 64.944 38.4198 63.6547 40.3264C62.9826 41.313 62.2915 42.2997 61.393 43.1005C60.4159 43.9727 59.3982 44.4279 58.9716 45.7625C58.3067 47.8407 61.5717 48.732 62.2343 46.661C62.2748 46.5323 62.8896 46.2177 63.0326 46.1105C63.3938 45.8399 63.7376 45.5469 64.0622 45.2334C64.6094 44.6776 65.1145 44.0817 65.5731 43.4508C66.5431 42.1638 67.3391 40.7363 68.4068 39.5256C69.5221 38.2625 70.7304 37.4189 72.4583 37.3188C73.3687 37.2663 75.7948 37.2354 75.5231 38.7487C75.1275 40.8769 78.383 41.7897 78.7857 39.6472L78.7714 39.64Z" fill="#FFC736"/>
<path d="M63.3548 40.7509C59.9444 38.4249 55.4234 40.9464 53.3191 43.8491C52.235 45.3618 51.5617 47.1297 51.3648 48.9802C51.1265 51.0536 51.7438 53.1914 51.0622 55.2052C50.3639 57.2714 53.6289 58.158 54.3248 56.1037C55.3377 53.1127 53.9864 49.8739 55.3805 46.9759C56.3338 45.0026 59.289 42.057 61.6508 43.6704C63.4549 44.9001 65.147 41.9712 63.3572 40.7486L63.3548 40.7509Z" fill="#FFC736"/>
<path d="M52.9975 50.062C50.7668 50.1907 47.9188 50.1002 46.1338 51.6755C43.915 53.6345 43.4455 57.6335 43.2048 60.4028C43.0166 62.5716 46.3984 62.5477 46.5866 60.4028C46.6901 59.2181 46.9023 58.0454 47.2206 56.8995C47.447 56.0821 47.7091 54.6593 48.4598 54.1326C49.5919 53.3366 51.6843 53.5201 52.988 53.4438C55.1519 53.3199 55.1662 49.9357 52.988 50.062H52.9975Z" fill="#FFC736"/>
<path d="M92.1994 42.09C89.3395 36.8183 82.6927 35.8483 77.5044 38.8631C76.9777 36.4155 73.7866 35.386 71.4201 36.2034C69.0535 37.0209 67.3543 39.0633 65.7409 40.9699C65.0593 41.7778 64.2394 42.6381 63.1837 42.6739C62.6308 42.6882 62.1064 42.4641 61.575 42.3188C59.0226 41.6205 56.2104 42.8145 54.4754 44.814C52.7404 46.8135 51.9563 49.4803 51.6942 52.1138C50.6134 52.0533 49.5344 52.2598 48.5524 52.7151C47.5704 53.1705 46.7156 53.8607 46.0636 54.7247C45.4116 55.5887 44.9824 56.6 44.8138 57.6692C44.6453 58.7385 44.7427 59.8328 45.0974 60.8555C42.3758 61.8254 39.4897 63.3864 38.6365 66.1486C37.6379 69.3755 39.9306 72.7739 42.7237 74.6734C48.4434 78.5604 55.9268 78.384 62.4544 80.6552C70.2761 83.3769 76.5154 89.547 84.3443 92.283C88.3767 93.6938 92.7451 94.1609 96.563 96.0771C100.681 98.1433 103.82 101.721 107.624 104.321C109.511 105.61 111.913 106.678 114.023 105.774C116.608 104.659 117.202 101.056 116.108 98.4603C115.87 97.9145 115.586 97.3759 115.533 96.792C115.467 96.0294 115.805 95.2906 116.177 94.6209C117.657 91.9517 119.876 89.0966 118.91 86.201C118.715 85.6171 118.391 85.0237 118.532 84.4255C118.651 83.9226 119.07 83.558 119.444 83.2005C120.86 81.8516 121.932 80.0642 122.092 78.1147C122.252 76.1653 121.377 74.0847 119.671 73.11C119.089 72.7811 118.379 72.5308 118.112 71.9184C117.924 71.4822 118.022 70.9841 118.084 70.5146C118.572 66.8778 116.573 63.0385 113.317 61.3512C112.89 61.1295 112.428 60.9317 112.125 60.5599C111.872 60.1968 111.698 59.7843 111.615 59.3493C110.424 54.9832 107.712 50.4241 103.274 49.559C103.868 47.2449 102.445 44.7759 100.438 43.477C98.4315 42.1782 94.5921 42.2544 92.2089 42.0924" fill="#FFC736"/>
<path d="M92.1994 42.09C89.3395 36.8183 82.6927 35.8483 77.5044 38.8631C76.9777 36.4155 73.7866 35.386 71.4201 36.2034C69.0535 37.0209 67.3543 39.0633 65.7409 40.9699C65.0593 41.7778 64.2394 42.6381 63.1837 42.6739C62.6308 42.6882 62.1064 42.4641 61.575 42.3188C59.0226 41.6205 56.2104 42.8145 54.4754 44.814C52.7404 46.8135 51.9563 49.4803 51.6942 52.1138C50.6134 52.0533 49.5344 52.2598 48.5524 52.7151C47.5704 53.1705 46.7156 53.8607 46.0636 54.7247C45.4116 55.5887 44.9824 56.6 44.8138 57.6692C44.6453 58.7385 44.7427 59.8328 45.0974 60.8555C42.3758 61.8254 39.4897 63.3864 38.6365 66.1486C37.6379 69.3755 39.9306 72.7739 42.7237 74.6734C48.4434 78.5604 55.9268 78.384 62.4544 80.6552C70.2761 83.3769 76.5154 89.547 84.3443 92.283C88.3767 93.6938 92.7451 94.1609 96.563 96.0771C100.681 98.1433 103.82 101.721 107.624 104.321C109.511 105.61 111.913 106.678 114.023 105.774C116.608 104.659 117.202 101.056 116.108 98.4603C115.87 97.9145 115.586 97.3759 115.533 96.792C115.467 96.0294 115.805 95.2906 116.177 94.6209C117.657 91.9517 119.876 89.0966 118.91 86.201C118.715 85.6171 118.391 85.0237 118.532 84.4255C118.651 83.9226 119.07 83.558 119.444 83.2005C120.86 81.8516 121.932 80.0642 122.092 78.1147C122.252 76.1653 121.377 74.0847 119.671 73.11C119.089 72.7811 118.379 72.5308 118.112 71.9184C117.924 71.4822 118.022 70.9841 118.084 70.5146C118.572 66.8778 116.573 63.0385 113.317 61.3512C112.89 61.1295 112.428 60.9317 112.125 60.5599C111.872 60.1968 111.698 59.7843 111.615 59.3493C110.424 54.9832 107.712 50.4241 103.274 49.559C103.868 47.2449 102.445 44.7759 100.438 43.477C98.4315 42.1782 94.5921 42.2544 92.2089 42.0924" stroke="#FFC736" stroke-width="10"/>
<path d="M92.1994 42.09C89.3395 36.8183 82.6927 35.8483 77.5044 38.8631C76.9777 36.4155 73.7866 35.386 71.4201 36.2034C69.0535 37.0209 67.3543 39.0633 65.7409 40.9699C65.0593 41.7778 64.2394 42.6381 63.1837 42.6739C62.6308 42.6882 62.1064 42.4641 61.575 42.3188C59.0226 41.6205 56.2104 42.8145 54.4754 44.814C52.7404 46.8135 51.9563 49.4803 51.6942 52.1138C50.6134 52.0533 49.5344 52.2598 48.5524 52.7151C47.5704 53.1705 46.7156 53.8607 46.0636 54.7247C45.4116 55.5887 44.9824 56.6 44.8138 57.6692C44.6453 58.7385 44.7427 59.8328 45.0974 60.8555C42.3758 61.8254 39.4897 63.3864 38.6365 66.1486C37.6379 69.3755 39.9306 72.7739 42.7237 74.6734C48.4434 78.5604 55.9268 78.384 62.4544 80.6552C70.2761 83.3769 76.5154 89.547 84.3443 92.283C88.3767 93.6938 92.7451 94.1609 96.563 96.0771C100.681 98.1433 103.82 101.721 107.624 104.321C109.511 105.61 111.913 106.678 114.023 105.774C116.608 104.659 117.202 101.056 116.108 98.4603C115.87 97.9145 115.586 97.3759 115.533 96.792C115.467 96.0294 115.805 95.2906 116.177 94.6209C117.657 91.9517 119.876 89.0966 118.91 86.201C118.715 85.6171 118.391 85.0237 118.532 84.4255C118.651 83.9226 119.07 83.558 119.444 83.2005C120.86 81.8516 121.932 80.0642 122.092 78.1147C122.252 76.1653 121.377 74.0847 119.671 73.11C119.089 72.7811 118.379 72.5308 118.112 71.9184C117.924 71.4822 118.022 70.9841 118.084 70.5146C118.572 66.8778 116.573 63.0385 113.317 61.3512C112.89 61.1295 112.428 60.9317 112.125 60.5599C111.872 60.1968 111.698 59.7843 111.615 59.3493C110.424 54.9832 107.712 50.4241 103.274 49.559C103.868 47.2449 102.445 44.7759 100.438 43.477C98.4315 42.1782 94.5921 42.2544 92.2089 42.0924" stroke="#FF76B8" stroke-width="4.68"/>
<path d="M43.666 67.3616C52.0645 63.6604 57.8486 55.6385 65.9777 51.3797C72.1245 48.1894 79.2169 47.327 85.9491 48.9512" stroke="#FF76B8" stroke-width="6.24" stroke-miterlimit="10"/>
<path d="M93.7227 51.9683C99.7141 54.392 103.117 60.6027 106.049 66.3629C106.857 67.9525 107.679 69.585 107.874 71.3677C108.02 72.6856 107.805 74.0154 107.562 75.319C106.966 78.4935 106.173 81.6489 105.972 84.8734C105.772 88.0979 106.211 91.4654 107.929 94.2061" stroke="#FF76B8" stroke-width="6.24" stroke-miterlimit="10"/>
</svg>
