<svg width="681" height="681" viewBox="0 0 681 681" fill="none" xmlns="http://www.w3.org/2000/svg">
<path d="M168.16 467.18C164.498 474.509 163.056 482.749 164.012 490.886C164.967 499.023 168.279 506.704 173.539 512.986C178.8 519.267 185.781 523.875 193.624 526.244C201.468 528.613 209.832 528.639 217.69 526.32C228.33 523.18 237.31 515.97 245.05 508.03C270.22 482.2 285.22 447.4 312.31 423.59C338.58 400.51 374.31 389.48 398.16 363.87C406.5 354.87 413.05 344.44 420.58 334.78C443.073 306.009 473.721 284.691 508.52 273.61C520.73 269.75 534.52 266.43 541.7 255.84C546.24 249.18 547.27 240.73 547.13 232.67C547.03 226.85 546.3 220.79 543.13 215.88C535.07 203.24 516.58 204.32 501.81 206.88" fill="#FF76B8"/>
<path d="M160.139 462.49C150.709 482.31 153.679 507.3 170.009 522.77C177.928 530.176 187.934 534.964 198.669 536.485C209.403 538.005 220.346 536.185 230.009 531.27C250.209 521.09 264.569 500.47 277.179 482.42C289.489 464.8 301.039 446.42 317.029 431.77C332.779 417.37 352.329 408.02 370.399 396.99C379.693 391.459 388.498 385.146 396.719 378.12C405.639 370.32 412.779 360.99 419.719 351.43C432.439 333.87 446.719 318.02 464.579 305.57C473.335 299.473 482.611 294.159 492.299 289.69C501.919 285.25 512.009 282.47 521.999 279.06C532.749 275.39 543.209 270.26 549.679 260.52C556.859 249.71 557.679 234.68 555.359 222.24C553.089 210.12 544.359 201.09 532.579 197.76C521.779 194.7 510.219 196.1 499.349 197.97C494.399 198.82 491.629 204.9 492.859 209.39C494.299 214.62 499.319 216.73 504.279 215.88C511.619 214.62 519.699 213.59 527.009 215.51C534.819 217.56 537.429 223.32 537.759 231.08C538.119 239.52 537.329 248.67 530.459 254.46C524.459 259.53 516.079 261.53 508.739 263.8C470.659 275.59 436.879 298.44 412.519 330.09C406.249 338.24 400.649 346.94 393.889 354.7C387.538 361.89 380.308 368.254 372.369 373.64C356.369 384.64 338.819 393.15 322.729 404.01C305.839 415.41 292.319 429.54 280.209 445.85C268.629 461.45 258.599 478.24 246.029 493.09C233.029 508.49 215.599 524.43 194.029 516.4C176.539 509.9 168.139 488.72 176.159 471.86C178.309 467.33 177.409 461.86 172.829 459.15C168.829 456.78 162.289 457.93 160.119 462.48L160.139 462.49Z" fill="#2B2C2B"/>
<path d="M501.95 204.62L492.63 183.79C490.75 179.6 488.82 175.32 485.63 171.97C477.7 163.5 464.63 163.15 453.01 163.39L413.01 164.21" fill="#FF76B8"/>
<path d="M510 199.93C505.79 190.52 502.25 180.16 496.81 171.38C494.278 167.329 490.944 163.839 487.012 161.125C483.081 158.411 478.635 156.531 473.95 155.6C464.88 153.66 455.62 154.04 446.41 154.23L413.05 154.92C401.11 155.17 401.05 173.74 413.05 173.49L441.65 172.9C449.87 172.73 458.46 171.9 466.65 173.07C473.65 174.07 478.65 176.65 482.05 183C486.55 191.46 490.05 200.55 493.97 209.29C495.97 213.87 502.68 214.96 506.68 212.62C511.39 209.86 512.07 204.51 510.01 199.91L510 199.93Z" fill="#2B2C2B"/>
<path d="M453.2 158.73C447.67 153.48 445.2 145.81 440.78 139.62C430.24 124.94 407.43 120.98 392.56 131.25C389.31 133.5 386.46 136.25 383.35 138.72C377.54 143.27 370.88 146.58 364.27 149.85" fill="#FF76B8"/>
<path d="M459.76 152.16C452.84 145.16 450.45 134.95 442.97 128.16C435.386 121.387 425.803 117.269 415.67 116.43C406.121 115.482 396.528 117.744 388.41 122.86C383.72 125.93 379.84 130.05 375.2 133.18C370.185 136.406 364.96 139.292 359.56 141.82C348.85 147.13 358.25 163.16 368.93 157.82C378.071 153.421 386.639 147.916 394.44 141.43C399.67 136.866 406.457 134.493 413.392 134.802C420.327 135.111 426.876 138.079 431.68 143.09C437.68 149.73 440.18 158.73 446.6 165.25C455 173.77 468.14 160.64 459.73 152.12L459.76 152.16Z" fill="#2B2C2B"/>
<path d="M385.609 136.64C378.605 130.586 370.295 126.236 361.329 123.928C352.364 121.621 342.986 121.42 333.929 123.34C332.075 123.68 330.287 124.311 328.629 125.21C324.929 127.4 322.959 131.55 320.739 135.21C315.681 143.578 308.471 150.437 299.859 155.07" fill="#FF76B8"/>
<path d="M392.18 130.07C377 117.07 357.27 110.72 337.37 113.39C332.75 114.01 328.04 114.83 323.94 117.19C319.62 119.67 316.67 123.87 314.18 128.05C309.33 136.17 303.5 142.45 295.18 147.05C284.73 152.86 294.09 168.91 304.55 163.05C311.898 159.015 318.383 153.58 323.64 147.05C326.42 143.55 328.53 139.8 330.97 136.05C332.79 133.28 333.89 132.69 337.18 132.05C351.71 129.05 367.83 133.53 379.05 143.12C382.86 146.38 388.44 146.86 392.18 143.12C395.52 139.78 396.01 133.26 392.18 129.99V130.07Z" fill="#2B2C2B"/>
<path d="M313.221 136.26C301.496 133.676 289.505 132.498 277.501 132.75C274.028 132.669 270.567 133.173 267.261 134.24C252.011 139.93 251.261 163.04 237.371 171.57" fill="#FF76B8"/>
<path d="M315.69 127.31C304.697 124.907 293.491 123.61 282.24 123.44C272.24 123.34 262.79 124.3 254.97 131.09C249.69 135.67 246.34 142.09 243.24 148.24C240.48 153.7 237.7 160.24 232.69 163.55C222.69 170.06 232.02 186.15 242.06 179.55C248.06 175.63 252.43 170.23 255.92 164.02C259.01 158.52 261.29 152.35 265.12 147.29C268.95 142.23 274.26 141.94 281.3 141.97C291.205 142.017 301.078 143.093 310.76 145.18C322.42 147.68 327.4 129.78 315.7 127.27L315.69 127.31Z" fill="#2B2C2B"/>
<path d="M246.639 153.38C234.139 148.67 219.919 147.38 207.469 152.2C195.019 157.02 184.879 168.8 184.239 182.14C183.979 187.44 185.159 192.69 185.499 197.99C185.839 203.29 185.179 208.99 181.829 213.09C179.689 215.72 176.659 217.43 173.699 219.09" fill="#FF76B8"/>
<path d="M249.11 144.43C227.85 136.72 201.46 138.24 185.78 156.32C178.89 164.26 174.67 174.17 174.95 184.79C175.1 190.51 176.73 196.27 176.24 202.01C175.82 207.01 173.14 208.75 169.01 211.07C158.6 216.94 167.95 232.99 178.38 227.07C188.38 221.44 194.2 213.69 194.81 201.97C195.29 192.76 191.31 183.37 195.58 174.59C204.58 156.17 227.44 156.22 244.17 162.29C248.88 164 254.34 160.37 255.59 155.8C257.01 150.64 253.84 146.09 249.1 144.38L249.11 144.43Z" fill="#2B2C2B"/>
<path d="M179.27 196C173.55 194.25 167.35 196.34 162.15 199.29C155.252 203.272 149.327 208.738 144.805 215.294C140.282 221.849 137.274 229.328 136 237.19C133.23 255.1 139.35 275.19 129.6 290.47" fill="#FF76B8"/>
<path d="M181.74 187.08C158.84 181.48 137.9 204.08 130.25 223.3C126.25 233.41 125.8 244.3 126.02 255.02C126.23 265.43 127.21 276.51 121.63 285.78C115.45 296.04 131.5 305.39 137.63 295.15C142.89 286.42 144.52 276.49 144.7 266.43C144.86 257.1 143.57 247.43 145.22 238.19C146.608 230.198 150.164 222.74 155.5 216.63C160.22 211.31 169 203.09 176.77 204.99C188.38 207.83 193.33 189.92 181.71 187.08H181.74Z" fill="#2B2C2B"/>
<path d="M130.519 264.68C128.892 263.362 126.996 262.415 124.965 261.905C122.934 261.395 120.816 261.336 118.759 261.73C111.099 263.25 106.119 270.63 102.959 277.73C101.221 281.432 99.9991 285.355 99.3291 289.39C97.6491 301.18 103.119 312.76 109.219 322.99C115.319 333.22 122.379 343.35 124.389 355.09C124.909 358.09 125.329 361.65 127.939 363.3" fill="#FF76B8"/>
<path d="M135.21 256.66C123.77 248.32 109.16 252.66 100.94 263.14C92.7198 273.62 88.3798 287.48 90.3598 300.68C92.3398 313.88 99.8198 325.2 106.54 336.49C109.6 341.64 112.6 346.87 114.29 352.65C116.08 358.78 116.02 365.48 121.38 369.9C125.25 373.09 130.73 373.69 134.51 369.9C137.79 366.62 138.4 359.97 134.51 356.77C132.87 355.42 132.71 349.35 131.95 346.91C130.388 342.115 128.379 337.478 125.95 333.06C121.28 324.34 115.12 316.32 111.33 307.14C107.77 298.52 107.45 290.35 111.27 281.77C113.93 275.77 118.7 267.49 125.81 272.68C129.87 275.68 136.16 273.37 138.52 269.35C141.27 264.65 139.25 259.61 135.19 256.64L135.21 256.66Z" fill="#2B2C2B"/>
<path d="M112.309 344.7C107.379 347.21 104.399 352.47 102.879 357.79C97.219 377.6 109.489 399.7 127.829 409.09C137.699 414.14 149.389 416.4 157.179 424.3" fill="#FF76B8"/>
<path d="M107.629 336.68C87.269 348.48 89.629 378.29 100.409 395.68C105.815 404.512 113.442 411.774 122.529 416.74C131.639 421.59 142.999 423.51 150.619 430.83C159.239 439.12 172.389 426 163.749 417.7C151.029 405.47 131.829 404.7 120.039 391.23C115.207 385.742 112.067 378.973 110.999 371.74C110.189 365.51 110.999 356.2 116.999 352.74C127.339 346.74 117.999 330.74 107.629 336.74V336.68Z" fill="#2B2C2B"/>
<path d="M134.559 420.24C131.309 428.71 128.069 438.24 131.639 446.57C133.229 450.29 136.049 453.34 138.959 456.16C146.204 463.169 154.344 469.188 163.169 474.06" fill="#FF76B8"/>
<path d="M125.61 417.77C120.75 430.59 117.94 444.58 126.79 456.39C134.84 467.12 146.9 475.56 158.48 482.07C168.91 487.93 178.29 471.89 167.85 466.07C158.798 461.137 150.545 454.863 143.37 447.46C136.47 440.16 140.37 430.99 143.51 422.74C145.29 418.05 141.51 412.56 137.02 411.32C131.8 409.89 127.38 413.1 125.6 417.81L125.61 417.77Z" fill="#2B2C2B"/>
<path d="M263.65 360.45C248.5 360.27 233.48 368.96 227.06 382.89C223.779 390.113 222.71 398.147 223.987 405.977C225.265 413.807 228.832 421.084 234.24 426.89C245.97 439.22 264.56 443.65 280.63 446.89C298.11 450.4 316.14 452.31 332.87 458.81C347.97 464.68 360.81 475.09 373.98 484.24C388.28 494.17 402.9 501.54 420.03 505.12C437.16 508.7 453.1 512.97 468.33 521.66C482.82 529.93 494.33 540.75 505.53 552.99C511.18 559.18 517.89 565.31 526.34 567.12C535.75 569.12 545.54 566.02 553.66 561.26C561.54 556.64 566.95 549.05 566.78 539.67C566.61 530.14 561.67 521.33 556.47 513.67C551.38 506.14 539.08 513.24 544.21 520.83C547.89 526.27 552.47 532.83 552.58 539.7C552.69 546.38 546.42 549.6 540.93 551.7C534.27 554.3 528.21 554.19 522.48 549.7C517.32 545.7 513.34 540.24 508.88 535.52C488.652 514.313 462.525 499.664 433.88 493.47C425.7 491.7 417.38 490.39 409.44 487.66C403.028 485.319 396.894 482.278 391.15 478.59C379.04 471.12 368.01 462.05 355.87 454.59C342.87 446.65 328.74 441.74 313.87 438.59C298.63 435.4 283.08 433.59 268.11 429.17C253.76 424.92 237.88 417.25 237.54 400.1C237.25 385.56 249.27 374.35 263.61 374.51C272.75 374.62 272.75 360.42 263.61 360.32L263.65 360.45Z" fill="#2B2C2B"/>
<path d="M557.001 521.59C567.081 510.15 580.181 499.45 577.381 482.68C576.131 475.22 572.481 468.36 569.241 461.61L558.061 438.33C554.061 430.1 541.861 437.33 545.801 445.49L554.91 464.49C557.6 470.09 560.711 475.66 562.541 481.61C564.231 487.1 564.09 491.61 560.47 496.21C556.29 501.56 551.471 506.49 546.961 511.58C540.961 518.41 550.961 528.49 556.961 521.58L557.001 521.59Z" fill="#2B2C2B"/>
<path d="M575.309 470C578.309 462.49 584.959 457.51 587.079 449.38C588.776 442.697 588.474 435.662 586.209 429.15C583.962 422.512 579.736 416.723 574.099 412.56C570.469 409.93 566.249 408.46 562.369 406.26C558.538 403.957 554.905 401.337 551.509 398.43C544.509 392.72 534.379 402.7 541.509 408.43C547.7 413.578 554.453 418.009 561.639 421.64C566.699 424.17 570.499 427.5 572.569 432.89C574.51 437.74 574.546 443.145 572.669 448.02C569.899 454.61 564.349 459.43 561.669 466.2C558.309 474.7 572.029 478.38 575.359 469.97L575.309 470Z" fill="#2B2C2B"/>
<path d="M569.279 416C571.268 409.052 571.83 401.773 570.933 394.601C570.036 387.43 567.698 380.514 564.059 374.27C560.229 367.85 555.689 363.22 548.059 362.04C539.739 360.76 532.989 359.26 526.059 354.18C518.669 348.79 511.579 361.1 518.899 366.44C524.012 370.189 529.807 372.906 535.959 374.44C539.029 375.19 542.149 375.38 545.259 375.86C548.369 376.34 549.389 377.54 551.019 380.07C554.033 384.785 556.004 390.091 556.799 395.631C557.595 401.171 557.195 406.817 555.629 412.19C553.139 421 566.829 424.75 569.319 415.96L569.279 416Z" fill="#2B2C2B"/>
<path d="M546.609 361.76C544.888 354 542.437 346.419 539.289 339.12C536.619 332.91 533.689 326.56 527.669 322.92C522.599 319.85 516.669 319.14 510.859 318.83C505.379 318.54 499.609 318.92 494.769 315.95C486.969 311.15 479.829 323.43 487.609 328.21C492.209 331.04 497.239 332.1 502.549 332.6C507.489 333.06 512.749 332.52 517.549 333.93C522.869 335.49 524.64 340.71 526.65 345.46C529.344 351.952 531.44 358.676 532.909 365.55C534.909 374.46 548.569 370.69 546.599 361.78L546.609 361.76Z" fill="#2B2C2B"/>
<path d="M513.87 322.76C512.47 305.7 504.65 288.97 487.95 282.27C480.679 279.252 472.551 279.021 465.12 281.62C460.67 283.27 457.01 286.17 452.8 288.23C448.06 290.55 445.63 289.66 441.55 286.7C434.15 281.33 427.05 293.64 434.39 298.96C441.39 304.01 448.63 305.32 456.7 301.96C463.28 299.24 468.7 293.68 476.18 293.96C491.03 294.57 498.6 309.6 499.68 322.71C500.42 331.71 514.62 331.83 513.87 322.71V322.76Z" fill="#2B2C2B"/>
<path d="M462.619 287.52C459.179 270.52 436.469 262.82 421.229 263.92C412.459 264.56 404.709 267.8 396.869 271.55C389.639 275.01 382.619 278.55 374.379 277.69C370.539 277.27 367.319 281.25 367.279 284.79C367.279 288.97 370.579 291.47 374.379 291.89C389.139 293.5 400.539 283.89 413.869 279.66C420.21 277.635 427.004 277.503 433.419 279.28C439.419 280.93 447.579 284.59 448.929 291.28C450.739 300.23 464.429 296.44 462.619 287.51V287.52Z" fill="#2B2C2B"/>
<path d="M399.429 279.12C404.049 254.24 370.989 250.12 355.159 260.42C346.909 265.82 341.409 274 335.999 282C333.179 286.14 330.279 290.28 326.509 293.64C322.409 297.3 318.139 299.21 316.349 304.81C313.559 313.53 327.259 317.27 330.039 308.58C330.209 308.04 332.789 306.72 333.389 306.27C334.905 305.134 336.347 303.905 337.709 302.59C340.005 300.258 342.125 297.757 344.049 295.11C348.119 289.71 351.459 283.72 355.939 278.64C360.619 273.34 365.689 269.8 372.939 269.38C376.759 269.16 386.939 269.03 385.799 275.38C384.139 284.31 397.799 288.14 399.489 279.15L399.429 279.12Z" fill="#2B2C2B"/>
<path d="M334.74 283.78C320.43 274.02 301.46 284.6 292.63 296.78C288.082 303.127 285.256 310.545 284.43 318.31C283.43 327.01 286.02 335.98 283.16 344.43C280.23 353.1 293.93 356.82 296.85 348.2C301.1 335.65 295.43 322.06 301.28 309.9C305.28 301.62 317.68 289.26 327.59 296.03C335.16 301.19 342.26 288.9 334.75 283.77L334.74 283.78Z" fill="#2B2C2B"/>
<path d="M291.29 322.85C281.93 323.39 269.98 323.01 262.49 329.62C253.18 337.84 251.21 354.62 250.2 366.24C249.41 375.34 263.6 375.24 264.39 366.24C264.824 361.269 265.714 356.348 267.05 351.54C268 348.11 269.1 342.14 272.25 339.93C277 336.59 285.78 337.36 291.25 337.04C300.33 336.52 300.39 322.32 291.25 322.85H291.29Z" fill="#2B2C2B"/>
<path d="M455.78 289.4C443.78 267.28 415.89 263.21 394.12 275.86C391.91 265.59 378.52 261.27 368.59 264.7C358.66 268.13 351.53 276.7 344.76 284.7C341.9 288.09 338.46 291.7 334.03 291.85C331.71 291.91 329.51 290.97 327.28 290.36C316.57 287.43 304.77 292.44 297.49 300.83C290.21 309.22 286.92 320.41 285.82 331.46C281.285 331.206 276.758 332.072 272.637 333.983C268.517 335.894 264.93 338.79 262.194 342.415C259.458 346.041 257.657 350.284 256.95 354.771C256.243 359.257 256.652 363.849 258.14 368.14C246.72 372.21 234.61 378.76 231.03 390.35C226.84 403.89 236.46 418.15 248.18 426.12C272.18 442.43 303.58 441.69 330.97 451.22C363.79 462.64 389.97 488.53 422.82 500.01C439.74 505.93 458.07 507.89 474.09 515.93C491.37 524.6 504.54 539.61 520.5 550.52C528.42 555.93 538.5 560.41 547.35 556.62C558.2 551.94 560.69 536.82 556.1 525.93C555.1 523.64 553.91 521.38 553.69 518.93C553.41 515.73 554.83 512.63 556.39 509.82C562.6 498.62 571.91 486.64 567.86 474.49C567.04 472.04 565.68 469.55 566.27 467.04C566.77 464.93 568.53 463.4 570.1 461.9C576.04 456.24 580.54 448.74 581.21 440.56C581.88 432.38 578.21 423.65 571.05 419.56C568.61 418.18 565.63 417.13 564.51 414.56C563.72 412.73 564.13 410.64 564.39 408.67C566.44 393.41 558.05 377.3 544.39 370.22C542.6 369.29 540.66 368.46 539.39 366.9C538.327 365.376 537.597 363.645 537.25 361.82C532.25 343.5 520.87 324.37 502.25 320.74C504.74 311.03 498.77 300.67 490.35 295.22C481.93 289.77 465.82 290.09 455.82 289.41" fill="#2B2C2B"/>
<path d="M455.78 289.4C443.78 267.28 415.89 263.21 394.12 275.86C391.91 265.59 378.52 261.27 368.59 264.7C358.66 268.13 351.53 276.7 344.76 284.7C341.9 288.09 338.46 291.7 334.03 291.85C331.71 291.91 329.51 290.97 327.28 290.36C316.57 287.43 304.77 292.44 297.49 300.83C290.21 309.22 286.92 320.41 285.82 331.46C281.285 331.206 276.758 332.072 272.637 333.983C268.517 335.894 264.93 338.79 262.194 342.415C259.458 346.041 257.657 350.284 256.95 354.771C256.243 359.257 256.652 363.849 258.14 368.14C246.72 372.21 234.61 378.76 231.03 390.35C226.84 403.89 236.46 418.15 248.18 426.12C272.18 442.43 303.58 441.69 330.97 451.22C363.79 462.64 389.97 488.53 422.82 500.01C439.74 505.93 458.07 507.89 474.09 515.93C491.37 524.6 504.54 539.61 520.5 550.52C528.42 555.93 538.5 560.41 547.35 556.62C558.2 551.94 560.69 536.82 556.1 525.93C555.1 523.64 553.91 521.38 553.69 518.93C553.41 515.73 554.83 512.63 556.39 509.82C562.6 498.62 571.91 486.64 567.86 474.49C567.04 472.04 565.68 469.55 566.27 467.04C566.77 464.93 568.53 463.4 570.1 461.9C576.04 456.24 580.54 448.74 581.21 440.56C581.88 432.38 578.21 423.65 571.05 419.56C568.61 418.18 565.63 417.13 564.51 414.56C563.72 412.73 564.13 410.64 564.39 408.67C566.44 393.41 558.05 377.3 544.39 370.22C542.6 369.29 540.66 368.46 539.39 366.9C538.327 365.376 537.597 363.645 537.25 361.82C532.25 343.5 520.87 324.37 502.25 320.74C504.74 311.03 498.77 300.67 490.35 295.22C481.93 289.77 465.82 290.09 455.82 289.41" stroke="#2B2C2B" stroke-width="31.2"/>
<path d="M455.78 289.4C443.78 267.28 415.89 263.21 394.12 275.86C391.91 265.59 378.52 261.27 368.59 264.7C358.66 268.13 351.53 276.7 344.76 284.7C341.9 288.09 338.46 291.7 334.03 291.85C331.71 291.91 329.51 290.97 327.28 290.36C316.57 287.43 304.77 292.44 297.49 300.83C290.21 309.22 286.92 320.41 285.82 331.46C281.285 331.206 276.758 332.072 272.637 333.983C268.517 335.894 264.93 338.79 262.194 342.415C259.458 346.041 257.657 350.284 256.95 354.771C256.243 359.257 256.652 363.849 258.14 368.14C246.72 372.21 234.61 378.76 231.03 390.35C226.84 403.89 236.46 418.15 248.18 426.12C272.18 442.43 303.58 441.69 330.97 451.22C363.79 462.64 389.97 488.53 422.82 500.01C439.74 505.93 458.07 507.89 474.09 515.93C491.37 524.6 504.54 539.61 520.5 550.52C528.42 555.93 538.5 560.41 547.35 556.62C558.2 551.94 560.69 536.82 556.1 525.93C555.1 523.64 553.91 521.38 553.69 518.93C553.41 515.73 554.83 512.63 556.39 509.82C562.6 498.62 571.91 486.64 567.86 474.49C567.04 472.04 565.68 469.55 566.27 467.04C566.77 464.93 568.53 463.4 570.1 461.9C576.04 456.24 580.54 448.74 581.21 440.56C581.88 432.38 578.21 423.65 571.05 419.56C568.61 418.18 565.63 417.13 564.51 414.56C563.72 412.73 564.13 410.64 564.39 408.67C566.44 393.41 558.05 377.3 544.39 370.22C542.6 369.29 540.66 368.46 539.39 366.9C538.327 365.376 537.597 363.645 537.25 361.82C532.25 343.5 520.87 324.37 502.25 320.74C504.74 311.03 498.77 300.67 490.35 295.22C481.93 289.77 465.82 290.09 455.82 289.41" stroke="#FF76B8" stroke-width="4.68"/>
<path d="M252.129 395.44C287.369 379.91 311.639 346.25 345.749 328.38C371.541 314.993 401.3 311.375 429.549 318.19" stroke="#FFC736" stroke-width="6.24" stroke-miterlimit="10"/>
<path d="M462.17 330.85C487.31 341.02 501.59 367.08 513.89 391.25C517.28 397.92 520.73 404.77 521.55 412.25C522.16 417.78 521.26 423.36 520.24 428.83C517.74 442.15 514.41 455.39 513.57 468.92C512.73 482.45 514.57 496.58 521.78 508.08" stroke="#FFC736" stroke-width="6.24" stroke-miterlimit="10"/>
</svg>
