<svg width="681" height="681" viewBox="0 0 681 681" fill="none" xmlns="http://www.w3.org/2000/svg">
<path d="M569 525.89C440 524.67 310.88 522.73 181.8 523C149.487 523.06 117.177 523.323 84.8701 523.79C80.0901 523.86 75.4501 524.46 70.6901 524.85C68.6101 525.02 66.0101 525.48 63.9601 524.99C61.7301 524.47 61.4201 523.05 60.9601 520.9C58.9601 512.05 60.3001 501.9 60.5001 492.9C61.5901 443.32 78.4001 394.34 107.33 354.12C136.93 312.95 179.33 282.49 228.16 268.62C276.141 255.082 327.148 256.83 374.09 273.62C425.2 292.1 465.25 329.68 494.49 374.78C510.4 399.32 523.2 425.78 534.26 452.78C540.26 467.37 545.71 482.14 550.97 497C553.39 503.833 555.773 510.68 558.12 517.54C558.99 520.07 559.55 524.04 561.12 526.19C562.44 527.98 565.39 528.82 567.43 529.53C587.53 536.53 610.03 522.72 619.65 505.28C632.65 481.65 628.84 452.56 626.22 426.92C621.12 377.11 612.3 325.4 585.79 282.03C579.439 271.637 572.07 261.903 563.79 252.97C561.6 250.61 558.07 254.15 560.25 256.51C596.6 295.72 610.88 348.92 618.1 400.61C619.91 413.61 621.3 426.61 622.46 439.61C623.74 454.01 624.78 468.8 622.07 483.1C619.69 495.69 614.39 507.49 604.48 515.88C595.54 523.45 583 528.41 571.26 525.42C567.82 524.54 565.84 523.95 564.49 520.65C563.07 517.17 562.03 513.47 560.8 509.92C558.133 502.173 555.407 494.443 552.62 486.73C547.47 472.51 542.07 458.38 536.2 444.44C525 417.81 512 391.92 496 367.94C467.16 324.81 428.49 289.06 379.62 270.27C333.62 252.57 281.89 249.86 234.09 261.78C186.327 273.762 143.71 300.846 112.58 339C81.6573 376.969 62.3173 423.036 56.8701 471.7C55.6401 482.8 55.5701 493.88 55.2501 505.02C55.0701 511.34 53.6301 523.08 58.8501 528.02C61.2801 530.33 65.1801 530.1 68.2801 529.96C73.1801 529.73 78.0101 528.86 82.9101 528.77C98.7101 528.46 114.51 528.34 130.3 528.2C260.63 527.11 390.99 529.2 521.3 530.42L569.03 530.87C572.25 530.87 572.25 525.87 569.03 525.87L569 525.89Z" fill="#FFC837"/>
<path d="M528.37 233.58C538.37 243.71 548.82 253.37 558.95 263.36C568.07 272.36 577.5 281.19 583.35 292.73C588.46 302.82 591.6 313.81 594.97 324.56C599.12 337.79 603.42 350.93 606.97 364.35C614.24 392.107 619.188 420.422 621.76 449C623.41 467.47 626.12 494.65 609.3 507.56C599.3 515.23 585.36 514.35 573.46 514.45L528.61 514.8L437.92 515.51L258.52 517L55.21 518.6L61.46 524.85C62.3022 488.02 69.2116 451.582 81.91 417C88.2595 399.706 96.0606 382.979 105.23 367C108.4 361.48 112.57 355.83 113.16 349.29C113.81 342.05 110.56 334.9 109.86 327.75C108.95 318.44 109.57 307.75 114.24 299.43C118.09 292.54 126.32 287.66 133.49 292.94C137.67 296.02 144.73 290.82 142.67 285.88C139.13 277.42 140.95 267.08 148.61 261.42C156.47 255.62 167.84 257.62 174.33 264.42C178.22 268.48 184.79 265.25 185 260C185.86 238.51 186.86 212.38 206 198.49C214.39 192.4 224 190.75 233.68 194.63C243.36 198.51 252.24 204.72 263.25 203.89C273.61 203.11 282.25 197.18 290.99 192.17C301.48 186.17 312.49 184.84 324.34 183.68C336.86 182.45 349.45 180.75 362.05 180.68C374.65 180.61 385.8 183.81 397.57 188.23C408.45 192.32 419.39 195.55 431.06 193.23C441.4 191.23 450.12 184.75 453.65 174.71L444.47 178.45C447.399 179.863 449.941 181.966 451.876 184.579C453.811 187.192 455.083 190.237 455.58 193.45C456.58 198.59 462.72 198.79 466.03 196.21C468.863 194.043 472.283 192.779 475.844 192.581C479.405 192.383 482.944 193.261 486 195.1C492.58 199.26 493.8 205.35 494.83 212.47C495.94 220.15 500.58 225.64 508.65 226.28C511.89 226.54 515.36 225.62 518.53 226.34C522.53 227.25 525.63 230.78 528.4 233.58C534.07 239.3 542.91 230.47 537.24 224.74C530.08 217.51 523.24 213.39 512.91 213.74C511.47 213.79 508.85 214.31 507.8 213.15C506.75 211.99 506.98 209.37 506.8 207.99C506.404 203.644 505.15 199.419 503.11 195.56C493.73 178.51 471.94 175.86 457.23 187.35L467.68 190.11C466.775 185.328 464.784 180.816 461.861 176.924C458.938 173.032 455.161 169.863 450.82 167.66C449.988 167.199 449.064 166.929 448.114 166.872C447.165 166.816 446.215 166.972 445.334 167.331C444.453 167.69 443.664 168.242 443.025 168.946C442.386 169.65 441.912 170.489 441.64 171.4C438.77 179.56 428.52 182.04 420.79 181.58C409.61 180.91 399.2 174.99 388.66 171.74C376.33 167.94 363.39 167.74 350.66 168.64C338.29 169.54 325.85 170.73 313.55 172.25C302.391 173.503 291.632 177.138 282 182.91C273.27 188.06 264.77 193.56 254.33 190.22C244.23 186.99 235.88 180.47 224.92 179.85C214.84 179.28 205 183.42 197.19 189.54C175.69 206.38 173.48 234.7 172.47 259.97L183.14 255.55C172.78 244.75 154.73 242.03 142.14 250.7C130.14 259 124.88 275.6 130.56 289.2L139.74 282.14C133.17 277.3 124.41 277.14 117.07 280.3C109.07 283.75 103.81 290.94 100.73 298.91C97.38 307.58 96.47 317.58 97.21 326.79C97.6815 331.681 98.5138 336.531 99.7 341.3C100.31 343.94 101.15 346.7 100.51 349.38C99.76 352.53 97.42 355.54 95.81 358.3C93.2033 362.767 90.6933 367.303 88.28 371.91C83.78 380.5 79.69 389.3 75.93 398.24C59.0198 438.348 49.8812 481.302 49 524.82C49.0207 526.471 49.6859 528.049 50.8535 529.217C52.0212 530.384 53.5988 531.049 55.25 531.07L429.99 528.12L523.67 527.38L571.51 527C584.22 526.9 597.57 527.35 609.39 522C630.68 512.32 635.66 487.53 635.39 466.35C634.94 438 630 409 623.89 381.43C620.21 364.657 615.72 348.087 610.42 331.72C606.26 318.89 602.64 305.81 597.35 293.39C591.69 280.08 583.12 270 573 259.76C561.27 247.87 548.9 236.63 537.17 224.76C531.55 219 522.71 227.85 528.37 233.58Z" fill="#FFC837"/>
<path d="M55.2109 521C203.521 521 354.211 517.43 502.781 517.43C509.571 517.43 518.071 516.9 520.521 510.37C521.981 506.49 520.521 502.16 519.031 498.28C500.611 449.92 479.851 401.81 448.861 360.84C417.871 319.87 375.471 286.19 326.231 275.05C260.541 260.19 190.081 288.2 142.341 337.05C94.6009 385.9 67.5509 452.89 55.2109 521Z" fill="#FFC837"/>
<path d="M562 527C579 536.16 599.34 528.9 612 515.58C627.83 498.89 629.59 474.17 628.4 452.36C627.062 429.228 624.411 406.191 620.46 383.36C616.56 360.43 611.07 337.66 602.53 315.99C593.4 292.81 580.75 271.21 563.77 252.9C561.58 250.54 558.05 254.08 560.23 256.44C589.09 287.56 604.23 327.95 612.68 368.95C616.789 389.656 619.793 410.565 621.68 431.59C623.85 453.83 626.68 478.23 617.06 499.21C608.51 517.89 584.68 533.53 564.53 522.71C561.7 521.19 559.17 525.5 562.01 527.03L562 527Z" fill="#FFC837"/>
<path d="M535.569 449.41C526.839 434.41 521.739 417.65 513.569 402.35C492.869 363.41 465.799 327.17 430.409 300.86C356.209 245.7 247.839 242.56 169.559 291.74C153.699 301.74 135.559 314.16 122.689 327.63C134.689 314.51 140.689 296.47 155.689 288.42C170.689 280.37 187.819 274.37 198.159 260.82C201.569 256.36 204.089 251.23 207.869 247.08C211.649 242.93 217.259 239.78 222.739 241C227.739 242.12 231.279 246.48 235.089 249.95C238.899 253.42 244.559 256.23 249.029 253.66C257.549 248.76 250.759 231.95 259.589 227.66C266.379 224.34 272.589 232.66 278.679 237.11C286.839 243.11 297.909 242.57 308.049 242.71C349.719 243.29 389.439 260.27 425.919 280.43C430.829 283.14 435.919 285.98 441.459 286.55C446.999 287.12 453.339 284.8 455.599 279.67C457.599 275.23 456.149 269.77 458.379 265.46C462.699 257.12 476.839 260.94 480.479 269.6C484.119 278.26 481.019 288.09 478.419 297.11C475.819 306.13 473.969 316.65 479.479 324.26C484.219 330.8 492.979 333.07 498.689 338.78C512.159 352.27 503.689 378.55 517.689 391.44C526.149 399.2 539.369 398.52 550.339 395.16C561.309 391.8 571.829 386.21 583.289 385.62C593.399 385.1 603.919 388.93 610.419 396.69C616.919 404.45 618.699 416.23 613.739 425.05C608.779 433.87 596.859 438.45 587.659 434.2C580.069 430.69 575.769 422.66 569.489 417.13C563.209 411.6 551.559 409.75 547.809 417.22C544.059 424.69 551.809 432.44 558.949 436.46C566.089 440.48 574.889 445.54 574.619 453.75C574.349 461.96 563.719 466.82 555.719 464.38C547.719 461.94 539.779 456.63 535.569 449.41Z" fill="#6ABD45"/>
<path d="M184.751 248.09C186.751 239.85 188.931 230.6 195.621 224.78C199.151 221.72 204.001 219.57 208.741 220.57C212.451 221.35 215.601 223.77 218.741 225.78C224.051 229.18 229.601 231.28 235.941 229.78C242.811 228.13 248.431 223.31 254.081 219.34C267.591 209.86 285.281 208.23 299.311 217.87C305.231 221.94 309.941 227.98 317.371 229.3C322.941 230.3 328.591 228.3 331.191 223.04C334.191 216.95 331.731 209.82 333.981 203.59C336.981 195.38 347.591 192.23 354.261 198.1C362.071 204.98 357.571 213.94 354.781 222.01C352.971 227.24 352.261 233.01 354.721 238.2C356.801 242.56 361.041 245.39 365.971 244.63C371.971 243.72 375.971 238.02 378.541 233.08C381.371 227.73 388.141 215.25 394.841 223.95C399.581 230.11 397.171 238.86 399.701 245.85C404.401 258.85 421.541 260.69 431.591 253.04C446.391 241.77 445.251 221.63 443.391 205.15L440.891 207.65C453.891 207.82 460.771 221.02 466.081 231.02C470.761 239.84 476.281 249.48 485.991 253.46C490.991 255.52 496.511 255.46 501.671 256.98C509.281 259.29 510.881 265.93 510.371 273.04C509.711 282.38 505.901 292.72 511.371 301.42C516.841 310.12 526.891 307.5 535.371 306.07C541.691 305 548.101 306.25 548.571 313.76C548.981 320.41 544.441 325.76 540.751 330.76C535.441 337.98 529.621 349.26 536.811 357.4C544.181 365.73 555.681 360.08 563.811 356.4C568.371 354.32 576.421 351.47 580.811 355.4C583.731 358.01 582.891 362.4 583.211 365.86C583.427 368.728 584.397 371.487 586.021 373.86C592.581 383.28 605.621 382.21 612.081 373.43C613.991 370.83 609.651 368.34 607.761 370.91C603.111 377.24 593.531 377.13 589.571 370.15C586.571 364.83 589.461 358.21 585.481 353.15C580.481 346.72 570.711 348.15 564.071 350.83C559.551 352.62 555.391 355.2 550.601 356.29C541.661 358.29 536.771 351.61 539.231 343.29C542.321 332.9 553.231 326.62 553.521 315.03C553.781 306.1 547.421 300.09 538.571 300.59C533.671 300.87 528.931 302.8 524.011 302.78C517.091 302.78 513.961 297.78 513.461 291.31C512.701 281.38 517.931 271.18 513.901 261.46C509.631 251.15 498.981 252.24 489.961 249.55C476.961 245.68 472.451 231.2 466.121 220.75C460.501 211.47 452.381 202.75 440.811 202.6C440.149 202.603 439.514 202.867 439.046 203.335C438.578 203.804 438.313 204.438 438.311 205.1C440.031 220.32 442.051 243.48 424.861 251.23C418.271 254.23 408.861 252.6 405.141 245.92C401.521 239.43 403.791 231.21 400.791 224.41C398.671 219.59 394.471 215.66 388.911 216.05C383.351 216.44 379.351 221.21 376.671 225.71C373.991 230.21 368.031 244.8 360.671 238.3C355.081 233.3 359.221 224.11 361.261 218.62C363.651 212.22 365.041 205.46 361.461 199.2C360.108 196.658 358.15 194.488 355.761 192.88C353.372 191.272 350.624 190.276 347.759 189.98C344.895 189.683 342.001 190.096 339.334 191.18C336.666 192.265 334.306 193.989 332.461 196.2C328.181 201.03 327.951 206.95 327.781 213.07C327.671 217.07 327.561 222.16 323.171 223.93C318.311 225.93 313.291 222.83 309.591 219.87C304.051 215.46 299.081 211.22 292.311 208.78C285.755 206.472 278.746 205.751 271.858 206.674C264.969 207.597 258.398 210.138 252.681 214.09C246.061 218.6 238.501 226.15 229.841 225.17C221.841 224.27 216.531 216.61 208.481 215.48C190.601 212.97 183.171 233.11 179.791 246.73C179.021 249.85 183.791 251.19 184.611 248.06L184.751 248.09Z" fill="#F04B24"/>
<path d="M526.129 226.31C531.049 230.36 534.499 238.11 535.669 244.31C537.289 252.88 532.269 261.23 533.399 269.9C535.279 284.31 549.779 283.7 560.109 288.72C574.109 295.55 561.459 312.72 565.109 324.08C566.919 329.71 571.889 332.96 577.389 334.33C585.579 336.33 594.579 336.08 602.959 336.65C606.169 336.87 606.159 331.87 602.959 331.65C594.759 331.09 585.309 331.65 577.399 329.15C569.079 326.5 568.689 319.48 570.089 312.01C572.189 300.86 573.899 289.44 561.599 283.93C556.359 281.58 550.479 281 545.319 278.48C536.399 274.13 538.039 264.81 539.739 256.58C542.129 245.07 539.279 230.73 529.669 222.8C527.209 220.8 523.669 224.29 526.129 226.34V226.31Z" fill="#FFC837"/>
<path d="M301.1 184.05C302.92 190.05 305.45 196.82 311.94 198.98C319.23 201.4 326.21 197.32 331.64 192.81C339.02 186.67 346.33 180.4 356.52 180.29C366.52 180.19 373 186.17 375.92 195.23C377.99 201.64 381.69 205.42 388.8 204.6C394.23 203.97 397.74 203.41 402.8 206.11C406.05 207.86 409.08 210.11 412.63 211.19C427.16 215.79 438.41 200.74 432.63 187.63C431.34 184.69 427.03 187.23 428.31 190.15C432.09 198.79 424.9 208.75 415.31 206.76C409.24 205.5 404.73 200.39 398.62 199.09C395.93 198.661 393.184 198.732 390.52 199.3C388.42 199.61 385.67 200.36 383.7 199.13C381.73 197.9 381.35 195.78 380.7 193.9C378.92 188.58 377.08 184.13 372.49 180.59C362.88 173.18 350.08 174.33 339.96 180.08C333.96 183.52 329.52 189.27 323.47 192.58C319.59 194.7 314.37 195.87 310.76 192.58C308.03 190.09 306.94 186.13 305.9 182.73C304.96 179.66 300.14 180.97 301.08 184.06L301.1 184.05Z" fill="#FFC837"/>
<path d="M545.13 482.58C547.837 487.355 551.882 491.235 556.766 493.74C561.651 496.245 567.161 497.267 572.62 496.68C583.41 495.41 592.33 486.84 595.07 476.47C596.74 470.15 595.18 464.91 594.15 458.68C593.37 453.94 595.149 446.54 601.669 450.44C604.969 452.44 607.17 455.87 610.25 458.16C614 461 619 462 623 458.94C626.77 456.01 627.93 450.94 628.56 446.42C629.01 443.27 624.189 441.91 623.739 445.09C622.889 451.09 620.019 459.61 612.609 453.68C608.899 450.68 606.329 446.56 601.609 444.9C591.749 441.39 587.88 452.26 589.31 460.01C590.43 466.01 591.799 471.1 589.609 477.11C587.725 482.372 583.994 486.772 579.109 489.49C568.509 495.14 555.109 490.23 549.429 480.06C547.849 477.26 543.529 479.77 545.109 482.58H545.13Z" fill="#FFC837"/>
<path d="M141.449 379.41C143.206 381.353 144.299 383.805 144.569 386.41C144.879 389.58 149.889 389.62 149.569 386.41C149.232 382.497 147.627 378.8 144.999 375.88C142.849 373.48 139.319 377.02 141.459 379.42L141.449 379.41Z" fill="white"/>
<path d="M215.129 324.39L214.499 333.73C214.279 336.94 219.279 336.93 219.499 333.73L220.129 324.39C220.349 321.18 215.349 321.19 215.129 324.39Z" fill="#1E1E1E"/>
<path d="M228.62 449.64L232.12 440.37C233.26 437.37 228.43 436.05 227.3 439.04L223.8 448.31C222.66 451.31 227.49 452.63 228.62 449.64Z" fill="white"/>
<path d="M341 309.81L337 318.48C335.66 321.38 340 323.93 341.32 321L345.32 312.33C346.66 309.43 342.32 306.88 341 309.81Z" fill="white"/>
<path d="M305.001 367.67C307.126 370.79 309.942 373.377 313.231 375.23C316.041 376.8 318.571 372.48 315.751 370.91C313.189 369.507 310.985 367.533 309.311 365.14C307.491 362.51 303.161 365.01 304.991 367.66L305.001 367.67Z" fill="#1E1E1E"/>
<path d="M419.511 383.44L413.461 390.73C413.007 391.208 412.754 391.841 412.754 392.5C412.754 393.159 413.007 393.792 413.461 394.27C413.932 394.735 414.568 394.996 415.231 394.996C415.893 394.996 416.529 394.735 417.001 394.27L423.051 386.98C423.504 386.503 423.757 385.869 423.757 385.21C423.757 384.551 423.504 383.918 423.051 383.44C422.579 382.975 421.943 382.714 421.281 382.714C420.618 382.714 419.982 382.975 419.511 383.44Z" fill="#1E1E1E"/>
<path d="M388.65 473.79L382.65 462.46C381.14 459.62 376.83 462.14 378.33 464.98L384.33 476.31C385.84 479.15 390.15 476.63 388.65 473.79Z" fill="white"/>
<path d="M119.21 491.59L133.06 485.25C135.98 483.91 133.44 479.6 130.54 480.93L116.69 487.27C113.77 488.61 116.31 492.92 119.21 491.59Z" fill="white"/>
<path d="M124.571 424.44L135.841 428C138.921 429 140.231 424.14 137.171 423.18L125.901 419.65C122.821 418.65 121.511 423.51 124.571 424.47V424.44Z" fill="#1E1E1E"/>
<path d="M305 499.07V489.74C305 486.52 300 486.52 300 489.74V499.07C300 502.29 305 502.29 305 499.07Z" fill="#1E1E1E"/>
<path d="M480.45 493.57H490.45C493.67 493.57 493.67 488.57 490.45 488.57H480.45C477.23 488.57 477.23 493.57 480.45 493.57Z" fill="#1E1E1E"/>
<path d="M416.1 219.1C428.66 223.37 442.61 219 454.1 212.33C465.59 205.66 475.66 196.73 487.48 190.71C513.66 177.38 535.58 185.12 564.83 187.89C548.38 181.89 542.24 167.52 529.16 155.89C519.25 147.09 510.35 136.69 498.41 130.94C490.31 127.04 481.29 125.54 472.76 122.69C464.23 119.84 455.68 115.13 451.53 107.15C442.8 116.85 444.89 131.83 441.37 144.4C439.17 152.26 434.66 159.4 432.97 167.4C431.25 175.55 431.31 184.87 429.49 193C427.11 203.45 417 207.91 416.1 219.1Z" fill="#2B2C2B"/>
<path d="M415.43 221.51C443.09 230.09 464.43 206.14 486.43 194.08C511.43 180.34 538.08 187.75 564.81 190.38C567.81 190.68 567.9 186.38 565.47 185.47C554.66 181.31 547.74 172.54 540.41 164.03C533.08 155.52 524.24 147.51 515.67 140C507.019 132.329 496.694 126.788 485.52 123.82C473.69 120.51 460.19 117.51 453.67 105.94C453.475 105.612 453.207 105.333 452.888 105.123C452.57 104.913 452.207 104.779 451.829 104.73C451.45 104.681 451.066 104.718 450.704 104.84C450.342 104.961 450.012 105.163 449.74 105.43C443.65 112.65 442.3 121.52 441.2 130.62C440.741 135.929 439.736 141.177 438.2 146.28C436.2 152.08 433.26 157.49 431.47 163.36C428.21 174.03 430.53 186.68 425.47 196.72C421.47 204.72 414.75 209.72 413.6 219.13C413.21 222.32 418.21 222.29 418.6 219.13C419.66 210.45 427.31 205.13 430.6 197.48C434.73 187.8 433.13 176.48 435.76 166.36C438.39 156.24 443.82 147.62 445.35 137.19C446.75 127.59 446.7 116.76 453.28 108.96L449.35 108.45C454.87 118.26 465.12 123.1 475.51 126.21C482.75 128.38 490.28 129.84 497.13 133.13C503.067 136.165 508.539 140.034 513.38 144.62C522.43 152.77 531.38 161.08 539.25 170.37C546.4 178.79 553.64 186.27 564.14 190.31L564.8 185.4C540.15 182.97 515.13 176.14 491.25 186.22C467.37 196.3 445.36 225.57 416.76 216.71C413.68 215.73 412.36 220.56 415.43 221.51Z" fill="#FFC837"/>
<path d="M302.001 71.3301C302.651 80.9001 303.301 90.5401 302.081 100.05C300.861 109.56 297.631 119.05 291.361 126.31C288.991 129.05 286.231 131.42 283.921 134.21C281.611 137 279.721 140.32 279.561 143.94C283.631 140.21 289.421 139.15 294.871 138.26L321.231 133.92C328.451 132.73 335.801 131.5 342.361 128.26C359.501 119.79 368.011 99.4401 384.671 90.0701C370.562 92.5696 356.088 92.1119 342.166 88.726C328.243 85.34 315.176 79.0997 303.791 70.4001" fill="#2B2C2B"/>
<path d="M299.51 71.33C300.46 85.33 301.51 100.01 296.21 113.33C293.61 119.93 289.4 124.66 284.59 129.73C280.66 133.87 277.71 138.12 277.07 143.9C276.81 146.28 279.87 146.9 281.34 145.67C285.61 142.13 291.19 141.35 296.49 140.47L314.38 137.52C324.91 135.79 336.06 134.7 345.53 129.36C361.82 120.17 369.86 101.6 385.96 92.17C388.53 90.66 386.72 87.17 384.03 87.6C370.236 89.9589 356.103 89.4538 342.513 86.1163C328.922 82.7788 316.163 76.6802 305.03 68.2C302.47 66.25 299.98 70.59 302.51 72.52C314.211 81.3425 327.602 87.663 341.85 91.0882C356.098 94.5134 370.898 94.9702 385.33 92.43L383.4 87.86C366.91 97.52 358.78 117.06 341.72 125.73C331.33 131.01 318.72 131.73 307.38 133.64C297.51 135.27 285.83 135.49 277.79 142.14L282.06 143.91C282.88 136.47 290.06 132.01 294.34 126.57C297.799 122.101 300.427 117.048 302.1 111.65C306.3 98.65 305.41 84.73 304.51 71.3C304.29 68.11 299.29 68.08 299.51 71.3V71.33Z" fill="#FFC837"/>
<path d="M359.199 116.8C366.248 114.291 373.731 113.233 381.199 113.69C384.405 114.06 387.633 114.2 390.859 114.11C394.069 113.85 397.379 112.74 399.479 110.29C401.929 107.45 402.319 103.43 402.599 99.6901L404.249 77.5601L383.249 90.5601" fill="#2B2C2B"/>
<path d="M359.86 119.21C367.347 116.694 375.265 115.715 383.14 116.33C388.91 116.73 395.3 117.26 400.03 113.22C403.83 109.98 404.64 105.13 405.03 100.4C405.69 92.8 406.17 85.18 406.74 77.57C406.732 77.1353 406.612 76.7101 406.391 76.3355C406.17 75.961 405.857 75.6499 405.48 75.4325C405.104 75.2151 404.678 75.0988 404.243 75.0948C403.808 75.0909 403.38 75.1994 403 75.41L382 88.41C379.27 90.1 381.78 94.41 384.52 92.73L405.52 79.73L401.76 77.57L400.38 96C399.95 101.75 400.26 108.91 393.61 111C388 112.8 381.41 110.84 375.61 111.07C369.789 111.333 364.037 112.431 358.53 114.33C355.53 115.33 356.8 120.19 359.86 119.15V119.21Z" fill="#FFC837"/>
</svg>
