<svg width="128" height="112" viewBox="0 0 128 112" fill="none" xmlns="http://www.w3.org/2000/svg">
<path d="M113.506 105.513C85.3476 105.246 57.1632 104.823 28.9875 104.882C21.9341 104.895 14.8814 104.952 7.82948 105.054C6.7861 105.07 5.77327 105.201 4.73426 105.286C4.28023 105.323 3.7127 105.423 3.26523 105.316C2.77846 105.203 2.71079 104.893 2.61038 104.423C2.17382 102.492 2.46632 100.276 2.50997 98.3116C2.7479 87.4892 6.4172 76.7978 12.7321 68.0185C19.1932 59.0319 28.4483 52.3831 39.107 49.3555C49.5803 46.4005 60.7141 46.782 70.9607 50.4469C82.117 54.4807 90.8592 62.6837 97.2417 72.5282C100.715 77.8848 103.509 83.6605 105.923 89.5541C107.232 92.7388 108.422 95.9629 109.57 99.2065C110.098 100.698 110.619 102.193 111.131 103.69C111.321 104.242 111.443 105.109 111.786 105.578C112.074 105.969 112.718 106.152 113.163 106.307C117.551 107.835 122.462 104.821 124.562 101.014C127.399 95.8559 126.568 89.5061 125.996 83.9094C124.883 73.0368 122.957 61.7495 117.171 52.2827C115.784 50.0141 114.176 47.8892 112.369 45.9394C111.891 45.4243 111.12 46.197 111.596 46.7121C119.53 55.2709 122.647 66.8835 124.223 78.1664C124.619 81.0041 124.922 83.8417 125.175 86.6794C125.455 89.8226 125.682 93.051 125.09 96.1724C124.57 98.9206 123.414 101.496 121.25 103.328C119.299 104.98 116.562 106.063 113.999 105.41C113.248 105.218 112.816 105.089 112.521 104.369C112.211 103.609 111.984 102.802 111.716 102.027C111.134 100.336 110.539 98.6484 109.93 96.9648C108.806 93.8608 107.628 90.7765 106.346 87.7337C103.901 81.9208 101.064 76.2696 97.5713 71.0352C91.2761 61.6207 82.8352 53.8172 72.1678 49.7157C62.1269 45.8521 50.8352 45.2606 40.4014 47.8625C29.9757 50.478 20.6732 56.3898 13.878 64.7181C7.1282 73.006 2.90665 83.0616 1.71761 93.684C1.44913 96.1069 1.43385 98.5255 1.364 100.957C1.32471 102.337 1.01038 104.899 2.14981 105.978C2.68023 106.482 3.53153 106.432 4.2082 106.401C5.27778 106.351 6.33207 106.161 7.40165 106.141C10.8505 106.074 14.2993 106.047 17.746 106.017C46.1945 105.779 74.6496 106.235 103.094 106.501L113.512 106.6C114.215 106.6 114.215 105.508 113.512 105.508L113.506 105.513Z" fill="#FFC736"/>
<path d="M104.637 41.707C106.82 43.9182 109.101 46.0268 111.312 48.2074C113.303 50.172 115.361 52.0994 116.638 54.6184C117.754 56.8208 118.439 59.2197 119.175 61.5662C120.081 64.4541 121.019 67.3223 121.794 70.2516C123.381 76.3105 124.461 82.491 125.023 88.7291C125.383 92.7608 125.974 98.6936 122.303 101.512C120.12 103.186 117.077 102.994 114.48 103.016L104.69 103.092L84.8938 103.247L45.7342 103.572L1.35552 103.921L2.71978 105.286C2.90363 97.2465 4.41181 89.2926 7.18363 81.7441C8.56959 77.9691 10.2724 74.318 12.2739 70.8301C12.9659 69.6252 13.8761 68.3919 14.0049 66.9643C14.1468 65.384 13.4374 63.8233 13.2846 62.2626C13.0859 60.2304 13.2213 57.8969 14.2406 56.0808C15.081 54.5769 16.8775 53.5117 18.4426 54.6642C19.355 55.3365 20.896 54.2014 20.4464 53.1231C19.6737 51.2765 20.0709 49.0195 21.743 47.784C23.4587 46.518 25.9405 46.9545 27.3572 48.4388C28.2063 49.325 29.6404 48.62 29.6862 47.474C29.8739 42.7832 30.0922 37.0795 34.2701 34.0476C36.1015 32.7182 38.1992 32.3581 40.3121 33.205C42.4251 34.0519 44.3634 35.4075 46.7667 35.2263C49.0281 35.056 50.914 33.7616 52.8218 32.668C55.1116 31.3583 57.5148 31.068 60.1015 30.8148C62.8344 30.5463 65.5825 30.1753 68.3328 30.16C71.0832 30.1447 73.517 30.8432 76.0862 31.808C78.4611 32.7008 80.8491 33.4058 83.3964 32.8994C85.6534 32.4628 87.5568 31.0484 88.3274 28.8568L86.3236 29.6732C86.9629 29.9815 87.5177 30.4407 87.9402 31.0111C88.3626 31.5814 88.6401 32.246 88.7487 32.9474C88.9669 34.0694 90.3072 34.1131 91.0297 33.5499C91.6482 33.0769 92.3946 32.8009 93.1719 32.7577C93.9493 32.7145 94.7217 32.9061 95.3888 33.3076C96.8251 34.2156 97.0914 35.545 97.3162 37.0991C97.5585 38.7755 98.5713 39.9739 100.333 40.1136C101.04 40.1703 101.798 39.9695 102.489 40.1267C103.363 40.3253 104.039 41.0959 104.644 41.707C105.882 42.9556 107.811 41.0282 106.573 39.7774C105.011 38.1993 103.518 37.3 101.263 37.3764C100.948 37.3873 100.376 37.5008 100.147 37.2476C99.9181 36.9944 99.9683 36.4225 99.929 36.1212C99.8426 35.1725 99.5688 34.2502 99.1236 33.408C97.0761 29.6863 92.3197 29.1079 89.1088 31.6159L91.3899 32.2184C91.1922 31.1744 90.7577 30.1898 90.1197 29.3402C89.4816 28.4906 88.6571 27.7988 87.7096 27.318C87.5281 27.2172 87.3263 27.1585 87.1191 27.146C86.9118 27.1336 86.7045 27.1678 86.5122 27.2462C86.3199 27.3245 86.1477 27.4449 86.0081 27.5987C85.8686 27.7524 85.7653 27.9354 85.7058 28.1343C85.0794 29.9155 82.842 30.4568 81.1547 30.3564C78.7143 30.2102 76.442 28.918 74.1413 28.2086C71.4499 27.3791 68.6253 27.3354 65.8466 27.5319C63.1465 27.7283 60.4311 27.9881 57.7462 28.3199C55.3105 28.5933 52.9619 29.3868 50.8595 30.6467C48.9539 31.7709 47.0985 32.9714 44.8196 32.2424C42.615 31.5373 40.7923 30.1141 38.4 29.9788C36.1997 29.8544 34.0518 30.7581 32.3471 32.0939C27.654 35.7698 27.1716 41.9515 26.9511 47.4675L29.2802 46.5027C27.0188 44.1452 23.0788 43.5515 20.3307 45.444C17.7113 47.2557 16.5632 50.8792 17.803 53.8478L19.8068 52.3068C18.3727 51.2503 16.4606 51.2154 14.8584 51.9051C13.1121 52.6582 11.964 54.2276 11.2917 55.9673C10.5604 57.8598 10.3618 60.0426 10.5233 62.053C10.6263 63.1207 10.8079 64.1793 11.0668 65.2203C11.2 65.7965 11.3834 66.399 11.2437 66.984C11.0799 67.6716 10.5692 68.3286 10.2177 68.931C9.64874 69.906 9.10086 70.8963 8.57407 71.9018C7.59181 73.7769 6.69904 75.6977 5.87831 77.6492C2.18714 86.4039 0.192359 95.7801 0 105.279C0.00452695 105.64 0.149714 105.984 0.404587 106.239C0.65946 106.494 1.00384 106.639 1.36426 106.643L83.1629 105.999L103.611 105.838L114.054 105.755C116.828 105.733 119.742 105.831 122.322 104.664C126.97 102.551 128.057 97.1395 127.998 92.5163C127.9 86.328 126.821 79.9979 125.488 73.9799C124.684 70.3186 123.704 66.7017 122.547 63.1291C121.639 60.3286 120.849 57.4735 119.694 54.7624C118.459 51.8571 116.588 49.6568 114.379 47.4216C111.819 44.8263 109.119 42.3728 106.558 39.7818C105.331 38.5245 103.402 40.4563 104.637 41.707Z" fill="#FFC736"/>
<path d="M1.35547 104.445C33.7287 104.445 66.6215 103.666 99.0515 103.666C100.534 103.666 102.389 103.55 102.924 102.125C103.242 101.278 102.924 100.333 102.599 99.4857C98.5778 88.9296 94.0463 78.4281 87.2817 69.4851C80.5172 60.5422 71.2621 53.1905 60.514 50.7588C46.1751 47.5151 30.795 53.6292 20.3743 64.2922C9.95355 74.9552 4.04906 89.5779 1.35547 104.445Z" fill="#FFC736"/>
<path d="M111.977 105.755C115.688 107.754 120.128 106.169 122.891 103.262C126.347 99.6187 126.731 94.2228 126.471 89.4621C126.179 84.4129 125.6 79.3843 124.738 74.4007C123.887 69.3955 122.688 64.4253 120.824 59.6951C118.831 54.6354 116.07 49.9205 112.364 45.9238C111.886 45.4086 111.115 46.1814 111.591 46.6965C117.89 53.4894 121.195 62.3058 123.04 71.2553C123.937 75.7749 124.592 80.3391 125.004 84.9284C125.478 89.783 126.096 95.109 123.996 99.6886C122.129 103.766 116.928 107.18 112.53 104.818C111.912 104.486 111.36 105.427 111.979 105.761L111.977 105.755Z" fill="#FFC736"/>
<path d="M106.21 88.8184C104.304 85.5442 103.191 81.8858 101.408 78.5461C96.8892 70.0463 90.9803 62.1358 83.2553 56.3928C67.0589 44.3524 43.4038 43.667 26.3168 54.4021C22.8548 56.5849 18.8952 59.2959 16.0859 62.2362C18.7053 59.3723 20.015 55.4345 23.2892 53.6774C26.5634 51.9202 30.3026 50.6105 32.5596 47.6528C33.3039 46.6793 33.854 45.5595 34.6791 44.6537C35.5042 43.7478 36.7288 43.0602 37.9249 43.3265C39.0164 43.571 39.7891 44.5227 40.6207 45.2801C41.4524 46.0375 42.6878 46.6509 43.6636 46.0899C45.5233 45.0204 44.0412 41.3511 45.9686 40.4146C47.4507 39.6899 48.8062 41.506 50.1356 42.4774C51.9168 43.7871 54.3331 43.6692 56.5465 43.6998C65.6423 43.8264 74.3124 47.5328 82.2753 51.9333C83.347 52.5249 84.4581 53.1448 85.6674 53.2692C86.8766 53.3936 88.2605 52.8872 88.7538 51.7674C89.1904 50.7983 88.8739 49.6064 89.3607 48.6657C90.3036 46.8452 93.3901 47.679 94.1847 49.5693C94.9792 51.4597 94.3026 53.6053 93.735 55.5742C93.1675 57.5431 92.7637 59.8395 93.9664 61.5006C95.001 62.9281 96.9132 63.4236 98.1596 64.67C101.1 67.6146 99.251 73.351 102.307 76.1647C104.154 77.8585 107.039 77.7101 109.434 76.9767C111.828 76.2433 114.125 75.0231 116.626 74.8943C118.833 74.7808 121.129 75.6168 122.548 77.3107C123.967 79.0045 124.355 81.5759 123.273 83.5011C122.19 85.4263 119.588 86.4261 117.58 85.4984C115.923 84.7322 114.985 82.9794 113.614 81.7723C112.243 80.5652 109.7 80.1614 108.882 81.792C108.063 83.4225 109.755 85.1142 111.313 85.9917C112.872 86.8692 114.793 87.9737 114.734 89.7658C114.675 91.5579 112.354 92.6187 110.608 92.0861C108.862 91.5535 107.129 90.3944 106.21 88.8184Z" fill="#FFC736"/>
<path d="M29.6322 44.8737C30.0688 43.0751 30.5446 41.056 32.0049 39.7856C32.7755 39.1176 33.8341 38.6483 34.8688 38.8666C35.6786 39.0369 36.3662 39.5651 37.0516 40.0038C38.2107 40.746 39.4221 41.2044 40.806 40.877C42.3056 40.5168 43.5323 39.4647 44.7656 38.5981C47.7146 36.5288 51.576 36.173 54.6385 38.2772C55.9307 39.1656 56.9588 40.4841 58.5806 40.7722C59.7964 40.9905 61.0297 40.5539 61.5973 39.4058C62.2521 38.0764 61.7151 36.5201 62.2063 35.1602C62.8611 33.3681 65.1771 32.6805 66.633 33.9618C68.3378 35.4636 67.3555 37.4194 66.7465 39.1809C66.3514 40.3225 66.1964 41.582 66.7334 42.7149C67.1874 43.6666 68.113 44.2843 69.1891 44.1184C70.4988 43.9198 71.3719 42.6756 71.9329 41.5973C72.5506 40.4295 74.0284 37.7053 75.4908 39.6044C76.5255 40.949 75.9994 42.859 76.5517 44.3847C77.5776 47.2224 81.319 47.624 83.5127 45.9542C86.7432 43.4942 86.4944 39.098 86.0884 35.5007L85.5427 36.0464C88.3803 36.0835 89.8821 38.9648 91.0412 41.1476C92.0627 43.0729 93.2676 45.1771 95.3872 46.0459C96.4786 46.4955 97.6835 46.4824 98.8098 46.8142C100.471 47.3184 100.82 48.7678 100.709 50.3198C100.565 52.3585 99.7331 54.6156 100.927 56.5146C102.121 58.4137 104.315 57.8418 106.166 57.5296C107.545 57.2961 108.945 57.5689 109.047 59.2082C109.137 60.6598 108.146 61.8276 107.34 62.919C106.181 64.495 104.911 66.9572 106.48 68.734C108.089 70.5523 110.599 69.319 112.374 68.5157C113.369 68.0617 115.126 67.4396 116.085 68.2974C116.722 68.8671 116.539 69.8254 116.608 70.5806C116.656 71.2066 116.867 71.8089 117.222 72.3269C118.654 74.3831 121.5 74.1495 122.91 72.233C123.327 71.6655 122.38 71.122 121.967 71.683C120.952 73.0647 118.861 73.0407 117.997 71.5171C117.342 70.3558 117.973 68.9108 117.104 67.8063C116.013 66.4027 113.88 66.7149 112.431 67.2999C111.444 67.6906 110.536 68.2538 109.49 68.4917C107.539 68.9283 106.471 67.4701 107.008 65.654C107.683 63.3861 110.064 62.0153 110.128 59.4854C110.184 57.5362 108.796 56.2243 106.864 56.3334C105.795 56.3946 104.76 56.8158 103.686 56.8115C102.176 56.8115 101.492 55.7201 101.383 54.3078C101.217 52.1403 102.359 49.9138 101.479 47.7921C100.547 45.5416 98.2226 45.7796 96.2537 45.1924C93.4161 44.3476 92.4316 41.1869 91.0499 38.9059C89.8232 36.8802 88.0507 34.9768 85.5252 34.9441C85.3807 34.9447 85.2422 35.0023 85.14 35.1046C85.0378 35.2068 84.9801 35.3452 84.9795 35.4898C85.355 38.812 85.7959 43.8674 82.0436 45.5591C80.6052 46.2139 78.5512 45.8581 77.7391 44.4C76.949 42.9834 77.4445 41.1891 76.7896 39.7048C76.3269 38.6527 75.4101 37.7948 74.1964 37.88C72.9828 37.9651 72.1097 39.0063 71.5247 39.9886C70.9397 40.9708 69.6387 44.1556 68.0322 42.7367C66.812 41.6453 67.7157 39.6393 68.161 38.441C68.6827 37.044 68.9861 35.5684 68.2046 34.2019C67.9092 33.6471 67.482 33.1733 66.9605 32.8223C66.4389 32.4714 65.8392 32.254 65.2139 32.1893C64.5886 32.1246 63.957 32.2146 63.3747 32.4514C62.7924 32.6882 62.2772 33.0644 61.8745 33.5471C60.9402 34.6014 60.89 35.8936 60.8529 37.2295C60.8289 38.1026 60.8049 39.2137 59.8467 39.6C58.7858 40.0366 57.69 39.3599 56.8824 38.7138C55.6731 37.7512 54.5883 36.8257 53.1105 36.2931C51.6795 35.7894 50.1496 35.6318 48.646 35.8332C47.1424 36.0347 45.7079 36.5895 44.46 37.4521C43.015 38.4366 41.3648 40.0846 39.4745 39.8707C37.7282 39.6742 36.5692 38.0022 34.812 37.7556C30.9092 37.2077 29.2873 41.6038 28.5495 44.5768C28.3815 45.2579 29.4227 45.5504 29.6017 44.8671L29.6322 44.8737Z" fill="#FFC736"/>
<path d="M104.148 40.1198C105.222 41.0038 105.975 42.6955 106.231 44.0489C106.584 45.9195 105.489 47.7422 105.735 49.6347C106.146 52.7801 109.311 52.647 111.566 53.7427C114.622 55.2336 111.86 58.9815 112.657 61.4611C113.052 62.6901 114.137 63.3995 115.338 63.6985C117.125 64.1351 119.09 64.0805 120.919 64.2049C121.62 64.253 121.618 63.1615 120.919 63.1135C119.129 62.9913 117.066 63.1135 115.34 62.5678C113.524 61.9894 113.439 60.457 113.744 58.8265C114.202 56.3927 114.576 53.8999 111.891 52.6972C110.747 52.1842 109.464 52.0576 108.337 51.5075C106.39 50.558 106.748 48.5236 107.119 46.7272C107.641 44.2148 107.019 41.0846 104.921 39.3536C104.384 38.9171 103.612 39.6789 104.148 40.1264V40.1198Z" fill="#FFC736"/>
<path d="M55.0288 30.8956C55.4261 32.2053 55.9783 33.683 57.395 34.1545C58.9862 34.6828 60.5098 33.7922 61.6951 32.8077C63.306 31.4675 64.9017 30.0989 67.1259 30.0749C69.3087 30.053 70.7232 31.3584 71.3606 33.336C71.8124 34.7352 72.6201 35.5603 74.172 35.3813C75.3573 35.2438 76.1235 35.1215 77.228 35.7109C77.9374 36.0929 78.5988 36.584 79.3737 36.8197C82.5453 37.8238 85.001 34.5387 83.7393 31.677C83.4577 31.0353 82.5169 31.5897 82.7963 32.2271C83.6214 34.1131 82.052 36.2871 79.9587 35.8528C78.6337 35.5777 77.6493 34.4623 76.3156 34.1785C75.7284 34.0848 75.129 34.1004 74.5475 34.2244C74.0891 34.2921 73.4888 34.4558 73.0588 34.1873C72.6288 33.9188 72.5459 33.456 72.404 33.0457C72.0154 31.8844 71.6138 30.9131 70.6119 30.1403C68.5142 28.5229 65.7202 28.7739 63.5112 30.029C62.2015 30.7799 61.2324 32.035 59.9118 32.7575C59.0648 33.2203 57.9254 33.4757 57.1374 32.7575C56.5415 32.214 56.3036 31.3496 56.0766 30.6075C55.8714 29.9373 54.8193 30.2233 55.0244 30.8978L55.0288 30.8956Z" fill="#FFC736"/>
<path d="M108.296 96.0585C108.887 97.1009 109.77 97.9477 110.836 98.4946C111.902 99.0414 113.105 99.2645 114.296 99.1363C116.652 98.8591 118.599 96.9884 119.197 94.7249C119.561 93.3453 119.221 92.2015 118.996 90.8416C118.826 89.807 119.214 88.1917 120.637 89.043C121.358 89.4796 121.838 90.2283 122.51 90.7281C123.329 91.348 124.42 91.5663 125.293 90.8984C126.116 90.2588 126.369 89.1521 126.507 88.1655C126.605 87.4779 125.553 87.1811 125.455 87.8752C125.269 89.1849 124.643 91.0446 123.025 89.7502C122.216 89.0954 121.655 88.1961 120.624 87.8337C118.472 87.0676 117.627 89.4403 117.939 91.132C118.184 92.4416 118.483 93.5527 118.005 94.8646C117.594 96.0132 116.779 96.9735 115.713 97.5669C113.399 98.8002 110.474 97.7284 109.234 95.5085C108.89 94.8973 107.947 95.4452 108.291 96.0585H108.296Z" fill="#FFC736"/>
<path d="M20.1799 73.5389C20.5635 73.9629 20.802 74.4981 20.8609 75.0668C20.9286 75.7588 22.0222 75.7675 21.9524 75.0668C21.8787 74.2126 21.5284 73.4056 20.9548 72.7683C20.4855 72.2445 19.715 73.0172 20.1821 73.541L20.1799 73.5389Z" fill="#FF76B8"/>
<path d="M36.2641 61.5291L36.1265 63.5678C36.0785 64.2685 37.1699 64.2663 37.2179 63.5678L37.3555 61.5291C37.4035 60.8284 36.3121 60.8306 36.2641 61.5291Z" fill="#FF76B8"/>
<path d="M39.207 88.8687L39.971 86.8453C40.2199 86.1904 39.1656 85.9023 38.9189 86.5549L38.1549 88.5784C37.9061 89.2333 38.9604 89.5214 39.207 88.8687Z" fill="#FF76B8"/>
<path d="M63.7391 58.3468L62.8659 60.2393C62.5734 60.8723 63.5208 61.4289 63.8089 60.7894L64.682 58.8969C64.9745 58.2638 64.0272 57.7072 63.7391 58.3468Z" fill="#FF76B8"/>
<path d="M55.8799 70.9761C56.3437 71.6571 56.9585 72.2219 57.6763 72.6263C58.2897 72.969 58.842 72.026 58.2264 71.6833C57.6673 71.3771 57.1862 70.9461 56.8207 70.4239C56.4234 69.8498 55.4782 70.3955 55.8777 70.9739L55.8799 70.9761Z" fill="#FF76B8"/>
<path d="M80.8752 74.4183L79.5546 76.0096C79.4556 76.1138 79.4004 76.2521 79.4004 76.3959C79.4004 76.5397 79.4556 76.678 79.5546 76.7823C79.6576 76.8839 79.7964 76.9408 79.941 76.9408C80.0856 76.9408 80.2244 76.8839 80.3274 76.7823L81.648 75.191C81.747 75.0868 81.8022 74.9484 81.8022 74.8046C81.8022 74.6609 81.747 74.5226 81.648 74.4183C81.545 74.3167 81.4062 74.2598 81.2616 74.2598C81.117 74.2598 80.9782 74.3167 80.8752 74.4183Z" fill="#FF76B8"/>
<path d="M74.1392 94.1401L72.8295 91.667C72.4999 91.0471 71.5591 91.5972 71.8865 92.2171L73.1962 94.6902C73.5258 95.3101 74.4666 94.7601 74.1392 94.1401Z" fill="#FF76B8"/>
<path d="M15.3246 98.0254L18.3478 96.6415C18.9852 96.349 18.4307 95.4082 17.7977 95.6985L14.7745 97.0824C14.1372 97.3749 14.6916 98.3157 15.3246 98.0254Z" fill="#FF76B8"/>
<path d="M16.4933 83.368L18.9533 84.145C19.6256 84.3633 19.9116 83.3025 19.2436 83.0929L16.7836 82.3224C16.1113 82.1041 15.8253 83.165 16.4933 83.3745V83.368Z" fill="#FF76B8"/>
<path d="M55.8805 99.6584V97.6219C55.8805 96.919 54.7891 96.919 54.7891 97.6219V99.6584C54.7891 100.361 55.8805 100.361 55.8805 99.6584Z" fill="#FF76B8"/>
<path d="M94.1756 98.4576H96.3584C97.0613 98.4576 97.0613 97.3662 96.3584 97.3662H94.1756C93.4727 97.3662 93.4727 98.4576 94.1756 98.4576Z" fill="#FF76B8"/>
<path d="M80.1328 38.5464C82.8744 39.4785 85.9194 38.5246 88.4275 37.0687C90.9355 35.6127 93.1336 33.6635 95.7137 32.3494C101.428 29.4397 106.213 31.1292 112.598 31.7339C109.007 30.4242 107.667 27.2875 104.812 24.7489C102.648 22.828 100.706 20.5579 98.0995 19.3028C96.3314 18.4515 94.3625 18.1241 92.5006 17.5019C90.6387 16.8798 88.7724 15.8517 87.8665 14.1099C85.9609 16.2272 86.4171 19.497 85.6488 22.2408C85.1686 23.9565 84.1841 25.515 83.8152 27.2613C83.4398 29.0403 83.4529 31.0747 83.0556 32.8493C82.5361 35.1303 80.3293 36.1039 80.1328 38.5464Z" fill="#FF76B8"/>
<path d="M79.9862 39.0726C86.0239 40.9454 90.682 35.7176 95.4842 33.0851C100.941 30.086 106.758 31.7034 112.593 32.2775C113.248 32.343 113.268 31.4044 112.737 31.2057C110.377 30.2977 108.867 28.3834 107.267 26.5258C105.667 24.6682 103.737 22.9198 101.867 21.2805C99.9784 19.6061 97.7246 18.3966 95.2855 17.7487C92.7033 17.0262 89.7565 16.3714 88.3333 13.8458C88.2907 13.7743 88.2323 13.7133 88.1627 13.6675C88.0931 13.6218 88.014 13.5924 87.9314 13.5817C87.8488 13.571 87.7648 13.5792 87.6858 13.6057C87.6068 13.6321 87.5349 13.6762 87.4754 13.7345C86.1461 15.3105 85.8514 17.2467 85.6113 19.233C85.5112 20.3919 85.2918 21.5374 84.9565 22.6513C84.5199 23.9173 83.8782 25.0982 83.4874 26.3795C82.7758 28.7086 83.2823 31.4699 82.1778 33.6614C81.3046 35.4076 79.8378 36.499 79.5868 38.5531C79.5016 39.2494 80.593 39.2428 80.6782 38.5531C80.9095 36.6584 82.5794 35.4971 83.2975 33.8273C84.199 31.7143 83.8498 29.2434 84.4239 27.0344C84.9979 24.8254 86.1832 22.9438 86.5172 20.6671C86.8228 18.5716 86.8119 16.2076 88.2481 14.5051L87.3903 14.3937C88.5952 16.5351 90.8326 17.5915 93.1005 18.2704C94.6809 18.7441 96.3245 19.0628 97.8198 19.7809C99.1158 20.4433 100.31 21.2879 101.367 22.289C103.342 24.0679 105.296 25.8819 107.014 27.9097C108.574 29.7476 110.155 31.3804 112.447 32.2622L112.591 31.1905C107.21 30.66 101.749 29.1692 96.5363 31.3694C91.3237 33.5697 86.5194 39.9588 80.2765 38.0248C79.6042 37.8109 79.3161 38.8652 79.9862 39.0726Z" fill="#FFC736"/>
<path d="M55.2263 6.29089C55.3682 8.37984 55.5101 10.4841 55.2438 12.5599C54.9775 14.6358 54.2725 16.7073 52.9038 18.292C52.3865 18.8901 51.7841 19.4074 51.2798 20.0164C50.7756 20.6254 50.363 21.3501 50.3281 22.1403C51.2165 21.3261 52.4804 21.0947 53.67 20.9004L59.4239 19.9531C60.9999 19.6933 62.6042 19.4249 64.0362 18.7176C67.7775 16.8688 69.6351 12.4268 73.2716 10.3815C70.192 10.9271 67.0326 10.8272 63.9936 10.0881C60.9546 9.34898 58.1022 7.98683 55.6171 6.08789" fill="#FF76B8"/>
<path d="M54.6829 6.29073C54.8902 9.34666 55.1194 12.551 53.9625 15.4585C53.395 16.8992 52.4761 17.9316 51.4261 19.0383C50.5683 19.942 49.9244 20.8697 49.7847 22.1314C49.7279 22.6509 50.3958 22.7862 50.7167 22.5177C51.6488 21.745 52.8668 21.5748 54.0237 21.3827L57.9287 20.7387C60.2272 20.3611 62.661 20.1232 64.7282 18.9576C68.284 16.9516 70.0389 12.8981 73.5533 10.8397C74.1142 10.5101 73.7192 9.7483 73.132 9.84216C70.1209 10.357 67.0361 10.2468 64.0695 9.51829C61.1028 8.78977 58.3178 7.45857 55.8878 5.60751C55.329 5.18186 54.7855 6.1292 55.3377 6.55048C57.8917 8.47626 60.8147 9.85589 63.9248 10.6036C67.0348 11.3512 70.2655 11.4509 73.4157 10.8965L72.9945 9.89891C69.395 12.0075 67.6204 16.2727 63.8965 18.1652C61.6286 19.3177 58.8761 19.4749 56.4007 19.8918C54.2463 20.2476 51.6968 20.2956 49.9418 21.7472L50.8739 22.1336C51.0529 20.5095 52.6201 19.536 53.5544 18.3486C54.3093 17.3731 54.8831 16.27 55.2482 15.0918C56.165 12.2542 55.9707 9.21569 55.7743 6.28418C55.7263 5.58786 54.6349 5.58131 54.6829 6.28418V6.29073Z" fill="#FFC736"/>
<path d="M67.7109 16.2157C69.2495 15.668 70.883 15.437 72.5131 15.5369C73.2129 15.6175 73.9176 15.6482 74.6217 15.6286C75.3224 15.5718 76.0449 15.3295 76.5033 14.7947C77.0381 14.1748 77.1232 13.2973 77.1843 12.4809L77.5445 7.65039L72.9606 10.488" fill="#FF76B8"/>
<path d="M67.8548 16.7418C69.4892 16.1927 71.2175 15.9789 72.9364 16.1132C74.1959 16.2005 75.5907 16.3162 76.6232 15.4343C77.4526 14.7271 77.6294 13.6684 77.7146 12.636C77.8586 10.977 77.9634 9.31372 78.0878 7.6526C78.0861 7.55773 78.0599 7.4649 78.0118 7.38315C77.9636 7.3014 77.8951 7.23349 77.8129 7.18604C77.7308 7.13858 77.6377 7.11319 77.5428 7.11233C77.448 7.11146 77.3545 7.13516 77.2714 7.18111L72.6875 10.0188C72.0916 10.3877 72.6395 11.3285 73.2376 10.9617L77.8215 8.12409L77.0008 7.6526L76.6996 11.6755C76.6057 12.9306 76.6734 14.4935 75.2218 14.9497C73.9972 15.3426 72.5588 14.9148 71.2927 14.965C70.0223 15.0224 68.7668 15.2621 67.5645 15.6766C66.9097 15.8949 67.1869 16.9557 67.8548 16.7287V16.7418Z" fill="#FFC736"/>
</svg>
