<svg width="681" height="681" viewBox="0 0 681 681" fill="none" xmlns="http://www.w3.org/2000/svg">
<path d="M426.92 305.41L395.92 319.41L389.92 322.11L363.17 304.51L321.6 329.79L343.8 380.6L376.7 385.88L399.6 350.88L433.47 340.24L435.14 339.71L431.95 328.71C412.03 335.17 401.67 337.473 400.87 335.62C400.016 333.66 409.88 327.04 430.46 315.76L426.92 305.41Z" fill="#F04B24"/>
<path d="M351.929 400.77L377.609 400.33L392.279 452.33L333.609 458L351.929 400.8" fill="#F04B24"/>
<path d="M333.001 476.15L394.111 475.05L359.451 537.57L324.211 511.06L333.001 476.15Z" fill="#F04B24"/>
<path d="M311.999 519L338.619 541L304.369 580C300.369 565.393 296.369 550.79 292.369 536.19L311.999 519Z" fill="#F04B24"/>
<path d="M244.7 514L284 535.17C284.467 547.09 284.933 559.01 285.4 570.93L242.74 559.71L255.68 552.06L231.58 530.32L258.43 531.26L244.7 514Z" fill="#F04B24"/>
<path d="M257.36 259.73C254.63 239.27 254.17 218.5 254.21 197.89C254.21 180.24 258.39 157.18 247.21 141.89C233.85 123.5 210.39 129.72 193.84 139.74C176.991 150.099 161.205 162.094 146.71 175.55C117.604 202.24 93.724 234.117 76.2895 269.55C71.9195 278.53 66.9995 288 64.9995 297.92C63.846 303.333 63.6867 308.91 64.5295 314.38C65.2295 319.03 66.0895 323.18 64.1895 327.66C62.7595 331.03 60.4495 334.04 58.6695 337.23C56.1941 341.588 54.4319 346.315 53.4495 351.23C51.8195 359.57 51.6195 371.34 56.4495 378.75C60.0395 384.27 66.6395 388.75 71.7295 392.75C72.9995 393.75 72.2395 392.35 71.7295 391.67C71.6595 391.57 71.0795 392.02 71.6695 391.67C71.3176 392.127 71.0096 392.615 70.7495 393.13C69.4995 394.67 66.4995 398.13 64.8695 400.34C60.1795 406.81 58.3995 415.18 61.8695 422.64C64.9395 429.31 70.8695 434.47 75.6195 439.88C77.2095 441.67 79.5695 444.51 80.1695 446.01C80.6795 447.26 80.2395 444.62 80.3095 446.47C80.3331 447.26 80.2524 448.051 80.0695 448.82C79.5485 451.053 78.8564 453.243 77.9995 455.37C74.9995 463.91 73.6695 473.07 81.0995 479.81C84.2095 482.63 88.0995 484.21 92.0995 485.34C95.6295 486.34 99.8395 486.68 102.59 489.34C105.03 491.7 106.35 495.22 108.14 498.05C110.33 501.5 112.98 504.86 116.55 506.98C124.49 511.69 133.22 509.2 140.69 504.92C144.6 502.67 150.76 496.86 154.86 500.06C157.86 502.37 159.55 506.06 162.42 508.55C164.511 510.428 166.994 511.818 169.688 512.62C172.382 513.423 175.221 513.617 178 513.19C182.747 512.333 187.193 510.266 190.91 507.19C194.48 504.39 197.5 500.51 201.47 498.27C208.36 494.38 218.22 499.35 225.47 499.97C234.25 500.73 242.93 496.97 246.84 488.77C248.84 484.66 249.33 480.18 249.54 475.68C249.72 471.86 249.24 467.52 250.73 463.89C252.94 458.49 260.56 457.47 265.6 456.33C272.87 454.67 280.43 453.12 286.6 448.7C290.38 445.963 293.392 442.299 295.345 438.061C297.298 433.822 298.126 429.152 297.75 424.5C297.11 414.5 293.04 405.08 288.41 396.36C285.7 391.25 276.8 379.93 284.41 375.45C287.9 373.4 291.74 372.58 294.91 369.89C298.032 367.127 300.081 363.353 300.7 359.23C302.26 350.67 300.13 341.47 296.89 333.53C293.48 325.16 287.95 317.97 282.89 310.53C276.99 301.99 271.09 293.41 266.22 284.22C261.722 275.936 258.678 266.943 257.22 257.63C256.57 253.3 251.1 250.91 247.22 251.97C242.58 253.25 240.91 257.6 241.56 261.97C244.39 280.97 254.56 297.7 265.16 313.31C273.16 325.11 286.9 339.65 285.01 355.31C284.7 357.86 284.15 357.92 281.82 359.01C278.05 360.77 274.28 362.01 271.31 365.1C264.46 372.28 263.97 382.17 267.57 390.99C271.17 399.81 276.69 407.35 279.66 416.29C281.6 422.14 283.66 430.46 278 435.02C273.07 439.02 265.52 439.66 259.56 441.08C252.84 442.68 246.03 444.95 240.99 449.89C234.71 456.04 233.69 464.54 233.43 472.89C233.23 479.39 233.25 484.62 225.49 483.74C217.23 482.81 209.55 479.57 201.1 481.25C191.93 483.07 187.16 490.3 179.9 495.25C176.69 497.44 174.78 498.11 172.1 495.39C169.42 492.67 167.46 489.46 164.45 487.04C157.65 481.58 149.51 482.04 141.96 485.54C138.85 487 135.96 488.92 133.04 490.64C131.16 491.73 128.25 493.82 126.04 493.47C124.04 493.16 122.88 491.03 121.87 489.37C119.77 485.92 117.92 482.37 115.3 479.29C112.608 476.167 109.167 473.779 105.3 472.35C101.63 470.9 97.5495 470.54 93.9395 468.98C91.9395 468.12 91.6795 468.05 91.6895 466.08C91.6895 462.36 94.4195 458.08 95.3795 454.48C97.3795 446.99 96.3795 440.48 91.7995 434.21C87.5995 428.55 82.0995 423.94 78.0195 418.21C75.2095 414.28 76.3895 411.57 79.9095 407.41C83.9095 402.72 88.2795 397.83 87.9095 391.23C87.5195 383.98 81.5795 379.58 76.3495 375.46C74.3495 373.87 70.9595 371.46 69.9195 369.78C70.2395 370.29 70.5495 371.39 70.1295 369.67C69.7995 368.31 69.4995 366.94 69.2395 365.56C68.8849 363.718 68.7107 361.846 68.7195 359.97C68.7995 351.43 73.1395 345.32 77.0795 338.18C81.9195 329.42 81.9395 321.58 80.5295 311.92C79.1195 302.26 83.1695 293.43 87.0495 284.92C90.9295 276.41 95.1495 268.23 99.7595 260.19C108.75 244.442 119.15 229.541 130.83 215.67C142.593 201.67 155.563 188.731 169.59 177C176.596 171.173 183.873 165.697 191.42 160.57C198.65 155.64 206.16 150.34 214.55 147.57C221.3 145.36 229.27 144.63 233.99 151.02C238.39 157.02 238.4 165.73 238.36 172.77C238.24 193 237.74 213.16 238.81 233.39C239.27 242.17 239.97 250.95 241.14 259.67C241.72 264.01 244.45 267.78 249.25 267.78C253.18 267.83 257.94 264.1 257.36 259.73Z" fill="#FFC736"/>
<path d="M98.7486 339C97.5999 321.033 100.296 303.028 106.657 286.185C113.019 269.343 122.899 254.051 135.639 241.33C149.269 227.81 167.529 215.33 187.269 214.2C196.428 213.558 205.549 215.898 213.269 220.87C221.649 226.47 225.969 235.32 228.039 244.95C232.189 264.27 229.039 285.53 242.809 301.61C245.529 304.79 250.099 300.18 247.399 297.02C233.519 280.79 238.839 256.97 232.899 237.82C227.249 219.63 211.299 208.66 192.509 207.7C171.869 206.65 152.309 217.99 137.199 231.06C121.966 244.428 109.996 261.106 102.206 279.816C94.4163 298.526 91.0135 318.771 92.2586 339C92.5486 343.14 99.0286 343.17 98.7486 339Z" fill="#2B2C2B"/>
<path d="M242.258 320.28C237.468 312.12 228.258 299.28 226.858 288.46C225.458 277.64 225.558 266.46 222.038 256.16C218.518 245.86 210.208 236.16 199.338 235.16C187.078 234.06 176.338 244.51 172.018 256.03C167.698 267.55 167.778 280.19 165.958 292.37C164.138 304.55 159.568 317.43 149.098 323.91C142.448 328 134.228 329 127.518 333C119.518 337.79 114.638 346.33 111.148 354.93C105.258 369.44 102.498 385.44 104.888 400.93C107.278 416.42 115.118 431.28 127.598 440.73C135.908 447.03 145.848 450.73 155.598 454.34C165.788 458.11 176.288 461.93 187.148 461.68C195.631 461.486 203.873 458.817 210.858 454C218.478 448.7 224.228 441.07 231.798 435.71C238.858 430.71 247.508 427.65 252.998 420.97C259.078 413.57 259.998 403.27 259.868 393.7C259.498 368.31 255.098 342.15 242.258 320.28Z" fill="#FFC736"/>
<path d="M245.059 318.64C240.059 310.19 233.919 301.95 231.059 292.44C227.809 281.61 229.159 269.76 226.209 258.76C221.839 242.47 206.779 226.4 188.619 233.59C169.149 241.3 165.789 263.59 163.949 281.82C162.949 292.11 161.659 302.82 156.239 311.82C149.849 322.47 139.189 323.74 128.839 328.65C110.839 337.16 103.629 361.2 101.429 379.37C98.9488 399.83 104.119 421.37 118.429 436.75C125.359 444.2 134.139 449.18 143.429 453.08C153.999 457.51 165.169 462.08 176.499 464.02C186.73 465.967 197.315 464.616 206.729 460.16C216.089 455.64 222.499 447.58 230.279 440.99C238.709 433.86 250.279 430.63 256.809 421.31C263.109 412.31 263.389 400.73 263.079 390.2C262.349 365.37 257.619 340.35 245.079 318.63C242.999 315.01 237.389 318.28 239.479 321.9C249.639 339.56 254.479 359.59 256.009 379.78C256.739 389.23 257.639 399.53 255.299 408.78C252.709 419.04 245.299 423.78 236.699 428.78C228.839 433.31 222.699 439.18 216.109 445.35C208.439 452.55 199.539 457.59 188.869 458.35C178.199 459.11 167.989 455.41 158.199 451.83C148.689 448.34 138.969 444.83 130.649 438.94C114.649 427.54 107.029 407.52 107.299 388.34C107.566 377.756 109.709 367.304 113.629 357.47C117.049 348.63 121.969 339.58 130.629 334.97C138.459 330.81 147.369 329.82 154.379 323.97C160.489 318.89 164.289 311.57 166.639 304.09C172.209 286.38 168.059 265.09 179.229 249.3C184.969 241.2 194.979 235.36 204.789 239.86C214.599 244.36 219.059 255 220.999 264.9C222.999 275.47 221.999 286.83 225.829 297C229.209 305.92 234.659 313.77 239.509 321.92C241.589 325.5 247.199 322.24 245.059 318.64Z" fill="#FFC736"/>
<path d="M226.77 393.09C238.28 382.02 237.77 365.25 233.59 350.99C230.85 341.58 227.16 332.48 224.52 322.99C221.925 313.698 219.898 304.258 218.45 294.72C216.94 284.8 216.55 274.92 215.91 264.93C215.5 258.45 212.82 250.51 204.91 250.75C197.79 250.97 194.33 257.53 192.13 263.37C188.639 272.801 185.916 282.499 183.99 292.37C183.17 296.45 189.42 298.19 190.24 294.09C191.714 286.688 193.611 279.376 195.92 272.19C196.921 268.697 198.198 265.29 199.74 262C202.22 257.2 207.65 255.53 209.18 262.2C210.05 265.98 209.6 270.47 209.83 274.34C210.06 278.21 210.37 281.79 210.77 285.5C211.57 292.9 212.697 300.257 214.15 307.57C217.08 322.21 222.06 335.98 226.54 350.17C230.54 362.83 232.77 378.38 222.18 388.55C219.18 391.45 223.76 396.03 226.77 393.14V393.09Z" fill="#2B2C2B"/>
<path d="M182.239 255C178.819 271.71 176.439 289.11 171.239 305.38C168.843 313.09 164.865 320.215 159.559 326.3C155.219 331.3 150.499 335.92 146.559 341.3C138.369 352.57 137.079 366.49 142.339 379.3C147.769 392.54 159.129 401.99 172.049 407.57C184.639 413.01 204.159 419.23 213.909 405.86C216.369 402.48 210.749 399.24 208.309 402.59C202.549 410.48 190.549 407 182.809 404.65C174.809 402.21 166.899 398.52 160.429 393.08C147.629 382.32 140.669 363.65 149.689 348.29C153.689 341.54 159.529 336.2 164.589 330.29C169.557 324.599 173.468 318.066 176.139 311C179.139 303 180.739 294.51 182.459 286.15L188.459 256.66C189.289 252.59 183.039 250.84 182.209 254.94L182.239 255Z" fill="#2B2C2B"/>
<path d="M546.158 286C524.627 281.058 505.074 269.771 490.026 253.598C474.978 237.426 465.128 217.111 461.748 195.28C460.748 188.57 460.308 181.59 462.208 175.07C462.688 173.43 463.418 171.7 464.908 170.86C465.734 170.476 466.648 170.322 467.555 170.413C468.461 170.505 469.326 170.839 470.058 171.38C471.509 172.479 472.747 173.835 473.708 175.38C498.781 210.713 522.855 246.743 545.928 283.47" fill="#FFC736"/>
<path d="M440.229 137.48C444.829 181.415 454.38 224.69 468.699 266.48C483.279 308.82 502.629 349.43 520.899 390.25L536.579 425.25C540.449 433.89 543.989 443.25 553.669 446.6C559.329 448.6 561.769 439.6 556.139 437.6C548.649 435 545.469 422.45 542.599 416.02L529.319 386.5C520.539 366.86 511.669 347.26 503.019 327.56C485.919 288.56 471.019 248.93 461.339 207.44C455.958 184.373 452.01 160.995 449.519 137.44C448.899 131.55 439.589 131.44 440.229 137.44V137.48Z" fill="#F04B24"/>
<path d="M458.529 114.95C441.039 130.81 452.769 156.57 465.019 171.58C472.549 180.81 481.129 189.1 488.539 198.44C496.619 208.807 504.088 219.635 510.909 230.87C524.619 253.02 537.009 275.95 550.469 298.25C564.729 321.863 579.625 345.073 595.159 367.88C602.479 378.63 609.499 390.1 617.859 400.08C623.969 407.37 635.599 411.89 641.859 402.01C647.269 393.47 644.349 381.4 642.759 372.19C640.283 358.739 636.783 345.497 632.289 332.58C623.939 307.78 614.289 283.24 604.289 259.09C594.369 235.28 583.289 211.85 568.949 190.32C557.059 172.44 543.449 155.32 526.429 142.09C507.829 127.59 486.039 118.63 463.069 113.76C457.239 112.52 454.739 121.48 460.599 122.76C479.799 126.84 498.209 133.67 514.469 144.82C528.469 154.42 540.309 166.93 550.529 180.41C578.529 217.33 595.409 260.53 611.769 303.47C620.399 326.12 629.079 348.95 633.479 372.88C634.089 376.22 639.409 403.05 629.079 397.88C624.659 395.67 621.639 389.72 618.929 385.88C615.082 380.447 611.272 374.987 607.499 369.5C579.619 328.99 554.499 286.95 529.849 244.5C516.799 222.05 502.929 199.88 485.479 180.5C477.309 171.43 468.149 162.8 462.929 151.57C458.419 141.86 456.399 129.49 465.119 121.57C469.539 117.49 462.999 110.93 458.529 114.95Z" fill="#F04B24"/>
<path d="M523.999 180.88C548.045 206.299 567.25 235.894 580.669 268.21C582.239 272.01 588.519 270.35 586.919 266.49C573.134 233.121 553.362 202.555 528.579 176.3C525.709 173.3 521.129 177.85 523.989 180.89L523.999 180.88Z" fill="#F04B24"/>
<path d="M525.109 205C535.075 216.672 543.987 229.204 551.739 242.45C553.849 246.05 559.459 242.79 557.339 239.18C549.289 225.469 540.039 212.498 529.699 200.42C526.979 197.24 522.409 201.85 525.109 205.01V205Z" fill="#F04B24"/>
<path d="M432.188 173.58C432.531 194.373 435.869 215.009 442.098 234.85C443.348 238.85 449.608 237.12 448.348 233.13C442.272 213.849 439.012 193.792 438.668 173.58C438.598 169.41 432.108 169.4 432.178 173.58H432.188Z" fill="#F04B24"/>
<path d="M421.09 181.24C419.31 193.237 419.741 205.458 422.36 217.3C423.26 221.37 429.52 219.65 428.61 215.58C426.217 204.887 425.787 193.847 427.34 183C427.93 178.92 421.68 177.15 421.09 181.28V181.24Z" fill="#F04B24"/>
<path d="M523.349 288.42C531.209 286.35 537.859 292.1 543.199 297.31C549.919 303.86 554.729 312.07 559.779 319.9L595.999 376.07C604.639 389.48 616.689 416.52 637.249 409.63C656.599 403.14 649.769 376.56 646.699 362.12C638.229 322.29 621.119 284.12 604.989 246.86C590.079 212.46 572.359 178.45 545.629 151.64C532.339 138.322 517.196 126.992 500.669 118C492.558 113.459 484.078 109.612 475.319 106.5C466.319 103.45 456.449 104.75 451.319 113.5C449.489 116.61 448.989 120.26 447.389 123.43C445.789 126.6 442.989 126.82 439.809 127.68C431.837 129.76 424.512 133.799 418.499 139.43C406.089 151.1 399.869 168.38 399.599 185.17C399.259 205.94 406.969 225.67 415.239 244.35C423.639 263.35 433.309 281.69 443.399 299.8C464.659 337.98 486.799 375.69 508.549 413.59L525.329 442.83C529.709 450.45 533.719 460.83 541.929 465.13C550.139 469.43 558.929 464.77 562.529 456.83C566.379 448.23 566.079 437.37 566.199 428.13C566.739 386.53 554.469 345.97 540.129 307.36C536.539 297.68 532.789 288.07 529.019 278.46C527.419 274.39 523.589 271.55 519.019 272.8C515.139 273.87 511.749 278.67 513.359 282.8C527.219 318.18 541.129 354.05 547.219 391.74C550.059 409.33 551.949 429.14 548.769 446.81C548.589 447.81 548.169 448.81 548.009 449.81C548.009 449.92 547.279 451.03 547.309 451.06C547.339 451.09 550.069 449.58 549.509 450.9C549.509 451 543.989 442.83 543.739 442.4L528.439 415.74C508.439 380.94 488.462 346.137 468.509 311.33C459.149 294.96 449.889 278.52 441.359 261.69C432.829 244.86 424.439 227.85 419.359 209.79C415.029 194.44 413.599 177.43 421.129 162.79C424.129 156.98 428.219 151.5 433.719 147.79C440.159 143.5 448.129 143.38 454.539 139.21C457.688 137.139 460.18 134.211 461.719 130.77C462.779 128.46 463.399 123.32 465.299 121.62C468.299 118.93 479.469 125.46 482.799 127.03C498.081 134.179 512.286 143.436 524.999 154.53C550.729 177.09 568.459 206.48 582.909 237.16C590.259 252.78 596.809 268.77 603.339 284.75C610.569 302.44 617.749 320.18 623.529 338.41C626.449 347.63 629.019 356.97 631.029 366.41C632.589 373.72 635.029 382.29 634.109 389.84C633.189 397.39 627.349 393.57 624.109 389.51C618.369 382.37 613.869 373.89 608.909 366.19L575.909 315.05C566.439 300.36 557.239 284.86 541.679 275.81C538.299 273.798 534.546 272.495 530.647 271.979C526.748 271.463 522.785 271.746 518.999 272.81C508.999 275.44 513.239 291.08 523.349 288.42Z" fill="#2B2C2B"/>
</svg>
