<svg width="128" height="112" viewBox="0 0 128 112" fill="none" xmlns="http://www.w3.org/2000/svg">
<path d="M80.1624 47.8948L73.527 50.8914L72.2427 51.4693L66.517 47.7021L57.6191 53.1132L62.3709 63.9888L69.413 65.119L74.3147 57.6274L81.5644 55.35L81.9218 55.2365L81.239 52.882C76.9752 54.2648 74.7577 54.7578 74.5865 54.3611C74.4038 53.9416 76.515 52.5246 80.9201 50.1102L80.1624 47.8948Z" fill="#FFC736" stroke="#FFC736" stroke-width="2.59" stroke-miterlimit="10"/>
<path d="M64.1108 68.3061L69.6074 68.2119L72.7475 79.3423L60.1895 80.5559L64.1108 68.3125" fill="#FFC736"/>
<path d="M64.1108 68.3061L69.6074 68.2119L72.7475 79.3423L60.1895 80.5559L64.1108 68.3125" stroke="#FFC736" stroke-width="2.59" stroke-miterlimit="10"/>
<path d="M60.0592 84.4405L73.1395 84.2051L65.7207 97.5872L58.1777 91.9128L60.0592 84.4405Z" fill="#FFC736" stroke="#FFC736" stroke-width="2.59" stroke-miterlimit="10"/>
<path d="M55.563 93.6128L61.2609 98.3218L53.9299 106.67C53.0737 103.543 52.2175 100.417 51.3613 97.2922L55.563 93.6128Z" fill="#FFC736" stroke="#FFC736" stroke-width="2.59" stroke-miterlimit="10"/>
<path d="M41.1579 92.5425L49.5699 97.0738C49.6697 99.6252 49.7696 102.177 49.8695 104.728L40.7384 102.326L43.5081 100.689L38.3496 96.0357L44.0967 96.2369L41.1579 92.5425Z" fill="#FFC736" stroke="#FFC736" stroke-width="2.59" stroke-miterlimit="10"/>
<path d="M43.8688 38.1171C43.2845 33.7378 43.186 29.2921 43.1946 24.8806C43.1946 21.1027 44.0893 16.1668 41.6963 12.8941C38.8366 8.95776 33.8151 10.2891 30.2727 12.4339C26.6664 14.6513 23.2875 17.2187 20.1847 20.0988C13.9549 25.8117 8.84345 32.6348 5.11168 40.2191C4.17631 42.1412 3.1232 44.1682 2.69511 46.2915C2.4482 47.4501 2.41411 48.6439 2.59451 49.8147C2.74434 50.81 2.92842 51.6983 2.52174 52.6572C2.21565 53.3786 1.72121 54.0228 1.34021 54.7056C0.810362 55.6386 0.433158 56.6502 0.222892 57.7023C-0.126002 59.4874 -0.168811 62.0067 0.865027 63.5928C1.63345 64.7743 3.04615 65.7333 4.13564 66.5894C4.40748 66.8035 4.2448 66.5038 4.13564 66.3583C4.12066 66.3369 3.99651 66.4332 4.12279 66.3583C4.04747 66.456 3.98153 66.5606 3.92587 66.6708C3.65832 67.0004 3.01618 67.741 2.66729 68.214C1.66342 69.5989 1.28242 71.3905 2.02515 72.9872C2.68227 74.4149 3.95156 75.5194 4.96827 76.6774C5.30861 77.0605 5.81375 77.6684 5.94218 77.9895C6.05134 78.257 5.95716 77.692 5.97215 78.0879C5.9772 78.2571 5.95992 78.4263 5.92077 78.591C5.80924 79.0689 5.66111 79.5377 5.4777 79.9929C4.83557 81.8209 4.55089 83.7815 6.14124 85.2242C6.80692 85.8278 7.63956 86.166 8.49574 86.4079C9.25132 86.6219 10.1524 86.6947 10.7411 87.2641C11.2633 87.7692 11.5459 88.5226 11.929 89.1284C12.3978 89.8668 12.965 90.586 13.7291 91.0398C15.4287 92.048 17.2973 91.515 18.8962 90.5989C19.7331 90.1173 21.0516 88.8737 21.9292 89.5586C22.5714 90.0531 22.9331 90.8429 23.5474 91.3759C23.9952 91.7778 24.5266 92.0754 25.1032 92.2471C25.6799 92.4189 26.2875 92.4605 26.8822 92.369C27.8984 92.1855 28.8501 91.7432 29.6455 91.0848C30.4097 90.4854 31.0561 89.6549 31.9059 89.1755C33.3806 88.3428 35.4911 89.4067 37.0429 89.5394C38.9223 89.702 40.7802 88.8972 41.6171 87.1421C42.0452 86.2623 42.1501 85.3034 42.195 84.3402C42.2335 83.5225 42.1308 82.5936 42.4497 81.8166C42.9228 80.6608 44.5538 80.4424 45.6326 80.1984C47.1887 79.8431 48.8069 79.5113 50.1275 78.5653C50.9367 77.9795 51.5814 77.1952 51.9994 76.288C52.4174 75.3807 52.5947 74.3811 52.5141 73.3854C52.3771 71.2449 51.506 69.2286 50.5149 67.3621C49.9349 66.2684 48.0299 63.8454 49.6588 62.8865C50.4058 62.4477 51.2277 62.2721 51.9062 61.6964C52.5745 61.1049 53.0132 60.2972 53.1456 59.4146C53.4795 57.5824 53.0236 55.6132 52.3301 53.9137C51.6002 52.1221 50.4165 50.5831 49.3334 48.9906C48.0706 47.1627 46.8077 45.3262 45.7653 43.3591C44.8025 41.586 44.151 39.661 43.8389 37.6676C43.6998 36.7408 42.5289 36.2293 41.6984 36.4562C40.7053 36.7301 40.3478 37.6612 40.4869 38.5966C41.0927 42.6635 43.2695 46.2444 45.5384 49.5857C47.2508 52.1114 50.1917 55.2236 49.7872 58.5756C49.7208 59.1214 49.6031 59.1342 49.1044 59.3675C48.2974 59.7443 47.4905 60.0097 46.8548 60.6711C45.3886 62.2079 45.2837 64.3248 46.0542 66.2127C46.8248 68.1006 48.0063 69.7145 48.6421 71.6281C49.0573 72.8802 49.4982 74.6611 48.2867 75.6371C47.2315 76.4933 45.6155 76.6303 44.3397 76.9342C42.9014 77.2767 41.4437 77.7626 40.3649 78.82C39.0207 80.1364 38.8024 81.9557 38.7467 83.743C38.7039 85.1343 38.7082 86.2538 37.0472 86.0654C35.2792 85.8663 33.6353 85.1728 31.8267 85.5324C29.8639 85.922 28.8429 87.4695 27.2889 88.5291C26.6018 88.9978 26.193 89.1412 25.6194 88.559C25.0457 87.9768 24.6262 87.2897 23.9819 86.7718C22.5264 85.6031 20.7841 85.7015 19.168 86.4507C18.5024 86.7632 17.8838 87.1742 17.2587 87.5423C16.8563 87.7756 16.2335 88.223 15.7604 88.1481C15.3323 88.0817 15.0841 87.6258 14.8679 87.2705C14.4184 86.532 14.0224 85.7722 13.4616 85.1129C12.8854 84.4445 12.1489 83.9333 11.3211 83.6274C10.5356 83.3171 9.66229 83.24 8.88958 82.9061C8.46149 82.722 8.40584 82.707 8.40798 82.2854C8.40798 81.4891 8.99232 80.573 9.19781 79.8024C9.6259 78.1992 9.41185 76.8058 8.43153 75.4637C7.53254 74.2523 6.35529 73.2655 5.48198 72.039C4.88051 71.1978 5.13309 70.6178 5.88653 69.7273C6.74271 68.7235 7.67809 67.6768 7.59889 66.2641C7.51541 64.7123 6.24398 63.7705 5.12453 62.8886C4.69644 62.5483 3.97082 62.0324 3.74822 61.6728C3.81671 61.782 3.88306 62.0174 3.79316 61.6493C3.72253 61.3582 3.65832 61.0649 3.60266 60.7695C3.52675 60.3753 3.48948 59.9745 3.49136 59.573C3.50849 57.7451 4.43744 56.4373 5.28078 54.909C6.31676 53.034 6.32104 51.3558 6.01924 49.2882C5.71743 47.2205 6.58432 45.3305 7.41481 43.5089C8.24531 41.6874 9.14858 39.9365 10.1353 38.2156C12.0598 34.8448 14.2857 31.6554 16.7857 28.6863C19.3036 25.6898 22.0797 22.9201 25.0821 20.4092C26.5818 19.162 28.1394 17.9898 29.7547 16.8924C31.3023 15.8372 32.9097 14.7027 34.7056 14.1098C36.1504 13.6368 37.8563 13.4805 38.8666 14.8483C39.8084 16.1326 39.8106 17.9969 39.802 19.5038C39.7763 23.8339 39.6693 28.1491 39.8983 32.4792C39.9968 34.3585 40.1466 36.2378 40.397 38.1043C40.5212 39.0333 41.1055 39.8402 42.1329 39.8402C42.9741 39.8509 43.993 39.0525 43.8688 38.1171Z" fill="#FFC736"/>
<path d="M9.91939 55.0844C9.67351 51.2387 10.2506 47.3847 11.6122 43.7797C12.9739 40.1747 15.0887 36.9015 17.8155 34.1786C20.733 31.2847 24.6414 28.6134 28.8667 28.3716C30.8272 28.2343 32.7795 28.7351 34.4319 29.7993C36.2255 30.9979 37.1502 32.8922 37.5933 34.9535C38.4816 39.0888 37.8073 43.6394 40.7547 47.0813C41.3369 47.7619 42.3151 46.7752 41.7372 46.0988C38.7663 42.6248 39.905 37.5263 38.6336 33.4273C37.4242 29.5338 34.0102 27.1858 29.9883 26.9803C25.5704 26.7555 21.3837 29.1828 18.1494 31.9804C14.8889 34.8418 12.3268 38.4116 10.6594 42.4164C8.99208 46.4212 8.26374 50.7546 8.53024 55.0844C8.59231 55.9706 9.97933 55.977 9.91939 55.0844Z" fill="#FFC736"/>
<path d="M40.6361 51.0779C39.6108 49.3313 37.6394 46.583 37.3398 44.267C37.0401 41.951 37.0615 39.558 36.3081 37.3533C35.5546 35.1487 33.7759 33.0724 31.4493 32.8584C28.8251 32.6229 26.5262 34.8597 25.6015 37.3255C24.6769 39.7913 24.694 42.4968 24.3044 45.1039C23.9149 47.711 22.9367 50.4679 20.6956 51.8549C19.2722 52.7303 17.5128 52.9444 16.0765 53.8006C14.3642 54.8258 13.3196 56.6538 12.5726 58.4946C11.3119 61.6004 10.7211 65.0251 11.2327 68.3406C11.7443 71.6562 13.4224 74.8369 16.0937 76.8596C17.8724 78.2081 20 79.0001 22.0869 79.7728C24.268 80.5798 26.5155 81.3974 28.84 81.3439C30.6558 81.3024 32.4198 80.731 33.9151 79.7C35.5461 78.5656 36.7768 76.9324 38.3972 75.7851C39.9083 74.7149 41.7598 74.0599 42.9349 72.6301C44.2363 71.0462 44.4332 68.8415 44.4054 66.7931C44.3262 61.3585 43.3844 55.7591 40.6361 51.0779Z" fill="#FFC736"/>
<path d="M41.2363 50.7266C40.1661 48.9179 38.8518 47.1541 38.2397 45.1186C37.544 42.8005 37.833 40.264 37.2015 37.9095C36.2662 34.4227 33.0426 30.983 29.1556 32.522C24.9881 34.1723 24.2689 38.9434 23.8751 42.8454C23.661 45.0479 23.3849 47.3404 22.2248 49.2668C20.857 51.5464 18.5753 51.8182 16.36 52.8691C12.5071 54.6907 10.9639 59.8363 10.493 63.7255C9.96214 68.1049 11.0688 72.7154 14.1317 76.0074C15.6151 77.6021 17.4944 78.668 19.4829 79.5028C21.7453 80.451 24.1362 81.4292 26.5613 81.8444C28.7513 82.2613 31.017 81.972 33.0319 81.0182C35.0354 80.0507 36.4074 78.3255 38.0727 76.915C39.8771 75.3888 42.3536 74.6975 43.7513 72.7026C45.0998 70.7762 45.1597 68.2975 45.0934 66.0436C44.9371 60.7289 43.9247 55.3735 41.2406 50.7244C40.7954 49.9496 39.5946 50.6495 40.0419 51.4243C42.2166 55.2044 43.2526 59.4917 43.5801 63.8133C43.7363 65.836 43.929 68.0407 43.4281 70.0206C42.8737 72.2167 41.2877 73.2313 39.4469 74.3015C37.7645 75.2711 36.4502 76.5276 35.0397 77.8482C33.3979 79.3893 31.4929 80.4681 29.2091 80.6308C26.9252 80.7935 24.7398 80.0015 22.6443 79.2352C20.6087 78.4882 18.5282 77.7369 16.7474 76.4762C13.3226 74.0361 11.6916 69.7509 11.7494 65.6455C11.8065 63.3802 12.2653 61.1429 13.1043 59.0379C13.8364 57.1458 14.8895 55.2087 16.7431 54.2219C18.4191 53.3315 20.3262 53.1196 21.8267 51.8674C23.1345 50.7801 23.9479 49.2133 24.4509 47.6122C25.6431 43.8215 24.7548 39.2644 27.1457 35.8847C28.3743 34.1509 30.5169 32.9009 32.6167 33.8641C34.7165 34.8273 35.6711 37.1047 36.0864 39.2238C36.5144 41.4862 36.3004 43.9178 37.1202 46.0946C37.8437 48.0039 39.0102 49.6842 40.0483 51.4286C40.4935 52.1949 41.6943 51.4971 41.2363 50.7266Z" fill="#FFC736"/>
<path d="M37.3211 66.6622C39.7848 64.2927 39.6756 60.7032 38.7809 57.6509C38.1944 55.6367 37.4046 53.6889 36.8395 51.6576C36.2842 49.6688 35.8503 47.648 35.5403 45.6066C35.2171 43.4832 35.1336 41.3685 34.9966 39.2301C34.9088 37.8431 34.3352 36.1436 32.6421 36.195C31.1181 36.2421 30.3775 37.6462 29.9066 38.8962C29.1593 40.9149 28.5766 42.9908 28.1643 45.1035C27.9888 45.9768 29.3265 46.3493 29.5021 45.4717C29.8176 43.8873 30.2235 42.3222 30.7178 40.7841C30.9321 40.0365 31.2055 39.3072 31.5355 38.603C32.0663 37.5756 33.2286 37.2181 33.5561 38.6458C33.7423 39.4549 33.646 40.416 33.6952 41.2443C33.7444 42.0727 33.8108 42.8389 33.8964 43.6331C34.0676 45.217 34.3088 46.7916 34.6199 48.357C35.247 51.4907 36.313 54.4381 37.2719 57.4754C38.1281 60.1852 38.6054 63.5136 36.3387 65.6904C35.6965 66.3111 36.6768 67.2915 37.3211 66.6729V66.6622Z" fill="#FF76B8"/>
<path d="M27.7899 37.1046C27.0579 40.6813 26.5484 44.4057 25.4354 47.8882C24.9225 49.5384 24.071 51.0635 22.9354 52.366C22.0064 53.4362 20.9961 54.4251 20.1528 55.5767C18.3997 57.989 18.1236 60.9685 19.2495 63.7104C20.4118 66.5443 22.8433 68.5671 25.6088 69.7615C28.3036 70.9259 32.4818 72.2572 34.5687 69.3954C35.0953 68.672 33.8923 67.9785 33.3701 68.6955C32.1372 70.3843 29.5686 69.6394 27.9119 69.1364C26.1996 68.6142 24.5065 67.8243 23.1216 66.6599C20.3818 64.3568 18.892 60.3606 20.8227 57.0729C21.6789 55.628 22.9289 54.485 24.012 53.22C25.0753 52.0019 25.9125 50.6036 26.4842 49.0911C27.1264 47.3787 27.4688 45.5615 27.837 43.7721L29.1213 37.4599C29.2989 36.5887 27.9611 36.2142 27.7835 37.0917L27.7899 37.1046Z" fill="#FF76B8"/>
<path d="M105.685 43.7404C101.076 42.6826 96.8908 40.2667 93.6699 36.805C90.449 33.3433 88.3405 28.995 87.6171 24.3222C87.4031 22.886 87.3089 21.392 87.7156 19.9964C87.8183 19.6454 87.9746 19.2751 88.2935 19.0953C88.4703 19.0131 88.666 18.98 88.86 18.9996C89.0539 19.0192 89.2391 19.0907 89.3959 19.2066C89.7065 19.4417 89.9713 19.7319 90.1771 20.0627C95.5439 27.6257 100.697 35.3377 105.635 43.1989" fill="#FFC736"/>
<path d="M84.2097 10.2401C81.6647 9.21913 79.0448 11.3103 77.5101 13.1554C75.8091 15.2472 74.7109 17.7634 74.3336 20.433C73.4026 26.6638 76.046 32.6977 79.2717 37.8712C82.6964 43.3636 86.4572 48.6077 89.7149 54.2114C93.0498 59.9478 96.1085 65.8405 98.9831 71.8209C99.7879 73.4948 100.573 75.1793 101.357 76.8638C101.999 78.2209 102.716 79.6464 104.084 80.3977C105.265 81.0398 106.847 81.1019 107.909 80.1837C109.011 79.2376 109.167 77.75 109.174 76.3844C109.174 75.1001 107.19 75.1001 107.185 76.3844C107.185 77.4332 107.121 79.1477 105.608 78.848C104.281 78.5847 103.658 77.1014 103.146 76.0076C101.971 73.4905 100.792 70.9754 99.5674 68.4818C97.0824 63.4196 94.456 58.4217 91.6306 53.5457C88.8481 48.7319 85.7893 44.1149 82.6985 39.4958C79.6891 35.0009 76.7181 30.1057 76.2023 24.594C75.9433 21.8392 76.3435 18.9946 77.6385 16.5245C78.6295 14.6388 81.151 11.1434 83.6789 12.158C84.8668 12.6353 85.3912 10.711 84.2076 10.2316L84.2097 10.2401Z" fill="#FFC736"/>
<path d="M83.0107 11.9503C83.9953 21.3544 86.0396 30.6171 89.1045 39.5621C92.2253 48.6248 96.3671 57.3171 100.278 66.0545L103.634 73.546C104.462 75.3954 105.22 77.3989 107.292 78.1159C108.503 78.544 109.026 76.6176 107.821 76.1895C106.217 75.633 105.537 72.9467 104.922 71.5704L102.08 65.2518C100.201 61.0479 98.302 56.8527 96.4505 52.636C92.7904 44.2882 89.6011 35.8056 87.5291 26.9249C86.3774 21.9875 85.5324 16.9835 84.9991 11.9417C84.8664 10.681 82.8737 10.6574 83.0107 11.9417V11.9503Z" fill="#FFC736"/>
<path d="M86.9276 7.12751C83.1839 10.5223 85.6947 16.0361 88.3167 19.2489C89.9285 21.2245 91.765 22.999 93.3511 24.9981C95.0805 27.2171 96.6793 29.5348 98.1393 31.9396C101.074 36.6807 103.726 41.5888 106.607 46.362C109.659 51.4163 112.848 56.3843 116.173 61.266C117.739 63.5669 119.242 66.022 121.031 68.1582C122.339 69.7186 124.829 70.6861 126.168 68.5713C127.326 66.7434 126.701 64.1598 126.361 62.1885C125.831 59.3094 125.082 56.475 124.12 53.7102C122.333 48.4018 120.267 43.1492 118.127 37.98C116.003 32.8836 113.632 27.8685 110.562 23.2601C108.017 19.433 105.104 15.7685 101.461 12.9367C97.48 9.83304 92.816 7.91519 87.8994 6.87279C86.6515 6.60738 86.1164 8.52522 87.3707 8.7992C91.4803 9.6725 95.4209 11.1344 98.9013 13.521C101.898 15.5759 104.432 18.2536 106.62 21.1389C112.613 29.0415 116.226 38.2882 119.728 47.4793C121.575 52.3274 123.433 57.2141 124.375 62.3362C124.505 63.0511 125.644 68.7939 123.433 67.6873C122.487 67.2143 121.841 65.9407 121.26 65.1188C120.437 63.9558 119.622 62.7871 118.814 61.6127C112.846 52.9417 107.47 43.9433 102.193 34.8571C99.4 30.0517 96.4312 25.3064 92.6961 21.1582C90.9474 19.2168 88.9867 17.3696 87.8694 14.9658C86.904 12.8875 86.4717 10.2397 88.3381 8.54448C89.2842 7.67118 87.8844 6.26704 86.9276 7.12751Z" fill="#FFC736"/>
<path d="M100.942 21.2398C106.089 26.6807 110.2 33.0154 113.072 39.9324C113.408 40.7458 114.752 40.3905 114.41 39.5643C111.459 32.4218 107.227 25.8793 101.922 20.2595C101.308 19.6174 100.328 20.5913 100.94 21.242L100.942 21.2398Z" fill="#FFC736"/>
<path d="M101.178 26.4025C103.311 28.9008 105.219 31.5833 106.878 34.4185C107.33 35.1891 108.531 34.4913 108.077 33.7186C106.354 30.7838 104.374 28.0075 102.161 25.4222C101.579 24.7415 100.6 25.7283 101.178 26.4046V26.4025Z" fill="#FFC736"/>
<path d="M81.2894 19.6771C81.3628 24.1278 82.0772 28.5447 83.4106 32.7916C83.6781 33.6478 85.018 33.2775 84.7483 32.4235C83.4478 28.2965 82.7499 24.0034 82.6764 19.6771C82.6614 18.7845 81.2722 18.7824 81.2872 19.6771H81.2894Z" fill="#FFC736"/>
<path d="M78.9139 21.317C78.533 23.8849 78.6252 26.5008 79.1857 29.0355C79.3784 29.9067 80.7183 29.5385 80.5235 28.6673C80.0114 26.3785 79.9193 24.0156 80.2517 21.6938C80.3779 20.8205 79.0402 20.4416 78.9139 21.3256V21.317Z" fill="#FFC736"/>
<path d="M100.803 44.2581C102.485 43.8151 103.909 45.0458 105.052 46.161C106.49 47.563 107.52 49.3203 108.601 50.9963L116.353 63.0192C118.203 65.8895 120.782 71.6773 125.183 70.2026C129.324 68.8134 127.863 63.1241 127.205 60.0333C125.392 51.5078 121.73 43.3377 118.278 35.3624C115.086 27.9993 111.293 20.7196 105.572 14.981C102.727 12.1304 99.4859 9.70522 95.9484 7.78055C94.2123 6.80853 92.3972 5.98509 90.5223 5.31903C88.5959 4.66619 86.4833 4.94445 85.3852 6.81734C84.9935 7.48303 84.8865 8.26429 84.544 8.94281C84.2016 9.62134 83.6022 9.66843 82.9216 9.85251C81.2153 10.2977 79.6474 11.1623 78.3603 12.3675C75.704 14.8654 74.3726 18.5641 74.3148 22.158C74.242 26.6037 75.8923 30.8268 77.6625 34.8252C79.4605 38.892 81.5303 42.8176 83.69 46.694C88.2406 54.8662 92.9796 62.9379 97.635 71.0502L101.227 77.3088C102.164 78.9399 103.023 81.1617 104.78 82.0821C106.537 83.0025 108.419 82.005 109.189 80.3055C110.013 78.4647 109.949 76.1402 109.975 74.1624C110.09 65.2581 107.464 56.5764 104.395 48.3121C103.626 46.2402 102.824 44.1832 102.017 42.1262C101.674 41.2551 100.854 40.6472 99.8761 40.9147C99.0456 41.1438 98.32 42.1712 98.6646 43.0552C101.631 50.6281 104.609 58.3059 105.912 66.3733C106.52 70.1383 106.925 74.3786 106.244 78.1608C106.205 78.3748 106.116 78.5888 106.081 78.8029C106.081 78.8264 105.925 79.064 105.931 79.0704C105.938 79.0769 106.522 78.7537 106.402 79.0362C106.402 79.0576 105.221 77.3089 105.167 77.2168L101.892 71.5104C97.6115 64.0616 93.3356 56.6121 89.0647 49.1619C87.0612 45.658 85.0792 42.1391 83.2533 38.5367C81.4275 34.9343 79.6317 31.2934 78.5443 27.4278C77.6175 24.1422 77.3115 20.5013 78.9232 17.3676C79.5653 16.124 80.4408 14.9511 81.618 14.157C82.9965 13.2387 84.7024 13.213 86.0745 12.3204C86.7486 11.8773 87.2819 11.2504 87.6113 10.5139C87.8382 10.0195 87.9709 8.91927 88.3776 8.55539C89.0197 7.97961 91.4106 9.37732 92.1234 9.71338C95.3946 11.2437 98.4351 13.2251 101.156 15.5996C106.663 20.4285 110.458 26.7193 113.551 33.2862C115.125 36.6296 116.527 40.0521 117.924 43.4726C119.472 47.259 121.009 51.0562 122.246 54.9583C122.871 56.9317 123.421 58.9309 123.851 60.9515C124.185 62.5162 124.707 64.3506 124.511 65.9666C124.314 67.5826 123.064 66.765 122.37 65.896C121.141 64.3677 120.178 62.5526 119.117 60.9044L112.053 49.9582C110.026 46.8138 108.057 43.4961 104.726 41.559C104.003 41.1284 103.2 40.8494 102.365 40.739C101.531 40.6286 100.682 40.6891 99.8718 40.9169C97.7314 41.4798 98.6389 44.8275 100.803 44.2581Z" fill="#FFC736"/>
</svg>
