<svg width="681" height="681" viewBox="0 0 681 681" fill="none" xmlns="http://www.w3.org/2000/svg">
<path d="M283.739 147.17C216.659 150.78 150.799 187.4 112.869 242.84C74.9392 298.28 64.5192 371.63 85.5192 435.45C106.519 499.27 158.439 552.1 221.879 574.19C285.319 596.28 358.879 587.19 414.879 550.19C435.263 536.738 453.282 520.009 468.209 500.68C503.209 455.31 519.739 395.97 512.779 339.07C506.05 284.004 478.651 233.551 436.127 197.923C393.604 162.295 339.133 144.154 283.739 147.17Z" fill="#2B2C2B"/>
<path d="M283.739 147.17C216.659 150.78 150.799 187.4 112.869 242.84C74.9392 298.28 64.5192 371.63 85.5192 435.45C106.519 499.27 158.439 552.1 221.879 574.19C285.319 596.28 358.879 587.19 414.879 550.19C435.263 536.738 453.282 520.009 468.209 500.68C503.209 455.31 519.739 395.97 512.779 339.07C506.05 284.004 478.651 233.551 436.127 197.923C393.604 162.295 339.133 144.154 283.739 147.17Z" stroke="#FF76B8" stroke-width="30" stroke-miterlimit="10"/>
<path d="M283.739 147.17C216.659 150.78 150.799 187.4 112.869 242.84C74.9392 298.28 64.5192 371.63 85.5192 435.45C106.519 499.27 158.439 552.1 221.879 574.19C285.319 596.28 358.879 587.19 414.879 550.19C435.263 536.738 453.282 520.009 468.209 500.68C503.209 455.31 519.739 395.97 512.779 339.07C506.05 284.004 478.651 233.551 436.127 197.923C393.604 162.295 339.133 144.154 283.739 147.17Z" stroke="#FFC837" stroke-width="7" stroke-miterlimit="10"/>
<path d="M261.42 322C281.252 334.08 300.371 347.296 318.68 361.58C327.05 368.11 335.36 374.93 344.97 379.44C354.58 383.95 365.86 385.96 375.88 382.44C382.67 380.05 389 374.18 388.88 366.98C388.79 359.14 381.6 353.51 375.11 349.11C354.48 335.11 333.83 321.11 312.31 308.57C306.1 304.95 299.72 301.41 292.75 299.63C285.78 297.85 278.06 298 271.75 301.49C265.44 304.98 260.2 314.95 261.42 322Z" fill="#FFC837"/>
<path d="M259.999 324.5C281.929 337.91 302.649 352.83 322.999 368.5C338.569 380.5 361.559 394.63 381.339 383.05C388.669 378.76 393.839 370.6 390.969 362.05C387.889 352.82 377.829 347.46 370.289 342.35C349.449 328.24 328.469 313.12 305.949 301.75C295.579 296.51 282.949 293 271.879 298.29C263.499 302.29 257.489 312.75 258.609 322.02C259.039 325.62 264.759 325.67 264.319 322.02C263.259 313.22 269.459 304.35 277.959 302.15C288.129 299.52 298.299 303.95 307.039 308.81C325.039 318.81 342.339 330.4 359.459 341.92C367.259 347.17 377.269 352.13 383.139 359.64C390.299 368.82 382.199 377.94 372.769 380.42C352.329 385.79 334.149 369.97 319.259 358.42C301.209 344.431 282.397 331.454 262.909 319.55C259.719 317.65 256.849 322.59 259.999 324.5Z" fill="#FF76B8"/>
<path d="M378.338 358C374.84 355.825 370.887 354.486 366.787 354.087C362.687 353.688 358.55 354.24 354.698 355.7C348.698 357.98 340.168 364.1 343.308 371.56C346.628 379.44 358.668 378.8 365.558 377.92C373.238 376.92 380.728 371.74 380.318 363.27C380.138 359.61 374.428 359.59 374.608 363.27C374.928 369.71 368.408 372.06 363.028 372.44C359.218 372.71 344.818 373.36 349.738 365.62C351.968 362.12 357.898 360.22 361.738 359.77C366.532 359.227 371.367 360.342 375.438 362.93C378.578 364.87 381.438 359.93 378.318 358H378.338Z" fill="#FF76B8"/>
<path d="M393.57 472.56C374.098 461.236 355.305 448.781 337.29 435.26C329.03 429.06 320.83 422.58 311.46 418.45C302.09 414.32 291.24 412.74 281.8 416.63C275.4 419.27 269.58 425.36 269.94 432.53C270.33 440.34 277.42 445.69 283.8 449.83C304.06 462.99 324.35 476.17 345.42 487.83C351.5 491.21 357.73 494.5 364.42 496C371.11 497.5 378.53 497.07 384.42 493.36C390.31 489.65 395 479.58 393.57 472.56Z" fill="#FFC837"/>
<path d="M395 470.15C373.641 457.509 353.011 443.674 333.21 428.71C317.75 417.18 294.09 403.38 275.53 417.03C268.92 421.89 265.16 430.14 268.44 438.08C272.22 447.25 282.57 452.34 290.44 457.43C301.11 464.34 311.81 471.21 322.68 477.81C333.11 484.15 343.68 490.95 354.92 495.81C364.57 499.94 376.53 501.87 385.92 495.81C393.53 490.92 397.68 480.6 396.32 471.81C395.77 468.27 390.39 469.81 390.94 473.29C392.27 481.86 386.14 490.93 377.94 493.24C368.23 495.99 358.33 491.63 349.94 487.13C332.41 477.76 315.58 467 298.88 456.23C291.32 451.35 281.75 446.82 275.98 439.75C269.16 431.4 275.15 421.87 284.19 418.75C303.41 412.04 321.62 426.97 335.94 437.7C353.951 451.199 372.722 463.653 392.16 475C395.27 476.78 398.08 472 395 470.15Z" fill="#FF76B8"/>
<path d="M280.289 441C283.587 442.973 287.296 444.159 291.127 444.466C294.959 444.773 298.809 444.193 302.379 442.77C308.149 440.46 316.219 434.28 313.749 427.06C311.009 419.06 299.849 419.76 293.189 420.63C285.189 421.63 277.579 426.98 278.259 435.82C278.529 439.38 284.119 439.41 283.839 435.82C283.319 429.08 289.519 426.48 295.189 426.01C299.239 425.67 313.829 425.66 306.559 433.46C300.559 439.91 290.439 440.46 283.119 436.18C280.019 434.35 277.209 439.18 280.299 441H280.289Z" fill="#FF76B8"/>
<path d="M121.888 474.5C138.952 479.409 155.703 485.346 172.048 492.28C179.598 495.48 187.188 498.92 194.988 500.19C202.788 501.46 210.988 500.31 216.708 495.02C220.588 491.43 223.148 485.17 220.998 479.41C218.658 473.13 212.158 470.41 206.498 468.41C188.498 462.22 170.498 456.03 152.318 451.22C147.068 449.83 141.738 448.55 136.518 448.83C131.298 449.11 126.128 451.12 122.908 455.46C119.688 459.8 118.998 469.11 121.888 474.5Z" fill="#FFC837"/>
<path d="M121.299 476.66C141.189 482.41 160.159 490.01 179.299 497.74C192.529 503.08 213.569 507.62 221.939 491.79C223.513 488.962 224.179 485.718 223.848 482.499C223.517 479.279 222.205 476.239 220.089 473.79C215.189 468.26 207.279 466.37 200.559 464.07C190.339 460.57 180.109 457.07 169.779 453.96C160.699 451.18 151.229 447.83 141.779 446.84C134.209 446.04 125.609 447.74 120.989 454.39C116.829 460.39 116.989 469.27 119.989 475.67C121.219 478.27 125.069 476 123.849 473.41C119.789 464.8 123.339 454.1 132.919 451.66C142.009 449.35 152.469 453.52 161.139 456.03C171.139 458.94 181.139 462.18 191.029 465.52C198.879 468.17 209.889 470.03 216.029 475.98C224.639 484.31 216.099 495.49 206.779 497.77C197.039 500.16 187.019 496.18 178.149 492.48C159.989 484.726 141.402 478.012 122.479 472.37C119.719 471.54 118.539 475.86 121.299 476.66Z" fill="#FF76B8"/>
<path d="M211.588 475C208.777 474.127 205.79 473.988 202.91 474.597C200.03 475.207 197.355 476.543 195.138 478.48C191.138 481.98 187.358 489.03 191.138 493.94C195.138 499.21 202.748 496.55 207.668 494.14C213.498 491.29 216.948 484.97 214.368 478.67C213.288 476.04 208.958 477.19 210.058 479.86C211.788 484.07 209.938 487.95 205.958 490C203.018 491.52 194.268 495.16 194.068 489.12C193.958 485.72 197.298 482.06 199.978 480.44C201.538 479.52 203.276 478.943 205.076 478.749C206.877 478.554 208.698 478.745 210.418 479.31C213.188 480.12 214.368 475.81 211.608 475H211.588Z" fill="#FF76B8"/>
<path d="M261.749 268.33C246.55 281.165 232.112 294.875 218.509 309.39C212.279 316.04 206.139 322.92 198.619 327.97C191.099 333.02 181.859 336.11 173.009 334.27C167.009 333.02 161.009 328.71 160.139 322.49C159.249 315.71 164.589 309.98 169.499 305.4C185.109 290.84 200.739 276.27 217.279 262.85C222.059 258.97 226.979 255.15 232.619 252.78C238.259 250.41 244.769 249.61 250.489 251.87C256.209 254.13 261.899 262.06 261.749 268.33Z" fill="#FFC837"/>
<path d="M259.999 266.59C246.959 277.637 234.475 289.303 222.549 301.59C211.549 312.97 200.459 328.37 183.999 331.75C176.829 333.22 166.069 332.11 163.089 324.07C159.869 315.36 170.579 307.74 176.089 302.66C188.719 290.9 201.419 279.21 214.689 268.18C221.689 262.4 229.009 255.69 238.079 253.6C248.079 251.3 258.929 257.32 259.319 268.35C259.429 271.5 264.319 271.52 264.239 268.35C264.013 264.63 262.856 261.025 260.875 257.868C258.893 254.711 256.151 252.102 252.899 250.28C245.229 246.19 235.699 248.28 228.399 252.1C219.709 256.65 212.139 263.83 204.749 270.17C196.169 277.52 187.809 285.12 179.519 292.78C169.819 301.78 146.289 319.48 163.969 332.78C179.039 344.15 198.799 332.56 210.199 321.59C218.839 313.27 226.709 304.17 235.279 295.76C244.372 286.84 253.785 278.27 263.519 270.05C265.899 268 262.409 264.55 259.999 266.59Z" fill="#FF76B8"/>
<path d="M171.169 317.15C176.409 312.72 187.639 310.48 192.809 316.6C197.979 322.72 186.239 323.82 183.019 324.09C178.539 324.47 172.339 323.49 171.759 317.9C171.439 314.78 166.519 314.75 166.839 317.9C167.549 324.69 173.129 328.74 179.729 329.09C185.899 329.42 196.799 328.34 198.949 321.26C200.949 314.69 193.479 310.26 188.149 308.81C184.6 307.897 180.882 307.864 177.316 308.712C173.751 309.561 170.447 311.266 167.689 313.68C165.269 315.68 168.759 319.19 171.169 317.16V317.15Z" fill="#FF76B8"/>
<path d="M139.938 284.08C156.591 274.414 173.816 265.768 191.518 258.19C199.698 254.68 208.098 251.33 214.928 246.19C221.758 241.05 226.928 233.79 227.038 225.37C227.088 219.66 224.038 212.98 217.838 210.37C211.098 207.51 204.058 210.51 198.288 213.48C179.938 222.91 161.578 232.34 144.168 242.94C139.168 246 134.168 249.21 130.468 253.49C126.768 257.77 124.528 263.31 125.578 269.08C126.628 274.85 133.488 282.31 139.938 284.08Z" fill="#FFC837"/>
<path d="M141.159 286.18C159.949 275.31 179.429 266.18 199.299 257.49C213.299 251.37 232.059 240.49 229.219 222.24C228.169 215.48 223.539 209.31 216.799 207.42C207.399 204.78 198.169 210.79 190.189 214.91C180.469 219.91 170.769 224.97 161.189 230.27C151.989 235.37 142.249 240.36 133.959 246.89C127.129 252.27 121.309 260.56 123.229 269.71C124.839 277.41 132.019 284.04 139.229 286.43C142.229 287.43 143.479 282.72 140.519 281.75C133.649 279.5 127.019 272.33 127.819 264.75C128.719 256.18 136.349 250.65 143.089 246.41C157.669 237.24 172.999 229.22 188.279 221.31C195.419 217.61 203.559 211.77 211.849 211.65C221.059 211.51 225.929 220.92 224.139 229.07C220.719 244.71 202.249 250.91 189.359 256.47C171.991 263.983 155.078 272.507 138.709 282C135.999 283.55 138.449 287.75 141.159 286.18Z" fill="#FF76B8"/>
<path d="M207.328 214.36C204.534 215.902 202.186 218.141 200.512 220.858C198.839 223.576 197.897 226.681 197.778 229.87C197.588 235.67 200.428 243.94 207.198 244.55C214.668 245.23 218.658 236.16 219.988 230.16C220.756 227.033 220.342 223.732 218.827 220.891C217.312 218.049 214.803 215.866 211.778 214.76C208.878 213.61 207.608 218.3 210.488 219.44C215.258 221.33 216.198 226.09 214.848 230.56C214.312 232.526 213.483 234.401 212.388 236.12C209.768 239.59 205.758 240.12 203.898 236.18C200.738 229.55 203.648 222.11 209.788 218.55C212.488 216.98 210.048 212.78 207.338 214.36H207.328Z" fill="#FF76B8"/>
<path d="M346.699 552.18L277.009 556.18C262.209 557.03 247.289 557.87 232.649 555.18C226.809 554.1 220.949 552.42 215.849 548.88C210.353 545.115 206.503 539.391 205.089 532.88C203.719 526.05 205.769 518.1 210.749 514.33C214.839 511.23 220.019 511.33 224.859 511.45L342.279 515.34C345.029 515.43 347.869 515.54 350.379 516.89C356.059 519.94 358.299 528.74 356.669 535.89C355.039 543.04 351.579 547.58 346.699 552.18Z" fill="#FFC837"/>
<path d="M346.7 549L277 553C265.75 553.64 254.44 554.29 243.19 553.37C232.91 552.53 221.04 550.76 213.68 542.79C207.85 536.47 204.68 524 212.04 517.38C215.76 514.02 221.22 514.51 225.85 514.66L244.76 515.29L313.42 517.56L332.33 518.19C337.76 518.37 346.98 516.93 350.96 521.41C358.83 530.27 351.28 543.41 344.45 549.95C341.45 552.8 346 557.3 348.95 554.45C356.3 547.36 361.57 538.07 360.07 527.53C358.64 517.43 352.07 512.61 342.27 512.14C313.77 510.78 285.21 510.25 256.7 509.31L234.81 508.59C228.87 508.39 222.58 507.59 216.67 508.59C207.28 510.16 202.05 518.15 201.53 527.27C200.94 537.57 207.04 547.27 215.65 552.55C225.65 558.67 238.53 559.75 249.94 560.12C265.58 560.62 281.31 559.12 296.94 558.23L346.72 555.37C350.77 555.13 350.8 548.76 346.7 549Z" fill="#FF76B8"/>
<path d="M233.38 526.42C228.6 521.05 220.32 514.57 213.32 520.2C205.82 526.2 212.99 536.59 217.53 542.1C222.07 547.61 231.77 554.1 238.35 548.1C245.58 541.48 238.03 531.67 233.35 526.39C230.64 523.31 226.15 527.83 228.85 530.89C230.85 533.18 238.5 540.89 233.17 543.89C229.43 545.95 223.68 539.69 221.77 537.25C219.86 534.81 212.68 524.94 219.36 524.34C222.89 524.02 226.76 528.57 228.86 530.92C231.61 534 236.1 529.48 233.38 526.42Z" fill="#FF76B8"/>
<path d="M481.649 367L439.059 369.27C430.059 369.75 420.899 370.27 411.949 368.7C408.318 368.213 404.823 366.991 401.679 365.11C398.384 363.052 396.025 359.786 395.109 356.01C394.269 352.13 395.519 347.61 398.569 345.46C401.069 343.7 404.229 343.73 407.189 343.82L478.949 346C480.643 345.931 482.332 346.231 483.899 346.88C487.369 348.61 488.739 353.62 487.739 357.69C486.739 361.76 484.639 364.38 481.649 367Z" fill="#FFC837"/>
<path d="M481.648 365.12C465.188 366 448.728 367.12 432.268 367.72C424.268 368.03 415.628 368.26 407.898 365.86C403.638 364.54 399.808 362.18 397.838 358.03C395.868 353.88 396.568 347.65 401.758 346.03C405.238 344.96 409.618 345.76 413.178 345.87L426.178 346.27L450.998 347C459.628 347.27 468.278 347.41 476.908 347.8C481.908 348.02 486.248 349.33 486.128 355.15C486.048 359.48 483.308 362.85 480.268 365.62C478.478 367.25 481.138 369.9 482.918 368.27C487.008 364.54 490.308 359.66 489.828 353.87C489.398 348.69 486.278 344.94 481.078 344.25C472.568 343.12 463.548 343.63 454.968 343.36L427.068 342.5C419.068 342.25 410.068 340.74 402.148 342.08C396.978 342.96 393.628 346.79 393.018 351.97C391.308 366.67 408.568 370.7 419.598 371.39C429.908 372.04 440.328 371.02 450.598 370.47L481.598 368.82C484.058 368.75 484.068 365 481.648 365.12Z" fill="#FF76B8"/>
<path d="M412.348 352.3C409.348 349.17 404.348 345.55 400.178 348.75C395.638 352.21 400.038 358.21 402.768 361.31C405.498 364.41 411.498 368.22 415.388 364.74C419.718 360.88 415.178 355.29 412.388 352.3C410.728 350.54 408.068 353.2 409.738 354.95C410.968 356.25 415.578 360.49 412.348 362.22C410.178 363.38 406.688 360.06 405.458 358.65C404.458 357.47 399.738 351.46 403.888 351.23C406.078 351.11 408.368 353.52 409.738 354.95C411.368 356.71 413.998 354.05 412.348 352.3Z" fill="#FF76B8"/>
<path d="M454.949 279.1L393.189 291.1C380.069 293.64 366.849 296.19 353.479 295.88C348.149 295.76 342.719 295.15 337.769 292.96C332.819 290.77 328.349 286.8 326.359 281.52C324.369 276.24 325.299 269.62 329.359 265.98C332.659 262.98 337.289 262.38 341.629 261.9L446.889 250.23C449.359 249.96 451.889 249.69 454.289 250.45C459.709 252.17 462.689 258.93 462.049 264.84C461.409 270.75 458.789 274.81 454.949 279.1Z" fill="#FFC837"/>
<path d="M454.229 276.48L396.329 287.7C386.539 289.6 376.739 291.64 366.799 292.59C357.799 293.45 347.459 294.19 338.979 290.45C331.329 287.08 323.609 276.45 330.579 268.61C333.579 265.29 338.439 264.93 342.579 264.47L358.469 262.71L417.059 256.21L433.939 254.34C439.349 253.74 445.129 252.45 450.579 252.63C456.419 252.82 459.419 258.01 459.379 263.43C459.339 268.85 456.379 273.3 453.029 277.18C450.739 279.81 454.569 283.66 456.869 281.02C462.409 274.65 466.599 266.51 464.029 257.89C461.029 247.89 453.029 246.79 443.869 247.81L367.409 256.29L349.539 258.29C344.319 258.87 338.689 258.97 333.649 260.57C325.969 263.01 321.849 270.17 322.799 278.08C325.569 301.21 356.259 299.55 372.799 297.34C400.559 293.64 428.139 287.06 455.629 281.74C459.099 281.05 457.649 275.82 454.229 276.48Z" fill="#FF76B8"/>
<path d="M350.499 272.51C345.599 268.81 337.859 264.94 332.499 270.02C326.339 275.84 334.089 283.66 338.709 287.43C343.329 291.2 352.759 295.29 357.709 289.55C363.269 283.06 355.299 276.13 350.549 272.55C347.769 270.43 345.059 275.15 347.809 277.24C349.979 278.9 357.809 284.66 351.619 286.85C347.819 288.18 342.619 283.9 340.189 281.48C338.089 279.4 332.639 273.32 338.929 273.01C341.999 272.86 345.519 275.51 347.809 277.24C350.549 279.31 353.259 274.6 350.499 272.51Z" fill="#FF76B8"/>
<path d="M113.919 315.08C112.289 318.33 111.809 324.16 112.449 327.74C113.081 332.04 114.674 336.141 117.109 339.74C119.659 343.24 123.559 345.92 127.879 346.28C128.012 346.307 128.148 346.306 128.281 346.279C128.413 346.251 128.538 346.197 128.649 346.12C128.819 345.926 128.911 345.677 128.909 345.42L130.059 335C130.266 333.675 130.266 332.325 130.059 331C129.519 328.38 127.439 326.35 125.209 324.88C122.979 323.41 120.499 322.3 118.459 320.57C116.72 318.94 115.194 317.095 113.919 315.08Z" fill="#6ABD45"/>
<path d="M111.76 313.82C108.76 320.73 109.25 328.53 112 335.45C114.41 341.51 120.46 349.16 127.87 348.79C130.58 348.65 131.12 346.93 131.49 344.57C132.16 340.35 133.25 335.21 132.58 330.95C132.08 327.78 130.08 325.35 127.58 323.45C123.32 320.21 119.29 318.35 116.06 313.81C114.21 311.21 109.87 313.7 111.74 316.33C115.07 321.02 118.51 323.43 123.27 326.55C126.61 328.74 127.9 331.01 127.54 334.97C127.25 338.18 127.33 342.41 126.21 345.46L127.96 343.71C122.12 344.89 117.33 336.05 115.96 331.81C114.39 326.9 113.96 321.17 116.04 316.32C117.35 313.42 113 310.87 111.76 313.82Z" fill="#FF76B8"/>
<path d="M427.889 420.35C420.889 421.96 414.759 426.77 410.539 432.6C408.392 435.495 406.854 438.796 406.017 442.302C405.18 445.808 405.061 449.447 405.669 453C406.807 457.949 409.046 462.577 412.219 466.54C413.416 468.233 414.843 469.751 416.459 471.05C418.481 472.479 420.734 473.548 423.119 474.21C433.579 477.47 445.769 476.87 454.529 470.29C460.999 465.5 464.999 457.85 466.199 449.91C466.894 446.815 466.82 443.597 465.983 440.538C465.146 437.478 463.572 434.671 461.399 432.36C453.249 422.81 440.119 417.54 427.889 420.35Z" fill="#F04B24"/>
<path d="M427.149 417.68C414.239 421.1 403.579 432.94 402.549 446.44C401.549 459.55 410.499 473.44 423.129 477.14C435.759 480.84 451.079 479.01 460.359 468.74C468.759 459.45 473.039 443.57 465.209 432.74C460.955 426.87 455.114 422.335 448.372 419.669C441.63 417.003 434.267 416.317 427.149 417.69C423.649 418.4 425.149 423.75 428.629 423.04C441.039 420.52 456.829 426.75 462.399 438.74C468.399 451.74 457.329 468.38 444.829 472.1C438.459 473.874 431.722 473.843 425.369 472.01C417.949 470.01 413.369 464.87 410.209 458.01C403.509 443.5 413.999 426.94 428.639 423.01C432.079 422.12 430.609 416.76 427.149 417.68Z" fill="#FF76B8"/>
<path d="M412.128 427C411.008 433.36 409.978 440.24 412.128 446.51C414.484 452.972 418.417 458.743 423.568 463.3C428.912 468.228 435.565 471.506 442.728 472.74C447.068 473.44 455.038 474.16 458.538 470.64C461.058 468.1 457.138 464.17 454.608 466.71C452.078 469.25 443.608 467.42 440.788 466.71C435.068 465.118 429.885 462.008 425.788 457.71C422.148 453.99 418.788 449.33 417.278 444.3C415.768 439.27 416.638 433.57 417.538 428.48C418.158 424.99 412.808 423.48 412.188 427H412.128Z" fill="#FF76B8"/>
<path d="M423.149 433.9C418.849 448.13 432.829 463.9 447.739 460.35C455.559 458.5 450.489 451.85 447.279 447.92C441.78 441.33 434.942 435.985 427.219 432.24C424.029 430.67 421.219 435.46 424.419 437.03C428.909 439.21 433.097 441.963 436.879 445.22C440.319 448.22 445.049 452.32 446.679 456.69C445.899 454.62 446.199 455.22 443.919 455.22C442.34 455.189 440.776 454.902 439.289 454.37C436.898 453.587 434.695 452.317 432.819 450.64C430.705 448.781 429.173 446.351 428.407 443.642C427.64 440.933 427.672 438.061 428.499 435.37C429.539 431.94 424.189 430.48 423.149 433.9Z" fill="#FF76B8"/>
<path d="M429.54 432C438.09 438.07 446.87 444 454.4 451.32C455.81 452.69 457.68 452.16 458.76 450.76C463.19 445 456.21 433.6 451.68 429.83C445.91 425.03 437.11 425.96 430.21 426.94C426.69 427.44 428.21 432.79 431.68 432.29C436.08 431.67 441.68 430.97 445.91 432.77C448.389 434.02 450.408 436.022 451.68 438.49C452.68 440.24 455.51 445.95 453.96 447.96L458.32 447.4C450.46 439.72 441.27 433.55 432.32 427.21C429.42 425.12 426.65 429.93 429.54 432Z" fill="#FF76B8"/>
<path d="M152.999 383.19C158.909 381.05 165.669 381.67 171.529 383.94C174.479 385.045 177.174 386.737 179.451 388.913C181.728 391.089 183.541 393.704 184.779 396.6C186.29 400.756 186.847 405.199 186.409 409.6C186.325 411.411 185.988 413.202 185.409 414.92C184.606 416.928 183.463 418.782 182.029 420.4C175.909 427.76 166.689 433.09 157.149 432.4C150.115 431.718 143.615 428.351 138.999 423C137.021 421.062 135.548 418.668 134.709 416.029C133.871 413.389 133.692 410.584 134.189 407.86C135.609 397 142.729 386.93 152.999 383.19Z" fill="#F04B24"/>
<path d="M153.68 385.53C165.52 381.78 180.39 387.53 183.47 400.39C185.13 407.28 184.16 414.5 179.39 419.86C175.502 424.344 170.406 427.614 164.71 429.28C153.71 432.28 137.71 424.97 136.48 412.49C135.37 401.21 143.41 389.59 153.69 385.49C156.56 384.36 155.31 379.67 152.4 380.82C147.382 382.81 142.93 386.001 139.433 390.112C135.936 394.223 133.5 399.129 132.34 404.4C129.58 416.61 136.28 427.06 147.34 432.26C158.15 437.34 170.06 434.35 178.97 426.94C183.63 423.06 187.67 418.18 188.61 412.05C189.6 406.191 188.906 400.171 186.61 394.69C180.92 382.13 165.05 376.82 152.38 380.83C149.43 381.79 150.7 386.48 153.68 385.53Z" fill="#FF76B8"/>
<path d="M164.4 384.09C167.4 387.34 170.66 390.88 172.07 395.18C173.59 399.84 173.26 405.48 172.19 410.18C171.156 414.981 168.907 419.436 165.66 423.12C163.89 425.12 158.66 430.28 155.59 429.83C152.52 429.38 151.22 434.06 154.3 434.5C158.83 435.15 163.71 431.5 166.93 428.68C171.319 424.683 174.532 419.561 176.22 413.87C178.098 407.91 178.421 401.57 177.16 395.45C175.83 389.63 171.8 384.92 167.83 380.65C165.7 378.36 162.28 381.79 164.4 384.08V384.09Z" fill="#FF76B8"/>
<path d="M159.61 394.39C161.556 396.003 162.982 398.157 163.706 400.579C164.43 403.001 164.421 405.583 163.68 408C162.68 411.54 158.99 417.87 154.47 417.46L156.81 419.24C155.35 415.32 157.1 409.64 158.21 405.8C159.427 401.619 161.178 397.613 163.42 393.88C165.02 391.2 160.83 388.76 159.24 391.43C156.515 395.984 154.454 400.904 153.12 406.04C152.03 410.27 150.57 416.29 152.12 420.52C152.278 421.022 152.588 421.463 153.007 421.781C153.426 422.1 153.934 422.281 154.46 422.3C160.68 422.86 165.95 415.8 167.87 410.69C169.174 407.305 169.406 403.6 168.535 400.078C167.664 396.556 165.732 393.387 163 391C160.69 388.93 157.25 392.35 159.61 394.39Z" fill="#FF76B8"/>
<path d="M152.839 390.77C149.369 399.47 145.669 408.15 143.579 417.31L147.139 415.86C142.699 413.64 143.689 403.43 146.139 400.31C148.589 397.19 152.759 395.18 156.359 393.5C159.179 392.19 156.729 388.01 153.909 389.32C148.559 391.81 142.059 395.32 140.069 401.27C138.299 406.6 138.939 417.19 144.649 420.04C144.971 420.222 145.33 420.329 145.699 420.353C146.068 420.377 146.438 420.316 146.78 420.177C147.123 420.037 147.429 419.822 147.677 419.547C147.924 419.273 148.106 418.945 148.209 418.59C150.299 409.43 153.999 400.75 157.469 392.05C158.669 389.16 153.999 387.9 152.839 390.77Z" fill="#FF76B8"/>
<path d="M454.359 296.29C459.099 298.38 462.779 302.74 464.989 307.62C467.283 312.608 467.541 318.295 465.709 323.47C464.265 326.994 462.071 330.161 459.279 332.75C458.216 333.856 457.004 334.808 455.679 335.58C454.073 336.388 452.336 336.903 450.549 337.1C442.719 338.21 434.189 336.22 428.869 330.21C424.969 325.8 423.139 319.59 423.339 313.51C423.344 310.632 424.055 307.8 425.409 305.26C426.386 303.654 427.623 302.221 429.069 301.02C436.109 294.92 446.089 292.64 454.359 296.29Z" fill="#F04B24"/>
<path d="M453.319 298.06C462.829 302.75 467.749 314.94 462.909 324.66C460.429 329.66 455.909 334.06 450.409 335.01C445.408 335.892 440.256 335.16 435.699 332.92C426.969 328.41 422.089 315.19 427.159 306.28C432.229 297.37 444.919 294.74 453.799 298.28C456.249 299.28 457.309 295.28 454.889 294.33C443.889 289.97 427.949 294.33 422.889 305.75C417.829 317.17 423.799 332.08 434.969 337.09C440.597 339.544 446.864 340.129 452.849 338.76C459.039 337.3 464.149 331.58 466.849 326.01C472.339 314.6 466.539 300.01 455.409 294.53C452.999 293.36 450.999 296.89 453.319 298.06Z" fill="#FF76B8"/>
<path d="M460.57 303.43C460.46 311.73 458.42 318.25 451.8 323.71C448.853 326.198 445.362 327.959 441.61 328.85C438.96 329.44 431.39 330.24 429.44 327.67C427.87 325.6 424.31 327.67 425.9 329.74C431.26 336.74 445.08 333.07 451.17 329.2C460.78 323.09 464.52 314.47 464.67 303.44C464.67 300.8 460.61 300.8 460.57 303.44V303.43Z" fill="#FF76B8"/>
<path d="M451.859 307.2C452.098 309.095 451.865 311.019 451.181 312.802C450.497 314.585 449.383 316.171 447.939 317.42C445.349 319.63 438.609 322.42 435.799 319.13L436.329 321.13C436.809 318.41 442.559 315.06 444.589 313.77C447.66 311.814 450.975 310.271 454.449 309.18C456.959 308.4 455.889 304.45 453.359 305.23C449.359 306.48 425.599 317.9 434.419 323.23C438.939 325.97 445.529 324.23 449.529 321.32C451.751 319.741 453.519 317.605 454.654 315.126C455.79 312.648 456.254 309.914 455.999 307.2C455.699 304.6 451.609 304.58 451.859 307.2Z" fill="#FF76B8"/>
<path d="M449.94 301C442.94 304.53 435.75 307.92 429.34 312.52L432.34 313.74C431.11 310.17 436.6 304.18 439.74 303.24C443.1 302.24 447.24 303.67 450.42 304.73C452.92 305.57 454 301.62 451.51 300.78C446.66 299.15 440.51 297.57 435.87 300.59C431.94 303.16 426.67 309.83 428.39 314.82C428.78 315.96 430.25 316.82 431.39 316.04C437.8 311.44 444.96 308.04 451.99 304.52C454.35 303.38 452.28 299.85 449.94 301Z" fill="#FF76B8"/>
<path d="M271.94 262.47C267.82 257.7 265.99 251.14 266.02 244.84C266.002 241.681 266.624 238.551 267.85 235.64C269.075 232.728 270.878 230.095 273.15 227.9C276.516 224.991 280.494 222.878 284.79 221.72C286.511 221.141 288.305 220.804 290.12 220.72C292.288 220.759 294.433 221.172 296.46 221.94C305.54 225.05 313.83 231.78 316.62 240.94C318.52 247.804 317.689 255.136 314.3 261.4C313.189 263.948 311.471 266.184 309.295 267.914C307.119 269.643 304.553 270.813 301.82 271.32C291.12 273.86 279.13 270.79 271.94 262.47Z" fill="#F04B24"/>
<path d="M273.659 260.75C265.559 250.61 266.789 234 278.379 227.06C284.259 223.54 290.709 222.26 297.169 224.78C302.57 226.811 307.295 230.313 310.809 234.89C317.479 243.89 316.809 261.24 305.979 267.23C295.579 272.99 281.319 269.13 273.649 260.75C271.529 258.44 268.099 261.88 270.209 264.19C274.084 268.308 278.945 271.371 284.332 273.087C289.72 274.804 295.456 275.118 300.999 274C312.999 271.72 319.689 260.72 320.069 249C320.459 237.07 312.699 227 302.349 221.85C297.169 219.25 291.659 217.57 285.889 218.93C279.949 220.33 273.889 223.25 269.809 227.93C260.959 238.19 262.019 253.99 270.209 264.24C272.169 266.63 275.599 263.17 273.659 260.75Z" fill="#FF76B8"/>
<path d="M268.609 251.73C270.429 248.05 272.399 244.01 275.439 241.17C279.269 237.59 284.929 235.72 290.009 234.93C295.417 234.035 300.969 234.705 306.009 236.86C308.439 237.94 314.339 240.78 314.799 243.86C315.259 246.94 319.949 245.63 319.489 242.57C318.919 238.77 313.489 235.4 310.489 233.72C305.15 230.772 299.087 229.396 292.999 229.75C286.618 230.041 280.419 231.97 274.999 235.35C269.999 238.66 266.999 244.01 264.369 249.28C262.989 252.08 267.179 254.54 268.569 251.73H268.609Z" fill="#FF76B8"/>
<path d="M280.22 252C280.977 249.888 282.284 248.015 284.007 246.577C285.73 245.139 287.806 244.187 290.02 243.82C293.81 243.14 302.2 244.09 303.5 248.71L304.12 246.35C301.27 248.85 295.06 249.28 291.53 249.58C287.19 249.955 282.821 249.767 278.53 249.02C275.47 248.48 274.16 253.16 277.24 253.71C282.744 254.704 288.367 254.866 293.92 254.19C298.42 253.63 304.05 252.87 307.57 249.79C307.874 249.488 308.091 249.109 308.2 248.694C308.309 248.28 308.306 247.843 308.19 247.43C306.33 240.83 297.05 238.43 291.08 238.83C287.607 239.068 284.281 240.324 281.518 242.44C278.754 244.556 276.675 247.44 275.54 250.73C274.48 253.62 279.17 254.89 280.22 252Z" fill="#FF76B8"/>
<path d="M278.88 260C288.5 260.15 298.15 260.47 307.7 259.12L304.62 256.78C304.43 258.72 300.55 260.84 299.09 261.6C296.68 262.85 293.65 263.72 290.98 263.04C286.98 262.04 283.47 258.66 280.59 255.86C278.35 253.68 274.91 257.11 277.15 259.3C281.81 263.83 287.76 268.93 294.71 268.01C300.4 267.26 308.84 263.14 309.48 256.79C309.65 255.04 307.8 254.25 306.4 254.45C297.3 255.73 288.02 255.3 278.87 255.16C275.75 255 275.75 259.91 278.88 260Z" fill="#FF76B8"/>
<path d="M318 186.24C316.56 180.03 312.25 174.72 306.93 171.24C301.61 167.76 295.35 165.86 289.05 164.9C283.756 163.981 278.344 163.981 273.05 164.9C265.85 166.31 259.28 169.97 253.24 174.13C248.94 177.13 244.68 180.54 242.55 185.32C240.42 190.1 241.12 196.49 245.4 199.5C249.24 202.19 254.4 201.41 258.99 200.24C260.876 199.608 262.865 199.344 264.85 199.46C267.1 199.76 269.06 201.07 271.07 202.12C275.336 204.343 280.09 205.467 284.9 205.39C286.754 205.502 288.593 204.988 290.12 203.93C291.77 202.57 292.51 200.12 294.5 199.36C296.32 198.67 298.29 199.71 300.23 199.9C301.825 200.05 303.42 199.617 304.72 198.68C308 196.3 308.91 191.08 312.78 189.88C313.768 189.717 314.736 189.452 315.67 189.09C316.54 188.6 317.09 187.3 316.37 186.6" fill="#6ABD45"/>
<path d="M320.44 185.58C316.44 170.85 302.03 164.06 287.97 162.22C272.69 160.22 258.67 165.82 247.08 175.7C242.34 179.7 238.54 185.29 238.93 191.77C239.26 197.37 242.7 202.03 248.23 203.39C251.249 203.984 254.361 203.913 257.35 203.18C259.35 202.79 261.41 201.93 263.35 201.9C266.29 201.9 268.83 203.9 271.35 205.06C276.48 207.39 284.74 209.56 290.16 206.81C291.49 206.13 292.04 205.18 293.11 204.27C295.69 202.07 297.84 202.46 300.95 202.39C302.395 202.335 303.81 201.956 305.089 201.281C306.368 200.606 307.479 199.652 308.34 198.49C309.39 197.2 310.12 195.68 311.14 194.37C312.79 192.25 314.39 192.65 316.56 191.37C318.56 190.19 319.56 188.18 318.71 185.94C317.54 182.94 312.71 184.27 313.89 187.27C312.6 184.01 304.09 195.9 303.8 196.13C300.56 198.76 296.88 195.73 293.47 197.13C290.65 198.25 289.82 201.8 286.93 202.73C278.66 205.4 272.29 197.73 264.77 197.01C258.36 196.37 248.3 203.01 244.56 194.6C241.15 186.89 248.84 180.25 254.42 176.34C261 171.74 268.42 167.77 276.5 166.94C291.29 165.43 311.18 170.94 315.5 186.94C316.34 190.04 321.16 188.73 320.32 185.61L320.44 185.58Z" fill="#FF76B8"/>
<path d="M430.449 518.29C429.081 513.195 425.838 508.805 421.369 506C416.912 503.228 411.907 501.454 406.699 500.8C402.355 500.045 397.913 500.045 393.569 500.8C387.669 501.96 382.279 504.95 377.319 508.37C373.789 510.8 370.319 513.63 368.549 517.54C366.779 521.45 367.379 526.7 370.889 529.17C374.039 531.38 378.309 530.73 382.029 529.78C383.577 529.262 385.209 529.044 386.839 529.14C388.679 529.39 390.289 530.46 391.939 531.33C395.441 533.15 399.342 534.068 403.289 534C404.81 534.091 406.317 533.668 407.569 532.8C408.919 531.68 409.569 529.68 411.159 529.05C412.749 528.42 414.269 529.34 415.859 529.49C417.169 529.615 418.481 529.26 419.549 528.49C422.239 526.49 422.989 522.25 426.159 521.27C426.969 521.136 427.764 520.918 428.529 520.62C429.249 520.22 429.699 519.15 429.099 518.62" fill="#6ABD45"/>
<path d="M432.419 517.74C428.139 502.27 409.349 496.45 394.879 498.5C383.699 500.08 361.539 511.22 366.069 525.67C367.979 531.75 373.969 533.31 379.709 532.36C382.279 531.93 384.989 530.65 387.639 531.42C389.439 531.94 391.169 533.28 392.919 534.01C396.653 535.669 400.753 536.33 404.819 535.93C408.419 535.43 410.319 531.34 413.729 531.15C416.589 531 418.409 531.94 420.999 529.94C422.077 528.982 423.007 527.87 423.759 526.64C424.306 525.708 424.928 524.822 425.619 523.99C426.726 523.419 427.884 522.954 429.079 522.6C431.019 521.3 431.509 520.3 431.079 518.04C430.589 515.45 426.639 516.55 427.079 519.13L427.279 520.21L427.809 518.21C426.809 519.4 424.809 519.42 423.579 520.33C421.729 521.68 421.079 523.77 419.579 525.39C416.679 528.51 414.049 526.12 410.849 527.03C409.179 527.51 408.699 528.72 407.449 529.7C400.779 534.89 395.169 529.39 388.689 527.47C383.389 525.9 377.549 530.68 372.639 527.62C364.949 522.82 372.929 514.02 377.639 510.62C382.529 507.08 388.069 503.95 394.049 502.79C406.639 500.36 424.599 505.13 428.409 518.86C429.109 521.4 433.069 520.32 432.409 517.77L432.419 517.74Z" fill="#FF76B8"/>
<path d="M320.589 187.07C317.589 187.38 314.939 189.56 313.329 192.17C311.858 194.861 310.806 197.761 310.209 200.77C309.529 203.47 308.839 206.29 309.399 209.02C309.959 211.75 311.849 214.37 311.819 217.25C316.989 214.6 320.569 209.63 323.329 204.52C324.946 201.875 325.969 198.91 326.329 195.83C326.519 192.75 325.329 189.42 322.779 187.74" fill="#FFC837"/>
<path d="M319.92 184.66C313.86 185.82 310.56 190.84 308.8 196.4C307.625 199.663 306.924 203.078 306.72 206.54C306.67 210.43 308.97 213.48 309.32 217.25C309.328 217.686 309.45 218.113 309.672 218.489C309.895 218.864 310.21 219.176 310.589 219.393C310.967 219.611 311.396 219.726 311.832 219.729C312.268 219.732 312.698 219.622 313.08 219.41C322.27 214.2 336.08 195.22 324.54 185.97C322.05 183.97 318.54 187.5 321 189.51C329.56 196.35 317.09 211.39 310.55 215.1L314.31 217.26C314.123 215.382 313.668 213.54 312.96 211.79C311.687 208.775 311.489 205.414 312.4 202.27C313.59 197.06 315.19 190.66 321.23 189.5C324.39 188.9 323.05 184.08 319.9 184.68L319.92 184.66Z" fill="#FF76B8"/>
<path d="M319.18 171.16C319.876 169.015 321.049 167.056 322.61 165.43C325.004 162.669 327.686 160.171 330.61 157.98C330.777 157.823 330.992 157.727 331.22 157.71C331.54 157.71 331.76 158.04 331.92 158.32C333.608 161.403 334.796 164.734 335.44 168.19C336.308 171.673 336.308 175.317 335.44 178.8C334.17 183.03 329.1 189.56 324 187.19C318.9 184.82 317.95 175.82 319.18 171.16Z" fill="#FFC837"/>
<path d="M321.6 171.83C322.66 167.83 328.6 161.56 332.49 159.83L329.49 159.44C332.29 161.88 333.38 169.11 333.56 172.59C333.76 176.39 332.82 180.59 329.85 183.21C322.62 189.67 320.54 176.65 321.63 171.78C322.33 168.65 317.51 167.31 316.81 170.45C315.1 178.11 318.65 194.34 329.81 189.28C334.46 187.18 337.55 181.89 338.31 177.02C339.23 171.09 337.8 160.1 332.99 155.9C332.59 155.535 332.088 155.302 331.551 155.233C331.015 155.163 330.469 155.26 329.99 155.51C324.89 157.72 318.25 165.02 316.81 170.45C315.95 173.61 320.77 174.94 321.6 171.83Z" fill="#FF76B8"/>
<path d="M407.129 416.62C404.429 414.7 400.519 414.83 397.039 416.08C393.559 417.33 390.409 419.57 387.309 421.78C384.489 423.78 381.579 425.9 379.729 428.84C377.879 431.78 377.179 435.58 374.729 438.22C381.089 439.52 388.129 437.5 394.639 434.77C398.219 433.45 401.512 431.453 404.339 428.89C407.089 426.17 408.959 422.26 408.339 418.82" fill="#6ABD45"/>
<path d="M408.599 414.12C401.509 410.12 393.959 413.67 387.849 417.87C384.769 419.99 381.479 422.17 379.009 425.02C376.129 428.35 375.379 432.77 372.679 436.17C371.489 437.67 371.559 440.64 373.959 441.03C386.559 443.03 412.859 435.56 411.209 418.83C410.849 415.14 405.029 415.11 405.399 418.83C406.599 431.05 384.639 436.9 375.499 435.43L376.779 440.29C380.599 435.46 381.589 429.83 386.659 425.86C391.459 422.1 399.349 415.55 405.659 419.14C408.909 421 411.839 415.98 408.589 414.14L408.599 414.12Z" fill="#FF76B8"/>
<path d="M419.399 400.87C421.695 399.415 424.27 398.458 426.959 398.06C431.124 397.241 435.365 396.869 439.609 396.95C439.866 396.921 440.124 396.993 440.329 397.15C440.569 397.4 440.479 397.85 440.329 398.22C439.06 402.354 437.215 406.29 434.849 409.91C432.469 413.67 429.589 417.28 425.849 419.71C421.279 422.71 411.739 425.09 409.659 419.18C407.579 413.27 414.499 404.28 419.399 400.87Z" fill="#6ABD45"/>
<path d="M420.859 403.37C424.989 400.5 434.659 398.58 439.549 399.93L437.549 397.93C437.259 397 437.359 398.39 437.109 398.93C436.489 400.45 435.929 401.93 435.209 403.44C434.127 405.654 432.88 407.783 431.479 409.81C428.609 413.95 425.079 417.63 420.169 419.16C416.169 420.39 411.269 420.22 412.609 414.77C413.699 410.33 417.299 406.03 420.889 403.35C423.889 401.14 420.959 396.09 417.959 398.35C411.959 402.82 403.959 412.14 407.109 420.28C410.109 428.17 420.859 425.97 426.569 422.72C431.169 420.1 434.619 415.72 437.419 411.36C439.649 407.85 443.569 401.96 443.419 397.62C443.249 392.98 437.329 393.95 434.249 394.17C428.879 394.56 422.519 395.17 417.969 398.35C414.889 400.48 417.789 405.52 420.859 403.37Z" fill="#FF76B8"/>
<path d="M199.65 390.81C201.14 394.12 205.34 398.15 208.51 399.91C212.227 402.146 216.401 403.514 220.72 403.91C225.03 404.14 229.55 402.81 232.54 399.7C232.645 399.616 232.732 399.511 232.796 399.393C232.859 399.274 232.898 399.144 232.91 399.01C232.864 398.761 232.729 398.537 232.53 398.38L225.18 390.91C224.286 389.901 223.24 389.037 222.08 388.35C219.72 387.12 216.84 387.45 214.3 388.25C211.76 389.05 209.3 390.25 206.72 390.75C204.376 391.068 202 391.088 199.65 390.81Z" fill="#6ABD45"/>
<path d="M197.5 392.06C200.96 398.65 207.5 403.06 214.5 405.21C220.6 407.08 230.26 407.03 234.5 401.15C235.99 399.08 235.18 397.66 233.68 395.93C231.03 392.87 227.81 389.14 224.46 386.86C223.102 385.984 221.577 385.4 219.981 385.144C218.386 384.887 216.754 384.964 215.19 385.37C212.83 385.88 210.67 386.99 208.36 387.67C205.516 388.41 202.561 388.627 199.64 388.31C196.44 388.11 196.45 393.09 199.64 393.31C205.51 393.68 209.44 392.06 214.95 390.61C218.77 389.61 221.29 390.5 224.02 393.25C226.07 395.32 229.26 397.73 230.74 400.25V397.7C227.86 403.17 218.2 401.43 213.85 399.7C208.85 397.7 204.34 394.43 201.78 389.55C200.31 386.71 196 389.23 197.5 392.06Z" fill="#FF76B8"/>
<path d="M236 399.6C244.12 400.02 250.37 391.55 258.49 391.04C264.89 390.64 271.25 395.34 277.36 393.38C272.26 399.59 266.04 405.32 258.36 407.56C250.68 409.8 240.36 406.37 236.04 399.56" fill="#6ABD45"/>
<path d="M236 402.09C243.14 402.04 248 397.31 254.28 394.69C262.2 391.37 269.84 397.69 278.02 395.78L275.6 391.62C270.71 397.46 264.73 403.51 257.04 405.32C250.21 406.92 242.2 404.12 238.15 398.32C236.32 395.71 232 398.2 233.85 400.83C236.25 404.164 239.475 406.818 243.208 408.532C246.942 410.246 251.056 410.962 255.15 410.61C265.02 409.77 273.06 402.33 279.15 395.11C279.503 394.712 279.721 394.211 279.771 393.68C279.821 393.149 279.701 392.617 279.428 392.159C279.155 391.701 278.744 391.342 278.253 391.134C277.763 390.925 277.218 390.879 276.7 391C269.19 392.76 262.3 386.93 254.55 389.3C248.13 391.3 242.97 397.08 236.01 397.13C232.81 397.13 232.8 402.13 236.01 402.13L236 402.09Z" fill="#FF76B8"/>
<path d="M234.37 401.4C230.54 404.53 223.94 406.33 220.37 409.75C218.789 411.099 217.482 412.739 216.52 414.58C216.033 415.795 215.697 417.064 215.52 418.36C214.29 425.22 213.58 432.36 215.52 439.09C217.36 445.59 221.52 451.14 225.52 456.54L232.29 465.54C232.36 465.701 232.472 465.84 232.613 465.943C232.755 466.047 232.921 466.112 233.095 466.131C233.269 466.15 233.445 466.123 233.606 466.053C233.766 465.983 233.906 465.871 234.01 465.73L242.41 458.37C245.93 455.29 249.54 452.08 251.49 447.83C253.61 443.2 253.49 437.9 253.28 432.83C253.01 427.05 252.55 421.01 249.5 416.09C245.77 410.07 238.89 406.8 234.37 401.4Z" fill="#6ABD45"/>
<path d="M233.111 399.25C227.661 403.32 220.961 404.87 216.431 410.25C212.371 415.06 211.951 422.75 211.801 428.8C211.619 436.108 213.594 443.308 217.481 449.5C219.581 452.93 222.051 456.1 224.481 459.31C226.761 462.31 228.801 466.02 231.841 468.31C232.221 468.532 232.655 468.65 233.096 468.65C233.537 468.65 233.97 468.532 234.351 468.31C237.501 466.78 240.131 463.65 242.751 461.31C245.644 458.943 248.322 456.322 250.751 453.48C255.381 447.66 256.021 440.83 255.751 433.62C255.491 426.94 254.991 419.87 251.181 414.15C247.261 408.26 240.751 404.84 236.101 399.61C233.971 397.21 230.451 400.74 232.581 403.13C236.291 407.3 241.121 410.21 244.921 414.26C249.531 419.18 250.371 425.51 250.701 431.97C251.061 438.9 251.011 445.6 246.251 451.14C244.494 453.071 242.606 454.879 240.601 456.55C237.951 458.89 234.991 462.41 231.801 463.96H234.311C231.891 462.13 230.001 458.41 228.181 455.96C226.361 453.51 224.391 450.96 222.671 448.33C218.901 442.57 216.671 436.53 216.751 429.59C216.751 423.29 217.121 415.89 222.091 411.45C226.011 407.95 231.401 406.62 235.591 403.45C238.171 401.65 235.691 397.33 233.111 399.25Z" fill="#FF76B8"/>
<path d="M231.081 405.11C231.231 413.11 235.311 420.52 232.991 428.63C231.991 432.09 229.991 435.13 229.161 438.63C228.493 441.913 228.641 445.308 229.591 448.52C230.421 451.61 235.221 450.3 234.391 447.2C232.251 439.2 237.811 433.2 238.631 425.47C239.381 418.47 236.181 412.04 236.051 405.09C235.991 401.89 231.051 401.88 231.051 405.09L231.081 405.11Z" fill="#FF76B8"/>
<path d="M231.171 439.46C232.015 441.103 233.337 442.452 234.961 443.33C236.201 444.11 237.761 444.73 238.551 446.02C240.221 448.75 244.551 446.25 242.851 443.51C241.81 441.953 240.402 440.675 238.751 439.79C237.451 439.01 236.111 438.4 235.471 436.95C235.134 436.384 234.587 435.973 233.949 435.806C233.311 435.639 232.632 435.731 232.061 436.06C231.502 436.405 231.098 436.951 230.932 437.587C230.766 438.222 230.852 438.896 231.171 439.47V439.46Z" fill="#FF76B8"/>
<path d="M232.35 427.79C231.28 428.98 228.7 428.79 227.24 429.42C225.251 430.278 223.582 431.741 222.47 433.6C220.77 436.33 225.08 438.84 226.77 436.11C228.87 432.72 233.33 434.11 235.87 431.31C238.01 428.93 234.49 425.4 232.35 427.79Z" fill="#FF76B8"/>
<path d="M237.749 397.55C236.029 395.92 232.189 392.95 230.349 391.46C227.551 389.192 225.078 386.551 222.999 383.61C220.462 380.264 218.855 376.307 218.339 372.14C217.889 366.91 219.849 361.81 221.849 356.96C226.055 346.767 230.572 336.71 235.399 326.79C235.539 326.5 235.719 326.18 236.039 326.1C236.204 326.09 236.37 326.117 236.524 326.179C236.679 326.241 236.817 326.337 236.929 326.46C246.719 334.51 252.499 346.55 255.719 358.82C256.886 362.741 257.429 366.821 257.329 370.91C256.997 374.629 256.152 378.283 254.819 381.77C253.299 386.15 251.389 390.65 247.729 393.49C244.869 395.71 241.259 396.66 237.749 397.55Z" fill="#6ABD45"/>
<path d="M239.509 395.79C231.149 388.2 218.959 380.79 220.999 367.63C222.069 360.68 225.779 353.85 228.569 347.49C229.903 344.523 231.236 341.567 232.569 338.62C234.039 335.42 235.419 330.47 237.809 327.88L235.389 328.52C237.859 329.52 240.189 332.94 241.799 334.96C243.619 337.277 245.241 339.743 246.649 342.33C249.718 348.006 252.034 354.056 253.539 360.33C255.439 367.9 254.829 374.52 252.159 381.83C251.009 384.99 249.629 388.35 247.159 390.72C244.409 393.32 240.669 394.22 237.159 395.14C234.059 395.94 235.369 400.75 238.479 399.94C246.179 397.94 251.879 394.84 255.339 387.37C258.799 379.9 260.759 371.61 259.339 363.28C257.88 355.047 255.065 347.113 251.009 339.8C247.909 334.2 242.959 326.16 236.769 323.7C236.346 323.577 235.897 323.572 235.471 323.685C235.044 323.797 234.657 324.024 234.349 324.34C231.899 326.99 230.669 331.04 229.149 334.34C227.236 338.46 225.376 342.6 223.569 346.76C220.569 353.69 216.569 361.05 215.949 368.69C214.769 382.91 226.839 390.95 236.059 399.32C238.359 401.46 241.889 398 239.509 395.79Z" fill="#FF76B8"/>
<path d="M234.749 341.86C235.589 347.74 234.099 352.73 233.129 358.43C232.493 361.42 232.775 364.533 233.939 367.36C235.689 371.36 238.179 374.65 239.069 379.05C239.69 381.779 239.675 384.615 239.024 387.337C238.374 390.06 237.106 392.596 235.319 394.75C233.259 397.18 236.769 400.75 238.839 398.27C244.999 391 245.839 381.52 242.329 372.79C241.489 370.69 240.329 368.85 239.279 366.84C237.469 363.23 237.769 360.33 238.639 356.51C239.96 351.284 240.269 345.853 239.549 340.51C239.099 337.35 234.299 338.69 234.749 341.83V341.86Z" fill="#FF76B8"/>
<path d="M229.65 377.13C232.248 379.355 234.595 381.857 236.65 384.59C238.46 387.21 242.78 384.72 240.95 382.08C238.684 378.982 236.085 376.142 233.2 373.61C230.85 371.43 227.32 374.94 229.68 377.13H229.65Z" fill="#FF76B8"/>
<path d="M240.339 359.18C238.119 362.8 235.419 366.72 236.209 371.18C236.769 374.33 241.569 373 241.009 369.86C240.549 367.3 243.379 363.8 244.639 361.73C246.319 358.99 242.009 356.48 240.339 359.22V359.18Z" fill="#FF76B8"/>
<path d="M127.359 348.28C128.779 347.13 131.449 344.49 132.779 343.28C134.801 341.371 137.076 339.75 139.539 338.46C142.358 336.859 145.548 336.031 148.789 336.06C152.789 336.25 156.539 338.27 160.039 340.3C167.406 344.56 174.639 349.043 181.739 353.75C181.949 353.89 182.179 354.06 182.199 354.31C182.192 354.439 182.157 354.564 182.094 354.676C182.032 354.789 181.945 354.886 181.839 354.96C174.679 361.63 164.839 364.82 155.159 366.03C152.042 366.523 148.867 366.523 145.749 366.03C142.941 365.405 140.232 364.396 137.699 363.03C134.509 361.42 131.249 359.5 129.459 356.41C127.999 353.92 127.689 351.05 127.359 348.28Z" fill="#6ABD45"/>
<path d="M128.719 349.64C136.339 343.14 143.719 334.64 154.649 339.64C159.134 341.845 163.476 344.33 167.649 347.08C171.589 349.49 177.839 352.08 180.799 355.66L180.499 353.33C178.369 357.13 171.199 359.88 167.369 361.25C163.277 362.681 159.037 363.647 154.729 364.13C149.198 364.908 143.563 363.928 138.619 361.33C132.809 358.4 130.059 354.86 129.249 348.33C128.949 345.91 125.099 345.88 125.399 348.33C126.129 354.18 127.599 358.88 132.659 362.33C137.719 365.78 144.089 368.33 150.399 368.33C157.117 368.177 163.754 366.83 169.999 364.35C174.489 362.6 181.399 359.67 183.899 355.24C184.101 354.87 184.181 354.445 184.127 354.026C184.073 353.608 183.888 353.217 183.599 352.91C181.879 350.83 178.899 349.52 176.599 348.08C174.039 346.447 171.459 344.84 168.859 343.26C163.599 340.06 157.959 335.9 151.859 334.55C140.929 332.14 133.469 340.55 126.019 346.93C124.119 348.53 126.849 351.24 128.719 349.64Z" fill="#FF76B8"/>
<path d="M170.539 351.66C163.779 351.66 157.429 346.81 150.809 348.48C147.069 349.42 144.339 351.2 140.309 351.21C138.288 351.249 136.282 350.85 134.43 350.041C132.577 349.231 130.923 348.03 129.579 346.52C127.909 344.69 125.189 347.42 126.859 349.24C131.289 354.08 137.599 355.81 143.999 354.71C145.832 354.321 147.633 353.796 149.389 353.14C153.159 351.91 154.539 351.78 158.099 352.94C162.349 354.33 166.009 355.53 170.539 355.51C173.009 355.51 173.019 351.66 170.539 351.66Z" fill="#FF76B8"/>
<path d="M143.619 344.34C141.636 346.077 139.47 347.592 137.159 348.86C134.959 349.99 136.899 353.31 139.099 352.18C141.691 350.74 144.118 349.024 146.339 347.06C148.249 345.48 145.519 342.78 143.619 344.34Z" fill="#FF76B8"/>
<path d="M156.639 354.34C154.209 352.34 151.339 349.6 147.989 349.78C145.529 349.91 145.509 353.78 147.989 353.63C150.139 353.52 152.359 355.8 153.919 357.06C155.819 358.61 158.559 355.9 156.639 354.34Z" fill="#FF76B8"/>
<path d="M380.999 517.86C392.829 513.6 404.159 511.06 415.819 517.33C418.649 518.86 421.179 514.54 418.339 513.01C405.429 506.06 392.889 508.27 379.659 513.01C376.659 514.09 377.949 518.93 380.989 517.83L380.999 517.86Z" fill="#FF76B8"/>
<path d="M387.599 509.38L393.289 512C393.866 512.316 394.542 512.399 395.178 512.232C395.815 512.064 396.362 511.659 396.709 511.1C397.038 510.526 397.128 509.846 396.96 509.206C396.791 508.566 396.378 508.018 395.809 507.68L390.119 505.06C389.542 504.744 388.866 504.661 388.229 504.828C387.593 504.996 387.045 505.401 386.699 505.96C386.37 506.534 386.28 507.215 386.448 507.854C386.617 508.494 387.03 509.042 387.599 509.38Z" fill="#FF76B8"/>
<path d="M400.83 518.73L404.59 515.99C405.151 515.645 405.557 515.098 405.725 514.461C405.893 513.824 405.808 513.147 405.49 512.57C405.15 512.003 404.602 511.592 403.963 511.423C403.324 511.255 402.644 511.344 402.07 511.67L398.31 514.41C397.748 514.755 397.342 515.303 397.174 515.94C397.007 516.577 397.091 517.254 397.41 517.83C397.749 518.397 398.297 518.809 398.936 518.977C399.575 519.145 400.255 519.057 400.83 518.73Z" fill="#FF76B8"/>
<path d="M259.909 184.45C275.739 179 297.349 176.67 312.449 185.52C315.229 187.15 317.749 182.83 314.969 181.2C298.719 171.68 275.679 173.74 258.569 179.63C255.569 180.63 256.839 185.5 259.899 184.45H259.909Z" fill="#FF76B8"/>
<path d="M285.159 176.1C278.829 178.89 270.419 181.23 268.059 188.55C267.059 191.62 271.889 192.93 272.879 189.88C274.609 184.54 283.159 182.41 287.679 180.42C290.619 179.13 288.079 174.82 285.159 176.1Z" fill="#FF76B8"/>
<path d="M277.478 174.22C280.15 175.056 282.507 176.68 284.238 178.88C284.71 179.346 285.346 179.606 286.008 179.606C286.671 179.606 287.307 179.346 287.778 178.88C288.234 178.404 288.489 177.77 288.489 177.11C288.489 176.451 288.234 175.817 287.778 175.34C285.437 172.506 282.303 170.434 278.778 169.39C275.698 168.39 274.378 173.26 277.448 174.21L277.478 174.22Z" fill="#FF76B8"/>
<path d="M299.069 178.09C295.724 177.986 292.413 178.79 289.488 180.417C286.563 182.044 284.134 184.433 282.459 187.33C280.839 190.12 285.159 192.64 286.779 189.85C288.01 187.701 289.809 185.933 291.979 184.739C294.148 183.545 296.605 182.971 299.079 183.08C302.299 183.18 302.289 178.18 299.079 178.08L299.069 178.09Z" fill="#FF76B8"/>
<path d="M331 191.13C336.004 186.254 342.084 182.622 348.75 180.53C355.464 178.467 362.689 178.821 369.17 181.53C370.27 182.02 371.34 182.59 372.41 183.15C373.057 183.46 373.665 183.846 374.22 184.3C374.885 184.977 375.466 185.733 375.95 186.55C377.715 189.121 380.075 191.228 382.83 192.69C384.13 193.38 385.52 193.92 386.76 194.69C388.467 195.78 389.849 197.311 390.76 199.12C391.11 199.82 391.34 200.77 390.76 201.28C390.18 201.79 389.64 201.58 389.05 201.6C388.46 201.62 387.73 201.96 387.78 202.6C387.86 202.933 388.064 203.223 388.35 203.41C395.09 209.27 397.35 218.62 399.27 227.34C399.607 228.648 399.792 229.99 399.82 231.34C399.815 231.772 399.778 232.203 399.71 232.63C399.34 234.87 398.11 237.01 398.39 239.27C396.7 239.49 395.51 237.49 393.83 237.17C392.67 236.95 391.54 237.57 390.44 237.99C387.15 239.23 383.44 238.67 380.11 237.59C376.78 236.51 373.59 234.92 370.18 234.06C368 233.51 365.76 233.26 363.56 232.8C356.75 231.36 350.11 227.42 347.11 221.14C345.11 216.98 344.88 212.24 343.93 207.73C342.98 203.22 340.93 198.49 336.87 196.39C335.518 195.86 334.204 195.235 332.94 194.52C331.75 193.68 330.87 192.13 331.42 190.78" fill="#6ABD45"/>
<path d="M333.099 193.18C341.499 185.51 352.759 179.95 364.349 182.89C366.809 183.51 369.949 184.51 371.929 186.15C373.679 187.6 374.809 189.93 376.459 191.52C378.109 193.11 388.789 198.21 387.979 200.52L389.979 198.52C387.829 199.32 386.529 198.91 385.269 201.12C385.008 201.562 384.87 202.066 384.87 202.58C384.87 203.094 385.008 203.598 385.269 204.04C386.859 206.32 389.009 208.04 390.509 210.45C392.276 213.445 393.621 216.668 394.509 220.03C395.369 222.893 396.073 225.801 396.619 228.74C397.259 232.39 395.619 235.57 395.499 239.2L399.169 236.41C396.059 235.91 394.799 233.82 391.349 234.48C387.899 235.14 386.119 236.06 382.579 235.22C380.879 234.762 379.209 234.198 377.579 233.53C370.379 230.82 361.799 230.66 355.379 226.22C347.579 220.82 348.629 212.22 346.029 204.22C345.243 201.508 343.897 198.991 342.079 196.83C340.669 195.26 334.169 192.61 334.319 190.74C334.619 187.02 328.829 187.04 328.529 190.74C328.269 193.94 329.949 196.22 332.749 197.74C337.159 200.06 339.509 202.12 340.829 207.16C343.019 215.49 342.979 223.52 350.089 229.5C356.639 235.01 364.209 235.04 371.929 237.64C376.089 239.04 379.999 241.01 384.419 241.46C386.429 241.555 388.444 241.411 390.419 241.03C393.419 240.66 394.989 241.64 397.669 242.03C398.098 242.129 398.543 242.132 398.973 242.039C399.403 241.947 399.808 241.761 400.158 241.495C400.508 241.228 400.796 240.889 401 240.499C401.204 240.109 401.32 239.679 401.339 239.24C401.409 235.72 403.049 232.79 402.599 229.24C402.058 225.623 401.239 222.052 400.149 218.56C399.278 215.453 398.106 212.439 396.649 209.56C394.949 206.29 392.389 204.16 390.339 201.22V204C389.689 205.15 391.799 204.11 392.279 203.77C393.181 203.116 393.785 202.13 393.959 201.03C394.449 198.2 392.059 195.28 390.099 193.53C387.029 190.79 382.929 189.93 380.039 186.88C377.569 184.27 376.389 181.96 373.159 180.2C357.929 171.93 341.009 178.2 329.039 189.08C326.279 191.6 330.389 195.69 333.139 193.18H333.099Z" fill="#FF76B8"/>
<path d="M336.149 193.78C340.819 191.07 349.959 192.37 355.079 193.15C360.479 193.97 366.029 195.97 369.759 200.15C376.129 207.26 375.249 219.58 386.419 222.05C390.049 222.85 391.609 217.27 387.959 216.46C381.059 214.93 380.009 206.6 377.329 201.2C374.935 196.501 371.033 192.74 366.249 190.52C361.33 188.318 356.026 187.105 350.639 186.95C345.029 186.62 338.269 185.88 333.229 188.8C329.999 190.67 332.919 195.68 336.149 193.8V193.78Z" fill="#FF76B8"/>
<path d="M363.549 195.1C365.303 195.631 367.142 195.828 368.969 195.68C369.363 195.703 369.758 195.645 370.13 195.51C370.501 195.375 370.841 195.166 371.129 194.895C371.416 194.624 371.645 194.297 371.802 193.934C371.958 193.571 372.039 193.18 372.039 192.785C372.039 192.39 371.958 191.999 371.802 191.636C371.645 191.273 371.416 190.946 371.129 190.675C370.841 190.404 370.501 190.194 370.13 190.059C369.758 189.924 369.363 189.867 368.969 189.89C367.663 190.046 366.339 189.917 365.089 189.51C364.352 189.315 363.568 189.414 362.903 189.788C362.238 190.161 361.745 190.779 361.529 191.51C361.351 192.246 361.459 193.022 361.83 193.683C362.201 194.343 362.808 194.839 363.529 195.07L363.549 195.1Z" fill="#FF76B8"/>
<path d="M368.509 201.71C368.509 204.97 366.039 207.52 364.269 210.04C362.362 212.494 361.199 215.444 360.919 218.54C360.689 222.26 366.479 222.25 366.709 218.54C366.909 215.33 369.539 212.72 371.269 210.2C373.138 207.753 374.188 204.778 374.269 201.7C374.269 197.97 368.449 197.96 368.479 201.7L368.509 201.71Z" fill="#FF76B8"/>
<path d="M380.2 217.13C379.139 219.167 378.741 221.485 379.064 223.759C379.387 226.033 380.414 228.149 382 229.81C384.59 232.5 388.68 228.4 386.1 225.71C385.383 224.976 384.909 224.039 384.743 223.027C384.576 222.014 384.725 220.975 385.17 220.05C386.84 216.73 381.84 213.79 380.17 217.13H380.2Z" fill="#FF76B8"/>
<path d="M355 191.82C353.592 195.221 352.546 198.76 351.88 202.38C351.21 206.03 356.79 207.59 357.47 203.92C358.136 200.3 359.182 196.761 360.59 193.36C361.19 191.9 359.94 190.19 358.59 189.8C357.854 189.622 357.077 189.73 356.417 190.101C355.757 190.472 355.261 191.079 355.03 191.8L355 191.82Z" fill="#FF76B8"/>
</svg>
