<svg width="128" height="112" viewBox="0 0 128 112" fill="none" xmlns="http://www.w3.org/2000/svg">
<path d="M61.58 7.57222C46.6225 8.37718 31.937 16.5427 23.4794 28.9047C15.0217 41.2668 12.6983 57.6224 17.3809 71.853C22.0634 86.0836 33.6406 97.8636 47.7864 102.789C61.9323 107.715 78.3347 105.688 90.8216 97.4377C95.3667 94.4382 99.3847 90.708 102.713 86.398C110.517 76.2813 114.203 63.0497 112.651 50.3621C111.151 38.0834 105.041 26.8334 95.5595 18.8891C86.0777 10.9448 73.9317 6.89958 61.58 7.57222Z" fill="#FFC736"/>
<path d="M61.58 7.57222C46.6225 8.37718 31.937 16.5427 23.4794 28.9047C15.0217 41.2668 12.6983 57.6224 17.3809 71.853C22.0634 86.0836 33.6406 97.8636 47.7864 102.789C61.9323 107.715 78.3347 105.688 90.8216 97.4377C95.3667 94.4382 99.3847 90.708 102.713 86.398C110.517 76.2814 114.203 63.0497 112.651 50.3621C111.151 38.0834 105.041 26.8334 95.5595 18.8891C86.0777 10.9448 73.9317 6.89958 61.58 7.57222Z" stroke="#FFC736" stroke-width="12" stroke-miterlimit="10"/>
<path d="M61.58 7.57222C46.6225 8.37718 31.937 16.5427 23.4794 28.9047C15.0217 41.2668 12.6983 57.6224 17.3809 71.853C22.0634 86.0836 33.6406 97.8636 47.7864 102.789C61.9323 107.715 78.3347 105.688 90.8216 97.4377C95.3667 94.4382 99.3847 90.708 102.713 86.398C110.517 76.2814 114.203 63.0497 112.651 50.3621C111.151 38.0834 105.041 26.8334 95.5595 18.8891C86.0777 10.9448 73.9317 6.89958 61.58 7.57222Z" stroke="#FF76B8" stroke-width="7" stroke-miterlimit="10"/>
<path d="M56.6021 46.556C61.0244 49.2497 65.2874 52.1964 69.37 55.3816C71.2363 56.8376 73.0893 58.3584 75.2321 59.364C77.3749 60.3697 79.8902 60.8178 82.1244 60.033C83.6385 59.5 85.0499 58.1911 85.0232 56.5857C85.0031 54.8375 83.3999 53.5821 81.9527 52.601C77.3526 49.4793 72.7481 46.3576 67.9496 43.5614C66.5649 42.7542 65.1422 41.9649 63.5881 41.568C62.0339 41.1711 60.3125 41.2045 58.9055 41.9827C57.4985 42.7609 56.3301 44.984 56.6021 46.556Z" fill="#FF76B8"/>
<path d="M56.2872 47.1134C61.1771 50.1036 65.7973 53.4304 70.3349 56.9245C73.8067 59.6003 78.933 62.751 83.3436 60.1689C84.978 59.2123 86.1308 57.3928 85.4909 55.4863C84.8041 53.4282 82.5609 52.233 80.8797 51.0936C76.2328 47.9474 71.5546 44.5759 66.5331 42.0406C64.2208 40.8722 61.4046 40.0895 58.9362 41.2691C57.0676 42.161 55.7275 44.4934 55.9772 46.5604C56.0731 47.3631 57.3486 47.3743 57.2504 46.5604C57.0141 44.5982 58.3966 42.6204 60.2919 42.1298C62.5596 41.5434 64.8273 42.5312 66.7762 43.6148C70.7898 45.8447 74.6474 48.429 78.4648 50.9977C80.204 52.1684 82.4361 53.2744 83.745 54.9489C85.3415 56.9959 83.5354 59.0295 81.4326 59.5825C76.8749 60.7799 72.8212 57.2523 69.501 54.6769C65.4763 51.5576 61.2815 48.664 56.936 46.0097C56.2247 45.586 55.5848 46.6875 56.2872 47.1134Z" fill="#FFC736"/>
<path d="M82.674 54.5832C81.894 54.0982 81.0126 53.7996 80.0983 53.7107C79.1841 53.6217 78.2617 53.7448 77.4028 54.0704C76.0649 54.5788 74.1629 55.9434 74.863 57.6068C75.6033 59.3639 78.288 59.2212 79.8243 59.025C81.5368 58.802 83.207 57.647 83.1155 55.7583C83.0754 54.9422 81.8022 54.9378 81.8423 55.7583C81.9137 57.1943 80.4598 57.7183 79.2602 57.8031C78.4106 57.8633 75.1997 58.0082 76.2968 56.2823C76.794 55.5019 78.1163 55.0782 78.9726 54.9779C80.0414 54.8568 81.1195 55.1055 82.0274 55.6825C82.7275 56.1151 83.3653 55.0136 82.6696 54.5832H82.674Z" fill="#FFC736"/>
<path d="M86.0686 80.128C81.7267 77.603 77.5365 74.8259 73.5193 71.8109C71.6775 70.4284 69.849 68.9835 67.7597 68.0626C65.6704 67.1417 63.2511 66.7894 61.1461 67.6568C59.7191 68.2454 58.4213 69.6034 58.5016 71.2022C58.5885 72.9436 60.1695 74.1366 61.5921 75.0597C66.1097 77.9941 70.6339 80.933 75.3321 83.533C76.6879 84.2866 78.077 85.0202 79.5688 85.3547C81.0605 85.6892 82.715 85.5933 84.0284 84.766C85.3417 83.9388 86.3875 81.6934 86.0686 80.128Z" fill="#FF76B8"/>
<path d="M86.3876 79.5905C81.6249 76.7718 77.025 73.6868 72.6097 70.3502C69.1624 67.7792 63.8867 64.7021 59.7482 67.7458C58.2743 68.8295 57.4359 70.6691 58.1672 72.4395C59.0101 74.4843 61.318 75.6192 63.0728 76.7542C65.452 78.295 67.8379 79.8269 70.2617 81.2985C72.5874 82.7122 74.9443 84.2285 77.4506 85.3122C79.6023 86.2331 82.2692 86.6634 84.363 85.3122C86.0598 84.2218 86.9852 81.9206 86.682 79.9606C86.5593 79.1713 85.3597 79.5147 85.4823 80.2907C85.7789 82.2016 84.412 84.224 82.5836 84.7391C80.4184 85.3523 78.2109 84.3801 76.3401 83.3767C72.4313 81.2874 68.6785 78.8881 64.9548 76.4866C63.269 75.3985 61.1351 74.3884 59.8485 72.8119C58.3278 70.95 59.6634 68.825 61.6792 68.1293C65.9649 66.6331 70.0253 69.9622 73.2184 72.3548C77.2345 75.3647 81.42 78.1417 85.7544 80.672C86.4478 81.0689 87.0744 80.003 86.3876 79.5905Z" fill="#FFC736"/>
<path d="M60.8098 73.0907C61.5452 73.5306 62.3722 73.7951 63.2265 73.8636C64.0807 73.932 64.9393 73.8026 65.7354 73.4853C67.022 72.9702 68.8214 71.5922 68.2707 69.9823C67.6597 68.1985 65.1713 68.3546 63.6862 68.5486C61.9024 68.7715 60.2055 69.9645 60.3571 71.9356C60.4173 72.7294 61.6638 72.7361 61.6013 71.9356C61.4854 70.4327 62.8679 69.853 64.1322 69.7482C65.0352 69.6724 68.2885 69.6701 66.6674 71.4094C65.3296 72.8476 63.073 72.9702 61.4408 72.0159C60.7496 71.6078 60.123 72.6848 60.812 73.0907H60.8098Z" fill="#FFC736"/>
<path d="M25.4911 80.5602C29.296 81.6547 33.031 82.9786 36.6758 84.5248C38.3593 85.2383 40.0517 86.0054 41.7909 86.2886C43.5302 86.5717 45.3586 86.3153 46.6341 85.1357C47.4992 84.3352 48.0701 82.9394 47.5907 81.655C47.0689 80.2547 45.6195 79.6482 44.3575 79.2022C40.3438 77.822 36.3302 76.4418 32.2764 75.3692C31.1057 75.0593 29.9173 74.7739 28.7533 74.8363C27.5893 74.8987 26.4365 75.3469 25.7185 76.3147C25.0005 77.2824 24.8467 79.3583 25.4911 80.5602Z" fill="#FF76B8"/>
<path d="M25.3595 81.0416C29.7946 82.3238 34.0245 84.0184 38.2924 85.7421C41.2424 86.9328 45.9339 87.9451 47.8002 84.4153C48.1511 83.7847 48.2997 83.0615 48.2259 82.3436C48.1522 81.6257 47.8595 80.9478 47.3877 80.4017C46.2951 79.1686 44.5314 78.7472 43.0329 78.2343C40.7541 77.4539 38.473 76.6735 36.1696 75.98C34.1449 75.3601 32.0333 74.6131 29.9261 74.3924C28.2382 74.214 26.3206 74.5931 25.2904 76.0759C24.3628 77.4138 24.3985 79.3938 25.0674 80.8209C25.3417 81.4006 26.2001 80.8945 25.9281 80.317C25.0228 78.3971 25.8144 76.0112 27.9505 75.4671C29.9774 74.952 32.3098 75.8819 34.243 76.4416C36.4728 77.0904 38.7026 77.8129 40.9079 78.5576C42.6583 79.1485 45.1133 79.5633 46.4824 80.89C48.4023 82.7474 46.498 85.2404 44.4199 85.7487C42.248 86.2817 40.0138 85.3942 38.0359 84.5692C33.9866 82.8402 29.8421 81.343 25.6226 80.0851C25.0072 79.9 24.7441 80.8633 25.3595 81.0416Z" fill="#FFC736"/>
<path d="M45.4918 80.6715C44.8651 80.4768 44.1989 80.4459 43.5567 80.5817C42.9146 80.7176 42.318 81.0156 41.8238 81.4475C40.9319 82.2279 40.089 83.8 40.9319 84.8948C41.8238 86.0699 43.5207 85.4768 44.6178 84.9394C45.9177 84.3039 46.687 82.8947 46.1117 81.4899C45.8709 80.9034 44.9054 81.1599 45.1507 81.7552C45.5364 82.694 45.1239 83.5591 44.2365 84.0162C43.5809 84.3552 41.6298 85.1668 41.5852 83.82C41.5607 83.0619 42.3054 82.2458 42.903 81.8846C43.2508 81.6794 43.6384 81.5508 44.0398 81.5073C44.4412 81.4639 44.8473 81.5066 45.2309 81.6326C45.8486 81.8132 46.1117 80.8522 45.4963 80.6715H45.4918Z" fill="#FFC736"/>
<path d="M56.675 34.5885C53.2859 37.4505 50.0666 40.5075 47.0333 43.7441C45.6441 45.2269 44.275 46.761 42.5982 47.8871C40.9214 49.0131 38.8611 49.7021 36.8877 49.2918C35.5498 49.0131 34.2119 48.0521 34.0179 46.6651C33.8195 45.1533 35.0102 43.8757 36.105 42.8544C39.5857 39.6078 43.0709 36.359 46.759 33.3666C47.8249 32.5014 48.9219 31.6496 50.1795 31.1212C51.4371 30.5927 52.8888 30.4143 54.1642 30.9183C55.4396 31.4222 56.7084 33.1904 56.675 34.5885Z" fill="#FF76B8"/>
<path d="M56.2853 34.2004C53.3776 36.6636 50.5941 39.265 47.9347 42.0047C45.4819 44.5422 43.009 47.9761 39.3388 48.7298C37.74 49.0576 35.3407 48.8101 34.6763 47.0173C33.9583 45.0752 36.3464 43.3761 37.575 42.2433C40.3912 39.6211 43.2231 37.0144 46.182 34.555C47.7429 33.2661 49.3751 31.7699 51.3975 31.3039C53.6273 30.7911 56.0467 32.1334 56.1336 34.5929C56.1582 35.2953 57.2485 35.2997 57.2307 34.5929C57.1803 33.7633 56.9223 32.9596 56.4805 32.2556C56.0387 31.5516 55.4272 30.9698 54.7021 30.5636C52.9919 29.6516 50.8668 30.1177 49.2391 30.9694C47.3014 31.984 45.6134 33.585 43.9656 34.9987C42.0524 36.6376 40.1883 38.3322 38.3398 40.0403C36.1769 42.0471 30.9302 45.9938 34.8725 48.9595C38.2328 51.4948 42.6389 48.9104 45.1809 46.4643C47.1074 44.6091 48.8623 42.58 50.7732 40.7048C52.8008 38.7158 54.8998 36.8048 57.0702 34.9719C57.6009 34.5148 56.8227 33.7455 56.2853 34.2004Z" fill="#FFC736"/>
<path d="M36.4786 45.4741C37.647 44.4863 40.1511 43.9868 41.3039 45.3514C42.4567 46.7161 39.8389 46.9613 39.1209 47.0216C38.122 47.1063 36.7395 46.8878 36.6102 45.6413C36.5388 44.9456 35.4417 44.9389 35.5131 45.6413C35.6714 47.1553 36.9156 48.0584 38.3873 48.1365C39.7631 48.21 42.1936 47.9692 42.673 46.3905C43.119 44.9255 41.4533 43.9377 40.2648 43.6144C39.4734 43.4109 38.6443 43.4034 37.8493 43.5927C37.0543 43.7819 36.3175 44.1621 35.7026 44.7003C35.163 45.1463 35.9412 45.929 36.4786 45.4763V45.4741Z" fill="#FFC736"/>
<path d="M29.5137 38.1004C33.2271 35.945 37.068 34.0171 41.015 32.3274C42.839 31.5447 44.7121 30.7978 46.235 29.6516C47.758 28.5055 48.9108 26.8867 48.9353 25.0092C48.9464 23.736 48.2664 22.2465 46.8839 21.6645C45.381 21.0268 43.8112 21.6957 42.5246 22.358C38.4329 24.4607 34.339 26.5634 30.4569 28.9269C29.342 29.6093 28.2271 30.325 27.4021 31.2794C26.5771 32.2337 26.0776 33.4691 26.3117 34.7557C26.5459 36.0422 28.0755 37.7057 29.5137 38.1004Z" fill="#FF76B8"/>
<path d="M29.7859 38.5688C33.9757 36.145 38.3193 34.1092 42.75 32.1715C45.8717 30.8068 50.0548 28.3808 49.4215 24.3114C49.1874 22.8041 48.155 21.4283 46.6521 21.0068C44.5561 20.4182 42.498 21.7583 40.7186 22.677C38.5512 23.7919 36.3883 24.9202 34.2522 26.1019C32.2008 27.2391 30.0289 28.3518 28.1804 29.8079C26.6575 31.0075 25.3597 32.856 25.7879 34.8963C26.1469 36.6132 27.7478 38.0916 29.3555 38.6245C30.0245 38.8475 30.3032 37.7973 29.6432 37.581C28.1113 37.0793 26.6329 35.4805 26.8113 33.7903C27.012 31.8794 28.7134 30.6463 30.2162 29.7008C33.4673 27.6561 36.8856 25.8678 40.2927 24.104C41.8848 23.279 43.6999 21.9768 45.5484 21.9501C47.602 21.9188 48.6879 24.0171 48.2888 25.8344C47.5262 29.3218 43.4077 30.7043 40.5335 31.944C36.6608 33.6192 32.8897 35.52 29.2396 37.6367C28.6353 37.9823 29.1816 38.9188 29.7859 38.5688Z" fill="#FFC736"/>
<path d="M44.5397 22.5545C43.9165 22.8983 43.393 23.3975 43.0198 24.0035C42.6467 24.6095 42.4367 25.3017 42.4102 26.0129C42.3678 27.3062 43.0011 29.1502 44.5107 29.2863C46.1763 29.4379 47.066 27.4155 47.3626 26.0776C47.5336 25.3802 47.4414 24.6443 47.1037 24.0107C46.7659 23.3771 46.2062 22.8903 45.5319 22.6437C44.8853 22.3872 44.6021 23.433 45.2443 23.6872C46.3079 24.1087 46.5175 25.17 46.2165 26.1668C46.0968 26.6052 45.9119 27.0231 45.6679 27.4065C45.0837 28.1803 44.1896 28.2984 43.7748 27.4199C43.0702 25.9415 43.7191 24.2826 45.0882 23.4888C45.6902 23.1387 45.1462 22.2022 44.5419 22.5545H44.5397Z" fill="#FFC736"/>
<path d="M75.6181 97.8814L60.0786 98.7734C56.7785 98.9629 53.4517 99.1502 50.1872 98.5504C48.885 98.3096 47.5784 97.935 46.4412 97.1456C45.2155 96.3061 44.3572 95.0297 44.0419 93.5779C43.7364 92.055 44.1935 90.2823 45.304 89.4416C46.216 88.7504 47.371 88.7727 48.4502 88.7995L74.6326 89.6669C75.2457 89.6869 75.879 89.7114 76.4387 90.0125C77.7052 90.6926 78.2047 92.6548 77.8412 94.2491C77.4778 95.8434 76.7063 96.8557 75.6181 97.8814Z" fill="#FF76B8"/>
<path d="M75.6191 97.1722L60.0773 98.0641C57.5688 98.2068 55.0469 98.3517 52.5384 98.1466C50.2461 97.9593 47.5994 97.5646 45.9582 95.7875C44.6583 94.3782 43.9514 91.5977 45.5925 90.1215C46.422 89.3723 47.6395 89.4816 48.6719 89.515L52.8885 89.6555L68.1983 90.1617L72.4148 90.3021C73.6256 90.3423 75.6815 90.0212 76.569 91.0201C78.3238 92.9957 76.6403 95.9257 75.1174 97.384C74.4484 98.0195 75.463 99.0229 76.1208 98.3874C77.7597 96.8065 78.9348 94.735 78.6003 92.3848C78.2814 90.1327 76.8165 89.0579 74.6313 88.9531C68.2763 88.6499 61.908 88.5317 55.5508 88.3221L50.6698 88.1615C49.3453 88.1169 47.9428 87.9386 46.6249 88.1615C44.5312 88.5116 43.365 90.2932 43.249 92.3268C43.1175 94.6235 44.4776 96.7864 46.3975 97.9637C48.6273 99.3284 51.4993 99.5692 54.0435 99.6517C57.5309 99.7632 61.0384 99.4287 64.5236 99.2303L75.6235 98.5926C76.5266 98.539 76.5333 97.1187 75.6191 97.1722Z" fill="#FFC736"/>
<path d="M50.3506 92.1374C49.2848 90.94 47.4385 89.4951 45.8776 90.7505C44.2053 92.0884 45.804 94.4051 46.8164 95.6338C47.8287 96.8624 49.9916 98.3095 51.4588 96.9716C53.071 95.4955 51.3875 93.3081 50.3439 92.1307C49.7396 91.444 48.7385 92.4518 49.3405 93.1342C49.7865 93.6448 51.4923 95.364 50.3038 96.0329C49.4698 96.4922 48.1877 95.0964 47.7618 94.5523C47.3359 94.0082 45.7349 91.8074 47.2244 91.6736C48.0115 91.6023 48.8745 92.6168 49.3427 93.1408C49.9559 93.8276 50.9571 92.8197 50.3506 92.1374Z" fill="#FFC736"/>
<path d="M105.709 56.5896L96.2124 57.0958C94.2056 57.2028 92.1631 57.3188 90.1675 56.9687C89.3577 56.86 88.5786 56.5876 87.8774 56.1682C87.1426 55.7093 86.6168 54.9809 86.4125 54.1391C86.2252 53.2739 86.5039 52.266 87.184 51.7866C87.7414 51.3942 88.446 51.4009 89.1061 51.4209L105.107 51.907C105.485 51.8916 105.862 51.9586 106.211 52.1032C106.985 52.489 107.29 53.6061 107.067 54.5137C106.844 55.4212 106.376 56.0054 105.709 56.5896Z" fill="#FF76B8"/>
<path d="M105.711 56.1707C102.041 56.3669 98.3704 56.6166 94.7002 56.7504C92.9163 56.8195 90.9898 56.8708 89.2661 56.3357C88.3162 56.0413 87.4622 55.5151 87.023 54.5897C86.5837 53.6644 86.7398 52.2752 87.897 51.914C88.673 51.6754 89.6497 51.8538 90.4435 51.8783L93.3422 51.9675L98.8766 52.1303C100.801 52.1905 102.73 52.2217 104.654 52.3087C105.769 52.3577 106.737 52.6498 106.71 53.9476C106.692 54.9131 106.081 55.6645 105.403 56.2822C105.004 56.6456 105.597 57.2365 105.994 56.8731C106.906 56.0413 107.642 54.9532 107.535 53.6621C107.439 52.5071 106.743 51.6709 105.584 51.5171C103.686 51.2651 101.675 51.3788 99.7618 51.3186L93.5407 51.1269C91.7568 51.0711 89.75 50.7344 87.984 51.0332C86.8312 51.2294 86.0842 52.0834 85.9482 53.2385C85.5669 56.5163 89.4155 57.4149 91.875 57.5688C94.1739 57.7137 96.4974 57.4863 98.7874 57.3636L105.7 56.9957C106.248 56.9801 106.251 56.1439 105.711 56.1707Z" fill="#FFC736"/>
<path d="M90.2583 53.3118C89.5894 52.6139 88.4745 51.8067 87.5447 52.5202C86.5323 53.2917 87.5134 54.6296 88.1222 55.3209C88.7309 56.0121 90.0688 56.8617 90.9362 56.0857C91.9017 55.225 90.8894 53.9785 90.2673 53.3118C89.8971 52.9194 89.304 53.5125 89.6764 53.9027C89.9506 54.1926 90.9786 55.138 90.2583 55.5238C89.7745 55.7824 88.9963 55.0421 88.722 54.7277C88.499 54.4646 87.4466 53.1245 88.3719 53.0732C88.8603 53.0465 89.3709 53.5838 89.6764 53.9027C90.0398 54.2952 90.6263 53.702 90.2583 53.3118Z" fill="#FFC736"/>
<path d="M99.7554 36.9898L85.9842 39.6656C83.0587 40.2319 80.1109 40.8005 77.1296 40.7314C75.9412 40.7047 74.7304 40.5686 73.6266 40.0803C72.5229 39.592 71.5261 38.7068 71.0824 37.5294C70.6387 36.3521 70.846 34.876 71.7513 34.0643C72.4872 33.3954 73.5196 33.2616 74.4873 33.1546L97.9582 30.5524C98.509 30.4922 99.0731 30.432 99.6083 30.6014C100.817 30.985 101.481 32.4923 101.339 33.8101C101.196 35.1279 100.612 36.0332 99.7554 36.9898Z" fill="#FF76B8"/>
<path d="M99.5961 36.4058L86.6856 38.9076C84.5026 39.3313 82.3174 39.7862 80.1009 39.998C78.0941 40.1898 75.7885 40.3548 73.8976 39.5208C72.1918 38.7694 70.4704 36.3991 72.0246 34.6509C72.6935 33.9106 73.7772 33.8304 74.7004 33.7278L78.2435 33.3353L91.3079 31.886L95.0718 31.469C96.2782 31.3352 97.567 31.0476 98.7822 31.0877C100.084 31.1301 100.753 32.2873 100.744 33.4959C100.736 34.7044 100.076 35.6967 99.3285 36.5619C98.8179 37.1483 99.6719 38.0068 100.185 37.4181C101.42 35.9977 102.354 34.1827 101.781 32.2606C101.112 30.0308 99.3285 29.7855 97.286 30.0129L80.237 31.9038L76.2523 32.3498C75.0884 32.4791 73.833 32.5014 72.7092 32.8582C70.9967 33.4022 70.078 34.9988 70.2898 36.7626C70.9075 41.9201 77.7507 41.5499 81.4388 41.0572C87.6288 40.2321 93.7786 38.7649 99.9083 37.5787C100.682 37.4248 100.359 36.2586 99.5961 36.4058Z" fill="#FFC736"/>
<path d="M76.4663 35.5204C75.3737 34.6954 73.6478 33.8324 72.4526 34.9652C71.0791 36.2629 72.8071 38.0066 73.8373 38.8472C74.8675 39.6879 76.9702 40.5999 78.0739 39.32C79.3137 37.8728 77.5366 36.3276 76.4774 35.5293C75.8575 35.0566 75.2532 36.1091 75.8664 36.5751C76.3503 36.9452 78.0962 38.2296 76.716 38.7179C75.8687 39.0145 74.7092 38.0601 74.1673 37.5205C73.6991 37.0567 72.4838 35.701 73.8864 35.6319C74.5709 35.5984 75.3558 36.1893 75.8664 36.5751C76.4774 37.0366 77.0817 35.9864 76.4663 35.5204Z" fill="#FFC736"/>
<path d="M23.713 45.0132C23.3495 45.7379 23.2425 47.0378 23.3852 47.8361C23.526 48.7948 23.8812 49.7094 24.4243 50.5119C24.9929 51.2923 25.8625 51.8899 26.8258 51.9702C26.8554 51.9761 26.8858 51.9761 26.9153 51.9699C26.9448 51.9638 26.9728 51.9517 26.9975 51.9345C27.0353 51.8913 27.0559 51.8358 27.0555 51.7784L27.3119 49.455C27.3579 49.1594 27.3579 48.8586 27.3119 48.563C27.1915 47.9788 26.7277 47.5262 26.2305 47.1984C25.7332 46.8706 25.1802 46.6231 24.7253 46.2373C24.3374 45.8738 23.9973 45.4624 23.713 45.0132Z" fill="#FF76B8"/>
<path d="M23.2314 44.7319C22.5624 46.2727 22.6717 48.0119 23.2849 49.555C23.8223 50.9062 25.1713 52.612 26.8236 52.5295C27.4279 52.4983 27.5483 52.1148 27.6308 51.5885C27.7802 50.6476 28.0232 49.5014 27.8738 48.5515C27.7623 47.8447 27.3164 47.3029 26.7589 46.8792C25.809 46.1567 24.9104 45.742 24.1902 44.7297C23.7777 44.1499 22.8099 44.7051 23.2269 45.2916C23.9694 46.3373 24.7365 46.8747 25.7979 47.5704C26.5426 48.0588 26.8303 48.5649 26.75 49.4479C26.6853 50.1637 26.7032 51.1069 26.4534 51.787L26.8436 51.3968C25.5414 51.6599 24.4734 49.6887 24.1679 48.7433C23.8178 47.6485 23.7219 46.3708 24.1857 45.2893C24.4778 44.6427 23.5079 44.0741 23.2314 44.7319Z" fill="#FFC736"/>
<path d="M93.7215 68.4861C92.1606 68.8451 90.7938 69.9176 89.8528 71.2176C89.374 71.8632 89.0309 72.599 88.8443 73.3808C88.6577 74.1626 88.6313 74.9741 88.7669 75.7664C89.0206 76.8697 89.5198 77.9017 90.2274 78.7855C90.4943 79.163 90.8125 79.5015 91.1728 79.7911C91.6236 80.1098 92.126 80.3481 92.6579 80.4958C94.9903 81.2227 97.7084 81.0889 99.6617 79.6217C101.104 78.5536 101.996 76.8478 102.264 75.0773C102.419 74.3873 102.402 73.6697 102.216 72.9875C102.029 72.3053 101.678 71.6792 101.194 71.164C99.3763 69.0346 96.4485 67.8595 93.7215 68.4861Z" fill="#FF76B8"/>
<path d="M93.557 67.8909C90.6783 68.6534 88.3013 71.2935 88.0717 74.3038C87.8487 77.227 89.8444 80.3242 92.6606 81.1493C95.4769 81.9743 98.8929 81.5662 100.962 79.2762C102.835 77.2047 103.79 73.6638 102.044 71.2489C101.095 69.9399 99.7926 68.9288 98.2893 68.3343C96.786 67.7399 95.1443 67.5868 93.557 67.8931C92.7766 68.0514 93.111 69.2443 93.887 69.086C96.6542 68.5241 100.175 69.9133 101.417 72.5868C102.755 75.4856 100.287 79.196 97.4993 80.0254C96.079 80.4209 94.5767 80.414 93.1601 80.0054C91.5056 79.5594 90.4843 78.4133 89.7797 76.8837C88.2857 73.6482 90.6248 69.9557 93.8892 69.0793C94.6563 68.8809 94.3285 67.6857 93.557 67.8909Z" fill="#FFC736"/>
<path d="M90.2076 69.969C89.9579 71.3872 89.7282 72.9213 90.2076 74.3194C90.733 75.7602 91.6098 77.0471 92.7585 78.0632C93.95 79.1619 95.4336 79.8929 97.0308 80.1681C97.9986 80.3242 99.7757 80.4848 100.556 79.6999C101.118 79.1335 100.244 78.2572 99.6798 78.8236C99.1157 79.3899 97.2271 78.9819 96.5983 78.8236C95.3227 78.4686 94.167 77.7752 93.2536 76.8167C92.4419 75.9872 91.6927 74.9482 91.356 73.8266C91.0193 72.705 91.2133 71.434 91.414 70.299C91.5522 69.5208 90.3593 69.1841 90.221 69.969H90.2076Z" fill="#FFC736"/>
<path d="M92.6643 71.5075C91.7055 74.6806 94.8228 78.197 98.1474 77.4054C99.8911 76.9929 98.7606 75.51 98.0448 74.6337C96.8187 73.1642 95.2939 71.9724 93.5719 71.1374C92.8606 70.7873 92.234 71.8554 92.9475 72.2055C93.9487 72.6915 94.8826 73.3054 95.7258 74.0317C96.4929 74.7006 97.5476 75.6148 97.9111 76.5893C97.7371 76.1277 97.804 76.2615 97.2956 76.2615C96.9435 76.2545 96.5949 76.1905 96.2632 76.0719C95.73 75.8974 95.2388 75.6142 94.8205 75.2402C94.3492 74.8257 94.0076 74.2838 93.8367 73.6799C93.6659 73.0759 93.673 72.4354 93.8573 71.8353C94.0892 71.0705 92.8962 70.745 92.6643 71.5075Z" fill="#FFC736"/>
<path d="M94.0901 71.084C95.9966 72.4374 97.9544 73.7597 99.6334 75.3919C99.9478 75.6974 100.365 75.5792 100.606 75.2671C101.593 73.9827 100.037 71.4407 99.0269 70.6001C97.7403 69.5298 95.7781 69.7372 94.2395 69.9557C93.4546 70.0672 93.7936 71.2601 94.5673 71.1486C95.5484 71.0104 96.7971 70.8543 97.7403 71.2556C98.2931 71.5343 98.7434 71.9808 99.0269 72.5311C99.2499 72.9213 99.8809 74.1945 99.5353 74.6427L100.507 74.5178C98.7549 72.8054 96.7057 71.4296 94.71 70.0159C94.0634 69.5498 93.4457 70.6224 94.0901 71.084Z" fill="#FFC736"/>
<path d="M32.4294 60.2002C33.7472 59.723 35.2545 59.8612 36.5612 60.3674C37.2189 60.6138 37.8198 60.991 38.3276 61.4762C38.8355 61.9614 39.2396 62.5445 39.5157 63.1903C39.8527 64.1171 39.9769 65.1078 39.8792 66.0891C39.8604 66.493 39.7854 66.8922 39.6562 67.2753C39.4772 67.723 39.2222 68.1364 38.9025 68.4973C37.5379 70.1384 35.482 71.3269 33.3548 71.173C31.7863 71.0209 30.3369 70.2702 29.3077 69.077C28.8666 68.6448 28.5381 68.1111 28.3511 67.5226C28.1642 66.934 28.1243 66.3086 28.2351 65.7011C28.5518 63.2795 30.1394 61.0341 32.4294 60.2002Z" fill="#FF76B8"/>
<path d="M32.5804 60.7217C35.2205 59.8855 38.5362 61.1676 39.223 64.0352C39.5931 65.5715 39.3769 67.1814 38.3132 68.3766C37.4464 69.3765 36.31 70.1057 35.0399 70.4771C32.5871 71.146 29.0194 69.516 28.7452 66.7332C28.4976 64.218 30.2904 61.627 32.5826 60.7128C33.2226 60.4608 32.9439 59.415 32.295 59.6715C31.1763 60.1152 30.1835 60.8266 29.4037 61.7433C28.6238 62.66 28.0808 63.754 27.822 64.9293C27.2066 67.6519 28.7006 69.9821 31.1667 71.1416C33.5771 72.2743 36.2328 71.6076 38.2196 69.9553C39.2587 69.0901 40.1595 68.002 40.3691 66.6351C40.59 65.3286 40.4353 63.9862 39.9232 62.7642C38.6544 59.9636 35.1157 58.7795 32.2905 59.6737C31.6327 59.8877 31.9159 60.9335 32.5804 60.7217Z" fill="#FFC736"/>
<path d="M34.9709 60.4004C35.6398 61.1251 36.3667 61.9145 36.6811 62.8733C37.0201 63.9124 36.9465 65.17 36.7079 66.218C36.4773 67.2885 35.976 68.2819 35.2518 69.1034C34.8571 69.5493 33.691 70.6999 33.0064 70.5996C32.3219 70.4992 32.032 71.5428 32.7188 71.6409C33.7289 71.7858 34.817 70.9719 35.535 70.3431C36.5137 69.4519 37.2301 68.3099 37.6065 67.0408C38.0252 65.7119 38.0974 64.2981 37.8161 62.9335C37.5195 61.6358 36.6209 60.5855 35.7357 59.6334C35.2607 59.1228 34.4981 59.8876 34.9709 60.3982V60.4004Z" fill="#FFC736"/>
<path d="M33.9025 62.6969C34.3366 63.0566 34.6544 63.5367 34.8159 64.0768C34.9774 64.6169 34.9754 65.1927 34.8101 65.7317C34.5871 66.521 33.7643 67.9325 32.7564 67.841L33.2782 68.238C32.9526 67.3639 33.3429 66.0973 33.5904 65.2411C33.8618 64.3089 34.2523 63.4156 34.7521 62.5832C35.1089 61.9856 34.1746 61.4415 33.82 62.0369C33.2124 63.0523 32.7529 64.1493 32.4554 65.2946C32.2123 66.2378 31.8868 67.5802 32.2324 68.5234C32.2678 68.6353 32.3369 68.7335 32.4303 68.8046C32.5238 68.8757 32.6369 68.9161 32.7542 68.9203C34.1411 69.0451 35.3162 67.4709 35.7444 66.3315C36.0351 65.5766 36.0869 64.7506 35.8927 63.9653C35.6984 63.18 35.2676 62.4733 34.6584 61.941C34.1434 61.4794 33.3763 62.242 33.9025 62.6969Z" fill="#FFC736"/>
<path d="M32.3935 61.89C31.6197 63.83 30.7947 65.7654 30.3287 67.8079L31.1225 67.4846C30.1325 66.9896 30.3532 64.713 30.8995 64.0173C31.4458 63.3216 32.3757 62.8734 33.1784 62.4988C33.8072 62.2067 33.2609 61.2746 32.6321 61.5667C31.4391 62.1219 29.9898 62.9046 29.546 64.2313C29.1514 65.4198 29.2941 67.7812 30.5673 68.4167C30.639 68.4573 30.7191 68.4811 30.8014 68.4864C30.8837 68.4917 30.9661 68.4783 31.0425 68.4472C31.1188 68.4161 31.1872 68.3681 31.2424 68.3068C31.2975 68.2455 31.3381 68.1725 31.3611 68.0933C31.8271 66.0508 32.6521 64.1154 33.4259 62.1754C33.6935 61.531 32.6521 61.2501 32.3935 61.89Z" fill="#FFC736"/>
<path d="M99.6252 40.8228C100.682 41.2889 101.503 42.261 101.995 43.3492C102.507 44.4615 102.565 45.7294 102.156 46.8834C101.834 47.6691 101.345 48.3753 100.722 48.9527C100.485 49.1992 100.215 49.4116 99.9196 49.5837C99.5615 49.7639 99.1741 49.8787 98.7757 49.9227C97.0297 50.1702 95.1277 49.7264 93.9415 48.3863C93.0718 47.403 92.6638 46.0183 92.7084 44.6625C92.7095 44.0208 92.868 43.3892 93.1699 42.823C93.3878 42.4649 93.6636 42.1454 93.9861 41.8775C95.5558 40.5173 97.7812 40.0089 99.6252 40.8228Z" fill="#FF76B8"/>
<path d="M99.3939 41.2174C101.514 42.2632 102.612 44.9813 101.532 47.1487C100.979 48.2636 99.9714 49.2447 98.7451 49.4566C97.63 49.6532 96.4812 49.4899 95.465 48.9905C93.5184 47.9849 92.4303 45.0371 93.5608 43.0503C94.6913 41.0636 97.5209 40.4771 99.501 41.2665C100.047 41.4895 100.284 40.5975 99.744 40.3857C97.2912 39.4135 93.7369 40.3857 92.6086 42.9321C91.4804 45.4786 92.8115 48.8032 95.3022 49.9203C96.5572 50.4674 97.9545 50.598 99.2891 50.2927C100.669 49.9672 101.809 48.6917 102.411 47.4497C103.635 44.9055 102.342 41.6522 99.86 40.4303C99.3226 40.1694 98.8766 40.9565 99.3939 41.2174Z" fill="#FFC736"/>
<path d="M101.009 42.4149C100.985 44.2656 100.53 45.7194 99.0538 46.9369C98.3967 47.4917 97.6184 47.8843 96.7816 48.083C96.1907 48.2146 94.5028 48.393 94.068 47.8199C93.7179 47.3583 92.9241 47.8199 93.2786 48.2815C94.4738 49.8423 97.5554 49.024 98.9133 48.1611C101.056 46.7987 101.89 44.8766 101.924 42.4171C101.924 41.8284 101.018 41.8284 101.009 42.4171V42.4149Z" fill="#FFC736"/>
<path d="M99.0673 43.2553C99.1206 43.6778 99.0687 44.1069 98.9162 44.5045C98.7637 44.902 98.5154 45.2558 98.1932 45.5342C97.6157 46.027 96.1128 46.6491 95.4862 45.9155L95.6044 46.3615C95.7114 45.755 96.9936 45.008 97.4462 44.7203C98.131 44.2841 98.8702 43.94 99.6448 43.6968C100.204 43.5229 99.9659 42.6421 99.4017 42.8161C98.5098 43.0948 93.2118 45.6412 95.1785 46.8297C96.1864 47.4407 97.6558 47.0527 98.5477 46.4038C99.0433 46.0517 99.4374 45.5754 99.6906 45.0227C99.9439 44.4701 100.047 43.8606 99.9904 43.2553C99.9235 42.6756 99.0115 42.6711 99.0673 43.2553Z" fill="#FFC736"/>
<path d="M98.6397 41.8728C97.0788 42.6599 95.4756 43.4158 94.0463 44.4415L94.7152 44.7135C94.441 43.9175 95.6651 42.5818 96.3653 42.3722C97.1145 42.1493 98.0376 42.4681 98.7467 42.7045C99.3042 42.8918 99.545 42.011 98.9898 41.8237C97.9083 41.4603 96.537 41.1079 95.5023 41.7813C94.626 42.3544 93.4509 43.8417 93.8345 44.9544C93.9214 45.2086 94.2492 45.4003 94.5034 45.2264C95.9327 44.2007 97.5292 43.4425 99.0968 42.6577C99.623 42.4035 99.1614 41.6163 98.6397 41.8728Z" fill="#FFC736"/>
<path d="M58.951 33.2821C58.0323 32.2185 57.6243 30.7557 57.6309 29.3509C57.6269 28.6466 57.7657 27.9487 58.039 27.2994C58.3122 26.6502 58.7143 26.0631 59.2208 25.5737C59.9713 24.9249 60.8585 24.4539 61.8163 24.1956C62.2002 24.0664 62.6002 23.9914 63.0048 23.9727C63.4881 23.9813 63.9664 24.0733 64.4185 24.2447C66.4431 24.9382 68.2916 26.4388 68.9137 28.4813C69.3375 30.0117 69.1521 31.6468 68.3964 33.0435C68.1487 33.6116 67.7655 34.1103 67.2804 34.4959C66.7953 34.8815 66.223 35.1423 65.6136 35.2555C63.2278 35.8218 60.5542 35.1373 58.951 33.2821Z" fill="#FF76B8"/>
<path d="M59.3331 32.8986C57.527 30.6376 57.8013 26.9339 60.3856 25.3864C61.6967 24.6015 63.1349 24.3161 64.5754 24.878C65.7797 25.331 66.8332 26.1118 67.6168 27.1324C69.1041 29.1392 68.9547 33.0079 66.5399 34.3435C64.2209 35.6279 61.0412 34.7672 59.3309 32.8986C58.8582 32.3835 58.0934 33.1506 58.5638 33.6657C59.4278 34.584 60.5117 35.2668 61.713 35.6495C62.9144 36.0323 64.1935 36.1024 65.4294 35.8531C68.1052 35.3447 69.5969 32.8919 69.6816 30.2786C69.7686 27.6185 68.0383 25.3731 65.7304 24.2247C64.5754 23.645 63.3468 23.2703 62.0602 23.5736C60.7357 23.8858 59.3844 24.5369 58.4747 25.5804C56.5013 27.8682 56.7376 31.3913 58.5638 33.6768C59.0009 34.2098 59.7657 33.4382 59.3331 32.8986Z" fill="#FFC736"/>
<path d="M58.2079 30.8869C58.6138 30.0663 59.053 29.1655 59.7309 28.5322C60.5849 27.734 61.847 27.317 62.9797 27.1408C64.1857 26.9412 65.4235 27.0905 66.5474 27.5712C67.0893 27.812 68.4048 28.4453 68.5074 29.132C68.61 29.8188 69.6558 29.5267 69.5532 28.8444C69.4261 27.9971 68.2153 27.2456 67.5464 26.871C66.356 26.2137 65.0039 25.9068 63.6464 25.9858C62.2236 26.0507 60.8414 26.4807 59.6328 27.2345C58.5179 27.9726 57.8489 29.1655 57.2625 30.3406C56.9548 30.9649 57.8891 31.5135 58.199 30.8869H58.2079Z" fill="#FFC736"/>
<path d="M60.7968 30.9476C60.9656 30.4765 61.2572 30.059 61.6414 29.7384C62.0255 29.4177 62.4884 29.2055 62.982 29.1236C63.8271 28.972 65.6979 29.1838 65.9878 30.214L66.1261 29.6877C65.4906 30.2452 64.1059 30.3411 63.3187 30.4079C62.3512 30.4916 61.3768 30.4496 60.42 30.2831C59.7377 30.1627 59.4456 31.2062 60.1324 31.3289C61.3598 31.5506 62.6135 31.5866 63.8517 31.4359C64.8551 31.311 66.1105 31.1416 66.8953 30.4548C66.9631 30.3873 67.0117 30.303 67.036 30.2104C67.0603 30.1179 67.0595 30.0206 67.0336 29.9285C66.6188 28.4569 64.5496 27.9217 63.2184 28.0109C62.444 28.064 61.7025 28.3439 61.0862 28.8158C60.47 29.2877 60.0064 29.9306 59.7533 30.6644C59.5169 31.3088 60.5627 31.592 60.7968 30.9476Z" fill="#FFC736"/>
<path d="M60.4973 32.7311C62.6424 32.7646 64.7941 32.8359 66.9236 32.5349L66.2368 32.0131C66.1944 32.4457 65.3293 32.9184 65.0037 33.0879C64.4663 33.3666 63.7907 33.5606 63.1953 33.409C62.3034 33.186 61.5208 32.4323 60.8786 31.808C60.3791 31.3219 59.6121 32.0867 60.1115 32.575C61.1506 33.5851 62.4773 34.7223 64.0271 34.5172C65.2958 34.35 67.1778 33.4313 67.3205 32.0154C67.3584 31.6251 66.9459 31.449 66.6337 31.4936C64.6046 31.779 62.5353 31.6831 60.4951 31.6519C59.7994 31.6162 59.7994 32.7111 60.4973 32.7311Z" fill="#FFC736"/>
<path d="M69.2184 16.2842C68.8973 14.8995 67.9363 13.7155 66.75 12.9395C65.5638 12.1636 64.1679 11.7399 62.7631 11.5258C61.5827 11.3208 60.3758 11.3208 59.1955 11.5258C57.59 11.8402 56.125 12.6563 54.7782 13.5839C53.8194 14.2529 52.8695 15.0132 52.3946 16.0791C51.9196 17.1449 52.0757 18.5698 53.0301 19.241C53.8863 19.8408 55.0369 19.6668 56.0604 19.406C56.4808 19.2651 56.9244 19.2061 57.367 19.232C57.8687 19.2989 58.3058 19.591 58.754 19.8252C59.7053 20.3208 60.7652 20.5714 61.8378 20.5543C62.2513 20.5793 62.6612 20.4646 63.0017 20.2288C63.3696 19.9255 63.5347 19.3792 63.9784 19.2097C64.3842 19.0559 64.8235 19.2878 65.2561 19.3301C65.6117 19.3636 65.9674 19.2669 66.2572 19.0581C66.9886 18.5274 67.1915 17.3635 68.0545 17.0959C68.2748 17.0596 68.4907 17.0005 68.6989 16.9197C68.8929 16.8105 69.0155 16.5206 68.855 16.3645" fill="#FF76B8"/>
<path d="M69.7633 16.137C68.8714 12.8525 65.6582 11.3384 62.5231 10.9282C59.116 10.4822 55.9898 11.7309 53.4055 13.9339C52.3485 14.8259 51.5012 16.0723 51.5882 17.5172C51.6618 18.7659 52.4288 19.805 53.6619 20.1083C54.3351 20.2408 55.0291 20.2248 55.6955 20.0614C56.1414 19.9745 56.6008 19.7827 57.0334 19.776C57.6889 19.776 58.2553 20.222 58.8172 20.4806C59.9611 21.0002 61.8029 21.484 63.0115 20.8708C63.308 20.7192 63.4307 20.5074 63.6692 20.3045C64.2445 19.8139 64.7239 19.9009 65.4174 19.8853C65.7397 19.8731 66.0551 19.7886 66.3403 19.6381C66.6256 19.4875 66.8733 19.2748 67.0652 19.0157C67.2994 18.728 67.4621 18.3891 67.6896 18.097C68.0575 17.6243 68.4143 17.7134 68.8981 17.428C69.3441 17.1649 69.5671 16.7167 69.3775 16.2173C69.1167 15.5483 68.0397 15.8449 68.3028 16.5138C68.0151 15.7869 66.1176 18.4381 66.0529 18.4894C65.3304 19.0759 64.5099 18.4002 63.7495 18.7124C63.1207 18.9621 62.9356 19.7537 62.2912 19.9611C60.4472 20.5564 59.0268 18.8462 57.35 18.6856C55.9207 18.5429 53.6775 20.0235 52.8436 18.1483C52.0832 16.4291 53.7979 14.9485 55.0421 14.0766C56.5094 13.0509 58.1639 12.1657 59.9655 11.9806C63.2634 11.6439 67.6985 12.8725 68.6618 16.4402C68.8491 17.1315 69.9238 16.8394 69.7365 16.1437L69.7633 16.137Z" fill="#FFC736"/>
<path d="M94.293 90.3245C93.988 89.1883 93.2648 88.2094 92.2684 87.5841C91.2745 86.966 90.1585 86.5705 88.9973 86.4246C88.0286 86.2563 87.0382 86.2563 86.0695 86.4246C84.7539 86.6833 83.5521 87.35 82.4461 88.1126C81.659 88.6544 80.8852 89.2854 80.4906 90.1573C80.0959 91.0291 80.2297 92.1998 81.0123 92.7505C81.7147 93.2433 82.6668 93.0984 83.4963 92.8866C83.8414 92.771 84.2055 92.7225 84.5689 92.7439C84.9792 92.7996 85.3382 93.0382 85.7061 93.2322C86.487 93.638 87.3569 93.8427 88.2369 93.8275C88.576 93.8478 88.9121 93.7536 89.1912 93.56C89.4923 93.3102 89.6372 92.8643 89.9917 92.7238C90.3463 92.5833 90.6852 92.7885 91.0398 92.8219C91.332 92.8498 91.6244 92.7705 91.8625 92.5989C92.4624 92.153 92.6296 91.2075 93.3365 90.989C93.5171 90.9591 93.6942 90.9105 93.8649 90.8441C94.0255 90.7549 94.1258 90.5163 93.992 90.3981" fill="#FF76B8"/>
<path d="M94.7317 90.2018C93.7774 86.7523 89.5876 85.4546 86.361 85.9117C83.8681 86.264 78.9269 88.748 79.937 91.9701C80.3629 93.3258 81.6985 93.6736 82.9784 93.4618C83.5515 93.3659 84.1558 93.0805 84.7467 93.2522C85.148 93.3681 85.5338 93.6669 85.924 93.8297C86.7566 94.1995 87.6708 94.347 88.5775 94.2578C89.3802 94.1463 89.8039 93.2344 90.5642 93.192C91.2019 93.1585 91.6078 93.3681 92.1853 92.9222C92.4256 92.7086 92.633 92.4607 92.8007 92.1864C92.9228 91.9785 93.0615 91.7809 93.2154 91.5955C93.4623 91.4681 93.7206 91.3644 93.987 91.2855C94.4195 90.9956 94.5288 90.7727 94.4329 90.2687C94.3237 89.6912 93.4429 89.9365 93.541 90.5118L93.5856 90.7526L93.7038 90.3066C93.4808 90.572 93.0348 90.5764 92.7606 90.7793C92.3481 91.0804 92.2031 91.5464 91.8686 91.9076C91.222 92.6033 90.6356 92.0704 89.922 92.2733C89.5497 92.3803 89.4426 92.6502 89.1639 92.8687C87.6766 94.0259 86.4257 92.7995 84.9808 92.3714C83.799 92.0213 82.4968 93.0872 81.402 92.4049C79.6872 91.3346 81.4666 89.3723 82.5169 88.6142C83.6072 87.8249 84.8425 87.1269 86.176 86.8683C88.9833 86.3264 92.988 87.39 93.8376 90.4516C93.9936 91.0179 94.8767 90.7771 94.7295 90.2085L94.7317 90.2018Z" fill="#FFC736"/>
<path d="M69.7988 16.4692C69.1298 16.5384 68.5389 17.0245 68.1799 17.6064C67.8519 18.2066 67.6173 18.8532 67.4842 19.5241C67.3326 20.1261 67.1788 20.7549 67.3036 21.3637C67.4285 21.9724 67.8499 22.5566 67.8432 23.1988C68.9961 22.6079 69.7943 21.4997 70.4097 20.3602C70.7703 19.7703 70.9985 19.1092 71.0787 18.4225C71.121 17.7358 70.8557 16.9932 70.2871 16.6186" fill="#FF76B8"/>
<path d="M69.6486 15.9318C68.2973 16.1905 67.5615 17.3099 67.1691 18.5496C66.9071 19.2772 66.7509 20.0387 66.7053 20.8107C66.6941 21.678 67.207 22.3581 67.285 23.1988C67.287 23.2961 67.314 23.3912 67.3636 23.475C67.4132 23.5587 67.4836 23.6282 67.568 23.6767C67.6524 23.7251 67.7479 23.751 67.8452 23.7516C67.9425 23.7523 68.0384 23.7277 68.1234 23.6804C70.1726 22.5187 73.252 18.2865 70.6788 16.224C70.1235 15.778 69.3409 16.5651 69.8894 17.0133C71.7981 18.5385 69.0176 21.8921 67.5593 22.7194L68.3977 23.201C68.356 22.7822 68.2546 22.3714 68.0967 21.9813C67.8128 21.309 67.7687 20.5595 67.9718 19.8585C68.2371 18.6968 68.5939 17.2697 69.9407 17.0111C70.6453 16.8773 70.3465 15.8025 69.6441 15.9363L69.6486 15.9318Z" fill="#FFC736"/>
<path d="M69.4827 12.921C69.6378 12.4427 69.8993 12.0059 70.2475 11.6433C70.7813 11.0276 71.3793 10.4707 72.0314 9.98208C72.0685 9.94703 72.1165 9.92578 72.1674 9.92188C72.2387 9.92187 72.2878 9.99546 72.3235 10.0579C72.6999 10.7454 72.9648 11.4882 73.1084 12.2587C73.3019 13.0354 73.3019 13.8478 73.1084 14.6245C72.8252 15.5677 71.6947 17.0238 70.5575 16.4953C69.4203 15.9669 69.2084 13.96 69.4827 12.921Z" fill="#FF76B8"/>
<path d="M70.0222 13.0705C70.2585 12.1786 71.583 10.7805 72.4504 10.3948L71.7815 10.3078C72.4058 10.8519 72.6489 12.464 72.689 13.24C72.7336 14.0873 72.524 15.0238 71.8618 15.6081C70.2496 17.0485 69.7858 14.1453 70.0289 13.0594C70.185 12.3615 69.1102 12.0627 68.9541 12.7628C68.5728 14.4709 69.3644 18.0898 71.8529 16.9615C72.8897 16.4933 73.5787 15.3137 73.7482 14.2278C73.9533 12.9055 73.6345 10.455 72.5619 9.51846C72.4728 9.43716 72.3608 9.38521 72.2412 9.36966C72.1215 9.3541 72 9.37569 71.893 9.4315C70.7558 9.92428 69.2752 11.552 68.9541 12.7628C68.7624 13.4674 69.8371 13.764 70.0222 13.0705Z" fill="#FFC736"/>
<path d="M89.0917 67.6545C88.4897 67.2264 87.6178 67.2554 86.8419 67.5341C86.0659 67.8128 85.3635 68.3123 84.6723 68.8051C84.0435 69.2511 83.3946 69.7238 82.9821 70.3793C82.5696 71.0349 82.4135 71.8822 81.8672 72.4709C83.2853 72.7608 84.8551 72.3103 86.3067 71.7016C87.105 71.4072 87.8393 70.9621 88.4696 70.3905C89.0828 69.784 89.4998 68.9121 89.3616 68.1451" fill="#FF76B8"/>
<path d="M89.4199 67.097C87.839 66.2051 86.1555 66.9967 84.7931 67.9332C84.1063 68.4059 83.3727 68.892 82.822 69.5275C82.1798 70.27 82.0125 71.2556 81.4105 72.0137C81.1451 72.3482 81.1607 73.0104 81.6959 73.0974C84.5055 73.5434 90.3698 71.8777 90.0019 68.1472C89.9216 67.3244 88.6239 67.3178 88.7064 68.1472C88.974 70.8721 84.0773 72.1765 82.0393 71.8487L82.3247 72.9324C83.1765 71.8554 83.3972 70.6 84.5278 69.7148C85.5981 68.8764 87.3574 67.4159 88.7644 68.2164C89.4891 68.6311 90.1424 67.5118 89.4177 67.1015L89.4199 67.097Z" fill="#FFC736"/>
<path d="M91.8287 64.1426C92.3407 63.8183 92.915 63.6048 93.5145 63.516C94.4432 63.3335 95.3888 63.2505 96.3352 63.2685C96.3924 63.2621 96.45 63.2781 96.4957 63.3131C96.5492 63.3689 96.5292 63.4692 96.4957 63.5517C96.2127 64.4736 95.8014 65.3511 95.2738 66.1583C94.7431 66.9967 94.1009 67.8017 93.267 68.3435C92.248 69.0125 90.1207 69.5432 89.6569 68.2254C89.1931 66.9076 90.7361 64.903 91.8287 64.1426Z" fill="#FF76B8"/>
<path d="M92.154 64.6999C93.0749 64.06 95.2311 63.6318 96.3215 63.9329L95.8755 63.4869C95.8109 63.2795 95.8332 63.5895 95.7774 63.7099C95.6392 64.0488 95.5143 64.3788 95.3538 64.7155C95.1126 65.2092 94.8346 65.684 94.5221 66.1359C93.8821 67.059 93.095 67.8796 92.0002 68.2208C91.1082 68.495 90.0156 68.4571 90.3144 67.2419C90.5575 66.2518 91.3602 65.293 92.1607 64.6954C92.8296 64.2027 92.1763 63.0766 91.5074 63.5805C90.1695 64.5773 88.3856 66.6554 89.088 68.4705C89.757 70.2298 92.154 69.7393 93.4272 69.0146C94.4529 68.4304 95.2222 67.4537 95.8466 66.4815C96.3438 65.6989 97.2179 64.3855 97.1844 63.4178C97.1465 62.3831 95.8265 62.5994 95.1397 62.6485C93.9423 62.7355 92.5242 62.8715 91.5096 63.5805C90.8228 64.0555 91.4695 65.1793 92.154 64.6999Z" fill="#FFC736"/>
<path d="M42.8301 61.8989C43.1623 62.637 44.0988 63.5356 44.8057 63.928C45.6344 64.4266 46.5651 64.7315 47.5283 64.8199C48.4893 64.8712 49.4972 64.5747 50.1639 63.8812C50.1873 63.8624 50.2067 63.8391 50.2208 63.8127C50.235 63.7863 50.2437 63.7572 50.2464 63.7273C50.236 63.6718 50.2059 63.6219 50.1617 63.5869L48.5228 61.9212C48.3233 61.6962 48.0901 61.5037 47.8315 61.3504C47.3053 61.0761 46.6631 61.1497 46.0967 61.3281C45.5304 61.5065 44.9818 61.774 44.4066 61.8855C43.8837 61.9565 43.354 61.961 42.8301 61.8989Z" fill="#FF76B8"/>
<path d="M42.3509 62.1778C43.1224 63.6473 44.5807 64.6306 46.1416 65.11C47.5018 65.527 49.6557 65.5158 50.6012 64.2047C50.9334 63.7431 50.7528 63.4265 50.4183 63.0408C49.8274 62.3584 49.1094 61.5267 48.3625 61.0183C48.0596 60.8231 47.7195 60.6928 47.3638 60.6356C47.008 60.5784 46.6442 60.5956 46.2954 60.6861C45.7692 60.7998 45.2876 61.0473 44.7725 61.1989C44.1383 61.3639 43.4795 61.4123 42.8281 61.3417C42.1146 61.2971 42.1168 62.4075 42.8281 62.4566C44.137 62.5391 45.0133 62.1778 46.2419 61.8545C47.0937 61.6315 47.6556 61.83 48.2643 62.4432C48.7215 62.9047 49.4328 63.4421 49.7628 64.004V63.4354C49.1206 64.6551 46.9666 64.2672 45.9966 63.8814C44.8817 63.4354 43.8761 62.7063 43.3053 61.6181C42.9775 60.9849 42.0164 61.5468 42.3509 62.1778Z" fill="#FFC736"/>
<path d="M50.9355 63.8594C52.7461 63.9531 54.1398 62.0644 55.9504 61.9507C57.3774 61.8615 58.7956 62.9095 60.158 62.4725C59.0208 63.8572 57.6339 65.1349 55.9214 65.6344C54.2089 66.1338 51.9077 65.369 50.9445 63.8505" fill="#FF76B8"/>
<path d="M50.9355 64.4143C52.5275 64.4032 53.6112 63.3485 55.0115 62.7643C56.7775 62.024 58.4811 63.4332 60.3051 63.0073L59.7655 62.0797C58.6751 63.3819 57.3417 64.731 55.627 65.1346C54.104 65.4913 52.3179 64.867 51.4149 63.5737C51.0068 62.9917 50.0435 63.5469 50.4561 64.1334C50.9914 64.8768 51.7104 65.4685 52.5429 65.8507C53.3754 66.233 54.2928 66.3926 55.2055 66.3141C57.4063 66.1268 59.1991 64.4678 60.5571 62.8579C60.636 62.769 60.6845 62.6574 60.6957 62.539C60.7069 62.4207 60.6801 62.3019 60.6192 62.1998C60.5584 62.0977 60.4666 62.0177 60.3572 61.9712C60.2478 61.9248 60.1265 61.9144 60.0108 61.9415C58.3362 62.3339 56.7998 61.034 55.0717 61.5624C53.6402 62.0084 52.4896 63.2972 50.9377 63.3084C50.2242 63.3084 50.2219 64.4233 50.9377 64.4233L50.9355 64.4143Z" fill="#FFC736"/>
<path d="M50.5691 64.2603C49.7151 64.9582 48.2435 65.3595 47.4474 66.1221C47.095 66.4229 46.8036 66.7885 46.5889 67.1991C46.4804 67.4699 46.4056 67.753 46.366 68.042C46.0917 69.5716 45.9334 71.1637 46.366 72.6644C46.7763 74.1138 47.7039 75.3513 48.5958 76.5554L50.1053 78.5622C50.1211 78.598 50.146 78.629 50.1775 78.6521C50.209 78.6752 50.2461 78.6896 50.2849 78.6939C50.3237 78.6982 50.363 78.6922 50.3988 78.6765C50.4346 78.6608 50.4657 78.636 50.4889 78.6046L52.3619 76.9634C53.1468 76.2767 53.9518 75.5609 54.3866 74.6132C54.8593 73.5808 54.8325 72.399 54.7857 71.2685C54.7255 69.9797 54.6229 68.6329 53.9428 67.5358C53.1111 66.1935 51.577 65.4643 50.5691 64.2603Z" fill="#FF76B8"/>
<path d="M50.2894 63.7807C49.0742 64.6883 47.5802 65.0339 46.5701 66.2335C45.6648 67.3061 45.5712 69.0208 45.5377 70.3698C45.4972 71.9994 45.9377 73.6048 46.8042 74.9855C47.2725 75.7503 47.8233 76.4572 48.3651 77.1729C48.8735 77.8419 49.3284 78.6691 50.0062 79.1798C50.0912 79.2293 50.1877 79.2554 50.2861 79.2554C50.3844 79.2554 50.481 79.2293 50.5659 79.1798C51.2683 78.8386 51.8548 78.1407 52.439 77.6189C53.0842 77.091 53.6812 76.5067 54.2228 75.873C55.2552 74.5752 55.3979 73.0523 55.3377 71.4446C55.2797 69.9551 55.1682 68.3786 54.3187 67.1031C53.4446 65.7898 51.993 65.0272 50.9561 63.861C50.4812 63.3259 49.6963 64.113 50.1713 64.6459C50.9985 65.5757 52.0755 66.2246 52.9228 67.1277C53.9508 68.2247 54.1381 69.6362 54.2117 71.0767C54.2919 72.6219 54.2808 74.1159 53.2194 75.3512C52.8276 75.7817 52.4067 76.1848 51.9596 76.5575C51.3687 77.0793 50.7086 77.8642 49.9973 78.2098H50.557C50.0174 77.8017 49.596 76.9722 49.1901 76.4259C48.7843 75.8796 48.345 75.311 47.9615 74.7246C47.1209 73.4402 46.6236 72.0934 46.6415 70.546C46.6415 69.1412 46.724 67.4911 47.8322 66.5011C48.7063 65.7207 49.9081 65.4241 50.8424 64.7173C51.4177 64.3159 50.8647 63.3526 50.2894 63.7807Z" fill="#FFC736"/>
<path d="M49.838 65.0873C49.8715 66.8712 50.7812 68.5235 50.2639 70.3318C50.0409 71.1033 49.595 71.7812 49.4099 72.5616C49.2612 73.2935 49.2941 74.0507 49.5058 74.7669C49.6909 75.4559 50.7612 75.1638 50.5761 74.4726C50.0989 72.6887 51.3387 71.3508 51.5215 69.6272C51.6888 68.0663 50.9752 66.6326 50.9462 65.0829C50.9329 64.3693 49.8313 64.3671 49.8313 65.0829L49.838 65.0873Z" fill="#FFC736"/>
<path d="M49.8569 72.747C50.0451 73.1133 50.3397 73.4141 50.7019 73.6099C50.9784 73.7839 51.3263 73.9221 51.5024 74.2097C51.8748 74.8185 52.8403 74.261 52.4613 73.6501C52.2291 73.3028 51.9151 73.018 51.547 72.8206C51.2572 72.6467 50.9584 72.5106 50.8157 72.1873C50.7404 72.061 50.6185 71.9693 50.4762 71.9322C50.3339 71.8951 50.1827 71.9154 50.0553 71.9889C49.9307 72.0657 49.8406 72.1876 49.8036 72.3293C49.7666 72.4709 49.7857 72.6213 49.8569 72.7492V72.747Z" fill="#FFC736"/>
<path d="M50.12 70.1448C49.8814 70.4101 49.3062 70.3677 48.9806 70.5082C48.537 70.6996 48.1649 71.0256 47.917 71.4403C47.5379 72.049 48.499 72.6087 48.8758 71.9999C49.3441 71.244 50.3386 71.554 50.9049 70.9296C51.3821 70.399 50.5972 69.6118 50.12 70.1448Z" fill="#FFC736"/>
<path d="M51.323 63.4017C50.9395 63.0382 50.0833 62.376 49.673 62.0437C49.0491 61.538 48.4977 60.949 48.0341 60.2933C47.4685 59.5472 47.1101 58.6649 46.995 57.7357C46.8946 56.5696 47.3317 55.4323 47.7776 54.3509C48.7156 52.078 49.7228 49.8355 50.799 47.6236C50.8302 47.5589 50.8704 47.4876 50.9417 47.4697C50.9787 47.4674 51.0157 47.4734 51.0501 47.4873C51.0844 47.5012 51.1152 47.5226 51.1402 47.55C53.3232 49.345 54.612 52.0297 55.33 54.7656C55.5903 55.6399 55.7114 56.5496 55.689 57.4615C55.615 58.2906 55.4266 59.1055 55.1293 59.883C54.7904 60.8597 54.3645 61.8631 53.5484 62.4964C52.9106 62.9914 52.1057 63.2032 51.323 63.4017Z" fill="#FF76B8"/>
<path d="M51.7166 63.0092C49.8525 61.3168 47.1344 59.6645 47.5893 56.7301C47.8279 55.1804 48.6551 53.6574 49.2772 52.2393C49.5745 51.5778 49.8718 50.9185 50.1692 50.2614C50.4969 49.5479 50.8046 48.4441 51.3376 47.8666L50.798 48.0093C51.3487 48.2323 51.8683 48.9949 52.2273 49.4453C52.6329 49.962 52.9947 50.5117 53.3087 51.0887C53.9929 52.3542 54.5093 53.7034 54.845 55.1023C55.2687 56.7903 55.1327 58.2664 54.5373 59.8964C54.2809 60.601 53.9732 61.3502 53.4224 61.8787C52.8092 62.4585 51.9753 62.6591 51.1926 62.8643C50.5014 63.0427 50.7935 64.1152 51.487 63.9346C53.2039 63.4886 54.4749 62.7974 55.2464 61.1317C56.0179 59.4661 56.455 57.6175 56.1383 55.7601C55.8128 53.9243 55.1852 52.1551 54.2809 50.5245C53.5897 49.2759 52.4859 47.4831 51.1057 46.9346C51.0112 46.9072 50.9111 46.906 50.8161 46.9311C50.721 46.9562 50.6346 47.0068 50.5661 47.0773C50.0198 47.6682 49.7455 48.5712 49.4066 49.3071C48.9799 50.2258 48.5652 51.1489 48.1623 52.0765C47.4934 53.6217 46.6015 55.2629 46.4632 56.9664C46.2001 60.1372 48.8915 61.93 50.9474 63.7963C51.4602 64.2735 52.2473 63.502 51.7166 63.0092Z" fill="#FFC736"/>
<path d="M50.6541 50.9837C50.8414 52.2949 50.5091 53.4075 50.2929 54.6785C50.1509 55.3453 50.2139 56.0394 50.4735 56.6697C50.8637 57.5616 51.4189 58.2953 51.6174 59.2764C51.7558 59.8849 51.7523 60.5172 51.6073 61.1242C51.4624 61.7313 51.1797 62.2968 50.7812 62.7772C50.3218 63.319 51.1045 64.115 51.5661 63.562C52.9396 61.941 53.1269 59.8271 52.3443 57.8805C52.157 57.4123 51.8983 57.002 51.6642 56.5538C51.2606 55.7488 51.3275 55.1022 51.5215 54.2504C51.816 53.085 51.8849 51.874 51.7244 50.6827C51.624 49.9781 50.5537 50.2769 50.6541 50.977V50.9837Z" fill="#FFC736"/>
<path d="M49.5187 58.8483C50.0979 59.3444 50.6213 59.9022 51.0796 60.5117C51.4832 61.0959 52.4465 60.5407 52.0384 59.9521C51.533 59.2613 50.9536 58.628 50.3103 58.0634C49.7863 57.5773 48.9992 58.36 49.5254 58.8483H49.5187Z" fill="#FFC736"/>
<path d="M51.9015 54.846C51.4064 55.6532 50.8044 56.5273 50.9806 57.5218C51.1054 58.2241 52.1757 57.9276 52.0509 57.2274C51.9483 56.6566 52.5793 55.8762 52.8603 55.4146C53.2349 54.8036 52.2738 54.2439 51.9015 54.8549V54.846Z" fill="#FFC736"/>
<path d="M26.7109 52.4154C27.0276 52.159 27.6229 51.5703 27.9195 51.3005C28.3704 50.8749 28.8776 50.5133 29.4268 50.2257C30.0552 49.8688 30.7667 49.6842 31.4894 49.6906C32.3813 49.733 33.2175 50.1834 33.9979 50.636C35.6406 51.5859 37.2534 52.5856 38.8366 53.6351C38.8834 53.6663 38.9347 53.7042 38.9392 53.76C38.9376 53.7886 38.9296 53.8166 38.9157 53.8417C38.9018 53.8668 38.8824 53.8884 38.8589 53.9049C37.2624 55.3922 35.0682 56.1035 32.9098 56.3733C32.2147 56.4832 31.5066 56.4832 30.8115 56.3733C30.1853 56.234 29.5812 56.0089 29.0166 55.7044C28.3052 55.3454 27.5783 54.9172 27.1792 54.2282C26.8536 53.673 26.7845 53.0331 26.7109 52.4154Z" fill="#FF76B8"/>
<path d="M27.0151 52.7187C28.7143 51.2694 30.3598 49.374 32.797 50.4889C33.7971 50.9805 34.7653 51.5346 35.6958 52.1479C36.5743 52.6853 37.9679 53.2628 38.628 54.0611L38.5611 53.5415C38.0861 54.3888 36.4873 55.002 35.6333 55.3075C34.7209 55.6266 33.7754 55.842 32.8149 55.9497C31.5816 56.1232 30.325 55.9047 29.2226 55.3254C27.9271 54.672 27.3139 53.8827 27.1333 52.4266C27.0664 51.887 26.208 51.8803 26.2748 52.4266C26.4376 53.731 26.7654 54.7791 27.8937 55.5483C29.022 56.3176 30.4423 56.8862 31.8494 56.8862C33.3473 56.8522 34.8272 56.5517 36.2198 55.9988C37.2209 55.6085 38.7617 54.9552 39.3192 53.9674C39.3643 53.8848 39.3821 53.7901 39.3701 53.6968C39.3581 53.6035 39.3168 53.5163 39.2523 53.4479C38.8688 52.9841 38.2043 52.692 37.6914 52.3709C37.1206 52.0067 36.5453 51.6484 35.9656 51.2961C34.7927 50.5826 33.5351 49.655 32.1749 49.3539C29.7377 48.8166 28.0743 50.6918 26.4131 52.1144C25.9894 52.4712 26.5982 53.0755 27.0151 52.7187Z" fill="#FFC736"/>
<path d="M36.3387 53.1694C34.8314 53.1694 33.4155 52.0879 31.9393 52.4603C31.1054 52.6699 30.4967 53.0668 29.5981 53.069C29.1474 53.0778 28.7002 52.9888 28.2872 52.8083C27.8742 52.6278 27.5051 52.36 27.2055 52.0232C26.8331 51.6152 26.2266 52.2239 26.599 52.6297C27.5868 53.709 28.9938 54.0947 30.4209 53.8494C30.8296 53.7627 31.2313 53.6457 31.6227 53.4994C32.4634 53.2251 32.7711 53.1961 33.5649 53.4548C34.5125 53.7647 35.3286 54.0323 36.3387 54.0278C36.8895 54.0278 36.8917 53.1694 36.3387 53.1694Z" fill="#FFC736"/>
<path d="M30.3379 51.5372C29.8958 51.9244 29.4128 52.2623 28.8975 52.5451C28.4069 52.797 28.8395 53.5373 29.3301 53.2854C29.9079 52.9643 30.4492 52.5815 30.9445 52.1437C31.3703 51.7914 30.7616 51.1894 30.3379 51.5372Z" fill="#FFC736"/>
<path d="M33.2403 53.7667C32.6984 53.3208 32.0585 52.7098 31.3115 52.7499C30.763 52.7789 30.7585 53.6418 31.3115 53.6084C31.7909 53.5839 32.2859 54.0923 32.6338 54.3732C33.0574 54.7188 33.6684 54.1146 33.2403 53.7667Z" fill="#FFC736"/>
<path d="M83.2665 90.2287C85.9044 89.2788 88.4308 88.7124 91.0307 90.1105C91.6617 90.4516 92.2259 89.4884 91.5926 89.1472C88.7139 87.5975 85.9178 88.0903 82.9677 89.1472C82.2988 89.388 82.5864 90.4673 83.2643 90.222L83.2665 90.2287Z" fill="#FFC736"/>
<path d="M84.7399 88.338L86.0087 88.9222C86.1373 88.9927 86.2881 89.0112 86.43 88.9739C86.5719 88.9366 86.694 88.8463 86.7713 88.7215C86.8446 88.5935 86.8647 88.4418 86.8272 88.2991C86.7896 88.1565 86.6975 88.0343 86.5706 87.959L85.3018 87.3747C85.1732 87.3042 85.0224 87.2857 84.8805 87.3231C84.7387 87.3604 84.6165 87.4507 84.5392 87.5754C84.4659 87.7034 84.4458 87.8552 84.4833 87.9978C84.5209 88.1405 84.6131 88.2627 84.7399 88.338Z" fill="#FFC736"/>
<path d="M87.6874 90.4227L88.5258 89.8118C88.6509 89.7349 88.7416 89.6127 88.779 89.4707C88.8164 89.3287 88.7976 89.1777 88.7265 89.0492C88.6508 88.9228 88.5286 88.831 88.3861 88.7935C88.2436 88.756 88.092 88.7757 87.9639 88.8485L87.1255 89.4595C87.0004 89.5364 86.9097 89.6585 86.8723 89.8005C86.8349 89.9426 86.8537 90.0935 86.9248 90.2221C87.0005 90.3485 87.1227 90.4403 87.2652 90.4778C87.4077 90.5153 87.5593 90.4955 87.6874 90.4227Z" fill="#FFC736"/>
<path d="M56.2678 15.8849C59.7976 14.6696 64.6162 14.1501 67.9832 16.1235C68.6031 16.4869 69.165 15.5237 68.5451 15.1602C64.9217 13.0374 59.7842 13.4968 55.969 14.8101C55.3001 15.0331 55.5833 16.119 56.2656 15.8849H56.2678Z" fill="#FFC736"/>
<path d="M61.8959 14.0231C60.4844 14.6452 58.6092 15.167 58.0829 16.7992C57.86 17.4837 58.937 17.7758 59.1577 17.0957C59.5435 15.905 61.45 15.4301 62.4578 14.9863C63.1134 14.6987 62.547 13.7377 61.8959 14.0231Z" fill="#FFC736"/>
<path d="M60.1849 13.6041C60.7807 13.7904 61.3062 14.1526 61.6922 14.6432C61.7974 14.7469 61.9392 14.8051 62.0869 14.8051C62.2347 14.8051 62.3764 14.7469 62.4816 14.6432C62.5833 14.5369 62.64 14.3955 62.64 14.2485C62.64 14.1014 62.5833 13.9601 62.4816 13.8538C61.9595 13.2218 61.2608 12.7599 60.4748 12.5271C59.788 12.3041 59.4937 13.39 60.1782 13.6018L60.1849 13.6041Z" fill="#FFC736"/>
<path d="M64.9982 14.4671C64.2523 14.4438 63.5141 14.6231 62.8619 14.9859C62.2098 15.3487 61.6681 15.8814 61.2945 16.5274C60.9333 17.1495 61.8966 17.7114 62.2578 17.0893C62.5324 16.6102 62.9335 16.2159 63.4173 15.9496C63.9011 15.6833 64.4488 15.5554 65.0005 15.5797C65.7185 15.602 65.7162 14.4871 65.0005 14.4648L64.9982 14.4671Z" fill="#FFC736"/>
<path d="M72.1172 17.3749C73.2329 16.2876 74.5887 15.4779 76.0751 15.0113C77.5723 14.5514 79.1833 14.6303 80.6283 15.2343C80.8736 15.3436 81.1122 15.4707 81.3508 15.5955C81.4951 15.6646 81.6306 15.7507 81.7544 15.852C81.9028 16.003 82.0323 16.1715 82.1402 16.3537C82.5337 16.927 83.06 17.3967 83.6742 17.7228C83.9641 17.8766 84.2741 17.997 84.5506 18.1687C84.9312 18.4119 85.2394 18.7531 85.4425 19.1565C85.5205 19.3126 85.5718 19.5245 85.4425 19.6382C85.3132 19.7519 85.1927 19.7051 85.0612 19.7095C84.9296 19.714 84.7669 19.7898 84.778 19.9325C84.7957 20.0067 84.8412 20.0714 84.9051 20.1131C86.408 21.4198 86.9119 23.5047 87.34 25.449C87.4152 25.7406 87.4563 26.0399 87.4627 26.341C87.4616 26.4373 87.4534 26.5335 87.4382 26.6286C87.3557 27.1281 87.0814 27.6053 87.1438 28.1092C86.767 28.1583 86.5016 27.7123 86.127 27.6409C85.8684 27.5919 85.6164 27.7301 85.3711 27.8238C84.6375 28.1003 83.8103 27.9754 83.0677 27.7346C82.3252 27.4938 81.6139 27.1392 80.8536 26.9475C80.3675 26.8248 79.868 26.7691 79.3774 26.6665C77.8589 26.3454 76.3783 25.4669 75.7094 24.0666C75.2634 23.139 75.2122 22.082 75.0003 21.0764C74.7885 20.0708 74.3314 19.0161 73.4261 18.5478C73.1245 18.4296 72.8317 18.2903 72.5498 18.1308C72.2844 17.9435 72.0882 17.5979 72.2108 17.2969" fill="#FF76B8"/>
<path d="M72.5858 17.832C74.4588 16.1217 76.9696 14.8819 79.5539 15.5375C80.1024 15.6757 80.8026 15.8987 81.2441 16.2644C81.6343 16.5877 81.8863 17.1073 82.2542 17.4618C82.6221 17.8164 85.0035 18.9536 84.8229 19.4686L85.2689 19.0227C84.7895 19.2011 84.4996 19.1096 84.2186 19.6024C84.1604 19.701 84.1296 19.8135 84.1296 19.928C84.1296 20.0425 84.1604 20.1549 84.2186 20.2535C84.5732 20.7619 85.0526 21.1455 85.3871 21.6828C85.7809 22.3506 86.081 23.0694 86.279 23.819C86.4706 24.4574 86.6277 25.1058 86.7495 25.7611C86.8922 26.575 86.5265 27.2841 86.4997 28.0935L87.3181 27.4714C86.6246 27.3599 86.3436 26.8939 85.5744 27.041C84.8051 27.1882 84.4082 27.3934 83.6188 27.2061C83.2397 27.1039 82.8673 26.9781 82.5039 26.8292C80.8985 26.2249 78.9853 26.1893 77.5538 25.1992C75.8145 23.9951 76.0486 22.0775 75.4689 20.2937C75.2935 19.689 74.9934 19.1277 74.5881 18.6458C74.2737 18.2958 72.8244 17.7049 72.8578 17.2879C72.9247 16.4584 71.6336 16.4629 71.5667 17.2879C71.5088 18.0014 71.8834 18.5098 72.5077 18.8488C73.4911 19.3661 74.0151 19.8254 74.3094 20.9492C74.7977 22.8067 74.7888 24.5972 76.3742 25.9306C77.8347 27.1592 79.5227 27.1659 81.2441 27.7457C82.1717 28.0578 83.0435 28.4971 84.0291 28.5975C84.4773 28.6187 84.9264 28.5865 85.367 28.5016C86.0359 28.4191 86.386 28.6376 86.9836 28.7245C87.0792 28.7466 87.1784 28.7473 87.2743 28.7266C87.3702 28.706 87.4604 28.6645 87.5385 28.6052C87.6166 28.5458 87.6807 28.47 87.7262 28.3831C87.7717 28.2963 87.7976 28.2004 87.8019 28.1024C87.8175 27.3175 88.1832 26.6642 88.0829 25.8726C87.9621 25.066 87.7794 24.2698 87.5366 23.4912C87.3423 22.7985 87.0809 22.1264 86.7562 21.4844C86.3771 20.7552 85.8063 20.2803 85.3492 19.6247V20.2446C85.2042 20.501 85.6747 20.2691 85.7817 20.1933C85.9827 20.0474 86.1174 19.8276 86.1563 19.5824C86.2656 18.9513 85.7327 18.3002 85.2956 17.91C84.6111 17.299 83.6969 17.1073 83.0525 16.4272C82.5017 15.8452 82.2386 15.3301 81.5184 14.9377C78.1224 13.0936 74.3495 14.4917 71.6805 16.9177C71.065 17.4797 71.9815 18.3916 72.5947 17.832H72.5858Z" fill="#FFC736"/>
<path d="M73.2671 17.9657C74.3084 17.3614 76.3465 17.6513 77.4881 17.8252C78.6922 18.0081 79.9298 18.454 80.7615 19.3861C82.1819 20.9715 81.9856 23.7186 84.4763 24.2694C85.2857 24.4478 85.6336 23.2035 84.8197 23.0229C83.2811 22.6817 83.047 20.8243 82.4494 19.6202C81.9155 18.5724 81.0456 17.7338 79.9788 17.2388C78.882 16.7479 77.6993 16.4774 76.4981 16.4428C75.2472 16.3692 73.7398 16.2042 72.616 16.8553C71.8958 17.2722 72.5469 18.3894 73.2671 17.9702V17.9657Z" fill="#FFC736"/>
<path d="M79.3753 18.26C79.7665 18.3784 80.1765 18.4222 80.5839 18.3893C80.6718 18.3945 80.7599 18.3816 80.8427 18.3515C80.9256 18.3214 81.0013 18.2747 81.0654 18.2142C81.1296 18.1538 81.1806 18.0809 81.2155 18C81.2505 17.9191 81.2685 17.8319 81.2685 17.7438C81.2685 17.6557 81.2505 17.5685 81.2155 17.4876C81.1806 17.4067 81.1296 17.3337 81.0654 17.2733C81.0013 17.2128 80.9256 17.1661 80.8427 17.136C80.7599 17.1059 80.6718 17.0931 80.5839 17.0982C80.2928 17.1331 79.9975 17.1042 79.7187 17.0135C79.5544 16.97 79.3795 16.9922 79.2313 17.0754C79.0831 17.1587 78.9732 17.2965 78.9249 17.4595C78.8853 17.6236 78.9093 17.7967 78.992 17.944C79.0747 18.0912 79.21 18.2017 79.3709 18.2533L79.3753 18.26Z" fill="#FFC736"/>
<path d="M80.481 19.7338C80.481 20.4607 79.9303 21.0293 79.5356 21.5912C79.1103 22.1385 78.8511 22.7963 78.7886 23.4865C78.7373 24.316 80.0284 24.3138 80.0796 23.4865C80.1242 22.7708 80.7107 22.1888 81.0964 21.6269C81.5133 21.0813 81.7474 20.418 81.7654 19.7316C81.7654 18.8998 80.4676 18.8976 80.4743 19.7316L80.481 19.7338Z" fill="#FFC736"/>
<path d="M83.0881 23.1723C82.8515 23.6265 82.7629 24.1434 82.8349 24.6505C82.9069 25.1575 83.1358 25.6294 83.4895 25.9997C84.067 26.5996 84.979 25.6853 84.4037 25.0855C84.2438 24.9219 84.1381 24.713 84.101 24.4872C84.0639 24.2614 84.0972 24.0297 84.1963 23.8234C84.5687 23.0832 83.4538 22.4276 83.0814 23.1723H83.0881Z" fill="#FFC736"/>
<path d="M77.4698 17.5286C77.1558 18.2869 76.9227 19.0762 76.7741 19.8833C76.6247 20.6972 77.869 21.045 78.0206 20.2267C78.1691 19.4195 78.4023 18.6303 78.7163 17.872C78.8501 17.5465 78.5714 17.1652 78.2703 17.0782C78.1062 17.0386 77.9331 17.0626 77.7859 17.1453C77.6386 17.228 77.5281 17.3634 77.4765 17.5242L77.4698 17.5286Z" fill="#FFC736"/>
</svg>
