<svg width="128" height="112" viewBox="0 0 128 112" fill="none" xmlns="http://www.w3.org/2000/svg">
<g clip-path="url(#clip0_64_3387)">
<path d="M70.9485 12C61.4994 20.126 47.7249 32.8358 37.7383 46.027C31.5855 54.1529 27.3933 60.3912 27.3933 60.3912C20.1341 71.1925 20.7175 72.0134 16.5503 76.6244C14.7376 78.6288 11.8019 81.5979 8.77858 86.5651C7.77492 88.2142 6.86234 89.9169 6.04492 91.6657L7.50343 92.9909C11.6977 93.7681 17.9338 94.9036 25.516 96.2121C38.628 98.477 45.1829 99.6084 49.5188 100.146C57.4698 101.129 72.8716 102.915 91.1467 99.4021C101.611 97.3725 111.737 93.8816 121.229 89.0321C113.992 72.7059 105.244 57.0918 95.1014 42.3932C87.7404 31.7325 79.6712 21.5785 70.9485 12Z" stroke="#FFC736" stroke-width="10" stroke-miterlimit="10"/>
<path d="M6.0375 91.6658C6.02292 91.6283 6.0125 91.5887 6 91.5492C6.80365 89.8245 7.72973 88.1597 8.77116 86.5673C10.4589 83.9858 10.9673 83.8587 13.7718 80.3166C16.1929 77.2495 18.116 74.4179 20.8351 70.4404C22.7499 67.638 22.7562 67.5005 27.3942 60.3996C31.3155 54.3947 33.3012 51.361 34.4576 49.865C36.1244 47.7064 38.5643 45.104 43.3711 39.9888C47.2549 35.855 47.5904 35.5883 52.9556 29.9481C59.2063 23.3827 60.0981 22.3242 63.0464 19.4135C66.3634 16.1381 69.1659 13.592 70.9494 12.0063L77.171 19.7427C80.1463 22.8035 82.5008 25.5309 84.2343 27.6436C86.6492 30.5877 88.3431 32.9297 91.2977 37.0197C92.4791 38.6574 94.2376 41.1244 97.1838 45.4145C102.153 52.6529 104.639 56.272 106.433 59.2411C108.971 63.4416 110.702 66.8691 114.169 73.7262C118.997 83.2753 118.838 84.0462 119.314 85.0442C119.519 85.466 119.768 85.8654 120.055 86.236C120.634 87.079 121.035 88.0312 121.232 89.0343C119.054 90.0233 116.868 91.0109 114.673 91.9971C112.088 93.1598 109.51 94.312 106.937 95.4538C99.5091 96.6081 101.299 97.4374 91.1289 99.4126C85.9679 100.411 80.9881 101.373 74.6478 101.717C69.5576 101.992 64.9216 101.571 55.6455 100.729C46.3361 99.8835 39.5728 99.2501 30.7571 97.4374C29.1215 97.1019 27.963 96.8373 27.0338 96.6039C25.4565 96.2206 24.8106 96.0184 23.4042 95.6892C21.8894 95.335 20.6413 95.1017 19.8266 94.9621L8.8295 93.4077C7.91898 93.2202 6.42713 92.7681 6.0375 91.67" fill="#FF76B8"/>
<path d="M70.6147 18.2549C75.6028 24.2764 79.9033 29.5604 83.3954 33.8817C88.7815 40.5617 90.6005 42.9349 92.8132 46.3832C93.0778 46.8 94.9551 50.0108 98.6993 56.424C102.075 62.2039 103.283 64.3041 105.258 67.617C107.207 70.8987 108.801 73.5427 109.799 75.1888C106.744 76.9556 103.536 78.4431 100.214 79.633C96.6103 80.9119 92.8942 81.8488 89.1149 82.4313C86.2416 82.8793 84.2705 82.9834 74.6527 83.0897C65.1537 83.1939 60.4052 83.246 58.6779 83.0897C52.5293 82.5334 53.469 81.8812 42.8698 80.456C38.4942 79.8664 35.9148 79.6539 31.7705 78.6454C28.9141 77.9505 26.1057 77.0707 23.3633 76.0118L29.2494 67.9462C33.254 62.7248 36.3127 58.3805 38.3296 55.4447C43.0885 48.5002 44.545 45.7082 48.7476 40.9597C50.3644 39.1365 52.1792 37.3301 55.8109 33.7171C60.0531 29.4958 61.9533 27.8289 65.2287 24.341C67.6331 21.7782 69.475 19.6217 70.6147 18.2549Z" fill="#FFC736"/>
<path d="M46.3025 71.4007C46.3025 75.4616 42.5521 78.7536 37.9286 78.7536C33.3051 78.7536 29.5547 75.4616 29.5547 71.4007C29.5547 67.3398 33.3051 64.0498 37.9286 64.0498C42.5521 64.0498 46.3025 67.3419 46.3025 71.4007Z" fill="#FEF4F8"/>
<path d="M37.9286 78.7516C42.5534 78.7516 46.3025 75.4605 46.3025 71.4007C46.3025 67.3409 42.5534 64.0498 37.9286 64.0498C33.3038 64.0498 29.5547 67.3409 29.5547 71.4007C29.5547 75.4605 33.3038 78.7516 37.9286 78.7516Z" stroke="#FF76B8" stroke-width="3" stroke-miterlimit="10"/>
<path d="M98.9961 70.6733C98.9961 74.2862 96.2583 77.2158 92.8808 77.2158C89.5033 77.2158 86.7676 74.2842 86.7676 70.6733C86.7676 67.0625 89.5054 64.1309 92.8829 64.1309C96.2604 64.1309 98.9982 67.0604 98.9982 70.6733" fill="#FEF4F8"/>
<path d="M92.8809 77.2158C96.2583 77.2158 98.9963 74.2866 98.9963 70.6733C98.9963 67.06 96.2583 64.1309 92.8809 64.1309C89.5035 64.1309 86.7656 67.06 86.7656 70.6733C86.7656 74.2866 89.5035 77.2158 92.8809 77.2158Z" stroke="#FF76B8" stroke-width="3" stroke-miterlimit="10"/>
<path d="M54.0762 50.8815L63.2689 51.9066L60.579 59.4409C61.6521 59.693 64.2878 60.1472 67.0819 58.9283C68.0153 58.5116 69.8322 57.7282 70.8928 55.7821C71.8033 54.1152 71.6553 52.515 71.5658 51.5399C71.4762 50.5648 71.1803 47.3728 68.7258 45.7601C67.459 44.9266 66.1505 44.8496 64.167 44.737C62.885 44.6166 61.5919 44.7403 60.3561 45.1017C59.4835 45.3759 58.6533 45.77 57.8891 46.2726C57.0142 46.7968 56.2314 47.4613 55.5722 48.2395C54.9238 49.0232 54.4182 49.9146 54.0783 50.8732" fill="#FEF4F8"/>
<path d="M54.0762 50.8815L63.2689 51.9066L60.579 59.4409C61.6521 59.693 64.2878 60.1472 67.0819 58.9283C68.0153 58.5116 69.8322 57.7282 70.8928 55.7821C71.8033 54.1152 71.6553 52.515 71.5658 51.5399C71.4762 50.5648 71.1803 47.3728 68.7258 45.7601C67.459 44.9266 66.1505 44.8496 64.167 44.737C62.885 44.6166 61.5919 44.7403 60.3561 45.1017C59.4835 45.3759 58.6533 45.77 57.8891 46.2726C57.0142 46.7968 56.2314 47.4613 55.5722 48.2395C54.9222 49.0255 54.4158 49.9198 54.0762 50.8815Z" stroke="#FF76B8" stroke-width="3" stroke-miterlimit="10"/>
<path d="M68.8766 33.5444L69.2495 41.8099C68.737 41.7891 64.6657 41.5599 62.4487 38.2991C61.6464 37.1905 61.2028 35.8627 61.1777 34.4945C61.1777 34.2861 61.2111 31.7108 63.1946 29.8127C64.1635 28.8876 65.1803 28.5146 66.6325 27.9833C67.6336 27.5739 68.6936 27.327 69.7725 27.2519C70.9674 27.1486 72.1699 27.3241 73.2854 27.7645C74.4191 28.1786 75.4065 28.9161 76.1254 29.8856C76.748 30.7678 77.1091 31.8077 77.1671 32.8859L68.8703 33.5444" fill="#FEF4F8"/>
<path d="M68.8766 33.5444L69.2495 41.8099C68.737 41.7891 64.6657 41.5599 62.4487 38.2991C61.6464 37.1905 61.2028 35.8627 61.1777 34.4945C61.1777 34.2861 61.2111 31.7108 63.1946 29.8127C64.1635 28.8876 65.1803 28.5146 66.6325 27.9833C67.6336 27.5739 68.6936 27.327 69.7725 27.2519C70.9674 27.1486 72.1699 27.3241 73.2854 27.7645C74.4191 28.1786 75.4065 28.9161 76.1254 29.8856C76.748 30.7678 77.1091 31.8077 77.1671 32.8859L68.8766 33.5444Z" stroke="#FF76B8" stroke-width="3" stroke-miterlimit="10"/>
<path d="M75.8261 62.6603L75.0781 61.0517L77.6201 58.9307C77.2506 57.3508 77.3542 55.6972 77.918 54.1759C78.1827 53.4863 78.6494 52.2611 79.862 51.3235C80.8351 50.5692 81.8435 50.3963 83.8208 50.0733C86.0878 49.7108 87.6109 49.4691 89.5757 49.9275C90.9176 50.2442 92.1864 50.8149 93.3136 51.6089L92.7177 54.9073C92.5771 56.4127 92.033 57.8524 91.1425 59.0744C90.4903 59.9497 89.6788 60.694 88.7506 61.2684C87.9963 61.756 86.667 62.5936 84.7918 62.7269C83.3645 62.8332 82.279 62.4852 81.2039 62.1415C80.1567 61.8069 79.1557 61.3421 78.2243 60.758L75.8324 62.6603" fill="#FF76B8"/>
<path d="M75.8261 62.6603L75.0781 61.0517L77.6201 58.9307C77.2506 57.3508 77.3542 55.6972 77.918 54.1759C78.1827 53.4863 78.6494 52.2611 79.862 51.3235C80.8351 50.5692 81.8435 50.3963 83.8208 50.0733C86.0878 49.7108 87.6109 49.4691 89.5757 49.9275C90.9176 50.2442 92.1864 50.8149 93.3136 51.6089L92.7177 54.9073C92.5771 56.4127 92.033 57.8524 91.1425 59.0744C90.4903 59.9497 89.6788 60.694 88.7506 61.2684C87.9963 61.756 86.667 62.5936 84.7918 62.7269C83.3645 62.8332 82.279 62.4852 81.2039 62.1415C80.1567 61.8069 79.1557 61.3421 78.2243 60.758L75.8261 62.6603Z" stroke="#FEF4F8" stroke-width="3" stroke-miterlimit="10"/>
<path d="M81.2071 70.4859L80.2362 69.0962L76.9483 69.315C76.7149 68.4315 76.1148 66.7063 74.4813 65.6562C72.9561 64.6707 71.356 64.8124 68.4285 65.0707C66.2241 65.2645 64.7385 65.3958 63.1216 66.3875C61.7631 67.221 61.011 68.2315 60.2046 69.3046C59.4441 70.3276 58.4377 71.7132 58.0377 73.7676C57.8418 74.7807 57.8165 75.8194 57.9627 76.8409L62.2236 78.5223C63.9215 79.3983 65.7297 80.0416 67.5993 80.435C69.4953 80.8268 70.9121 81.1039 72.6811 80.6538C73.3895 80.4726 75.1606 80.0288 76.419 78.4598C77.3296 77.3284 77.5463 76.1408 77.765 74.949C77.9803 73.766 78.0056 72.5562 77.8401 71.3652L81.203 70.488" fill="#FF76B8"/>
<path d="M81.2071 70.4859L80.2362 69.0962L76.9483 69.315C76.7149 68.4315 76.1148 66.7063 74.4813 65.6562C72.9561 64.6707 71.356 64.8124 68.4285 65.0707C66.2241 65.2645 64.7385 65.3958 63.1216 66.3875C61.7631 67.221 61.011 68.2315 60.2046 69.3046C59.4441 70.3276 58.4377 71.7132 58.0377 73.7676C57.8418 74.7807 57.8165 75.8194 57.9627 76.8409L62.2236 78.5223C63.9215 79.3983 65.7297 80.0416 67.5993 80.435C69.4953 80.8268 70.9121 81.1039 72.6811 80.6538C73.3895 80.4726 75.1606 80.0288 76.419 78.4598C77.3296 77.3284 77.5463 76.1408 77.765 74.949C77.9803 73.766 78.0056 72.5562 77.8401 71.3652L81.2071 70.4859Z" stroke="#FEF4F8" stroke-width="3" stroke-miterlimit="10"/>
<path d="M43.0887 61.635L42.0469 60.3182L43.2429 59.6598C43.0887 59.2181 42.4094 57.1095 43.5408 55.0509C43.9988 54.1859 44.6999 53.4739 45.5577 53.0027C46.4203 52.5443 47.1683 52.5068 48.9206 52.4902C51.8376 52.4652 53.2961 52.4527 54.5254 52.5631C56.061 52.7027 56.3444 52.8194 59.3844 53.1486C60.2928 53.2465 61.0512 53.3194 61.5513 53.3674L57.6654 59.2201C57.3308 60.4302 56.6254 61.5049 55.6485 62.2934C54.4732 63.1973 53.0194 63.663 51.5376 63.6102C51.1209 63.6102 50.2333 63.3561 48.4726 62.8789C46.9475 62.4622 46.6412 62.3122 46.3891 62.1476C45.5723 61.635 45.3744 61.1537 44.7451 61.0495C44.1159 60.9454 43.495 61.3225 43.1012 61.635" fill="#FF76B8"/>
<path d="M43.0887 61.635L42.0469 60.3182L43.2429 59.6598C43.0887 59.2181 42.4094 57.1095 43.5408 55.0509C43.9988 54.1859 44.6999 53.4739 45.5577 53.0027C46.4203 52.5443 47.1683 52.5068 48.9206 52.4902C51.8376 52.4652 53.2961 52.4527 54.5254 52.5631C56.061 52.7027 56.3444 52.8194 59.3844 53.1486C60.2928 53.2465 61.0512 53.3194 61.5513 53.3674L57.6654 59.2201C57.3308 60.4302 56.6254 61.5049 55.6485 62.2934C54.4732 63.1973 53.0194 63.663 51.5376 63.6102C51.1209 63.6102 50.2333 63.3561 48.4726 62.8789C46.9475 62.4622 46.6412 62.3122 46.3891 62.1476C45.5723 61.635 45.3744 61.1537 44.7451 61.0495C44.1159 60.9454 43.4783 61.3225 43.0887 61.635Z" stroke="#FEF4F8" stroke-width="3" stroke-miterlimit="10"/>
<path d="M83.1507 47.3712L82.1839 43.8645C82.2776 43.3457 82.909 39.5327 80.3087 36.8428C78.3751 34.8384 75.7248 34.5696 74.3288 34.428C72.8491 34.2819 71.3552 34.4062 69.9199 34.7947L70.6679 40.062C70.9325 42.979 72.241 43.952 72.6848 44.2291C73.3099 44.6167 73.9933 44.7313 75.3747 44.9605C77.7083 45.348 78.3543 45.0105 79.2606 45.5459C79.8357 45.8856 80.5274 46.5877 80.9046 48.1796L83.1465 47.3753" fill="#FF76B8"/>
<path d="M83.1507 47.3712L82.1839 43.8645C82.2776 43.3457 82.909 39.5327 80.3087 36.8428C78.3751 34.8384 75.7248 34.5696 74.3288 34.428C72.8491 34.2819 71.3552 34.4062 69.9199 34.7947L70.6679 40.062C70.9325 42.979 72.241 43.952 72.6848 44.2291C73.3099 44.6167 73.9933 44.7313 75.3747 44.9605C77.7083 45.348 78.3543 45.0105 79.2606 45.5459C79.8357 45.8856 80.5274 46.5877 80.9046 48.1796L83.1507 47.3712Z" stroke="#FEF4F8" stroke-width="3" stroke-miterlimit="10"/>
<path d="M78.9641 59.514L78.6641 58.5639L80.458 57.7596L79.7871 53.4487L80.6101 53.0091L81.2081 56.0073L84.796 53.9592L84.123 51.8381L85.469 51.5464L86.59 52.8632L89.8779 51.911L90.6259 52.7882L87.561 54.0383L90.1029 54.6968V55.7948L86.59 55.2093L83.0021 57.1116L86.888 58.7931L86.813 59.7453L81.2831 58.5743L78.9662 59.5244" fill="#FFC736"/>
<path d="M78.9641 59.514L78.6641 58.5639L80.458 57.7596L79.7871 53.4487L80.6101 53.0091L81.2081 56.0073L84.796 53.9592L84.123 51.8381L85.469 51.5464L86.59 52.8632L89.8779 51.911L90.6259 52.7882L87.561 54.0383L90.1029 54.6968V55.7948L86.59 55.2093L83.0021 57.1116L86.888 58.7931L86.813 59.7453L81.2831 58.5743L78.9641 59.514Z" stroke="#FEF4F8" stroke-width="3" stroke-miterlimit="10"/>
<path d="M81.3492 45.3228L79.9282 42.4704L79.5552 38.8866L78.7322 38.1553L78.5822 40.9348L76.2653 38.0823L77.6113 36.253L76.7153 35.8863L75.3693 37.276L72.3898 35.1528L71.7168 36.2509L74.4734 38.5199L71.9314 39.3242L72.2294 40.5743L75.0693 39.6221L77.6113 41.9641L74.6213 42.9892L75.3068 43.8643L78.6697 42.9142L80.3887 45.6228L81.3492 45.3228Z" fill="#FFC736"/>
<path d="M81.3492 45.3228L79.9282 42.4704L79.5552 38.8866L78.7322 38.1553L78.5822 40.9348L76.2653 38.0823L77.6113 36.253L76.7153 35.8863L75.3693 37.276L72.3898 35.1528L71.7168 36.2509L74.4734 38.5199L71.9314 39.3242L72.2294 40.5743L75.0693 39.6221L77.6113 41.9641L74.6213 42.9892L75.3068 43.8643L78.6697 42.9142L80.3887 45.6228L81.3492 45.3228Z" stroke="#FEF4F8" stroke-width="3" stroke-miterlimit="10"/>
<path d="M76.05 70.9257L75.0791 70.1173L71.9391 71.2883L67.0073 67.1211L66.1843 67.7795L70.3702 71.8029L65.8113 72.3884L61.3275 71.1382L60.5794 72.0884L64.8404 73.1135L59.3105 74.4303L59.6085 75.3804L64.0174 74.6491L63.7194 76.3326L64.5424 76.6243L65.2154 74.6491L70.2973 73.626L69.1763 78.0891L70.2181 78.5287L73.283 72.1634L76.048 70.9132" fill="#FFC736"/>
<path d="M76.05 70.9257L75.0791 70.1173L71.9391 71.2883L67.0073 67.1211L66.1843 67.7795L70.3702 71.8029L65.8113 72.3884L61.3275 71.1382L60.5794 72.0884L64.8404 73.1135L59.3105 74.4303L59.6085 75.3804L64.0174 74.6491L63.7194 76.3326L64.5424 76.6243L65.2154 74.6491L70.2973 73.626L69.1763 78.0891L70.2181 78.5287L73.283 72.1634L76.05 70.9257Z" stroke="#FEF4F8" stroke-width="3" stroke-miterlimit="10"/>
<path d="M45.407 60.5329L44.959 59.5828L46.6029 58.9243L47.9489 54.5342H48.8469L48.549 58.0451L52.7349 56.2907L53.7059 54.0967L54.4539 54.2425L54.0767 56.1573L58.9357 54.4738L59.0107 55.8636L54.4518 57.1804L55.7228 58.0576L55.3498 58.9348L53.1808 57.8242L49.4429 59.2827L52.0577 60.3808L51.6098 61.5517L47.2009 59.9432L45.407 60.5329Z" fill="#FFC736"/>
<path d="M45.407 60.5329L44.959 59.5828L46.6029 58.9243L47.9489 54.5342H48.8469L48.549 58.0451L52.7349 56.2907L53.7059 54.0967L54.4539 54.2425L54.0767 56.1573L58.9357 54.4738L59.0107 55.8636L54.4518 57.1804L55.7228 58.0576L55.3498 58.9348L53.1808 57.8242L49.4429 59.2827L52.0577 60.3808L51.6098 61.5517L47.2009 59.9432L45.407 60.5329Z" stroke="#FEF4F8" stroke-width="3" stroke-miterlimit="10"/>
</g>
<defs>
<clipPath id="clip0_64_3387">
<rect width="128" height="112" fill="white"/>
</clipPath>
</defs>
</svg>
