<svg width="681" height="681" viewBox="0 0 681 681" fill="none" xmlns="http://www.w3.org/2000/svg">
<path d="M361.63 96.24C316.9 135.14 251.7 195.87 204.42 259C175.29 297.89 155.42 327.71 155.42 327.71C121.05 379.37 123.78 383.3 104.05 405.35C95.4703 414.94 81.5803 429.14 67.2603 452.9C62.5069 460.789 58.1871 468.931 54.3203 477.29L61.1803 483.62C81.0403 487.33 110.56 492.76 146.45 499.03C208.52 509.86 239.55 515.28 260.07 517.84C297.71 522.54 370.61 531.09 457.12 514.29C506.723 504.577 554.698 487.877 599.61 464.69C565.383 386.659 523.978 311.978 475.93 241.61C441.122 190.653 402.936 142.088 361.63 96.24Z" stroke="#2B2C2B" stroke-width="35" stroke-miterlimit="10"/>
<path d="M54.3499 477.27C54.2799 477.09 54.2299 476.9 54.1699 476.71C57.9757 468.465 62.3635 460.502 67.2999 452.88C75.2999 440.53 77.6899 439.95 90.9799 422.95C102.44 408.28 111.55 394.74 124.41 375.71C133.47 362.31 133.5 361.65 155.41 327.71C173.97 298.99 183.41 284.48 188.84 277.33C196.74 267.01 208.28 254.56 231.03 230.09C249.41 210.32 251.03 209.09 276.4 182.09C305.96 150.69 310.21 145.63 324.16 131.7C339.86 116.03 353.16 103.86 361.57 96.27L391.02 133.27C405.11 147.91 416.25 160.95 424.45 171.06C435.88 185.14 443.9 196.34 457.88 215.93C463.47 223.76 471.8 235.56 485.74 256.08C509.27 290.7 521.03 308.01 529.52 322.21C541.52 342.3 549.73 358.7 566.14 391.49C588.99 437.16 588.24 440.85 590.49 445.62C591.46 447.636 592.637 449.546 594 451.32C596.741 455.358 598.636 459.91 599.57 464.7C589.263 469.427 578.93 474.15 568.57 478.87C556.33 484.43 544.123 489.94 531.95 495.4C496.78 500.92 505.26 504.89 457.12 514.29C432.69 519.06 409.12 523.67 379.12 525.29C355.03 526.61 333.12 524.59 289.12 520.57C245.05 516.57 213.04 513.49 171.31 504.82C163.57 503.21 158.08 501.95 153.68 500.82C146.21 498.98 143.16 498.02 136.5 496.44C129.33 494.74 123.42 493.63 119.56 492.96L67.4999 485.52C63.1899 484.62 56.1299 482.46 54.2799 477.21" fill="#2B2C2B"/>
<path d="M360 126.16C383.61 154.96 404 180.23 420.5 200.95C446 232.95 454.6 244.25 465.08 260.78C466.33 262.78 475.22 278.13 492.94 308.78C508.94 336.43 514.68 346.46 523.94 362.31C533.16 378.01 540.71 390.66 545.43 398.52C530.981 406.966 515.796 414.082 500.06 419.78C483.009 425.893 465.417 430.373 447.52 433.16C433.92 435.31 424.59 435.81 379.06 436.31C334.06 436.81 311.62 437.06 303.44 436.31C274.33 433.65 278.76 430.53 228.61 423.71C207.87 420.89 195.68 419.87 176.07 415.05C162.542 411.723 149.247 407.514 136.27 402.45L164.13 363.87C183.13 338.87 197.57 318.11 207.13 304.04C229.66 270.83 236.55 257.47 256.48 234.76C264.14 226.04 272.73 217.4 289.91 200.12C310.06 180 319.06 172 334.56 155.29C345.92 143.04 354.66 132.69 360.03 126.16" fill="#F04B24"/>
<path d="M245.001 380.35C245.001 399.77 227.251 415.51 205.361 415.51C183.471 415.51 165.721 399.77 165.721 380.35C165.721 360.93 183.471 345.19 205.361 345.19C227.251 345.19 245.001 360.93 245.001 380.35Z" fill="#FFC736"/>
<path d="M205.32 415.51C227.212 415.51 244.96 399.768 244.96 380.35C244.96 360.932 227.212 345.19 205.32 345.19C183.427 345.19 165.68 360.932 165.68 380.35C165.68 399.768 183.427 415.51 205.32 415.51Z" stroke="#FFC736" stroke-width="3" stroke-miterlimit="10"/>
<path d="M494.39 376.87C494.39 394.15 481.39 408.17 465.44 408.17C449.49 408.17 436.49 394.17 436.49 376.87C436.49 359.57 449.49 345.58 465.44 345.58C481.39 345.58 494.39 359.58 494.39 376.87Z" fill="#FFC736"/>
<path d="M465.44 408.16C481.429 408.16 494.39 394.151 494.39 376.87C494.39 359.589 481.429 345.58 465.44 345.58C449.452 345.58 436.49 359.589 436.49 376.87C436.49 394.151 449.452 408.16 465.44 408.16Z" stroke="#FFC736" stroke-width="3" stroke-miterlimit="10"/>
<path d="M281.761 282.21L325.281 287.11L312.541 323.11C317.621 324.31 330.101 326.49 343.321 320.66C347.741 318.71 356.321 314.92 361.321 305.66C365.631 297.66 364.931 290.03 364.501 285.37C364.071 280.71 362.681 265.47 351.051 257.73C345.051 253.73 338.861 253.37 329.471 252.83C323.414 252.261 317.305 252.855 311.471 254.58C307.336 255.893 303.404 257.778 299.791 260.18C295.629 262.702 291.912 265.895 288.791 269.63C285.715 273.385 283.318 277.649 281.711 282.23" fill="#FFC736"/>
<path d="M281.76 282.21L325.28 287.11L312.54 323.11C317.62 324.31 330.1 326.49 343.32 320.66C347.74 318.71 356.32 314.92 361.32 305.66C365.63 297.66 364.93 290.03 364.5 285.37C364.07 280.71 362.68 265.47 351.05 257.73C345.05 253.73 338.86 253.37 329.47 252.83C323.413 252.261 317.303 252.855 311.47 254.58C307.334 255.893 303.403 257.778 299.79 260.18C295.627 262.702 291.911 265.895 288.79 269.63C285.733 273.383 283.354 277.64 281.76 282.21Z" stroke="#FFC736" stroke-width="3" stroke-miterlimit="10"/>
<path d="M351.811 199.29L353.581 238.83C351.161 238.73 331.891 237.63 321.381 222.03C317.584 216.714 315.492 210.371 315.381 203.84C315.381 202.84 315.541 190.53 324.931 181.45C329.511 177.02 334.331 175.24 341.201 172.7C345.934 170.742 350.952 169.56 356.061 169.2C361.72 168.705 367.415 169.544 372.691 171.65C378.069 173.642 382.743 177.172 386.131 181.8C389.106 186.022 390.838 190.993 391.131 196.15L351.861 199.3" fill="#FFC736"/>
<path d="M351.811 199.29L353.581 238.83C351.161 238.73 331.891 237.63 321.381 222.03C317.584 216.714 315.492 210.371 315.381 203.84C315.381 202.84 315.541 190.53 324.931 181.45C329.511 177.02 334.331 175.24 341.201 172.7C345.934 170.742 350.952 169.56 356.061 169.2C361.72 168.705 367.415 169.544 372.691 171.65C378.069 173.642 382.743 177.172 386.131 181.8C389.106 186.022 390.838 190.993 391.131 196.15L351.811 199.29Z" stroke="#FFC736" stroke-width="3" stroke-miterlimit="10"/>
<path d="M384.71 338.54L381.17 330.84L393.17 320.69C391.444 313.146 391.948 305.263 394.62 298C395.87 294.7 398.08 288.84 403.82 284.35C408.43 280.74 413.21 279.91 422.57 278.4C433.3 276.67 440.51 275.51 449.81 277.7C456.166 279.205 462.172 281.922 467.5 285.7L464.67 301.44C464.017 308.631 461.452 315.516 457.24 321.38C454.161 325.561 450.32 329.124 445.92 331.88C442.35 334.21 436.05 338.21 427.17 338.88C420.41 339.38 415.28 337.73 410.17 336.08C405.185 334.475 400.424 332.244 396 329.44L384.68 338.54" fill="#6ABD45"/>
<path d="M384.71 338.54L381.17 330.84L393.17 320.69C391.444 313.146 391.948 305.263 394.62 298C395.87 294.7 398.08 288.84 403.82 284.35C408.43 280.74 413.21 279.91 422.57 278.4C433.3 276.67 440.51 275.51 449.81 277.7C456.166 279.205 462.172 281.922 467.5 285.7L464.67 301.44C464.017 308.631 461.452 315.516 457.24 321.38C454.161 325.561 450.32 329.124 445.92 331.88C442.35 334.21 436.05 338.21 427.17 338.88C420.41 339.38 415.28 337.73 410.17 336.08C405.185 334.475 400.424 332.244 396 329.44L384.71 338.54Z" stroke="#6ABD45" stroke-width="3" stroke-miterlimit="10"/>
<path d="M410.18 376L405.58 369.35L390.01 370.35C388.9 366.13 386.01 357.87 378.34 352.86C371.12 348.15 363.55 348.86 349.68 350.06C339.25 350.99 332.22 351.62 324.56 356.36C318.12 360.36 314.56 365.18 310.76 370.36C307.16 375.26 302.39 381.89 300.5 391.7C299.575 396.544 299.456 401.508 300.15 406.39L320.32 414.39C328.359 418.562 336.927 421.623 345.79 423.49C354.79 425.37 361.48 426.69 369.85 424.49C373.21 423.63 381.58 421.49 387.54 413.99C391.85 408.57 392.88 402.9 393.91 397.2C394.927 391.541 395.045 385.756 394.26 380.06L410.18 375.86" fill="#6ABD45"/>
<path d="M410.18 376L405.58 369.35L390.01 370.35C388.9 366.13 386.01 357.87 378.34 352.86C371.12 348.15 363.55 348.86 349.68 350.06C339.25 350.99 332.22 351.62 324.56 356.36C318.12 360.36 314.56 365.18 310.76 370.36C307.16 375.26 302.39 381.89 300.5 391.7C299.575 396.544 299.456 401.508 300.15 406.39L320.32 414.39C328.359 418.562 336.927 421.623 345.79 423.49C354.79 425.37 361.48 426.69 369.85 424.49C373.21 423.63 381.58 421.49 387.54 413.99C391.85 408.57 392.88 402.9 393.91 397.2C394.927 391.541 395.045 385.756 394.26 380.06L410.18 376Z" stroke="#6ABD45" stroke-width="3" stroke-miterlimit="10"/>
<path d="M229.75 333.64L224.75 327.34L230.41 324.19C229.68 322.07 226.48 311.99 231.82 302.19C233.978 298.061 237.298 294.654 241.37 292.39C245.46 290.2 249 290.01 257.29 289.94C271.09 289.82 277.99 289.76 283.83 290.29C291.1 290.95 292.44 291.52 306.83 293.09C311.13 293.56 314.69 293.91 317.09 294.09L298.69 322.09C297.113 327.864 293.775 333.003 289.14 336.79C283.592 341.105 276.704 343.335 269.68 343.09C267.68 343.09 263.51 341.87 255.17 339.59C247.95 337.59 246.5 336.88 245.26 336.09C241.4 333.64 240.45 331.34 237.48 330.84C234.51 330.34 231.54 332.14 229.7 333.64" fill="#6ABD45"/>
<path d="M229.75 333.64L224.75 327.34L230.41 324.19C229.68 322.07 226.48 311.99 231.82 302.19C233.978 298.061 237.298 294.654 241.37 292.39C245.46 290.2 249 290.01 257.29 289.94C271.09 289.82 277.99 289.76 283.83 290.29C291.1 290.95 292.44 291.52 306.83 293.09C311.13 293.56 314.69 293.91 317.09 294.09L298.69 322.09C297.113 327.864 293.775 333.003 289.14 336.79C283.592 341.105 276.704 343.335 269.68 343.09C267.68 343.09 263.51 341.87 255.17 339.59C247.95 337.59 246.5 336.88 245.26 336.09C241.4 333.64 240.45 331.34 237.48 330.84C234.51 330.34 231.59 332.15 229.75 333.64Z" stroke="#6ABD45" stroke-width="3" stroke-miterlimit="10"/>
<path d="M419.38 265.41L414.78 248.62C415.23 246.14 418.21 227.9 405.94 215.03C396.79 205.44 384.24 204.16 377.64 203.48C370.634 202.781 363.56 203.374 356.77 205.23L360.31 230.42C361.57 244.42 367.75 249.02 369.86 250.36C372.78 252.22 376.05 252.76 382.6 253.86C393.6 255.71 396.7 254.1 401 256.66C403.72 258.29 407 261.66 408.78 269.26L419.39 265.41" fill="#6ABD45"/>
<path d="M419.38 265.41L414.78 248.62C415.23 246.14 418.21 227.9 405.94 215.03C396.79 205.44 384.24 204.16 377.64 203.48C370.634 202.781 363.56 203.374 356.77 205.23L360.31 230.42C361.57 244.42 367.75 249.02 369.86 250.36C372.78 252.22 376.05 252.76 382.6 253.86C393.6 255.71 396.7 254.1 401 256.66C403.72 258.29 407 261.66 408.78 269.26L419.38 265.41Z" stroke="#6ABD45" stroke-width="3" stroke-miterlimit="10"/>
<path d="M399.57 323.5L398.15 318.95L406.64 315.1L403.46 294.46L407.35 292.36L410.18 306.71L427.18 296.91L424 286.76L430.37 285.36L435.68 291.66L451.25 287.11L454.79 291.31L440.28 297.26L452.28 300.41V305.66L435.65 302.86L418.65 311.96L437.05 319.96C436.93 321.473 436.814 322.99 436.7 324.51L410.52 318.91L399.52 323.46" fill="#DCEEDE"/>
<path d="M399.57 323.5L398.15 318.95L406.64 315.1L403.46 294.46L407.35 292.36L410.18 306.71L427.18 296.91L424 286.76L430.37 285.36L435.68 291.66L451.25 287.11L454.79 291.31L440.28 297.26L452.28 300.41V305.66L435.65 302.86L418.65 311.96L437.05 319.96C436.93 321.473 436.814 322.99 436.7 324.51L410.52 318.91L399.57 323.5Z" stroke="#DCEEDE" stroke-width="3" stroke-miterlimit="10"/>
<path d="M410.89 255.62L404.17 242L402.4 224.86L398.51 221.36C398.276 225.793 398.04 230.227 397.8 234.66L386.8 221.01L393.17 212.26L389 210.48L382.63 217.13L368.44 207L365.26 212.25L378.35 223.1L366.35 226.95L367.76 232.9L381.2 228.35L393.2 239.55L379 244.42L382.18 248.62L398.1 244.07L406.29 257L410.89 255.6" fill="#DCEEDE"/>
<path d="M410.89 255.62L404.17 242L402.4 224.86L398.51 221.36C398.276 225.793 398.04 230.227 397.8 234.66L386.8 221.01L393.17 212.26L389 210.48L382.63 217.13L368.44 207L365.26 212.25L378.35 223.1L366.35 226.95L367.76 232.9L381.2 228.35L393.2 239.55L379 244.42L382.18 248.62L398.1 244.07L406.29 257L410.89 255.62Z" stroke="#DCEEDE" stroke-width="3" stroke-miterlimit="10"/>
<path d="M385.77 378.08L381.17 374.23L366.31 379.83L343 359.88L339.07 363L358.88 382.24L337.3 385.04L316.07 379.09L312.53 383.64L332.7 388.54L306.52 394.84L307.93 399.39L328.8 395.89L327.38 403.89L331.27 405.29L334.45 395.84L358.51 390.94L353.2 412.28L358.2 414.38L372.68 384L385.77 378.05" fill="#DCEEDE"/>
<path d="M385.77 378.08L381.17 374.23L366.31 379.83L343 359.88L339.07 363L358.88 382.24L337.3 385.04L316.07 379.09L312.53 383.64L332.7 388.54L306.52 394.84L307.93 399.39L328.8 395.89L327.38 403.89L331.27 405.29L334.45 395.84L358.51 390.94L353.2 412.28L358.2 414.38L372.68 384L385.77 378.08Z" stroke="#DCEEDE" stroke-width="3" stroke-miterlimit="10"/>
<path d="M240.72 328.4L238.6 323.85L246.38 320.7L252.75 299.7H257L255.59 316.49L275.4 308.09L280 297.59L283.54 298.29L281.77 307.39L304.77 299.39C304.89 301.603 305.006 303.82 305.12 306.04L283.54 312.34L289.54 316.54L287.77 320.74L277.51 315.49L259.82 322.49L272.2 327.74L270.08 333.34L249.21 325.64L240.72 328.44" fill="#DCEEDE"/>
<path d="M240.72 328.4L238.6 323.85L246.38 320.7L252.75 299.7H257L255.59 316.49L275.4 308.09L280 297.59L283.54 298.29L281.77 307.39L304.77 299.39C304.89 301.603 305.006 303.82 305.12 306.04L283.54 312.34L289.54 316.54L287.77 320.74L277.51 315.49L259.82 322.49L272.2 327.74L270.08 333.34L249.21 325.64L240.72 328.4Z" stroke="#DCEEDE" stroke-width="3" stroke-miterlimit="10"/>
<path d="M363.34 86.24C299.34 138.91 254.34 188.15 224.93 223.68C197.19 257.2 168 299.14 110.74 381.68C81.0702 424.43 56.9802 459.89 40.7402 483.89C54.1402 488.09 72.2802 493.53 94.0002 499C112.42 503.69 141.56 510.5 191.14 518.43C243.58 526.81 269.8 531.01 303.48 532.79C330.16 534.2 385.8 536.79 455.48 522.65C508.818 511.795 560.311 493.305 608.37 467.75C594.484 427.52 577.247 388.527 556.84 351.18C543.55 326.91 518.94 291.18 469.72 219.65C446.72 186.28 432.41 166.2 412.4 141.7C393.09 118.06 375.82 99.27 363.34 86.24Z" stroke="#F6D8E8" stroke-width="3" stroke-miterlimit="10"/>
</svg>
