<svg width="681" height="681" viewBox="0 0 681 681" fill="none" xmlns="http://www.w3.org/2000/svg">
<g clip-path="url(#clip0_61_2532)">
<mask id="mask0_61_2532" style="mask-type:luminance" maskUnits="userSpaceOnUse" x="84" y="-88" width="596" height="843">
<path d="M679.729 -87.8101H84.4492V754.08H679.729V-87.8101Z" fill="white"/>
</mask>
<g mask="url(#mask0_61_2532)">
<path d="M223.839 259.08C297.399 219 369.129 237 388.549 242.18C407.619 247.29 441.789 256.87 473.019 286.95C491.647 305.295 506.057 327.475 515.249 351.95C525.867 380.818 529.346 411.826 525.389 442.33C523.469 457.33 516.389 498.41 486.529 536.09C422.699 616.58 312.169 609.02 295.629 607.89C271.919 606.27 220.159 602.01 175.689 563.97C157.436 548.211 142.505 528.973 131.769 507.38C126.049 495.84 112.929 468.58 113.189 431.38C113.439 396 125.639 370.44 133.459 354.51C140.459 340.16 165.639 290.76 223.839 259.06" fill="#2B2C2B"/>
<path d="M247.489 263.3C298.839 240.68 345.579 249.09 366.589 253.16C388.789 257.47 425.749 265.16 459.509 296.24C473.509 309.17 495.289 333.76 505.969 370.57C529.269 450.94 478.709 516.95 475.559 520.92C448.459 555.1 415.049 568.55 392.779 577.51C373.129 585.42 326.499 603.51 267.779 591.87C244.319 587.23 190.679 576.64 156.279 527.67C122.649 479.81 129.679 426.97 131.779 412.79C137.559 373.93 155.839 347.69 167.259 331.7C178.679 315.71 202.599 283.07 247.489 263.3Z" stroke="#F6D8E8" stroke-width="7" stroke-miterlimit="10"/>
<path d="M470.489 378.18C452.749 372.89 433.999 393.18 429.939 397.61C426.639 401.19 402.419 428.31 411.359 460.96C412.359 464.49 420.669 493.47 441.769 496.44C460.549 499.09 475.449 479.14 478.939 474.44C489.479 460.33 490.389 445.86 491.609 426.29C493.089 402.65 487.609 393.67 485.699 390.81C483.789 387.95 478.839 380.63 470.499 378.14" fill="#EEEDEE"/>
<path d="M460.35 424.63C452.18 421.89 445.1 425.48 443.46 426.32C434.4 430.92 429.89 440.77 429.66 449.41C429.59 452.18 429.32 462.15 437.17 468.56C445.02 474.97 455.02 472.65 456.32 472.31C464.93 470.05 469.15 463.31 470.58 461.05C472.19 458.48 477.64 448.85 473.58 438.15C472.99 436.59 469.64 427.75 460.35 424.63Z" fill="#FFC837"/>
<path d="M394.749 486.2C375.049 470.49 350.279 473.66 340.309 474.94C328.239 476.49 312.309 478.53 299.389 491.83C297.249 494.03 280.009 512.41 284.749 537.63C285.389 541.05 289.019 558.31 304.649 568.79C321.149 579.86 339.649 575.79 352.329 572.92C358.629 571.52 381.729 565.63 398.879 544.76C405.499 536.7 413.139 527.41 412.389 514.76C411.499 499.6 399.239 489.82 394.749 486.23" fill="#EEEDEE"/>
<path d="M324.539 508C312.539 510.57 307.679 521.31 307.269 522.27C306.669 523.65 302.669 533.4 308.019 543.27C313.939 554.22 326.019 555.55 327.169 555.66C337.169 556.59 348.059 551.19 352.319 541.02C353.894 537.152 354.445 532.944 353.92 528.802C353.394 524.659 351.81 520.722 349.319 517.37C346.512 513.608 342.688 510.726 338.297 509.066C333.907 507.406 329.133 507.036 324.539 508Z" fill="#FFC837"/>
<path d="M263.48 462.64L255.48 471.37L253.93 473.05L242.93 471.05L233.08 484.85L247.16 498.08L258.42 495.26L260.95 480.9L270.34 472.9L270.8 472.5L268.27 469.4C262.777 474.2 259.777 476.36 259.27 475.88C258.763 475.4 261.007 471.927 266 465.46L263.48 462.64Z" fill="#F04B24"/>
<path d="M252.53 503.47L260.69 499.81L272.52 514.45L254.52 524.3L252.52 503.46" fill="#F04B24"/>
<path d="M256.78 530.22L276.21 521.49L273.68 546.27L258.76 542.61L256.76 530.22" fill="#F04B24"/>
<path d="M255.94 546.83L267.48 550.21L261.85 567.39L252 555L255.94 546.83Z" fill="#F04B24"/>
<path d="M233.689 554.43L249.179 555.84L254.529 567.1L239.329 569.35L242.429 565.13L231.729 561.47L240.459 558.09L233.699 554.43" fill="#F04B24"/>
<path d="M230.879 500.09L233.129 500.65L234.539 515.86L242.999 524L241.309 548.21L212.309 537.21L216.529 516.09L226.669 515.81L218.789 499.2L220.789 496.67L229.239 514.13L230.929 500.05" fill="#F04B24"/>
<path d="M209.76 511.92L204.97 529.92L185 516.7L200.49 506.85L209.78 511.92" fill="#F04B24"/>
<path d="M198.5 503.19L181.89 510.19C181.703 503.43 181.517 496.673 181.33 489.92L197.33 494.71L198.46 503.16" fill="#F04B24"/>
<path d="M197.939 489.11L183.859 482.92L195.999 456.17L199.939 464.34L211.169 459L209.759 469.7L213.699 469.98L197.929 489.13" fill="#F04B24"/>
<path d="M175.69 364.94L160.21 359L224.12 286.64L242.42 298.75L227.5 321L245.24 339.58L201.6 442.94L190.9 431.68L167 470.81L145 446.6L179.07 369.17L194 372.83L225.82 325.53L217.37 317.08L175.7 364.94" fill="#6ABD45"/>
<path d="M183 364.1L217.08 323L220.18 325L192.31 368.92L183 364.1Z" fill="#6ABD45"/>
<path d="M283 131.53L277.09 123.93L625.91 22.5699L627.6 40.2999L283 131.53Z" fill="#EEEDEE"/>
<path d="M279.59 150.11L628.44 91L630.13 108.74L279.59 159.4V150.11Z" fill="#EEEDEE"/>
<path d="M437.83 299.34L429.38 297.65C425.61 313.47 411.02 320.34 402.63 316.8C395.98 313.99 391.52 303.92 393.63 292.87L382.93 292.31C380.46 312 387.8 328.06 398.13 331.45C402.534 332.787 407.236 332.787 411.64 331.45C419.55 328.69 422.64 321.56 425.44 322.72C427.69 323.65 425.96 328.35 428.82 333.98C431.041 338.095 434.648 341.291 439 343C447.55 346.22 460.34 340.3 468.28 327.23L463.77 319.91C461.02 322.915 457.662 325.301 453.92 326.91C450.2 328.5 446.18 330.23 442.66 328.6C438.16 326.52 437.18 320.24 436.47 315.6C435.646 310.122 436.129 304.526 437.88 299.27" fill="#FAEE42"/>
<path d="M303 477.28L292.58 477.56C288.41 459.24 292.58 443.21 302.15 438.42C309.89 434.53 320.32 438.42 323.27 439.55C336.98 444.68 341 455.08 346.08 453.35C350.03 452 349.21 445.17 352.56 433.64C354.27 427.74 358.48 413.26 367.76 404.92C382.38 391.78 403.31 399.55 405.76 391.69C407.47 386.23 397.33 382.57 392.24 367.76C391.62 365.94 386.46 350.45 391.96 343.83C398.72 335.69 421.76 340.83 448.84 356.22L444.33 364.1C427.45 351.49 411.24 345.21 406 350C400.38 355.17 406.12 374.37 422.33 395.89L410.79 405.74C407.92 404.97 387.45 399.74 375.03 411.37C368.15 417.81 366.59 426.75 364.61 438.12C362.998 447.424 362.809 456.919 364.05 466.28L342.93 468.81C337.666 462.21 331.282 456.588 324.07 452.2C317.62 448.29 312.61 445.2 308.58 446.85C302.5 449.27 300.33 461.64 302.95 477.26" fill="#FAEE42"/>
<path d="M254.53 360.44L245.24 352.84C259.74 342.26 275.73 339.47 284.94 345.52C287.24 347.03 292.94 350.8 294.23 357.06C295.23 362.29 292.58 366.06 294.51 367.76C296.44 369.46 300.1 366 307.18 365.23C312.198 364.776 317.246 365.649 321.82 367.76C324.72 369 332.26 372.23 335.9 379.59C339.99 387.87 336.01 395.09 339.56 397.05C342.26 398.54 345.21 394.7 352.56 392.83C357.947 391.611 363.548 391.707 368.89 393.11C379.81 396.36 387.4 418.35 384.38 446.32L374.24 444.63C379.95 423.25 375.5 406.41 367.48 403.52C360.4 400.98 349.2 408.81 348.33 409.43C344.74 412.008 341.684 415.258 339.33 419L328 411.68C330.771 406.002 331.563 399.56 330.25 393.38C329.59 390.48 327.82 382.6 320.96 378.74C315.45 375.64 309.63 376.79 304.07 377.89C299.283 378.849 294.707 380.661 290.56 383.24L282.11 376.76C286.67 365.57 285.47 355.4 280.42 352.27C276.49 349.83 270.51 351.82 266.62 353.11C262.095 354.631 257.96 357.13 254.51 360.43" fill="#FAEE42"/>
<path d="M407.43 260.16L409.43 270.29C394.09 268.22 382.03 260.51 379.27 251.38C378.58 249.1 376.86 243.38 379.46 238.84C381.63 235.02 385.46 234.29 385.13 232.13C384.8 229.97 380.49 229.91 375.4 226.22C371.835 223.547 368.984 220.037 367.1 216C365.87 213.54 362.67 207.11 364.29 200.47C366.12 192.99 372.69 190.92 371.43 187.63C370.43 185.12 366.43 185.74 360.59 182.63C356.375 180.196 352.757 176.851 350 172.84C344.58 164.42 351.61 146.49 368.9 131.16L374.65 138.16C359.2 147.88 352.91 160.8 356.65 167.29C359.92 173.01 371.59 174.82 372.5 174.95C376.224 175.493 380.018 175.306 383.67 174.4L387 185.52C382.113 187.331 378.037 190.832 375.51 195.39C374.35 197.55 371.22 203.39 373.62 209.82C375.55 214.96 380.02 217.69 384.29 220.29C387.949 222.525 391.964 224.118 396.16 225L398.16 233.94C389.03 238.1 384.26 245.03 385.87 249.94C387.12 253.74 392.16 256.05 395.42 257.55C399.186 259.277 403.277 260.18 407.42 260.2" fill="#FAEE42"/>
<path d="M337.378 297.15L331.988 304.45C317.638 297.89 309.308 286.75 311.238 277.73C312.808 270.42 320.968 265.26 323.238 263.8C333.998 257 342.998 259.62 344.598 255.24C345.818 251.83 340.858 248.88 335.028 240.65C332.028 236.43 324.718 226.09 324.178 215.42C323.318 198.61 339.648 188.23 335.758 182.49C333.058 178.49 325.218 183.59 312.708 179.49C311.168 178.98 298.168 174.55 296.708 167.37C294.948 158.53 310.638 145.37 335.318 134.67L338.118 141.82C320.768 146.91 307.948 154.82 308.328 160.88C308.738 167.41 324.498 173.34 347.398 173.28C347.512 177.613 347.625 181.947 347.738 186.28C345.738 187.86 331.298 199.28 332.338 213.75C332.908 221.75 337.988 227.46 344.448 234.67C349.731 240.562 355.91 245.584 362.758 249.55L353.138 265.36C345.912 265.59 338.781 267.083 332.068 269.77C326.068 272.19 321.338 274.07 320.248 277.66C318.598 283.08 325.618 290.94 337.338 297.18" fill="#FAEE42"/>
<path d="M300.89 143.82L300.52 136.69C297.08 138.02 289.52 141.54 285.12 149.55C283.55 152.4 282.29 154.69 282.5 157.72C283.11 166.56 295.72 169.16 294.89 175.37C294.43 178.81 291.03 178.84 285.13 185.13C281.24 189.27 275.03 195.9 275.75 203.52C276.41 210.59 282.75 215.52 284.75 217.04C291.1 221.94 295.45 220.63 296.39 223.42C298.48 229.64 276.92 236.22 275.74 250.07C275.14 257.15 279.88 265.89 286.25 269.97C291.58 273.37 296.42 272.48 300.14 277.48C301.81 279.72 304.14 284.27 302.39 286.87C299.58 291.14 289.52 284.59 281.74 289.87C276.74 293.26 275.56 299.57 274.98 302.63C273.21 311.96 277.3 319.45 278.36 321.4C284.44 332.55 298.36 338.96 314.02 338.67L316.27 326.67C299.98 327.93 288.5 319.93 287.74 312.03C287.27 307.17 290.82 302.03 294.87 299.27C297.518 297.519 300.593 296.525 303.765 296.392C306.937 296.26 310.085 296.996 312.87 298.52L311.74 271.12C300.32 272.72 290.02 264.83 288.46 254.6C286.78 243.49 295.8 232.18 308.36 231.7L309.11 218.94C304.783 217.857 300.708 215.945 297.11 213.31C293.73 210.82 288.17 206.73 287.72 201.67C287.16 195.28 294.81 187.67 306.87 184.4V173.86C304.162 173.069 301.619 171.799 299.36 170.11C296.99 168.33 291.17 163.95 291.1 157.35C291.04 151.87 294.97 146.58 300.86 143.83" fill="#FAEE42"/>
<path d="M370 294.35L373.46 288.1C355.06 288.1 348.9 292.16 347.03 296.37C343.84 303.55 352.45 312.75 348.17 317.9C345.95 320.58 343.05 318.79 334.72 321C329.23 322.45 320.44 324.78 317.01 331.62C313.82 337.97 316.6 345.48 317.48 347.86C320.26 355.38 324.65 356.58 323.96 359.44C322.43 365.83 300.67 359.97 292.32 371.09C288.05 376.77 287.44 386.7 290.68 393.53C293.39 399.24 297.97 401.05 298.47 407.26C298.7 410.04 298.22 415.12 295.4 416.41C290.75 418.54 285.7 407.65 276.3 408.01C270.3 408.24 265.92 412.96 263.8 415.25C257.35 422.25 256.8 430.74 256.71 432.95C255.95 445.62 264.36 458.44 277.79 466.5L286.07 457.5C271.59 449.93 266.07 437.06 269.65 429.96C271.83 425.59 277.55 423.12 282.47 422.96C285.648 422.877 288.788 423.664 291.552 425.236C294.315 426.809 296.597 429.106 298.15 431.88L311.78 408C301.25 403.3 296.7 391.15 300.78 381.65C305.24 371.34 318.89 366.53 329.78 372.79L337.19 362.37C334.092 359.157 331.646 355.374 329.99 351.23C328.44 347.32 325.9 340.91 328.2 336.39C331.12 330.67 341.62 328.3 353.59 331.9L359.16 322.99C357.287 320.884 355.807 318.459 354.79 315.83C353.73 313.06 351.11 306.26 354.56 300.63C357.42 295.95 363.56 293.56 370 294.35Z" fill="#FAEE42"/>
<path d="M132.999 538.44C147.999 556.13 185.299 594.93 246.999 613.62C267.479 619.82 335.999 637.52 410.869 604.33C460.309 582.42 489.649 548.48 502.939 530.84C499.499 546.15 483.809 607.84 425.229 645.72C384.059 672.34 343.079 673.37 324.709 673.59C308.329 673.79 252.799 673.65 200.539 633.89C155.759 599.82 138.709 555.89 132.969 538.44" fill="#2B2C2B"/>
</g>
</g>
<defs>
<clipPath id="clip0_61_2532">
<rect width="680.31" height="680.31" fill="white"/>
</clipPath>
</defs>
</svg>
