<svg width="128" height="112" viewBox="0 0 128 112" fill="none" xmlns="http://www.w3.org/2000/svg">
<g clip-path="url(#clip0_64_3357)">
<path d="M39.5908 43.4637C51.7521 36.8391 63.6109 39.8149 66.8216 40.6713C69.9743 41.5161 75.6235 43.1 80.7866 48.073C83.8661 51.1059 86.2485 54.7728 87.7683 58.8191C89.5238 63.5918 90.0989 68.7182 89.4447 73.7612C89.1273 76.2411 87.9568 83.0327 83.0202 89.2622C72.4674 102.569 54.194 101.319 51.4595 101.133C47.5413 100.87 38.984 100.159 31.6304 93.8764C28.6127 91.271 26.1442 88.0905 24.3693 84.5206C23.4236 82.6128 21.2545 78.106 21.2975 71.9559C21.3388 66.1067 23.3558 61.8826 24.6487 59.249C25.8059 56.8765 29.9688 48.7095 39.5908 43.4686" fill="#FFC736"/>
<path d="M43.5016 44.1631C51.9911 40.4235 59.7184 41.8138 63.1919 42.4867C66.8621 43.1993 72.9725 44.4706 78.5539 49.6089C80.8685 51.7466 84.4693 55.812 86.235 61.8976C90.087 75.1848 81.7282 86.0979 81.2074 86.7543C76.7271 92.4051 71.2036 94.6288 67.5218 96.1101C64.2731 97.4178 56.564 100.409 46.8561 98.4841C42.9775 97.717 34.1095 95.9662 28.4223 87.8719C22.864 79.9594 24.0246 71.2236 24.3718 68.8793C25.3274 62.4547 28.3495 58.1166 30.2375 55.473C32.1256 52.8295 36.0818 47.4316 43.5016 44.1631Z" stroke="#FF76B8" stroke-width="2" stroke-miterlimit="10"/>
<path d="M80.3687 63.1541C77.4359 62.2796 74.336 65.634 73.6648 66.3664C73.1192 66.9583 69.115 71.4419 70.593 76.8398C70.7584 77.4234 72.1322 82.2145 75.6206 82.7055C78.727 83.1436 81.1887 79.8454 81.7657 79.0684C83.5083 76.7356 83.6587 74.3434 83.8604 71.1079C84.1051 67.1997 83.1991 65.715 82.8833 65.2422C82.5676 64.7694 81.7492 63.5592 80.3704 63.1475" fill="#FEF4F8"/>
<path d="M78.6908 70.8351C77.3401 70.3821 76.1696 70.9756 75.8985 71.1145C74.4006 71.8766 73.655 73.5034 73.617 74.9319C73.6037 75.3898 73.5608 77.0381 74.8586 78.0978C76.1564 79.1576 77.8113 78.774 78.0245 78.7178C79.448 78.3458 80.1457 77.2299 80.3821 76.8562C80.6499 76.4314 81.5493 74.8393 80.8781 73.0703C80.7805 72.8124 80.2267 71.3509 78.6908 70.8351Z" fill="#FFC736"/>
<path d="M67.8469 81.0143C64.59 78.4171 60.4949 78.9412 58.8466 79.1528C56.8511 79.409 54.2175 79.7463 52.0815 81.9451C51.7277 82.3105 48.8775 85.3475 49.6611 89.517C49.7669 90.0824 50.3671 92.936 52.9511 94.6686C55.679 96.4971 58.7375 95.8259 60.8338 95.3514C61.8754 95.1199 65.6944 94.1461 68.5297 90.6958C69.6242 89.3633 70.8873 87.8274 70.7633 85.736C70.6161 83.2297 68.5892 81.6128 67.8469 81.0193" fill="#FEF4F8"/>
<path d="M56.2404 84.6185C54.2565 85.0434 53.453 86.819 53.3852 86.9777C53.286 87.2058 52.6247 88.8177 53.5092 90.4495C54.488 92.2681 56.4851 92.4797 56.6752 92.4979C58.3285 92.6516 60.1289 91.7589 60.8332 90.0775C61.0936 89.4381 61.1847 88.7424 61.0978 88.0575C61.011 87.3726 60.749 86.7217 60.3372 86.1676C59.8732 85.5455 59.2409 85.0692 58.515 84.7947C57.7892 84.5202 56.9999 84.4591 56.2404 84.6185Z" fill="#FFC736"/>
<path d="M46.1431 77.1191L44.8205 78.5624L44.5642 78.8402L42.7456 78.5095L41.1172 80.791L43.445 82.9783L45.3065 82.5121L45.7248 80.138L47.2772 78.8154L47.3533 78.7492L46.935 78.2367C46.0268 79.0303 45.5308 79.3869 45.4471 79.3064C45.3633 79.2259 45.7342 78.6517 46.5597 77.5837L46.1431 77.1191Z" fill="#FFC736"/>
<path d="M44.3337 83.8693L45.6844 83.2642L47.6385 85.6845L44.6627 87.3146L44.332 83.8693" fill="#FFC736"/>
<path d="M45.0365 88.29L48.2488 86.8467L47.8305 90.9435L45.3639 90.3384L45.0332 88.29" fill="#FFC736"/>
<path d="M44.8975 91.0376L46.8053 91.5964L45.8746 94.435L44.2461 92.3883L44.8975 91.0376Z" fill="#FFC736"/>
<path d="M41.2205 92.2944L43.7814 92.5275L44.6659 94.3891L42.153 94.7611L42.6655 94.0634L40.8965 93.4583L42.3398 92.8995L41.2222 92.2944" fill="#FFC736"/>
<path d="M40.7556 83.3105L41.1276 83.4031L41.3607 85.9177L42.7594 87.2635L42.48 91.266L37.6855 89.4474L38.3832 85.9557L40.0596 85.9094L38.7569 83.1634L39.0875 82.7451L40.4845 85.6317L40.7639 83.3039" fill="#FFC736"/>
<path d="M37.2634 85.2648L36.4715 88.2406L33.1699 86.0567L35.7308 84.4282L37.2634 85.2648Z" fill="#FFC736"/>
<path d="M35.4011 83.8218L32.6551 84.9791C32.6242 83.8615 32.5934 82.7444 32.5625 81.6279L35.2077 82.4198L35.3945 83.8168" fill="#FFC736"/>
<path d="M35.3083 81.4953L32.9805 80.472L34.9875 76.0479L35.6389 77.3986L37.4955 76.5174L37.2624 78.2864L37.9138 78.3327L35.3066 81.4986" fill="#FFC736"/>
<path d="M31.6305 60.967L29.0712 59.9849L39.6372 48.022L42.6627 50.0241L40.196 53.7026L43.1289 56.7743L35.9141 73.8607L34.1451 71.9991L30.1938 78.47L26.5566 74.4674L32.1893 61.6663L34.6576 62.2697L39.9183 54.4498L38.5213 53.0528L31.6321 60.9653" fill="#FF76B8"/>
<path d="M32.8398 60.8264L38.4741 54.0332L38.9866 54.3639L34.379 61.625L32.8398 60.8264Z" fill="#FFC736"/>
<path d="M49.3716 23.2313L48.3945 21.9749L106.063 5.21582L106.343 8.1487L49.3716 23.2313Z" fill="#FFC736"/>
<path d="M48.8066 25.4501L106.48 15.6777L106.76 18.6106L48.8066 26.986V25.4501Z" fill="#FFC736"/>
<path d="M74.9679 50.1217L73.5709 49.8423C72.9476 52.4578 70.5355 53.5935 69.1484 53.0083C68.049 52.5437 67.3117 50.8789 67.6605 49.0521L65.8915 48.9595C65.4848 52.2147 66.6967 54.8699 68.4045 55.4303C69.1326 55.6513 69.9099 55.6513 70.638 55.4303C71.9458 54.974 72.4566 53.7952 72.9195 53.987C73.2915 54.1408 73.0055 54.9178 73.4783 55.8486C73.8455 56.5289 74.4418 57.0572 75.1613 57.3398C76.5749 57.8722 78.6894 56.8934 80.0021 54.7326L79.2564 53.5225C78.8017 54.0192 78.2467 54.4137 77.628 54.6797C77.013 54.9426 76.3484 55.2286 75.7664 54.9591C75.0225 54.6153 74.8604 53.577 74.7431 52.8099C74.6067 51.9042 74.6866 50.9791 74.9762 50.1101" fill="#FF76B8"/>
<path d="M52.6769 79.5399L50.9542 79.5861C50.2648 76.5574 50.9542 73.9072 52.5363 73.1153C53.816 72.4722 55.5403 73.1153 56.028 73.3021C58.2946 74.1502 58.9592 75.8696 59.7991 75.5836C60.4521 75.3604 60.3166 74.2313 60.8704 72.325C61.1531 71.3496 61.8491 68.9557 63.3834 67.5769C65.8004 65.4045 69.2607 66.6891 69.6657 65.3896C69.9484 64.487 68.272 63.8819 67.4305 61.4334C67.328 61.1325 66.4749 58.5716 67.3842 57.4772C68.5018 56.1314 72.3109 56.9812 76.7879 59.5255L76.0423 60.8283C73.2516 58.7419 70.5717 57.7037 69.7054 58.4972C68.7763 59.3519 69.7252 62.5262 72.4052 66.084L70.4973 67.7125C70.0228 67.5852 66.6386 66.7205 64.5853 68.6432C63.4478 69.7079 63.1899 71.186 62.8626 73.0657C62.5961 74.6039 62.5649 76.1737 62.77 77.7213L59.2783 78.1395C58.4073 77.0485 57.3514 76.119 56.1586 75.3935C55.0923 74.7471 54.264 74.2362 53.5977 74.509C52.5926 74.9091 52.2338 76.9542 52.6669 79.5365" fill="#FF76B8"/>
<path d="M44.6648 60.2211L43.1289 58.9646C45.5261 57.2155 48.1697 56.7542 49.6923 57.7545C50.0726 58.0041 51.0149 58.6274 51.2282 59.6623C51.3935 60.527 50.9554 61.1503 51.2745 61.4313C51.5936 61.7124 52.1987 61.1403 53.3692 61.013C54.1987 60.938 55.0333 61.0822 55.7895 61.4313C56.269 61.6363 57.5155 62.1703 58.1173 63.3871C58.7935 64.756 58.1355 65.9497 58.7224 66.2737C59.1688 66.52 59.6548 65.8852 60.8716 65.576C61.7622 65.3745 62.6883 65.3904 63.5714 65.6223C65.3768 66.1596 66.6316 69.7951 66.1323 74.4193L64.4559 74.1399C65.3999 70.6052 64.6642 67.8211 63.3383 67.3434C62.1678 66.9218 60.3161 68.2179 60.1723 68.3204C59.5788 68.7468 59.0735 69.2841 58.6844 69.9026L56.8112 68.6941C57.2693 67.7553 57.4002 66.6903 57.1832 65.6686C57.0741 65.1892 56.7815 63.8864 55.6474 63.2482C54.7364 62.7357 53.7742 62.9259 52.855 63.1077C52.0635 63.2662 51.3069 63.5658 50.6215 63.9922L49.2245 62.9209C49.9783 61.0709 49.78 59.3895 48.9451 58.8704C48.2953 58.467 47.3067 58.796 46.6636 59.0109C45.9154 59.2624 45.2319 59.6756 44.6615 60.2211" fill="#FF76B8"/>
<path d="M69.9434 43.6441L70.2741 45.3188C67.738 44.9766 65.7441 43.7019 65.2878 42.1925C65.1738 41.8156 64.8894 40.8699 65.3192 40.1193C65.678 39.4878 66.3112 39.3671 66.2566 39.01C66.2021 38.6529 65.4895 38.643 64.648 38.0329C64.0587 37.5911 63.5874 37.0107 63.2758 36.3433C63.0725 35.9366 62.5434 34.8736 62.8113 33.7758C63.1138 32.5392 64.2 32.1969 63.9917 31.653C63.8264 31.2381 63.1651 31.3406 62.1996 30.8264C61.5025 30.4235 60.9044 29.87 60.4488 29.2062C59.5527 27.8142 60.7149 24.8515 63.5734 22.3154L64.524 23.4727C61.9698 25.0797 60.9299 27.2157 61.5482 28.2886C62.0888 29.236 64.0181 29.5335 64.1686 29.555C64.7842 29.6448 65.4114 29.6139 66.0153 29.4641L66.5658 31.3025C65.7578 31.6018 65.0839 32.1807 64.6662 32.9343C64.4761 33.2914 63.957 34.2569 64.3537 35.3199C64.6728 36.1697 65.4118 36.6211 66.1178 37.0509C66.7226 37.421 67.3863 37.6849 68.0802 37.8312L68.4108 39.3092C66.9014 39.997 66.1128 41.1444 66.379 41.9545C66.5856 42.5827 67.4189 42.9646 67.9578 43.2126C68.5805 43.498 69.2568 43.6474 69.9418 43.6507" fill="#FF76B8"/>
<path d="M58.3612 49.7593L57.4701 50.9661C55.0993 49.8816 53.7205 48.0399 54.0396 46.5486C54.2992 45.3401 55.6482 44.487 56.0235 44.2456C57.8024 43.1214 59.2904 43.5529 59.5549 42.8288C59.7566 42.265 58.9366 41.7773 57.9727 40.4167C57.4767 39.719 56.2699 38.0096 56.1789 36.2455C56.0367 33.4664 58.7365 31.7503 58.0934 30.8014C57.647 30.1401 56.3509 30.9832 54.2826 30.3054C54.028 30.2211 51.8788 29.4887 51.6374 28.3017C51.3465 26.8402 53.9404 24.6645 58.0207 22.8955L58.4836 24.0776C55.6152 24.9191 53.4957 26.2268 53.5585 27.2287C53.6263 28.3083 56.2318 29.2886 60.0178 29.2787C60.0365 29.9951 60.0553 30.7115 60.074 31.428C59.7433 31.6892 57.356 33.5772 57.528 35.9695C57.6222 37.2921 58.4621 38.2361 59.5301 39.4281C60.4034 40.4022 61.425 41.2324 62.5572 41.8881L60.9668 44.5019C59.772 44.54 58.5931 44.7867 57.4833 45.231C56.4914 45.6311 55.7094 45.9419 55.5292 46.5354C55.2564 47.4315 56.417 48.7309 58.3546 49.7626" fill="#FF76B8"/>
<path d="M52.3289 24.4102L52.2677 23.2314C51.699 23.4513 50.4491 24.0333 49.7217 25.3575C49.4621 25.8287 49.2538 26.2073 49.2885 26.7082C49.3894 28.1697 51.4741 28.5996 51.3369 29.6262C51.2609 30.195 50.6988 30.1999 49.7233 31.2398C49.0802 31.9243 48.0535 33.0204 48.1726 34.2802C48.2817 35.449 49.3299 36.2641 49.6605 36.5154C50.7103 37.3254 51.4295 37.1089 51.5849 37.5701C51.9304 38.5985 48.366 39.6863 48.1709 41.9761C48.0717 43.1466 48.8554 44.5915 49.9085 45.266C50.7897 45.8281 51.5899 45.681 52.2049 46.5076C52.481 46.878 52.8662 47.6302 52.5769 48.06C52.1123 48.766 50.4491 47.6831 49.1629 48.556C48.3362 49.1165 48.1412 50.1597 48.0453 50.6656C47.7527 52.2081 48.4272 53.4463 48.6041 53.7687C49.6093 55.6121 51.9106 56.6718 54.4996 56.6239L54.8716 54.64C52.1784 54.8483 50.2805 53.5257 50.1548 52.2196C50.0771 51.4161 50.664 50.5664 51.3336 50.1101C51.7714 49.8207 52.2799 49.6562 52.8043 49.6343C53.3287 49.6125 53.8491 49.7341 54.3095 49.9861L54.1226 45.4545C52.2346 45.719 50.5318 44.4146 50.2739 42.7233C49.9961 40.8866 51.4874 39.0167 53.5638 38.9374L53.6878 36.8278C52.9726 36.6487 52.2989 36.3326 51.7039 35.897C51.1451 35.4854 50.2259 34.8092 50.1515 33.9726C50.0589 32.9162 51.3237 31.6581 53.3175 31.1175V29.3749C52.8699 29.2442 52.4494 29.0342 52.0759 28.755C51.6841 28.4607 50.7219 27.7366 50.7103 26.6454C50.7004 25.7394 51.3501 24.8649 52.3239 24.4102" fill="#FF76B8"/>
<path d="M63.7555 49.2965L64.3275 48.2632C61.2855 48.2632 60.2671 48.9344 59.9579 49.6304C59.4306 50.8175 60.854 52.3385 60.1481 53.1899C59.781 53.633 59.3016 53.337 57.9244 53.7024C57.0168 53.9421 55.5636 54.3273 54.9965 55.4582C54.4691 56.508 54.9287 57.7496 55.0742 58.143C55.5338 59.3863 56.2596 59.5847 56.1455 60.0575C55.8926 61.1139 52.2951 60.1451 50.9146 61.9836C50.2087 62.9226 50.1078 64.5643 50.6435 65.6935C51.0915 66.6375 51.8487 66.9367 51.9314 67.9634C51.9694 68.423 51.8901 69.2628 51.4238 69.4761C50.6551 69.8283 49.8202 68.0279 48.2661 68.0874C47.2742 68.1254 46.55 68.9057 46.1995 69.2843C45.1332 70.4416 45.0423 71.8452 45.0274 72.2122C44.9017 74.3069 46.2921 76.4264 48.5125 77.7589L49.8813 76.271C47.4874 75.0195 46.5748 72.8917 47.1667 71.7179C47.5271 70.9954 48.4728 70.5871 49.2862 70.5606C49.8116 70.547 50.3308 70.6771 50.7877 70.937C51.2445 71.1969 51.6217 71.5767 51.8785 72.0353L54.1302 68.0857C52.3893 67.3087 51.6371 65.3 52.3116 63.7294C53.049 62.0249 55.3057 61.2297 57.1061 62.2646L58.3311 60.5419C57.819 60.0108 57.4147 59.3853 57.1408 58.7002C56.8845 58.0538 56.4646 56.994 56.8449 56.2468C57.3276 55.3011 59.0635 54.9093 61.0425 55.5044L61.9633 54.0314C61.6537 53.6832 61.409 53.2823 61.2409 52.8477C61.0656 52.3897 60.6325 51.2655 61.2028 50.3347C61.6757 49.561 62.6908 49.1659 63.7555 49.2965Z" fill="#FF76B8"/>
<path d="M24.5733 89.651C27.0532 92.5756 33.2198 98.9902 43.4204 102.08C46.8063 103.105 58.1344 106.031 70.5123 100.544C78.686 96.922 83.5367 91.3109 85.7339 88.3945C85.1668 90.924 82.5712 101.125 72.8864 107.387C66.08 111.788 59.3049 111.958 56.2679 111.996C53.5598 112.029 44.3793 112.006 35.7394 105.433C28.3361 99.8003 25.5173 92.5376 24.5684 89.6527" fill="#FFC736"/>
</g>
<defs>
<clipPath id="clip0_64_3357">
<rect width="128" height="112" fill="white"/>
</clipPath>
</defs>
</svg>
