<svg xmlns="http://www.w3.org/2000/svg" viewBox="0 0 680.31 680.31">
  <defs>
    <style>
      .cls-1 {
        fill: #2b2c2b;
      }

      .cls-2 {
        fill: none;
        stroke: #ffc936;
        stroke-miterlimit: 10;
        stroke-width: 20px;
      }
    </style>
  </defs>
  <title>RefreshCr</title>
  <g id="rysunki">
    <g>
      <path class="cls-1" d="M292.1,596.65c-79.79,12.62-164.78-21.09-216.91-86S5.56,351.72,30.52,270.81c15.6-50.58,48.52-96.25,92.15-123C154.19,128.49,217,116.65,217,116.65c.33-18.51-2.34-51.13-2.82-69.64,49,32.65,97.13,59.21,155.3,82.57L230.31,238.45,226,174.18c-42.83,6-83.11,38.83-101.45,80.1s-16.34,91.58,4,131.79c28.72,56.82,93,84.2,159.37,84.2Z"/>
      <path class="cls-2" d="M292.1,596.65c-79.79,12.62-164.78-21.09-216.91-86S5.56,351.72,30.52,270.81c15.6-50.58,48.52-96.25,92.15-123C154.19,128.49,217,116.65,217,116.65c.33-18.51-2.34-51.13-2.82-69.64,49,32.65,97.13,59.21,155.3,82.57L230.31,238.45,226,174.18c-42.83,6-83.11,38.83-101.45,80.1s-16.34,91.58,4,131.79c28.72,56.82,93,84.2,159.37,84.2Z"/>
    </g>
    <g>
      <path class="cls-1" d="M397.76,65.33c78.42-12.91,162.13,20.48,213.65,85.23S680.49,309.2,656.25,390.2c-15.15,50.63-47.36,96.43-90.17,123.34C535.15,533,473.43,545,473.43,545c-.25,18.51,2.49,51.12,3,69.62-48.3-32.47-95.75-58.85-153-82L459.88,423.3l4.52,64.25c42.1-6.19,81.6-39.14,99.47-80.47s15.73-91.64-4.41-131.78C531,218.6,467.67,191.45,402.41,191.69Z"/>
      <path class="cls-2" d="M397.76,65.33c78.42-12.91,162.13,20.48,213.65,85.23S680.49,309.2,656.25,390.2c-15.15,50.63-47.36,96.43-90.17,123.34C535.15,533,473.43,545,473.43,545c-.25,18.51,2.49,51.12,3,69.62-48.3-32.47-95.75-58.85-153-82L459.88,423.3l4.52,64.25c42.1-6.19,81.6-39.14,99.47-80.47s15.73-91.64-4.41-131.78C531,218.6,467.67,191.45,402.41,191.69Z"/>
    </g>
  </g>
</svg>
