<svg xmlns="http://www.w3.org/2000/svg" viewBox="0 0 680.31 680.31">
  <defs>
    <style>
      .cls-1 {
        fill: #f177ae;
        stroke: #ffc936;
        stroke-miterlimit: 10;
        stroke-width: 20px;
      }
    </style>
  </defs>
  <title>Refresh</title>
  <g id="rysunki">
    <path class="cls-1" d="M289.11,596.65c-79.79,12.62-164.78-21.09-216.91-86S2.57,351.72,27.52,270.81c15.6-50.58,48.52-96.25,92.15-123C151.2,128.49,214,116.65,214,116.65c.33-18.51-2.34-51.13-2.82-69.64,49,32.65,97.13,59.21,155.3,82.57L227.31,238.45,223,174.18c-42.83,6-83.11,38.83-101.45,80.1s-16.34,91.58,4,131.79c28.72,56.82,93,84.2,159.37,84.2Z"/>
    <path class="cls-1" d="M394.77,65.33c78.42-12.91,162.13,20.48,213.65,85.23S677.5,309.2,653.25,390.2c-15.15,50.63-47.36,96.43-90.17,123.34C532.15,533,470.44,545,470.44,545c-.25,18.51,2.49,51.12,3,69.62-48.3-32.47-95.75-58.85-153-82L456.88,423.3l4.52,64.25c42.1-6.19,81.6-39.14,99.47-80.47s15.73-91.64-4.41-131.78C528,218.6,464.68,191.45,399.41,191.69Z"/>
  </g>
</svg>
