<svg width="128" height="112" viewBox="0 0 128 112" fill="none" xmlns="http://www.w3.org/2000/svg">
<g clip-path="url(#clip0_64_3607)">
<path d="M60.6352 37.6244C60.042 41.7034 57.0246 44.1967 54.1432 46.3221C48.425 50.5282 44.2033 55.1335 37.1939 54.0608C30.3651 53.0171 18.3981 51.8038 11.5113 50.4256C8.61207 49.8458 7.61073 48.6415 5.88458 46.2418C4.15842 43.8421 3.9644 40.76 4.00454 37.8385C4.06699 33.0838 4.62676 28.3514 5.1843 23.6279C5.57012 20.3741 5.97155 17.0578 7.35426 14.0872C9.15623 10.2179 12.5082 7.23616 16.2326 5.15318C21.9463 1.95512 28.5765 0.692844 35.1221 0.521121C41.6676 0.349398 48.1886 1.25485 54.674 2.14691C57.0424 2.47252 59.6673 2.94308 61.1036 4.85434C62.2186 6.32848 62.319 8.29995 62.3547 10.1421C62.5334 19.3344 61.9583 28.526 60.6352 37.6244Z" fill="#FFC736"/>
<path d="M9.18773 18.9402C9.21123 17.9224 9.54624 16.9363 10.1476 16.1148C10.7489 15.2933 11.5877 14.676 12.5508 14.346C13.9491 13.9 14.616 14.0673 16.07 14.2791L39.5046 17.6957C41.2776 17.9544 43.2134 18.3001 44.3686 19.6672C45.4525 20.9518 45.5417 22.7894 45.5283 24.4621C45.4797 31.4409 44.6296 38.391 42.9949 45.1759C42.6447 46.6299 42.1808 48.1911 40.9721 49.0697C39.7031 49.9908 37.9881 49.8949 36.427 49.7589C28.4497 49.0586 20.4322 48.3003 12.698 46.2285C11.0588 45.7825 9.31262 45.2071 8.32912 43.8244C7.28763 42.3592 7.3813 40.4033 7.51734 38.6103C8.0102 32.1205 8.69264 25.43 9.18773 18.9402Z" fill="#FF76B8"/>
<path d="M29.7513 24.052C26.9168 24.1077 25.737 21.3624 23.3619 20.4837C22.4498 20.1425 21.3726 20.0979 20.5229 20.6376C19.5907 21.2308 19.3476 22.2924 19.1491 23.2982C18.9402 24.4981 18.4754 25.639 17.7865 26.6434C17.0059 27.7429 15.8663 28.4699 14.9832 29.4713C13.5135 31.1394 13.2682 33.383 15.1125 34.8527C16.0202 35.5775 16.8966 36.0547 17.5077 37.1051C18.1188 38.1555 18.5871 39.1457 19.5751 39.9062C21.4863 41.3737 24.2361 41.7506 26.5533 42.0896C29.0065 42.4486 31.5689 42.3839 33.6898 40.9455C35.6606 39.6073 37.1216 37.6427 37.8357 35.3701C38.5315 33.0172 38.0721 30.2161 36.1987 28.5123C35.1037 27.5176 33.7701 27.0582 32.8133 25.8807C31.9993 24.8771 31.1496 23.9851 29.7536 24.0586C28.7767 24.1099 28.7723 25.6331 29.7536 25.5819C30.94 25.5194 31.4753 26.7505 32.18 27.4976C32.8847 28.2447 33.8727 28.6796 34.7291 29.2817C36.4062 30.4659 36.928 32.6827 36.4597 34.6096C35.8851 36.7648 34.5152 38.6223 32.626 39.8081C30.6858 41.0057 28.3396 40.8607 26.1808 40.4771C24.283 40.1448 21.9435 39.8661 20.4025 38.6127C18.9997 37.4753 18.6897 35.5574 17.1932 34.4468C16.5242 33.9561 15.5295 33.5123 15.311 32.6403C14.9965 31.3847 16.241 30.3031 17.0617 29.5694C18.4622 28.316 19.5884 26.9824 20.233 25.1893C20.5497 24.2973 20.4939 22.6737 21.212 22.018C22.2089 21.1081 23.6853 22.3392 24.4123 22.9993C25.9065 24.3597 27.6327 25.6153 29.7647 25.5729C30.7304 25.5506 30.7326 24.0252 29.7513 24.052Z" fill="#FFC736"/>
<path d="M43.4649 9.82308C43.001 10.0171 42.1067 10.7754 41.7565 11.1367C41.4064 11.4979 41.2481 12.1068 41.5514 12.5082C41.7744 12.7959 42.1468 12.8985 42.4992 12.9743C43.6012 13.2139 44.7193 13.3727 45.8444 13.4493C46.6272 13.5029 47.468 13.5363 48.0947 14.0091C48.7637 14.5154 49.0157 15.3963 49.1741 16.2237C49.4743 17.7957 49.5896 19.3974 49.5175 20.9962C49.4644 21.3774 49.5097 21.7659 49.6491 22.1247C49.9145 22.651 50.5635 22.8629 51.1545 22.8896C53.1482 22.9788 54.8566 21.5984 56.6117 20.6461C57.4168 20.2001 58.1304 20.0239 58.6322 19.2589C59.027 18.6568 59.1206 17.9208 59.1853 17.1938C59.3258 15.6327 59.5555 13.8641 59.5265 12.303C59.502 11.0318 59.3972 9.68927 58.6746 8.64109C58.0805 7.84316 57.2515 7.25125 56.3039 6.94839C55.3608 6.65018 54.3892 6.45136 53.4047 6.35517C52.1469 6.18791 50.8556 6.02064 49.6134 6.31503C48.476 6.58711 47.468 7.23386 46.4912 7.87614L43.4649 9.82308Z" fill="#FF76B8"/>
<path d="M16.6601 35.8713C17.2877 36.5194 18.0664 37.0013 18.9263 37.2738C19.7862 37.5462 20.7003 37.6008 21.5866 37.4325C22.6013 37.2273 23.4131 36.5761 24.3899 36.2862C25.6499 35.9137 26.9457 36.4713 28.2035 36.6073C32.3337 37.0533 35.7727 33.4851 35.3802 29.4016C35.2865 28.4337 33.7611 28.4248 33.8569 29.4016C34.0309 31.2148 33.3975 33.0279 31.8966 34.1363C30.3355 35.296 28.6584 35.1711 26.8453 34.8254C25.2128 34.5154 24.0397 34.7384 22.5611 35.4454C20.8729 36.2527 19.1088 36.1813 17.7373 34.7964C17.0459 34.0984 15.9688 35.1755 16.6601 35.8736V35.8713Z" fill="#FFC736"/>
<path d="M16.561 29.9907C18.0374 29.0986 19.8327 30.4902 21.1351 31.079C22.665 31.7703 23.9451 31.6053 25.4282 30.8961C26.2446 30.4735 27.1207 30.178 28.0263 30.0197C28.8582 29.8903 29.7034 29.8212 30.4795 29.48C31.715 28.9403 32.7097 27.8163 32.5803 26.4046C32.4866 25.4367 30.9612 25.4277 31.0571 26.4046C31.2377 28.2801 28.6998 28.3582 27.4286 28.5767C26.7506 28.6918 26.0907 28.8957 25.4661 29.1833C24.661 29.5513 23.876 30.0754 22.9549 30.0308C21.5923 29.955 20.4504 28.8622 19.1636 28.4697C18.0485 28.1307 16.813 28.0482 15.7894 28.6749C14.9531 29.1856 15.718 30.5036 16.5588 29.9907H16.561Z" fill="#FFC736"/>
<path d="M19.9255 25.3897C21.2636 25.0819 22.546 26.0721 23.9175 25.8357C24.4826 25.7325 25.0136 25.4923 25.4643 25.1362C25.9149 24.78 26.2713 24.3188 26.5023 23.7929C26.9015 22.9008 25.5879 22.1292 25.1865 23.0235C24.0714 25.5057 21.4755 23.4695 19.5196 23.9156C18.5651 24.1386 18.9688 25.606 19.9255 25.3852V25.3897Z" fill="#FFC736"/>
<path d="M119.249 43.269C118.253 46.7057 116.694 49.7856 115.697 53.2223C115.402 54.2348 115.095 55.2763 114.437 56.0992C113.063 57.8164 110.625 58.1063 108.551 58.8468C105.833 59.8102 103.38 61.7281 100.507 61.795C99.2114 61.8263 97.9045 61.4672 96.6266 61.688C95.3487 61.9088 94.2202 62.6938 93.0383 63.267C91.7043 63.9173 90.2587 64.3079 88.7786 64.4177C87.6212 64.5002 86.4325 64.4177 85.3263 64.7656C84.1376 65.1425 83.1631 65.9878 82.077 66.6033C79.829 67.8745 77.1706 68.1287 74.6349 68.6104C72.0992 69.0922 69.4319 69.9307 67.844 71.9668C67.2307 72.7541 66.8115 73.6818 66.1826 74.4579C63.8253 77.3572 60.373 76.8041 57.1102 77.2523C54.1174 77.6627 51.1401 79.8616 49.6972 82.4776C48.3167 84.9799 49.7351 88.2894 51.1847 90.5062C51.4392 90.9514 51.7982 91.3279 52.2306 91.6035C52.7681 91.9001 53.4171 91.9001 54.0281 91.8265C56.5995 91.5522 59.075 90.252 61.6419 90.5598C63.2655 90.7538 64.7642 91.5834 66.3989 91.7306C68.8119 91.9536 71.1001 90.6579 73.0336 89.1971C74.9672 87.7364 76.7937 86.0325 79.0685 85.2007C82.135 84.0856 85.8125 84.623 88.4553 82.7029C89.2024 82.1609 89.8223 81.4428 90.623 80.9812C92.7238 79.768 95.5628 80.5619 97.6346 79.3063C98.6739 78.6752 99.3742 77.6092 100.351 76.8866C103.324 74.6854 108.123 76.0882 110.71 73.4432C111.812 72.3281 112.242 70.6756 113.286 69.4958C115.721 66.7438 120.681 67.2657 122.773 64.246C123.899 62.6158 123.797 60.4346 123.331 58.5078C122.865 56.5809 122.082 54.7165 121.993 52.7316C121.919 51.1995 122.262 49.6674 122.187 48.1353C122.111 46.6031 120.646 43.9002 119.249 43.269Z" fill="#FFC736"/>
<path d="M38.6406 86.3179C36.2053 95.5687 27.637 101.626 24.8693 110.776C24.5594 111.802 25.5674 112.703 26.5531 112.46C28.4956 111.978 29.5126 110.377 31.0848 109.318C32.869 108.118 35.0188 110.034 36.9524 109.987C41.6915 109.877 43.8815 103.762 45.3691 100.161C46.3955 97.6697 47.2385 95.1071 47.8914 92.4933C48.5404 89.8996 49.0265 87.2189 50.097 84.7546C50.9712 82.7474 52.296 80.7893 54.2094 79.6497C55.9936 78.5859 58.1212 78.4321 60.135 78.1756C62.238 77.9057 64.4281 77.569 66.1921 76.3C68.0409 74.9619 68.8839 72.6225 70.8978 71.5208C72.6262 70.5774 74.7359 70.4481 76.6427 70.1135C78.797 69.7344 80.7551 69.0832 82.4701 67.6893C83.3912 66.94 84.0312 66.4271 85.2779 66.4404C86.6026 66.4561 87.8181 66.5921 89.1138 66.2174C91.1856 65.6064 92.8716 64.2103 94.8676 63.4342C97.2941 62.4997 99.861 63.6706 102.325 62.9502C104.428 62.3369 105.746 60.497 107.72 59.6875C108.782 59.2548 109.961 59.4221 111.079 59.3017C112.237 59.2148 113.339 58.7671 114.23 58.0216C116.014 56.4738 116.627 53.8601 117.39 51.728C118.262 49.2904 119.257 46.864 119.979 44.3685C120.55 42.397 120.871 40.1311 119.979 38.2087C118.991 36.0945 116.893 35.4835 114.754 35.1266C112.615 34.7698 111.094 33.7885 109.451 32.3858C107.89 31.0477 106.284 29.6605 104.279 29.0405C101.957 28.3202 99.5755 28.9223 97.3298 29.6137C96.1901 29.9638 95.026 30.3675 93.8373 30.5057C92.5104 30.6663 91.1745 30.4745 89.8654 30.2827C87.3252 29.8991 84.8319 29.6137 82.43 30.7288C80.4496 31.6632 78.9465 33.3224 77.0464 34.384C74.9879 35.5325 72.5414 35.7221 70.4518 36.855C66.6181 38.9179 64.1538 42.6668 61.085 45.6218C57.6774 48.9202 52.6818 50.4591 49.8562 54.3819C49.2162 55.3158 48.7989 56.3839 48.6362 57.5042C48.4511 58.5256 48.1902 59.3151 47.4297 60.051C46.0604 61.3891 44.2183 62.1496 42.7464 63.3539C39.0777 66.3468 39.7 71.0034 38.1924 75.0377C36.6848 79.0721 32.6348 81.5052 29.0018 83.3763C25.0767 85.408 20.9175 87.123 17.6726 90.2185C16.1821 91.6406 15.0048 93.358 14.2158 95.2609C13.7809 96.2935 15.0008 97.1454 15.8996 96.9447C17.9536 96.483 20.0076 96.0125 22.0638 95.5598C22.1798 95.533 23.0607 95.4906 23.1387 95.4371C23.3484 95.5352 23.3335 95.4549 23.0941 95.1962C22.9796 94.8112 22.851 94.8201 22.7083 95.223C22.3649 95.4639 22.0504 96.0972 21.8162 96.4384C21.5196 96.8555 21.2275 97.277 20.9621 97.7141C20.0901 99.1525 19.4144 100.801 19.5236 102.511C19.6374 104.269 20.7636 105.995 22.7262 105.187C23.5491 104.846 24.1691 104.104 24.7935 103.49L27.2668 101.064L31.6223 96.7841C34.7237 93.7347 37.8274 90.6868 40.9332 87.6404C42.1933 86.4071 40.2642 84.4714 38.9975 85.7046C35.9942 88.6455 32.9946 91.59 29.9987 94.5383L25.641 98.8203L23.4733 100.946C23.0629 101.347 22.6615 101.76 22.2422 102.152C22.0635 102.346 21.8663 102.523 21.6534 102.678C22.2035 103.046 22.4169 103.046 22.2935 102.678C22.3916 102.375 22.2444 101.811 22.3069 101.456C22.4023 100.978 22.5598 100.514 22.7752 100.076C23.1723 99.2796 23.6411 98.5212 24.1758 97.81C25.0678 96.5722 26.4528 95 25.1414 93.5325C24.1802 92.4576 22.6057 92.6405 21.3501 92.9125C19.2939 93.3586 17.2399 93.8358 15.186 94.2975L16.8697 95.9813C18.4955 92.1141 22.3782 89.7948 25.9376 87.9526C29.6865 86.0146 33.6005 84.3643 36.7985 81.5342C38.3114 80.2346 39.5372 78.6344 40.398 76.8353C41.2767 74.9062 41.5666 72.8589 41.9591 70.7937C42.3383 68.7866 42.8512 66.8352 44.4792 65.4614C45.8753 64.2816 47.5791 63.5234 48.9819 62.3392C49.6315 61.8056 50.1774 61.1569 50.5921 60.4257C51.1719 59.3597 51.1786 58.2178 51.531 57.0804C52.2001 54.9528 54.5462 53.501 56.3147 52.3658C58.275 51.108 60.2956 49.9506 62.0663 48.4229C63.6274 47.0848 64.9655 45.5237 66.3549 43.9916C67.693 42.5063 69.0824 40.9875 70.7528 39.8613C72.6842 38.5589 74.8675 38.2243 76.9973 37.3947C79.0602 36.5896 80.6012 35.111 82.4077 33.8911C84.5553 32.4393 86.6762 32.5107 89.1629 32.8876C91.6495 33.2645 93.9644 33.3916 96.4399 32.7114C98.5675 32.1271 100.9 31.0098 103.13 31.5294C105.008 31.962 106.46 33.3938 107.892 34.5936C109.375 35.8381 110.943 37.0156 112.852 37.4929C114.636 37.9389 117.312 37.7315 117.74 40.0375C118.122 42.0446 117.172 44.1834 116.514 46.0255C115.608 48.5567 114.761 51.117 113.793 53.6237C113.463 54.4801 113.044 55.4636 112.296 56.0412C111.353 56.7682 109.988 56.5407 108.88 56.6344C106.63 56.824 105.16 58.0015 103.398 59.2727C102.47 59.9417 101.583 60.3878 100.421 60.4301C99.1652 60.4681 97.9185 60.1915 96.6607 60.2495C94.5153 60.3476 92.7044 61.3646 90.8623 62.3771C90.0148 62.8499 89.1651 63.3249 88.224 63.5791C86.9795 63.9159 85.724 63.5791 84.4617 63.6862C82.1401 63.8824 80.9804 65.8093 78.9665 66.6479C77.1044 67.4239 75.0191 67.5399 73.0588 67.9213C71.0985 68.3026 69.1672 69.0163 67.7287 70.4614C66.2434 71.9534 65.4428 73.8959 63.3554 74.6988C61.4396 75.4258 59.3188 75.4637 57.3138 75.7782C55.2732 76.0971 53.3664 76.7416 51.725 78.0284C47.9159 81.0146 46.6603 85.834 45.5898 90.3278C44.4145 95.2475 42.8423 100.364 40.1282 104.674C39.0733 106.352 37.733 107.645 35.6678 106.98C33.6339 106.327 31.8096 105.629 29.8181 106.853C28.4376 107.703 27.4452 109.389 25.8283 109.79L27.5121 111.474C30.273 102.346 38.8324 96.3247 41.2834 87.016C41.7272 85.3411 39.0889 84.6141 38.6406 86.3179Z" fill="#FFC736"/>
<path d="M110.729 36.2302C108.63 39.2306 107.321 42.7123 106.925 46.3529C106.503 50.3003 108.064 54.5711 106.588 58.3512C106.325 59.0203 107.404 59.308 107.663 58.6479C109.072 55.0595 107.75 51.1924 107.951 47.4792C108.177 43.6385 109.472 39.9376 111.691 36.7944C112.103 36.2057 111.135 35.6459 110.727 36.2324L110.729 36.2302Z" fill="#FFC736"/>
<path d="M91.5128 32.6981C90.9196 37.5331 90.5917 42.464 91.5306 47.2789C91.999 49.6852 92.9535 51.8931 93.705 54.2103C94.4566 56.5274 94.8313 59.1545 93.4151 61.329C93.0226 61.9311 93.9883 62.4909 94.3786 61.891C97.1596 57.618 94.0708 52.8231 92.9646 48.5635C91.6265 43.385 91.9834 37.9523 92.6301 32.6981C92.7171 31.9866 91.602 31.9933 91.515 32.6981H91.5128Z" fill="#FFC736"/>
<path d="M73.75 37.7626C73.0029 39.9192 74.031 42.02 74.9053 43.9714C75.9757 46.3599 77.0953 48.7328 78.5806 50.8983C80.0012 52.9657 81.6315 54.8992 82.4477 57.3123C83.2785 59.7864 83.3722 62.4487 82.7175 64.9751C82.5414 65.6709 83.6096 65.9675 83.7925 65.2717C84.999 60.5215 83.6854 56.128 80.8933 52.223C79.4 50.1999 78.0866 48.05 76.9682 45.7979C75.9021 43.5856 73.9552 40.5749 74.825 38.0592C75.0591 37.3902 73.9842 37.0869 73.75 37.7626Z" fill="#FFC736"/>
<path d="M61.8359 47.5955C61.9296 49.6852 62.4069 51.7436 62.951 53.7597C63.3971 55.4814 64.0393 57.1049 65.2146 58.4765C66.4903 59.9551 68.1429 61.0568 69.162 62.7562C70.2633 64.6043 70.6808 66.7803 70.3418 68.9048C70.2325 69.6073 71.3052 69.9083 71.4167 69.2014C72.0167 65.3878 70.567 62.0648 67.8083 59.4778C66.1915 57.9569 64.947 56.5296 64.2802 54.3641C63.6134 52.1986 63.0625 49.8703 62.9599 47.5955C62.9287 46.8819 61.8136 46.8774 61.8449 47.5955H61.8359Z" fill="#FFC736"/>
<path d="M49.9893 59.8478C49.6698 62.5491 50.3006 65.2773 51.7734 67.5642C52.5406 68.744 53.4684 69.7944 54.1486 71.0366C54.9151 72.4538 55.4361 73.9905 55.6896 75.5816C55.8078 76.2886 56.8827 75.9875 56.7645 75.285C56.2917 72.4884 55.0518 70.2047 53.397 67.9411C51.6418 65.5325 50.7632 62.8563 51.1044 59.8478C51.1847 59.1364 50.0696 59.1409 49.9893 59.8478Z" fill="#FFC736"/>
<path d="M54.541 86.418C55.6182 85.1981 57.0165 84.4956 58.5375 83.9648C58.9322 83.8288 60.5892 83.0995 60.9014 83.4474C61.1066 83.6704 59.7596 85.178 59.5633 85.4189C58.4482 86.757 60.3706 88.7106 61.4991 87.3547C62.4648 86.1928 63.8475 84.7788 63.6847 83.1464C63.533 81.6187 62.0633 80.6553 60.6026 80.6731C59.1418 80.6909 57.5383 81.3689 56.2002 81.9577C54.8312 82.5284 53.6041 83.3925 52.6052 84.4889C51.4433 85.8047 53.3724 87.7472 54.541 86.4247V86.418Z" fill="#FF76B8"/>
<path d="M72.6496 77.7982C73.5932 76.6982 74.7444 75.7948 76.0372 75.1398C76.6961 74.7607 77.389 74.4442 78.1068 74.1943C78.9989 73.9177 80.9369 73.8887 80.5979 75.4409C80.4463 76.1412 81.5212 76.44 81.6729 75.7375C82.159 73.5074 79.8307 72.5595 77.9953 73.0613C75.6119 73.7545 73.4807 75.1242 71.8601 77.0043C71.4141 77.5529 72.1902 78.3424 72.6496 77.7937V77.7982Z" fill="#FF76B8"/>
<path d="M81.6186 77.899C81.0789 80.8875 85.3987 80.6778 87.2676 80.1894C89.6762 79.5605 91.6521 77.7006 92.2275 75.2541C92.6311 73.5413 89.9973 72.8009 89.5892 74.527C89.4562 75.1189 89.1892 75.6723 88.8088 76.1448C88.4283 76.6173 87.9446 76.9962 87.3947 77.2523C86.8489 77.5025 86.2629 77.6536 85.6641 77.6983C85.3026 77.7274 84.9394 77.7274 84.578 77.6983L84.2234 77.6649C83.8041 77.5162 83.7558 77.5638 84.0784 77.8076L84.2167 78.8625L84.2613 78.6194C84.5713 76.8977 81.9352 76.1662 81.623 77.8924L81.6186 77.899Z" fill="#FF76B8"/>
<path d="M87.0055 71.844C88.4746 71.0736 89.6574 69.8517 90.3798 68.3583C90.6987 67.6892 90.5649 66.8819 89.8891 66.4872C89.2914 66.137 88.328 66.3088 88.018 66.9778C87.5223 68.0564 86.6799 68.938 85.625 69.4823C84.0639 70.3008 85.4466 72.6648 87.0055 71.8463V71.844Z" fill="#FF76B8"/>
<path d="M96.6128 69.8969C97.2818 68.6703 98.1538 67.5129 99.4072 66.8282C100.05 66.4563 100.773 66.2423 101.515 66.2038C102.679 66.1726 103.225 67.0401 102.378 67.9322C101.883 68.4518 102.67 69.2413 103.167 68.7216C104.706 67.1025 103.727 65.0173 101.517 65.0887C98.863 65.1757 96.8625 67.1293 95.6538 69.326C95.3081 69.9549 96.2715 70.5192 96.6172 69.888L96.6128 69.8969Z" fill="#FF76B8"/>
<path d="M104.406 73.4364C106.156 73.0929 107.807 72.3646 109.241 71.3044C109.839 70.8584 110.133 70.1246 109.732 69.4333C109.397 68.8445 108.452 68.5033 107.861 68.9427C106.626 69.872 105.196 70.5073 103.679 70.8004C101.953 71.1416 102.684 73.7799 104.406 73.4387V73.4364Z" fill="#FF76B8"/>
<path d="M117.207 58.3425C117.548 58.2867 117.706 58.7885 117.722 59.0271C117.76 59.5423 117.432 60.0374 117.113 60.4032C116.444 61.1659 115.536 61.6944 114.642 62.1449C113.07 62.9389 114.452 65.3006 116.022 64.5089C117.998 63.512 120.13 61.9152 120.414 59.5579C120.697 57.2006 118.83 55.3206 116.475 55.7042C114.74 55.9852 115.476 58.6213 117.202 58.3425H117.207Z" fill="#FF76B8"/>
</g>
<defs>
<clipPath id="clip0_64_3607">
<rect width="128" height="112" fill="white"/>
</clipPath>
</defs>
</svg>
