<svg width="681" height="681" viewBox="0 0 681 681" fill="none" xmlns="http://www.w3.org/2000/svg">
<path d="M344.339 276.86C341.679 295.15 328.149 306.33 315.229 315.86C289.589 334.72 270.659 355.37 239.229 350.56C208.609 345.88 154.949 340.44 124.069 334.26C111.069 331.66 106.579 326.26 98.839 315.5C91.099 304.74 90.2291 290.92 90.4091 277.82C90.6891 256.5 93.199 235.28 95.699 214.1C97.429 199.51 99.229 184.64 105.429 171.32C113.509 153.97 128.539 140.6 145.239 131.26C170.859 116.92 200.589 111.26 229.939 110.49C259.289 109.72 288.529 113.78 317.609 117.78C328.229 119.24 339.999 121.35 346.439 129.92C351.439 136.53 351.889 145.37 352.049 153.63C352.85 194.848 350.272 236.063 344.339 276.86Z" fill="#2B2C2B"/>
<path d="M113.65 193.08C113.755 188.516 115.257 184.095 117.954 180.411C120.65 176.728 124.411 173.959 128.73 172.48C135 170.48 137.99 171.23 144.51 172.18L249.59 187.5C257.54 188.66 266.22 190.21 271.4 196.34C276.26 202.1 276.66 210.34 276.6 217.84C276.382 249.133 272.57 280.297 265.24 310.72C263.67 317.24 261.59 324.24 256.17 328.18C250.48 332.31 242.79 331.88 235.79 331.27C200.02 328.13 164.07 324.73 129.39 315.44C122.04 313.44 114.21 310.86 109.8 304.66C105.13 298.09 105.55 289.32 106.16 281.28C108.37 252.18 111.43 222.18 113.65 193.08Z" fill="white"/>
<path d="M205.85 216C193.14 216.25 187.85 203.94 177.2 200C173.11 198.47 168.28 198.27 164.47 200.69C160.29 203.35 159.2 208.11 158.31 212.62C157.373 218 155.289 223.116 152.2 227.62C148.7 232.55 143.59 235.81 139.63 240.3C133.04 247.78 131.94 257.84 140.21 264.43C144.28 267.68 148.21 269.82 150.95 274.53C153.69 279.24 155.79 283.68 160.22 287.09C168.79 293.67 181.12 295.36 191.51 296.88C202.51 298.49 214 298.2 223.51 291.75C232.347 285.75 238.898 276.94 242.1 266.75C245.22 256.2 243.16 243.64 234.76 236C229.85 231.54 223.87 229.48 219.58 224.2C215.93 219.7 212.12 215.7 205.86 216.03C201.48 216.26 201.46 223.09 205.86 222.86C211.18 222.58 213.58 228.1 216.74 231.45C219.9 234.8 224.33 236.75 228.17 239.45C235.69 244.76 238.03 254.7 235.93 263.34C233.353 273.004 227.211 281.333 218.74 286.65C210.04 292.02 199.52 291.37 189.84 289.65C181.33 288.16 170.84 286.91 163.93 281.29C157.64 276.19 156.25 267.59 149.54 262.61C146.54 260.41 142.08 258.42 141.1 254.51C139.69 248.88 145.27 244.03 148.95 240.74C155.23 235.12 160.28 229.14 163.17 221.1C164.59 217.1 164.34 209.82 167.56 206.88C172.03 202.8 178.65 208.32 181.91 211.28C188.61 217.38 196.35 223.01 205.91 222.82C210.24 222.72 210.25 215.88 205.85 216Z" fill="#F04B24"/>
<path d="M267.35 152.2C265.27 153.07 261.26 156.47 259.69 158.09C258.12 159.71 257.41 162.44 258.77 164.24C259.77 165.53 261.44 165.99 263.02 166.33C267.961 167.404 272.974 168.116 278.02 168.46C281.53 168.7 285.3 168.85 288.11 170.97C291.11 173.24 292.24 177.19 292.95 180.9C294.296 187.949 294.813 195.131 294.49 202.3C294.252 204.009 294.455 205.751 295.08 207.36C296.27 209.72 299.18 210.67 301.83 210.79C310.77 211.19 318.43 205 326.3 200.73C329.91 198.73 333.11 197.94 335.36 194.51C337.13 191.81 337.55 188.51 337.84 185.25C338.47 178.25 339.5 170.32 339.37 163.32C339.26 157.62 338.79 151.6 335.55 146.9C332.886 143.322 329.169 140.668 324.92 139.31C320.691 137.973 316.334 137.081 311.92 136.65C306.28 135.9 300.49 135.15 294.92 136.47C289.82 137.69 285.3 140.59 280.92 143.47L267.35 152.2Z" fill="#6ABD45"/>
<path d="M147.158 269C149.972 271.906 153.464 274.066 157.32 275.288C161.176 276.51 165.275 276.755 169.248 276C173.798 275.08 177.438 272.16 181.818 270.86C187.468 269.19 193.278 271.69 198.918 272.3C217.438 274.3 232.858 258.3 231.098 239.99C230.678 235.65 223.838 235.61 224.268 239.99C225.048 248.12 222.208 256.25 215.478 261.22C208.478 266.42 200.958 265.86 192.828 264.31C185.508 262.92 180.248 263.92 173.618 267.09C166.048 270.71 158.138 270.39 151.988 264.18C148.888 261.05 144.058 265.88 147.158 269.01V269Z" fill="#F04B24"/>
<path d="M146.709 242.63C153.329 238.63 161.379 244.87 167.219 247.51C174.079 250.61 179.819 249.87 186.469 246.69C190.129 244.795 194.058 243.47 198.119 242.76C201.849 242.18 205.639 241.87 209.119 240.34C214.659 237.92 219.119 232.88 218.539 226.55C218.119 222.21 211.279 222.17 211.709 226.55C212.519 234.96 201.139 235.31 195.439 236.29C192.398 236.806 189.439 237.72 186.639 239.01C183.029 240.66 179.509 243.01 175.379 242.81C169.269 242.47 164.149 237.57 158.379 235.81C153.379 234.29 147.839 233.92 143.249 236.73C139.499 239.02 142.929 244.93 146.699 242.63H146.709Z" fill="#F04B24"/>
<path d="M161.799 222C167.799 220.62 173.549 225.06 179.699 224C182.233 223.537 184.614 222.46 186.635 220.863C188.655 219.266 190.253 217.198 191.289 214.84C193.079 210.84 187.189 207.38 185.389 211.39C180.389 222.52 168.749 213.39 159.979 215.39C155.699 216.39 157.509 222.97 161.799 221.98V222Z" fill="#F04B24"/>
<path d="M607.159 302.17C602.689 317.58 595.699 331.39 591.229 346.8C589.909 351.34 588.529 356.01 585.579 359.7C579.419 367.4 568.489 368.7 559.189 372.02C546.999 376.34 535.999 384.94 523.119 385.24C517.309 385.38 511.449 383.77 505.719 384.76C499.989 385.75 494.929 389.27 489.629 391.84C483.648 394.756 477.166 396.507 470.529 397C465.339 397.37 460.009 397 455.049 398.56C449.719 400.25 445.349 404.04 440.479 406.8C430.399 412.5 418.479 413.64 407.109 415.8C395.739 417.96 383.779 421.72 376.659 430.85C373.909 434.38 372.029 438.54 369.209 442.02C358.639 455.02 343.159 452.54 328.529 454.55C315.109 456.39 301.759 466.25 295.289 477.98C289.099 489.2 295.459 504.04 301.959 513.98C303.101 515.976 304.71 517.664 306.649 518.9C309.059 520.23 311.969 520.23 314.709 519.9C326.239 518.67 337.339 512.84 348.849 514.22C356.129 515.09 362.849 518.81 370.179 519.47C380.999 520.47 391.259 514.66 399.929 508.11C408.599 501.56 416.789 493.92 426.989 490.19C440.739 485.19 457.229 487.6 469.079 478.99C472.429 476.56 475.209 473.34 478.799 471.27C488.219 465.83 500.949 469.39 510.239 463.76C514.899 460.93 518.039 456.15 522.419 452.91C535.749 443.04 557.269 449.33 568.869 437.47C573.809 432.47 575.739 425.06 580.419 419.77C591.339 407.43 613.579 409.77 622.959 396.23C628.009 388.92 627.549 379.14 625.459 370.5C623.369 361.86 619.859 353.5 619.459 344.6C619.129 337.73 620.669 330.86 620.329 323.99C619.989 317.12 613.419 305 607.159 302.17Z" fill="#2B2C2B"/>
<path d="M245.709 495.2C234.789 536.68 196.369 563.84 183.959 604.87C182.569 609.47 187.089 613.51 191.509 612.42C200.219 610.26 204.779 603.08 211.829 598.33C219.829 592.95 229.469 601.54 238.139 601.33C259.389 600.84 269.209 573.42 275.879 557.27C280.481 546.101 284.261 534.61 287.189 522.89C290.099 511.26 292.279 499.24 297.079 488.19C300.999 479.19 306.939 470.41 315.519 465.3C323.519 460.53 333.059 459.84 342.089 458.69C351.519 457.48 361.339 455.97 369.249 450.28C377.539 444.28 381.319 433.79 390.349 428.85C398.099 424.62 407.559 424.04 416.109 422.54C425.769 420.84 434.549 417.92 442.239 411.67C446.369 408.31 449.239 406.01 454.829 406.07C460.769 406.14 466.219 406.75 472.029 405.07C481.319 402.33 488.879 396.07 497.829 392.59C508.709 388.4 520.219 393.65 531.269 390.42C540.699 387.67 546.609 379.42 555.459 375.79C560.219 373.85 565.509 374.6 570.519 374.06C575.713 373.67 580.654 371.663 584.649 368.32C592.649 361.38 595.399 349.66 598.819 340.1C602.729 329.17 607.189 318.29 610.429 307.1C612.989 298.26 614.429 288.1 610.429 279.48C605.999 270 596.589 267.26 586.999 265.66C577.409 264.06 570.589 259.66 563.219 253.37C556.219 247.37 549.019 241.15 540.029 238.37C529.619 235.14 518.939 237.84 508.869 240.94C503.759 242.51 498.539 244.32 493.209 244.94C487.259 245.66 481.269 244.8 475.399 243.94C464.009 242.22 452.829 240.94 442.059 245.94C433.179 250.13 426.439 257.57 417.919 262.33C408.689 267.48 397.719 268.33 388.349 273.41C371.159 282.66 360.109 299.47 346.349 312.72C331.069 327.51 308.669 334.41 295.999 352C293.129 356.187 291.258 360.977 290.529 366C289.699 370.58 288.529 374.12 285.119 377.42C278.979 383.42 270.719 386.83 264.119 392.23C247.669 405.65 250.459 426.53 243.699 444.62C236.939 462.71 218.779 473.62 202.489 482.01C184.889 491.12 166.239 498.81 151.689 512.69C145.005 519.066 139.726 526.767 136.189 535.3C134.239 539.93 139.709 543.75 143.739 542.85C152.949 540.78 162.159 538.67 171.379 536.64C171.899 536.52 175.849 536.33 176.199 536.09C177.139 536.53 177.072 536.17 175.999 535.01C175.485 533.283 174.909 533.323 174.269 535.13C172.729 536.21 171.319 539.05 170.269 540.58C168.939 542.45 167.629 544.34 166.439 546.3C162.529 552.75 159.499 560.14 159.989 567.81C160.499 575.69 165.549 583.43 174.349 579.81C178.039 578.28 180.819 574.95 183.619 572.2L194.709 561.32L214.239 542.13C228.145 528.457 242.062 514.79 255.989 501.13C261.639 495.6 252.989 486.92 247.309 492.45C233.842 505.637 220.392 518.84 206.959 532.06L187.419 551.26L177.699 560.79C175.859 562.59 174.059 564.44 172.179 566.2C171.377 567.07 170.493 567.861 169.539 568.56C172.005 570.207 172.962 570.207 172.409 568.56C172.849 567.2 172.189 564.67 172.469 563.08C172.897 560.934 173.603 558.853 174.569 556.89C176.349 553.32 178.451 549.919 180.849 546.73C184.849 541.18 191.059 534.13 185.179 527.55C180.869 522.73 173.809 523.55 168.179 524.77C158.959 526.77 149.749 528.91 140.539 530.98L148.089 538.53C155.379 521.19 172.789 510.79 188.749 502.53C205.559 493.84 223.109 486.44 237.449 473.75C244.232 467.923 249.729 460.747 253.589 452.68C257.529 444.03 258.829 434.85 260.589 425.59C262.289 416.59 264.589 407.84 271.889 401.68C278.149 396.39 285.789 392.99 292.079 387.68C294.991 385.287 297.439 382.379 299.299 379.1C301.899 374.32 301.929 369.2 303.509 364.1C306.509 354.56 317.029 348.05 324.959 342.96C333.749 337.32 342.809 332.13 350.749 325.28C357.749 319.28 363.749 312.28 369.979 305.41C375.979 298.75 382.209 291.94 389.699 286.89C398.359 281.05 408.149 279.55 417.699 275.83C426.949 272.22 433.859 265.59 441.959 260.12C451.589 253.61 461.099 253.93 472.249 255.62C483.399 257.31 493.779 257.88 504.879 254.83C514.419 252.21 524.879 247.2 534.879 249.53C543.299 251.47 549.809 257.89 556.229 263.27C562.879 268.85 569.909 274.13 578.469 276.27C586.469 278.27 598.469 277.34 600.389 287.68C602.099 296.68 597.839 306.27 594.889 314.53C590.829 325.88 587.029 337.36 582.689 348.6C581.209 352.44 579.329 356.85 575.979 359.44C571.749 362.7 565.629 361.68 560.659 362.1C550.569 362.95 543.979 368.23 536.079 373.93C531.919 376.93 527.939 378.93 522.729 379.12C517.099 379.29 511.509 378.05 505.869 378.31C496.249 378.75 488.129 383.31 479.869 387.85C476.069 389.97 472.259 392.1 468.039 393.24C462.459 394.75 456.829 393.24 451.169 393.72C440.759 394.6 435.559 403.24 426.529 407C418.179 410.48 408.829 411 400.039 412.71C391.249 414.42 382.589 417.62 376.139 424.1C369.479 430.79 365.889 439.5 356.529 443.1C347.939 446.36 338.429 446.53 329.439 447.94C320.289 449.37 311.739 452.26 304.379 458.03C287.299 471.42 281.669 493.03 276.869 513.18C271.599 535.24 264.549 558.18 252.379 577.51C247.649 585.03 241.639 590.83 232.379 587.85C223.259 584.92 215.079 581.79 206.149 587.28C199.959 591.09 195.509 598.65 188.259 600.45L195.809 608C208.189 567.07 246.569 540.07 257.559 498.33C259.549 490.82 247.719 487.56 245.709 495.2Z" fill="#2B2C2B"/>
<path d="M568.949 270.61C559.534 284.064 553.667 299.676 551.889 316C549.999 333.7 556.999 352.85 550.379 369.8C549.199 372.8 554.039 374.09 555.199 371.13C561.519 355.04 555.589 337.7 556.489 321.05C557.503 303.829 563.311 287.234 573.259 273.14C575.109 270.5 570.769 267.99 568.939 270.62L568.949 270.61Z" fill="#F04B24"/>
<path d="M482.789 254.77C480.129 276.45 478.659 298.56 482.869 320.15C484.969 330.94 489.249 340.84 492.619 351.23C495.989 361.62 497.669 373.4 491.319 383.15C489.559 385.85 493.889 388.36 495.639 385.67C508.109 366.51 494.259 345.01 489.299 325.91C483.299 302.69 484.899 278.33 487.799 254.77C488.189 251.58 483.189 251.61 482.799 254.77H482.789Z" fill="#F04B24"/>
<path d="M403.139 277.48C399.789 287.15 404.399 296.57 408.319 305.32C413.119 316.03 418.139 326.67 424.799 336.38C431.169 345.65 438.479 354.32 442.139 365.14C445.864 376.234 446.284 388.172 443.349 399.5C442.559 402.62 447.349 403.95 448.169 400.83C453.579 379.53 447.689 359.83 435.169 342.32C428.473 333.249 422.584 323.608 417.569 313.51C412.789 303.59 404.059 290.09 407.959 278.81C409.009 275.81 404.189 274.45 403.139 277.48Z" fill="#F04B24"/>
<path d="M349.719 321.57C350.139 330.94 352.279 340.17 354.719 349.21C356.719 356.93 359.599 364.21 364.869 370.36C370.589 376.99 377.999 381.93 382.569 389.55C387.507 397.837 389.379 407.594 387.859 417.12C387.369 420.27 392.179 421.62 392.679 418.45C395.369 401.35 388.869 386.45 376.499 374.85C369.249 368.03 363.669 361.63 360.679 351.92C357.689 342.21 355.219 331.77 354.759 321.57C354.619 318.37 349.619 318.35 349.759 321.57H349.719Z" fill="#F04B24"/>
<path d="M296.588 376.51C295.156 388.622 297.984 400.856 304.588 411.11C308.028 416.4 312.188 421.11 315.238 426.68C318.675 433.035 321.012 439.925 322.148 447.06C322.678 450.23 327.498 448.88 326.968 445.73C324.848 433.19 319.288 422.95 311.868 412.8C303.998 402 300.058 390 301.588 376.51C301.948 373.32 296.948 373.34 296.588 376.51Z" fill="#F04B24"/>
<path d="M316.999 495.65C321.829 490.18 328.099 487.03 334.919 484.65C336.689 484.04 344.119 480.77 345.519 482.33C346.439 483.33 340.399 490.09 339.519 491.17C334.519 497.17 343.139 505.93 348.199 499.85C352.529 494.64 358.729 488.3 357.999 480.98C357.319 474.13 350.729 469.81 344.179 469.89C337.629 469.97 330.439 473.01 324.439 475.65C318.301 478.209 312.798 482.084 308.319 487C303.109 492.9 311.759 501.61 316.999 495.68V495.65Z" fill="#FFC837"/>
<path d="M398.209 457C402.44 452.067 407.602 448.017 413.399 445.08C416.353 443.38 419.46 441.961 422.679 440.84C426.679 439.6 435.369 439.47 433.849 446.43C433.169 449.57 437.989 450.91 438.669 447.76C440.849 437.76 430.409 433.51 422.179 435.76C411.492 438.868 401.936 445.01 394.669 453.44C392.669 455.9 396.149 459.44 398.209 456.98V457Z" fill="#FFC837"/>
<path d="M438.419 457.45C435.999 470.85 455.368 469.91 463.748 467.72C474.548 464.9 483.408 456.56 485.988 445.59C487.798 437.91 475.989 434.59 474.159 442.33C473.562 444.984 472.365 447.466 470.659 449.584C468.953 451.703 466.784 453.401 464.319 454.55C461.871 455.672 459.243 456.349 456.558 456.55C454.938 456.68 453.309 456.68 451.688 456.55L450.099 456.4C448.219 455.733 448.002 455.947 449.449 457.04L450.069 461.77L450.268 460.68C451.658 452.96 439.838 449.68 438.438 457.42L438.419 457.45Z" fill="#FFC837"/>
<path d="M462.569 430.3C469.156 426.845 474.46 421.366 477.699 414.67C479.129 411.67 478.529 408.05 475.499 406.28C472.819 404.71 468.499 405.48 467.109 408.48C464.886 413.316 461.109 417.269 456.379 419.71C449.379 423.38 455.579 433.98 462.569 430.31V430.3Z" fill="#FFC837"/>
<path d="M505.658 421.57C508.658 416.07 512.568 410.88 518.188 407.81C521.072 406.142 524.311 405.183 527.638 405.01C532.858 404.87 535.308 408.76 531.508 412.76C529.288 415.09 532.818 418.63 535.048 416.3C541.948 409.04 537.558 399.69 527.648 400.01C515.748 400.4 506.778 409.16 501.358 419.01C499.808 421.83 504.128 424.36 505.678 421.53L505.658 421.57Z" fill="#FFC837"/>
<path d="M540.599 437.44C548.445 435.9 555.851 432.634 562.28 427.88C564.96 425.88 566.279 422.59 564.479 419.49C562.979 416.85 558.74 415.32 556.09 417.29C550.555 421.457 544.142 424.306 537.34 425.62C529.6 427.15 532.879 438.98 540.599 437.45V437.44Z" fill="#FFC837"/>
<path d="M597.999 369.76C599.529 369.51 600.239 371.76 600.309 372.83C600.479 375.14 599.009 377.36 597.579 379C594.579 382.42 590.509 384.79 586.499 386.81C579.449 390.37 585.649 400.96 592.689 397.41C601.549 392.94 611.109 385.78 612.379 375.21C613.649 364.64 605.279 356.21 594.719 357.93C586.939 359.19 590.239 371.01 597.979 369.76H597.999Z" fill="#FFC837"/>
</svg>
