<svg width="681" height="681" viewBox="0 0 681 681" fill="none" xmlns="http://www.w3.org/2000/svg">
<path d="M131.491 300.42C112.031 305.06 93.1407 315.02 81.4907 331.3C69.8407 347.58 65.7407 380 83.0007 397.25C133.491 447.74 331.001 458.12 436.471 445.59C454.211 443.48 471.891 440.83 489.361 437.14C521.811 430.29 536.771 428.87 567.171 415.62C590.111 405.62 606.491 380.87 607.551 373.38C609.221 361.51 610.371 348.5 603.941 338.38C600.781 333.38 596.071 329.64 591.351 326.13C576.557 315.132 560.694 305.65 544.001 297.83" stroke="#478DB5" stroke-width="13" stroke-miterlimit="10"/>
<path d="M129.081 270.07C133.421 288.52 127.451 307.15 126.251 325.61C125.151 342.61 129.631 358.68 143.541 369.46C157.451 380.24 175.481 384.21 192.131 388.26C213.616 393.466 235.368 397.499 257.291 400.34C301.035 406.027 345.265 406.969 389.211 403.15C410.924 401.268 432.521 398.23 453.911 394.05C473.381 390.24 493.531 386.25 512.001 378.84C529.911 371.65 545.651 359.76 551.001 340.39C557.171 317.93 549.001 295.16 541.201 274.25C540.081 271.25 535.201 272.56 536.381 275.58C543.381 294.13 550.881 314.06 547.271 334.2C543.951 352.75 530.911 365.06 514.271 372.5C497.201 380.13 478.181 383.94 459.971 387.74C439.381 392.037 418.579 395.248 397.651 397.36C356.256 401.528 314.544 401.468 273.161 397.18C252.24 395.009 231.448 391.738 210.871 387.38C192.931 383.58 173.641 380.03 157.051 371.88C148.671 367.76 140.931 362.04 136.251 353.79C131.391 345.2 130.651 335.26 131.251 325.6C132.481 306.6 138.371 287.74 133.901 268.73C133.161 265.6 128.341 266.92 129.081 270.06V270.07Z" fill="#FFC837"/>
<path d="M130.4 286.21C230.23 330.64 342.4 332.83 448.61 314.21C480.14 308.69 511.33 301.39 542.2 292.97C545.3 292.13 543.98 287.3 540.87 288.15C436.39 316.62 325.74 332.22 218.58 309.44C189.146 303.261 160.439 294.017 132.93 281.86C130.02 280.56 127.47 284.86 130.41 286.18L130.4 286.21Z" fill="#FFC837"/>
<path d="M549.33 328.14C443.379 367.9 328.571 377.929 217.33 357.14C201.997 354.247 186.777 350.763 171.67 346.69C156.51 342.59 141.47 337.89 128.2 329.27C125.49 327.51 122.98 331.84 125.68 333.59C137.28 341.12 150.28 345.81 163.5 349.59C177.32 353.59 191.32 356.93 205.4 359.85C232.688 365.488 260.323 369.283 288.12 371.21C344.754 375.142 401.66 371.371 457.28 360C489.071 353.479 520.295 344.451 550.66 333C553.66 331.88 552.35 327 549.33 328.18V328.14Z" fill="#FFC837"/>
<path d="M70.6102 356.56C72.6802 373.97 85.4402 387.07 100.69 394.56C119.07 403.56 140.32 407.29 160.12 411.83C203.007 421.743 246.512 428.759 290.34 432.83C334.104 436.925 378.139 437.26 421.96 433.83C443.58 432.07 465.12 429.3 486.47 425.43C505.93 421.91 525.47 417.74 543.82 410.15C576.02 396.82 619.23 360.98 589.67 324.34C587.67 321.84 584.13 325.39 586.13 327.88C613.37 361.64 569.5 394.44 540.94 405.97C523.94 412.83 505.94 416.77 487.94 420.1C467.667 423.86 447.247 426.637 426.68 428.43C345.46 435.6 263.46 428.27 183.77 411.81C161.97 407.31 139.9 402.66 118.62 396.09C99.6202 390.22 78.2202 378.5 75.6202 356.54C75.2502 353.38 70.2402 353.35 70.6202 356.54L70.6102 356.56Z" fill="#478DB5"/>
<path d="M305.611 451.85L307.211 495.03C307.341 498.65 307.401 502.55 305.381 505.55C302.831 509.32 297.881 510.46 293.381 511.29L242.201 520.83C232.951 522.55 223.471 524.36 215.411 529.23C207.351 534.1 200.901 542.76 201.411 552.16C201.841 560.43 207.551 567.71 214.561 572.11C221.571 576.51 229.801 578.5 237.881 580.27C305.781 595.1 377.371 598.63 444.291 579.9C450.481 578.17 456.711 576.2 462.051 572.63C467.391 569.06 471.791 563.63 472.751 557.26C473.871 549.8 470.031 542.26 464.451 537.19C458.871 532.12 451.731 529.13 444.631 526.59C427.507 520.466 409.715 516.397 391.631 514.47C383.101 513.56 373.161 512.33 368.801 504.95C366.281 500.7 366.381 495.45 366.551 490.51L367.891 451.38" fill="#478DB5"/>
<path d="M130.36 271.92C136.02 269.68 138.74 263.37 140.75 257.62C142.76 251.87 145.07 245.52 150.47 242.71C158.33 238.62 168.37 245.06 171.29 253.43C174.21 261.8 172.09 270.99 169.78 279.54C167.47 288.09 164.96 297.09 167.17 305.66C169.38 314.23 178.28 321.78 186.72 319.07C193.33 316.94 196.91 309.5 197.21 302.56C197.51 295.62 195.34 288.85 194.15 282.01C192.96 275.17 192.9 267.59 196.89 261.91C200.88 256.23 210.12 254 214.84 259.1C219.56 264.2 217.16 272.25 215.15 278.89C213.14 285.53 212.84 294.58 219.15 297.43C224.36 299.77 230.5 295.63 232.94 290.43C235.38 285.23 235.38 279.34 236.52 273.74C237.66 268.14 240.61 262.2 246.06 260.52C254.85 257.82 262.56 268.21 262.84 277.4C263.12 286.59 259.31 295.6 260.06 304.76C260.81 313.92 269.86 323.61 278.14 319.61C285.52 316.04 285.29 305.5 283.14 297.61C280.99 289.72 278.32 280.29 283.69 274.1C289.75 267.1 302.33 270.56 307.09 278.51C311.85 286.46 310.82 296.51 308.66 305.51C306.5 314.51 303.34 323.57 304.3 332.78C305.26 341.99 312.05 351.48 321.3 351.6C332.5 351.74 339.39 338.71 339.42 327.51C339.45 316.31 335.42 305.23 336.75 294.11C338.08 282.99 348.75 271.55 359.19 275.6C365.64 278.11 368.88 285.36 370.11 292.17C371.34 298.98 371.25 306.17 374.03 312.49C376.81 318.81 383.86 324.15 390.4 321.89C396.94 319.63 399.22 311.02 397.87 304.14C396.52 297.26 392.77 291.03 391.44 284.14C390.11 277.25 392.37 268.68 399.02 266.45C407.33 263.66 415.18 273.1 415.73 281.85C416.28 290.6 412.57 299.07 412.13 307.85C411.69 316.63 416.69 327.09 425.45 327.22C432.94 327.33 438.45 319.5 439.15 312.04C439.85 304.58 437.39 297.23 436.31 289.82C435.23 282.41 435.98 273.82 441.65 268.96C449.18 274.49 451.2 284.96 450.44 294.29C449.68 303.62 446.77 312.71 446.84 322.05C446.91 331.39 451.02 341.69 459.74 345.05C469.27 348.72 480.47 342.05 484.55 332.68C488.63 323.31 487.04 312.41 483.55 302.82C481.25 296.5 478.1 290.18 478.43 283.46C478.76 276.74 484.43 269.66 491.01 270.82C499.41 272.28 500.74 283.6 500.42 292.12C500.1 300.64 502.95 312.12 511.42 311.96C518.92 311.83 522.17 302.55 523.42 295.15L531.27 247.59C532.27 252.41 533.39 257.36 536.16 261.44C538.93 265.52 543.82 268.56 548.66 267.67C554.66 266.57 558.26 259.86 558.02 253.78C557.78 247.7 554.7 242.13 551.69 236.83C539.31 214.99 526.05 192.23 504.63 179.13C485.18 167.24 461.56 164.92 438.86 162.89L379.4 157.58C359.62 155.81 339.02 152.12 319.17 152.26C281.45 152.53 243.58 156.32 206.82 165.02C195.67 167.66 184.54 170.75 174.33 175.95C164.12 181.15 154.8 188.59 148.93 198.42C142.69 208.88 140.72 221.23 137.65 233.01C135.27 242.15 131.96 251.59 125.65 258.81C122.88 261.99 118.16 263.41 119.82 267.9C121.18 271.59 127.05 273.24 130.36 271.92Z" fill="#F04B24"/>
<path d="M130.36 271.92C136.02 269.68 138.74 263.37 140.75 257.62C142.76 251.87 145.07 245.52 150.47 242.71C158.33 238.62 168.37 245.06 171.29 253.43C174.21 261.8 172.09 270.99 169.78 279.54C167.47 288.09 164.96 297.09 167.17 305.66C169.38 314.23 178.28 321.78 186.72 319.07C193.33 316.94 196.91 309.5 197.21 302.56C197.51 295.62 195.34 288.85 194.15 282.01C192.96 275.17 192.9 267.59 196.89 261.91C200.88 256.23 210.12 254 214.84 259.1C219.56 264.2 217.16 272.25 215.15 278.89C213.14 285.53 212.84 294.58 219.15 297.43C224.36 299.77 230.5 295.63 232.94 290.43C235.38 285.23 235.38 279.34 236.52 273.74C237.66 268.14 240.61 262.2 246.06 260.52C254.85 257.82 262.56 268.21 262.84 277.4C263.12 286.59 259.31 295.6 260.06 304.76C260.81 313.92 269.86 323.61 278.14 319.61C285.52 316.04 285.29 305.5 283.14 297.61C280.99 289.72 278.32 280.29 283.69 274.1C289.75 267.1 302.33 270.56 307.09 278.51C311.85 286.46 310.82 296.51 308.66 305.51C306.5 314.51 303.34 323.57 304.3 332.78C305.26 341.99 312.05 351.48 321.3 351.6C332.5 351.74 339.39 338.71 339.42 327.51C339.45 316.31 335.42 305.23 336.75 294.11C338.08 282.99 348.75 271.55 359.19 275.6C365.64 278.11 368.88 285.36 370.11 292.17C371.34 298.98 371.25 306.17 374.03 312.49C376.81 318.81 383.86 324.15 390.4 321.89C396.94 319.63 399.22 311.02 397.87 304.14C396.52 297.26 392.77 291.03 391.44 284.14C390.11 277.25 392.37 268.68 399.02 266.45C407.33 263.66 415.18 273.1 415.73 281.85C416.28 290.6 412.57 299.07 412.13 307.85C411.69 316.63 416.69 327.09 425.45 327.22C432.94 327.33 438.45 319.5 439.15 312.04C439.85 304.58 437.39 297.23 436.31 289.82C435.23 282.41 435.98 273.82 441.65 268.96C449.18 274.49 451.2 284.96 450.44 294.29C449.68 303.62 446.77 312.71 446.84 322.05C446.91 331.39 451.02 341.69 459.74 345.05C469.27 348.72 480.47 342.05 484.55 332.68C488.63 323.31 487.04 312.41 483.55 302.82C481.25 296.5 478.1 290.18 478.43 283.46C478.76 276.74 484.43 269.66 491.01 270.82C499.41 272.28 500.74 283.6 500.42 292.12C500.1 300.64 502.95 312.12 511.42 311.96C518.92 311.83 522.17 302.55 523.42 295.15L531.27 247.59C532.27 252.41 533.39 257.36 536.16 261.44C538.93 265.52 543.82 268.56 548.66 267.67C554.66 266.57 558.26 259.86 558.02 253.78C557.78 247.7 554.7 242.13 551.69 236.83C539.31 214.99 526.05 192.23 504.63 179.13C485.18 167.24 461.56 164.92 438.86 162.89L379.4 157.58C359.62 155.81 339.02 152.12 319.17 152.26C281.45 152.53 243.58 156.32 206.82 165.02C195.67 167.66 184.54 170.75 174.33 175.95C164.12 181.15 154.8 188.59 148.93 198.42C142.69 208.88 140.72 221.23 137.65 233.01C135.27 242.15 131.96 251.59 125.65 258.81C122.88 261.99 118.16 263.41 119.82 267.9C121.18 271.59 127.05 273.24 130.36 271.92Z" stroke="#2B2C2B" stroke-width="15" stroke-miterlimit="10"/>
<path d="M130.36 271.92C136.02 269.68 138.74 263.37 140.75 257.62C142.76 251.87 145.07 245.52 150.47 242.71C158.33 238.62 168.37 245.06 171.29 253.43C174.21 261.8 172.09 270.99 169.78 279.54C167.47 288.09 164.96 297.09 167.17 305.66C169.38 314.23 178.28 321.78 186.72 319.07C193.33 316.94 196.91 309.5 197.21 302.56C197.51 295.62 195.34 288.85 194.15 282.01C192.96 275.17 192.9 267.59 196.89 261.91C200.88 256.23 210.12 254 214.84 259.1C219.56 264.2 217.16 272.25 215.15 278.89C213.14 285.53 212.84 294.58 219.15 297.43C224.36 299.77 230.5 295.63 232.94 290.43C235.38 285.23 235.38 279.34 236.52 273.74C237.66 268.14 240.61 262.2 246.06 260.52C254.85 257.82 262.56 268.21 262.84 277.4C263.12 286.59 259.31 295.6 260.06 304.76C260.81 313.92 269.86 323.61 278.14 319.61C285.52 316.04 285.29 305.5 283.14 297.61C280.99 289.72 278.32 280.29 283.69 274.1C289.75 267.1 302.33 270.56 307.09 278.51C311.85 286.46 310.82 296.51 308.66 305.51C306.5 314.51 303.34 323.57 304.3 332.78C305.26 341.99 312.05 351.48 321.3 351.6C332.5 351.74 339.39 338.71 339.42 327.51C339.45 316.31 335.42 305.23 336.75 294.11C338.08 282.99 348.75 271.55 359.19 275.6C365.64 278.11 368.88 285.36 370.11 292.17C371.34 298.98 371.25 306.17 374.03 312.49C376.81 318.81 383.86 324.15 390.4 321.89C396.94 319.63 399.22 311.02 397.87 304.14C396.52 297.26 392.77 291.03 391.44 284.14C390.11 277.25 392.37 268.68 399.02 266.45C407.33 263.66 415.18 273.1 415.73 281.85C416.28 290.6 412.57 299.07 412.13 307.85C411.69 316.63 416.69 327.09 425.45 327.22C432.94 327.33 438.45 319.5 439.15 312.04C439.85 304.58 437.39 297.23 436.31 289.82C435.23 282.41 435.98 273.82 441.65 268.96C449.18 274.49 451.2 284.96 450.44 294.29C449.68 303.62 446.77 312.71 446.84 322.05C446.91 331.39 451.02 341.69 459.74 345.05C469.27 348.72 480.47 342.05 484.55 332.68C488.63 323.31 487.04 312.41 483.55 302.82C481.25 296.5 478.1 290.18 478.43 283.46C478.76 276.74 484.43 269.66 491.01 270.82C499.41 272.28 500.74 283.6 500.42 292.12C500.1 300.64 502.95 312.12 511.42 311.96C518.92 311.83 522.17 302.55 523.42 295.15L531.27 247.59C532.27 252.41 533.39 257.36 536.16 261.44C538.93 265.52 543.82 268.56 548.66 267.67C554.66 266.57 558.26 259.86 558.02 253.78C557.78 247.7 554.7 242.13 551.69 236.83C539.31 214.99 526.05 192.23 504.63 179.13C485.18 167.24 461.56 164.92 438.86 162.89L379.4 157.58C359.62 155.81 339.02 152.12 319.17 152.26C281.45 152.53 243.58 156.32 206.82 165.02C195.67 167.66 184.54 170.75 174.33 175.95C164.12 181.15 154.8 188.59 148.93 198.42C142.69 208.88 140.72 221.23 137.65 233.01C135.27 242.15 131.96 251.59 125.65 258.81C122.88 261.99 118.16 263.41 119.82 267.9C121.18 271.59 127.05 273.24 130.36 271.92Z" stroke="white" stroke-width="3" stroke-miterlimit="10"/>
<path d="M360.65 455L362.41 496.45C362.64 501.88 362.96 507.6 365.86 512.2C369.67 518.2 377.07 520.96 384.09 522.28C396.3 524.57 408.92 523.89 421.15 526.11C433.38 528.33 445.97 534.35 451.28 545.58C454.19 551.74 454.28 559.74 449.76 564.8C446.44 568.49 441.38 569.97 436.56 571.14C406.603 578.409 375.558 580.057 345 576C339.89 575.32 334.38 574.26 330.9 570.46C325.68 564.77 327.4 555.46 331.69 549.01C335.98 542.56 342.31 537.76 346.69 531.39C353.06 522.11 354.69 510.34 354.3 499.09C353.91 487.84 351.61 476.74 350.88 465.51C350.64 461.79 350.63 457.81 352.64 454.68C354.65 451.55 359.42 449.94 362.2 452.41" fill="#FFC837"/>
<path d="M358.151 455C358.801 470.4 358.731 486 360.211 501.38C361.311 512.833 367.407 520.21 378.501 523.51C392.091 527.57 406.651 525.96 420.501 528.51C432.201 530.68 446.051 536.61 449.961 548.98C452.081 555.69 450.401 562.77 443.831 566.13C437.671 569.28 429.761 570.24 423.041 571.49C407.832 574.321 392.39 575.71 376.921 575.64C370.021 575.64 363.131 575.327 356.251 574.7C349.681 574.13 341.371 574.19 335.441 570.81C329.101 567.2 329.371 559.49 332.031 553.59C335.031 547.04 340.871 542.4 345.441 537.03C354.151 526.79 357.101 513.88 356.871 500.66C356.731 492.66 355.501 484.66 354.531 476.66C354.011 472.42 353.421 468.13 353.321 463.86C353.231 459.99 355.021 450.49 360.961 454.53C363.631 456.34 366.131 452.01 363.481 450.21C359.291 447.36 353.811 448.91 350.891 452.87C346.971 458.19 348.331 465.93 348.981 472.01C350.701 488.01 354.491 504.91 349.191 520.69C344.481 534.69 328.931 542.02 325.761 556.59C324.681 561.59 325.111 567 328.301 571.15C332.131 576.15 338.451 577.55 344.361 578.38C361.064 580.68 377.96 581.25 394.781 580.08C410.581 579 428.001 577.4 443.001 571.92C455.161 567.47 458.791 555 453.121 543.73C447.451 532.46 435.001 526.44 423.231 524C414.311 522.16 405.151 522 396.101 521.3C387.801 520.64 377.861 519.91 371.101 514.39C363.351 508.02 364.831 495.62 364.451 486.61L363.151 455C363.011 451.79 358.011 451.78 358.151 455Z" fill="#F04B24"/>
<path d="M210.892 189.09C205.102 188.82 198.742 189.47 194.612 193.53C189.772 198.3 189.892 206.83 194.172 212.09C198.452 217.35 206.022 219.32 212.642 217.79C217.523 216.737 221.788 213.792 224.502 209.6C225.813 207.5 226.574 205.104 226.714 202.632C226.854 200.161 226.368 197.694 225.302 195.46C224.166 193.263 222.386 191.467 220.2 190.312C218.013 189.157 215.526 188.699 213.072 189" fill="#FFC837"/>
<path d="M210.891 186.59C201.131 186.27 190.041 189.35 188.631 200.59C187.331 211.01 195.331 219.36 205.381 220.59C215.761 221.86 227.011 215.48 228.951 204.72C230.711 194.95 223.271 185.5 213.061 186.47C209.881 186.77 209.851 191.77 213.061 191.47C221.661 190.66 226.601 199.52 223.061 207.03C219.891 213.72 211.641 216.9 204.621 215.43C197.601 213.96 191.931 207.43 193.811 199.94C195.741 192.23 204.261 191.36 210.891 191.57C214.111 191.67 214.101 186.67 210.891 186.57V186.59Z" fill="#D898C3"/>
<path d="M240.149 144.63C237.857 144.599 235.595 145.156 233.579 146.247C231.562 147.338 229.86 148.928 228.632 150.864C227.405 152.8 226.694 155.019 226.567 157.308C226.441 159.597 226.903 161.88 227.909 163.94C229.222 166.606 231.381 168.761 234.049 170.07C235.841 170.947 237.807 171.408 239.802 171.42C241.797 171.431 243.768 170.993 245.57 170.137C247.371 169.28 248.957 168.029 250.208 166.475C251.458 164.921 252.342 163.105 252.794 161.162C253.246 159.219 253.253 157.199 252.816 155.253C252.378 153.307 251.508 151.484 250.268 149.921C249.029 148.358 247.453 147.095 245.657 146.226C243.862 145.356 241.894 144.903 239.899 144.9" fill="#FFC837"/>
<path d="M240.15 142.13C231.42 142.54 224.09 148.99 224.08 158.07C224.151 162.175 225.824 166.09 228.742 168.979C231.66 171.867 235.592 173.5 239.698 173.529C243.803 173.557 247.758 171.98 250.716 169.132C253.674 166.285 255.402 162.394 255.53 158.29C255.71 149.39 248.39 142.93 239.89 142.4C236.68 142.2 236.69 147.2 239.89 147.4C252.89 148.21 254.17 167.79 240.7 168.76C226.13 169.82 225.53 147.76 240.14 147.13C243.34 146.98 243.36 141.98 240.14 142.13H240.15Z" fill="#D898C3"/>
<path d="M332.77 202.92C327.26 203.83 321.33 205.54 318.17 210.15C314.72 215.15 315.9 222.48 319.94 227.06C323.98 231.64 330.26 233.75 336.37 233.94C340.7 234.07 345.28 233.22 348.57 230.4C353.94 225.81 354.15 217.01 350.33 211.06C346.51 205.11 339.65 201.73 332.74 200.27" fill="#FFC837"/>
<path d="M332.1 200.51C322 202.3 312 208 313.89 219.8C315.73 231.01 327.3 236.74 337.81 236.44C348.04 236.15 356.2 229.35 355.36 218.58C354.45 206.93 343.82 200.27 333.36 197.86C330.23 197.14 328.89 201.96 332.03 202.68C339.58 204.42 347.9 208.39 349.96 216.6C352.11 225.16 346.1 231.21 337.77 231.43C330.1 231.63 321.21 228.25 319.01 220.17C316.37 210.45 325.69 206.68 333.39 205.31C336.55 204.75 335.21 199.93 332.06 200.49L332.1 200.51Z" fill="#D898C3"/>
<path d="M478 191C473.27 189.31 468.31 187.9 463.29 188.18C458.27 188.46 453.14 190.68 450.42 194.91C447.11 200.04 448.15 207.21 451.93 212.01C453.669 214.206 455.9 215.963 458.443 217.137C460.987 218.312 463.771 218.871 466.57 218.77C469.367 218.613 472.078 217.752 474.453 216.265C476.827 214.779 478.787 212.717 480.15 210.27C481.455 207.791 482.065 205.005 481.915 202.208C481.765 199.41 480.862 196.706 479.3 194.38" fill="#FFC837"/>
<path d="M478.68 188.64C469.13 185.33 456.68 183.33 449.35 192.24C443.49 199.38 445.75 210.14 452.25 216.05C455.555 219.087 459.797 220.905 464.276 221.203C468.755 221.501 473.201 220.262 476.88 217.69C480.626 214.958 483.187 210.897 484.038 206.339C484.889 201.781 483.967 197.07 481.46 193.17C479.77 190.44 475.46 192.95 477.14 195.69C486.25 210.36 465.82 223.23 454.69 211.44C449.69 206.17 449.42 197.15 455.94 193C462.46 188.85 470.6 191.12 477.34 193.45C480.34 194.51 481.7 189.68 478.67 188.63L478.68 188.64Z" fill="#D898C3"/>
<path d="M446.328 148.47C443.707 146.581 440.497 145.693 437.277 145.965C434.058 146.238 431.042 147.653 428.776 149.956C426.51 152.259 425.142 155.296 424.921 158.52C424.699 161.743 425.638 164.939 427.568 167.53C429.017 169.439 430.944 170.93 433.156 171.852C435.367 172.774 437.783 173.094 440.158 172.78C442.524 172.404 444.741 171.386 446.57 169.838C448.398 168.29 449.767 166.271 450.528 164C451.21 161.712 451.232 159.278 450.591 156.978C449.951 154.679 448.674 152.606 446.908 151" fill="#FFC837"/>
<path d="M447.599 146.31C440.829 141.96 431.369 142.86 426.119 149.22C423.634 152.349 422.377 156.278 422.585 160.269C422.793 164.26 424.452 168.037 427.249 170.89C430.134 173.686 433.979 175.273 437.996 175.323C442.013 175.373 445.896 173.883 448.849 171.16C455.279 165.08 454.849 155.23 448.689 149.16C446.399 146.89 442.869 150.43 445.149 152.7C455.869 163.34 438.069 177.7 429.629 165.99C422.229 155.7 434.969 144.13 445.079 150.62C447.799 152.36 450.309 148.04 447.599 146.3V146.31Z" fill="#D898C3"/>
<path d="M341.839 138.37C334.979 137.29 327.839 142.84 327.109 149.76C326.379 156.68 332.379 163.53 339.319 163.81C346.259 164.09 352.759 157.76 352.649 150.81C352.569 145.81 349.469 141.16 345.379 138.25" fill="#FFC837"/>
<path d="M341.84 135.87C338.073 135.528 334.306 136.531 331.209 138.702C328.111 140.874 325.883 144.072 324.92 147.73C323.11 155.23 328.22 163.11 335.3 165.54C342.59 168.05 350.53 163.86 353.73 157.09C357.51 149.09 353.04 141.09 346.64 136.09C344.09 134.09 341.64 138.47 344.12 140.41C348.25 143.6 351.46 148.87 349.57 154.19C347.68 159.51 341.57 162.75 336.32 160.54C324.83 155.67 329.97 139.75 341.85 140.86C345.05 141.16 345.03 136.16 341.85 135.86L341.84 135.87Z" fill="#D898C3"/>
</svg>
