<svg width="128" height="112" viewBox="0 0 128 112" fill="none" xmlns="http://www.w3.org/2000/svg">
<path d="M16.6273 42.2683C12.1687 43.3314 7.8406 45.6135 5.17137 49.3435C2.50213 53.0736 1.56275 60.5016 5.51734 64.4539C17.0856 76.0221 62.3388 78.4004 86.504 75.5295C90.5686 75.0461 94.6194 74.4389 98.6221 73.5935C106.057 72.024 109.485 71.6987 116.45 68.6628C121.706 66.3716 125.459 60.7009 125.702 58.9848C126.084 56.2652 126.348 53.2844 124.875 50.9657C124.151 49.8201 123.071 48.9632 121.99 48.159C118.6 45.639 111.491 40.3778 107.666 38.5859" stroke="#FFC736" stroke-width="3" stroke-miterlimit="10"/>
<path d="M2.6782 55.1313C3.15248 59.1203 6.07603 62.1217 9.5701 63.8378C13.7813 65.8999 18.6501 66.7545 23.1866 67.7947C33.0127 70.066 42.9805 71.6735 53.0225 72.6062C63.0497 73.5445 73.1388 73.6212 83.1791 72.8353C88.1327 72.4321 93.0679 71.7974 97.9596 70.9107C102.418 70.1042 106.895 69.1488 111.1 67.4098C118.477 64.3557 128.377 56.144 121.605 47.7491C121.146 47.1763 120.335 47.9897 120.794 48.5602C127.035 56.2953 116.983 63.8104 110.44 66.4521C106.545 68.0239 102.421 68.9266 98.2964 69.6895C93.6514 70.551 88.9728 71.1872 84.2606 71.5981C65.6515 73.2409 46.8638 71.5614 28.6053 67.7901C23.6105 66.7591 18.5538 65.6937 13.6782 64.1884C9.32494 62.8435 4.42179 60.1582 3.82609 55.1267C3.74131 54.4027 2.59343 54.3959 2.68049 55.1267L2.6782 55.1313Z" fill="#FFC736"/>
<path d="M56.5213 76.9641L56.8879 86.8575C56.9177 87.6869 56.9314 88.5805 56.4686 89.2678C55.8843 90.1316 54.7502 90.3928 53.7192 90.583L41.9929 92.7688C39.8735 93.1628 37.7015 93.5775 35.8548 94.6933C34.0081 95.8092 32.5303 97.7933 32.6471 99.947C32.7456 101.842 34.0539 103.51 35.66 104.518C37.2661 105.526 39.1518 105.982 41.0031 106.388C56.5603 109.785 72.9629 110.594 88.2955 106.303C89.7138 105.906 91.1412 105.455 92.3647 104.637C93.5882 103.819 94.5963 102.575 94.8162 101.116C95.0728 99.4063 94.193 97.6788 92.9146 96.5171C91.6361 95.3555 90.0002 94.6704 88.3734 94.0885C84.4499 92.6854 80.3735 91.7532 76.2301 91.3116C74.2757 91.1031 71.9983 90.8212 70.9993 89.1303C70.4219 88.1566 70.4449 86.9537 70.4838 85.8219L70.7908 76.8564" fill="#FFC736"/>
<path d="M16.3767 39.0126C39.2496 49.1923 64.9499 49.6941 89.2846 45.4279C96.5087 44.1631 103.655 42.4906 110.728 40.5614C111.438 40.3689 111.136 39.2623 110.423 39.457C86.4847 45.9801 61.1327 49.5543 36.5804 44.335C29.8364 42.9192 23.2592 40.8013 16.9563 38.0159C16.2896 37.718 15.7053 38.7032 16.3789 39.0057L16.3767 39.0126Z" fill="#FFC736"/>
<path d="M16.0755 35.3144C17.0699 39.5417 15.702 43.8101 15.4271 48.0397C15.1751 51.9347 16.2015 55.6166 19.3885 58.0865C22.5756 60.5564 26.7066 61.4661 30.5214 62.394C35.444 63.5868 40.4278 64.5108 45.4508 65.1617C55.4733 66.4647 65.6073 66.6805 75.6762 65.8056C80.651 65.3743 85.5994 64.6783 90.5002 63.7206C94.9611 62.8476 99.5779 61.9335 103.81 60.2357C107.913 58.5883 111.52 55.8641 112.745 51.4261C114.159 46.2801 112.287 41.063 110.5 36.2721C110.243 35.5848 109.125 35.8849 109.396 36.5769C110.999 40.827 112.718 45.3934 111.891 50.0078C111.13 54.258 108.142 57.0784 104.33 58.7831C100.419 60.5312 96.0609 61.4042 91.8886 62.2748C87.171 63.2594 82.4049 63.9952 77.61 64.479C68.1256 65.434 58.5685 65.4202 49.0869 64.4377C44.2936 63.9403 39.5297 63.1908 34.8151 62.1924C30.7047 61.3217 26.285 60.5083 22.4839 58.641C20.5639 57.697 18.7905 56.3865 17.7183 54.4963C16.6048 52.5281 16.4352 50.2507 16.5727 48.0374C16.8545 43.6841 18.204 39.363 17.1798 35.0074C17.0103 34.2903 15.9059 34.5927 16.0755 35.3121V35.3144Z" fill="#FFC736"/>
<path d="M16.369 35.7386C17.6658 35.2253 18.289 33.7796 18.7495 32.4621C19.2101 31.1447 19.7393 29.6898 20.9766 29.046C22.7774 28.1089 25.0778 29.5844 25.7468 31.5021C26.4158 33.4199 25.9301 35.5255 25.4009 37.4844C24.8716 39.4434 24.2965 41.5055 24.8029 43.469C25.3092 45.4326 27.3484 47.1624 29.2821 46.5415C30.7966 46.0535 31.6168 44.3488 31.6856 42.7588C31.7543 41.1687 31.2571 39.6175 30.9845 38.0504C30.7118 36.4832 30.6981 34.7465 31.6123 33.4451C32.5264 32.1437 34.6435 31.6327 35.7249 32.8012C36.8064 33.9698 36.2565 35.8142 35.796 37.3355C35.3354 38.8569 35.2667 40.9304 36.7125 41.5834C37.9062 42.1195 39.313 41.171 39.872 39.9795C40.4311 38.7881 40.4311 37.4386 40.6922 36.1555C40.9534 34.8725 41.6293 33.5115 42.878 33.1266C44.892 32.508 46.6585 34.8885 46.7227 36.9941C46.7868 39.0997 45.9139 41.1641 46.0857 43.2628C46.2575 45.3615 48.3311 47.5817 50.2282 46.6652C51.9191 45.8473 51.8664 43.4324 51.3738 41.6246C50.8812 39.8169 50.2694 37.6563 51.4998 36.238C52.8882 34.6342 55.7706 35.427 56.8612 37.2484C57.9518 39.0699 57.7158 41.3726 57.2209 43.4347C56.726 45.4967 56.002 47.5725 56.2219 49.6827C56.4419 51.7929 57.9976 53.9673 60.1169 53.9947C62.6831 54.0268 64.2617 51.0414 64.2686 48.4753C64.2755 45.9091 63.3521 43.3705 63.6568 40.8227C63.9616 38.2749 66.4063 35.6538 68.7983 36.5817C70.2761 37.1568 71.0184 38.8179 71.3002 40.3782C71.5821 41.9385 71.5614 43.5859 72.1984 45.0339C72.8353 46.4819 74.4506 47.7054 75.9491 47.1876C77.4475 46.6698 77.9699 44.6971 77.6606 43.1208C77.3513 41.5444 76.4921 40.117 76.1874 38.5384C75.8826 36.9598 76.4004 34.9962 77.9241 34.4853C79.828 33.846 81.6266 36.0089 81.7527 38.0137C81.8787 40.0185 81.0286 41.9591 80.9278 43.9708C80.827 45.9825 81.9726 48.379 83.9797 48.4088C85.6958 48.434 86.9582 46.64 87.1186 44.9308C87.279 43.2216 86.7154 41.5376 86.4679 39.8398C86.2205 38.142 86.3923 36.1739 87.6914 35.0604C89.4167 36.3274 89.8795 38.7263 89.7054 40.8639C89.5312 43.0016 88.8645 45.0843 88.8805 47.2243C88.8966 49.3643 89.8383 51.7242 91.8362 52.494C94.0197 53.3349 96.5858 51.8067 97.5206 49.6598C98.4554 47.513 98.0911 45.0156 97.2915 42.8183C96.7645 41.3703 96.0428 39.9223 96.1184 38.3826C96.194 36.8429 97.4931 35.2207 99.0007 35.4865C100.925 35.821 101.23 38.4147 101.157 40.3667C101.083 42.3188 101.736 44.9491 103.677 44.9125C105.395 44.8827 106.14 42.7565 106.426 41.061L108.225 30.1641C108.454 31.2684 108.711 32.4026 109.345 33.3374C109.98 34.2722 111.1 34.9687 112.209 34.7648C113.584 34.5128 114.409 32.9754 114.354 31.5823C114.299 30.1893 113.593 28.9131 112.904 27.6988C110.067 22.6948 107.029 17.4801 102.121 14.4786C97.665 11.7544 92.2532 11.2228 87.0522 10.7577L73.4288 9.54109C68.8968 9.13555 64.1769 8.2901 59.6289 8.32218C50.9866 8.38404 42.3098 9.2524 33.8874 11.2457C31.3327 11.8506 28.7826 12.5586 26.4433 13.75C24.104 14.9414 21.9686 16.6461 20.6237 18.8983C19.194 21.2949 18.7427 24.1245 18.0393 26.8235C17.494 28.9177 16.7356 31.0806 15.2898 32.7348C14.6552 33.4634 13.5737 33.7887 13.9541 34.8175C14.2657 35.6629 15.6106 36.041 16.369 35.7386Z" fill="#FFC736"/>
<path d="M16.369 35.7386C17.6658 35.2253 18.289 33.7796 18.7495 32.4621C19.2101 31.1447 19.7393 29.6898 20.9766 29.046C22.7774 28.1089 25.0778 29.5844 25.7468 31.5021C26.4158 33.4199 25.9301 35.5255 25.4009 37.4844C24.8716 39.4434 24.2965 41.5055 24.8029 43.469C25.3092 45.4326 27.3484 47.1624 29.2821 46.5415C30.7966 46.0535 31.6168 44.3488 31.6856 42.7588C31.7543 41.1687 31.2571 39.6175 30.9845 38.0504C30.7118 36.4832 30.6981 34.7465 31.6123 33.4451C32.5264 32.1437 34.6435 31.6327 35.7249 32.8012C36.8064 33.9698 36.2565 35.8142 35.796 37.3355C35.3354 38.8569 35.2667 40.9304 36.7125 41.5834C37.9062 42.1195 39.313 41.171 39.872 39.9795C40.4311 38.7881 40.4311 37.4386 40.6922 36.1555C40.9534 34.8725 41.6293 33.5115 42.878 33.1266C44.892 32.508 46.6585 34.8885 46.7227 36.9941C46.7868 39.0997 45.9139 41.1641 46.0857 43.2628C46.2575 45.3615 48.3311 47.5817 50.2282 46.6652C51.9191 45.8473 51.8664 43.4324 51.3738 41.6246C50.8812 39.8169 50.2694 37.6563 51.4998 36.238C52.8883 34.6342 55.7706 35.4269 56.8612 37.2484C57.9518 39.0699 57.7158 41.3726 57.2209 43.4347C56.726 45.4967 56.002 47.5725 56.2219 49.6827C56.4419 51.7929 57.9976 53.9673 60.1169 53.9947C62.6831 54.0268 64.2617 51.0414 64.2686 48.4753C64.2755 45.9091 63.3521 43.3705 63.6568 40.8227C63.9616 38.2749 66.4063 35.6538 68.7983 36.5817C70.2761 37.1568 71.0184 38.8179 71.3002 40.3782C71.5821 41.9385 71.5614 43.5859 72.1984 45.0339C72.8353 46.4819 74.4506 47.7054 75.9491 47.1876C77.4475 46.6698 77.9699 44.6971 77.6606 43.1208C77.3513 41.5444 76.4921 40.117 76.1874 38.5384C75.8826 36.9598 76.4004 34.9962 77.9241 34.4853C79.828 33.846 81.6266 36.0089 81.7527 38.0137C81.8787 40.0185 81.0286 41.9591 80.9278 43.9708C80.827 45.9825 81.9726 48.379 83.9797 48.4088C85.6958 48.434 86.9582 46.64 87.1186 44.9308C87.279 43.2216 86.7154 41.5376 86.4679 39.8398C86.2205 38.142 86.3923 36.1739 87.6914 35.0604C89.4167 36.3274 89.8795 38.7263 89.7054 40.8639C89.5312 43.0016 88.8645 45.0843 88.8805 47.2243C88.8966 49.3642 89.8383 51.7242 91.8362 52.494C94.0197 53.3349 96.5858 51.8067 97.5206 49.6598C98.4554 47.513 98.0911 45.0156 97.2915 42.8183C96.7645 41.3703 96.0428 39.9223 96.1184 38.3826C96.194 36.8429 97.4931 35.2207 99.0007 35.4865C100.925 35.821 101.23 38.4147 101.157 40.3668C101.083 42.3188 101.736 44.9491 103.677 44.9125C105.395 44.8827 106.14 42.7565 106.426 41.061L108.225 30.1641C108.454 31.2684 108.711 32.4026 109.345 33.3374C109.98 34.2722 111.1 34.9687 112.209 34.7648C113.584 34.5128 114.409 32.9754 114.354 31.5823C114.299 30.1893 113.593 28.9131 112.904 27.6988C110.067 22.6948 107.029 17.4801 102.121 14.4786C97.665 11.7544 92.2532 11.2228 87.0522 10.7577L73.4288 9.54109C68.8968 9.13555 64.1769 8.2901 59.6289 8.32218C50.9866 8.38404 42.3098 9.2524 33.8874 11.2457C31.3327 11.8506 28.7826 12.5586 26.4433 13.75C24.104 14.9414 21.9686 16.6461 20.6237 18.8983C19.194 21.2949 18.7427 24.1245 18.0393 26.8235C17.494 28.9177 16.7356 31.0806 15.2898 32.7348C14.6552 33.4634 13.5737 33.7887 13.9541 34.8175C14.2657 35.6629 15.6106 36.041 16.369 35.7386Z" stroke="#FFC736" stroke-width="4" stroke-miterlimit="10"/>
<path d="M16.369 35.7386L15.817 34.3438L15.8134 34.3453L16.369 35.7386ZM20.9766 29.046L20.2842 27.7154L20.2841 27.7154L20.9766 29.046ZM29.2821 46.5415L29.7407 47.9697L29.7422 47.9692L29.2821 46.5415ZM36.7125 41.5834L36.095 42.9504L36.0979 42.9517L36.7125 41.5834ZM42.878 33.1266L42.4376 31.6927L42.4362 31.6931L42.878 33.1266ZM50.2282 46.6652L50.8807 48.0159L50.8814 48.0155L50.2282 46.6652ZM51.4998 36.238L52.6328 37.221L52.6339 37.2198L51.4998 36.238ZM60.117 53.9947L60.0975 55.4946L60.0982 55.4946L60.117 53.9947ZM68.7983 36.5817L69.3423 35.1838L69.3408 35.1832L68.7983 36.5817ZM77.9241 34.4853L78.401 35.9074L78.4015 35.9073L77.9241 34.4853ZM83.9797 48.4088L83.9574 49.9087L83.9577 49.9087L83.9797 48.4088ZM87.6914 35.0604L88.5793 33.8514C88.0172 33.4386 87.2447 33.4676 86.7152 33.9215L87.6914 35.0604ZM91.8362 52.494L91.2968 53.8937L91.2971 53.8938L91.8362 52.494ZM97.2915 42.8183L98.7011 42.3054L98.701 42.3054L97.2915 42.8183ZM99.0007 35.4865L98.7403 36.9637L98.7439 36.9644L99.0007 35.4865ZM103.677 44.9125L103.651 43.4127L103.649 43.4127L103.677 44.9125ZM106.426 41.061L107.906 41.3108L107.906 41.3053L106.426 41.061ZM108.225 30.1641L109.694 29.8594C109.547 29.1519 108.917 28.6496 108.194 28.6644C107.472 28.6792 106.863 29.2069 106.745 29.9198L108.225 30.1641ZM112.209 34.7648L111.939 33.2894L111.938 33.2895L112.209 34.7648ZM112.904 27.6988L111.599 28.4385L111.599 28.4395L112.904 27.6988ZM102.121 14.4786L102.904 13.1989L102.904 13.1988L102.121 14.4786ZM87.0522 10.7577L87.1858 9.26367L87.1856 9.26366L87.0522 10.7577ZM73.4288 9.54109L73.2951 11.0351L73.2953 11.0351L73.4288 9.54109ZM59.6289 8.32218L59.6184 6.82221L59.6182 6.82222L59.6289 8.32218ZM33.8874 11.2457L33.542 9.78606L33.5418 9.78609L33.8874 11.2457ZM20.6237 18.8983L19.3359 18.1293L19.3355 18.1298L20.6237 18.8983ZM18.0393 26.8235L16.5877 26.4452L16.5877 26.4455L18.0393 26.8235ZM15.2898 32.7348L14.1604 31.7477L14.1588 31.7496L15.2898 32.7348ZM13.9541 34.8175L15.3615 34.2988L15.361 34.2973L13.9541 34.8175ZM16.921 37.1333C17.9595 36.7223 18.6586 35.9614 19.1385 35.207C19.6116 34.4632 19.9284 33.6354 20.1655 32.9571L17.3336 31.9672C17.1101 32.6064 16.8851 33.1601 16.6072 33.5969C16.3362 34.023 16.0753 34.2416 15.817 34.3438L16.921 37.1333ZM20.1655 32.9571C20.4011 32.2833 20.6088 31.7147 20.8773 31.2402C21.1377 30.78 21.3961 30.5186 21.669 30.3766L20.2841 27.7154C19.3198 28.2172 18.695 29.0051 18.2663 29.7627C17.8457 30.506 17.5585 31.3236 17.3336 31.9672L20.1655 32.9571ZM21.669 30.3766C22.0044 30.2021 22.4833 30.1953 23.0572 30.5145C23.6387 30.8379 24.1243 31.405 24.3305 31.9962L27.1631 31.008C26.7003 29.6815 25.7012 28.5521 24.5151 27.8925C23.3214 27.2288 21.7496 26.9528 20.2842 27.7154L21.669 30.3766ZM24.3305 31.9962C24.8263 33.4173 24.4954 35.0846 23.9528 37.0932L26.8489 37.8757C27.3648 35.9663 28.0054 33.4224 27.1631 31.008L24.3305 31.9962ZM23.9528 37.0932C23.4503 38.9531 22.7265 41.4243 23.3504 43.8436L26.2553 43.0945C25.8665 41.5866 26.2929 39.9337 26.8489 37.8757L23.9528 37.0932ZM23.3504 43.8436C23.6923 45.1695 24.5333 46.3833 25.6175 47.1821C26.7089 47.9861 28.1975 48.4652 29.7407 47.9697L28.8236 45.1133C28.4329 45.2387 27.9352 45.1633 27.3969 44.7668C26.8515 44.365 26.4198 43.7321 26.2553 43.0945L23.3504 43.8436ZM29.7422 47.9692C32.1074 47.207 33.102 44.7239 33.1842 42.8235L30.187 42.694C30.1317 43.9738 29.4858 44.8999 28.8221 45.1138L29.7422 47.9692ZM33.1842 42.8235C33.2259 41.8577 33.0945 40.9403 32.9363 40.1139C32.7554 39.1689 32.6059 38.6185 32.4623 37.7933L29.5067 38.3075C29.6358 39.0494 29.8711 40.0581 29.9898 40.678C30.1312 41.4165 30.214 42.0697 30.187 42.694L33.1842 42.8235ZM32.4623 37.7933C32.2052 36.3156 32.2843 35.0979 32.8397 34.3073L30.3848 32.5828C29.1118 34.3951 29.2185 36.6508 29.5067 38.3075L32.4623 37.7933ZM32.8397 34.3073C33.0504 34.0073 33.4494 33.7515 33.8793 33.6718C34.3011 33.5936 34.5248 33.7128 34.6241 33.8201L36.8258 31.7824C35.8437 30.7212 34.4681 30.5116 33.3325 30.7221C32.2049 30.9311 31.0883 31.5814 30.3848 32.5828L32.8397 34.3073ZM34.6241 33.8201C34.7707 33.9786 34.8864 34.2447 34.8429 34.8238C34.7976 35.4279 34.5999 36.1093 34.3603 36.9009L37.2316 37.7701C37.4525 37.0404 37.7601 36.0389 37.8345 35.0484C37.9107 34.0328 37.7606 32.7924 36.8258 31.7824L34.6241 33.8201ZM34.3603 36.9009C34.0906 37.792 33.9094 38.9159 34.0527 39.9845C34.1976 41.0653 34.7267 42.3324 36.095 42.9504L37.3299 40.2163C37.2525 40.1814 37.093 40.0852 37.0261 39.5857C36.9574 39.0739 37.0409 38.4003 37.2316 37.7701L34.3603 36.9009ZM36.0979 42.9517C37.2429 43.4659 38.4014 43.2197 39.2621 42.7386C40.1143 42.2623 40.8209 41.4884 41.2299 40.6167L38.5141 39.3424C38.3641 39.6621 38.0877 39.9582 37.7984 40.1199C37.5175 40.2769 37.3757 40.2369 37.327 40.215L36.0979 42.9517ZM41.2299 40.6167C41.5992 39.8299 41.7654 39.0303 41.8753 38.3368C41.9987 37.5586 42.0371 37.0689 42.1621 36.4548L39.2224 35.8563C39.0862 36.5252 38.994 37.3519 38.9123 37.867C38.8172 38.4669 38.7039 38.9378 38.5141 39.3424L41.2299 40.6167ZM42.1621 36.4548C42.3969 35.3012 42.8995 34.6896 43.3199 34.56L42.4362 31.6931C40.3592 32.3334 39.51 34.4438 39.2224 35.8563L42.1621 36.4548ZM43.3185 34.5605C43.5792 34.4804 43.9537 34.5268 44.4155 35.041C44.8848 35.5636 45.2023 36.3479 45.2234 37.0398L48.222 36.9484C48.1789 35.5347 47.5811 34.076 46.6475 33.0365C45.7065 31.9887 44.1908 31.1542 42.4376 31.6927L43.3185 34.5605ZM45.2234 37.0398C45.2496 37.9024 45.085 38.7757 44.8878 39.8636C44.702 40.8891 44.4866 42.1133 44.5907 43.3852L47.5807 43.1404C47.513 42.3137 47.6481 41.4562 47.8398 40.3985C48.0201 39.4031 48.2598 38.1915 48.222 36.9484L45.2234 37.0398ZM44.5907 43.3852C44.7097 44.8383 45.4619 46.2648 46.5037 47.2072C47.5533 48.1565 49.192 48.8317 50.8807 48.0159L49.5757 45.3146C49.3673 45.4153 49.0207 45.4386 48.5162 44.9823C48.0041 44.519 47.6336 43.7861 47.5807 43.1404L44.5907 43.3852ZM50.8814 48.0155C52.335 47.3124 52.9256 45.95 53.1039 44.7336C53.2803 43.5303 53.1004 42.2556 52.821 41.2302L49.9265 42.019C50.1398 42.8014 50.2325 43.638 50.1357 44.2985C50.0407 44.9461 49.8123 45.2001 49.575 45.3149L50.8814 48.0155ZM52.821 41.2302C52.5639 40.2869 52.3366 39.4508 52.2876 38.6889C52.2401 37.9518 52.3775 37.5153 52.6328 37.221L50.3667 35.2551C49.3917 36.379 49.2198 37.732 49.2938 38.8816C49.3662 40.0065 49.691 41.1546 49.9265 42.019L52.821 41.2302ZM52.6339 37.2198C52.8657 36.952 53.3051 36.7783 53.9717 36.9241C54.6463 37.0716 55.2656 37.5035 55.5742 38.019L58.1481 36.4779C57.3661 35.1719 55.999 34.2966 54.6127 33.9934C53.2184 33.6884 51.5223 33.9203 50.3657 35.2563L52.6339 37.2198ZM55.5742 38.019C56.3369 39.2927 56.2463 41.0679 55.7623 43.0846L58.6795 43.7847C59.1853 41.6772 59.5667 38.8471 58.1481 36.4779L55.5742 38.019ZM55.7623 43.0846C55.3194 44.9302 54.4751 47.3931 54.73 49.8382L57.7138 49.5272C57.5288 47.752 58.1326 46.0632 58.6795 43.7847L55.7623 43.0846ZM54.73 49.8382C54.87 51.1817 55.4284 52.5371 56.3088 53.5848C57.1943 54.6386 58.4954 55.4738 60.0975 55.4946L60.1364 52.4949C59.6191 52.4882 59.0827 52.2225 58.6055 51.6547C58.1232 51.0808 57.7938 50.2939 57.7138 49.5272L54.73 49.8382ZM60.0982 55.4946C62.0397 55.5189 63.4954 54.3849 64.3965 53.0475C65.2911 51.7197 65.7644 50.037 65.7686 48.4793L62.7686 48.4713C62.7659 49.4797 62.4465 50.5728 61.9085 51.3712C61.377 52.16 60.7603 52.5027 60.1357 52.4949L60.0982 55.4946ZM65.7686 48.4793C65.7724 47.0511 65.5164 45.628 65.3343 44.4187C65.1433 43.1508 65.0201 42.0557 65.1462 41.0008L62.1675 40.6446C61.9889 42.1375 62.175 43.5856 62.3678 44.8655C62.5694 46.204 62.7716 47.3333 62.7686 48.4713L65.7686 48.4793ZM65.1462 41.0008C65.2541 40.0993 65.7616 39.1349 66.4511 38.5112C67.1325 37.8948 67.7576 37.7869 68.2558 37.9802L69.3408 35.1832C67.4469 34.4486 65.6537 35.1873 64.4386 36.2864C63.2315 37.3783 62.3644 38.9983 62.1675 40.6446L65.1462 41.0008ZM68.2543 37.9796C68.965 38.2562 69.5646 39.2077 69.8241 40.6448L72.7764 40.1116C72.4723 38.4282 71.5872 36.0574 69.3423 35.1838L68.2543 37.9796ZM69.8241 40.6448C69.961 41.4024 70.0025 42.0358 70.1305 42.955C70.2464 43.7878 70.4233 44.7238 70.8254 45.6379L73.5714 44.4299C73.3366 43.896 73.2052 43.2843 73.1018 42.5413C73.0104 41.8848 72.9214 40.9144 72.7764 40.1116L69.8241 40.6448ZM70.8254 45.6379C71.2594 46.6246 72.0171 47.5292 72.9517 48.1174C73.8937 48.7104 75.1473 49.0517 76.439 48.6054L75.4591 45.7699C75.2524 45.8413 74.9491 45.8298 74.5497 45.5785C74.1428 45.3224 73.7743 44.8912 73.5714 44.4299L70.8254 45.6379ZM76.439 48.6054C77.7338 48.1579 78.5051 47.1108 78.8896 46.0715C79.272 45.0375 79.3359 43.8685 79.1325 42.8319L76.1887 43.4096C76.2946 43.9494 76.2519 44.5549 76.0759 45.0308C75.9018 45.5013 75.6627 45.6995 75.4591 45.7699L76.439 48.6054ZM79.1325 42.8319C78.948 41.8913 78.6035 41.0165 78.3206 40.2877C78.0211 39.5159 77.7827 38.889 77.6602 38.2541L74.7145 38.8227C74.8967 39.7664 75.2403 40.6425 75.5239 41.3731C75.8242 42.1469 76.0639 42.7738 76.1887 43.4096L79.1325 42.8319ZM77.6602 38.2541C77.555 37.7094 77.599 37.1068 77.7747 36.6378C77.9469 36.1781 78.1843 35.9801 78.401 35.9074L77.4472 33.0631C76.1402 33.5014 75.3568 34.5406 74.9655 35.5851C74.5776 36.6203 74.515 37.7887 74.7145 38.8227L77.6602 38.2541ZM78.4015 35.9073C78.6356 35.8287 78.9886 35.8577 79.4384 36.3126C79.896 36.7754 80.2161 37.4796 80.2556 38.1078L83.2497 37.9196C83.1632 36.543 82.521 35.1634 81.5718 34.2033C80.6148 33.2355 79.1166 32.5026 77.4467 33.0633L78.4015 35.9073ZM80.2556 38.1078C80.3046 38.8865 80.1664 39.6954 79.9579 40.6785C79.7619 41.6028 79.4877 42.7393 79.4297 43.8957L82.4259 44.0459C82.4688 43.1907 82.67 42.3509 82.8927 41.3008C83.1029 40.3095 83.3268 39.1457 83.2497 37.9196L80.2556 38.1078ZM79.4297 43.8957C79.3652 45.1829 79.6914 46.5884 80.3851 47.718C81.0851 48.8577 82.2843 49.8838 83.9574 49.9087L84.002 46.909C83.668 46.904 83.2909 46.7169 82.9415 46.148C82.5859 45.5689 82.3896 44.7703 82.4259 44.0459L79.4297 43.8957ZM83.9577 49.9087C85.3844 49.9296 86.5277 49.1874 87.284 48.2815C88.0349 47.3822 88.5045 46.2177 88.6121 45.0709L85.6252 44.7907C85.5724 45.3532 85.3306 45.9403 84.9811 46.3589C84.637 46.7711 84.2911 46.9132 84.0017 46.909L83.9577 49.9087ZM88.6121 45.0709C88.7111 44.0151 88.5828 43.0099 88.4227 42.1164C88.2454 41.1274 88.0752 40.4671 87.9522 39.6234L84.9836 40.0561C85.1081 40.9103 85.3434 41.9408 85.4697 42.6456C85.6132 43.4458 85.6865 44.1373 85.6252 44.7907L88.6121 45.0709ZM87.9522 39.6234C87.721 38.0372 87.9887 36.7812 88.6676 36.1992L86.7152 33.9215C84.7959 35.5666 84.7199 38.2468 84.9836 40.0561L87.9522 39.6234ZM86.8035 36.2694C87.8911 37.068 88.3702 38.7795 88.2103 40.7422L91.2004 40.9857C91.3888 38.673 90.9423 35.5867 88.5793 33.8514L86.8035 36.2694ZM88.2103 40.7422C88.1306 41.7209 87.9392 42.6804 87.7445 43.7823C87.5566 44.846 87.3715 46.0179 87.3806 47.2355L90.3805 47.213C90.3736 46.2907 90.5138 45.3513 90.6988 44.3042C90.877 43.2954 91.106 42.1446 91.2004 40.9857L88.2103 40.7422ZM87.3806 47.2355C87.3986 49.6395 88.4538 52.7982 91.2968 53.8937L92.3755 51.0943C91.2227 50.6501 90.3946 49.089 90.3805 47.213L87.3806 47.2355ZM91.2971 53.8938C92.8801 54.5034 94.5236 54.2235 95.8478 53.5234C97.1666 52.8261 98.2869 51.6573 98.8959 50.2587L96.1453 49.061C95.8195 49.8092 95.1894 50.4779 94.4455 50.8713C93.7071 51.2617 92.9758 51.3255 92.3752 51.0942L91.2971 53.8938ZM98.8959 50.2587C100.056 47.5954 99.5546 44.6509 98.7011 42.3054L95.8819 43.3313C96.6276 45.3803 96.8553 47.4306 96.1453 49.061L98.8959 50.2587ZM98.701 42.3054C98.39 41.4505 98.1387 40.8953 97.9068 40.175C97.6968 39.5231 97.5913 38.9714 97.6166 38.4562L94.6202 38.309C94.5699 39.3335 94.7874 40.2756 95.0512 41.0946C95.2929 41.8453 95.6661 42.7381 95.8819 43.3313L98.701 42.3054ZM97.6166 38.4562C97.6364 38.052 97.8306 37.5928 98.1235 37.2763C98.4113 36.9653 98.6315 36.9446 98.7403 36.9637L99.2612 34.0093C97.8624 33.7627 96.6792 34.4202 95.9217 35.2387C95.1691 36.0518 94.676 37.1735 94.6202 38.309L97.6166 38.4562ZM98.7439 36.9644C98.9323 36.9971 99.1818 37.1167 99.4032 37.7891C99.6286 38.4737 99.6919 39.4019 99.6578 40.3105L102.656 40.423C102.695 39.3796 102.643 38.0349 102.253 36.8509C101.859 35.6549 100.994 34.3104 99.2576 34.0087L98.7439 36.9644ZM99.6578 40.3105C99.6154 41.438 99.7744 42.8265 100.29 43.992C100.807 45.1624 101.875 46.4468 103.705 46.4122L103.649 43.4127C103.538 43.4148 103.309 43.4024 103.034 42.7787C102.756 42.1503 102.625 41.2476 102.656 40.423L99.6578 40.3105ZM103.703 46.4122C105.294 46.3847 106.308 45.353 106.884 44.3683C107.453 43.3949 107.749 42.2353 107.906 41.3108L104.947 40.8111C104.817 41.5821 104.598 42.3333 104.294 42.8544C103.996 43.3642 103.778 43.4105 103.651 43.4127L103.703 46.4122ZM107.906 41.3053L109.705 30.4084L106.745 29.9198L104.946 40.8167L107.906 41.3053ZM106.756 30.4688C106.979 31.5423 107.279 32.9643 108.104 34.1799L110.586 32.4948C110.142 31.8409 109.929 30.9946 109.694 29.8594L106.756 30.4688ZM108.104 34.1799C108.939 35.4091 110.583 36.589 112.481 36.2401L111.938 33.2895C111.618 33.3485 111.021 33.1353 110.586 32.4948L108.104 34.1799ZM112.48 36.2402C113.674 36.0213 114.549 35.2565 115.087 34.4002C115.622 33.55 115.892 32.5176 115.853 31.5232L112.855 31.6415C112.871 32.0401 112.756 32.4729 112.548 32.8027C112.345 33.1263 112.12 33.2562 111.939 33.2894L112.48 36.2402ZM115.853 31.5232C115.781 29.7075 114.868 28.1193 114.208 26.958L111.599 28.4395C112.319 29.7069 112.817 30.671 112.855 31.6415L115.853 31.5232ZM114.209 26.9591C111.405 22.0133 108.196 16.4353 102.904 13.1989L101.339 15.7583C105.862 18.5248 108.729 23.3763 111.599 28.4385L114.209 26.9591ZM102.904 13.1988C98.0995 10.262 92.3265 9.72339 87.1858 9.26367L86.9186 12.2517C92.1799 12.7223 97.2304 13.2468 101.339 15.7584L102.904 13.1988ZM87.1856 9.26366L73.5622 8.04704L73.2953 11.0351L86.9187 12.2518L87.1856 9.26366ZM73.5625 8.04706C69.2229 7.65874 64.2529 6.78953 59.6184 6.82221L59.6395 9.82214C64.101 9.79067 68.5706 10.6124 73.2951 11.0351L73.5625 8.04706ZM59.6182 6.82222C50.8842 6.88473 42.0929 7.76231 33.542 9.78606L34.2329 12.7054C42.5268 10.7425 51.0889 9.88334 59.6397 9.82214L59.6182 6.82222ZM33.5418 9.78609C30.9645 10.3963 28.2691 11.1368 25.7626 12.4134L27.1241 15.0866C29.2962 13.9804 31.701 13.3049 34.233 12.7054L33.5418 9.78609ZM25.7626 12.4134C23.2522 13.6919 20.866 15.5669 19.3359 18.1293L21.9116 19.6674C23.0713 17.7252 24.9559 16.1909 27.1241 15.0866L25.7626 12.4134ZM19.3355 18.1298C17.7614 20.7685 17.2389 23.9465 16.5877 26.4452L19.4908 27.2018C20.2464 24.3025 20.6266 21.8213 21.9119 19.6668L19.3355 18.1298ZM16.5877 26.4455C16.0549 28.4914 15.3662 30.368 14.1604 31.7477L16.4193 33.7219C18.1049 31.7931 18.933 29.3439 19.4909 27.2015L16.5877 26.4455ZM14.1588 31.7496C14.0935 31.8245 13.9969 31.9111 13.8179 32.0556C13.6753 32.1707 13.4054 32.379 13.1827 32.6009C12.9462 32.8365 12.64 33.2012 12.4803 33.7165C12.3099 34.2662 12.3562 34.821 12.5471 35.3376L15.361 34.2973C15.3581 34.2895 15.371 34.3215 15.3743 34.3855C15.3777 34.4531 15.3691 34.5295 15.3458 34.6046C15.3018 34.7467 15.2343 34.7917 15.3 34.7263C15.3794 34.6471 15.4751 34.5732 15.7019 34.3903C15.8922 34.2367 16.1688 34.0094 16.4209 33.72L14.1588 31.7496ZM12.5466 35.3362C12.9181 36.3441 13.8062 36.8851 14.5041 37.1262C15.2086 37.3696 16.1202 37.4526 16.9246 37.1318L15.8134 34.3453C15.8552 34.3286 15.8401 34.3438 15.7542 34.3416C15.6746 34.3396 15.5776 34.3231 15.4839 34.2907C15.3886 34.2578 15.3316 34.2207 15.3095 34.2025C15.2887 34.1854 15.3294 34.2115 15.3615 34.2988L12.5466 35.3362Z" fill="#FF76B8"/>
<path d="M69.133 77.6854L69.5363 87.1824C69.589 88.4265 69.6623 89.7371 70.3267 90.791C71.1997 92.1658 72.8951 92.7981 74.5036 93.1006C77.3011 93.6253 80.1926 93.4694 82.9947 93.9781C85.7968 94.4867 88.6814 95.866 89.8981 98.439C90.5648 99.8504 90.5854 101.683 89.5498 102.843C88.7891 103.688 87.6298 104.027 86.5254 104.295C79.6618 105.961 72.5487 106.338 65.5473 105.409C64.3765 105.253 63.1141 105.01 62.3167 104.14C61.1207 102.836 61.5148 100.703 62.4977 99.2249C63.4806 97.7471 64.931 96.6473 65.9345 95.1878C67.394 93.0616 67.7675 90.3649 67.6781 87.7873C67.5887 85.2097 67.0618 82.6665 66.8945 80.0935C66.8395 79.2412 66.8372 78.3293 67.2978 77.6121C67.7583 76.895 68.8512 76.5261 69.4881 77.092" fill="#FF76B8"/>
<path d="M68.5587 77.6856C68.7076 81.214 68.6916 84.7883 69.0307 88.3121C69.2827 90.9363 70.6796 92.6265 73.2213 93.3826C76.335 94.3128 79.671 93.9439 82.8443 94.5281C85.5249 95.0253 88.6982 96.384 89.5941 99.2182C90.0798 100.756 89.6949 102.378 88.1896 103.148C86.7782 103.869 84.9659 104.089 83.4262 104.376C79.9416 105.024 76.4036 105.343 72.8593 105.327C71.2783 105.327 69.6997 105.255 68.1234 105.111C66.6181 104.981 64.7141 104.994 63.3554 104.22C61.9028 103.393 61.9646 101.626 62.5741 100.274C63.2615 98.7737 64.5995 97.7106 65.6466 96.4802C67.6422 94.1341 68.3181 91.1761 68.2654 88.1472C68.2333 86.3142 67.9515 84.4813 67.7293 82.6483C67.6101 81.6769 67.475 80.6939 67.452 79.7156C67.4314 78.8289 67.8415 76.6523 69.2025 77.5779C69.8143 77.9926 70.3871 77.0005 69.7799 76.5881C68.8199 75.9351 67.5643 76.2903 66.8953 77.1976C65.9971 78.4165 66.3087 80.1899 66.4577 81.5829C66.8518 85.2488 67.7201 89.1209 66.5058 92.7364C65.4266 95.9441 61.8638 97.6235 61.1375 100.962C60.8901 102.107 60.9886 103.347 61.7195 104.298C62.597 105.443 64.045 105.764 65.3991 105.954C69.2262 106.481 73.0974 106.612 76.9513 106.344C80.5714 106.096 84.5626 105.73 87.9994 104.474C90.7855 103.455 91.6172 100.597 90.3181 98.0153C89.019 95.4332 86.1665 94.0539 83.4697 93.4948C81.426 93.0732 79.3273 93.0366 77.2538 92.8762C75.3521 92.725 73.0746 92.5577 71.5258 91.293C69.7501 89.8335 70.0892 86.9924 70.0021 84.9281L69.7043 77.6856C69.6722 76.9501 68.5266 76.9478 68.5587 77.6856Z" fill="#FFC736"/>
<path d="M34.8201 16.7604C33.4936 16.6986 32.0364 16.8475 31.0901 17.7777C29.9812 18.8706 30.0087 20.825 30.9893 22.0302C31.9699 23.2353 33.7043 23.6867 35.2211 23.3361C36.3395 23.0948 37.3166 22.4201 37.9385 21.4597C38.239 20.9786 38.4133 20.4296 38.4453 19.8633C38.4774 19.297 38.3661 18.7318 38.1218 18.2199C37.8616 17.7167 37.4537 17.3051 36.9528 17.0405C36.4519 16.7759 35.8819 16.671 35.3196 16.7398" fill="#FF76B8"/>
<path d="M34.8195 16.1878C32.5833 16.1145 30.0424 16.8202 29.7193 19.3954C29.4215 21.7829 31.2544 23.696 33.5571 23.9778C35.9353 24.2688 38.5129 22.807 38.9574 20.3417C39.3606 18.1032 37.656 15.938 35.3167 16.1603C34.5881 16.229 34.5812 17.3746 35.3167 17.3059C37.2871 17.1203 38.419 19.1503 37.6079 20.871C36.8816 22.4038 34.9913 23.1324 33.3829 22.7956C31.7745 22.4588 30.4754 20.9626 30.9062 19.2465C31.3484 17.48 33.3004 17.2807 34.8195 17.3288C35.5573 17.3517 35.555 16.2061 34.8195 16.1832V16.1878Z" fill="#FFC736"/>
<path d="M41.5228 6.57401C40.9976 6.56688 40.4793 6.69441 40.0173 6.94445C39.5554 7.19449 39.1652 7.5587 38.884 8.00235C38.6028 8.44599 38.4399 8.95428 38.4109 9.47874C38.3819 10.0032 38.4878 10.5264 38.7184 10.9983C39.0193 11.609 39.514 12.1029 40.1252 12.4028C40.5357 12.6037 40.9862 12.7094 41.4432 12.7121C41.9002 12.7147 42.352 12.6142 42.7648 12.418C43.1776 12.2218 43.5408 11.9351 43.8273 11.579C44.1139 11.223 44.3165 10.8069 44.42 10.3618C44.5234 9.91661 44.5251 9.45383 44.4249 9.00792C44.3247 8.56201 44.1252 8.14445 43.8413 7.78634C43.5573 7.42823 43.1962 7.1388 42.7849 6.93961C42.3735 6.74041 41.9225 6.63659 41.4655 6.63587" fill="#FF76B8"/>
<path d="M41.5237 6.00125C39.5235 6.09519 37.8441 7.573 37.8418 9.6534C37.858 10.594 38.2413 11.491 38.9099 12.1528C39.5785 12.8145 40.4794 13.1887 41.4201 13.1953C42.3608 13.2018 43.2668 12.8403 43.9446 12.188C44.6224 11.5356 45.0182 10.6441 45.0476 9.70381C45.0888 7.66465 43.4117 6.18454 41.4642 6.06311C40.7287 6.01728 40.731 7.16288 41.4642 7.2087C44.4427 7.39429 44.736 11.8804 41.6498 12.1027C38.3115 12.3455 38.174 7.29119 41.5214 7.14684C42.2546 7.11247 42.2592 5.96688 41.5214 6.00125H41.5237Z" fill="#FFC736"/>
<path d="M62.746 19.9294C61.4836 20.1379 60.1249 20.5297 59.4009 21.586C58.6104 22.7316 58.8808 24.411 59.8064 25.4604C60.7321 26.5097 62.1709 26.9932 63.5709 27.0367C64.5629 27.0665 65.6123 26.8717 66.3661 26.2256C67.5965 25.174 67.6446 23.1577 66.7694 21.7945C65.8941 20.4312 64.3224 19.6568 62.7392 19.3223" fill="#FF76B8"/>
<path d="M62.5906 19.3773C60.2765 19.7874 57.9853 21.0934 58.4183 23.797C58.8399 26.3655 61.4908 27.6783 63.8988 27.6096C66.2427 27.5431 68.1123 25.9851 67.9199 23.5175C67.7114 20.8483 65.2758 19.3223 62.8792 18.7702C62.1621 18.6052 61.8551 19.7095 62.5745 19.8745C64.3044 20.2732 66.2106 21.1828 66.6826 23.0639C67.1752 25.0251 65.7982 26.4113 63.8897 26.4617C62.1323 26.5075 60.0955 25.7331 59.5914 23.8818C58.9865 21.6548 61.1219 20.791 62.8861 20.4771C63.6101 20.3488 63.3031 19.2444 62.5814 19.3727L62.5906 19.3773Z" fill="#FFC736"/>
<path d="M96.0189 17.1977C94.9351 16.8105 93.7987 16.4875 92.6485 16.5516C91.4983 16.6158 90.323 17.1244 89.6998 18.0936C88.9414 19.269 89.1797 20.9118 90.0457 22.0115C90.4441 22.5148 90.9553 22.9172 91.538 23.1863C92.1207 23.4554 92.7586 23.5835 93.4 23.5604C94.0408 23.5244 94.6621 23.327 95.2061 22.9865C95.7501 22.646 96.1991 22.1735 96.5115 21.6129C96.8104 21.0449 96.9501 20.4066 96.9158 19.7657C96.8815 19.1247 96.6745 18.505 96.3167 17.9722" fill="#FF76B8"/>
<path d="M96.1748 16.6572C93.9867 15.8989 91.1342 15.4406 89.4547 17.4821C88.1121 19.118 88.6299 21.5833 90.1192 22.9374C90.8764 23.6332 91.8485 24.0497 92.8747 24.1181C93.9008 24.1864 94.9195 23.9024 95.7624 23.3131C96.6207 22.6871 97.2075 21.7568 97.4025 20.7125C97.5976 19.6682 97.3863 18.5888 96.8117 17.6951C96.4245 17.0697 95.437 17.6447 95.822 18.2725C97.9092 21.6337 93.2283 24.5825 90.6782 21.8812C89.5326 20.6737 89.4708 18.607 90.9646 17.6562C92.4585 16.7054 94.3235 17.2255 95.8678 17.7593C96.5551 18.0022 96.8667 16.8955 96.1725 16.6549L96.1748 16.6572Z" fill="#FFC736"/>
<path d="M88.7638 7.45358C88.1632 7.02082 87.4276 6.81726 86.69 6.87971C85.9524 6.94216 85.2615 7.2665 84.7422 7.79408C84.2229 8.32165 83.9096 9.01763 83.8589 9.75614C83.8081 10.4947 84.0233 11.2269 84.4656 11.8206C84.7974 12.2579 85.2391 12.5995 85.7457 12.8108C86.2524 13.0221 86.806 13.0955 87.3502 13.0235C87.8922 12.9372 88.4002 12.7041 88.8191 12.3495C89.238 11.9948 89.5517 11.5322 89.7261 11.0118C89.8823 10.4876 89.8873 9.92995 89.7406 9.40302C89.5938 8.8761 89.3013 8.4013 88.8967 8.03325" fill="#FF76B8"/>
<path d="M89.0548 6.95875C87.5037 5.96208 85.3362 6.16829 84.1333 7.62549C83.5638 8.34237 83.2758 9.24263 83.3235 10.157C83.3711 11.0713 83.7512 11.9367 84.3922 12.5905C85.053 13.2312 85.934 13.5946 86.8544 13.6061C87.7747 13.6176 88.6646 13.2763 89.3412 12.6524C90.8144 11.2593 90.7159 9.00249 89.3045 7.61174C88.7798 7.09164 87.9711 7.90272 88.4934 8.42282C90.9496 10.8606 86.8713 14.1508 84.9375 11.4678C83.242 9.11018 86.161 6.45927 88.4774 7.94625C89.1006 8.34492 89.6757 7.35513 89.0548 6.95646V6.95875Z" fill="#FFC736"/>
<path d="M64.8223 5.13931C63.2506 4.89187 61.6147 6.16348 61.4474 7.74898C61.2802 9.33448 62.6549 10.9039 64.245 10.9681C65.8351 11.0323 67.3243 9.58193 67.2991 7.98955C67.2808 6.84396 66.5705 5.77856 65.6334 5.11182" fill="#FF76B8"/>
<path d="M64.8221 4.56675C63.959 4.48834 63.096 4.71827 62.3863 5.21573C61.6766 5.71318 61.1661 6.44599 60.9454 7.2841C60.5307 9.00249 61.7015 10.8079 63.3237 11.3647C64.9939 11.9398 66.8131 10.9798 67.5463 9.42865C68.4124 7.5957 67.3882 5.76275 65.9219 4.61715C65.3376 4.15892 64.7763 5.16246 65.3445 5.60695C66.2908 6.33784 67.0262 7.54529 66.5932 8.76421C66.1602 9.98312 64.7602 10.7255 63.5574 10.2191C60.9248 9.1033 62.1025 5.45573 64.8244 5.71005C65.5576 5.77879 65.553 4.63319 64.8244 4.56446L64.8221 4.56675Z" fill="#FFC736"/>
<path d="M112.363 48.6196C88.0874 57.7294 61.7828 60.0271 36.2955 55.2641C32.7823 54.6011 29.2951 53.803 25.8339 52.8698C22.3605 51.9304 18.9145 50.8535 15.8741 48.8785C15.2532 48.4753 14.6781 49.4673 15.2967 49.8683C17.9545 51.5936 20.9331 52.6681 23.962 53.5342C27.1284 54.4507 30.3361 55.2159 33.5621 55.885C39.8141 57.1767 46.146 58.0462 52.5148 58.4878C65.4908 59.3886 78.5289 58.5246 91.2726 55.9193C98.5564 54.4252 105.71 52.3567 112.668 49.7331C113.355 49.4765 113.055 48.3584 112.363 48.6288V48.6196Z" fill="#FFC736"/>
</svg>
