<svg width="128" height="112" viewBox="0 0 128 112" fill="none" xmlns="http://www.w3.org/2000/svg">
<g clip-path="url(#clip0_64_4098)">
<path d="M53.1716 63.2541C51.5979 66.7911 51.2105 70.6231 51.5276 74.4571C51.7023 76.5768 52.0515 78.6725 52.4289 80.7722C52.6116 81.7899 52.8043 82.8076 52.9829 83.8253C53.1395 84.7186 53.5149 85.8467 53.3523 86.754C53.0853 88.2535 50.8552 89.215 49.6748 89.8232C48.0399 90.6595 46.3059 91.2861 44.514 91.6881C42.7977 92.0895 40.8024 92.4268 39.038 92.1899C37.3779 91.9671 37.2314 89.763 36.9022 88.4583C36.6191 87.3643 36.3341 86.2743 35.8343 85.2465C35.2321 84.008 34.385 82.8678 33.6503 81.7056C32.6466 80.1118 30.1013 81.5831 31.115 83.189C31.8256 84.3151 32.6285 85.4171 33.2368 86.6015C33.2609 86.6497 33.4797 87.1334 33.3753 86.8805C33.4596 87.0812 33.5318 87.304 33.6001 87.5188C33.8008 88.1692 33.9694 88.8356 34.1401 89.4961C34.5957 91.2685 34.9952 93.2377 36.6111 94.3418C38.2712 95.4759 40.6258 95.2049 42.5207 94.9781C46.5053 94.5003 50.6062 93.1374 53.8421 90.7025C55.5142 89.4439 56.4837 87.828 56.2388 85.6841C55.9819 83.45 55.4801 81.2379 55.0946 79.0218C54.2797 74.3346 53.7176 69.2039 55.7109 64.7195C56.0361 63.9888 55.9116 63.1498 55.185 62.7122C54.5627 62.3388 53.4968 62.5114 53.1776 63.2381L53.1716 63.2541Z" fill="#FFC736"/>
<path d="M33.6764 82.0267C31.7071 79.3859 29.561 76.8817 27.2529 74.5313C26.0786 73.3269 24.7859 72.1346 23.1619 71.7211C21.6404 71.3296 20.0425 71.6809 18.4728 71.7492C16.9031 71.8174 15.1286 71.4882 14.2474 70.1875C13.8198 69.5552 13.5669 68.68 12.8422 68.4551C12.2099 68.2544 11.5736 68.6779 10.9453 68.8867C9.5221 69.3564 7.91221 68.698 6.88044 67.612C5.84867 66.5261 5.28863 65.0808 4.83497 63.6516C4.2689 61.8711 3.8313 59.9882 4.12036 58.1434C4.24481 57.3746 4.49573 56.6279 4.54792 55.8511C4.70851 53.5246 3.0926 51.4189 2.90793 49.0944C2.72727 46.816 3.98185 44.604 5.7182 43.1266C7.45454 41.6492 9.65057 40.792 11.8366 40.0955C12.4086 39.9128 13.0109 39.7221 13.4244 39.2926C13.7028 38.9493 13.9232 38.5628 14.0767 38.1484C15.4819 35.047 18.1697 32.6583 21.1727 31.0504C24.1757 29.4426 27.5038 28.5473 30.824 27.7905C31.8397 27.5597 32.9317 27.3449 33.8972 27.7343C34.3328 27.911 34.7162 28.202 35.1518 28.3787C36.3562 28.8685 37.7252 28.4108 38.9336 27.925C40.9791 27.104 43.0466 26.1846 45.2467 26.0682C47.4467 25.9518 49.8635 26.839 50.8672 28.8002C51.1964 29.4426 51.3931 30.2053 51.9833 30.6249C52.7501 31.1648 53.7899 30.8637 54.7293 30.8256C56.9936 30.7453 59.017 32.4114 60.101 34.4007C61.1849 36.3899 61.5402 38.6803 62.0039 40.8984C62.0882 41.2999 62.1946 41.7375 62.5078 42.0085C62.7749 42.1978 63.0795 42.3279 63.401 42.3899C66.6951 43.3554 68.8048 47.2396 67.8172 50.5296C67.2029 52.5891 65.6332 54.203 64.0715 55.6804C59.4546 60.0564 54.1873 64.1253 47.9746 65.5164C47.4969 65.6228 46.971 65.7352 46.6679 66.1186C46.4596 66.4235 46.3388 66.7796 46.3186 67.1484C46.0596 69.0312 46.0335 70.9502 45.612 72.805C45.1905 74.6598 44.2992 76.5045 42.7174 77.5604C40.0918 79.3108 35.9587 78.7006 34.2625 81.3603C33.9554 81.8421 34.1923 81.8019 33.6724 82.0388" fill="#FFC736"/>
<path d="M36.2107 80.5432C34.0451 77.6074 31.6731 74.8296 29.1127 72.2308C27.8521 70.9702 26.4851 69.8722 24.8271 69.1977C23.0687 68.4811 21.234 68.5955 19.3852 68.7441C18.9837 68.7782 18.5943 68.8123 18.1989 68.8163C18.0102 68.8163 17.8235 68.8163 17.6328 68.8043C17.6047 68.8043 17.145 68.7521 17.4582 68.8043C17.7713 68.8565 17.3156 68.7702 17.2915 68.7621C17.1129 68.71 16.9302 68.6718 16.7556 68.6096C16.9724 68.6879 17.0065 68.8384 16.7154 68.5654C16.5288 68.3908 16.5147 68.3346 16.6753 68.5333C16.9864 68.9207 16.5368 68.2784 16.4585 68.1439C16.3039 67.8829 16.1534 67.63 15.9727 67.3831C15.2099 66.3373 14.2223 65.6548 12.9155 65.5243C11.8316 65.4159 11.0166 65.7993 10.021 66.0964C9.67571 66.1988 10.021 66.1225 10.0752 66.0964C9.97279 66.1345 9.52315 66.0201 9.97882 66.1165C9.83289 66.0851 9.68935 66.0435 9.54925 65.992C9.24815 65.8816 9.77607 66.249 9.29833 65.8334C8.94504 65.5263 9.25617 65.8937 8.95909 65.5283C8.56966 65.0506 8.73828 65.2754 8.81657 65.3778C8.69301 65.2046 8.57974 65.0243 8.47733 64.8378C8.16458 64.3175 7.92607 63.756 7.76874 63.1697C7.28497 61.7084 6.8012 60.1125 6.98387 58.7536C7.10832 57.8302 7.38534 56.947 7.46965 56.0115C7.52873 55.0653 7.43106 54.1157 7.18059 53.2013C6.83733 51.8383 5.97619 50.1662 5.83567 49.012C5.86779 49.2729 5.83567 48.7711 5.83567 48.7771C5.83567 48.5764 5.83567 48.3756 5.85575 48.1609C5.81359 48.5764 5.94407 47.8577 5.9802 47.7353C6.03391 47.5363 6.10097 47.3411 6.18093 47.1512C6.10666 47.3138 6.02838 47.4121 6.28331 47.0086C6.36561 46.8762 6.43988 46.7377 6.52218 46.6072C6.5543 46.555 6.92365 46.0471 6.70686 46.3101C7.62421 45.1478 8.71419 44.5216 10.1013 43.8491C10.7061 43.5814 11.3245 43.3455 11.954 43.1425C12.8272 42.8474 13.7606 42.6045 14.5515 42.1027C16.1795 41.0569 16.6251 39.2623 17.6609 37.7468C17.9796 37.2706 18.3499 36.831 18.7649 36.436C19.2571 35.9362 19.7793 35.467 20.3286 35.0309C22.6692 33.2664 25.7484 32.1222 28.7595 31.3153C29.5825 31.0945 30.4135 30.8917 31.2445 30.701C31.5476 30.6308 32.0876 30.5003 32.2482 30.4762C32.192 30.4762 33.1656 30.5465 32.7621 30.4381C32.9427 30.4863 33.3864 30.7813 33.6694 30.9138C34.226 31.1819 34.8215 31.3601 35.4338 31.4418C36.5315 31.5789 37.6458 31.4726 38.6978 31.1306C40.3338 30.6208 41.8633 29.8178 43.5154 29.3481C44.1645 29.1366 44.8404 29.0183 45.5227 28.9968C45.7094 28.9968 45.8921 29.0089 46.0788 29.0089C46.1109 29.0089 46.5645 29.0631 46.2454 29.0089C45.8941 28.9587 46.4662 29.0631 46.5424 29.0811C46.7231 29.1253 46.8997 29.1815 47.0804 29.2317C47.528 29.3561 46.7331 29.045 47.1487 29.2417C47.2731 29.2999 47.3956 29.3622 47.514 29.4304C47.6721 29.5184 47.8249 29.6156 47.9717 29.7215C47.9215 29.6833 47.6686 29.4605 47.8974 29.6893C47.9496 29.7415 48.325 30.153 48.1162 29.8901C47.9074 29.6271 48.1865 30.0045 48.2005 30.0326C48.3631 30.3618 48.5197 30.691 48.6762 31.0222C49.5916 32.9593 51.4865 33.9911 53.6143 33.8506C53.9877 33.8265 54.359 33.7642 54.7324 33.7562C54.8789 33.7562 55.0255 33.7562 55.172 33.7562C55.6457 33.7863 54.7986 33.6458 55.2483 33.7883C55.6564 33.901 56.037 34.0964 56.3664 34.3624C56.9826 34.9245 57.097 35.063 57.4242 35.611C57.7762 36.1907 58.0464 36.8162 58.2272 37.4698C58.743 39.1479 58.8294 41.0047 59.5018 42.6206C60.0157 43.8471 60.925 44.6099 62.1656 45.0575C62.3181 45.1117 63.2053 45.4068 62.6714 45.184C62.9878 45.3284 63.2919 45.4982 63.5807 45.6918C63.6891 45.7601 63.9661 46.0431 63.6068 45.7099C63.7069 45.794 63.8027 45.8831 63.8939 45.9769C64.0003 46.0993 64.5202 46.7075 64.205 46.276C64.382 46.5267 64.5455 46.7867 64.6948 47.0548C64.761 47.1692 64.8172 47.2877 64.8755 47.4061C64.6908 47.0307 64.8514 47.3378 64.9176 47.5587C65.0059 47.8537 65.0822 48.1448 65.1444 48.4459C65.032 47.8999 65.1444 48.6125 65.1444 48.8333C65.1444 49.0541 64.9959 49.7928 65.1444 49.2207C65.1143 49.3492 65.0922 49.4797 65.0521 49.6041C65.032 49.6664 64.8514 50.2405 64.9758 49.9273C64.4118 51.3324 63.5888 52.0752 62.4948 53.139C61.3345 54.2672 60.1301 55.3525 58.8815 56.3949C56.5154 58.4072 53.8914 60.0949 51.079 61.4133C50.8422 61.5217 50.0051 61.8489 49.4732 62.0295C48.6381 62.3106 47.785 62.4912 46.9379 62.7241C45.9409 62.9626 45.0484 63.5184 44.3946 64.3079C43.6398 65.2654 43.5074 66.3152 43.3648 67.4955C43.1641 69.1997 43.138 70.8116 42.7004 72.4336C42.6114 72.7741 42.5028 73.1092 42.3752 73.4372C42.3993 73.375 42.5197 73.1281 42.3752 73.4372C42.2869 73.6179 42.1946 73.7965 42.0962 73.9712C42.032 74.0836 41.5121 74.7741 41.7831 74.473C41.6686 74.6035 40.9801 75.1957 41.2692 74.9969C41.0184 75.1602 40.7568 75.3064 40.4863 75.4345C40.1852 75.5851 40.5465 75.4064 40.5907 75.3904C40.4261 75.4506 40.2615 75.5088 40.0949 75.563C39.4626 75.7637 38.8122 75.9183 38.1658 76.0729C36.845 76.39 35.5141 76.7453 34.3198 77.4158C33.6783 77.773 33.096 78.2274 32.5935 78.7627C32.2751 79.094 31.9943 79.4596 31.7564 79.8527C31.7343 79.8928 31.5557 80.1538 31.5818 80.1899C31.5175 80.0956 32.9367 79.126 32.2201 79.4773C30.7969 80.1759 30.4135 82.1973 31.1663 83.492C32.0154 84.9433 33.7557 85.2484 35.1809 84.5458C35.9277 84.1785 36.3492 83.5964 36.7667 82.9139C36.9293 82.6489 36.6844 82.9741 36.6603 83.0042C36.7627 82.8737 36.8831 82.7733 36.9956 82.6529C37.3509 82.2695 37.0819 82.6047 36.9675 82.671C37.1421 82.5706 37.3167 82.4702 37.4934 82.3719C37.7804 82.2113 37.395 82.4 37.3549 82.416C37.5094 82.3518 37.67 82.2976 37.8286 82.2434C38.1558 82.133 38.489 82.0427 38.8222 81.9544C39.4646 81.7857 40.115 81.6492 40.7593 81.4786C42.4254 81.041 43.9851 80.3806 45.2979 79.2485C46.6689 78.0661 47.5541 76.4061 48.1403 74.7179C48.7947 72.835 48.9131 70.7896 49.0978 68.8204C49.1399 68.3808 49.154 67.9291 49.2363 67.4955C49.166 67.8669 49.2785 67.361 49.2865 67.355L48.7465 67.913C48.0694 68.4269 47.9857 68.5862 48.4956 68.3908C49.3326 68.3105 50.238 67.9632 51.0309 67.6963C54.3169 66.561 57.4028 64.9134 60.1743 62.8144C62.9966 60.7107 65.9253 58.3802 68.1795 55.6583C70.502 52.848 71.7446 49.3472 70.4759 45.7721C69.9485 44.2049 69.0433 42.7916 67.8403 41.6571C67.2445 41.0974 66.5769 40.6195 65.855 40.2359C65.4323 40.026 64.9981 39.8404 64.5543 39.6799C64.3845 39.6012 64.2059 39.5432 64.0223 39.5072C63.6503 39.3734 63.7714 39.5179 64.3857 39.9408C64.8634 40.5617 65.0133 40.6193 64.8353 40.1134C64.8734 39.7481 64.6587 39.2503 64.5844 38.8829C64.5001 38.4815 64.4178 38.0599 64.3254 37.6524C64.125 36.7201 63.8567 35.8036 63.5225 34.9104C62.832 33.1179 61.8805 31.3855 60.3951 30.1229C58.8775 28.8342 57.1673 28.0212 55.162 27.8948C54.7489 27.8819 54.3356 27.9006 53.9254 27.951L53.4437 27.9911C52.6568 28.0654 53.2429 27.949 53.3052 28.0333C53.3674 28.1176 54.0599 28.3826 53.9857 28.5452C53.9331 28.4202 53.87 28.3 53.797 28.1859C53.6163 27.8165 53.4758 27.4271 53.263 27.0718C51.2557 23.7175 47.1808 22.744 43.5455 23.3221C41.6526 23.6232 39.9122 24.386 38.1417 25.0845C37.7403 25.2391 37.3549 25.3916 36.9494 25.5081C36.576 25.6165 36.4676 25.7208 36.1565 25.6405C36.558 25.7449 35.7189 25.3555 35.6868 25.3374C35.1571 25.0554 34.592 24.8454 34.0066 24.7132C31.9772 24.2976 29.8595 24.9581 27.9003 25.4579C26.0684 25.9098 24.2707 26.4907 22.5207 27.1962C19.2346 28.5492 16.0751 30.424 13.7867 33.2002C13.1968 33.902 12.6601 34.6467 12.1809 35.4283C11.9962 35.7375 11.8249 36.0533 11.667 36.3758C11.5669 36.5648 11.4771 36.7592 11.398 36.9579L11.2535 37.257C11.3078 37.2291 11.3589 37.1955 11.406 37.1566C11.4161 37.1125 11.6268 37.0683 11.6248 37.0663C11.6228 37.0643 11.123 37.2369 11.0507 37.267C10.6693 37.3935 10.2879 37.516 9.91057 37.6504C8.91342 37.999 7.93576 38.4011 6.98186 38.8548C3.69786 40.4346 0.737038 43.3593 0.120786 47.0849C-0.210425 49.0802 0.172977 50.929 0.8635 52.8038C1.15525 53.5456 1.39931 54.3052 1.59417 55.0781C1.59417 55.0781 1.6564 55.5739 1.63632 55.305C1.61224 54.9938 1.62428 55.6362 1.62227 55.6964C1.61023 56.0216 1.62227 55.8088 1.63432 55.7325C1.59417 56.0597 1.4918 56.3889 1.42154 56.7101C0.618605 60.4096 1.54599 64.8719 3.5714 68.0857C4.65536 69.804 6.27528 71.2312 8.27659 71.7511C9.31254 72.026 10.4 72.0432 11.4442 71.8013C11.821 71.7307 12.1842 71.6006 12.5201 71.4158L12.6787 71.3556C12.4257 71.3997 12.1654 71.3729 11.9267 71.2784C11.6879 71.1838 11.4799 71.025 11.3257 70.8197C10.7998 70.4182 11.1531 70.6892 11.3257 70.9923C12.2873 72.6504 13.596 73.8186 15.4629 74.3566C17.2695 74.8765 19.0219 74.6075 20.8445 74.5031C21.6655 74.457 22.1413 74.4268 22.8378 74.7039C23.3015 74.8825 22.5568 74.5393 22.9843 74.7902C23.1188 74.8685 23.2553 74.9427 23.3858 75.027C23.6738 75.1862 23.9353 75.3894 24.1606 75.6292C25.4897 76.8688 26.7458 78.1845 27.9224 79.5696C29.0465 80.8483 30.1586 82.2053 31.1341 83.5221C32.0836 84.7907 33.6734 85.4411 35.1488 84.5759C36.3974 83.8453 37.1561 81.8339 36.2027 80.5613L36.2107 80.5432Z" fill="#FFC736"/>
<path d="M34.8659 82.2853C33.3684 79.8123 31.343 77.7547 29.0988 75.9522C27.9907 75.0609 26.8385 74.2238 25.6743 73.4068C24.5441 72.6039 23.3297 71.536 21.9326 71.2831C21.2983 71.1667 20.7141 71.3072 20.0919 71.4176C19.2438 71.5896 18.3631 71.4927 17.5727 71.1406C16.8748 70.8184 16.24 70.3745 15.6978 69.8298C15.2582 69.4002 14.8949 68.7719 14.3469 68.4708C13.7989 68.1697 13.299 68.3303 12.7651 68.4929C11.8538 68.7719 10.9203 69.0429 9.97288 68.7599C8.63599 68.3584 7.47977 66.9533 6.74508 65.8312C5.88499 64.5172 5.32442 63.0301 5.1031 61.4753C4.88178 59.9205 5.00513 58.3361 5.4644 56.8343C5.68922 56.1096 4.55508 55.8005 4.33226 56.5211C3.55703 59.0454 3.65461 61.7572 4.60928 64.2193C5.47444 66.4454 7.25093 69.1372 9.65773 69.888C10.26 70.0624 10.8934 70.1015 11.5125 70.0024C12.4861 69.8679 13.568 69.1995 14.3228 70.0747C15.214 71.1004 16.3161 71.9696 17.6128 72.4132C18.2429 72.6313 18.9109 72.7188 19.576 72.6702C20.5796 72.5899 21.4328 72.2045 22.4244 72.6702C23.7914 73.3085 25.064 74.3925 26.2825 75.2797C29.1951 77.3934 31.9632 79.7681 33.8441 82.8775C34.2356 83.5238 35.2493 82.9337 34.8578 82.2753L34.8659 82.2853Z" fill="#FF76B8"/>
<path d="M7.62006 57.814C5.19118 55.0198 2.7061 51.3343 4.07711 47.4702C5.40797 43.7225 9.32228 41.9279 12.8632 40.8861C13.5879 40.6733 13.2787 39.5392 12.5501 39.754C8.58558 40.9202 4.42036 42.9858 2.95099 47.157C1.44148 51.4407 4.09317 55.5357 6.79504 58.645C7.29286 59.2171 8.11988 58.3821 7.62608 57.814H7.62006Z" fill="#FF76B8"/>
<path d="M13.6766 43.3289C13.6267 40.9748 14.2041 38.6498 15.3495 36.5925C16.4949 34.5352 18.1671 32.8197 20.1944 31.6221C22.2841 30.3956 24.6387 29.6991 27.0033 29.2254C29.368 28.7516 32.2987 28.0029 34.5348 29.1993C35.2013 29.5546 35.7954 28.5409 35.137 28.1856C32.7905 26.931 30.0264 27.487 27.5333 27.9366C24.7892 28.4305 22.0311 29.1892 19.6103 30.6104C17.4072 31.9129 15.5891 33.7767 14.3418 36.0115C13.0944 38.2463 12.4625 40.772 12.5103 43.3309C12.5264 44.0857 13.7007 44.0877 13.6846 43.3309L13.6766 43.3289Z" fill="#FF76B8"/>
<path d="M33.7353 32.4633C35.4034 29.4644 38.9082 27.7019 42.2203 27.2784C44.9924 26.9251 50.0208 27.3265 50.89 30.6627C51.0807 31.3934 52.2148 31.0843 52.0221 30.3496C51.0365 26.5658 45.9037 25.7528 42.6177 26.0579C38.7616 26.4152 34.6606 28.3824 32.7196 31.8691C32.3522 32.5296 33.3659 33.1237 33.7333 32.4713L33.7353 32.4633Z" fill="#FF76B8"/>
<path d="M45.7593 32.9274C49.2782 32.1244 52.6505 30.7615 56.0951 32.6323C59.1221 34.2763 60.712 37.5824 60.3707 40.9708C60.2944 41.7215 61.4707 41.7175 61.545 40.9708C61.9164 37.3034 60.1559 33.654 56.9623 31.7732C55.4075 30.8546 53.6246 30.3946 51.8195 30.4463C49.6335 30.5206 47.5579 31.3095 45.4462 31.7952C44.7095 31.9639 45.0206 33.098 45.7593 32.9274Z" fill="#FF76B8"/>
<path d="M56.3786 42.2432C58.8476 41.7574 61.4451 41.4824 63.9643 41.6691C66.2527 41.8397 67.2563 45.4569 67.5153 47.386C67.6766 48.4731 67.6198 49.5814 67.3482 50.6464C67.0766 51.7113 66.5957 52.7115 65.9335 53.5886C64.6287 55.3109 62.8241 56.5776 61.0717 57.804C60.4575 58.2336 61.0436 59.2533 61.6739 58.8177C63.7375 57.3725 65.8612 55.8629 67.2764 53.7332C68.6695 51.6375 69.0389 49.1163 68.5932 46.6653C68.3487 45.3731 67.9023 44.1273 67.2704 42.9738C66.7625 42.0344 66.1302 40.9464 65.0342 40.6313C63.7475 40.2619 62.1758 40.4305 60.859 40.5008C59.2516 40.588 57.6524 40.7893 56.0735 41.103C55.3328 41.2495 55.6459 42.3817 56.3866 42.2351L56.3786 42.2432Z" fill="#FF76B8"/>
<path d="M25.0523 68.8364C24.9499 69.5189 23.9322 69.8742 23.3641 70.1151C22.7046 70.3865 22.0164 70.5818 21.3126 70.6972C20.5699 70.8277 20.8851 71.9598 21.6258 71.8294C22.6325 71.6573 23.6072 71.3331 24.5163 70.8678C25.239 70.4945 26.054 70.0227 26.1864 69.1475C26.2968 68.4088 25.1647 68.0897 25.0543 68.8344L25.0523 68.8364Z" fill="#FF76B8"/>
<path d="M14.1242 68.2241C12.9102 65.2661 12.5662 62.0229 13.1326 58.876C13.6766 55.9754 14.9071 53.0868 17.4684 51.4388C18.6272 50.7283 19.8744 50.1736 21.178 49.7887C22.5831 49.3411 24.1589 48.757 25.6423 48.7269C27.3706 48.6907 28.6714 49.7305 29.8416 50.8868C30.9035 51.9366 31.8911 53.1631 32.0156 54.7007C32.0758 55.4494 33.2501 55.4555 33.1899 54.7007C32.9891 52.2638 31.1966 50.2966 29.3338 48.8674C28.296 48.0805 27.1418 47.5586 25.823 47.5586C24.4499 47.5586 23.0829 48.0102 21.7762 48.3896C19.3674 49.0922 16.8662 50.0256 15.0917 51.8884C13.2671 53.8034 12.3116 56.5213 11.9141 59.0927C11.4157 62.2832 11.7881 65.549 12.9921 68.5453C13.2711 69.2378 14.4072 68.9347 14.1242 68.2321V68.2241Z" fill="#FF76B8"/>
<path d="M32.912 51.9529C32.8658 51.6317 35.8828 51.2403 36.1558 51.2202C37.2819 51.1359 38.4161 51.2564 39.4258 51.7923C41.5034 52.8964 42.5452 55.1687 43.1614 57.3286C43.8018 59.5748 44.1651 61.6865 42.8242 63.752C41.5656 65.7092 39.5081 66.9236 37.5569 68.0919C36.9086 68.4793 37.4987 69.497 38.1591 69.1056C40.6322 67.6262 43.2377 65.9922 44.4301 63.2402C45.5562 60.6306 44.679 57.5594 43.6271 55.0663C42.5753 52.5732 40.6382 50.4494 37.856 50.0781C36.491 49.8954 35.108 50.1162 33.7771 50.4213C32.7735 50.6542 31.6072 51.0075 31.7858 52.256C31.8922 53.0007 33.0244 52.6836 32.918 51.9429L32.912 51.9529Z" fill="#FF76B8"/>
<path d="M37.2835 65.189C36.3079 67.646 37.2936 70.378 37.8757 72.8169L38.8793 77.0504C39.1784 78.303 39.4514 79.5515 40.1781 80.6355C40.5976 81.2598 41.6153 80.6716 41.1918 80.0333C40.4852 78.9815 40.2544 77.751 39.9653 76.5365L39.0941 72.8812C38.5381 70.5506 37.4782 67.8427 38.4116 65.4942C38.6907 64.7916 37.5545 64.4905 37.2795 65.181L37.2835 65.189Z" fill="#FF76B8"/>
<path d="M40.0296 50.8564C42.0003 48.1525 44.8316 46.1989 48.0589 45.3161C49.6527 44.8805 51.3971 44.6577 53.0431 44.8825C55.0123 45.1515 56.022 46.5908 56.8571 48.2468C57.7504 50.013 58.4892 51.8533 59.0651 53.7469C59.6212 55.5636 60.0929 57.6853 58.7962 59.3052C57.7584 60.602 56.0662 61.423 54.641 62.2139C52.9367 63.1593 51.0699 64.0385 49.0806 64.0606C48.4343 64.0606 47.5731 63.7575 46.997 64.173C46.4209 64.5885 46.1941 65.6103 45.9673 66.2506C45.2848 68.1275 44.8853 70.0886 45.4313 72.0498C45.632 72.7765 46.7682 72.4673 46.5634 71.7367C46.2759 70.6595 46.2648 69.5272 46.5313 68.4446C46.6519 67.9222 46.8013 67.4069 46.979 66.901C47.1295 66.4634 47.2901 65.6705 47.6394 65.3513C47.9003 65.1125 47.8401 65.1506 48.2014 65.1887C48.4927 65.2212 48.7856 65.2373 49.0786 65.2369C49.4821 65.2309 49.8846 65.196 50.283 65.1325C51.2642 64.969 52.2206 64.6817 53.1294 64.2774C54.9124 63.5161 56.6072 62.5631 58.1839 61.435C59.5308 60.4615 60.5626 59.2269 60.7714 57.5207C61.0082 55.6037 60.3157 53.6385 59.6814 51.86C59.0471 50.0815 58.2923 48.2127 57.2886 46.5787C56.3914 45.1194 55.1729 44.0394 53.4426 43.7564C51.7665 43.4834 49.988 43.654 48.3399 44.0334C44.5813 44.9148 41.2678 47.1248 39.0098 50.2562C38.5662 50.8704 39.5859 51.4606 40.0235 50.8584L40.0296 50.8564Z" fill="#FF76B8"/>
<path d="M23.203 48.384C23.8272 43.3656 28.8616 40.8765 33.2115 39.6982C35.7207 39.0177 37.9167 39.0679 40.2753 40.2322C42.2104 41.1857 43.9407 42.641 44.6734 44.7326C44.9223 45.4412 46.0585 45.1341 45.8056 44.4195C44.9886 42.097 43.1699 40.3787 41.002 39.2827C38.4507 37.992 35.9837 37.7611 33.2336 38.4798C28.1771 39.7906 22.7393 42.655 22.0267 48.388C21.9343 49.1367 23.1086 49.1307 23.2009 48.388L23.203 48.384Z" fill="#FF76B8"/>
<path d="M37.2259 47.4704L37.3403 47.4423C37.4183 47.4251 37.492 47.3922 37.5569 47.3457C37.6217 47.2991 37.6764 47.2398 37.7176 47.1714C37.7588 47.1029 37.7857 47.0269 37.7965 46.9477C37.8074 46.8686 37.802 46.7881 37.7807 46.7111C37.7594 46.6342 37.7226 46.5623 37.6727 46.5C37.6227 46.4377 37.5606 46.3862 37.4901 46.3487C37.4196 46.3112 37.3422 46.2884 37.2626 46.2818C37.183 46.2752 37.1029 46.2848 37.0272 46.3102L36.9128 46.3383C36.8348 46.3555 36.7611 46.3883 36.6963 46.4349C36.6314 46.4815 36.5767 46.5408 36.5355 46.6092C36.4943 46.6776 36.4674 46.7537 36.4566 46.8329C36.4458 46.912 36.4512 46.9925 36.4725 47.0694C36.4937 47.1464 36.5305 47.2182 36.5804 47.2806C36.6304 47.3429 36.6925 47.3943 36.763 47.4319C36.8335 47.4694 36.9109 47.4921 36.9905 47.4988C37.0701 47.5054 37.1502 47.4957 37.2259 47.4704Z" fill="#FF76B8"/>
<path d="M105.008 33.56C101.861 31.4222 99.3515 28.6902 97.2318 25.5146C96.2281 23.997 95.3389 22.343 93.9779 21.1386C92.8297 20.1229 91.4045 19.4865 90.0034 18.8663C88.0623 18.0051 85.6454 17.1942 83.893 18.5371C83.3089 18.9847 82.8894 19.621 82.3273 20.0948C80.7455 21.4256 78.4873 21.1908 76.506 20.9419C74.5248 20.693 72.1963 20.6247 70.7811 22.1463C70.2082 22.8001 69.8275 23.5998 69.6811 24.4567C69.4466 25.6246 69.5249 26.8336 69.9079 27.9615C70.9758 31.0588 74.1414 32.7952 77.2186 33.8109C81.4802 35.216 86.1392 35.8022 89.8408 38.3073C93.1709 40.5616 95.5938 44.2872 99.476 45.4314C102.298 46.2664 105.498 45.5779 108.218 46.704C109.222 47.1195 110.099 47.7639 111.028 48.328C112.274 49.0591 113.559 49.7205 114.878 50.3092C116.783 51.2025 118.931 52.1158 120.977 51.4032C122.582 50.8472 123.739 49.4159 124.754 48.0269C125.453 47.0714 126.16 46.0195 126.236 44.8633C126.326 43.4883 125.513 42.2538 124.54 41.3364C119.449 36.571 110.755 37.4643 105.008 33.56Z" fill="#FFC736"/>
<path d="M105.949 31.9518C103.913 30.5262 102.088 28.8198 100.53 26.8833C98.8836 24.876 97.7434 22.4852 96.0151 20.5421C94.2868 18.599 91.7354 17.4709 89.3467 16.5977C86.8416 15.6824 84.1096 15.6643 82.1103 17.6415C81.3274 18.4144 80.8216 19.1029 79.6713 19.2474C78.5211 19.3919 77.3509 19.1731 76.2167 19.0467C73.844 18.7857 71.2104 19.0005 69.462 20.8232C67.529 22.8305 67.254 26.1988 68.2095 28.722C69.0545 30.9702 70.7829 32.6925 72.8263 33.8969C77.1602 36.4483 82.3853 36.5988 86.8777 38.7567C91.1373 40.8042 93.7026 45.1621 98.1449 46.9306C100.596 47.9081 103.217 47.585 105.773 47.9623C107.049 48.151 108.079 48.6649 109.161 49.3494C110.38 50.1225 111.644 50.8229 112.945 51.4471C115.472 52.6515 118.24 54.0426 121.115 53.2938C123.614 52.6435 125.33 50.4655 126.725 48.428C128.532 45.7683 128.446 42.8798 126.276 40.4549C124.577 38.556 122.149 37.3757 119.788 36.5406C115.221 34.9347 110.072 34.6858 105.953 31.9518C103.946 30.623 102.083 33.8468 104.075 35.1636C107.455 37.4078 111.502 38.1485 115.372 39.124C117.178 39.5777 118.985 40.0695 120.655 40.9126C121.98 41.583 124.248 42.8456 124.363 44.5358C124.425 45.4632 123.638 46.3786 123.132 47.0751C122.623 47.8225 122.015 48.4977 121.326 49.0824C119.425 50.5759 117.016 49.2611 115.147 48.3759C114.053 47.8746 112.986 47.3158 111.951 46.7017C110.787 45.9911 109.687 45.2284 108.388 44.7687C106.162 43.9778 103.771 44.2046 101.471 43.9276C97.3138 43.4278 94.7946 39.7283 91.6853 37.3455C87.8834 34.4389 83.1541 33.6621 78.6777 32.3031C75.3636 31.2994 70.7006 29.2198 71.4754 24.9362C71.8628 22.7924 73.6032 22.5595 75.4901 22.694C77.6178 22.8466 79.7376 23.3082 81.8031 22.5053C82.4783 22.2498 83.1029 21.8767 83.6479 21.4033C84.1216 20.9898 84.4769 20.4297 84.9727 20.0483C85.6954 19.4903 86.6368 19.6629 87.4558 19.8877C89.6639 20.4899 92.1389 21.6281 93.6063 23.4267C94.4413 24.4504 95.0756 25.6347 95.8143 26.7267C96.5623 27.822 97.3663 28.8779 98.2231 29.8903C99.9318 31.9002 101.902 33.6723 104.081 35.1596C104.91 35.7296 106.148 35.3141 106.628 34.4911C107.158 33.5758 106.78 32.5239 105.949 31.9518Z" fill="#FFC736"/>
<path d="M105.008 33.56C101.861 31.4222 99.3515 28.6902 97.2318 25.5146C96.2281 23.997 95.3389 22.343 93.9779 21.1386C92.8297 20.1229 91.4045 19.4865 90.0034 18.8663C88.0623 18.0051 85.6454 17.1942 83.893 18.5371C83.3089 18.9847 82.8894 19.621 82.3273 20.0948C80.7455 21.4256 78.4873 21.1908 76.506 20.9419C74.5248 20.693 72.1963 20.6247 70.7811 22.1463C70.2082 22.8001 69.8275 23.5998 69.6811 24.4567C69.4466 25.6246 69.5249 26.8336 69.9079 27.9615C70.9758 31.0588 74.1414 32.7952 77.2186 33.8109C81.4802 35.216 86.1392 35.8022 89.8408 38.3073C93.1709 40.5616 95.5938 44.2872 99.476 45.4314C102.298 46.2664 105.498 45.5779 108.218 46.704C109.222 47.1195 110.099 47.7639 111.028 48.328C112.274 49.0591 113.559 49.7205 114.878 50.3092C116.783 51.2025 118.931 52.1158 120.977 51.4032C122.582 50.8472 123.739 49.4159 124.754 48.0269C125.453 47.0714 126.16 46.0195 126.236 44.8633C126.326 43.4883 125.513 42.2538 124.54 41.3364C119.449 36.571 110.755 37.4643 105.008 33.56Z" stroke="#FF76B8" stroke-width="4.95" stroke-miterlimit="10"/>
<path d="M84.7388 24.886C87.3223 24.9162 89.6026 26.1547 91.6982 27.5598C93.6775 28.8867 95.4861 30.4624 96.5159 32.6544C96.8551 33.3771 97.921 32.7488 97.5878 32.0281C96.4737 29.6495 94.4744 27.9272 92.3286 26.4879C90.0442 24.9563 87.5491 23.6776 84.7428 23.6455C83.9399 23.6455 83.9399 24.878 84.7428 24.886H84.7388Z" fill="#FF76B8"/>
<path d="M88.7309 33.2468C92.2156 31.6971 95.9834 31.936 99.3838 33.574C100.929 34.3253 102.37 35.274 103.672 36.3963C104.866 37.418 106.482 38.6766 106.799 40.2825C106.958 41.0654 108.154 40.7341 108.003 39.9533C107.64 38.1467 105.996 36.7777 104.683 35.6295C103.192 34.3104 101.521 33.2107 99.7191 32.3636C95.9513 30.6332 91.9246 30.4827 88.1126 32.1769C87.384 32.5001 88.0143 33.57 88.7389 33.2488L88.7309 33.2468Z" fill="#FF76B8"/>
<path d="M103.552 38.193C106.181 37.5045 108.817 38.1247 111.276 39.1344C113.512 40.0518 116.066 41.0595 117.82 42.7677C118.392 43.3257 119.271 42.4485 118.697 41.8905C116.778 40.0217 114.052 38.9277 111.599 37.9381C108.923 36.8461 106.063 36.2499 103.215 36.9966C102.442 37.1973 102.769 38.4017 103.544 38.201L103.552 38.193Z" fill="#FF76B8"/>
<path d="M82.3536 29.2922C84.8949 29.0914 87.5185 29.4226 90.0317 29.794C92.3301 30.1312 94.5763 30.7174 96.5033 32.0663C97.1597 32.526 97.78 31.4501 97.1296 30.9944C95.1223 29.5893 92.7596 28.9509 90.3609 28.5976C87.7373 28.2102 85.0033 27.8509 82.3516 28.0516C81.5607 28.1119 81.5487 29.3544 82.3516 29.2922H82.3536Z" fill="#FF76B8"/>
<path d="M75.2865 35.3523C74.8917 38.8986 74.4969 42.4449 74.1021 45.9912C73.7187 49.4277 73.2992 52.9044 72.0948 56.1684C70.8904 59.4323 69.0577 62.4473 67.4538 65.5065C66.0868 68.116 64.6576 70.9805 64.9848 74.0116C65.2437 76.4043 66.5907 78.7087 69.0256 79.3692C71.7816 80.1139 74.5417 78.7369 76.5491 76.9303C81.4931 72.478 84.0184 66.0585 88.5931 61.2931C89.8918 59.9422 91.2689 58.6675 92.6459 57.3969C94.0229 56.1262 95.4562 54.8275 97.1182 53.89C100.531 51.973 104.345 50.6301 107.946 49.0724C108.676 48.7573 108.046 47.6874 107.32 48.0005C104.272 49.3254 101.177 50.5699 98.15 51.975C95.3658 53.2658 93.1979 55.1868 90.9698 57.2523C88.7416 59.3179 86.5115 61.4958 84.6828 63.9749C82.7417 66.6085 81.1679 69.485 79.1686 72.0825C77.3982 74.3809 75.3547 77.0607 72.4922 77.9982C71.0731 78.4639 69.3949 78.49 68.1303 77.5967C67.0483 76.8339 66.4742 75.5372 66.2635 74.2645C65.7476 71.1371 67.4679 68.1281 68.873 65.4684C70.3384 62.6902 71.9362 59.9422 73.0884 57.0175C74.3852 53.7315 74.8569 50.2106 75.2523 46.7218C75.6819 42.932 76.0974 39.1381 76.519 35.3483C76.6073 34.5554 75.3647 34.5614 75.2784 35.3483L75.2865 35.3523Z" fill="#FFC736"/>
<path d="M78.704 36.294C78.5019 39.7457 77.9886 43.1721 77.1704 46.5315C76.3674 49.8094 75.0085 52.9549 74.3721 56.265C74.2236 57.0459 75.418 57.3791 75.5765 56.5942C76.2349 53.1537 77.6541 49.8978 78.4631 46.4873C79.253 43.1397 79.7507 39.7298 79.9505 36.296C79.9987 35.4931 78.7562 35.4931 78.71 36.296L78.704 36.294Z" fill="#FFC736"/>
<path d="M75.6201 59.9583C79.3497 53.0109 81.8127 45.4473 85.6748 38.5681C86.0763 37.8716 84.9943 37.2433 84.6029 37.9418C80.7408 44.821 78.2778 52.3947 74.5481 59.332C74.1708 60.0366 75.2407 60.6629 75.6201 59.9583Z" fill="#FFC736"/>
<path d="M87.03 39.0354C84.2152 45.4827 81.0702 51.7807 77.6075 57.9044C77.2061 58.6009 78.286 59.2272 78.6795 58.5307C82.1421 52.4069 85.2871 46.1089 88.1019 39.6617C88.419 38.9371 87.3491 38.3047 87.03 39.0354Z" fill="#FFC736"/>
<path d="M79.8979 59.5649L92.247 42.34C92.7127 41.6896 91.6448 41.0694 91.1751 41.7137L78.826 58.9447C78.3603 59.5951 79.4282 60.2153 79.8979 59.571V59.5649Z" fill="#FFC736"/>
<path d="M78.83 64.1452C81.0883 61.7746 82.7865 58.8961 85.103 56.5675C86.8152 54.8432 88.405 53.143 89.8423 51.1778C91.3799 49.0762 92.8533 46.9363 94.8124 45.188C95.4146 44.654 94.5274 43.7828 93.9352 44.3108C92.1166 45.9407 90.6874 47.9119 89.2622 49.8791C87.7405 51.9501 86.0564 53.8967 84.2257 55.7004C81.9113 58.0249 80.2211 60.9054 77.9548 63.2761C77.4028 63.8542 78.28 64.7334 78.832 64.1533L78.83 64.1452Z" fill="#FFC736"/>
<path d="M82.2323 63.2161C84.9362 60.3497 87.7064 57.5956 90.5809 54.8937C91.9137 53.6452 92.9897 52.2179 94.1941 50.865C95.3724 49.5522 96.7173 48.4201 97.727 46.9587C98.1826 46.3003 97.1067 45.678 96.6551 46.3324C95.6514 47.7958 94.2463 48.9099 93.088 50.2467C91.8836 51.6258 90.7876 53.0129 89.4427 54.2614C86.6324 56.8569 83.9747 59.5628 81.3531 62.3429C80.8051 62.9231 81.6823 63.8043 82.2303 63.2202L82.2323 63.2161Z" fill="#FFC736"/>
<path d="M101.284 47.4046C99.6778 49.0105 97.3753 49.5765 95.7052 51.1041C95.1151 51.6441 95.9943 52.5213 96.5824 51.9813C98.2485 50.4557 100.549 49.8957 102.161 48.2818C102.727 47.7157 101.848 46.8385 101.284 47.4046Z" fill="#FFC736"/>
</g>
<defs>
<clipPath id="clip0_64_4098">
<rect width="128" height="112" fill="white"/>
</clipPath>
</defs>
</svg>
