<svg width="681" height="681" viewBox="0 0 681 681" fill="none" xmlns="http://www.w3.org/2000/svg">
<path d="M295.921 384.19C288.081 401.81 286.151 420.9 287.731 440C288.601 450.56 290.341 461 292.221 471.46C293.131 476.53 294.091 481.6 294.981 486.67C295.761 491.12 297.631 496.74 296.821 501.26C295.491 508.73 284.381 513.52 278.501 516.55C270.357 520.716 261.718 523.837 252.791 525.84C244.241 527.84 234.301 529.52 225.511 528.34C217.241 527.23 216.511 516.25 214.871 509.75C213.461 504.3 212.041 498.87 209.551 493.75C206.551 487.58 202.331 481.9 198.671 476.11C193.671 468.17 180.991 475.5 186.041 483.5C189.581 489.11 193.581 494.6 196.611 500.5C196.731 500.74 197.821 503.15 197.301 501.89C197.721 502.89 198.081 504 198.421 505.07C199.421 508.31 200.261 511.63 201.111 514.92C203.381 523.75 205.371 533.56 213.421 539.06C221.691 544.71 233.421 543.36 242.861 542.23C262.711 539.85 283.141 533.06 299.261 520.93C307.591 514.66 312.421 506.61 311.201 495.93C309.921 484.8 307.421 473.78 305.501 462.74C301.441 439.39 298.641 413.83 308.571 391.49C310.191 387.85 309.571 383.67 305.951 381.49C302.851 379.63 297.541 380.49 295.951 384.11L295.921 384.19Z" fill="#6ABD45"/>
<path d="M198.802 477.71C188.991 464.554 178.3 452.079 166.802 440.37C160.952 434.37 154.512 428.43 146.422 426.37C138.842 424.42 130.882 426.17 123.062 426.51C115.242 426.85 106.402 425.21 102.012 418.73C99.8817 415.58 98.6217 411.22 95.0117 410.1C91.8617 409.1 88.6917 411.21 85.5617 412.25C78.4717 414.59 70.4517 411.31 65.3117 405.9C60.1717 400.49 57.3817 393.29 55.1217 386.17C52.3017 377.3 50.1217 367.92 51.5617 358.73C52.1817 354.9 53.4317 351.18 53.6917 347.31C54.4917 335.72 46.4417 325.23 45.5217 313.65C44.6217 302.3 50.8717 291.28 59.5217 283.92C68.1717 276.56 79.1117 272.29 90.0017 268.82C92.8517 267.91 95.8517 266.96 97.9117 264.82C99.2988 263.11 100.397 261.184 101.162 259.12C108.162 243.67 121.552 231.77 136.512 223.76C151.472 215.75 168.052 211.29 184.592 207.52C189.652 206.37 195.092 205.3 199.902 207.24C202.072 208.12 203.982 209.57 206.152 210.45C212.152 212.89 218.972 210.61 224.992 208.19C235.182 204.1 245.482 199.52 256.442 198.94C267.402 198.36 279.442 202.78 284.442 212.55C286.082 215.75 287.062 219.55 290.002 221.64C293.822 224.33 299.002 222.83 303.682 222.64C314.962 222.24 325.042 230.54 330.442 240.45C335.842 250.36 337.612 261.77 339.922 272.82C340.342 274.82 340.872 277 342.432 278.35C343.763 279.293 345.28 279.941 346.882 280.25C363.292 285.06 373.802 304.41 368.882 320.8C365.822 331.06 358.002 339.1 350.222 346.46C327.222 368.26 300.982 388.53 270.032 395.46C267.652 395.99 265.032 396.55 263.522 398.46C262.484 399.979 261.882 401.753 261.782 403.59C260.492 412.97 260.362 422.53 258.262 431.77C256.162 441.01 251.722 450.2 243.842 455.46C230.762 464.18 210.172 461.14 201.722 474.39C200.192 476.79 201.372 476.59 198.782 477.77" fill="#6ABD45"/>
<path d="M211.431 470.32C200.642 455.694 188.826 441.856 176.071 428.91C169.791 422.63 162.981 417.16 154.721 413.8C145.961 410.23 136.821 410.8 127.611 411.54C125.611 411.71 123.671 411.88 121.701 411.9C120.761 411.9 119.831 411.9 118.881 411.84C118.741 411.84 116.451 411.58 118.011 411.84C119.571 412.1 117.301 411.67 117.181 411.63C116.291 411.37 115.381 411.18 114.511 410.87C115.591 411.26 115.761 412.01 114.311 410.65C113.381 409.78 113.311 409.5 114.111 410.49C115.661 412.42 113.421 409.22 113.031 408.55C112.261 407.25 111.511 405.99 110.611 404.76C106.811 399.55 101.891 396.15 95.3808 395.5C89.9808 394.96 85.9208 396.87 80.9608 398.35C79.2408 398.86 80.9608 398.48 81.2308 398.35C80.7208 398.54 78.4808 397.97 80.7508 398.45C80.0238 398.293 79.3088 398.086 78.6108 397.83C77.1108 397.28 79.7408 399.11 77.3608 397.04C75.6008 395.51 77.1508 397.34 75.6708 395.52C73.7308 393.14 74.5708 394.26 74.9608 394.77C74.3453 393.907 73.781 393.009 73.2708 392.08C71.7127 389.488 70.5246 386.691 69.7408 383.77C67.3308 376.49 64.9208 368.54 65.8308 361.77C66.4508 357.17 67.8308 352.77 68.2508 348.11C68.5451 343.396 68.0586 338.665 66.8108 334.11C65.1008 327.32 60.8108 318.99 60.1108 313.24C60.2708 314.54 60.1108 312.04 60.1108 312.07C60.1108 311.07 60.1108 310.07 60.2108 309C60.0008 311.07 60.6508 307.49 60.8308 306.88C61.0984 305.889 61.4324 304.916 61.8308 303.97C61.4608 304.78 61.0708 305.27 62.3408 303.26C62.7508 302.6 63.1208 301.91 63.5308 301.26C63.6908 301 65.5308 298.47 64.4508 299.78C69.0208 293.99 74.4508 290.87 81.3608 287.52C84.3739 286.186 87.4547 285.011 90.5908 284C94.9408 282.53 99.5908 281.32 103.531 278.82C111.641 273.61 113.861 264.67 119.021 257.12C120.609 254.748 122.453 252.558 124.521 250.59C126.972 248.1 129.574 245.762 132.311 243.59C143.971 234.8 159.311 229.1 174.311 225.08C178.411 223.98 182.551 222.97 186.691 222.02C188.201 221.67 190.891 221.02 191.691 220.9C191.411 220.9 196.261 221.25 194.251 220.71C195.151 220.95 197.361 222.42 198.771 223.08C201.543 224.415 204.51 225.303 207.561 225.71C213.029 226.393 218.58 225.864 223.821 224.16C231.971 221.62 239.591 217.62 247.821 215.28C251.054 214.226 254.421 213.637 257.821 213.53C258.751 213.53 259.661 213.59 260.591 213.59C260.751 213.59 263.011 213.86 261.421 213.59C259.671 213.34 262.521 213.86 262.901 213.95C263.801 214.17 264.681 214.45 265.581 214.7C267.811 215.32 263.851 213.77 265.921 214.75C266.541 215.04 267.151 215.35 267.741 215.69C268.528 216.128 269.29 216.612 270.021 217.14C269.771 216.95 268.511 215.84 269.651 216.98C269.911 217.24 271.781 219.29 270.741 217.98C269.701 216.67 271.091 218.55 271.161 218.69C271.971 220.33 272.751 221.97 273.531 223.62C278.091 233.27 287.531 238.41 298.131 237.71C299.991 237.59 301.841 237.28 303.701 237.24C304.431 237.24 305.161 237.24 305.891 237.24C308.251 237.39 304.031 236.69 306.271 237.4C308.304 237.961 310.2 238.935 311.841 240.26C314.911 243.06 315.481 243.75 317.111 246.48C318.864 249.368 320.21 252.484 321.111 255.74C323.681 264.1 324.111 273.35 327.461 281.4C330.021 287.51 334.551 291.31 340.731 293.54C341.491 293.81 345.911 295.28 343.251 294.17C344.827 294.889 346.342 295.735 347.781 296.7C348.321 297.04 349.701 298.45 347.911 296.79C348.41 297.209 348.887 297.653 349.341 298.12C349.871 298.73 352.461 301.76 350.891 299.61C351.773 300.859 352.587 302.154 353.331 303.49C353.661 304.06 353.941 304.65 354.231 305.24C353.311 303.37 354.111 304.9 354.441 306C354.881 307.47 355.261 308.92 355.571 310.42C355.011 307.7 355.571 311.25 355.571 312.35C355.571 313.45 354.831 317.13 355.571 314.28C355.421 314.92 355.311 315.57 355.111 316.19C355.011 316.5 354.111 319.36 354.731 317.8C351.921 324.8 347.821 328.5 342.371 333.8C336.591 339.42 330.591 344.827 324.371 350.02C312.583 360.044 299.511 368.452 285.501 375.02C284.321 375.56 280.151 377.19 277.501 378.09C273.341 379.49 269.091 380.39 264.871 381.55C259.904 382.738 255.458 385.507 252.201 389.44C248.441 394.21 247.781 399.44 247.071 405.32C246.071 413.81 245.941 421.84 243.761 429.92C243.317 431.616 242.776 433.286 242.141 434.92C242.861 433.38 242.261 434.61 242.141 434.92C241.701 435.82 241.241 436.71 240.751 437.58C240.431 438.14 237.841 441.58 239.191 440.08C238.621 440.73 235.191 443.68 236.631 442.69C235.381 443.503 234.078 444.232 232.731 444.87C231.231 445.62 233.031 444.73 233.251 444.65C232.431 444.95 231.611 445.24 230.781 445.51C227.631 446.51 224.391 447.28 221.171 448.05C214.591 449.63 207.961 451.4 202.011 454.74C198.815 456.52 195.914 458.783 193.411 461.45C191.825 463.1 190.426 464.921 189.241 466.88C189.131 467.08 188.241 468.38 188.371 468.56C188.051 468.09 195.121 463.26 191.551 465.01C184.461 468.49 182.551 478.56 186.301 485.01C190.531 492.24 199.201 493.76 206.301 490.26C210.021 488.43 212.121 485.53 214.201 482.13C215.011 480.81 213.791 482.43 213.671 482.58C214.181 481.93 214.781 481.43 215.341 480.83C217.111 478.92 215.771 480.59 215.201 480.92C216.071 480.42 216.941 479.92 217.821 479.43C219.251 478.63 217.331 479.57 217.131 479.65C217.901 479.33 218.701 479.06 219.491 478.79C221.121 478.24 222.781 477.79 224.441 477.35C227.641 476.51 230.881 475.83 234.091 474.98C242.391 472.8 250.161 469.51 256.701 463.87C263.531 457.98 267.941 449.71 270.861 441.3C274.121 431.92 274.711 421.73 275.631 411.92C275.841 409.73 275.911 407.48 276.321 405.32C275.971 407.17 276.531 404.65 276.571 404.62L273.881 407.4C270.507 409.96 270.091 410.753 272.631 409.78C276.801 409.38 281.311 407.65 285.261 406.32C301.631 400.664 317.004 392.456 330.811 382C344.871 371.52 359.461 359.91 370.691 346.35C382.261 332.35 388.451 314.91 382.131 297.1C379.503 289.292 374.994 282.252 369.001 276.6C366.033 273.812 362.707 271.431 359.111 269.52C357.005 268.474 354.842 267.55 352.631 266.75C351.785 266.358 350.895 266.069 349.981 265.89C348.127 265.223 348.731 265.943 351.791 268.05C354.171 271.143 354.917 271.43 354.031 268.91C354.221 267.09 353.151 264.61 352.781 262.78C352.361 260.78 351.951 258.68 351.491 256.65C350.492 252.005 349.156 247.44 347.491 242.99C344.051 234.06 339.311 225.43 331.911 219.14C324.351 212.72 315.831 208.67 305.841 208.04C303.783 207.975 301.724 208.069 299.681 208.32L297.281 208.52C293.361 208.89 296.281 208.31 296.591 208.73C296.901 209.15 300.351 210.47 299.981 211.28C299.719 210.657 299.405 210.059 299.041 209.49C298.141 207.65 297.441 205.71 296.381 203.94C286.381 187.23 266.081 182.38 247.971 185.26C238.541 186.76 229.871 190.56 221.051 194.04C219.051 194.81 217.131 195.57 215.111 196.15C213.251 196.69 212.711 197.21 211.161 196.81C213.161 197.33 208.981 195.39 208.821 195.3C206.182 193.895 203.367 192.849 200.451 192.19C190.341 190.12 179.791 193.41 170.031 195.9C160.905 198.151 151.949 201.045 143.231 204.56C126.861 211.3 111.121 220.64 99.7208 234.47C96.782 237.966 94.108 241.676 91.7208 245.57C90.8008 247.11 89.9475 248.683 89.1608 250.29C88.6623 251.232 88.2149 252.2 87.8208 253.19L87.1008 254.68C87.3713 254.541 87.6261 254.373 87.8608 254.18C87.9108 253.96 88.9608 253.74 88.9508 253.73C88.9408 253.72 86.4508 254.58 86.0908 254.73C84.1908 255.36 82.2908 255.97 80.4108 256.64C75.4433 258.376 70.5729 260.379 65.8208 262.64C49.4608 270.51 34.7108 285.08 31.6408 303.64C29.9908 313.58 31.9008 322.79 35.3408 332.13C36.7942 335.825 38.01 339.61 38.9808 343.46C38.9808 343.46 39.2908 345.93 39.1908 344.59C39.0708 343.04 39.1308 346.24 39.1208 346.54C39.0608 348.16 39.1208 347.1 39.1808 346.72C38.9808 348.35 38.4708 349.99 38.1208 351.59C34.1208 370.02 38.7408 392.25 48.8308 408.26C54.2308 416.82 62.3008 423.93 72.2708 426.52C77.4316 427.889 82.8492 427.975 88.0508 426.77C89.928 426.418 91.7373 425.77 93.4108 424.85L94.2008 424.55C92.9404 424.769 91.6439 424.636 90.4544 424.165C89.265 423.694 88.229 422.903 87.4608 421.88C84.8408 419.88 86.6008 421.23 87.4608 422.74C92.2508 431 98.7708 436.82 108.071 439.5C117.071 442.09 125.801 440.75 134.881 440.23C138.971 440 141.341 439.85 144.811 441.23C147.121 442.12 143.411 440.41 145.541 441.66C146.211 442.05 146.891 442.42 147.541 442.84C148.976 443.633 150.278 444.645 151.401 445.84C158.022 452.015 164.279 458.569 170.141 465.47C175.741 471.84 181.281 478.6 186.141 485.16C190.871 491.48 198.791 494.72 206.141 490.41C212.361 486.77 216.141 476.75 211.391 470.41L211.431 470.32Z" fill="#6ABD45"/>
<path d="M204.731 479C197.271 466.68 187.181 456.43 176.001 447.45C170.481 443.01 164.741 438.84 158.941 434.77C153.311 430.77 147.261 425.45 140.301 424.19C137.141 423.61 134.231 424.31 131.131 424.86C126.906 425.717 122.519 425.234 118.581 423.48C115.104 421.875 111.942 419.664 109.241 416.95C107.051 414.81 105.241 411.68 102.511 410.18C99.7806 408.68 97.2906 409.48 94.6306 410.29C90.0906 411.68 85.4406 413.03 80.7206 411.62C74.0606 409.62 68.3006 402.62 64.6406 397.03C60.3559 390.484 57.5633 383.076 56.4607 375.33C55.3582 367.585 55.9726 359.692 58.2606 352.21C59.3806 348.6 53.7306 347.06 52.6206 350.65C48.7586 363.225 49.2447 376.735 54.0006 389C58.3106 400.09 67.1606 413.5 79.1506 417.24C82.1509 418.109 85.3063 418.304 88.3906 417.81C93.2406 417.14 98.6306 413.81 102.391 418.17C106.831 423.28 112.321 427.61 118.781 429.82C121.92 430.907 125.247 431.342 128.561 431.1C133.561 430.7 137.811 428.78 142.751 431.1C149.561 434.28 155.901 439.68 161.971 444.1C176.481 454.63 190.271 466.46 199.641 481.95C201.591 485.17 206.641 482.23 204.691 478.95L204.731 479Z" fill="#2B2C2B"/>
<path d="M69.0011 357.09C56.9011 343.17 44.5211 324.81 51.3511 305.56C57.9811 286.89 77.4811 277.95 95.1211 272.76C98.7311 271.7 97.1911 266.05 93.5611 267.12C73.8111 272.93 53.0611 283.22 45.7411 304C38.2211 325.34 51.4311 345.74 64.8911 361.23C67.3711 364.08 71.4911 359.92 69.0311 357.09H69.0011Z" fill="#2B2C2B"/>
<path d="M99.1703 284.93C98.9219 273.202 101.798 261.62 107.504 251.371C113.21 241.122 121.541 232.576 131.64 226.61C142.05 220.5 153.78 217.03 165.56 214.67C177.34 212.31 191.94 208.58 203.08 214.54C206.4 216.31 209.36 211.26 206.08 209.49C194.39 203.24 180.62 206.01 168.2 208.25C154.53 210.71 140.79 214.49 128.73 221.57C117.755 228.059 108.698 237.343 102.484 248.476C96.2701 259.61 93.1217 272.192 93.3603 284.94C93.4403 288.7 99.2903 288.71 99.2103 284.94L99.1703 284.93Z" fill="#2B2C2B"/>
<path d="M199.102 230.8C207.412 215.86 224.872 207.08 241.372 204.97C255.182 203.21 280.232 205.21 284.562 221.83C285.512 225.47 291.162 223.93 290.202 220.27C285.292 201.42 259.722 197.37 243.352 198.89C224.142 200.67 203.712 210.47 194.042 227.84C192.212 231.13 197.262 234.09 199.092 230.84L199.102 230.8Z" fill="#2B2C2B"/>
<path d="M259 233.11C276.53 229.11 293.33 222.32 310.49 231.64C325.57 239.83 333.49 256.3 331.79 273.18C331.41 276.92 337.27 276.9 337.64 273.18C339.49 254.91 330.72 236.73 314.81 227.36C307.065 222.784 298.183 220.492 289.19 220.75C278.3 221.12 267.96 225.05 257.44 227.47C253.77 228.31 255.32 233.96 259 233.11Z" fill="#2B2C2B"/>
<path d="M311.901 279.52C324.201 277.1 337.141 275.73 349.691 276.66C361.091 277.51 366.091 295.53 367.381 305.14C368.185 310.556 367.902 316.077 366.549 321.382C365.196 326.688 362.8 331.67 359.501 336.04C353.001 344.62 344.011 350.93 335.281 357.04C332.221 359.18 335.141 364.26 338.281 362.09C348.561 354.89 359.141 347.37 366.191 336.76C373.131 326.32 374.971 313.76 372.751 301.55C371.533 295.112 369.309 288.906 366.161 283.16C363.631 278.48 360.481 273.06 355.021 271.49C348.611 269.65 340.781 270.49 334.221 270.84C326.213 271.274 318.247 272.277 310.381 273.84C306.691 274.57 308.251 280.21 311.941 279.48L311.901 279.52Z" fill="#2B2C2B"/>
<path d="M155.842 412C155.332 415.4 150.262 417.17 147.432 418.37C144.146 419.722 140.717 420.695 137.212 421.27C133.512 421.92 135.082 427.56 138.772 426.91C143.787 426.053 148.642 424.438 153.172 422.12C156.772 420.26 160.832 417.91 161.492 413.55C162.042 409.87 156.402 408.28 155.852 411.99L155.842 412Z" fill="#2B2C2B"/>
<path d="M101.401 408.95C95.3533 394.214 93.6394 378.057 96.4609 362.38C99.1709 347.93 105.301 333.54 118.061 325.33C123.833 321.791 130.047 319.027 136.541 317.11C143.541 314.88 151.391 311.97 158.781 311.82C167.391 311.64 173.871 316.82 179.701 322.58C184.991 327.81 189.911 333.92 190.531 341.58C190.831 345.31 196.681 345.34 196.381 341.58C195.381 329.44 186.451 319.64 177.171 312.52C172.001 308.6 166.251 306 159.681 306C152.841 306 146.031 308.25 139.521 310.14C127.521 313.64 115.061 318.29 106.221 327.57C97.1309 337.11 92.3709 350.65 90.3909 363.46C87.9077 379.354 89.7631 395.623 95.7609 410.55C97.1509 414 102.811 412.49 101.401 408.99V408.95Z" fill="#2B2C2B"/>
<path d="M195 327.89C194.77 326.29 209.8 324.34 211.16 324.24C216.77 323.82 222.42 324.42 227.45 327.09C237.8 332.59 242.99 343.91 246.06 354.67C249.25 365.86 251.06 376.38 244.38 386.67C238.11 396.42 227.86 402.47 218.14 408.29C214.91 410.22 217.85 415.29 221.14 413.34C233.46 405.97 246.44 397.83 252.38 384.12C257.99 371.12 253.62 355.82 248.38 343.4C243.14 330.98 233.49 320.4 219.63 318.55C212.83 317.64 205.94 318.74 199.31 320.26C194.31 321.42 188.5 323.18 189.39 329.4C189.92 333.11 195.56 331.53 195.03 327.84L195 327.89Z" fill="#2B2C2B"/>
<path d="M216.771 393.83C211.911 406.07 216.821 419.68 219.721 431.83L224.721 452.92C226.211 459.16 227.571 465.38 231.191 470.78C233.281 473.89 238.351 470.96 236.241 467.78C232.721 462.54 231.571 456.41 230.131 450.36L225.791 432.15C223.021 420.54 217.741 407.05 222.391 395.35C223.781 391.85 218.121 390.35 216.751 393.79L216.771 393.83Z" fill="#2B2C2B"/>
<path d="M230.461 322.43C240.279 308.96 254.384 299.227 270.461 294.83C278.401 292.66 287.091 291.55 295.291 292.67C305.101 294.01 310.131 301.18 314.291 309.43C318.742 318.229 322.422 327.396 325.291 336.83C328.061 345.88 330.411 356.45 323.951 364.52C318.781 370.98 310.351 375.07 303.251 379.01C294.761 383.72 285.461 388.1 275.551 388.21C272.331 388.21 268.041 386.7 265.171 388.77C262.301 390.84 261.171 395.93 260.041 399.12C256.641 408.47 254.651 418.24 257.371 428.01C258.371 431.63 264.031 430.09 263.011 426.45C261.579 421.084 261.524 415.443 262.851 410.05C263.452 407.447 264.196 404.88 265.081 402.36C265.831 400.18 266.631 396.23 268.371 394.64C269.671 393.45 269.371 393.64 271.171 393.83C272.622 393.992 274.081 394.072 275.541 394.07C277.551 394.04 279.556 393.866 281.541 393.55C286.429 392.735 291.194 391.304 295.721 389.29C304.603 385.497 313.046 380.749 320.901 375.13C327.611 370.28 332.751 364.13 333.791 355.63C334.971 346.08 331.521 336.29 328.361 327.43C325.201 318.57 321.441 309.26 316.441 301.12C311.971 293.85 305.901 288.47 297.281 287.06C288.931 285.7 280.071 286.55 271.861 288.44C253.137 292.831 236.63 303.84 225.381 319.44C223.171 322.5 228.251 325.44 230.431 322.44L230.461 322.43Z" fill="#2B2C2B"/>
<path d="M146.63 310.11C149.74 285.11 174.82 272.71 196.49 266.84C208.99 263.45 219.93 263.7 231.68 269.5C241.32 274.25 249.94 281.5 253.59 291.92C254.83 295.45 260.49 293.92 259.23 290.36C255.16 278.79 246.1 270.23 235.3 264.77C222.59 258.34 210.3 257.19 196.6 260.77C171.41 267.3 144.32 281.57 140.77 310.13C140.31 313.86 146.16 313.83 146.62 310.13L146.63 310.11Z" fill="#2B2C2B"/>
<path d="M216.481 305.56L217.051 305.42C217.439 305.334 217.806 305.17 218.129 304.938C218.453 304.706 218.725 304.411 218.93 304.07C219.136 303.729 219.269 303.35 219.323 302.956C219.377 302.562 219.35 302.161 219.244 301.777C219.138 301.394 218.955 301.036 218.706 300.726C218.457 300.415 218.148 300.159 217.797 299.972C217.446 299.785 217.06 299.672 216.664 299.639C216.267 299.606 215.868 299.654 215.491 299.78L214.921 299.92C214.532 300.005 214.165 300.169 213.842 300.401C213.519 300.633 213.246 300.929 213.041 301.27C212.836 301.61 212.702 301.989 212.648 302.384C212.594 302.778 212.621 303.179 212.727 303.562C212.833 303.946 213.016 304.304 213.265 304.614C213.514 304.924 213.823 305.181 214.175 305.368C214.526 305.555 214.911 305.668 215.308 305.701C215.704 305.734 216.103 305.686 216.481 305.56Z" fill="#2B2C2B"/>
<path d="M554.18 236.26C538.5 225.61 526 212 515.44 196.18C510.44 188.62 506.01 180.38 499.23 174.38C493.51 169.32 486.41 166.15 479.43 163.06C469.76 158.77 457.72 154.73 448.99 161.42C446.08 163.65 443.99 166.82 441.19 169.18C433.31 175.81 422.06 174.64 412.19 173.4C402.32 172.16 390.72 171.82 383.67 179.4C380.816 182.657 378.919 186.641 378.19 190.91C377.022 196.728 377.412 202.751 379.32 208.37C384.64 223.8 400.41 232.45 415.74 237.51C436.97 244.51 460.18 247.43 478.62 259.91C495.21 271.14 507.28 289.7 526.62 295.4C540.68 299.56 556.62 296.13 570.17 301.74C575.17 303.81 579.54 307.02 584.17 309.83C590.376 313.472 596.779 316.767 603.35 319.7C612.84 324.15 623.54 328.7 633.73 325.15C641.73 322.38 647.49 315.25 652.55 308.33C656.03 303.57 659.55 298.33 659.93 292.57C660.38 285.72 656.33 279.57 651.48 275C626.12 251.26 582.81 255.71 554.18 236.26Z" fill="#F04B24"/>
<path d="M558.86 228.25C548.715 221.148 539.625 212.647 531.86 203C523.66 193 517.98 181.09 509.37 171.41C500.76 161.73 488.05 156.11 476.15 151.76C463.67 147.2 450.06 147.11 440.1 156.96C436.2 160.81 433.68 164.24 427.95 164.96C422.22 165.68 416.39 164.59 410.74 163.96C398.92 162.66 385.8 163.73 377.09 172.81C367.46 182.81 366.09 199.59 370.85 212.16C375.06 223.36 383.67 231.94 393.85 237.94C415.44 250.65 441.47 251.4 463.85 262.15C485.07 272.35 497.85 294.06 519.98 302.87C532.19 307.74 545.25 306.13 557.98 308.01C564.34 308.95 569.47 311.51 574.86 314.92C580.932 318.771 587.227 322.26 593.71 325.37C606.3 331.37 620.09 338.3 634.41 334.57C646.86 331.33 655.41 320.48 662.36 310.33C671.36 297.08 670.93 282.69 660.12 270.61C651.66 261.15 639.56 255.27 627.8 251.11C605.05 243.11 579.4 241.87 558.88 228.25C548.88 221.63 539.6 237.69 549.52 244.25C566.36 255.43 586.52 259.12 605.8 263.98C614.8 266.24 623.8 268.69 632.12 272.89C638.72 276.23 650.02 282.52 650.59 290.94C650.9 295.56 646.98 300.12 644.46 303.59C641.924 307.313 638.896 310.677 635.46 313.59C625.99 321.03 613.99 314.48 604.68 310.07C599.23 307.573 593.916 304.789 588.76 301.73C582.96 298.19 577.48 294.39 571.01 292.1C559.92 288.16 548.01 289.29 536.55 287.91C515.84 285.42 503.29 266.99 487.8 255.12C468.86 240.64 445.3 236.77 423 230C406.49 225 383.26 214.64 387.12 193.3C389.05 182.62 397.72 181.46 407.12 182.13C417.72 182.89 428.28 185.19 438.57 181.19C441.934 179.917 445.045 178.058 447.76 175.7C450.12 173.64 451.89 170.85 454.36 168.95C457.96 166.17 462.65 167.03 466.73 168.15C477.73 171.15 490.06 176.82 497.37 185.78C501.53 190.88 504.69 196.78 508.37 202.22C512.096 207.676 516.102 212.937 520.37 217.98C528.882 227.992 538.696 236.821 549.55 244.23C553.68 247.07 559.85 245 562.24 240.9C564.88 236.34 563 231.1 558.86 228.25Z" fill="#F04B24"/>
<path d="M554.18 236.26C538.5 225.61 526 212 515.44 196.18C510.44 188.62 506.01 180.38 499.23 174.38C493.51 169.32 486.41 166.15 479.43 163.06C469.76 158.77 457.72 154.73 448.99 161.42C446.08 163.65 443.99 166.82 441.19 169.18C433.31 175.81 422.06 174.64 412.19 173.4C402.32 172.16 390.72 171.82 383.67 179.4C380.816 182.657 378.919 186.641 378.19 190.91C377.022 196.728 377.412 202.751 379.32 208.37C384.64 223.8 400.41 232.45 415.74 237.51C436.97 244.51 460.18 247.43 478.62 259.91C495.21 271.14 507.28 289.7 526.62 295.4C540.68 299.56 556.62 296.13 570.17 301.74C575.17 303.81 579.54 307.02 584.17 309.83C590.376 313.472 596.779 316.767 603.35 319.7C612.84 324.15 623.54 328.7 633.73 325.15C641.73 322.38 647.49 315.25 652.55 308.33C656.03 303.57 659.55 298.33 659.93 292.57C660.38 285.72 656.33 279.57 651.48 275C626.12 251.26 582.81 255.71 554.18 236.26Z" stroke="#2B2C2B" stroke-width="4.95" stroke-miterlimit="10"/>
<path d="M453.191 193.05C466.061 193.2 477.421 199.37 487.861 206.37C497.721 212.98 506.731 220.83 511.861 231.75C513.551 235.35 518.861 232.22 517.201 228.63C511.651 216.78 501.691 208.2 491.001 201.03C479.621 193.4 467.191 187.03 453.211 186.87C449.211 186.87 449.211 193.01 453.211 193.05H453.191Z" fill="#2B2C2B"/>
<path d="M473.081 234.7C490.441 226.98 509.211 228.17 526.151 236.33C533.849 240.073 541.029 244.799 547.511 250.39C553.461 255.48 561.511 261.75 563.091 269.75C563.881 273.65 569.841 272 569.091 268.11C567.281 259.11 559.091 252.29 552.551 246.57C545.123 239.999 536.795 234.52 527.821 230.3C509.051 221.68 488.991 220.93 470.001 229.37C466.371 230.98 469.511 236.31 473.121 234.71L473.081 234.7Z" fill="#2B2C2B"/>
<path d="M546.911 259.34C560.011 255.91 573.141 259 585.391 264.03C596.531 268.6 609.251 273.62 617.991 282.13C620.841 284.91 625.221 280.54 622.361 277.76C612.801 268.45 599.221 263 587.001 258.07C573.671 252.63 559.421 249.66 545.231 253.38C541.381 254.38 543.011 260.38 546.871 259.38L546.911 259.34Z" fill="#2B2C2B"/>
<path d="M441.31 215C453.97 214 467.04 215.65 479.56 217.5C491.01 219.18 502.2 222.1 511.8 228.82C515.07 231.11 518.16 225.75 514.92 223.48C504.92 216.48 493.15 213.3 481.2 211.54C468.13 209.61 454.51 207.82 441.3 208.82C437.36 209.12 437.3 215.31 441.3 215H441.31Z" fill="#2B2C2B"/>
<path d="M406.101 245.19C404.134 262.856 402.167 280.523 400.201 298.19C398.291 315.31 396.201 332.63 390.201 348.89C384.201 365.15 375.071 380.17 367.081 395.41C360.271 408.41 353.151 422.68 354.781 437.78C356.071 449.7 362.781 461.18 374.911 464.47C388.641 468.18 402.391 461.32 412.391 452.32C437.021 430.14 449.601 398.16 472.391 374.42C478.861 367.69 485.721 361.34 492.581 355.01C499.441 348.68 506.581 342.21 514.861 337.54C531.861 327.99 550.861 321.3 568.801 313.54C572.441 311.97 569.301 306.64 565.681 308.2C550.501 314.8 535.081 321 520.001 328C506.131 334.43 495.331 344 484.231 354.29C473.131 364.58 462.021 375.43 452.911 387.78C443.241 400.9 435.401 415.23 425.441 428.17C416.621 439.62 406.441 452.97 392.181 457.64C385.111 459.96 376.751 460.09 370.451 455.64C365.061 451.84 362.201 445.38 361.151 439.04C358.581 423.46 367.151 408.47 374.151 395.22C381.451 381.38 389.411 367.69 395.151 353.12C401.611 336.75 403.961 319.21 405.931 301.83C408.071 282.95 410.141 264.05 412.241 245.17C412.681 241.22 406.491 241.25 406.061 245.17L406.101 245.19Z" fill="#F04B24"/>
<path d="M423.13 249.88C422.123 267.075 419.566 284.144 415.49 300.88C411.49 317.21 404.72 332.88 401.55 349.37C400.81 353.26 406.76 354.92 407.55 351.01C410.83 333.87 417.9 317.65 421.93 300.66C425.865 283.983 428.344 266.996 429.34 249.89C429.58 245.89 423.39 245.89 423.16 249.89L423.13 249.88Z" fill="#F04B24"/>
<path d="M407.761 367.77C426.341 333.16 438.611 295.48 457.851 261.21C459.851 257.74 454.461 254.61 452.511 258.09C433.271 292.36 421.001 330.09 402.421 364.65C400.541 368.16 405.871 371.28 407.761 367.77Z" fill="#F04B24"/>
<path d="M464.601 263.54C450.579 295.658 434.911 327.033 417.661 357.54C415.661 361.01 421.041 364.13 423.001 360.66C440.251 330.153 455.919 298.778 469.941 266.66C471.521 263.05 466.191 259.9 464.601 263.54Z" fill="#F04B24"/>
<path d="M429.081 365.81L490.601 280C492.921 276.76 487.601 273.67 485.261 276.88L423.741 362.72C421.421 365.96 426.741 369.05 429.081 365.84V365.81Z" fill="#F04B24"/>
<path d="M423.75 388.63C435 376.82 443.46 362.48 455 350.88C463.53 342.29 471.45 333.82 478.61 324.03C486.27 313.56 493.61 302.9 503.37 294.19C506.37 291.53 501.95 287.19 499 289.82C489.94 297.94 482.82 307.76 475.72 317.56C468.14 327.877 459.75 337.574 450.63 346.56C439.1 358.14 430.68 372.49 419.39 384.3C416.64 387.18 421.01 391.56 423.76 388.67L423.75 388.63Z" fill="#F04B24"/>
<path d="M440.701 384C454.171 369.72 467.971 356 482.291 342.54C488.931 336.32 494.291 329.21 500.291 322.47C506.161 315.93 512.861 310.29 517.891 303.01C520.161 299.73 514.801 296.63 512.551 299.89C507.551 307.18 500.551 312.73 494.781 319.39C488.781 326.26 483.321 333.17 476.621 339.39C462.621 352.32 449.381 365.8 436.321 379.65C433.591 382.54 437.961 386.93 440.691 384.02L440.701 384Z" fill="#F04B24"/>
<path d="M535.611 305.23C527.611 313.23 516.141 316.05 507.821 323.66C504.881 326.35 509.261 330.72 512.191 328.03C520.491 320.43 531.951 317.64 539.981 309.6C542.801 306.78 538.421 302.41 535.611 305.23Z" fill="#F04B24"/>
</svg>
