<svg width="128" height="112" viewBox="0 0 128 112" fill="none" xmlns="http://www.w3.org/2000/svg">
<g clip-path="url(#clip0_61_2708)">
<path d="M71.3739 60.2011C76.8814 58.9991 81.8363 56.0555 84.7411 51.2127C88.8414 44.3846 87.2811 37.1119 85.9021 29.7377C84.3138 21.2565 81.3572 8.49582 80.2717 4.47749C79.0826 0.0750158 71.4754 1.59862 64.071 1.75184C60.5188 1.82521 50.6349 1.13895 48.7185 4.24226C46.6769 7.54627 45.8482 13.0191 44.7282 16.7094C40.6408 30.1694 36.439 46.506 50.2464 56.2864C52.8819 58.1101 55.8466 59.4045 58.9758 60.0975L59.2348 60.1536C63.2078 61.2327 63.6632 72.6705 63.62 75.4112C63.5056 82.6926 64.7616 95.1447 60.0095 100.013C56.9019 103.194 48.5717 100.965 47.2467 105.797C45.6497 111.598 63.8487 111.881 67.101 111.643C70.2647 111.414 82.965 110.601 83.2865 105.654C83.4829 102.53 71.0761 101.166 68.7972 98.1185C65.5256 93.7441 65.0422 62.6743 71.3739 60.2011Z" fill="#FF76B8"/>
<path d="M71.5899 60.9825C78.8065 59.3596 85.1146 54.6594 87.3158 47.3866C88.4855 43.5194 88.2934 39.4449 87.728 35.4935C87.1993 31.7967 86.4332 28.1237 85.6822 24.4657C84.3873 18.1491 82.9867 11.841 81.3984 5.59122C81.1502 4.61577 80.9538 3.61227 80.3323 2.78573C79.5985 1.82107 78.4807 1.27508 77.3283 0.970788C74.1084 0.13993 70.5605 0.625497 67.2889 0.802459C64.5287 0.951366 61.7858 0.893097 59.0235 0.92331C56.3302 0.951365 53.4362 1.001 50.8595 1.87934C49.9229 2.19873 48.9733 2.64545 48.3216 3.41589C47.3332 4.5834 46.7893 6.26239 46.3146 7.69103C45.2053 11.0209 44.5406 14.489 43.5371 17.8512C40.0691 29.4574 36.7543 43.8517 46.0319 53.712C48.5868 56.4022 51.7171 58.4797 55.1886 59.7891C56.1204 60.1448 57.0715 60.4481 58.0372 60.6976C58.5789 60.8379 59.1637 60.8919 59.6256 61.2285C60.3874 61.7853 60.8406 62.7716 61.1707 63.624C62.8562 67.966 62.7785 72.8131 62.8174 77.3968C62.8433 80.5865 62.9533 83.7739 62.8368 86.9636C62.7224 90.1057 62.4634 93.3644 61.3261 96.3274C60.8794 97.495 60.2471 98.7316 59.2975 99.5775C58.4084 100.374 57.1999 100.695 56.0604 100.939C53.6196 101.462 50.8465 101.449 48.6518 102.771C47.0807 103.717 45.8463 105.704 46.539 107.556C47.1282 109.159 48.8611 110.01 50.3523 110.577C54.5757 112.181 59.4486 112.418 63.9223 112.496C67.5553 112.541 71.1837 112.224 74.7537 111.548C77.1103 111.117 79.6374 110.528 81.6768 109.209C83.0493 108.322 84.6981 106.501 83.8996 104.725C83.1507 103.074 80.8157 102.351 79.264 101.783C76.8621 100.903 74.3652 100.259 72.0129 99.2452C70.5821 98.6301 69.4232 97.9849 68.888 96.4872C68.3291 94.9182 68.0636 93.2306 67.8457 91.5862C67.1982 86.7434 67.1206 81.795 67.3515 76.9113C67.5673 72.5476 67.8759 67.8063 69.5549 63.7168C69.9563 62.7392 70.6339 61.3602 71.5856 60.9652C72.5373 60.5703 72.1187 59.0057 71.154 59.405C68.3075 60.5811 67.4248 64.5174 66.8594 67.2021C65.8775 71.87 65.6207 76.7127 65.6293 81.4734C65.6293 85.8198 65.8343 90.2546 66.7084 94.5255C66.963 95.7858 67.2608 97.1713 67.9471 98.2784C68.9053 99.8257 70.8864 100.549 72.5028 101.164C74.8594 102.061 77.311 102.705 79.6525 103.643C80.8243 104.114 83.032 104.811 82.2616 106.388C81.3984 108.158 78.7957 108.883 77.0693 109.358C74.7448 109.964 72.3733 110.371 69.98 110.577C66.6694 110.899 63.3371 110.933 60.0205 110.681C57.7202 110.541 55.4347 110.218 53.1859 109.714C51.6083 109.341 49.5171 108.851 48.4122 107.556C47.2231 106.162 48.6733 104.472 50.0113 103.866C52.2665 102.843 54.908 102.929 57.2776 102.295C59.727 101.647 61.3585 100.136 62.4268 97.8381C63.6417 95.2355 64.0734 92.3285 64.3064 89.4885C64.5632 86.3226 64.5222 83.1395 64.4683 79.9649C64.4338 77.7529 64.492 75.5344 64.3992 73.3224C64.3188 70.9376 64.046 68.5632 63.5835 66.2223C63.1519 64.1721 62.5454 61.7184 60.9593 60.2294C60.1306 59.4503 59.1637 59.31 58.0998 59.0187C56.1413 58.4915 54.2563 57.7216 52.4888 56.7268C49.4538 55.0227 46.8705 52.6171 44.955 49.7109C41.6186 44.5315 41.1719 38.2731 41.8819 32.2952C42.6307 25.9937 44.791 20.0676 46.3038 13.9516C46.7354 12.21 47.1433 10.462 47.6785 8.75065C48.1101 7.34358 48.5913 5.58044 49.5733 4.4345C50.2207 3.68996 51.317 3.38567 52.232 3.16123C53.5292 2.8664 54.8502 2.68801 56.1791 2.62819C58.6415 2.49223 61.1233 2.58287 63.6051 2.5656C67.0947 2.54402 70.5756 2.0822 74.0674 2.19657C75.3968 2.23974 76.8621 2.33469 78.062 2.96701C79.0633 3.49358 79.3957 4.30501 79.6654 5.34089C80.3129 7.81188 80.8912 10.3045 81.4653 12.7884C83.0256 19.5367 84.4866 26.3109 85.7124 33.1304C86.4159 37.0754 86.9835 41.1908 86.1979 45.1703C85.4441 49.0321 83.3973 52.522 80.3949 55.0651C77.7512 57.2987 74.5076 58.6755 71.1583 59.4222C70.1419 59.6488 70.5713 61.2113 71.5899 60.9825Z" fill="#FFC736"/>
<path d="M82.6435 45.8499C81.5169 49.8553 78.2798 53.0449 74.5248 54.8318C70.7697 56.6187 66.5226 57.1366 62.3619 57.1215C59.2758 57.1107 56.0625 56.7762 53.4469 55.1404C51.6772 54.0333 50.3069 52.4061 48.9689 50.8048C48.3394 50.0984 47.7732 49.338 47.2769 48.5324C46.3813 46.9721 46.0339 45.1615 45.7663 43.3832C45.5677 42.0754 45.4023 40.7633 45.2699 39.4469C45.162 38.3679 45.0908 37.2133 45.6131 36.2637C46.1353 35.3142 47.1928 34.7337 48.2502 34.438C52.6117 33.2144 57.025 35.7501 61.4145 36.827C64.6153 37.5864 67.9429 37.6408 71.1668 36.9867C73.3119 36.5551 75.483 35.8559 77.641 36.2141C78.6539 36.3836 79.614 36.7843 80.4467 37.3852C81.2795 37.9861 81.9625 38.7709 82.4427 39.6786C82.9229 40.5863 83.1873 41.5926 83.2153 42.6191C83.2434 43.6456 83.0344 44.6648 82.6046 45.5974" fill="#FFC736"/>
<path d="M50.0978 27.9443C50.3697 24.1806 51.4445 20.5162 52.1156 16.8043C52.599 14.1413 53.4644 11.0121 56.0347 10.164C56.742 9.93698 57.5011 9.92731 58.214 10.1362C58.9268 10.3451 59.5607 10.763 60.0336 11.3358C61.2205 12.8464 60.9465 15.0153 60.5968 16.9123C59.5415 22.6398 58.3179 28.35 57.8259 34.1531C57.3338 39.9562 57.595 45.9038 59.4466 51.4177C59.6861 52.1299 59.7422 53.2175 58.9977 53.3254C58.8081 53.3388 58.618 53.307 58.4431 53.2326C55.7541 52.2938 53.5073 50.3937 52.135 47.8979C50.4474 44.7989 50.2856 41.1237 50.1626 37.5974C50.0525 34.4401 49.8691 31.1037 50.0978 27.9443Z" fill="#FEF4F8"/>
</g>
<defs>
<clipPath id="clip0_61_2708">
<rect width="128" height="112" fill="white"/>
</clipPath>
</defs>
</svg>
