<svg width="681" height="681" viewBox="0 0 681 681" fill="none" xmlns="http://www.w3.org/2000/svg">
<path d="M373.998 366.07C399.518 360.5 422.478 346.86 435.938 324.42C454.938 292.78 447.708 259.08 441.318 224.91C433.958 185.61 420.258 126.48 415.228 107.86C409.718 87.46 374.468 94.52 340.158 95.23C323.698 95.57 277.898 92.39 269.018 106.77C259.558 122.08 255.718 147.44 250.528 164.54C231.588 226.91 212.118 302.61 276.098 347.93C288.311 356.381 302.049 362.378 316.548 365.59L317.748 365.85C336.158 370.85 338.268 423.85 338.068 436.55C337.538 470.29 343.358 527.99 321.338 550.55C306.938 565.29 268.338 554.96 262.198 577.35C254.798 604.23 339.128 605.54 354.198 604.44C368.858 603.38 427.708 599.61 429.198 576.69C430.108 562.21 372.618 555.89 362.058 541.77C346.898 521.5 344.658 377.53 373.998 366.07Z" fill="#2B2C2B"/>
<path d="M374.999 369.69C408.439 362.17 437.669 340.39 447.869 306.69C453.289 288.77 452.399 269.89 449.779 251.58C447.329 234.45 443.779 217.43 440.299 200.48C434.299 171.21 427.809 141.98 420.449 113.02C419.299 108.5 418.389 103.85 415.509 100.02C412.109 95.55 406.929 93.02 401.589 91.61C386.669 87.76 370.229 90.01 355.069 90.83C342.279 91.52 329.569 91.25 316.769 91.39C304.289 91.52 290.879 91.75 278.939 95.82C274.599 97.3 270.199 99.37 267.179 102.94C262.599 108.35 260.079 116.13 257.879 122.75C252.739 138.18 249.659 154.25 245.009 169.83C228.939 223.61 213.579 290.31 256.569 336C268.408 348.466 282.914 358.093 298.999 364.16C303.317 365.808 307.724 367.214 312.199 368.37C314.709 369.02 317.419 369.27 319.559 370.83C323.089 373.41 325.189 377.98 326.719 381.93C334.529 402.05 334.169 424.51 334.349 445.75C334.469 460.53 334.979 475.3 334.439 490.08C333.909 504.64 332.709 519.74 327.439 533.47C325.369 538.88 322.439 544.61 318.039 548.53C313.919 552.22 308.319 553.71 303.039 554.84C291.729 557.26 278.879 557.2 268.709 563.33C261.429 567.71 255.709 576.92 258.919 585.5C261.649 592.93 269.679 596.87 276.589 599.5C296.159 606.93 318.739 608.03 339.469 608.39C356.304 608.6 373.117 607.13 389.659 604C400.579 602 412.289 599.27 421.739 593.16C428.099 589.05 435.739 580.61 432.039 572.38C428.569 564.73 417.749 561.38 410.559 558.75C399.429 554.67 387.859 551.69 376.959 546.99C370.329 544.14 364.959 541.15 362.479 534.21C359.889 526.94 358.659 519.12 357.649 511.5C354.649 489.06 354.289 466.13 355.359 443.5C356.359 423.28 357.789 401.31 365.569 382.36C367.429 377.83 370.569 371.44 374.979 369.61C379.389 367.78 377.449 360.53 372.979 362.38C359.789 367.83 355.699 386.07 353.079 398.51C348.529 420.14 347.339 442.58 347.379 464.64C347.379 484.78 348.329 505.33 352.379 525.12C353.559 530.96 354.939 537.38 358.119 542.51C362.559 549.68 371.739 553.03 379.229 555.88C390.149 560.04 401.509 563.02 412.359 567.37C417.789 569.55 428.019 572.78 424.449 580.09C420.449 588.29 408.389 591.65 400.389 593.85C389.618 596.656 378.629 598.546 367.539 599.5C352.199 600.99 336.758 601.151 321.389 599.98C310.73 599.332 300.14 597.834 289.719 595.5C282.409 593.77 272.719 591.5 267.599 585.5C262.089 579.04 268.809 571.21 275.009 568.4C285.459 563.66 297.699 564.06 308.679 561.12C320.029 558.12 327.589 551.12 332.539 540.47C338.169 528.41 340.169 514.94 341.249 501.78C342.439 487.11 342.249 472.36 341.999 457.65C341.839 447.4 342.109 437.12 341.679 426.87C341.307 415.819 340.043 404.817 337.899 393.97C335.899 384.47 333.089 373.1 325.739 366.2C321.899 362.59 317.419 361.94 312.489 360.59C303.414 358.147 294.68 354.58 286.489 349.97C272.426 342.074 260.456 330.927 251.579 317.46C236.119 293.46 234.049 264.46 237.339 236.76C240.809 207.56 250.819 180.1 257.829 151.76C259.829 143.69 261.719 135.59 264.199 127.66C266.199 121.14 268.429 112.97 272.979 107.66C275.979 104.21 281.059 102.8 285.299 101.76C291.31 100.394 297.431 99.5672 303.589 99.29C314.999 98.66 326.499 99.08 337.999 99C354.169 98.9 370.299 96.76 386.479 97.29C392.639 97.49 399.429 97.93 404.989 100.86C409.629 103.3 411.169 107.06 412.419 111.86C415.419 123.31 418.099 134.86 420.759 146.37C427.989 177.64 434.759 209.03 440.439 240.63C443.699 258.91 446.329 277.98 442.689 296.42C439.196 314.315 429.712 330.486 415.799 342.27C403.549 352.62 388.519 359 372.999 362.46C368.289 363.51 370.279 370.75 374.999 369.69Z" fill="#F04B24"/>
<path d="M426.218 299.57C420.998 318.13 405.998 332.91 388.598 341.19C371.198 349.47 351.518 351.87 332.238 351.8C317.938 351.75 303.048 350.2 290.928 342.62C282.728 337.49 276.378 329.95 270.178 322.53C267.262 319.256 264.638 315.733 262.338 312C258.188 304.77 256.578 296.38 255.338 288.14C254.418 282.08 253.652 276 253.038 269.9C252.538 264.9 252.208 259.55 254.628 255.15C257.048 250.75 261.948 248.06 266.848 246.69C287.058 241.02 307.508 252.77 327.848 257.76C342.68 261.279 358.099 261.531 373.038 258.5C382.978 256.5 393.038 253.26 403.038 254.92C407.732 255.705 412.18 257.562 416.039 260.347C419.898 263.131 423.063 266.767 425.288 270.974C427.513 275.18 428.738 279.842 428.868 284.599C428.999 289.356 428.03 294.078 426.038 298.4" fill="#F04B24"/>
<path d="M275.41 216.6C276.67 199.16 281.65 182.18 284.76 164.98C287 152.64 291.01 138.14 302.92 134.21C306.197 133.158 309.715 133.113 313.018 134.081C316.321 135.049 319.258 136.986 321.45 139.64C326.95 146.64 325.68 156.69 324.06 165.48C319.17 192.02 313.5 218.48 311.22 245.37C308.94 272.26 310.15 299.82 318.73 325.37C319.84 328.67 320.1 333.71 316.65 334.21C315.771 334.272 314.89 334.125 314.08 333.78C301.62 329.43 291.209 320.625 284.85 309.06C277.03 294.7 276.28 277.67 275.71 261.33C275.2 246.7 274.35 231.24 275.41 216.6Z" fill="#FEF4F8"/>
</svg>
