<svg width="128" height="112" viewBox="0 0 128 112" fill="none" xmlns="http://www.w3.org/2000/svg">
<g clip-path="url(#clip0_61_1700)">
<path d="M106.812 52.4676C110.78 53.8578 115.577 52.8766 118.411 49.7602C121.245 46.6438 121.666 41.4822 119.09 38.1613C117.69 36.3547 115.589 35.1642 114.298 33.2773C111.62 29.3818 112.969 23.3729 109.526 20.1299C106.551 17.3276 101.533 18.1237 98.2368 15.7085C97.1411 14.905 96.3134 13.7972 95.393 12.7868C93.288 10.5373 90.6926 8.80347 87.8086 7.71996C84.9246 6.63645 81.8295 6.23247 78.764 6.53941C73.0668 7.15295 67.321 9.51705 61.9451 7.53764C57.458 5.88691 44.615 4.27757 29.3956 13.5757C21.7531 18.243 17.3536 25.7127 13.1757 34.7381C12.4696 36.2622 11.3813 43.318 11.6856 46.0035C12.4672 52.9399 6.05662 62.165 7.23744 69.9755C7.6343 72.6025 8.94174 74.0098 9.71354 76.5492C11.2084 81.4186 10.9017 87.033 14.0351 91.043C16.5721 94.2884 20.8109 95.6981 23.7958 98.5345C25.1349 99.8079 26.1989 101.347 27.5282 102.63C28.9315 103.98 30.6101 105.011 32.449 105.653C34.2879 106.294 36.2437 106.53 38.1825 106.345C42.0463 105.926 45.6862 103.613 47.5999 100.229C48.4666 98.6952 48.9828 96.9861 49.8398 95.4473C51.6951 92.1093 55.0744 89.699 56.4135 86.1224C56.8274 85.0219 57.0368 83.8338 57.6309 82.821C58.4684 81.4015 59.9463 80.5129 61.2269 79.4781C64.205 77.0546 66.2517 73.6743 67.0191 69.9122C67.1286 69.3668 67.2309 68.7752 67.6277 68.3856C68.1536 67.8695 68.9839 67.8987 69.7191 67.8987C72.3184 67.9042 74.8808 67.2833 77.1892 66.0886C79.4977 64.8938 81.4843 63.1605 82.9809 61.0353C83.4898 60.3049 83.9548 59.4966 84.6852 58.9707C87.1467 57.1787 90.7988 59.4966 93.6011 58.3011C94.9986 57.7046 95.9311 56.3241 97.3067 55.6789C98.8065 54.9899 100.559 55.2577 102.215 55.2334C103.871 55.2091 106.213 54.0161 106.812 52.4676Z" fill="#FFC736"/>
<path d="M105.193 58.3377C112.497 60.7724 121.715 57.729 125.158 50.5661C126.862 46.9944 127.485 42.7483 126.215 38.921C125.572 36.9446 124.531 35.1214 123.154 33.5646C122.068 32.3108 120.719 31.3442 119.565 30.156L119.307 29.8785C118.89 29.3915 118.971 29.5052 119.551 30.2194C119.551 30.0684 119.134 29.5157 119.047 29.3721C118.769 28.9192 119.02 28.6611 119.256 29.9296C119.165 29.6109 119.057 29.2972 118.932 28.9898C118.506 27.585 118.299 26.1242 118.036 24.6828C117.423 21.3303 116.193 17.9339 113.574 15.6112C110.776 13.1131 107.431 12.3827 103.92 11.5209C103.326 11.3748 102.537 10.9511 101.943 10.9341L102.768 11.292C102.562 11.2011 102.36 11.1021 102.162 10.995L101.87 10.827C101.362 10.4926 101.477 10.6022 102.216 11.1557C102.165 11.2117 99.2015 7.9735 98.9069 7.68621C93.7697 2.72673 86.3074 -0.209521 79.1372 0.408893C76.996 0.620949 74.8675 0.946029 72.7607 1.38277C71.8866 1.5532 71.015 1.7285 70.1385 1.88675C69.8488 1.93788 69.5591 1.98901 69.2669 2.0377C68.9747 2.0864 68.6874 2.13022 68.3977 2.17161C69.2937 2.05475 69.4008 2.03527 68.7191 2.11318C67.8596 2.16675 67.0148 2.24222 66.1456 2.21787C65.9021 2.21787 65.0622 2.28117 64.8723 2.13022L65.6465 2.22518C65.3657 2.17486 65.0865 2.11562 64.809 2.04744C63.9568 1.83563 63.1436 1.4972 62.2963 1.2659C51.272 -1.72391 39.0036 1.4339 29.199 6.67094C23.0466 9.95535 18.1577 14.462 14.2086 20.1908C12.5108 22.6998 10.9903 25.3243 9.65815 28.0452C8.42619 30.5042 7.16502 32.9462 6.62695 35.6609C6.04629 38.4597 5.68889 41.3002 5.55811 44.1556C5.52159 45.1806 5.66037 46.1837 5.6628 47.2062C5.6628 47.7297 5.56298 48.258 5.57272 48.7766C5.53864 47.0723 5.70663 47.8612 5.5995 48.4552C5.51916 48.9008 5.42421 49.3439 5.32195 49.7822C3.90008 55.8543 1.00766 61.5637 1.00279 67.9304C0.968423 69.8043 1.25161 71.6705 1.84033 73.4499C2.21284 74.4944 2.67299 75.5145 3.14776 76.5176C3.24758 76.7294 3.35228 76.9388 3.4521 77.1506C3.55192 77.3624 3.65662 77.584 3.75644 77.8007C3.39448 76.9112 3.33523 76.7749 3.5787 77.3916C4.53554 80.3669 4.87153 83.437 5.54351 86.4779C6.36643 90.1836 7.9782 93.7528 10.7197 96.4432C13.186 98.8779 16.3195 100.499 19.1364 102.467C19.8255 102.954 18.0067 101.449 18.9319 102.328C19.2168 102.598 19.5138 102.849 19.7914 103.126C20.3952 103.73 20.9405 104.388 21.4957 105.035C22.8794 106.682 24.4835 108.131 26.2628 109.34C29.563 111.517 33.4571 112.618 37.4089 112.49C41.672 112.298 45.5188 110.74 48.8178 108.071C50.1461 106.959 51.3094 105.664 52.2727 104.224C53.3318 102.71 53.8918 100.95 54.6903 99.3015C55.0329 98.5935 55.431 97.9137 55.8809 97.2685C56.0467 97.0847 56.1928 96.8839 56.3167 96.6696L55.8298 97.3148C55.9921 97.1216 56.1495 96.9293 56.3021 96.7378C57.5852 95.1942 58.9048 93.6944 60.0832 92.0631C61.09 90.6223 61.8799 89.0416 62.4278 87.3715C62.5569 86.999 62.6713 86.6192 62.7784 86.2442L62.8977 85.8693C63.1217 85.2509 63.0616 85.3734 62.7175 86.2369L62.9026 85.8936C63.2597 85.3547 63.1663 85.4635 62.6226 86.2199C62.6226 86.2199 63.7304 85.1949 63.7304 85.19L63.1022 85.6769L63.7133 85.2143C64.3293 84.7444 64.9502 84.2843 65.5467 83.7925C66.0866 83.3513 66.5996 82.8781 67.083 82.3755C69.807 79.5527 71.7552 76.0738 72.7388 72.2763C72.7996 72.0329 72.8508 71.7894 72.9068 71.5459C73.2208 70.1411 73.345 71.2879 71.9499 72.7049L70.0752 73.8613C68.9812 73.9798 68.7613 74.0269 69.4154 74.0025C69.8918 74.0239 70.3691 74.0157 70.8446 73.9782C74.6111 73.7347 78.3605 72.6659 81.5573 70.6281C83.149 69.6289 84.6091 68.4339 85.9032 67.071C86.6236 66.2751 87.2967 65.4378 87.9191 64.5632C88.1042 64.3197 88.2819 64.0519 88.4596 63.7939C88.6025 63.5796 88.7485 63.367 88.8979 63.156C88.3217 63.8669 88.2543 63.9886 88.6958 63.5212L88.0384 64.0495C87.0645 64.4082 86.8754 64.4894 87.4711 64.293C88.613 63.9911 85.9348 64.2516 87.1351 64.3514C87.8242 64.4098 88.5034 64.4366 89.1925 64.5243C91.0355 64.7677 92.7398 64.8456 94.5853 64.383C96.7912 63.8304 98.4979 62.4353 100.171 60.9745C101.108 60.1564 98.9532 61.6294 100.071 61.1035L99.3062 61.4005C99.5615 61.3105 99.8237 61.2413 100.09 61.1936L99.294 61.3202C99.57 61.304 99.8467 61.2967 100.124 61.2983C100.543 61.2983 100.962 61.3178 101.381 61.3275C105.42 61.403 110.287 59.4674 112.069 55.5524C112.765 54.021 113.145 52.5455 112.682 50.8632C112.293 49.451 111.202 47.922 109.885 47.2257C107.207 45.816 102.966 46.3151 101.558 49.417C101.315 49.9672 100.811 50.3081 101.88 49.154C101.103 49.9915 103.168 48.4528 102.123 49.0152L101.838 49.1881C101.272 49.4803 101.456 49.4186 102.391 49.0031C102.18 49.0516 101.973 49.1201 101.775 49.2076C100.718 49.6263 103.272 49.2587 102.216 49.1711C101.807 49.137 101.376 49.171 100.964 49.1516C99.7266 49.1097 98.4879 49.1896 97.2659 49.3902C95.009 49.7773 93.2998 50.9313 91.5712 52.3629C91.3496 52.548 90.9187 52.8085 90.7653 53.052C91.2644 52.2656 91.7002 52.4238 91.1548 52.7233C90.0446 53.3368 92.5426 52.285 91.3569 52.6454C90.7077 52.772 90.9154 52.746 91.9802 52.5675C91.753 52.5788 91.5249 52.5788 91.296 52.5675C90.0154 52.5236 88.7591 52.2144 87.4784 52.1779C85.4219 52.1036 83.3892 52.638 81.6352 53.7142C80.2596 54.5883 79.3465 55.6912 78.4067 57.0059C78.2193 57.2689 78.044 57.5367 77.8614 57.8021C77.3404 58.5592 77.3744 57.9043 78.0415 57.6195C77.8224 57.7144 77.4864 58.2744 77.3111 58.457C77.0595 58.7264 76.7982 58.9878 76.5272 59.241C76.347 59.409 76.1547 59.5648 75.9745 59.7279C75.4778 60.1337 75.5987 60.046 76.3372 59.465C76.1392 59.611 75.9372 59.7531 75.731 59.891C75.1667 60.2677 74.5796 60.6092 73.9732 60.9136C73.3669 61.2179 73.0748 60.9939 74.2507 60.8381C73.9245 60.882 73.5203 61.1181 73.2111 61.2228C72.6267 61.4188 72.0317 61.5814 71.4289 61.7098L71.0661 61.7804C70.4071 61.8891 70.5808 61.8704 71.5872 61.7244C71.1635 61.644 70.5524 61.8096 70.1117 61.8169C67.6016 61.8534 65.2204 62.2137 63.3457 64.0811C61.7071 65.7124 61.4223 67.6991 60.8014 69.7686C60.6919 70.1338 60.558 70.499 60.4338 70.8472C60.0053 72.1157 61.0912 69.6152 60.4338 70.7887C60.1246 71.3463 59.8495 71.9087 59.5062 72.4468C59.4356 72.5563 58.8342 73.2916 58.861 73.3866L59.3479 72.756C59.1856 72.9524 59.0233 73.1455 58.861 73.3354C58.3521 73.9076 57.7897 74.4091 57.2322 74.9277C56.2437 75.8505 58.3448 74.0951 57.2638 74.9277C56.8532 75.2394 56.4474 75.5535 56.0465 75.87C55.3245 76.3943 54.6477 76.9782 54.0232 77.6156C52.3603 79.4149 51.5569 81.4673 50.8192 83.7657C50.7245 84.0086 50.6432 84.2565 50.5757 84.5083L50.9044 83.7316C50.8021 83.9523 50.6926 84.1699 50.5757 84.3841C50.286 84.9173 49.5069 85.6574 49.373 86.2199C49.3973 86.1176 50.3079 85.0756 49.6383 85.8595C49.3949 86.142 49.1514 86.4317 48.9225 86.7141C48.4356 87.2814 47.9487 87.8438 47.4763 88.4184C46.3588 89.7843 45.2194 91.1867 44.4037 92.7619C43.5881 94.3372 43.0939 95.983 42.1882 97.4706C42.0275 97.7336 41.6696 98.089 41.5771 98.3739C41.8643 97.4828 42.2807 97.5534 41.8376 97.9843C41.5771 98.2278 41.3506 98.5127 41.0706 98.7586L40.8004 99.002C40.3134 99.4111 40.44 99.321 41.1802 98.7318C40.7614 98.7878 40.0554 99.4744 39.6366 99.7057L39.3128 99.8712C38.7252 100.144 38.877 100.087 39.7681 99.7008C39.3907 99.6862 38.7625 100.054 38.3827 100.154C38.1393 100.215 37.8958 100.256 37.6742 100.319C36.4131 100.658 39.191 100.275 37.8252 100.305C37.1069 100.319 36.4106 100.305 35.6948 100.283C34.8378 100.249 37.2433 100.636 35.9699 100.307C35.5926 100.21 35.2128 100.139 34.8378 100.032C34.7526 100.008 33.7544 99.6375 33.7325 99.6594C34.5245 100.007 34.7112 100.088 34.2924 99.9029C34.1155 99.8217 33.941 99.7357 33.769 99.6448C33.4232 99.4662 33.0864 99.2723 32.7586 99.0629L32.4323 98.8511C31.9048 98.4745 32.003 98.5606 32.7269 99.1092C32.6928 99.1554 31.3221 97.7993 31.2661 97.7287C30.1096 96.4967 29.1138 95.1236 27.8575 93.9866C26.5184 92.8044 25.0862 91.7321 23.5749 90.7801C23.0466 90.4392 22.5109 90.1081 21.9802 89.7697C21.6612 89.5676 21.3447 89.3655 21.0306 89.1585C20.7872 89.0027 20.0567 88.304 19.8133 88.3064C19.9204 88.3064 20.9405 89.2803 20.1687 88.5718C19.8936 88.3283 19.6088 88.0848 19.3458 87.8292C19.2557 87.7416 18.6811 87.0111 18.5886 87.0136C18.9027 86.999 19.3823 88.1482 18.7591 87.184C18.5967 86.9227 18.4344 86.6549 18.2721 86.3806L18.1017 86.0494C17.8258 85.4602 17.8777 85.6055 18.2575 86.4852C18.2575 85.8717 17.7267 84.9733 17.5587 84.3452C16.7967 81.4844 16.5703 78.5019 15.7985 75.6508C15.3334 73.9246 14.5811 72.291 13.819 70.6816C13.6949 70.4187 13.5756 70.1533 13.4465 69.8928C13.0862 69.1624 13.9335 71.3999 13.5878 70.2068C13.4831 69.8465 13.3443 69.5008 13.2664 69.1356C13.2047 68.8743 13.1536 68.6105 13.113 68.3443C13.2445 69.4042 13.2802 69.6063 13.2201 68.9505C13.2201 68.376 13.1763 67.8087 13.2006 67.2463C13.2152 66.8957 13.2542 66.5499 13.2785 66.2018C13.3686 64.9503 13.0643 67.4191 13.225 66.5889C13.4904 65.206 13.7898 63.845 14.1818 62.4937C15.7619 57.0278 18.2015 51.6301 17.7608 45.8112C17.7083 44.9334 17.7197 44.0529 17.7949 43.1768C17.8339 42.6168 17.8874 42.0593 17.9483 41.5042C17.9824 41.1925 18.0019 40.8687 18.0603 40.562L17.9264 41.5529C17.9556 41.3467 17.9856 41.1398 18.0165 40.932C18.1723 39.9168 18.3476 38.9015 18.5838 37.9008C18.6763 37.5088 18.8004 37.129 18.9003 36.7419C19.0147 36.2915 19.655 35.5976 18.4352 37.8107C18.6933 37.3408 18.893 36.8369 19.1243 36.3499C20.3774 33.6617 21.7762 31.0437 23.3144 28.5078C23.9571 27.4681 24.634 26.448 25.3522 25.4595C25.6176 25.0943 26.4357 24.3225 25.267 25.5399C25.5105 25.2964 25.715 24.975 25.9414 24.7023C26.3959 24.1537 26.8658 23.6189 27.3511 23.0979C28.2397 22.1476 29.1862 21.2532 30.1851 20.4197C30.6209 20.0545 31.4024 19.7988 30.0731 20.483C30.3285 20.3231 30.5726 20.1458 30.8035 19.9522C31.4804 19.4653 32.1791 19.027 32.89 18.5985C34.3509 17.7253 35.8417 16.9202 37.3626 16.1833C37.9786 15.8863 38.6773 15.4675 39.3371 15.2825C37.7935 15.7134 39.0937 15.3945 39.4345 15.2581C39.876 15.0844 40.3207 14.9173 40.7687 14.7566C43.3627 13.8183 46.0376 13.1206 48.7594 12.6725C49.2074 12.5994 50.4223 12.5118 48.4405 12.6993C48.757 12.67 49.0735 12.6213 49.3876 12.5873C49.8956 12.5337 50.4045 12.4899 50.9141 12.4558C52.039 12.3827 53.1638 12.356 54.2911 12.3852C55.1968 12.4095 56.0952 12.4801 56.996 12.5678C58.3838 12.7017 55.3282 12.2902 56.6819 12.524C57.1056 12.597 57.5292 12.6676 57.9504 12.7674C60.1611 13.2373 62.177 14.0067 64.4535 14.2769C68.1737 14.7176 71.9183 13.9458 75.5606 13.2349C76.291 13.0937 77.0214 12.9476 77.7518 12.821C78.1462 12.7504 78.6673 12.5775 79.0666 12.6067L78.3361 12.7041C78.6072 12.67 78.8783 12.6408 79.1493 12.6165C79.7726 12.5629 80.3983 12.5402 81.0265 12.5483C81.4014 12.5483 81.7764 12.5637 82.1513 12.5946C82.4013 12.6124 82.6504 12.6351 82.8988 12.6627C81.9638 12.528 81.735 12.4972 82.2122 12.5702C83.5092 12.794 84.7854 13.1254 86.0274 13.5611L86.3804 13.6926C86.9842 13.9345 86.8462 13.8752 85.9665 13.5149C86.0687 13.6829 86.7943 13.9093 86.9818 14.0018C87.6522 14.3487 88.3024 14.7332 88.9295 15.1534L89.2387 15.3652C89.7598 15.7451 89.6502 15.6525 88.91 15.0877C89.0342 15.3312 89.5674 15.6282 89.7719 15.8181C90.2394 16.2344 90.6849 16.6751 91.111 17.1353C92.4915 18.6277 93.7186 20.0715 95.4642 21.1915C98.0499 22.8544 101.023 23.2634 103.92 24.0401C104.195 24.1131 104.468 24.191 104.738 24.2836L105.059 24.3907C105.658 24.6147 105.485 24.5335 104.538 24.1472C104.815 24.3297 105.109 24.4862 105.415 24.6147C105.997 24.9068 105.415 25.0432 104.994 24.247C105.198 24.5082 105.434 24.7422 105.697 24.9434L105.14 24.2129C105.261 24.385 105.376 24.5627 105.483 24.7461C105.605 24.9555 105.97 25.8831 105.6 24.8703C105.205 23.7625 105.675 25.143 105.739 25.3573C106.491 27.8236 106.557 30.4555 107.443 32.8878C108.107 34.8273 109.128 36.6256 110.452 38.1906C111.363 39.2594 112.471 40.1188 113.488 41.0781C113.766 41.3386 114.019 41.6235 114.294 41.8889C115.224 42.7824 113.664 40.7446 114.224 41.7939C114.328 41.9911 114.547 42.5438 114.711 42.6777C114.601 42.5876 114.241 41.2388 114.467 42.1591C114.547 42.4829 114.64 42.8116 114.728 43.133C115.054 44.3236 114.696 41.6162 114.686 42.8554C114.686 43.1379 114.706 43.4203 114.686 43.7051C114.64 45.1806 115.015 42.461 114.737 43.6102C114.657 43.9438 114.594 44.2749 114.494 44.6036C114.438 44.791 114.007 45.8209 114.45 44.847C114.893 43.8731 114.406 44.8811 114.319 45.0418C114.185 45.2853 113.832 45.6456 113.776 45.9061L114.311 45.2122C114.164 45.3891 114.009 45.5596 113.846 45.7235C113.683 45.8891 113.505 46.0376 113.34 46.2105C112.471 47.0821 114.538 45.502 113.466 46.0985C113.162 46.2665 112.473 46.5245 112.249 46.7753C112.76 46.1837 113.425 46.3273 112.573 46.6195C112.298 46.7144 112.018 46.7997 111.738 46.863C111.391 46.9115 111.048 46.9831 110.71 47.0772L111.633 46.9506C111.399 46.9733 111.166 46.9896 110.932 46.9993C110.355 47.0212 109.744 46.8849 109.179 46.9336C110.62 46.807 110.116 47.0772 109.422 46.9068C109.082 46.824 108.748 46.7193 108.414 46.6073C105.391 45.6042 101.631 47.7662 100.928 50.8583C100.178 54.206 101.955 57.264 105.193 58.3377Z" fill="#FFC736"/>
<path d="M106.812 52.4681C110.78 53.8583 115.577 52.8771 118.411 49.7607C121.245 46.6443 121.666 41.4827 119.09 38.1618C117.69 36.3552 115.589 35.1647 114.298 33.2778C111.62 29.3822 112.969 23.3734 109.526 20.1304C106.551 17.3281 101.533 18.1242 98.2368 15.709C97.1411 14.9055 96.3134 13.7977 95.393 12.7873C93.288 10.5378 90.6926 8.80396 87.8086 7.72045C84.9246 6.63693 81.8295 6.23295 78.764 6.5399C73.0668 7.15344 67.321 9.51754 61.9451 7.53813C57.458 5.8874 44.615 4.27806 29.3956 13.5762C21.7531 18.2435 17.3536 25.7132 13.1757 34.7386C12.4696 36.2627 11.3813 43.3185 11.6856 46.0039C12.4672 52.9404 6.05662 62.1655 7.23744 69.976C7.6343 72.603 8.94174 74.0103 9.71354 76.5497C11.2084 81.4191 10.9017 87.0335 14.0351 91.0434C16.5721 94.2889 20.8109 95.6986 23.7958 98.535C25.1349 99.8084 26.1989 101.347 27.5282 102.63C28.9315 103.981 30.6101 105.012 32.449 105.653C34.2879 106.294 36.2437 106.531 38.1825 106.346C42.0463 105.927 45.6862 103.614 47.5999 100.23C48.4666 98.6957 48.9828 96.9865 49.8398 95.4478C51.6951 92.1098 55.0744 89.6995 56.4135 86.1229C56.8274 85.0224 57.0368 83.8343 57.6309 82.8215C58.4684 81.402 59.9463 80.5134 61.2269 79.4786C64.205 77.0551 66.2517 73.6748 67.0191 69.9127C67.1286 69.3673 67.2309 68.7757 67.6277 68.3861C68.1536 67.87 68.9839 67.8992 69.7191 67.8992C72.3184 67.9047 74.8808 67.2838 77.1892 66.089C79.4977 64.8943 81.4843 63.161 82.9809 61.0358C83.4898 60.3054 83.9548 59.497 84.6852 58.9712C87.1467 57.1792 90.7988 59.497 93.6011 58.3016C94.9986 57.7051 95.9311 56.3246 97.3067 55.6794C98.8065 54.9904 100.559 55.2582 102.215 55.2339C103.871 55.2095 106.213 54.0165 106.812 52.4681Z" fill="#FFC736"/>
<path d="M106.488 53.6413C111.844 55.4162 118.462 53.4319 120.953 48.1073C122.09 45.6726 122.372 42.7826 121.52 40.214C120.546 37.268 118.17 35.7317 116.125 33.5867C112.3 29.5743 114.505 22.8034 110.135 19.0442C108.022 17.2255 105.241 16.853 102.629 16.2151C101.27 15.8816 99.8973 15.4725 98.7773 14.5985C97.521 13.6246 96.6104 12.2344 95.4686 11.129C91.1932 7.00223 85.0748 4.76717 79.1439 5.28577C75.6306 5.58767 72.2318 6.63702 68.7258 6.99005C66.9923 7.16292 65.2223 7.17509 63.5229 6.74658C62.6707 6.53477 61.8575 6.19634 61.0103 5.96504C51.2715 3.3234 40.3153 6.25965 31.6648 10.8783C26.3566 13.6643 21.8098 17.7054 18.4201 22.65C16.7223 25.1591 15.2018 27.7836 13.8696 30.5044C12.8081 32.6226 11.7928 34.6263 11.3302 36.9563C10.8388 39.3284 10.5367 41.7358 10.4269 44.1557C10.3904 45.1807 10.5292 46.1838 10.5316 47.2064C10.5112 48.5124 10.3389 49.8115 10.0179 51.0776C8.70318 56.6774 5.87893 62.0654 5.87893 67.9306C5.85345 69.3656 6.07414 70.7943 6.53143 72.1548C7.01837 73.5109 7.76339 74.7526 8.26981 76.099C9.36786 79.0036 9.5675 82.1711 10.2346 85.1853C10.8798 88.0948 12.0046 90.8801 14.1593 93.0031C16.3141 95.1262 19.1578 96.4506 21.59 98.2669C24.2682 100.263 25.9262 103.263 28.7188 105.14C31.2807 106.864 34.3221 107.735 37.4083 107.626C40.3114 107.486 43.0976 106.44 45.3746 104.634C46.4073 103.816 47.3146 102.851 48.0674 101.77C49.1265 100.256 49.6865 98.4958 50.4851 96.8475C51.8168 94.1012 54.103 92.0609 55.8682 89.6116C56.6548 88.532 57.2783 87.3425 57.7185 86.0813C58.3321 84.3015 58.7655 82.9843 60.2725 81.7499C62.6878 79.7705 64.8595 77.9567 66.3861 75.1568C67.1083 73.8401 67.6605 72.437 68.0295 70.9813C68.1342 70.5625 68.161 69.5204 68.4921 69.2502C68.9449 68.8752 70.2792 69.1309 70.8318 69.0968C75.2589 68.8134 79.4132 66.8598 82.4551 63.6309C83.4484 62.5669 84.1375 60.9941 85.2477 60.0811C86.3579 59.1681 87.9039 59.4943 89.187 59.6599C90.548 59.8352 91.9285 60.0324 93.2846 59.694C94.6408 59.3556 95.6463 58.4036 96.72 57.532C98.1443 56.3755 99.6197 56.4169 101.365 56.4485C103.837 56.4948 106.746 55.5087 107.849 53.0862C108.492 51.6717 106.388 50.4324 105.748 51.8689C104.445 54.7345 100.983 53.7485 98.5485 54.1015C97.1388 54.306 96.0821 54.9293 95.0011 55.8228C93.8057 56.8113 92.917 57.5125 91.2833 57.4565C88.8486 57.3737 86.2727 56.4266 84.0693 57.9434C82.9152 58.7347 82.309 60.0178 81.4617 61.0866C80.5285 62.2616 79.4189 63.2849 78.1725 64.1203C75.785 65.7292 72.9847 66.6167 70.1063 66.6767C68.9401 66.6938 67.6716 66.6256 66.7829 67.5142C65.8943 68.4029 65.8431 69.8808 65.4925 71.0543C64.6219 73.9015 62.9491 76.4375 60.6743 78.3584C59.6127 79.2592 58.393 79.9921 57.4556 81.0366C56.4111 82.2028 55.9753 83.5711 55.5078 85.0368C54.6411 87.7369 52.6617 89.6992 50.9063 91.8539C50.0207 92.8905 49.2455 94.0166 48.5933 95.2138C47.7947 96.755 47.2834 98.4349 46.3777 99.9225C43.2613 105.035 36.4953 106.516 31.2972 103.818C28.3536 102.291 26.776 99.5549 24.3875 97.4002C22.2498 95.4719 19.6374 94.2229 17.3464 92.5089C14.9847 90.7413 13.614 88.4648 12.8616 85.6357C12.1093 82.8066 11.8732 79.7924 11.1014 76.9414C10.371 74.1999 8.55223 71.8285 8.34528 68.9434C8.15537 66.3042 8.75431 63.6966 9.48229 61.1792C10.9431 56.1442 13.2926 51.1458 12.8909 45.7919C12.735 43.7491 13.0175 41.6334 13.3242 39.6175C13.6456 37.5163 14.0693 35.6562 14.9238 33.8618C17.3342 28.7977 20.0538 23.7481 23.9103 19.6237C28.1102 15.1317 33.7295 12.0761 39.4753 10.0213C44.2206 8.31696 49.2434 7.34308 54.2954 7.47943C55.9601 7.51072 57.6186 7.69408 59.25 8.02724C61.0127 8.40218 62.6586 9.12529 64.4578 9.36389C70.8951 10.2136 77.0647 6.84154 83.502 7.83003C86.3183 8.2693 89.0027 9.32513 91.3636 10.9221C92.5212 11.7095 93.5833 12.6287 94.5288 13.6611C95.6049 14.8249 96.5593 16.069 97.896 16.9577C100.063 18.3966 102.734 18.662 105.188 19.3145C107.8 20.0133 109.595 21.3767 110.403 24.0208C111.155 26.4871 111.221 29.119 112.107 31.5513C113.064 34.2051 114.949 35.756 116.94 37.6381C118.988 39.5688 119.969 42.0911 119.458 44.9056C119.221 46.2223 118.667 47.4617 117.845 48.5173C117.024 49.5729 115.958 50.4131 114.739 50.9656C112.342 52.0392 109.625 52.1585 107.143 51.2991C105.643 50.8 105.005 53.1495 106.488 53.6413Z" fill="#FF76B8"/>
<path d="M12.6314 48.0563C13.8123 45.8992 15.0053 43.6885 16.6438 41.8357C18.3078 39.9311 20.5181 38.5853 22.974 37.9816C28.2987 36.6084 34.2808 36.5207 39.7272 37.0783C49.6145 38.0765 59.7891 42.7584 64.8046 51.7352C67.5095 56.59 68.4566 62.3821 66.9617 67.7725C66.543 69.2845 68.8925 69.9297 69.3088 68.4202C72.2694 57.727 66.7085 46.8999 57.8779 40.8691C48.1391 34.2175 35.1378 33.1633 23.7921 35.3107C20.7487 35.8853 17.9488 37.0978 15.7113 39.2841C13.5201 41.4315 11.996 44.1535 10.5351 46.8317C9.78282 48.2073 11.884 49.4368 12.6363 48.049L12.6314 48.0563Z" fill="#FF76B8"/>
<path d="M64.3409 9.27382C76.8163 16.9918 81.5421 31.9944 82.7692 45.8479C83.1733 50.4032 83.278 54.978 83.317 59.5479C83.3291 61.1134 85.7638 61.1183 85.7517 59.5479C85.6202 44.0584 84.4101 27.5268 74.3305 14.954C71.8745 11.8762 68.9101 9.24118 65.5656 7.16293C64.2289 6.33514 63.0043 8.44115 64.3482 9.26408L64.3409 9.27382Z" fill="#FF76B8"/>
<path d="M98.3341 17.5979C104.136 29.5523 102.88 44.3187 95.3223 55.2116C94.4264 56.502 96.5397 57.7193 97.4235 56.4289C105.492 44.7984 106.602 29.0653 100.435 16.3587C99.7511 14.949 97.6499 16.1834 98.3341 17.576V17.5979Z" fill="#FF76B8"/>
<path d="M112.151 32.4078C113.503 39.3832 110.561 46.5096 106.228 51.8854C105.568 52.7034 106.727 53.877 107.392 53.0492C112.125 47.1767 115.214 39.5804 113.739 31.9695C113.537 30.9299 111.949 31.3706 112.149 32.4078H112.151Z" fill="#FF76B8"/>
<path d="M10.6071 77.0945C12.937 74.1948 15.8467 71.8136 19.15 70.1035C22.4533 68.3934 26.0774 67.3919 29.7901 67.1634C37.0942 66.7446 44.1841 69.6249 49.3505 74.7621C52.2182 77.5981 54.3856 81.0635 55.6807 84.8831C56.1676 86.361 58.5293 85.728 58.0278 84.2355C56.763 80.519 54.7589 77.0971 52.1361 74.176C49.5134 71.255 46.3263 68.8951 42.7671 67.2389C35.463 63.8765 27.1412 63.9423 19.7908 67.1098C15.5307 68.9333 11.7841 71.776 8.88091 75.3878C7.90703 76.6052 9.62593 78.3338 10.6022 77.1091L10.6071 77.0945Z" fill="#FF76B8"/>
<path d="M22.4378 97.7531C26.6561 94.582 31.5684 92.4602 36.7689 91.5631C41.9694 90.666 47.3087 91.0194 52.3456 92.594C53.3609 92.908 53.8064 91.3182 52.7839 91.0041C47.5357 89.3677 41.9747 88.9973 36.5559 89.9232C31.1371 90.8491 26.0145 93.045 21.6075 96.3312C20.7676 96.9569 21.5881 98.3885 22.4402 97.7531H22.4378Z" fill="#FF76B8"/>
</g>
<defs>
<clipPath id="clip0_61_1700">
<rect width="128" height="112" fill="white"/>
</clipPath>
</defs>
</svg>
