<svg width="681" height="681" viewBox="0 0 681 681" fill="none" xmlns="http://www.w3.org/2000/svg">
<path d="M551.881 356.64C568.181 362.35 587.881 358.32 599.521 345.52C611.161 332.72 612.891 311.52 602.311 297.88C596.561 290.46 587.931 285.57 582.631 277.82C571.631 261.82 577.171 237.14 563.031 223.82C550.811 212.31 530.201 215.58 516.661 205.66C512.161 202.36 508.761 197.81 504.981 193.66C496.335 184.421 485.675 177.299 473.829 172.849C461.984 168.399 449.272 166.739 436.681 168C413.281 170.52 389.681 180.23 367.601 172.1C349.171 165.32 296.421 158.71 233.911 196.9C202.521 216.07 184.451 246.75 167.291 283.82C164.391 290.08 159.921 319.06 161.171 330.09C164.381 358.58 138.051 396.47 142.901 428.55C144.531 439.34 149.901 445.12 153.071 455.55C159.211 475.55 157.951 498.61 170.821 515.08C181.241 528.41 198.651 534.2 210.911 545.85C216.411 551.08 220.781 557.4 226.241 562.67C232.004 568.217 238.899 572.452 246.452 575.086C254.005 577.72 262.038 578.69 270.001 577.93C285.871 576.21 300.821 566.71 308.681 552.81C312.241 546.51 314.361 539.49 317.881 533.17C325.501 519.46 339.381 509.56 344.881 494.87C346.581 490.35 347.441 485.47 349.881 481.31C353.321 475.48 359.391 471.83 364.651 467.58C376.883 457.626 385.289 443.742 388.441 428.29C388.891 426.05 389.311 423.62 390.941 422.02C393.101 419.9 396.511 420.02 399.531 420.02C410.207 420.043 420.731 417.492 430.213 412.585C439.694 407.678 447.854 400.559 454.001 391.83C456.091 388.83 458.001 385.51 461.001 383.35C471.111 375.99 486.111 385.51 497.621 380.6C503.361 378.15 507.191 372.48 512.841 369.83C519.001 367 526.201 368.1 533.001 368C539.801 367.9 549.421 363 551.881 356.64Z" fill="#2B2C2B"/>
<path d="M545.231 380.75C575.231 390.75 613.091 378.25 627.231 348.83C634.231 334.16 636.791 316.72 631.571 301C628.933 292.882 624.655 285.394 619.001 279C614.541 273.85 609.001 269.88 604.261 265L603.201 263.86C601.487 261.86 601.821 262.327 604.201 265.26C604.201 264.64 602.491 262.37 602.131 261.78C600.991 259.92 602.021 258.86 602.991 264.07C602.615 262.761 602.171 261.473 601.661 260.21C599.911 254.44 599.061 248.44 597.981 242.52C595.461 228.75 590.411 214.8 579.651 205.26C568.161 195 554.421 192 540.001 188.46C537.561 187.86 534.321 186.12 531.881 186.05L535.271 187.52C534.424 187.147 533.594 186.74 532.781 186.3L531.581 185.61C529.494 184.237 529.967 184.687 533.001 186.96C532.791 187.19 520.621 173.89 519.411 172.71C498.311 152.34 467.661 140.28 438.211 142.82C429.416 143.691 420.674 145.026 412.021 146.82C408.431 147.52 404.851 148.24 401.251 148.89C400.061 149.1 398.871 149.31 397.671 149.51C396.471 149.71 395.291 149.89 394.101 150.06C397.781 149.58 398.221 149.5 395.421 149.82C391.891 150.04 388.421 150.35 384.851 150.25C383.851 150.25 380.401 150.51 379.621 149.89L382.801 150.28C381.647 150.073 380.501 149.83 379.361 149.55C375.861 148.68 372.521 147.29 369.041 146.34C323.761 134.06 273.371 147.03 233.101 168.54C207.831 182.03 187.751 200.54 171.531 224.07C164.558 234.375 158.312 245.155 152.841 256.33C147.781 266.43 142.601 276.46 140.391 287.61C138.006 299.105 136.538 310.772 136.001 322.5C135.851 326.71 136.421 330.83 136.431 335.03C136.431 337.18 136.021 339.35 136.061 341.48C135.921 334.48 136.611 337.72 136.171 340.16C135.841 341.99 135.451 343.81 135.031 345.61C129.191 370.55 117.311 394 117.291 420.15C117.15 427.847 118.313 435.512 120.731 442.82C122.261 447.11 124.151 451.3 126.101 455.42C126.511 456.29 126.941 457.15 127.351 458.02C127.761 458.89 128.191 459.8 128.601 460.69C127.114 457.037 126.871 456.477 127.871 459.01C131.801 471.23 133.181 483.84 135.941 496.33C139.321 511.55 145.941 526.21 157.201 537.26C167.331 547.26 180.201 553.92 191.771 562C194.601 564 187.131 557.82 190.931 561.43C192.101 562.54 193.321 563.57 194.461 564.71C196.941 567.19 199.181 569.89 201.461 572.55C207.144 579.315 213.733 585.264 221.041 590.23C234.595 599.174 250.59 603.695 266.821 603.17C284.331 602.38 300.131 595.98 313.681 585.02C319.136 580.453 323.914 575.133 327.871 569.22C332.221 563 334.521 555.77 337.801 549C339.208 546.092 340.843 543.3 342.691 540.65C343.372 539.895 343.972 539.07 344.481 538.19L342.481 540.84C343.147 540.047 343.794 539.257 344.421 538.47C349.691 532.13 355.111 525.97 359.951 519.27C364.086 513.352 367.33 506.86 369.581 500C370.111 498.47 370.581 496.91 371.021 495.37L371.511 493.83C372.431 491.29 372.184 491.793 370.771 495.34L371.531 493.93C372.997 491.717 372.614 492.163 370.381 495.27C370.381 495.27 374.931 491.06 374.931 491.04L372.351 493.04L374.861 491.14C377.391 489.21 379.941 487.32 382.391 485.3C384.609 483.488 386.716 481.544 388.701 479.48C399.889 467.886 407.891 453.597 411.931 438C412.181 437 412.391 436 412.621 435C413.911 429.23 414.421 433.94 408.691 439.76L400.991 444.51C396.497 444.997 395.594 445.19 398.281 445.09C400.238 445.178 402.198 445.144 404.151 444.99C419.621 443.99 435.021 439.6 448.151 431.23C454.689 427.126 460.686 422.218 466.001 416.62C468.959 413.351 471.724 409.912 474.281 406.32C475.041 405.32 475.771 404.22 476.501 403.16C477.087 402.28 477.687 401.407 478.301 400.54C475.934 403.46 475.657 403.96 477.471 402.04L474.771 404.21C470.771 405.683 469.994 406.017 472.441 405.21C477.131 403.97 466.131 405.04 471.061 405.45C473.891 405.69 476.681 405.8 479.511 406.16C487.081 407.16 494.081 407.48 501.661 405.58C510.721 403.31 517.731 397.58 524.601 391.58C528.451 388.22 519.601 394.27 524.191 392.11L521.051 393.33C522.099 392.96 523.176 392.676 524.271 392.48L521.001 393C522.134 392.933 523.271 392.903 524.411 392.91C526.131 392.91 527.851 392.99 529.571 393.03C546.161 393.34 566.151 385.39 573.471 369.31C576.331 363.02 577.891 356.96 575.991 350.05C574.391 344.25 569.911 337.97 564.501 335.11C553.501 329.32 536.081 331.37 530.301 344.11C529.301 346.37 527.231 347.77 531.621 343.03C528.431 346.47 536.911 340.15 532.621 342.46L531.451 343.17C529.124 344.37 529.881 344.117 533.721 342.41C532.853 342.61 532.006 342.891 531.191 343.25C526.851 344.97 537.341 343.46 533.001 343.1C531.321 342.96 529.551 343.1 527.861 343.02C522.778 342.848 517.69 343.176 512.671 344C503.401 345.59 496.381 350.33 489.281 356.21C488.371 356.97 486.601 358.04 485.971 359.04C488.021 355.81 489.811 356.46 487.571 357.69C483.011 360.21 493.271 355.89 488.401 357.37C485.734 357.89 486.587 357.783 490.961 357.05C490.027 357.097 489.091 357.097 488.151 357.05C482.891 356.87 477.731 355.6 472.471 355.45C464.024 355.145 455.675 357.34 448.471 361.76C442.821 365.35 439.071 369.88 435.211 375.28C434.441 376.36 433.721 377.46 432.971 378.55C430.831 381.66 430.971 378.97 433.711 377.8C432.811 378.19 431.431 380.49 430.711 381.24C429.677 382.347 428.604 383.42 427.491 384.46C426.751 385.15 425.961 385.79 425.221 386.46C423.181 388.127 423.677 387.767 426.711 385.38C425.897 385.98 425.067 386.563 424.221 387.13C421.903 388.677 419.492 390.08 417.001 391.33C414.511 392.58 413.311 391.66 418.141 391.02C416.801 391.2 415.141 392.17 413.871 392.6C411.471 393.405 409.027 394.073 406.551 394.6L405.061 394.89C402.354 395.337 403.067 395.26 407.201 394.66C405.461 394.33 402.951 395.01 401.141 395.04C390.831 395.19 381.051 396.67 373.351 404.34C366.621 411.04 365.451 419.2 362.901 427.7C362.451 429.2 361.901 430.7 361.391 432.13C359.631 437.34 364.091 427.07 361.391 431.89C360.121 434.18 358.991 436.49 357.581 438.7C357.291 439.15 354.821 442.17 354.931 442.56L356.931 439.97C356.264 440.777 355.597 441.57 354.931 442.35C352.841 444.7 350.531 446.76 348.241 448.89C344.181 452.68 352.811 445.47 348.371 448.89C346.684 450.17 345.017 451.46 343.371 452.76C340.405 454.914 337.626 457.312 335.061 459.93C328.231 467.32 324.931 475.75 321.901 485.19C321.512 486.188 321.178 487.206 320.901 488.24L322.251 485.05C321.831 485.957 321.381 486.85 320.901 487.73C319.711 489.92 316.511 492.96 315.961 495.27C316.061 494.85 319.801 490.57 317.051 493.79C316.051 494.95 315.051 496.14 314.111 497.3C312.111 499.63 310.111 501.94 308.171 504.3C303.581 509.91 298.901 515.67 295.551 522.14C292.201 528.61 290.171 535.37 286.451 541.48C285.791 542.56 284.321 544.02 283.941 545.19C285.121 541.53 286.831 541.82 285.011 543.59C283.941 544.59 283.011 545.76 281.861 546.77L280.751 547.77C278.751 549.45 279.271 549.08 282.311 546.66C280.591 546.89 277.691 549.71 275.971 550.66L274.641 551.34C272.227 552.46 272.851 552.227 276.511 550.64C274.961 550.58 272.381 552.09 270.821 552.5C269.821 552.75 268.821 552.92 267.911 553.18C262.731 554.57 274.141 553 268.531 553.12C265.581 553.18 262.721 553.12 259.781 553.03C256.261 552.89 266.141 554.48 260.911 553.13C259.361 552.73 257.801 552.44 256.261 552C255.911 551.9 251.811 550.38 251.721 550.47C254.974 551.897 255.741 552.23 254.021 551.47C253.294 551.137 252.577 550.783 251.871 550.41C250.451 549.677 249.067 548.88 247.721 548.02L246.381 547.15C244.214 545.603 244.617 545.957 247.591 548.21C247.451 548.4 241.821 542.83 241.591 542.54C236.841 537.48 232.751 531.84 227.591 527.17C222.091 522.315 216.208 517.911 210.001 514C207.831 512.6 205.631 511.24 203.451 509.85C202.141 509.02 200.841 508.19 199.551 507.34C198.551 506.7 195.551 503.83 194.551 503.84C194.991 503.84 199.181 507.84 196.011 504.93C194.881 503.93 193.711 502.93 192.631 501.88C192.261 501.52 189.901 498.52 189.521 498.53C190.811 498.47 192.781 503.19 190.221 499.23C189.554 498.157 188.887 497.057 188.221 495.93L187.521 494.57C186.387 492.15 186.601 492.747 188.161 496.36C188.161 493.84 185.981 490.15 185.291 487.57C182.161 475.82 181.231 463.57 178.061 451.86C176.151 444.77 173.061 438.06 169.931 431.45C169.421 430.37 168.931 429.28 168.401 428.21C166.921 425.21 170.401 434.4 168.981 429.5C168.551 428.02 167.981 426.6 167.661 425.1C167.407 424.027 167.197 422.943 167.031 421.85C167.571 426.203 167.717 427.033 167.471 424.34C167.471 421.98 167.291 419.65 167.391 417.34C167.451 415.9 167.611 414.48 167.711 413.05C168.081 407.91 166.831 418.05 167.491 414.64C168.581 408.96 169.811 403.37 171.421 397.82C177.911 375.37 187.931 353.2 186.121 329.3C185.905 325.695 185.952 322.079 186.261 318.48C186.421 316.18 186.641 313.89 186.891 311.61C187.031 310.33 187.111 309 187.351 307.74L186.801 311.81C186.921 310.963 187.044 310.113 187.171 309.26C187.811 305.09 188.531 300.92 189.501 296.81C189.881 295.2 190.391 293.64 190.801 292.05C191.271 290.2 193.901 287.35 188.891 296.44C189.951 294.51 190.771 292.44 191.721 290.44C196.868 279.399 202.613 268.646 208.931 258.23C211.571 253.96 214.351 249.77 217.301 245.71C218.391 244.21 221.751 241.04 216.951 246.04C217.951 245.04 218.791 243.72 219.721 242.6C221.587 240.347 223.517 238.15 225.511 236.01C229.161 232.107 233.048 228.434 237.151 225.01C238.941 223.51 242.151 222.46 236.691 225.27C237.74 224.613 238.742 223.885 239.691 223.09C242.471 221.09 245.341 219.29 248.261 217.53C254.261 213.943 260.384 210.637 266.631 207.61C269.161 206.39 272.031 204.67 274.741 203.91C268.401 205.68 273.741 204.37 275.141 203.81C276.954 203.097 278.781 202.41 280.621 201.75C291.275 197.896 302.261 195.031 313.441 193.19C315.281 192.89 320.271 192.53 312.131 193.3C313.431 193.18 314.731 192.98 316.021 192.84C318.107 192.62 320.197 192.44 322.291 192.3C326.911 192 331.531 191.89 336.161 192.01C339.881 192.11 343.571 192.4 347.271 192.76C352.971 193.31 340.421 191.62 345.981 192.58C347.721 192.88 349.461 193.17 351.191 193.58C360.271 195.51 368.551 198.67 377.901 199.78C393.181 201.59 408.561 198.42 423.521 195.5C426.521 194.92 429.521 194.32 432.521 193.8C434.141 193.51 436.281 192.8 437.921 192.92L434.921 193.32C436.034 193.18 437.147 193.06 438.261 192.96C440.821 192.74 443.391 192.647 445.971 192.68C447.511 192.68 449.051 192.743 450.591 192.87C451.617 192.943 452.641 193.037 453.661 193.15C449.821 192.597 448.881 192.47 450.841 192.77C456.168 193.689 461.41 195.05 466.511 196.84L467.961 197.38C470.441 198.373 469.874 198.13 466.261 196.65C466.681 197.34 469.661 198.27 470.431 198.65C473.184 200.075 475.855 201.654 478.431 203.38L479.701 204.25C481.841 205.81 481.391 205.43 478.351 203.11C478.861 204.11 481.051 205.33 481.891 206.11C483.811 207.82 485.641 209.63 487.391 211.52C493.061 217.65 498.101 223.58 505.271 228.18C515.891 235.01 528.101 236.69 540.001 239.88C541.131 240.18 542.251 240.5 543.361 240.88L544.681 241.32C547.141 242.24 546.427 241.907 542.541 240.32C543.679 241.07 544.884 241.713 546.141 242.24C548.531 243.44 546.141 244 544.411 240.73C545.248 241.803 546.219 242.764 547.301 243.59L545.011 240.59C545.511 241.297 545.981 242.027 546.421 242.78C546.921 243.64 548.421 247.45 546.901 243.29C545.281 238.74 547.211 244.41 547.471 245.29C550.561 255.42 550.831 266.23 554.471 276.22C557.199 284.186 561.391 291.573 566.831 298C570.571 302.39 575.121 305.92 579.301 309.86C580.441 310.93 581.481 312.1 582.611 313.19C586.431 316.86 580.021 308.49 582.321 312.8C582.751 313.61 583.651 315.88 584.321 316.43C583.871 316.06 582.391 310.52 583.321 314.3C583.651 315.63 584.031 316.98 584.391 318.3C585.731 323.19 584.261 312.07 584.221 317.16C584.221 318.32 584.301 319.48 584.221 320.65C584.031 326.71 585.571 315.54 584.431 320.26C584.101 321.63 583.841 322.99 583.431 324.34C583.201 325.11 581.431 329.34 583.251 325.34C585.071 321.34 583.071 325.48 582.711 326.14C582.161 327.14 580.711 328.62 580.481 329.69L582.681 326.84C582.074 327.567 581.437 328.267 580.771 328.94C580.101 329.62 579.371 330.23 578.691 330.94C575.121 334.52 583.611 328.03 579.211 330.48C577.961 331.17 575.131 332.23 574.211 333.26C576.311 330.83 579.041 331.42 575.541 332.62C574.411 333.01 573.261 333.36 572.111 333.62C570.686 333.819 569.276 334.113 567.891 334.5L571.681 333.98C570.721 334.073 569.761 334.14 568.801 334.18C566.431 334.27 563.921 333.71 561.601 333.91C567.521 333.39 565.451 334.5 562.601 333.8C561.201 333.46 559.831 333.03 558.461 332.57C546.041 328.45 530.601 337.33 527.711 350.03C524.631 363.78 531.931 376.34 545.231 380.75Z" fill="#2B2C2B"/>
<path d="M551.881 356.64C568.181 362.35 587.881 358.32 599.521 345.52C611.161 332.72 612.891 311.52 602.311 297.88C596.561 290.46 587.931 285.57 582.631 277.82C571.631 261.82 577.171 237.14 563.031 223.82C550.811 212.31 530.201 215.58 516.661 205.66C512.161 202.36 508.761 197.81 504.981 193.66C496.335 184.421 485.675 177.299 473.829 172.849C461.984 168.399 449.272 166.739 436.681 168C413.281 170.52 389.681 180.23 367.601 172.1C349.171 165.32 296.421 158.71 233.911 196.9C202.521 216.07 184.451 246.75 167.291 283.82C164.391 290.08 159.921 319.06 161.171 330.09C164.381 358.58 138.051 396.47 142.901 428.55C144.531 439.34 149.901 445.12 153.071 455.55C159.211 475.55 157.951 498.61 170.821 515.08C181.241 528.41 198.651 534.2 210.911 545.85C216.411 551.08 220.781 557.4 226.241 562.67C232.004 568.217 238.899 572.452 246.452 575.086C254.005 577.72 262.038 578.69 270.001 577.93C285.871 576.21 300.821 566.71 308.681 552.81C312.241 546.51 314.361 539.49 317.881 533.17C325.501 519.46 339.381 509.56 344.881 494.87C346.581 490.35 347.441 485.47 349.881 481.31C353.321 475.48 359.391 471.83 364.651 467.58C376.883 457.626 385.289 443.742 388.441 428.29C388.891 426.05 389.311 423.62 390.941 422.02C393.101 419.9 396.511 420.02 399.531 420.02C410.207 420.043 420.731 417.492 430.213 412.585C439.694 407.678 447.854 400.559 454.001 391.83C456.091 388.83 458.001 385.51 461.001 383.35C471.111 375.99 486.111 385.51 497.621 380.6C503.361 378.15 507.191 372.48 512.841 369.83C519.001 367 526.201 368.1 533.001 368C539.801 367.9 549.421 363 551.881 356.64Z" fill="#2B2C2B"/>
<path d="M550.551 361.46C572.551 368.75 599.731 360.6 609.961 338.73C614.631 328.73 615.791 316.86 612.291 306.31C608.291 294.21 598.531 287.9 590.131 279.09C574.421 262.61 583.481 234.8 565.531 219.36C556.851 211.89 545.431 210.36 534.701 207.74C529.121 206.37 523.481 204.69 518.881 201.1C513.721 197.1 509.981 191.39 505.291 186.85C487.731 169.9 462.601 160.72 438.241 162.85C423.811 164.09 409.851 168.4 395.451 169.85C388.331 170.56 381.061 170.61 374.081 168.85C370.581 167.98 367.241 166.59 363.761 165.64C323.761 154.79 278.761 166.85 243.231 185.82C221.428 197.263 202.753 213.861 188.831 234.17C181.857 244.475 175.612 255.255 170.141 266.43C165.781 275.13 161.611 283.36 159.711 292.93C157.692 302.673 156.451 312.561 156.001 322.5C155.851 326.71 156.421 330.83 156.431 335.03C156.347 340.394 155.639 345.73 154.321 350.93C148.921 373.93 137.321 396.06 137.321 420.15C137.216 426.044 138.122 431.912 140.001 437.5C142.001 443.07 145.061 448.17 147.141 453.7C151.651 465.63 152.471 478.64 155.211 491.02C157.861 502.97 162.481 514.41 171.331 523.13C180.181 531.85 191.861 537.29 201.851 544.75C212.851 552.95 219.661 565.27 231.131 572.98C241.653 580.062 254.145 583.636 266.821 583.19C278.744 582.617 290.188 578.319 299.541 570.9C303.782 567.542 307.509 563.58 310.601 559.14C314.951 552.92 317.251 545.69 320.531 538.92C326.001 527.64 335.391 519.26 342.641 509.2C345.872 504.766 348.432 499.88 350.241 494.7C352.761 487.39 354.541 481.98 360.731 476.91C370.651 468.78 379.571 461.33 385.841 449.83C388.807 444.422 391.075 438.659 392.591 432.68C393.021 430.96 393.131 426.68 394.491 425.57C396.351 424.03 401.831 425.08 404.101 424.94C422.284 423.776 439.347 415.752 451.841 402.49C455.921 398.12 458.751 391.66 463.311 387.91C467.871 384.16 474.221 385.5 479.491 386.18C485.081 386.9 490.751 387.71 496.321 386.32C501.891 384.93 506.021 381.02 510.431 377.44C516.281 372.69 522.341 372.86 529.511 372.99C539.661 373.18 551.611 369.13 556.141 359.18C558.781 353.37 550.141 348.28 547.511 354.18C542.161 365.95 527.941 361.9 517.941 363.35C512.151 364.19 507.811 366.75 503.371 370.42C498.461 374.48 494.811 377.36 488.101 377.13C478.101 376.79 467.521 372.9 458.471 379.13C453.731 382.38 451.241 387.65 447.761 392.04C443.928 396.866 439.37 401.069 434.251 404.5C424.444 411.108 412.943 414.754 401.121 415C396.331 415.07 391.121 414.79 387.471 418.44C383.821 422.09 383.611 428.16 382.171 432.98C378.595 444.674 371.724 455.09 362.381 462.98C358.021 466.68 353.011 469.69 349.161 473.98C344.871 478.77 343.081 484.39 341.161 490.41C337.601 501.5 329.471 509.56 322.261 518.41C318.623 522.668 315.439 527.293 312.761 532.21C309.481 538.54 307.381 545.44 303.661 551.55C290.861 572.55 263.071 578.63 241.721 567.55C229.631 561.28 223.151 550.04 213.341 541.19C204.561 533.27 193.831 528.14 184.421 521.1C174.721 513.84 169.091 504.49 166.001 492.87C162.911 481.25 161.941 468.87 158.771 457.16C155.771 445.9 148.301 436.16 147.451 424.31C146.671 413.47 149.131 402.76 152.121 392.42C158.121 371.74 167.771 351.21 166.121 329.22C165.481 320.83 166.641 312.14 167.901 303.86C169.221 295.23 170.961 287.59 174.471 280.22C184.371 259.42 195.541 238.68 211.381 221.74C228.631 203.29 251.711 190.74 275.311 182.3C294.801 175.3 315.431 171.3 336.181 171.86C343.018 171.989 349.83 172.742 356.531 174.11C363.771 175.65 370.531 178.62 377.921 179.6C404.361 183.09 429.701 169.24 456.141 173.3C467.708 175.104 478.734 179.441 488.431 186C493.185 189.234 497.547 193.009 501.431 197.25C505.851 202.03 509.771 207.14 515.261 210.79C524.161 216.7 535.131 217.79 545.211 220.47C555.941 223.34 563.311 228.94 566.631 239.8C569.721 249.93 569.991 260.74 573.631 270.73C577.561 281.63 585.301 288 593.481 295.73C601.891 303.66 605.921 314.02 603.821 325.58C602.847 330.988 600.575 336.079 597.199 340.414C593.823 344.75 589.445 348.201 584.441 350.47C574.594 354.88 563.436 355.37 553.241 351.84C547.081 349.79 544.461 359.44 550.551 361.46Z" fill="#FFC837"/>
<path d="M165.051 338.52C169.901 329.66 174.801 320.58 181.531 312.97C188.365 305.147 197.444 299.62 207.531 297.14C229.401 291.5 253.971 291.14 276.341 293.43C316.951 297.53 358.741 316.76 379.341 353.63C390.451 373.57 394.341 397.36 388.201 419.5C386.481 425.71 396.131 428.36 397.841 422.16C410.001 378.24 387.161 333.77 350.891 309C310.891 281.68 257.491 277.35 210.891 286.17C198.391 288.53 186.891 293.51 177.701 302.49C168.701 311.31 162.441 322.49 156.441 333.49C153.351 339.14 161.981 344.19 165.071 338.49L165.051 338.52Z" fill="#FFC837"/>
<path d="M377.441 179.23C428.681 210.93 448.091 272.55 453.131 329.45C454.791 348.16 455.221 366.95 455.381 385.72C455.431 392.15 465.431 392.17 465.381 385.72C464.841 322.1 459.871 254.2 418.471 202.56C408.383 189.919 396.208 179.096 382.471 170.56C376.981 167.16 371.951 175.81 377.471 179.19L377.441 179.23Z" fill="#FFC837"/>
<path d="M517.062 213.42C540.892 262.52 535.732 323.17 504.692 367.91C501.012 373.21 509.692 378.21 513.322 372.91C546.462 325.14 551.022 260.52 525.692 208.33C522.882 202.54 514.252 207.61 517.062 213.33V213.42Z" fill="#FFC837"/>
<path d="M573.811 274.25C579.361 302.9 567.281 332.17 549.481 354.25C546.771 357.61 551.531 362.43 554.261 359.03C573.701 334.91 586.391 303.71 580.331 272.45C579.501 268.18 572.981 269.99 573.801 274.25H573.811Z" fill="#FFC837"/>
<path d="M156.74 457.79C166.31 445.88 178.261 436.1 191.829 429.076C205.396 422.052 220.281 417.939 235.53 417C265.53 415.28 294.65 427.11 315.87 448.21C327.649 459.858 336.551 474.092 341.87 489.78C343.87 495.85 353.57 493.25 351.51 487.12C346.316 471.856 338.084 457.801 327.312 445.803C316.539 433.805 303.449 424.113 288.83 417.31C258.83 403.5 224.65 403.77 194.46 416.78C176.963 424.269 161.575 435.945 149.65 450.78C145.65 455.78 152.71 462.88 156.72 457.85L156.74 457.79Z" fill="#FFC837"/>
<path d="M205.331 542.64C222.657 529.615 242.833 520.901 264.193 517.216C285.553 513.531 307.483 514.983 328.171 521.45C332.341 522.74 334.171 516.21 329.971 514.92C308.415 508.199 285.575 506.677 263.318 510.48C241.062 514.283 220.022 523.303 201.921 536.8C198.471 539.37 201.841 545.25 205.341 542.64H205.331Z" fill="#FFC837"/>
</svg>
