<svg width="128" height="112" viewBox="0 0 128 112" fill="none" xmlns="http://www.w3.org/2000/svg">
<path d="M23.9893 30.4045C21.1485 30.6801 18.2283 35.7126 18.0238 39.213C17.8192 42.7135 18.9672 46.1408 20.2092 49.42C20.8549 51.1261 21.5298 52.8203 22.2339 54.5027C22.9311 56.1725 23.6637 57.8424 24.7387 59.3035C26.1581 61.2468 28.141 62.7768 29.2786 64.8975C29.9727 66.2273 30.3071 67.7155 30.2489 69.2144C30.1907 70.7133 29.7418 72.171 28.9467 73.443C27.2101 76.1565 23.9726 77.8159 22.8497 80.8258C21.6599 84.0174 23.3924 87.714 26.1059 89.7825C28.8194 91.8511 32.2885 92.5837 35.6595 93.068C43.4077 94.1826 51.7695 94.0991 58.4781 90.0685C59.7117 89.3275 60.9015 88.4299 61.6446 87.1963C62.3167 86.0817 62.5776 84.773 62.8281 83.4955C63.2915 81.1243 63.6985 78.4505 62.3125 76.4696C61.104 74.7413 58.8455 74.0483 57.4658 72.4515C56.7706 71.6143 56.3432 70.5875 56.239 69.5044C56.1348 68.4212 56.3586 67.3318 56.8813 66.3774C57.6223 65.0854 58.8643 64.1711 59.8036 63.0252C60.8723 61.7352 61.5486 60.1718 62.2102 58.6418C64.6921 52.8808 67.2198 46.9528 67.5183 40.6909C67.6394 38.2424 67.3889 35.6959 66.197 33.5543C65.0991 31.5839 62.4294 28.9956 60.0123 28.9956" fill="#FFC736"/>
<path d="M23.9893 30.4045C21.1485 30.6801 18.2283 35.7126 18.0238 39.213C17.8192 42.7135 18.9672 46.1408 20.2092 49.42C20.8549 51.1261 21.5298 52.8203 22.2339 54.5027C22.9311 56.1725 23.6637 57.8424 24.7387 59.3035C26.1581 61.2468 28.141 62.7768 29.2786 64.8975C29.9727 66.2273 30.3071 67.7155 30.2489 69.2144C30.1907 70.7133 29.7418 72.171 28.9467 73.443C27.2101 76.1565 23.9726 77.8159 22.8497 80.8258C21.6599 84.0174 23.3924 87.714 26.1059 89.7825C28.8194 91.8511 32.2885 92.5837 35.6595 93.068C43.4077 94.1826 51.7695 94.0991 58.4781 90.0685C59.7117 89.3275 60.9015 88.4299 61.6446 87.1963C62.3167 86.0817 62.5776 84.773 62.8281 83.4955C63.2915 81.1243 63.6985 78.4505 62.3125 76.4696C61.104 74.7413 58.8455 74.0483 57.4658 72.4515C56.7706 71.6143 56.3432 70.5875 56.239 69.5044C56.1348 68.4212 56.3586 67.3318 56.8813 66.3774C57.6223 65.0854 58.8643 64.1711 59.8036 63.0252C60.8723 61.7352 61.5486 60.1718 62.2102 58.6418C64.6921 52.8808 67.2198 46.9528 67.5183 40.6909C67.6394 38.2424 67.3889 35.6959 66.197 33.5543C65.0991 31.5839 62.4294 28.9956 60.0123 28.9956" stroke="#FFC736" stroke-width="10" stroke-miterlimit="10"/>
<path d="M23.9893 30.4045C21.1485 30.6801 18.2283 35.7126 18.0238 39.213C17.8192 42.7135 18.9672 46.1408 20.2092 49.42C20.8549 51.1261 21.5298 52.8203 22.2339 54.5027C22.9311 56.1725 23.6637 57.8424 24.7387 59.3035C26.1581 61.2468 28.141 62.7768 29.2786 64.8975C29.9727 66.2273 30.3071 67.7155 30.2489 69.2144C30.1907 70.7133 29.7418 72.171 28.9467 73.443C27.2101 76.1565 23.9726 77.8159 22.8497 80.8258C21.6599 84.0174 23.3924 87.714 26.1059 89.7825C28.8194 91.8511 32.2885 92.5837 35.6595 93.068C43.4077 94.1826 51.7695 94.0991 58.4781 90.0685C59.7117 89.3275 60.9015 88.4299 61.6446 87.1963C62.3167 86.0817 62.5776 84.773 62.8281 83.4955C63.2915 81.1243 63.6985 78.4505 62.3125 76.4696C61.104 74.7413 58.8455 74.0483 57.4658 72.4515C56.7706 71.6143 56.3432 70.5875 56.239 69.5044C56.1348 68.4212 56.3586 67.3318 56.8813 66.3774C57.6223 65.0854 58.8643 64.1711 59.8036 63.0252C60.8723 61.7352 61.5486 60.1718 62.2102 58.6418C64.6921 52.8808 67.2198 46.9528 67.5183 40.6909C67.6394 38.2424 67.3889 35.6959 66.197 33.5543C65.0991 31.5839 62.4294 28.9956 60.0123 28.9956" stroke="#FF76B8" stroke-width="3.03" stroke-miterlimit="10"/>
<path d="M24.1587 36.867C24.021 34.1222 23.8832 31.369 24.0606 28.6263C24.499 21.8342 26.8806 15.2445 30.4269 9.43548C31.9423 6.95365 33.727 4.54697 36.1692 2.96478C38.7752 1.31792 41.8888 0.668527 44.9359 1.13629C47.9739 1.62393 50.7734 3.0793 52.9178 5.28588C56.2993 8.73831 57.8188 13.5767 58.9001 18.2878C60.0489 23.2889 60.8337 28.3668 61.2483 33.4814C61.2984 34.1076 61.3339 34.7881 60.9957 35.3224C60.6576 35.8568 60.023 36.1219 59.4261 36.3369C49.8536 39.7976 39.3189 39.7935 29.2727 38.1466C27.6278 37.8794 25.6428 37.6289 24.1587 36.867Z" fill="#FF76B8"/>
<path d="M24.6853 36.8669C24.4766 32.5774 24.3514 28.3089 25.178 24.0758C25.9302 20.2995 27.1942 16.6436 28.9351 13.2092C30.5841 9.92377 32.5545 6.45882 35.4622 4.12311C38.5702 1.61833 42.8221 0.92325 46.6147 2.05458C54.3545 4.35063 57.0513 12.3117 58.6168 19.4169C59.5494 23.6573 60.218 27.9515 60.6186 32.2748C60.7146 33.3184 61.1028 34.8464 60.0445 35.4997C59.195 36.0236 58.0679 36.2657 57.1223 36.5538C55.1819 37.1408 53.2061 37.6037 51.2068 37.9398C46.7226 38.6617 42.1709 38.8718 37.6393 38.566C35.2639 38.424 32.8969 38.1694 30.5424 37.8166C28.5031 37.5098 26.2988 37.3136 24.4203 36.4077C23.8129 36.1155 23.2785 37.0214 23.8901 37.3157C25.6518 38.1652 27.5972 38.4094 29.5071 38.7121C31.6967 39.0607 33.8904 39.3383 36.1093 39.5115C40.559 39.893 45.0366 39.8056 49.4681 39.2506C51.6504 38.9694 53.8119 38.5454 55.9388 37.9815C56.9811 37.7032 58.0122 37.3873 59.0322 37.0339C59.8316 36.7563 60.7208 36.4933 61.2781 35.817C61.7541 35.2388 61.8313 34.5249 61.8021 33.7985C61.752 32.5461 61.5933 31.2937 61.4451 30.056C61.1877 27.7961 60.86 25.546 60.462 23.3056C59.1073 15.7056 57.283 6.511 49.9711 2.35515C46.5688 0.422294 42.4443 -0.0974489 38.7163 1.16747C34.9884 2.43238 32.3792 5.35463 30.3274 8.59832C27.7564 12.6276 25.8375 17.0374 24.6415 21.6649C23.3703 26.6891 23.3766 31.7258 23.6354 36.8669C23.6667 37.5411 24.7208 37.5453 24.6853 36.8669Z" fill="#FFC736"/>
<path d="M63.49 38.1819C64.3938 37.6329 65.8758 39.4343 65.5877 40.4675C65.2997 41.5007 64.3959 42.2229 63.5421 42.8721C61.7303 44.2518 59.8935 45.6462 57.7874 46.5082C56.699 46.9315 55.5779 47.2652 54.4352 47.506C45.7143 49.4967 36.6603 49.5273 27.9262 47.5957C26.4755 47.2743 25.004 46.8839 23.7745 46.0532C22.5451 45.2224 21.5745 43.8698 21.5703 42.3837C21.5703 41.8389 21.7373 41.2377 22.1965 40.9622C22.4919 40.8173 22.8201 40.7525 23.1483 40.7743C24.9622 40.7743 26.749 41.1772 28.5148 41.5884L34.6682 43.0182C36.384 43.4169 38.1019 43.8156 39.8448 44.0723C48.1927 45.2596 56.6746 43.1466 63.49 38.1819Z" fill="#FF76B8"/>
<path d="M94.734 61.0592C94.9804 60.5228 95.2413 59.7776 95.7422 59.4144C96.3684 58.9552 97.3411 58.9636 98.0863 58.8759C99.5885 58.7224 101.05 58.2937 102.397 57.611C104.972 56.2751 107.06 54.0083 108.45 51.4784C110.097 48.4643 110.85 45.085 111.303 41.7077C111.746 38.4118 112.245 34.7966 110.996 31.6134C109.923 28.8728 107.682 26.7729 104.668 26.5245C101.48 26.2615 98.4223 28.161 95.9718 29.979C90.7869 33.826 87.3909 40.0754 87.0402 46.5315C86.9591 48.2498 87.0676 49.9718 87.3637 51.6663C87.48 52.457 87.6996 53.2289 88.0171 53.9623C88.3552 54.7075 88.9459 55.2836 89.3049 56.0079C90.119 57.6527 88.6787 59.8173 88.0171 61.2909L85.6062 66.6115C82.4752 73.4997 79.553 80.4442 75.5537 86.8877C73.5916 90.0521 71.5544 93.1706 69.5213 96.2807C67.9433 98.702 65.9958 101.453 66 104.467C66 107.12 68.0518 109.314 70.6798 109.635C73.5206 109.984 76.136 108.174 77.5825 105.851C79.2774 103.138 79.8222 99.7748 80.7344 96.744C81.7781 93.2478 82.9762 89.7912 84.2453 86.3659C86.8022 79.4569 89.7036 72.6647 92.6467 65.8955C93.3425 64.2855 94.0383 62.6762 94.734 61.0676C95.2684 59.8381 93.4545 58.7715 92.916 60.0051C87.6372 72.17 82.1809 84.3475 78.4383 97.0947C77.618 99.8917 77.1359 103.16 75.274 105.5C73.7168 107.456 70.5149 108.571 68.6864 106.298C67.0165 104.229 69.0621 100.988 70.1788 99.1653C71.8758 96.3996 73.7273 93.7195 75.4618 90.9851C77.3028 88.0984 79.1606 85.2033 80.7323 82.1558C82.3041 79.1083 83.6817 75.9335 85.1011 72.8004L89.5763 62.9232C90.7995 60.2222 92.7073 57.1831 90.7473 54.3652C88.9188 51.7352 88.8436 48.0677 89.2861 44.9722C89.7245 41.9122 90.956 39.0192 92.6551 36.4497C94.3103 33.9449 96.5291 31.9703 99.0757 30.3965C101.514 28.8978 104.849 27.5974 107.306 29.7912C109.673 31.9056 109.811 35.3184 109.569 38.2573C109.318 41.4426 108.867 44.6779 107.815 47.7066C106.882 50.4014 105.342 52.9187 103.083 54.6887C102.002 55.5474 100.756 56.1753 99.4222 56.5339C98.0257 56.8971 96.4999 56.7719 95.1682 57.3688C94.016 57.874 93.4232 58.9218 92.9223 60.0156C92.3587 61.2283 94.1726 62.2991 94.734 61.0592Z" fill="#FFC736"/>
<path d="M100.787 30.9643C96.6091 32.8903 93.2611 36.2523 91.3527 40.4387C90.7975 41.6639 92.6051 42.7347 93.1708 41.5011C94.9096 37.6378 97.9944 34.5388 101.85 32.7824C103.079 32.2188 102.011 30.4028 100.787 30.9643Z" fill="#FFC736"/>
<path d="M94.4059 55.6951C96.5308 56.1666 98.7529 55.8993 100.705 54.9374C102.5 54.0545 104.375 52.9023 105.544 51.2512C106.329 50.1429 104.5 49.0909 103.726 50.1888C102.845 51.4412 101.265 52.2636 99.9435 52.9649C98.4191 53.7796 96.6551 54.0274 94.9653 53.6642C93.644 53.3866 93.0867 55.4154 94.4059 55.6931V55.6951Z" fill="#FFC736"/>
</svg>
