<svg width="681" height="681" viewBox="0 0 681 681" fill="none" xmlns="http://www.w3.org/2000/svg">
<path d="M204.269 195.72C193.419 200.37 184.999 209.72 179.839 220.24C173.839 232.49 173.169 245.47 175.449 258.8C178.189 274.8 184.579 290.03 190.589 304.97C196.119 318.71 201.529 332.56 211.339 343.89C221.149 355.22 232.209 365.06 232.759 381.09C233.269 396.09 225.119 406.58 214.839 416.43C206.109 424.8 197.199 433.64 195.729 446.27C194.359 457.97 199.319 469.6 206.899 478.32C225.279 499.49 259.039 502.22 285.169 503.85C313.649 505.63 343.399 502.59 368.789 488.69C381.209 481.89 390.059 473.33 393.389 459.22C396.289 446.94 399.579 431.94 393.449 420.11C387.319 408.28 372.519 405.73 366.059 394.58C364.228 391.373 363.189 387.776 363.027 384.088C362.865 380.399 363.586 376.724 365.129 373.37C368.359 366.67 374.749 362.21 379.409 356.59C388.829 345.23 393.729 329.9 399.259 316.4C405.309 301.65 410.809 286.58 414.109 270.95C417.109 256.8 418.749 241.75 416.029 227.43C413.499 214.14 406.819 205.11 395.569 197.91C390.479 194.65 385.089 191.91 379.819 188.91C376.519 187.06 373.549 192.14 376.819 193.99C386.619 199.47 399.499 204.66 405.399 214.78C412.579 227.11 412.199 242.94 410.559 256.62C408.769 271.55 404.459 286.1 399.289 300.17C394.289 314.215 388.531 327.979 382.039 341.4C378.841 347.709 374.632 353.451 369.579 358.4C365.089 362.94 360.699 367.61 358.579 373.78C356.857 378.968 356.636 384.537 357.942 389.845C359.248 395.152 362.027 399.983 365.959 403.78C374.899 412.28 387.959 415.87 390.429 429.57C391.629 436.38 390.429 443.48 389.199 450.2C387.969 456.92 386.699 464.3 382.669 470.12C375.039 481.12 359.729 487.44 347.449 491.47C333.851 495.756 319.705 498.06 305.449 498.31C291.584 498.623 277.716 497.783 263.989 495.8C250.429 493.93 236.389 491.41 224.289 484.68C213.219 478.53 204.209 468.33 201.809 455.62C199.189 441.75 207.439 431.62 216.809 422.62C225.079 414.62 233.239 406.79 236.689 395.49C240.088 384.352 238.974 372.325 233.589 362C226.479 348.69 213.539 339.8 206.389 326.4C198.569 311.73 192.729 295.48 187.269 279.8C182.039 264.8 177.269 247.65 181.639 231.8C185.329 218.6 194.459 206.24 207.249 200.8C210.719 199.32 207.729 194.25 204.249 195.72H204.269Z" fill="#2B2C2B"/>
<path d="M205.758 198.26C192.148 199.58 178.158 223.69 177.178 240.46C176.198 257.23 181.698 273.65 187.648 289.36C190.742 297.533 193.975 305.65 197.348 313.71C200.688 321.71 204.198 329.71 209.348 336.71C216.148 346.02 225.648 353.35 231.098 363.51C234.423 369.881 236.026 377.01 235.747 384.191C235.468 391.373 233.318 398.356 229.508 404.45C221.188 417.45 205.678 425.4 200.298 439.82C194.598 455.11 202.898 472.82 215.898 482.73C228.898 492.64 245.518 496.15 261.668 498.47C298.788 503.81 338.848 503.41 370.988 484.1C376.898 480.55 382.598 476.25 386.158 470.34C389.378 465 390.628 458.73 391.828 452.61C394.048 441.25 395.998 428.44 389.358 418.95C383.568 410.67 372.748 407.35 366.138 399.7C362.808 395.689 360.76 390.77 360.261 385.581C359.762 380.392 360.834 375.172 363.338 370.6C366.888 364.41 372.838 360.03 377.338 354.54C382.458 348.36 385.698 340.87 388.868 333.54C400.758 305.94 412.868 277.54 414.298 247.54C414.878 235.81 413.678 223.61 407.968 213.35C402.708 203.91 389.918 191.51 378.338 191.51" fill="#2B2C2B"/>
<path d="M205.758 198.26C192.148 199.58 178.158 223.69 177.178 240.46C176.198 257.23 181.698 273.65 187.648 289.36C190.742 297.533 193.975 305.65 197.348 313.71C200.688 321.71 204.198 329.71 209.348 336.71C216.148 346.02 225.648 353.35 231.098 363.51C234.423 369.881 236.026 377.01 235.747 384.191C235.468 391.373 233.318 398.356 229.508 404.45C221.188 417.45 205.678 425.4 200.298 439.82C194.598 455.11 202.898 472.82 215.898 482.73C228.898 492.64 245.518 496.15 261.668 498.47C298.788 503.81 338.848 503.41 370.988 484.1C376.898 480.55 382.598 476.25 386.158 470.34C389.378 465 390.628 458.73 391.828 452.61C394.048 441.25 395.998 428.44 389.358 418.95C383.568 410.67 372.748 407.35 366.138 399.7C362.808 395.689 360.76 390.77 360.261 385.581C359.762 380.392 360.834 375.172 363.338 370.6C366.888 364.41 372.838 360.03 377.338 354.54C382.458 348.36 385.698 340.87 388.868 333.54C400.758 305.94 412.868 277.54 414.298 247.54C414.878 235.81 413.678 223.61 407.968 213.35C402.708 203.91 389.918 191.51 378.338 191.51" stroke="#2B2C2B" stroke-width="26.22" stroke-miterlimit="10"/>
<path d="M205.758 198.26C192.148 199.58 178.158 223.69 177.178 240.46C176.198 257.23 181.698 273.65 187.648 289.36C190.742 297.533 193.975 305.65 197.348 313.71C200.688 321.71 204.198 329.71 209.348 336.71C216.148 346.02 225.648 353.35 231.098 363.51C234.423 369.881 236.026 377.01 235.747 384.191C235.468 391.373 233.318 398.356 229.508 404.45C221.188 417.45 205.678 425.4 200.298 439.82C194.598 455.11 202.898 472.82 215.898 482.73C228.898 492.64 245.518 496.15 261.668 498.47C298.788 503.81 338.848 503.41 370.988 484.1C376.898 480.55 382.598 476.25 386.158 470.34C389.378 465 390.628 458.73 391.828 452.61C394.048 441.25 395.998 428.44 389.358 418.95C383.568 410.67 372.748 407.35 366.138 399.7C362.808 395.689 360.76 390.77 360.261 385.581C359.762 380.392 360.834 375.172 363.338 370.6C366.888 364.41 372.838 360.03 377.338 354.54C382.458 348.36 385.698 340.87 388.868 333.54C400.758 305.94 412.868 277.54 414.298 247.54C414.878 235.81 413.678 223.61 407.968 213.35C402.708 203.91 389.918 191.51 378.338 191.51" stroke="white" stroke-width="3.03" stroke-miterlimit="10"/>
<path d="M206.568 229.22C205.908 216.07 205.248 202.88 206.098 189.74C208.198 157.2 219.608 125.63 236.598 97.8002C243.858 85.9102 252.408 74.3802 264.108 66.8002C276.593 58.9103 291.51 55.7992 306.108 58.0401C320.663 60.3763 334.074 67.3488 344.348 77.9201C360.548 94.4601 367.828 117.64 373.008 140.21C378.512 164.17 382.272 188.497 384.258 213C384.498 216 384.668 219.26 383.048 221.82C381.428 224.38 378.388 225.65 375.528 226.68C329.668 243.26 279.198 243.24 231.068 235.35C223.188 234.07 213.678 232.87 206.568 229.22Z" fill="white"/>
<path d="M209.089 229.22C208.089 208.67 207.489 188.22 211.449 167.94C215.052 149.849 221.108 132.334 229.449 115.88C237.349 100.14 246.789 83.5401 260.719 72.3501C275.609 60.3501 295.979 57.0201 314.149 62.4401C351.229 73.4401 364.149 111.58 371.649 145.62C376.117 165.935 379.319 186.508 381.239 207.22C381.699 212.22 383.559 219.54 378.489 222.67C374.419 225.18 369.019 226.34 364.489 227.72C355.192 230.532 345.726 232.75 336.149 234.36C314.665 237.819 292.859 238.825 271.149 237.36C259.769 236.68 248.429 235.46 237.149 233.77C227.379 232.3 216.819 231.36 207.819 227.02C204.909 225.62 202.349 229.96 205.279 231.37C213.719 235.44 223.039 236.61 232.189 238.06C242.679 239.73 253.189 241.06 263.819 241.89C285.137 243.718 306.588 243.299 327.819 240.64C338.274 239.293 348.629 237.262 358.819 234.56C363.812 233.227 368.752 231.713 373.639 230.02C377.469 228.69 381.729 227.43 384.399 224.19C386.679 221.42 387.049 218 386.909 214.52C386.669 208.52 385.909 202.52 385.199 196.59C383.965 185.763 382.395 174.983 380.489 164.25C373.999 127.84 365.259 83.7901 330.229 63.8801C313.929 54.6201 294.169 52.1301 276.309 58.1901C258.449 64.2501 245.949 78.2501 236.119 93.7901C223.802 113.094 214.608 134.22 208.879 156.39C202.789 180.46 202.819 204.59 204.059 229.22C204.209 232.45 209.259 232.47 209.089 229.22Z" fill="#2B2C2B"/>
<path d="M395 235.52C399.33 232.89 406.43 241.52 405.05 246.47C403.67 251.42 399.34 254.88 395.25 257.99C386.57 264.6 377.77 271.28 367.68 275.41C362.466 277.438 357.094 279.037 351.62 280.19C309.84 289.727 266.464 289.874 224.62 280.62C217.67 279.08 210.62 277.21 204.73 273.23C198.84 269.25 194.19 262.77 194.17 255.65C194.17 253.04 194.97 250.16 197.17 248.84C198.585 248.146 200.157 247.836 201.73 247.94C210.42 247.94 218.98 249.87 227.44 251.84L256.92 258.69C265.14 260.6 273.37 262.51 281.72 263.74C321.713 269.428 362.349 259.305 395 235.52Z" fill="#F04B24"/>
<path d="M472 395C473.18 392.43 474.43 388.86 476.83 387.12C479.83 384.92 484.49 384.96 488.06 384.54C495.257 383.805 502.257 381.751 508.71 378.48C521.05 372.08 531.05 361.22 537.71 349.1C545.6 334.66 549.21 318.47 551.38 302.29C553.5 286.5 555.89 269.18 549.91 253.93C544.77 240.8 534.03 230.74 519.59 229.55C504.32 228.29 489.67 237.39 477.93 246.1C453.09 264.53 436.82 294.47 435.14 325.4C434.751 333.632 435.271 341.882 436.69 350C437.247 353.788 438.299 357.486 439.82 361C441.44 364.57 444.27 367.33 445.99 370.8C449.89 378.68 442.99 389.05 439.82 396.11L428.27 421.6C413.27 454.6 399.27 487.87 380.11 518.74C370.71 533.9 360.95 548.84 351.21 563.74C343.65 575.34 334.32 588.52 334.34 602.96C334.34 615.67 344.17 626.18 356.76 627.72C370.37 629.39 382.9 620.72 389.83 609.59C397.95 596.59 400.56 580.48 404.93 565.96C409.93 549.21 415.67 532.65 421.75 516.24C434 483.14 447.9 450.6 462 418.17C465.333 410.457 468.667 402.747 472 395.04C474.56 389.15 465.87 384.04 463.29 389.95C438 448.23 411.86 506.57 393.93 567.64C390 581.04 387.69 596.7 378.77 607.91C371.31 617.28 355.97 622.62 347.21 611.73C339.21 601.82 349.01 586.29 354.36 577.56C362.49 564.31 371.36 551.47 379.67 538.37C388.49 524.54 397.39 510.67 404.92 496.07C412.45 481.47 419.05 466.26 425.85 451.25L447.29 403.93C453.15 390.99 462.29 376.43 452.9 362.93C444.14 350.33 443.78 332.76 445.9 317.93C448 303.27 453.9 289.41 462.04 277.1C469.97 265.1 480.6 255.64 492.8 248.1C504.48 240.92 520.46 234.69 532.23 245.2C543.57 255.33 544.23 271.68 543.07 285.76C541.87 301.02 539.71 316.52 534.67 331.03C530.2 343.94 522.82 356 512 364.48C506.818 368.594 500.849 371.602 494.46 373.32C487.77 375.06 480.46 374.46 474.08 377.32C468.56 379.74 465.72 384.76 463.32 390C460.62 395.81 469.31 400.94 472 395Z" fill="#FFC736"/>
<path d="M501 250.82C480.983 260.047 464.943 276.154 455.8 296.21C453.14 302.08 461.8 307.21 464.51 301.3C472.841 282.791 487.62 267.945 506.09 259.53C511.98 256.83 506.86 248.13 501 250.82Z" fill="#FFC736"/>
<path d="M470.43 369.3C480.61 371.559 491.256 370.278 500.61 365.67C509.21 361.44 518.19 355.92 523.79 348.01C527.55 342.7 518.79 337.66 515.08 342.92C510.86 348.92 503.29 352.86 496.96 356.22C489.657 360.123 481.206 361.31 473.11 359.57C466.78 358.24 464.11 367.96 470.43 369.29V369.3Z" fill="#FFC736"/>
</svg>
